<svg width="1920" height="226" viewBox="0 0 1920 226" fill="none" xmlns="http://www.w3.org/2000/svg">
<g clip-path="url(#clip0_147_160)">
<mask id="mask0_147_160" style="mask-type:luminance" maskUnits="userSpaceOnUse" x="0" y="0" width="1920" height="226">
<path d="M1920 0H0V226H1920V0Z" fill="white"/>
</mask>
<g mask="url(#mask0_147_160)">
<mask id="mask1_147_160" style="mask-type:luminance" maskUnits="userSpaceOnUse" x="0" y="0" width="1920" height="226">
<path d="M1920 0H0V226H1920V0Z" fill="white"/>
</mask>
<g mask="url(#mask1_147_160)">
<mask id="mask2_147_160" style="mask-type:luminance" maskUnits="userSpaceOnUse" x="-118" y="-1324" width="2039" height="1762">
<path d="M1920.24 -1324H-118V437.22H1920.24V-1324Z" fill="white"/>
</mask>
<g mask="url(#mask2_147_160)">
<path opacity="0.6" d="M0.244995 78.356V-1119.87H6.245V-1458.12C6.245 -1458.12 331.555 -1230.23 936.962 -1419.4C1542.37 -1608.57 1913.98 -1419.4 1913.98 -1419.4V-1119.87H1920.24V77.2479C1920.24 77.2479 1560.51 -110.816 963.581 78.356C764.617 141.41 591.237 162.43 448.525 162.433C163.076 162.438 0.244995 78.356 0.244995 78.356Z" fill="#FBEBD5"/>
<path d="M956.908 86.2637C359.979 -85.1173 0.244995 85.2637 0.244995 85.2637V-1457.83C0.244995 -1457.83 366.653 -1629.21 963.582 -1457.83C1560.51 -1286.45 1920.24 -1456.83 1920.24 -1456.83V86.2637C1920.24 86.2637 1757.41 162.438 1471.96 162.433C1329.25 162.431 1155.87 143.388 956.908 86.2637Z" fill="#F5D09C"/>
<path d="M-116.936 -19.5156C-116.936 -19.5156 23.064 207.152 382.458 225.334C658.113 239.279 1180.85 29.1035 1589.45 41.2505C1713.18 44.9285 1826.65 69.1304 1919.43 126.365" stroke="#E9AE69" stroke-width="2.5"/>
</g>
</g>
</g>
</g>
<defs>
<clipPath id="clip0_147_160">
<rect width="1920" height="226" fill="white"/>
</clipPath>
</defs>
</svg>
