<svg width="1920" height="293" viewBox="0 0 1920 293" fill="none" xmlns="http://www.w3.org/2000/svg">
<g clip-path="url(#clip0_147_145)">
<mask id="mask0_147_145" style="mask-type:luminance" maskUnits="userSpaceOnUse" x="0" y="0" width="1920" height="293">
<path d="M0 293H1920V0H0V293Z" fill="white"/>
</mask>
<g mask="url(#mask0_147_145)">
<mask id="mask1_147_145" style="mask-type:luminance" maskUnits="userSpaceOnUse" x="0" y="0" width="1920" height="293">
<path d="M0 293H1920V5.72205e-06H0V293Z" fill="white"/>
</mask>
<g mask="url(#mask1_147_145)">
<mask id="mask2_147_145" style="mask-type:luminance" maskUnits="userSpaceOnUse" x="-1" y="-274" width="2039" height="2284">
<path d="M-0.23999 2009.52H2038V-273.836H-0.23999V2009.52Z" fill="white"/>
</mask>
<g mask="url(#mask2_147_145)">
<path opacity="0.6" d="M1919.99 207.748V1761.2H1913.99V2199.73C1913.99 2199.73 1588.68 1904.28 983.278 2149.53C377.87 2394.78 6.26001 2149.53 6.26001 2149.53V1761.2H0V209.185C0 209.185 359.73 453.002 956.659 207.748C1155.62 126.001 1329 98.7498 1471.71 98.7459C1757.16 98.7394 1919.99 207.748 1919.99 207.748Z" fill="#FBEBD5"/>
<path d="M963.332 98.7521C1560.26 320.941 1919.99 100.049 1919.99 100.049V2100.61C1919.99 2100.61 1553.59 2322.8 956.658 2100.61C359.73 1878.42 0 2099.31 0 2099.31V98.7521C0 98.7521 162.83 -0.004712 448.28 0.0017703C590.99 0.00436322 764.37 24.6928 963.332 98.7521Z" fill="#F5D09C"/>
</g>
</g>
</g>
</g>
<defs>
<clipPath id="clip0_147_145">
<rect width="1920" height="293" fill="white" transform="matrix(-1 0 0 -1 1920 293)"/>
</clipPath>
</defs>
</svg>
