<svg xmlns="http://www.w3.org/2000/svg" width="132" height="115.5" viewBox="0 0 132 115.5">
  <path id="Icon_awesome-gift" data-name="Icon awesome-gift" d="M8.25,109.5a8.241,8.241,0,0,0,8.25,8.25H57.75V76.5H8.25Zm66,8.25H115.5a8.241,8.241,0,0,0,8.25-8.25v-33H74.25Zm49.5-82.5H112.9a22.48,22.48,0,0,0,2.6-10.312A22.721,22.721,0,0,0,92.813,2.25c-10.725,0-17.66,5.491-26.555,17.609C57.363,7.741,50.428,2.25,39.7,2.25A22.721,22.721,0,0,0,17.016,24.938a22.164,22.164,0,0,0,2.6,10.312H8.25A8.241,8.241,0,0,0,0,43.5V64.125A4.137,4.137,0,0,0,4.125,68.25h123.75A4.137,4.137,0,0,0,132,64.125V43.5A8.241,8.241,0,0,0,123.75,35.25Zm-84.073,0a10.312,10.312,0,1,1,0-20.625c5.13,0,8.92.851,22.2,20.625Zm53.135,0h-22.2c13.252-19.723,16.938-20.625,22.2-20.625a10.312,10.312,0,1,1,0,20.625Z" transform="translate(0 -2.25)" fill="#fff"/>
</svg>
