<svg id="Grupo_2625" data-name="Grupo 2625" xmlns="http://www.w3.org/2000/svg" xmlns:xlink="http://www.w3.org/1999/xlink" width="89.817" height="106.402" viewBox="0 0 89.817 106.402">
  <defs>
    <clipPath id="clip-path">
      <rect id="Rectángulo_107" data-name="Rectángulo 107" width="89.817" height="106.402" fill="none"/>
    </clipPath>
  </defs>
  <g id="Grupo_2624" data-name="Grupo 2624" clip-path="url(#clip-path)">
    <path id="Trazado_3692" data-name="Trazado 3692" d="M79.792,106.4h-8.3c-3.151-1.1-4.426-3.429-4.366-6.643.017-.933,0-1.867,0-2.8,0-1.667,0-1.67-1.676-1.67H24.384c-.242,0-.484.01-.726,0-.648-.017-.949.292-.946.941.008,1.175-.022,2.351,0,3.526.056,3.214-1.217,5.543-4.367,6.643h-8.3c-3.236-1.273-4.416-3-4.421-6.468,0-2.7-.009-5.4,0-8.093a1.941,1.941,0,0,0-.551-1.5A17.471,17.471,0,0,1,0,77.39Q.057,51.034.015,24.678A41.584,41.584,0,0,1,.21,19.5a17.271,17.271,0,0,1,5.6-11.25,27.441,27.441,0,0,1,11.508-5.7A84.84,84.84,0,0,1,37.652.1,197.783,197.783,0,0,1,61.281.645,59.543,59.543,0,0,1,76.162,3.7a22.509,22.509,0,0,1,8.966,5.632c3.467,3.747,4.673,8.31,4.678,13.266q.026,27.7,0,55.41A16.8,16.8,0,0,1,84.9,90.19a2.291,2.291,0,0,0-.7,1.754c.026,2.663.012,5.326.009,7.989,0,3.472-1.185,5.2-4.421,6.468M44.916,22.6q-15.933,0-31.866,0c-1.5,0-1.53.029-1.531,1.492q0,12.352,0,24.7c0,1.463.041,1.5,1.531,1.5q31.866,0,63.732,0c1.49,0,1.53-.039,1.531-1.5q0-12.352,0-24.7c0-1.463-.033-1.492-1.531-1.492q-15.933,0-31.866,0M11.537,75.679A8.218,8.218,0,0,0,19.791,83.9a8.366,8.366,0,0,0,8.221-8.313,8.238,8.238,0,0,0-8.318-8.162,8.1,8.1,0,0,0-8.158,8.256m66.758-.035A8.1,8.1,0,0,0,70.1,67.424a8.236,8.236,0,0,0-8.284,8.2A8.366,8.366,0,0,0,70.075,83.9a8.219,8.219,0,0,0,8.22-8.254" transform="translate(0 0)" fill="#e9ae69"/>
  </g>
</svg>
