<svg width="119" height="119" viewBox="0 0 119 119" fill="none" xmlns="http://www.w3.org/2000/svg">
<g clip-path="url(#clip0_17_9)">
<mask id="mask0_17_9" style="mask-type:luminance" maskUnits="userSpaceOnUse" x="0" y="0" width="119" height="119">
<path d="M119 0H0V119H119V0Z" fill="white"/>
</mask>
<g mask="url(#mask0_17_9)">
<path d="M59.5 119C92.3609 119 119 92.3609 119 59.5C119 26.6391 92.3609 0 59.5 0C26.6391 0 0 26.6391 0 59.5C0 92.3609 26.6391 119 59.5 119Z" fill="#B0DBD7"/>
<path d="M64.908 51.9799C64.057 50.4739 62.46 49.9799 60.508 49.9799V49.9399C59.1595 49.9964 57.8183 50.1684 56.499 50.4539C55.2735 50.6796 54.0932 51.1045 53.005 51.7119C53.386 55.1554 53.392 58.6301 53.023 62.0749C52.8372 64.6287 52.3677 67.154 51.623 69.6039C51.623 69.6039 52.563 71.7469 58.723 72.2609C59.415 72.3139 60.071 72.3499 60.674 72.3499C65.02 72.3499 67.131 71.0569 67.131 71.0569C67.6582 69.8202 67.9182 68.4861 67.894 67.1419C68.225 61.4399 66.641 55.0089 64.908 51.9799Z" fill="white"/>
<path d="M49.812 51.148C45.909 44.025 34.521 34 28.295 34C23.595 34 19 46.134 19 59.509C19 72.884 23.08 85.018 28.135 85.018C34.06 85.018 47.735 70.846 47.735 70.846C48.5236 68.9277 49.112 66.9331 49.491 64.894L49.81 63.052C49.934 62.219 50.041 61.334 50.11 60.395C50.1633 59.775 50.1987 59.1903 50.216 58.641L50.269 56.905C50.3184 54.9753 50.1652 53.0457 49.812 51.148Z" fill="white"/>
<path d="M89.173 34C82.716 34 72.073 44.009 68.188 51.148L68.046 51.396L68.383 51.996C69.1052 53.3432 69.6664 54.7707 70.055 56.249L70.565 58.325C70.9701 60.2012 71.2193 62.1077 71.31 64.025L71.345 65.619C71.345 66.133 71.327 66.629 71.292 67.125C71.115 70.083 70.476 71.04 70.476 71.04C71.824 72.9 82.716 85.017 89.314 85.017C94.369 85.017 98.449 72.883 98.449 59.508C98.449 46.133 93.874 34 89.173 34Z" fill="white"/>
</g>
</g>
<defs>
<clipPath id="clip0_17_9">
<rect width="119" height="119" fill="white"/>
</clipPath>
</defs>
</svg>
