<svg width="119" height="119" viewBox="0 0 119 119" fill="none" xmlns="http://www.w3.org/2000/svg">
<g clip-path="url(#clip0_17_18)">
<mask id="mask0_17_18" style="mask-type:luminance" maskUnits="userSpaceOnUse" x="0" y="0" width="119" height="119">
<path d="M119 0H0V119H119V0Z" fill="white"/>
</mask>
<g mask="url(#mask0_17_18)">
<path d="M59.5 119C92.3609 119 119 92.3609 119 59.5C119 26.6391 92.3609 0 59.5 0C26.6391 0 0 26.6391 0 59.5C0 92.3609 26.6391 119 59.5 119Z" fill="#B0DBD7"/>
<path d="M59.005 44.1C55.862 44.1004 52.7897 45.0327 50.1765 46.7792C47.5634 48.5256 45.5268 51.0077 44.3242 53.9115C43.1217 56.8154 42.8072 60.0106 43.4205 63.0932C44.0339 66.1758 45.5475 69.0073 47.77 71.2297C49.9925 73.4521 52.8241 74.9655 55.9067 75.5787C58.9894 76.1918 62.1846 75.8771 65.0884 74.6744C67.9921 73.4716 70.4741 71.4349 72.2204 68.8216C73.9666 66.2084 74.8988 63.136 74.899 59.993C74.9024 57.9048 74.4936 55.8366 73.6961 53.9067C72.8985 51.9769 71.7279 50.2234 70.2513 48.7469C68.7747 47.2705 67.0212 46.0999 65.0913 45.3025C63.1614 44.5051 61.0931 44.0964 59.005 44.1ZM59.005 70.325C56.9616 70.3246 54.9642 69.7183 53.2654 68.5828C51.5666 67.4472 50.2426 65.8334 49.4609 63.9455C48.6792 62.0575 48.4749 59.9802 48.8738 57.9761C49.2726 55.972 50.2568 54.1312 51.7019 52.6865C53.1469 51.2417 54.9879 50.2579 56.9921 49.8594C58.9962 49.4609 61.0735 49.6656 62.9613 50.4477C64.8491 51.2297 66.4627 52.554 67.5979 54.253C68.7331 55.9521 69.339 57.9496 69.339 59.993C69.334 62.732 68.2435 65.3574 66.3066 67.294C64.3696 69.2306 61.744 70.3205 59.005 70.325ZM79.256 43.45C79.256 44.1832 79.0386 44.8999 78.6312 45.5095C78.2239 46.1191 77.645 46.5942 76.9676 46.8748C76.2902 47.1554 75.5449 47.2288 74.8258 47.0858C74.1067 46.9427 73.4462 46.5897 72.9277 46.0712C72.4093 45.5528 72.0563 44.8923 71.9132 44.1732C71.7702 43.4541 71.8436 42.7087 72.1242 42.0314C72.4047 41.354 72.8799 40.7751 73.4895 40.3677C74.0991 39.9604 74.8158 39.743 75.549 39.743C76.0361 39.7421 76.5185 39.8373 76.9687 40.0233C77.4189 40.2093 77.8279 40.4823 78.1723 40.8267C78.5167 41.1711 78.7897 41.5801 78.9757 42.0303C79.1617 42.4805 79.2569 42.9629 79.256 43.45ZM89.782 47.212C89.547 42.246 88.413 37.848 84.775 34.224C81.137 30.6 76.753 29.462 71.787 29.218C66.669 28.928 51.33 28.928 46.212 29.218C41.26 29.453 36.862 30.587 33.224 34.211C29.586 37.835 28.467 42.233 28.218 47.199C27.928 52.317 27.928 67.656 28.218 72.774C28.453 77.739 29.587 82.137 33.225 85.762C36.863 89.387 41.247 90.52 46.213 90.769C51.331 91.059 66.67 91.059 71.788 90.769C76.754 90.534 81.152 89.4 84.776 85.762C88.4 82.124 89.534 77.74 89.783 72.774C90.073 67.656 90.073 52.331 89.783 47.213L89.782 47.212ZM83.17 78.262C82.644 79.5954 81.8496 80.8065 80.836 81.82C79.8225 82.8336 78.6114 83.628 77.278 84.154C73.198 85.775 63.516 85.401 59.005 85.401C54.494 85.401 44.805 85.762 40.735 84.157C39.4013 83.6307 38.1901 82.8358 37.1765 81.8217C36.1629 80.8076 35.3686 79.5959 34.843 78.262C33.225 74.184 33.598 64.502 33.598 59.993C33.598 55.484 33.238 45.788 34.843 41.722C35.3689 40.3884 36.1632 39.1771 37.1768 38.1634C38.1904 37.1497 39.4015 36.3551 40.735 35.829C44.815 34.211 54.498 34.584 59.005 34.584C63.512 34.584 73.21 34.224 77.276 35.829C78.6094 36.355 79.8205 37.1494 80.834 38.163C81.8476 39.1765 82.642 40.3876 83.168 41.721C84.786 45.801 84.413 55.483 84.413 59.992C84.413 64.501 84.789 74.198 83.17 78.262Z" fill="white"/>
</g>
</g>
<defs>
<clipPath id="clip0_17_18">
<rect width="119" height="119" fill="white"/>
</clipPath>
</defs>
</svg>
