<svg width="119" height="120" viewBox="0 0 119 120" fill="none" xmlns="http://www.w3.org/2000/svg">
<g clip-path="url(#clip0_17_35)">
<path d="M59.5 119.362C92.3609 119.362 119 92.7228 119 59.8618C119 27.0009 92.3609 0.361816 59.5 0.361816C26.6391 0.361816 0 27.0009 0 59.8618C0 92.7228 26.6391 119.362 59.5 119.362Z" fill="#B0DBD7"/>
<path d="M87 30.5509C86.9997 29.8935 86.8446 29.2455 86.5472 28.6593C86.2498 28.0731 85.8185 27.5652 85.2882 27.1767C84.758 26.7882 84.1437 26.5301 83.4951 26.4233C82.8465 26.3165 82.1818 26.364 81.555 26.5619L39.681 38.9249C38.8315 39.1918 38.0892 39.7228 37.5621 40.4405C37.035 41.1582 36.7505 42.0254 36.75 42.9159V77.1259C35.3791 76.7923 33.9739 76.6201 32.563 76.6129C25.624 76.6129 20 80.3619 20 84.9879C20 89.6139 25.624 93.3619 32.563 93.3619C39.502 93.3619 45.126 89.6129 45.126 84.9869V54.4069L78.626 44.5899V68.7509C77.2551 68.4173 75.8499 68.2451 74.439 68.2379C67.501 68.2379 61.876 71.9869 61.876 76.6129C61.876 81.2389 67.5 84.9879 74.439 84.9879C81.378 84.9879 87 81.2379 87 76.6129V30.5509Z" fill="white"/>
</g>
<defs>
<clipPath id="clip0_17_35">
<rect width="119" height="120" fill="white"/>
</clipPath>
</defs>
</svg>
