<svg xmlns="http://www.w3.org/2000/svg" width="125.522" height="80.711" viewBox="0 0 125.522 80.711">
  <g id="Grupo_2720" data-name="Grupo 2720" transform="translate(-434.464 -5896.586)">
    <path id="Trazado_3546" data-name="Trazado 3546" d="M36.171,17.426c-1.345-2.382-3.867-3.167-6.95-3.167V14.2a37.29,37.29,0,0,0-6.334.813,18.008,18.008,0,0,0-5.521,1.99A75.838,75.838,0,0,1,17.394,33.4c-.981,8.744-2.214,11.91-2.214,11.91s1.485,3.391,11.21,4.2c1.093.084,2.13.14,3.083.14,6.866,0,10.2-2.046,10.2-2.046s.925-1.513,1.205-6.193C41.411,32.391,38.917,22.218,36.171,17.426Z" transform="translate(470.821 5907.604)" fill="#AE9461"/>
    <path id="Trazado_3547" data-name="Trazado 3547" d="M50.929,35C44.763,23.737,26.771,7.875,16.935,7.875,9.508,7.875,2.25,27.072,2.25,48.23S8.7,88.586,16.683,88.586c9.36,0,30.967-22.42,30.967-22.42a47.732,47.732,0,0,0,2.774-9.416l.5-2.915c.2-1.317.364-2.718.476-4.2q.126-1.471.168-2.774l.084-2.746A43.722,43.722,0,0,0,50.929,35Z" transform="translate(432.214 5888.711)" fill="#AE9461"/>
    <path id="Trazado_3548" data-name="Trazado 3548" d="M55.069,7.875c-10.2,0-27.016,15.834-33.153,27.128l-.224.392s.392.7.532.953a30.852,30.852,0,0,1,2.634,6.726l.813,3.279a55.14,55.14,0,0,1,1.177,9.024L26.9,57.9c0,.813-.028,1.6-.084,2.382-.28,4.68-1.289,6.193-1.289,6.193,2.13,2.943,19.337,22.111,29.762,22.111,7.987,0,14.433-19.2,14.433-40.355S62.5,7.875,55.069,7.875Z" transform="translate(490.261 5888.711)" fill="#AE9461"/>
  </g>
</svg>
