<svg xmlns="http://www.w3.org/2000/svg" xmlns:xlink="http://www.w3.org/1999/xlink" width="468" height="440" viewBox="0 0 468 440">
  <defs>
    <clipPath id="clip-path">
      <rect id="Rectángulo_394" data-name="Rectángulo 394" width="103.798" height="110.821" fill="none"/>
    </clipPath>
    <clipPath id="clip-path-3">
      <rect id="Rectángulo_389" data-name="Rectángulo 389" width="76.36" height="68.38" fill="none"/>
    </clipPath>
    <clipPath id="clip-path-4">
      <rect id="Rectángulo_390" data-name="Rectángulo 390" width="64.43" height="50.824" fill="none"/>
    </clipPath>
    <clipPath id="clip-path-5">
      <rect id="Rectángulo_391" data-name="Rectángulo 391" width="40.311" height="34.498" fill="none"/>
    </clipPath>
    <clipPath id="clip-path-6">
      <rect id="Rectángulo_392" data-name="Rectángulo 392" width="17.461" height="9.933" fill="none"/>
    </clipPath>
    <clipPath id="clip-path-7">
      <rect id="Rectángulo_394-2" data-name="Rectángulo 394" width="66.5" height="70.999" fill="none"/>
    </clipPath>
    <clipPath id="clip-path-9">
      <rect id="Rectángulo_389-2" data-name="Rectángulo 389" width="48.921" height="43.808" fill="none"/>
    </clipPath>
    <clipPath id="clip-path-10">
      <rect id="Rectángulo_390-2" data-name="Rectángulo 390" width="41.278" height="32.561" fill="none"/>
    </clipPath>
    <clipPath id="clip-path-11">
      <rect id="Rectángulo_391-2" data-name="Rectángulo 391" width="25.826" height="22.102" fill="none"/>
    </clipPath>
    <clipPath id="clip-path-12">
      <rect id="Rectángulo_392-2" data-name="Rectángulo 392" width="11.187" height="6.364" fill="none"/>
    </clipPath>
    <clipPath id="clip-path-13">
      <rect id="Rectángulo_409" data-name="Rectángulo 409" width="477.37" height="254.684" fill="none"/>
    </clipPath>
    <clipPath id="clip-path-15">
      <rect id="Rectángulo_395" data-name="Rectángulo 395" width="55" height="26.844" fill="none"/>
    </clipPath>
    <clipPath id="clip-path-16">
      <rect id="Rectángulo_396" data-name="Rectángulo 396" width="6.999" height="7.234" fill="none"/>
    </clipPath>
    <clipPath id="clip-path-17">
      <rect id="Rectángulo_397" data-name="Rectángulo 397" width="28.742" height="18.701" fill="none"/>
    </clipPath>
    <clipPath id="clip-path-18">
      <rect id="Rectángulo_398" data-name="Rectángulo 398" width="5.474" height="5.658" fill="none"/>
    </clipPath>
    <clipPath id="clip-path-19">
      <rect id="Rectángulo_399" data-name="Rectángulo 399" width="18.95" height="9.27" fill="none"/>
    </clipPath>
    <clipPath id="clip-path-20">
      <rect id="Rectángulo_400" data-name="Rectángulo 400" width="30.158" height="23.048" fill="none"/>
    </clipPath>
    <clipPath id="clip-path-21">
      <rect id="Rectángulo_401" data-name="Rectángulo 401" width="274.278" height="157.494" fill="none"/>
    </clipPath>
    <clipPath id="clip-path-22">
      <rect id="Rectángulo_402" data-name="Rectángulo 402" width="52.169" height="27.346" fill="none"/>
    </clipPath>
    <clipPath id="clip-path-23">
      <rect id="Rectángulo_403" data-name="Rectángulo 403" width="6.701" height="6.934" fill="none"/>
    </clipPath>
    <clipPath id="clip-path-24">
      <rect id="Rectángulo_404" data-name="Rectángulo 404" width="28.347" height="16.867" fill="none"/>
    </clipPath>
    <clipPath id="clip-path-25">
      <rect id="Rectángulo_405" data-name="Rectángulo 405" width="5.24" height="5.422" fill="none"/>
    </clipPath>
    <clipPath id="clip-path-26">
      <rect id="Rectángulo_406" data-name="Rectángulo 406" width="18.451" height="8.212" fill="none"/>
    </clipPath>
    <clipPath id="clip-path-27">
      <rect id="Rectángulo_407" data-name="Rectángulo 407" width="30.065" height="20.695" fill="none"/>
    </clipPath>
    <clipPath id="clip-dibujo-02">
      <rect width="468" height="440"/>
    </clipPath>
  </defs>
  <g id="dibujo-02" clip-path="url(#clip-dibujo-02)">
    <g id="Grupo_3389" data-name="Grupo 3389" transform="translate(-1449 -667.588)">
      <g id="Grupo_3341" data-name="Grupo 3341" transform="translate(1761 664.904)">
        <g id="Grupo_3340" data-name="Grupo 3340" clip-path="url(#clip-path)">
          <g id="Grupo_3339" data-name="Grupo 3339">
            <g id="Grupo_3338" data-name="Grupo 3338" clip-path="url(#clip-path)">
              <path id="Trazado_7453" data-name="Trazado 7453" d="M41.39,14.446c.4-4.363,1.593-8.777,4.466-12.055A6.569,6.569,0,0,1,49.373.079c2.211-.43,4.379.946,5.95,2.56,4.276,4.395,5.934,10.612,8.219,16.3S69.484,30.512,75.4,32.113a18.474,18.474,0,0,0,7.84.053c2.754-.456,5.113-1.747,7.739-2.687,3.91-1.4,8.974-1.7,11.537,1.568,3.492,4.453-.766,10.905-5.5,14.007S86.314,50.881,85.026,56.392c-1.165,4.984,2.149,9.771,4.95,14.054a93.96,93.96,0,0,1,7.858,14.728c1.411,3.324,2.44,7.666-.185,10.146A6.71,6.71,0,0,1,92.5,96.808c-10.772-.841-17.278-16.253-27.939-14.493-6.173,1.019-9.732,7.447-12.035,13.264s-4.856,12.407-10.631,14.811a4.292,4.292,0,0,1-2.145.409,4.36,4.36,0,0,1-2.913-2.271c-4.57-7.358.325-15.491-.86-23.3-.5-3.28-.186-6.623-1.749-9.662-2.455-4.775-7.7-7.457-12.886-8.861S10.715,64.86,5.683,62.988c-2.945-1.1-6.146-3.5-5.627-6.594A5.963,5.963,0,0,1,1.5,53.619C5.437,48.961,12,47.782,17.948,46.46A38.281,38.281,0,0,0,27.2,43.182a9.487,9.487,0,0,1,1.518-.657c.846-.26,1.726-.353,2.564-.654a15.382,15.382,0,0,0,7.285-5.059,15.217,15.217,0,0,0,2.359-7.379c.476-4.655.069-9.358.384-14.026q.033-.479.077-.96" transform="translate(0 0)" fill="#ffc024"/>
              <g id="Grupo_3328" data-name="Grupo 3328" transform="translate(14.701 10.493)" opacity="0.36">
                <g id="Grupo_3327" data-name="Grupo 3327">
                  <g id="Grupo_3326" data-name="Grupo 3326" clip-path="url(#clip-path-3)">
                    <path id="Trazado_7454" data-name="Trazado 7454" d="M65.371,40.264c0,.069-.006.137-.009.206C65.192,44.41,65,48.527,63.2,52.119a14.079,14.079,0,0,1-.705,1.243c-2.838,4.453-8.041,6.786-13.127,8.21s-10.423,2.215-15.093,4.68a3.886,3.886,0,0,0-1.655,1.362c-.744,1.295.135,3.032,1.442,3.753a8.96,8.96,0,0,0,4.372.714c4.991,0,10.477.543,13.976,4.1a6.487,6.487,0,0,1,1.475,2.071A9.955,9.955,0,0,0,55.167,80.2a17.8,17.8,0,0,1,2.383,4.677A25.042,25.042,0,0,0,59,88.977a4.383,4.383,0,0,0,3.351,2.486c2.531.151,4.076-2.6,5.408-4.76,2.237-3.623,6.077-6.743,10.318-6.365,3.841.343,6.908,3.4,10.642,4.363a10.19,10.19,0,0,0,6.544-.514,3.451,3.451,0,0,0,1.483-1.056,3.222,3.222,0,0,0,.508-1.7c.135-2.159-.7-4.244-1.106-6.369a15.367,15.367,0,0,1,.21-6.5,16.97,16.97,0,0,1,3.351-6.694,15.96,15.96,0,0,1,2.7-2.605,14.919,14.919,0,0,1,1.567-1.038A11.34,11.34,0,0,0,105.635,57c1.3-1.073,2.693-2.281,3.02-3.939a2.994,2.994,0,0,0-2.59-3.431c-1.57-.252-3.627.724-5.14,1.118-3.715.968-7.684,1.866-11.491.86q-.282-.074-.559-.162C83.62,49.787,80.205,44.712,78.1,39.621c-1.962-4.742-3.019-10.183-6.039-14.415-.765-1.072-2.339-2.968-3.733-1.692-2.12,1.944-1.4,5.351-2.019,7.861a25.419,25.419,0,0,0-.531,2.979c-.245,1.961-.321,3.938-.405,5.91" transform="translate(-32.347 -23.088)" fill="#fff"/>
                  </g>
                </g>
              </g>
              <g id="Grupo_3331" data-name="Grupo 3331" transform="translate(34.84 59.997)" opacity="0.1">
                <g id="Grupo_3330" data-name="Grupo 3330">
                  <g id="Grupo_3329" data-name="Grupo 3329" clip-path="url(#clip-path-4)">
                    <path id="Trazado_7455" data-name="Trazado 7455" d="M139.468,167.338c2.625-2.48,1.6-6.821.186-10.146a94.053,94.053,0,0,0-7.858-14.728c-2.118-3.239-4.527-6.767-5.072-10.45a12.64,12.64,0,0,0-.239,3.035c.171,3.765,1.708,7.309,2.832,10.906.681,2.18,1.193,4.642.138,6.669-1.642,3.157-6.016,3.494-9.528,2.92a38.591,38.591,0,0,1-8.969-2.612c-2.737-1.172-5.429-2.685-8.4-2.89a10.319,10.319,0,0,0-8.827,4.124c-2.518,3.411-3.453,8.741-7.574,9.74-2.9.7-5.772-1.363-7.547-3.758-.226-.3-.441-.615-.651-.931.253,7.2-3.494,14.588.694,21.33a4.364,4.364,0,0,0,2.912,2.27,4.293,4.293,0,0,0,2.146-.409c5.776-2.4,8.328-8.995,10.632-14.811s5.862-12.245,12.035-13.264c10.661-1.761,17.166,13.651,27.939,14.493a6.71,6.71,0,0,0,5.151-1.489" transform="translate(-76.659 -132.015)" fill="#383838"/>
                  </g>
                </g>
              </g>
              <g id="Grupo_3334" data-name="Grupo 3334" transform="translate(36.702 33.266)" opacity="0.36">
                <g id="Grupo_3333" data-name="Grupo 3333">
                  <g id="Grupo_3332" data-name="Grupo 3332" clip-path="url(#clip-path-5)">
                    <path id="Trazado_7456" data-name="Trazado 7456" d="M105.817,80.467a19.465,19.465,0,0,1-3.681-4.766c-.613-1.122-1.371-2.478-2.649-2.5a2.8,2.8,0,0,0-2.313,1.878c-1.631,3.505-.45,8.015-2.691,11.165-2.944,4.138-9.87,3.359-13.082,7.293a2.189,2.189,0,0,0-.615,1.758,2.044,2.044,0,0,0,.852,1.142c1.343,1,3.09,1.2,4.715,1.592s3.359,1.176,3.973,2.731a8.9,8.9,0,0,1,.16,3.562c-.037,1.2.26,2.583,1.323,3.139a2.379,2.379,0,0,0,1.459.2,5.09,5.09,0,0,0,3.175-2.4,20.466,20.466,0,0,1,2.364-3.329,7.451,7.451,0,0,1,5.841-1.8,16.189,16.189,0,0,1,5.938,2,9.528,9.528,0,0,0,2.859,1.159,2.8,2.8,0,0,0,2.764-.988c.865-1.288.037-2.979-.246-4.5-.548-2.951,1.318-5.428,3.347-7.344a4.549,4.549,0,0,0,1.74-2.412c.184-1.348-1.114-2.508-2.447-2.779a4.661,4.661,0,0,0-2.345.089,2.362,2.362,0,0,1-1.008.149,11.955,11.955,0,0,1-2.975-.9,20.233,20.233,0,0,1-5.343-3.151q-.575-.471-1.114-.983" transform="translate(-80.757 -73.196)" fill="#fff"/>
                  </g>
                </g>
              </g>
              <g id="Grupo_3337" data-name="Grupo 3337" transform="translate(51.353 44.926)" opacity="0.36">
                <g id="Grupo_3336" data-name="Grupo 3336">
                  <g id="Grupo_3335" data-name="Grupo 3335" clip-path="url(#clip-path-6)">
                    <path id="Trazado_7457" data-name="Trazado 7457" d="M115.361,104.642a15.122,15.122,0,0,0-1.738,1.071,1.519,1.519,0,0,0-.479,1.82,1.49,1.49,0,0,0,1.533.541,11,11,0,0,0,1.629-.563,7.644,7.644,0,0,1,4.278.071c1.4.354,2.765.877,4.194,1.1a5.828,5.828,0,0,0,4.179-.692,3.17,3.17,0,0,0,1.268-3.778c-.683-1.445-2.511-1.881-4.1-2a9.17,9.17,0,0,1-3.739-.745,3.717,3.717,0,0,1-1.37-1.368,2.423,2.423,0,0,0-.9-.915,2.533,2.533,0,0,0-2.268-.105c-.945.482-.621,1.323-.641,2.184a4.253,4.253,0,0,1-1.843,3.383" transform="translate(-112.995 -98.854)" fill="#fff"/>
                  </g>
                </g>
              </g>
            </g>
          </g>
        </g>
      </g>
      <g id="Grupo_3343" data-name="Grupo 3343" transform="matrix(0.914, 0.407, -0.407, 0.914, 1603.827, 859.653)">
        <g id="Grupo_3340-2" data-name="Grupo 3340" clip-path="url(#clip-path-7)">
          <g id="Grupo_3339-2" data-name="Grupo 3339">
            <g id="Grupo_3338-2" data-name="Grupo 3338" clip-path="url(#clip-path-7)">
              <path id="Trazado_7453-2" data-name="Trazado 7453" d="M26.517,9.255a13.433,13.433,0,0,1,2.861-7.723A4.208,4.208,0,0,1,31.632.051a4.458,4.458,0,0,1,3.812,1.64c2.739,2.816,3.8,6.8,5.265,10.444s3.807,7.412,7.6,8.438a11.836,11.836,0,0,0,5.023.034,28.739,28.739,0,0,0,4.958-1.721c2.505-.9,5.749-1.089,7.391,1,2.237,2.853-.491,6.986-3.523,8.974S55.3,32.6,54.473,36.128c-.746,3.193,1.377,6.26,3.171,9a60.2,60.2,0,0,1,5.035,9.436c.9,2.13,1.563,4.911-.119,6.5a4.3,4.3,0,0,1-3.3.954c-6.9-.539-11.069-10.413-17.9-9.285-3.955.653-6.235,4.771-7.711,8.5s-3.111,7.948-6.811,9.489a2.75,2.75,0,0,1-1.374.262A2.793,2.793,0,0,1,23.6,69.531c-2.928-4.714.208-9.924-.551-14.926-.319-2.1-.119-4.243-1.12-6.19-1.573-3.059-4.936-4.777-8.256-5.677s-6.807-1.185-10.03-2.385c-1.886-.7-3.937-2.24-3.6-4.225a3.82,3.82,0,0,1,.928-1.778c2.519-2.984,6.722-3.74,10.535-4.587a24.525,24.525,0,0,0,5.929-2.1,6.078,6.078,0,0,1,.972-.421c.542-.167,1.106-.226,1.643-.419a9.854,9.854,0,0,0,4.667-3.241,9.749,9.749,0,0,0,1.511-4.727c.3-2.982.044-6,.246-8.986q.021-.307.049-.615" transform="translate(0 0)" fill="#ffc024"/>
              <g id="Grupo_3328-2" data-name="Grupo 3328" transform="translate(9.418 6.722)" opacity="0.36">
                <g id="Grupo_3327-2" data-name="Grupo 3327">
                  <g id="Grupo_3326-2" data-name="Grupo 3326" clip-path="url(#clip-path-9)">
                    <path id="Trazado_7454-2" data-name="Trazado 7454" d="M53.5,34.092c0,.044,0,.088-.006.132-.109,2.524-.23,5.161-1.386,7.463a9.017,9.017,0,0,1-.452.8c-1.818,2.853-5.152,4.348-8.41,5.26s-6.678,1.419-9.67,3a2.489,2.489,0,0,0-1.06.873,1.881,1.881,0,0,0,.924,2.4,5.74,5.74,0,0,0,2.8.458c3.2,0,6.712.348,8.954,2.627a4.156,4.156,0,0,1,.945,1.327,6.378,6.378,0,0,0,.822,1.245,11.407,11.407,0,0,1,1.527,3,16.043,16.043,0,0,0,.928,2.628,2.808,2.808,0,0,0,2.147,1.592c1.621.1,2.611-1.667,3.465-3.049,1.433-2.321,3.893-4.32,6.61-4.078,2.461.22,4.426,2.178,6.818,2.8a6.528,6.528,0,0,0,4.193-.329,2.211,2.211,0,0,0,.95-.677,2.064,2.064,0,0,0,.326-1.087,16.723,16.723,0,0,0-.708-4.08,9.845,9.845,0,0,1,.134-4.162A10.872,10.872,0,0,1,75.5,47.937a10.225,10.225,0,0,1,1.732-1.669,9.557,9.557,0,0,1,1-.665,7.266,7.266,0,0,0,1.062-.788,4.781,4.781,0,0,0,1.934-2.524,1.918,1.918,0,0,0-1.659-2.2c-1.006-.162-2.323.464-3.293.716-2.38.62-4.923,1.2-7.362.551q-.18-.048-.358-.1c-3.366-1.062-5.554-4.314-6.9-7.575-1.257-3.038-1.934-6.524-3.869-9.235-.49-.687-1.5-1.9-2.392-1.084C54.04,24.607,54.5,26.789,54.1,28.4a16.285,16.285,0,0,0-.34,1.908c-.157,1.256-.206,2.523-.26,3.787" transform="translate(-32.347 -23.088)" fill="#fff"/>
                  </g>
                </g>
              </g>
              <g id="Grupo_3331-2" data-name="Grupo 3331" transform="translate(22.32 38.438)" opacity="0.1">
                <g id="Grupo_3330-2" data-name="Grupo 3330">
                  <g id="Grupo_3329-2" data-name="Grupo 3329" clip-path="url(#clip-path-10)">
                    <path id="Trazado_7455-2" data-name="Trazado 7455" d="M116.9,154.645c1.682-1.589,1.023-4.37.119-6.5a60.257,60.257,0,0,0-5.035-9.435c-1.357-2.075-2.9-4.335-3.25-6.695a8.1,8.1,0,0,0-.153,1.944c.11,2.412,1.094,4.682,1.815,6.987a5.692,5.692,0,0,1,.089,4.273c-1.052,2.023-3.854,2.238-6.1,1.871a24.724,24.724,0,0,1-5.746-1.673c-1.753-.751-3.478-1.72-5.381-1.851a6.611,6.611,0,0,0-5.655,2.642c-1.613,2.185-2.212,5.6-4.853,6.24-1.856.45-3.7-.873-4.835-2.408-.145-.194-.283-.394-.417-.6.162,4.61-2.238,9.346.444,13.665a2.8,2.8,0,0,0,1.866,1.454,2.75,2.75,0,0,0,1.375-.262c3.7-1.541,5.336-5.763,6.811-9.489s3.756-7.845,7.71-8.5c6.83-1.128,11,8.746,17.9,9.285a4.3,4.3,0,0,0,3.3-.954" transform="translate(-76.659 -132.015)" fill="#383838"/>
                  </g>
                </g>
              </g>
              <g id="Grupo_3334-2" data-name="Grupo 3334" transform="translate(23.513 21.312)" opacity="0.36">
                <g id="Grupo_3333-2" data-name="Grupo 3333">
                  <g id="Grupo_3332-2" data-name="Grupo 3332" clip-path="url(#clip-path-11)">
                    <path id="Trazado_7456-2" data-name="Trazado 7456" d="M96.812,77.854A12.47,12.47,0,0,1,94.454,74.8c-.392-.719-.878-1.587-1.7-1.6a1.8,1.8,0,0,0-1.482,1.2c-1.045,2.246-.289,5.135-1.724,7.153C87.665,84.2,83.228,83.7,81.17,86.225a1.4,1.4,0,0,0-.394,1.126,1.31,1.31,0,0,0,.546.731,8.1,8.1,0,0,0,3.021,1.02,3.431,3.431,0,0,1,2.546,1.75,5.7,5.7,0,0,1,.1,2.282,2.112,2.112,0,0,0,.847,2.011,1.524,1.524,0,0,0,.935.131,3.261,3.261,0,0,0,2.034-1.535,13.112,13.112,0,0,1,1.515-2.133,4.774,4.774,0,0,1,3.742-1.156,10.372,10.372,0,0,1,3.8,1.28,6.1,6.1,0,0,0,1.831.743,1.794,1.794,0,0,0,1.771-.633c.554-.825.024-1.908-.158-2.886-.351-1.891.844-3.477,2.144-4.7a2.914,2.914,0,0,0,1.115-1.545A1.8,1.8,0,0,0,105,80.926a2.986,2.986,0,0,0-1.5.057,1.513,1.513,0,0,1-.646.1,7.659,7.659,0,0,1-1.906-.575,12.962,12.962,0,0,1-3.423-2.019q-.368-.3-.714-.63" transform="translate(-80.757 -73.196)" fill="#fff"/>
                  </g>
                </g>
              </g>
              <g id="Grupo_3337-2" data-name="Grupo 3337" transform="translate(32.9 28.783)" opacity="0.36">
                <g id="Grupo_3336-2" data-name="Grupo 3336">
                  <g id="Grupo_3335-2" data-name="Grupo 3335" clip-path="url(#clip-path-12)">
                    <path id="Trazado_7457-2" data-name="Trazado 7457" d="M114.511,102.562a9.69,9.69,0,0,0-1.113.686.973.973,0,0,0-.307,1.166.955.955,0,0,0,.982.347,7.05,7.05,0,0,0,1.044-.361,4.9,4.9,0,0,1,2.741.045c.9.227,1.771.562,2.687.706a3.734,3.734,0,0,0,2.677-.443,2.031,2.031,0,0,0,.812-2.42A3,3,0,0,0,121.4,101a5.875,5.875,0,0,1-2.4-.478,2.381,2.381,0,0,1-.878-.877,1.552,1.552,0,0,0-.575-.586A1.623,1.623,0,0,0,116.1,99c-.605.309-.4.848-.411,1.4a2.725,2.725,0,0,1-1.181,2.167" transform="translate(-112.995 -98.854)" fill="#fff"/>
                  </g>
                </g>
              </g>
            </g>
          </g>
        </g>
      </g>
      <g id="Grupo_3386" data-name="Grupo 3386" transform="matrix(0.999, 0.035, -0.035, 0.999, 1658.167, 836.399)">
        <g id="Grupo_3385" data-name="Grupo 3385" clip-path="url(#clip-path-13)">
          <g id="Grupo_3384" data-name="Grupo 3384">
            <g id="Grupo_3383" data-name="Grupo 3383" clip-path="url(#clip-path-13)">
              <path id="Trazado_7458" data-name="Trazado 7458" d="M270.642,38.921c-34.98-13.043-73.82-14.839-110.246-6.659-16.382,3.679-32.551,9.447-46.154,19.289-15.979,11.56-27.725,28.308-35.51,46.429s-11.814,37.641-14.417,57.191a176.587,176.587,0,0,0,40.323,24.847c1.784-31.9,22.417-61.241,50.256-76.913s61.887-18.436,92.978-11.092S348.364,190.356,372.4,211.4c-.636-.557,9.8-10.49,10.811-11.328,4.138-3.441,8.7-5.833,13.207-8.69,8.365-5.308-1.127-13.8-5.276-18.466-7.112-8.008-5.4-47.672-62.417-97.955a207.33,207.33,0,0,0-25.456-19.791,174.1,174.1,0,0,0-28.844-14.79q-1.883-.753-3.782-1.461" transform="translate(0.675 0.287)" fill="#a4e8d3"/>
              <path id="Trazado_7459" data-name="Trazado 7459" d="M329.033,32.51C294.2,12.332,254.442-.22,214.185,0s-80.919,13.805-110.962,40.6C65.186,74.536,47.208,126.042,40.962,176.628a113.869,113.869,0,0,1,35.244,18.429c1.1-28.3,4.578-56.873,15.04-83.188s28.5-50.368,53.4-63.854c18.8-10.183,40.693-13.914,62.036-12.664s42.339,6.971,61.859,15.69c115.186,51.444,106.76,114.31,123.1,133.318,1.563,1.819,3.393,3.847,5.791,3.865a8.2,8.2,0,0,0,3.968-1.411c.543.135,2.711-1.536,3.247-1.84l3.542-2.008,6.788-3.848,13.872-7.864c3.452-1.956,7.548-3.64,10.5-6.347,1.24-1.138,2.258-2.588,1.909-4.344-.79-3.967-6.571-6.684-9.645-8.5-5.673-3.358-20.992-54.53-78.464-101.564-3.533-2.891-6.739-6.132-10.36-8.925a125.2,125.2,0,0,0-13.755-9.06" transform="translate(0.43 0)" fill="#ae8fff"/>
              <path id="Trazado_7460" data-name="Trazado 7460" d="M304.461,103.99C287.98,92.418,268.881,85.107,249.54,79.5c-23.961-6.951-49.833-11.413-73.645-3.968-20.222,6.323-37.294,21-48.535,38.96s-22.564,38.1-24.215,59.226c9.213,7.243,24.812,14.451,35.312,19.656,1.97-17.564,6.812-35.112,16.6-49.83s24.927-26.382,42.322-29.509c11.842-2.129,24.069-.287,35.686,2.845,31.947,8.612,90.47,80.648,100.895,112.05-.276-.831,25.131-11.136,27.5-12.095,4.2-1.7,8.81-2.987,12.815-5.109,1.79-.948,3.449-2.357,3.341-4.55-.236-4.831-6.455-9.513-9.468-12.7-5.417-5.734-9.914-31.413-41.6-69.816a113.042,113.042,0,0,0-22.077-20.661" transform="translate(1.082 0.752)" fill="#ffc024"/>
              <path id="Trazado_7461" data-name="Trazado 7461" d="M301.916,143.244c-23.73-25.4-60.07-36.245-94.819-35.346a82.067,82.067,0,0,0-17.486,2.016c-14.1,3.468-26.409,12.66-35.234,24.2s-14.371,25.306-17.851,39.406c-.548,2.217-1.023,4.664.021,6.7a9.933,9.933,0,0,0,3.726,3.458l28.453,18.419c.134-17.176,11.739-33.692,27.852-39.641,7.893-2.913,16.475-2.5,24.888-2.537,57.032-.25,62.044,47.732,68.936,73.776-.189-.712,24.587-4.23,26.834-4.42q6.86-.582,13.751-.616c2.763-.013,6.908.767,9.271-1.159,3.856-3.143-10.858-36.679-12.45-39.826-3.494-6.909-6.383-14.039-9.78-20.98a96.531,96.531,0,0,0-16.112-23.44" transform="translate(1.426 1.131)" fill="#f45858"/>
              <path id="Trazado_7462" data-name="Trazado 7462" d="M7.067,159.09a45.713,45.713,0,0,1,13.2-13.189c3.454-2.246,7.581-3.334,10.906-5.671,3.648-2.565,8.552-3.335,12.945-3.556a39.455,39.455,0,0,1,36.156,20.765,29.958,29.958,0,0,1,48.689,22.119c12.816-6.425,30.5.69,35.293,14.2,10.438-3.121,22.086-3.117,31.9,1.615s17.376,14.625,17.8,25.511-7.3,21.974-18.013,23.967a29.677,29.677,0,0,1-12.079-.638A53.582,53.582,0,0,1,157.287,229c-2.167,8.458-9.208,12.207-17.459,15.061a57.336,57.336,0,0,1-70.02-28.527c-9.506,9.273-23.993,12.387-36.823,8.954A44.065,44.065,0,0,1,0,182.432a40.429,40.429,0,0,1,.323-5.4A42.8,42.8,0,0,1,7.067,159.09" transform="translate(0 1.433)" fill="#efdab6"/>
              <path id="Trazado_7463" data-name="Trazado 7463" d="M.059,183.884a46.493,46.493,0,0,0,28.648,23.08c16.235,4.282,34.574-1.143,45.63-13.779,1.083,8.973,6.4,17.082,13.356,22.85s15.464,9.391,24.139,11.927a50.849,50.849,0,0,0,15.784,2.483,33.309,33.309,0,0,0,30.107-23.437c6.643,11.169,15.2,22.015,27.244,26.9,8.381,3.4,18.713,2.889,26.262-1.614-3.107,6.05-8.617,10.818-15.287,12.059a29.685,29.685,0,0,1-12.077-.637A53.6,53.6,0,0,1,157.285,228.5c-2.165,8.457-9.208,12.206-17.458,15.06a57.333,57.333,0,0,1-70.019-28.527c-9.506,9.274-24,12.387-36.823,8.954A44.115,44.115,0,0,1,.059,183.884" transform="translate(0.001 1.929)" fill="#ddc199"/>
              <path id="Trazado_7464" data-name="Trazado 7464" d="M90.992,192.969c3.21,0,3.215-4.989,0-4.989s-3.215,4.989,0,4.989" transform="translate(0.929 1.972)" fill="#ead8b9"/>
              <path id="Trazado_7465" data-name="Trazado 7465" d="M22.416,183.989l.24.123.117.06a.945.945,0,0,1,.122.065l-1.248-1.248.049.067.556.719.718.556a2.645,2.645,0,0,0,1.322.421,1.78,1.78,0,0,0,.944,0,1.768,1.768,0,0,0,.9-.243,1.776,1.776,0,0,0,.784-.457,1.794,1.794,0,0,0,.638-.638,2.682,2.682,0,0,0,.636-1.208l.127-.945-.127-.945-.358-.848-.556-.719-.719-.556a2.648,2.648,0,0,0-1.321-.421,1.8,1.8,0,0,0-.944,0,2.655,2.655,0,0,0-1.322.421l-.075.037.83-.351-.011,0,.924-.124-.533-.008-.89.12a2.521,2.521,0,0,0-1.138.6,1.686,1.686,0,0,0-.6.6,2.513,2.513,0,0,0-.6,1.138c-.04.3-.08.593-.12.89.04.3.08.593.12.889a2.516,2.516,0,0,0,.6,1.139,2.527,2.527,0,0,0,.939.862" transform="translate(0.218 1.864)" fill="#ead8b9"/>
              <path id="Trazado_7466" data-name="Trazado 7466" d="M13.749,187.953l.18.092a2.713,2.713,0,0,0,1.35.43,2.747,2.747,0,0,0,1.448-.065,2.736,2.736,0,0,0,1.235-.65,2.746,2.746,0,0,0,.936-1.02q.183-.434.366-.867a3.641,3.641,0,0,0,0-1.931q-.182-.434-.366-.867a3.651,3.651,0,0,0-1.3-1.3l-.18-.091a3.684,3.684,0,0,0-3.714,0l-.745.575a3.676,3.676,0,0,0-.946,1.624,2.774,2.774,0,0,0-.066,1.466,2.739,2.739,0,0,0,.437,1.368,3.677,3.677,0,0,0,3.176,1.822l.2,0a2.734,2.734,0,0,0,1.4-.312,2.725,2.725,0,0,0,1.168-.751,4.047,4.047,0,0,0,1.064-2.568l-.13-.966a3.618,3.618,0,0,0-.934-1.6l-.735-.568a3.616,3.616,0,0,0-1.833-.5l-.2,0-.953.127a2.712,2.712,0,0,0-1.219.642,1.813,1.813,0,0,0-.643.643,2.7,2.7,0,0,0-.642,1.219q-.064.477-.128.953.065.477.128.953a2.691,2.691,0,0,0,.642,1.219,2.7,2.7,0,0,0,1.005.924" transform="translate(0.125 1.901)" fill="#ead8b9"/>
              <path id="Trazado_7467" data-name="Trazado 7467" d="M114.487,218.727l.274.178a3.512,3.512,0,0,0,3.538,0l.709-.549a3.5,3.5,0,0,0,.9-1.546,2.646,2.646,0,0,0,.063-1.4,2.613,2.613,0,0,0-.415-1.3,3.524,3.524,0,0,0-1.258-1.258,3.485,3.485,0,0,0-1.768-.478l-.329.028-.9.121a2.558,2.558,0,0,0-1.154.607,1.717,1.717,0,0,0-.609.609,2.563,2.563,0,0,0-.607,1.154l-.121.9.121.9a3.79,3.79,0,0,0,1.56,2.029" transform="translate(1.183 2.228)" fill="#ead8b9"/>
              <g id="Grupo_3346" data-name="Grupo 3346" transform="translate(15.394 149.079)" opacity="0.49">
                <g id="Grupo_3345" data-name="Grupo 3345">
                  <g id="Grupo_3344" data-name="Grupo 3344" clip-path="url(#clip-path-15)">
                    <path id="Trazado_7468" data-name="Trazado 7468" d="M66.781,163.974c-6.065-7.638-16.615-12.092-26.315-9.882a26.757,26.757,0,0,0-12.118,6.392c-3.827,3.532-5.681,7.614-7.635,12.315-1.366,3.286-5.915.879-5.445-2.164.859-5.555,4.763-11.118,8.776-14.889a29.884,29.884,0,0,1,15.424-7.808,30.513,30.513,0,0,1,30.473,13.533c1.226,1.89-1.706,4.335-3.161,2.5" transform="translate(-15.234 -147.531)" fill="#fff"/>
                  </g>
                </g>
              </g>
              <g id="Grupo_3349" data-name="Grupo 3349" transform="translate(10.535 181.332)" opacity="0.49">
                <g id="Grupo_3348" data-name="Grupo 3348">
                  <g id="Grupo_3347" data-name="Grupo 3347" clip-path="url(#clip-path-16)">
                    <path id="Trazado_7469" data-name="Trazado 7469" d="M13.055,186.563c-4.5-1.12-2.766-8.113,1.74-6.992s2.766,8.113-1.74,6.992" transform="translate(-10.426 -179.45)" fill="#fff"/>
                  </g>
                </g>
              </g>
              <g id="Grupo_3352" data-name="Grupo 3352" transform="translate(89.36 160.791)" opacity="0.49">
                <g id="Grupo_3351" data-name="Grupo 3351">
                  <g id="Grupo_3350" data-name="Grupo 3350" clip-path="url(#clip-path-17)">
                    <path id="Trazado_7470" data-name="Trazado 7470" d="M89.055,160.629c4.88-2.469,11.609-1.634,16.43.567a21.711,21.711,0,0,1,11.564,12.926c.955,3.02-3.841,5.3-5.2,2.281a21.962,21.962,0,0,0-8.816-10.11c-4.359-2.623-8.312-3.158-13.29-3.305-1.173-.034-1.895-1.747-.686-2.358" transform="translate(-88.432 -159.122)" fill="#fff"/>
                  </g>
                </g>
              </g>
              <g id="Grupo_3355" data-name="Grupo 3355" transform="translate(111.57 183.997)" opacity="0.49">
                <g id="Grupo_3354" data-name="Grupo 3354">
                  <g id="Grupo_3353" data-name="Grupo 3353" clip-path="url(#clip-path-18)">
                    <path id="Trazado_7471" data-name="Trazado 7471" d="M112.468,187.65c-3.519-.876-2.162-6.345,1.361-5.468s2.163,6.345-1.361,5.468" transform="translate(-110.412 -182.087)" fill="#fff"/>
                  </g>
                </g>
              </g>
              <g id="Grupo_3358" data-name="Grupo 3358" transform="translate(135.915 189.069)" opacity="0.49">
                <g id="Grupo_3357" data-name="Grupo 3357">
                  <g id="Grupo_3356" data-name="Grupo 3356" clip-path="url(#clip-path-19)">
                    <path id="Trazado_7472" data-name="Trazado 7472" d="M135.21,187.89c5.445-2.126,12.716.4,17.159,3.669,2.548,1.877.138,6.252-2.448,4.347A34.442,34.442,0,0,0,143.1,192c-2.566-1.112-5.232-1.311-7.85-2.147a1.025,1.025,0,0,1-.04-1.961" transform="translate(-134.504 -187.106)" fill="#fff"/>
                  </g>
                </g>
              </g>
              <g id="Grupo_3361" data-name="Grupo 3361" transform="translate(172.349 200.924)" opacity="0.49">
                <g id="Grupo_3360" data-name="Grupo 3360">
                  <g id="Grupo_3359" data-name="Grupo 3359" clip-path="url(#clip-path-20)">
                    <path id="Trazado_7473" data-name="Trazado 7473" d="M171.628,199.077c12.345-1.949,25.311,8.312,28.942,19.677,1.034,3.237-3.646,4.37-4.921,1.442A29.151,29.151,0,0,0,186,207.94c-4.467-3.276-9.041-4.571-14.309-5.921-1.35-.346-1.63-2.694-.061-2.942" transform="translate(-170.56 -198.838)" fill="#fff"/>
                  </g>
                </g>
              </g>
              <g id="Grupo_3364" data-name="Grupo 3364" transform="translate(63.313 9.291)" opacity="0.26">
                <g id="Grupo_3363" data-name="Grupo 3363">
                  <g id="Grupo_3362" data-name="Grupo 3362" clip-path="url(#clip-path-21)">
                    <path id="Trazado_7474" data-name="Trazado 7474" d="M335.083,50.307c-9.5-4.114-18.778-8.71-28.359-12.658-9.546-3.933-19.146-7.8-28.8-11.447a183.359,183.359,0,0,0-30.126-8.994,163.732,163.732,0,0,0-30.643-2.566,301.225,301.225,0,0,0-30.5,1.328A107.826,107.826,0,0,0,159.709,22c-15.986,5.943-30.435,15.848-42.591,27.666-13.743,13.363-24.5,29.1-34,45.659q-1.772,3.088-3.468,6.216c-1.952,3.59-7.474.6-5.584-3.033,9.05-17.407,20.077-34.032,33.618-48.287,12.5-13.158,27.266-24.113,43.977-31.3A109.193,109.193,0,0,1,178.1,11.411c10.214-1.59,20.61-1.954,30.931-2.154A211.852,211.852,0,0,1,240.77,10.7,146.466,146.466,0,0,1,271.5,18.473c10.1,3.656,20.015,7.861,29.884,12.1,4.748,2.039,9.477,4.122,14.169,6.287a146.629,146.629,0,0,1,14.05,7.051c2.269,1.36,4.484,2.729,6.633,4.269a1.21,1.21,0,0,1-1.154,2.125" transform="translate(-62.54 -9.195)" fill="#fff"/>
                    <path id="Trazado_7475" data-name="Trazado 7475" d="M69.437,114.091c0-.04-.005-.081-.008-.121l1.252,2.01a1.745,1.745,0,0,1-.621-.432,2.663,2.663,0,0,1-.712-1.144l-.005-.028a1.983,1.983,0,0,1-.084-1.039,2.74,2.74,0,0,1,1.844-2.3l.682-.118a2.7,2.7,0,0,1,1.382.321l.561.407a2.689,2.689,0,0,1,.715,1.15c.022.12.044.241.066.361a2.839,2.839,0,0,1-.649,2.791,2.839,2.839,0,0,1-4.828-2.594,2.817,2.817,0,0,1,.7-1.308l.218-.3a2.571,2.571,0,0,1,2.88-.639,1.985,1.985,0,0,1,.9.534l.431.528a2.666,2.666,0,0,1,.4,1.3q-.033.356-.068.712a2.648,2.648,0,0,1-.66,1.23l-.017.024a2.682,2.682,0,0,1-1.145.712,1.739,1.739,0,0,1-.748.113l2.01-1.252-.061.106-.36.5a1.781,1.781,0,0,1-.742.508,1.178,1.178,0,0,1-.577.177,1.767,1.767,0,0,1-.932-.008l-.592-.224q-.249-.179-.5-.36a2.63,2.63,0,0,1-.738-1.62" transform="translate(-62.589 -8.128)" fill="#fff"/>
                    <path id="Trazado_7476" data-name="Trazado 7476" d="M64.943,128.575a2.938,2.938,0,1,1,3.527-2.2,2.971,2.971,0,0,1-3.527,2.2" transform="translate(-62.655 -8.003)" fill="#fff"/>
                    <path id="Trazado_7477" data-name="Trazado 7477" d="M287.115,69.69C275.568,63.454,262.74,60,249.937,57.465c-6.534-1.294-13.119-2.332-19.7-3.348-3.4-.524-6.8-1.03-10.2-1.483q-2.593-.346-5.2-.618l-.694-.07c-.366-.035-.117-.011-.039,0-.4-.038-.808-.073-1.213-.107q-1.387-.117-2.776-.2a100.782,100.782,0,0,0-17.531.342q-1.984.223-3.958.531c-.307.047-.613.1-.921.148-.133.021-.608.1.033-.008l-.392.07q-1.049.186-2.092.4-3.85.776-7.627,1.862c-2.517.724-5.01,1.54-7.458,2.47q-1.869.711-3.709,1.5-.859.367-1.711.75c-.094.041-.612.277-.22.1.366-.167-.041.019-.1.045q-.543.253-1.084.51a104.016,104.016,0,0,0-13.607,7.845q-3.248,2.213-6.317,4.676c-.139.111-.277.223-.415.334.088-.071.555-.457.069-.054-.24.2-.478.4-.716.6q-.762.643-1.514,1.3-1.5,1.317-2.947,2.694a94.318,94.318,0,0,0-10.426,11.728,6.17,6.17,0,0,0-.634.857c.008-.017.379-.528.145-.2-.165.233-.333.464-.5.7-.454.624-.93,1.232-1.391,1.85-1.026,1.373-3.275,1.307-4.526.4a3.43,3.43,0,0,1-1.025-4.426,80.242,80.242,0,0,1,10.543-12.984,101.938,101.938,0,0,1,41.667-25.7,98.142,98.142,0,0,1,32.891-4.852c14.065.372,27.821,3.525,41.53,6.4,13.061,2.742,26.548,6.066,38.009,13.168q2.122,1.314,4.151,2.763c1.3.926.273,3.055-1.22,2.248" transform="translate(-62.063 -8.819)" fill="#fff"/>
                    <path id="Trazado_7478" data-name="Trazado 7478" d="M111.183,104.593c-.005-.219-.009-.439-.014-.657a3.177,3.177,0,0,1,1.5-2.825l.739-.339a3.171,3.171,0,0,1,1.66-.059,3.534,3.534,0,0,1,1.977,1.415,3.173,3.173,0,0,1,.095,3.2c-.1.2-.2.389-.3.584l-.458.631a2.271,2.271,0,0,1-.946.647,1.514,1.514,0,0,1-.735.226,2.276,2.276,0,0,1-1.187-.01l-.754-.286-.632-.459a3.374,3.374,0,0,1-.939-2.063" transform="translate(-62.146 -8.236)" fill="#fff"/>
                    <path id="Trazado_7479" data-name="Trazado 7479" d="M103.822,119.268a3.275,3.275,0,1,1,3.932-2.447,3.312,3.312,0,0,1-3.932,2.447" transform="translate(-62.25 -8.108)" fill="#fff"/>
                    <path id="Trazado_7480" data-name="Trazado 7480" d="M288.344,110.661a347.4,347.4,0,0,0-34.058-12.343q-8.681-2.592-17.586-4.345-4.514-.891-9.077-1.495-1.014-.133-2.029-.25-.593-.068-1.185-.13l-.508-.054c-.142-.014-.513-.051-.163-.017q-2.284-.218-4.579-.343a109.78,109.78,0,0,0-15.9.2q-3.518.314-7.007.882c-.292.047-.774.132-.185.028-.306.055-.612.108-.919.165q-.853.158-1.7.329-1.766.359-3.516.783a91.591,91.591,0,0,0-13.406,4.353q-.8.329-1.585.674-.364.159-.727.321l-.362.164c-.393.176.573-.27-.026.013-1.034.489-2.061.988-3.077,1.514q-3.092,1.6-6.037,3.465c-1.95,1.236-3.851,2.547-5.683,3.953-.449.344-.888.7-1.332,1.047-.322.255.2-.161.2-.166s-.28.231-.3.249q-.4.332-.8.671-1.284,1.1-2.513,2.259a65.5,65.5,0,0,0-4.753,4.985q-1.146,1.335-2.216,2.734c-.159.207-.316.416-.472.625-.1.139-.207.281-.311.42-.244.329.162-.211.162-.221-.009.161-.357.5-.454.641-.2.288-.4.578-.6.862-.785,1.1-1.626,2.154-2.42,3.246-.97,1.335-3.168,1.25-4.359.385a3.349,3.349,0,0,1-.988-4.263,48.707,48.707,0,0,1,8.733-11.849,74.423,74.423,0,0,1,11.288-9.6A86.449,86.449,0,0,1,184.28,88.45,99.765,99.765,0,0,1,214.3,84.929a138.541,138.541,0,0,1,36.664,6.557,222.462,222.462,0,0,1,34.6,14.617q2.055,1.058,4.1,2.137c1.6.843.29,3.089-1.316,2.421" transform="translate(-61.87 -8.401)" fill="#fff"/>
                    <path id="Trazado_7481" data-name="Trazado 7481" d="M131.976,134.177c-.011-.109-.022-.218-.032-.327.035.208.072.416.107.624l0-.011.261.569-.124-.194q-.142-.312-.286-.624l-.118-.686a2.046,2.046,0,0,1,.2-1.054,2.662,2.662,0,0,1,.8-1.117,1.362,1.362,0,0,1,.578-.36,1.346,1.346,0,0,1,.656-.2,2.025,2.025,0,0,1,1.059.009l.674.256.563.408.435.533.285.623.118.686a2.033,2.033,0,0,1-.2,1.054,1.341,1.341,0,0,1-.332.618,2.018,2.018,0,0,1-.737.715l-.2.12.485-.4-.008.009.372-.513c-.058.094-.116.187-.174.28l-.356.489a1.757,1.757,0,0,1-.734.5,1.167,1.167,0,0,1-.569.175,1.75,1.75,0,0,1-.922-.008l-.585-.221-.489-.356a2.616,2.616,0,0,1-.729-1.6" transform="translate(-61.93 -7.92)" fill="#fff"/>
                    <path id="Trazado_7482" data-name="Trazado 7482" d="M130.773,143.642l-.1.677a2.9,2.9,0,0,1-3.391,2.111l-.708-.269a2.827,2.827,0,0,1-1.05-.989l-.3-.657a2.806,2.806,0,0,1-.053-1.476l.209-.652a2.847,2.847,0,0,1,3.324-2.07l.694.264a2.764,2.764,0,0,1,1.029.97c.1.214.2.429.3.644a2.748,2.748,0,0,1,.052,1.447" transform="translate(-62 -7.82)" fill="#fff"/>
                    <path id="Trazado_7483" data-name="Trazado 7483" d="M273.758,145.991c-6.814-3.556-13.325-7.686-20.2-11.124a102.8,102.8,0,0,0-21.107-7.993,79.857,79.857,0,0,0-10.805-1.965c-.184-.02-.368-.038-.553-.058.122.012.617.054,0,0q-.552-.049-1.1-.09-1.244-.091-2.492-.139-2.36-.092-4.724-.025a75.233,75.233,0,0,0-9.68.893c-.148.023-.643.122.052-.01-.181.034-.363.066-.544.1q-.544.1-1.085.212-1.217.25-2.423.548-2.271.561-4.5,1.3c-1.692.561-3.367,1.174-5.006,1.875q-.252.108-.5.218l-.375.166q.547-.253.2-.092c-.371.175-.743.349-1.111.53q-1.225.6-2.418,1.269c-1.509.843-3,1.738-4.435,2.7-1.511,1.011-2.959,2.136-4.527,3.053a3.067,3.067,0,0,1-3.955-.675,3.105,3.105,0,0,1,.126-4.01,21.31,21.31,0,0,1,4.03-3.766,38.583,38.583,0,0,1,4.07-2.77,58.8,58.8,0,0,1,9.223-4.335,64.22,64.22,0,0,1,19.809-3.727c15.072-.559,29.926,4.077,43.148,11.042,7.893,4.157,15.605,9.054,22.047,15.275a1,1,0,0,1-1.162,1.6" transform="translate(-61.511 -8.053)" fill="#fff"/>
                    <path id="Trazado_7484" data-name="Trazado 7484" d="M169,148.384c-.028.226-.058.454-.086.68a3.45,3.45,0,0,1-4.033,2.51l-.843-.319a3.355,3.355,0,0,1-1.248-1.177l-.358-.781a3.339,3.339,0,0,1-.062-1.755c.074-.215.149-.431.222-.648a3.377,3.377,0,0,1,3.948-2.458l.826.312a3.285,3.285,0,0,1,1.222,1.152c.116.256.233.51.35.765a3.275,3.275,0,0,1,.062,1.719" transform="translate(-61.61 -7.777)" fill="#fff"/>
                    <path id="Trazado_7485" data-name="Trazado 7485" d="M158.971,165.038a2.98,2.98,0,1,1,3.577-2.227,3.013,3.013,0,0,1-3.577,2.227" transform="translate(-61.669 -7.622)" fill="#fff"/>
                  </g>
                </g>
              </g>
              <path id="Trazado_7486" data-name="Trazado 7486" d="M469.121,175.535A43.88,43.88,0,0,0,457.277,162.1c-3.171-2.362-7.058-3.654-10.1-6.094-3.34-2.679-7.99-3.715-12.186-4.193a37.87,37.87,0,0,0-35.9,17.694,28.753,28.753,0,0,0-47.981,18.23c-11.885-6.933-29.257-1.191-34.671,11.459-9.808-3.624-20.966-4.328-30.652-.391s-17.534,12.953-18.6,23.355,5.661,21.492,15.8,24.052a28.5,28.5,0,0,0,11.608.124,51.443,51.443,0,0,0,26.382-12.96c1.561,8.232,8.079,12.251,15.808,15.487a55.029,55.029,0,0,0,68.8-23.073c8.542,9.46,22.231,13.322,34.729,10.813a42.3,42.3,0,0,0,34.149-38.281,38.907,38.907,0,0,0,.019-5.195,41.078,41.078,0,0,0-5.37-17.593" transform="translate(2.802 1.59)" fill="#efdab6"/>
              <path id="Trazado_7487" data-name="Trazado 7487" d="M474.275,199.681a44.622,44.622,0,0,1-28.843,20.367c-15.811,3.116-33.049-3.194-42.872-15.97-1.582,8.53-7.164,15.974-14.18,21.077s-15.384,8.057-23.848,9.958a48.8,48.8,0,0,1-15.27,1.419,31.968,31.968,0,0,1-27.415-24.278c-7.042,10.295-15.9,20.163-27.732,24.114-8.233,2.75-18.1,1.63-25.057-3.141,2.609,5.983,7.6,10.886,13.91,12.48a28.479,28.479,0,0,0,11.608.123,51.438,51.438,0,0,0,26.382-12.959c1.561,8.232,8.079,12.251,15.808,15.487a55.029,55.029,0,0,0,68.8-23.074c8.542,9.461,22.232,13.323,34.729,10.814a42.343,42.343,0,0,0,33.976-36.419" transform="translate(2.823 2.095)" fill="#ddc199"/>
              <path id="Trazado_7488" data-name="Trazado 7488" d="M384.692,202.968c3.21,0,3.215-4.989,0-4.989s-3.215,4.989,0,4.989" transform="translate(4.01 2.077)" fill="#ead8b9"/>
              <path id="Trazado_7489" data-name="Trazado 7489" d="M449.36,192.21l-.515-.029.923.123h-.011l.83.35-.074-.045-.849-.359-.944-.126-.945.126-.849.359-.718.555q-.277.361-.556.719l-.358.849a2.682,2.682,0,0,0-.064,1.417,3.529,3.529,0,0,0,4.857,2.774,2.668,2.668,0,0,0,1.144-.735l.058-.075-.7.543c.074-.039.156-.07.231-.1l.232-.1.677-.523a2.508,2.508,0,0,0,.692-1.077,1.667,1.667,0,0,0,.228-.845,2.532,2.532,0,0,0-.06-1.335q-.168-.4-.337-.8-.261-.34-.523-.678a3.72,3.72,0,0,0-2.367-.98" transform="translate(4.67 2.015)" fill="#ead8b9"/>
              <path id="Trazado_7490" data-name="Trazado 7490" d="M457.318,196.093l-.2-.011a3.73,3.73,0,0,0-3.632,3.632c.043.321.086.644.129.965a3.636,3.636,0,0,0,.934,1.6l.736.568a3.613,3.613,0,0,0,1.833.5l.2.011a3.651,3.651,0,0,0,1.856-.5,3.689,3.689,0,0,0,1.321-1.32q.185-.44.371-.878a3.714,3.714,0,0,0,0-1.956,4.119,4.119,0,0,0-1.692-2.2,3.682,3.682,0,0,0-3.713,0l-.175.078a3.5,3.5,0,0,0-1.734,3.618,2.7,2.7,0,0,0,.431,1.351l.567.735a3.637,3.637,0,0,0,1.6.934l.966.129a3.612,3.612,0,0,0,1.832-.5l.175-.078.726-.56a2.683,2.683,0,0,0,.741-1.154,1.777,1.777,0,0,0,.246-.9,2.717,2.717,0,0,0-.065-1.429l-.361-.856-.561-.726a3.977,3.977,0,0,0-2.534-1.05" transform="translate(4.757 2.056)" fill="#ead8b9"/>
              <path id="Trazado_7491" data-name="Trazado 7491" d="M359.934,219.926l-.291-.048a3.51,3.51,0,0,0-4.312,2.448,2.652,2.652,0,0,0-.063,1.4,2.6,2.6,0,0,0,.416,1.3,3.505,3.505,0,0,0,4.795,1.257c.089-.051.177-.1.265-.154l.687-.531.532-.687.342-.811a2.57,2.57,0,0,0,.061-1.353,3.353,3.353,0,0,0-1.277-2.215,2.553,2.553,0,0,0-1.154-.607" transform="translate(3.726 2.305)" fill="#ead8b9"/>
              <g id="Grupo_3367" data-name="Grupo 3367" transform="translate(411.048 163.829)" opacity="0.49">
                <g id="Grupo_3366" data-name="Grupo 3366">
                  <g id="Grupo_3365" data-name="Grupo 3365" clip-path="url(#clip-path-22)">
                    <path id="Trazado_7492" data-name="Trazado 7492" d="M410,176.575c6.273-6.948,16.651-10.574,25.807-7.867a25.668,25.668,0,0,1,11.219,6.859c3.451,3.616,4.98,7.637,6.566,12.26,1.108,3.23,5.612,1.2,5.346-1.744-.486-5.373-3.888-10.939-7.5-14.795a28.682,28.682,0,0,0-14.3-8.415,29.286,29.286,0,0,0-30.012,11.112c-1.289,1.736,1.37,4.256,2.876,2.589" transform="translate(-406.781 -162.128)" fill="#fff"/>
                  </g>
                </g>
              </g>
              <g id="Grupo_3370" data-name="Grupo 3370" transform="translate(460.414 196.633)" opacity="0.49">
                <g id="Grupo_3369" data-name="Grupo 3369">
                  <g id="Grupo_3368" data-name="Grupo 3368" clip-path="url(#clip-path-23)">
                    <path id="Trazado_7493" data-name="Trazado 7493" d="M459.605,201.459c4.377-.8,3.142-7.6-1.243-6.8s-3.142,7.6,1.243,6.8" transform="translate(-455.634 -194.591)" fill="#fff"/>
                  </g>
                </g>
              </g>
              <g id="Grupo_3373" data-name="Grupo 3373" transform="translate(364.583 171.882)" opacity="0.49">
                <g id="Grupo_3372" data-name="Grupo 3372">
                  <g id="Grupo_3371" data-name="Grupo 3371" clip-path="url(#clip-path-24)">
                    <path id="Trazado_7494" data-name="Trazado 7494" d="M388.6,172c-4.524-2.662-11.019-2.271-15.773-.455a20.838,20.838,0,0,0-11.861,11.679c-1.1,2.835,3.357,5.307,4.844,2.5a21.076,21.076,0,0,1,9.059-9.149c4.334-2.248,8.153-2.52,12.93-2.359,1.126.038,1.921-1.558.8-2.217" transform="translate(-360.798 -170.098)" fill="#fff"/>
                  </g>
                </g>
              </g>
              <g id="Grupo_3376" data-name="Grupo 3376" transform="translate(364.98 193.095)" opacity="0.49">
                <g id="Grupo_3375" data-name="Grupo 3375">
                  <g id="Grupo_3374" data-name="Grupo 3374" clip-path="url(#clip-path-25)">
                    <path id="Trazado_7495" data-name="Trazado 7495" d="M364.3,196.462c3.423-.626,2.458-5.947-.972-5.32s-2.457,5.947.972,5.32" transform="translate(-361.191 -191.091)" fill="#fff"/>
                  </g>
                </g>
              </g>
              <g id="Grupo_3379" data-name="Grupo 3379" transform="translate(328.209 196.299)" opacity="0.49">
                <g id="Grupo_3378" data-name="Grupo 3378">
                  <g id="Grupo_3377" data-name="Grupo 3377" clip-path="url(#clip-path-26)">
                    <path id="Trazado_7496" data-name="Trazado 7496" d="M342.635,195.313c-5.086-2.367-12.2-.392-16.659,2.473-2.557,1.643-.512,5.98,2.081,4.313a33.032,33.032,0,0,1,6.77-3.329c2.525-.909,5.092-.938,7.65-1.58a.984.984,0,0,0,.158-1.876" transform="translate(-324.802 -194.261)" fill="#fff"/>
                  </g>
                </g>
              </g>
              <g id="Grupo_3382" data-name="Grupo 3382" transform="translate(280.989 205.494)" opacity="0.49">
                <g id="Grupo_3381" data-name="Grupo 3381">
                  <g id="Grupo_3380" data-name="Grupo 3380" clip-path="url(#clip-path-27)">
                    <path id="Trazado_7497" data-name="Trazado 7497" d="M307.191,203.817c-11.708-2.617-24.75,6.425-28.919,17.091-1.187,3.038,3.228,4.408,4.626,1.679a27.99,27.99,0,0,1,9.991-11.154c4.478-2.867,8.938-3.83,14.066-4.8,1.314-.249,1.724-2.482.236-2.814" transform="translate(-278.072 -203.361)" fill="#fff"/>
                  </g>
                </g>
              </g>
            </g>
          </g>
        </g>
      </g>
    </g>
  </g>
</svg>
