<svg xmlns="http://www.w3.org/2000/svg" xmlns:xlink="http://www.w3.org/1999/xlink" width="468" height="440" viewBox="0 0 468 440">
  <defs>
    <clipPath id="clip-path">
      <rect id="Rectángulo_394" data-name="Rectángulo 394" width="103.798" height="110.821" fill="none"/>
    </clipPath>
    <clipPath id="clip-path-3">
      <rect id="Rectángulo_389" data-name="Rectángulo 389" width="76.36" height="68.38" fill="none"/>
    </clipPath>
    <clipPath id="clip-path-4">
      <rect id="Rectángulo_390" data-name="Rectángulo 390" width="64.43" height="50.824" fill="none"/>
    </clipPath>
    <clipPath id="clip-path-5">
      <rect id="Rectángulo_391" data-name="Rectángulo 391" width="40.311" height="34.498" fill="none"/>
    </clipPath>
    <clipPath id="clip-path-6">
      <rect id="Rectángulo_392" data-name="Rectángulo 392" width="17.461" height="9.933" fill="none"/>
    </clipPath>
    <clipPath id="clip-path-7">
      <rect id="Rectángulo_394-2" data-name="Rectángulo 394" width="76.47" height="81.644" fill="none"/>
    </clipPath>
    <clipPath id="clip-path-9">
      <rect id="Rectángulo_389-2" data-name="Rectángulo 389" width="56.256" height="50.377" fill="none"/>
    </clipPath>
    <clipPath id="clip-path-10">
      <rect id="Rectángulo_390-2" data-name="Rectángulo 390" width="47.467" height="37.443" fill="none"/>
    </clipPath>
    <clipPath id="clip-path-11">
      <rect id="Rectángulo_391-2" data-name="Rectángulo 391" width="29.698" height="25.415" fill="none"/>
    </clipPath>
    <clipPath id="clip-path-12">
      <rect id="Rectángulo_392-2" data-name="Rectángulo 392" width="12.864" height="7.318" fill="none"/>
    </clipPath>
    <clipPath id="clip-path-13">
      <rect id="Rectángulo_409" data-name="Rectángulo 409" width="492.203" height="262.598" fill="none"/>
    </clipPath>
    <clipPath id="clip-path-15">
      <rect id="Rectángulo_395" data-name="Rectángulo 395" width="56.709" height="27.679" fill="none"/>
    </clipPath>
    <clipPath id="clip-path-16">
      <rect id="Rectángulo_396" data-name="Rectángulo 396" width="7.217" height="7.459" fill="none"/>
    </clipPath>
    <clipPath id="clip-path-17">
      <rect id="Rectángulo_397" data-name="Rectángulo 397" width="29.635" height="19.282" fill="none"/>
    </clipPath>
    <clipPath id="clip-path-18">
      <rect id="Rectángulo_398" data-name="Rectángulo 398" width="5.644" height="5.833" fill="none"/>
    </clipPath>
    <clipPath id="clip-path-19">
      <rect id="Rectángulo_399" data-name="Rectángulo 399" width="19.539" height="9.558" fill="none"/>
    </clipPath>
    <clipPath id="clip-path-20">
      <rect id="Rectángulo_400" data-name="Rectángulo 400" width="31.095" height="23.765" fill="none"/>
    </clipPath>
    <clipPath id="clip-path-21">
      <rect id="Rectángulo_401" data-name="Rectángulo 401" width="282.801" height="162.388" fill="none"/>
    </clipPath>
    <clipPath id="clip-path-22">
      <rect id="Rectángulo_402" data-name="Rectángulo 402" width="53.79" height="28.196" fill="none"/>
    </clipPath>
    <clipPath id="clip-path-23">
      <rect id="Rectángulo_403" data-name="Rectángulo 403" width="6.909" height="7.149" fill="none"/>
    </clipPath>
    <clipPath id="clip-path-24">
      <rect id="Rectángulo_404" data-name="Rectángulo 404" width="29.228" height="17.391" fill="none"/>
    </clipPath>
    <clipPath id="clip-path-25">
      <rect id="Rectángulo_405" data-name="Rectángulo 405" width="5.403" height="5.591" fill="none"/>
    </clipPath>
    <clipPath id="clip-path-26">
      <rect id="Rectángulo_406" data-name="Rectángulo 406" width="19.024" height="8.468" fill="none"/>
    </clipPath>
    <clipPath id="clip-path-27">
      <rect id="Rectángulo_407" data-name="Rectángulo 407" width="30.999" height="21.338" fill="none"/>
    </clipPath>
    <clipPath id="clip-dibujo-01">
      <rect width="468" height="440"/>
    </clipPath>
  </defs>
  <g id="dibujo-01" clip-path="url(#clip-dibujo-01)">
    <g id="Grupo_3427" data-name="Grupo 3427" transform="translate(3 -60.024)">
      <g id="Grupo_3388" data-name="Grupo 3388" transform="translate(243 59.904)">
        <g id="Grupo_3340" data-name="Grupo 3340" clip-path="url(#clip-path)">
          <g id="Grupo_3339" data-name="Grupo 3339">
            <g id="Grupo_3338" data-name="Grupo 3338" clip-path="url(#clip-path)">
              <path id="Trazado_7453" data-name="Trazado 7453" d="M41.39,14.446c.4-4.363,1.593-8.777,4.466-12.055A6.569,6.569,0,0,1,49.373.079c2.211-.43,4.379.946,5.95,2.56,4.276,4.395,5.934,10.612,8.219,16.3S69.484,30.512,75.4,32.113a18.474,18.474,0,0,0,7.84.053c2.754-.456,5.113-1.747,7.739-2.687,3.91-1.4,8.974-1.7,11.537,1.568,3.492,4.453-.766,10.905-5.5,14.007S86.314,50.881,85.026,56.392c-1.165,4.984,2.149,9.771,4.95,14.054a93.96,93.96,0,0,1,7.858,14.728c1.411,3.324,2.44,7.666-.185,10.146A6.71,6.71,0,0,1,92.5,96.808c-10.772-.841-17.278-16.253-27.939-14.493-6.173,1.019-9.732,7.447-12.035,13.264s-4.856,12.407-10.631,14.811a4.292,4.292,0,0,1-2.145.409,4.36,4.36,0,0,1-2.913-2.271c-4.57-7.358.325-15.491-.86-23.3-.5-3.28-.186-6.623-1.749-9.662-2.455-4.775-7.7-7.457-12.886-8.861S10.715,64.86,5.683,62.988c-2.945-1.1-6.146-3.5-5.627-6.594A5.963,5.963,0,0,1,1.5,53.619C5.437,48.961,12,47.782,17.948,46.46A38.281,38.281,0,0,0,27.2,43.182a9.487,9.487,0,0,1,1.518-.657c.846-.26,1.726-.353,2.564-.654a15.382,15.382,0,0,0,7.285-5.059,15.217,15.217,0,0,0,2.359-7.379c.476-4.655.069-9.358.384-14.026q.033-.479.077-.96" transform="translate(0 0)" fill="#ffc024"/>
              <g id="Grupo_3328" data-name="Grupo 3328" transform="translate(14.701 10.493)" opacity="0.36">
                <g id="Grupo_3327" data-name="Grupo 3327">
                  <g id="Grupo_3326" data-name="Grupo 3326" clip-path="url(#clip-path-3)">
                    <path id="Trazado_7454" data-name="Trazado 7454" d="M65.371,40.264c0,.069-.006.137-.009.206C65.192,44.41,65,48.527,63.2,52.119a14.079,14.079,0,0,1-.705,1.243c-2.838,4.453-8.041,6.786-13.127,8.21s-10.423,2.215-15.093,4.68a3.886,3.886,0,0,0-1.655,1.362c-.744,1.295.135,3.032,1.442,3.753a8.96,8.96,0,0,0,4.372.714c4.991,0,10.477.543,13.976,4.1a6.487,6.487,0,0,1,1.475,2.071A9.955,9.955,0,0,0,55.167,80.2a17.8,17.8,0,0,1,2.383,4.677A25.042,25.042,0,0,0,59,88.977a4.383,4.383,0,0,0,3.351,2.486c2.531.151,4.076-2.6,5.408-4.76,2.237-3.623,6.077-6.743,10.318-6.365,3.841.343,6.908,3.4,10.642,4.363a10.19,10.19,0,0,0,6.544-.514,3.451,3.451,0,0,0,1.483-1.056,3.222,3.222,0,0,0,.508-1.7c.135-2.159-.7-4.244-1.106-6.369a15.367,15.367,0,0,1,.21-6.5,16.97,16.97,0,0,1,3.351-6.694,15.96,15.96,0,0,1,2.7-2.605,14.919,14.919,0,0,1,1.567-1.038A11.34,11.34,0,0,0,105.635,57c1.3-1.073,2.693-2.281,3.02-3.939a2.994,2.994,0,0,0-2.59-3.431c-1.57-.252-3.627.724-5.14,1.118-3.715.968-7.684,1.866-11.491.86q-.282-.074-.559-.162C83.62,49.787,80.205,44.712,78.1,39.621c-1.962-4.742-3.019-10.183-6.039-14.415-.765-1.072-2.339-2.968-3.733-1.692-2.12,1.944-1.4,5.351-2.019,7.861a25.419,25.419,0,0,0-.531,2.979c-.245,1.961-.321,3.938-.405,5.91" transform="translate(-32.347 -23.088)" fill="#fff"/>
                  </g>
                </g>
              </g>
              <g id="Grupo_3331" data-name="Grupo 3331" transform="translate(34.84 59.997)" opacity="0.1">
                <g id="Grupo_3330" data-name="Grupo 3330">
                  <g id="Grupo_3329" data-name="Grupo 3329" clip-path="url(#clip-path-4)">
                    <path id="Trazado_7455" data-name="Trazado 7455" d="M139.468,167.338c2.625-2.48,1.6-6.821.186-10.146a94.053,94.053,0,0,0-7.858-14.728c-2.118-3.239-4.527-6.767-5.072-10.45a12.64,12.64,0,0,0-.239,3.035c.171,3.765,1.708,7.309,2.832,10.906.681,2.18,1.193,4.642.138,6.669-1.642,3.157-6.016,3.494-9.528,2.92a38.591,38.591,0,0,1-8.969-2.612c-2.737-1.172-5.429-2.685-8.4-2.89a10.319,10.319,0,0,0-8.827,4.124c-2.518,3.411-3.453,8.741-7.574,9.74-2.9.7-5.772-1.363-7.547-3.758-.226-.3-.441-.615-.651-.931.253,7.2-3.494,14.588.694,21.33a4.364,4.364,0,0,0,2.912,2.27,4.293,4.293,0,0,0,2.146-.409c5.776-2.4,8.328-8.995,10.632-14.811s5.862-12.245,12.035-13.264c10.661-1.761,17.166,13.651,27.939,14.493a6.71,6.71,0,0,0,5.151-1.489" transform="translate(-76.659 -132.015)" fill="#383838"/>
                  </g>
                </g>
              </g>
              <g id="Grupo_3334" data-name="Grupo 3334" transform="translate(36.702 33.266)" opacity="0.36">
                <g id="Grupo_3333" data-name="Grupo 3333">
                  <g id="Grupo_3332" data-name="Grupo 3332" clip-path="url(#clip-path-5)">
                    <path id="Trazado_7456" data-name="Trazado 7456" d="M105.817,80.467a19.465,19.465,0,0,1-3.681-4.766c-.613-1.122-1.371-2.478-2.649-2.5a2.8,2.8,0,0,0-2.313,1.878c-1.631,3.505-.45,8.015-2.691,11.165-2.944,4.138-9.87,3.359-13.082,7.293a2.189,2.189,0,0,0-.615,1.758,2.044,2.044,0,0,0,.852,1.142c1.343,1,3.09,1.2,4.715,1.592s3.359,1.176,3.973,2.731a8.9,8.9,0,0,1,.16,3.562c-.037,1.2.26,2.583,1.323,3.139a2.379,2.379,0,0,0,1.459.2,5.09,5.09,0,0,0,3.175-2.4,20.466,20.466,0,0,1,2.364-3.329,7.451,7.451,0,0,1,5.841-1.8,16.189,16.189,0,0,1,5.938,2,9.528,9.528,0,0,0,2.859,1.159,2.8,2.8,0,0,0,2.764-.988c.865-1.288.037-2.979-.246-4.5-.548-2.951,1.318-5.428,3.347-7.344a4.549,4.549,0,0,0,1.74-2.412c.184-1.348-1.114-2.508-2.447-2.779a4.661,4.661,0,0,0-2.345.089,2.362,2.362,0,0,1-1.008.149,11.955,11.955,0,0,1-2.975-.9,20.233,20.233,0,0,1-5.343-3.151q-.575-.471-1.114-.983" transform="translate(-80.757 -73.196)" fill="#fff"/>
                  </g>
                </g>
              </g>
              <g id="Grupo_3337" data-name="Grupo 3337" transform="translate(51.353 44.926)" opacity="0.36">
                <g id="Grupo_3336" data-name="Grupo 3336">
                  <g id="Grupo_3335" data-name="Grupo 3335" clip-path="url(#clip-path-6)">
                    <path id="Trazado_7457" data-name="Trazado 7457" d="M115.361,104.642a15.122,15.122,0,0,0-1.738,1.071,1.519,1.519,0,0,0-.479,1.82,1.49,1.49,0,0,0,1.533.541,11,11,0,0,0,1.629-.563,7.644,7.644,0,0,1,4.278.071c1.4.354,2.765.877,4.194,1.1a5.828,5.828,0,0,0,4.179-.692,3.17,3.17,0,0,0,1.268-3.778c-.683-1.445-2.511-1.881-4.1-2a9.17,9.17,0,0,1-3.739-.745,3.717,3.717,0,0,1-1.37-1.368,2.423,2.423,0,0,0-.9-.915,2.533,2.533,0,0,0-2.268-.105c-.945.482-.621,1.323-.641,2.184a4.253,4.253,0,0,1-1.843,3.383" transform="translate(-112.995 -98.854)" fill="#fff"/>
                  </g>
                </g>
              </g>
            </g>
          </g>
        </g>
      </g>
      <g id="Grupo_3342" data-name="Grupo 3342" transform="matrix(0.914, 0.407, -0.407, 0.914, 89.141, 394.335)">
        <g id="Grupo_3340-2" data-name="Grupo 3340" clip-path="url(#clip-path-7)">
          <g id="Grupo_3339-2" data-name="Grupo 3339">
            <g id="Grupo_3338-2" data-name="Grupo 3338" clip-path="url(#clip-path-7)">
              <path id="Trazado_7453-2" data-name="Trazado 7453" d="M30.493,10.643a15.447,15.447,0,0,1,3.29-8.881,4.839,4.839,0,0,1,2.591-1.7C38-.258,39.6.755,40.758,1.945c3.15,3.238,4.371,7.818,6.055,12.01s4.378,8.524,8.738,9.7a13.61,13.61,0,0,0,5.776.039,33.047,33.047,0,0,0,5.7-1.979c2.881-1.031,6.611-1.253,8.5,1.155,2.573,3.281-.564,8.034-4.051,10.319s-7.887,4.293-8.836,8.353c-.858,3.672,1.583,7.2,3.647,10.354a69.222,69.222,0,0,1,5.789,10.85c1.039,2.449,1.8,5.647-.137,7.474a4.944,4.944,0,0,1-3.795,1.1C60.209,70.7,55.416,59.347,47.562,60.643c-4.548.751-7.169,5.486-8.867,9.772s-3.577,9.14-7.832,10.912a3.162,3.162,0,0,1-1.58.3,3.212,3.212,0,0,1-2.146-1.673c-3.367-5.421.24-11.412-.634-17.163-.367-2.416-.137-4.879-1.288-7.118-1.809-3.518-5.676-5.494-9.493-6.528S7.894,47.784,4.187,46.4C2.018,45.6-.341,43.829.041,41.546A4.393,4.393,0,0,1,1.108,39.5c2.9-3.432,7.73-4.3,12.114-5.274a28.2,28.2,0,0,0,6.818-2.415,6.989,6.989,0,0,1,1.118-.484c.623-.192,1.272-.26,1.889-.482a11.332,11.332,0,0,0,5.367-3.727,11.211,11.211,0,0,0,1.738-5.436c.351-3.429.051-6.894.283-10.333q.024-.353.057-.707" transform="translate(0 0)" fill="#ffc024"/>
              <g id="Grupo_3328-2" data-name="Grupo 3328" transform="translate(10.83 7.73)" opacity="0.36">
                <g id="Grupo_3327-2" data-name="Grupo 3327">
                  <g id="Grupo_3326-2" data-name="Grupo 3326" clip-path="url(#clip-path-9)">
                    <path id="Trazado_7454-2" data-name="Trazado 7454" d="M56.676,35.742c0,.051,0,.1-.007.152-.125,2.9-.265,5.935-1.594,8.581a10.37,10.37,0,0,1-.52.916c-2.091,3.281-5.924,5-9.671,6.048s-7.679,1.632-11.119,3.448a2.863,2.863,0,0,0-1.219,1,2.163,2.163,0,0,0,1.062,2.765,6.6,6.6,0,0,0,3.221.526c3.677,0,7.718.4,10.3,3.021a4.779,4.779,0,0,1,1.087,1.526,7.335,7.335,0,0,0,.945,1.432,13.117,13.117,0,0,1,1.756,3.446,18.449,18.449,0,0,0,1.067,3.022A3.229,3.229,0,0,0,54.45,73.46c1.865.111,3-1.917,3.984-3.507,1.648-2.669,4.477-4.968,7.6-4.689,2.83.252,5.089,2.5,7.84,3.214A7.507,7.507,0,0,0,78.7,68.1a2.542,2.542,0,0,0,1.093-.778,2.373,2.373,0,0,0,.374-1.25c.1-1.59-.518-3.127-.815-4.692a11.321,11.321,0,0,1,.154-4.787,12.5,12.5,0,0,1,2.469-4.932,11.758,11.758,0,0,1,1.991-1.92,10.99,10.99,0,0,1,1.155-.764,8.355,8.355,0,0,0,1.221-.907,5.5,5.5,0,0,0,2.225-2.9,2.205,2.205,0,0,0-1.908-2.528c-1.156-.186-2.672.533-3.786.824-2.737.714-5.661,1.375-8.466.633q-.207-.055-.412-.119c-3.871-1.221-6.386-4.96-7.939-8.711-1.445-3.494-2.224-7.5-4.449-10.62-.564-.79-1.723-2.187-2.75-1.247-1.562,1.432-1.028,3.942-1.488,5.792a18.728,18.728,0,0,0-.391,2.194c-.181,1.444-.237,2.9-.3,4.354" transform="translate(-32.347 -23.088)" fill="#fff"/>
                  </g>
                </g>
              </g>
              <g id="Grupo_3331-2" data-name="Grupo 3331" transform="translate(25.667 44.201)" opacity="0.1">
                <g id="Grupo_3330-2" data-name="Grupo 3330">
                  <g id="Grupo_3329-2" data-name="Grupo 3329" clip-path="url(#clip-path-10)">
                    <path id="Trazado_7455-2" data-name="Trazado 7455" d="M122.932,158.038c1.934-1.827,1.176-5.025.137-7.474a69.292,69.292,0,0,0-5.789-10.85c-1.561-2.387-3.335-4.985-3.737-7.7a9.312,9.312,0,0,0-.176,2.236c.126,2.774,1.258,5.385,2.087,8.035.5,1.606.879,3.42.1,4.913-1.21,2.326-4.432,2.574-7.019,2.152a28.431,28.431,0,0,1-6.607-1.924c-2.016-.863-4-1.978-6.188-2.129a7.6,7.6,0,0,0-6.5,3.038c-1.855,2.513-2.544,6.44-5.58,7.175-2.134.518-4.252-1-5.56-2.769-.166-.223-.325-.453-.479-.686.186,5.3-2.574,10.747.511,15.714a3.215,3.215,0,0,0,2.146,1.672,3.163,3.163,0,0,0,1.581-.3c4.255-1.772,6.136-6.627,7.833-10.912s4.319-9.021,8.866-9.772c7.854-1.3,12.647,10.057,20.583,10.677a4.943,4.943,0,0,0,3.795-1.1" transform="translate(-76.659 -132.015)" fill="#383838"/>
                  </g>
                </g>
              </g>
              <g id="Grupo_3334-2" data-name="Grupo 3334" transform="translate(27.039 24.507)" opacity="0.36">
                <g id="Grupo_3333-2" data-name="Grupo 3333">
                  <g id="Grupo_3332-2" data-name="Grupo 3332" clip-path="url(#clip-path-11)">
                    <path id="Trazado_7456-2" data-name="Trazado 7456" d="M99.219,78.553a14.34,14.34,0,0,1-2.712-3.511c-.451-.826-1.01-1.825-1.951-1.845a2.066,2.066,0,0,0-1.7,1.384c-1.2,2.582-.332,5.9-1.983,8.225C88.7,85.854,83.6,85.28,81.232,88.178a1.613,1.613,0,0,0-.453,1.3,1.506,1.506,0,0,0,.627.841,9.312,9.312,0,0,0,3.474,1.173A3.945,3.945,0,0,1,87.808,93.5a6.558,6.558,0,0,1,.118,2.624,2.429,2.429,0,0,0,.974,2.313,1.752,1.752,0,0,0,1.075.151,3.75,3.75,0,0,0,2.339-1.765,15.078,15.078,0,0,1,1.742-2.453,5.489,5.489,0,0,1,4.3-1.33,11.927,11.927,0,0,1,4.375,1.472,7.02,7.02,0,0,0,2.106.854,2.063,2.063,0,0,0,2.036-.728c.637-.949.027-2.194-.181-3.318-.4-2.174.971-4,2.466-5.41a3.351,3.351,0,0,0,1.282-1.777,2.073,2.073,0,0,0-1.8-2.047,3.434,3.434,0,0,0-1.728.065,1.74,1.74,0,0,1-.743.11,8.807,8.807,0,0,1-2.192-.661,14.906,14.906,0,0,1-3.936-2.322q-.423-.347-.821-.725" transform="translate(-80.757 -73.196)" fill="#fff"/>
                  </g>
                </g>
              </g>
              <g id="Grupo_3337-2" data-name="Grupo 3337" transform="translate(37.833 33.098)" opacity="0.36">
                <g id="Grupo_3336-2" data-name="Grupo 3336">
                  <g id="Grupo_3335-2" data-name="Grupo 3335" clip-path="url(#clip-path-12)">
                    <path id="Trazado_7457-2" data-name="Trazado 7457" d="M114.738,103.118a11.142,11.142,0,0,0-1.28.789,1.119,1.119,0,0,0-.353,1.341,1.1,1.1,0,0,0,1.129.4,8.107,8.107,0,0,0,1.2-.415,5.631,5.631,0,0,1,3.152.052c1.033.26,2.037.646,3.09.812a4.294,4.294,0,0,0,3.079-.51,2.335,2.335,0,0,0,.934-2.783c-.5-1.064-1.85-1.385-3.024-1.477a6.755,6.755,0,0,1-2.755-.549,2.738,2.738,0,0,1-1.009-1.008,1.785,1.785,0,0,0-.661-.674,1.866,1.866,0,0,0-1.671-.078c-.7.355-.457.975-.472,1.609a3.134,3.134,0,0,1-1.358,2.492" transform="translate(-112.995 -98.854)" fill="#fff"/>
                  </g>
                </g>
              </g>
            </g>
          </g>
        </g>
      </g>
      <g id="Grupo_3387" data-name="Grupo 3387" transform="matrix(-0.999, 0.052, -0.052, -0.999, 280.017, 355.232)">
        <g id="Grupo_3385" data-name="Grupo 3385" clip-path="url(#clip-path-13)">
          <g id="Grupo_3384" data-name="Grupo 3384">
            <g id="Grupo_3383" data-name="Grupo 3383" clip-path="url(#clip-path-13)">
              <path id="Trazado_7458" data-name="Trazado 7458" d="M212.737,177.84c-36.067,13.449-76.114,15.3-113.671,6.866-16.891-3.794-33.562-9.741-47.588-19.889C35,152.9,22.891,135.63,14.865,116.946S2.684,78.136,0,57.978A182.075,182.075,0,0,1,41.576,32.359c1.839,32.888,23.113,63.144,51.817,79.3S157.2,130.672,189.26,123.1,292.874,21.7,317.657,0C317,.574,327.766,10.816,328.8,11.68c4.267,3.548,8.974,6.014,13.617,8.96,8.625,5.473-1.162,14.225-5.44,19.04-7.333,8.257-5.567,49.153-64.357,101-8.325,7.341-16.886,14.446-26.247,20.406a179.517,179.517,0,0,1-29.741,15.249q-1.941.777-3.9,1.507" transform="translate(67.01 44.331)" fill="#a4e8d3"/>
              <path id="Trazado_7459" data-name="Trazado 7459" d="M297.022,167.6c-35.918,20.8-76.908,33.747-118.416,33.517S95.172,186.881,64.2,159.25C24.977,124.266,6.44,71.16,0,19A117.407,117.407,0,0,0,36.339,0c1.133,29.175,4.72,58.641,15.507,85.772s29.387,51.933,55.059,65.838c19.382,10.5,41.958,14.347,63.964,13.058s43.654-7.188,63.781-16.177C353.415,95.449,344.728,30.629,361.573,11.03c1.612-1.875,3.5-3.966,5.971-3.985A8.459,8.459,0,0,1,371.636,8.5c.56-.14,2.8,1.584,3.348,1.9l3.652,2.07,7,3.967,14.3,8.108c3.559,2.017,7.783,3.753,10.826,6.544,1.278,1.173,2.329,2.668,1.968,4.479-.815,4.09-6.775,6.892-9.945,8.769-5.849,3.462-21.644,56.225-80.9,104.72-3.642,2.981-6.948,6.322-10.681,9.2a129.084,129.084,0,0,1-14.182,9.342" transform="translate(42.678 61.48)" fill="#ae8fff"/>
              <path id="Trazado_7460" data-name="Trazado 7460" d="M207.572,128.817c-16.993,11.932-36.686,19.47-56.628,25.255-24.705,7.167-51.382,11.768-75.933,4.091-20.85-6.519-38.453-21.654-50.043-40.171S1.7,78.705,0,56.927c9.5-7.468,25.583-14.9,36.409-20.267,2.032,18.11,7.023,36.2,17.112,51.379s25.7,27.2,43.637,30.426c12.21,2.2,24.817.3,36.8-2.933C166.893,106.652,227.235,32.378,237.983,0,237.7.856,263.9,11.482,266.336,12.47c4.333,1.753,9.084,3.08,13.213,5.268,1.845.977,3.556,2.431,3.445,4.692-.244,4.981-6.656,9.808-9.762,13.1-5.586,5.913-10.222,32.389-42.9,71.985a116.554,116.554,0,0,1-22.763,21.3" transform="translate(107.466 25.784)" fill="#ffc024"/>
              <path id="Trazado_7461" data-name="Trazado 7461" d="M171.146,93.252C146.678,119.443,109.21,130.624,73.38,129.7a84.617,84.617,0,0,1-18.029-2.079c-14.541-3.576-27.23-13.054-36.329-24.947S4.2,76.579.616,62.04c-.565-2.286-1.054-4.809.022-6.9A10.242,10.242,0,0,1,4.48,51.571L33.817,32.58c.139,17.71,12.1,34.739,28.718,40.872,8.138,3,16.987,2.579,25.662,2.616C147,76.326,152.169,26.854,159.274,0c-.195.735,25.351,4.361,27.667,4.557q7.073.6,14.178.636c2.849.014,7.122-.791,9.559,1.2,3.976,3.24-11.2,37.819-12.837,41.064-3.6,7.123-6.582,14.475-10.083,21.632a99.53,99.53,0,0,1-16.613,24.169" transform="translate(141.622 20.485)" fill="#f45858"/>
              <path id="Trazado_7462" data-name="Trazado 7462" d="M7.287,90.819a47.134,47.134,0,0,0,13.61,13.6c3.561,2.316,7.816,3.437,11.245,5.847,3.761,2.644,8.818,3.438,13.348,3.666a40.681,40.681,0,0,0,37.28-21.41,30.888,30.888,0,0,0,50.2-22.806c13.214,6.624,31.447-.712,36.39-14.642,10.763,3.218,22.773,3.214,32.889-1.665s17.916-15.079,18.352-26.3S213.072,4.448,202.031,2.394a30.6,30.6,0,0,0-12.455.657,55.247,55.247,0,0,0-27.4,15.687c-2.234-8.721-9.494-12.586-18-15.529a59.117,59.117,0,0,0-72.2,29.414c-9.8-9.561-24.739-12.771-37.968-9.232C14.333,28.654.144,46.17,0,66.752a41.685,41.685,0,0,0,.333,5.572A44.13,44.13,0,0,0,7.287,90.819" transform="translate(0 6.268)" fill="#efdab6"/>
              <path id="Trazado_7463" data-name="Trazado 7463" d="M0,64.744a47.938,47.938,0,0,1,29.539-23.8c16.739-4.416,35.648,1.178,47.048,14.207,1.117-9.252,6.6-17.613,13.771-23.56s15.944-9.683,24.889-12.3a52.429,52.429,0,0,1,16.274-2.56c14.013.449,27.169,10.69,31.042,24.166,6.849-11.516,15.676-22.7,28.09-27.738,8.641-3.507,19.295-2.979,27.078,1.664-3.2-6.238-8.885-11.154-15.762-12.434a30.607,30.607,0,0,0-12.453.656,55.262,55.262,0,0,0-27.4,15.687c-2.233-8.72-9.494-12.585-18-15.528A59.114,59.114,0,0,0,71.916,32.622c-9.8-9.562-24.741-12.771-37.968-9.232A45.485,45.485,0,0,0,0,64.744" transform="translate(0.061 6.267)" fill="#ddc199"/>
              <path id="Trazado_7464" data-name="Trazado 7464" d="M2.485,0c3.31,0,3.315,5.144,0,5.144S-.831,0,2.485,0" transform="translate(92.293 61.6)" fill="#ead8b9"/>
              <path id="Trazado_7465" data-name="Trazado 7465" d="M1.71.852,1.958.725,2.079.664A.974.974,0,0,0,2.2.6L.918,1.884l.05-.069.573-.742L2.282.5A2.727,2.727,0,0,1,3.645.066a1.836,1.836,0,0,1,.973,0,1.823,1.823,0,0,1,.924.25A1.831,1.831,0,0,1,6.35.787a1.849,1.849,0,0,1,.657.657,2.766,2.766,0,0,1,.655,1.245l.131.974-.131.974-.369.874-.573.742-.742.573a2.731,2.731,0,0,1-1.362.434,1.858,1.858,0,0,1-.973,0,2.738,2.738,0,0,1-1.363-.434c-.025-.014-.051-.026-.077-.039l.855.362-.011,0L4,7.276l-.549.008L2.534,7.16a2.6,2.6,0,0,1-1.173-.617,1.738,1.738,0,0,1-.619-.62A2.591,2.591,0,0,1,.124,4.75C.082,4.444.042,4.138,0,3.832c.042-.305.082-.612.124-.917A2.6,2.6,0,0,1,.742,1.741,2.606,2.606,0,0,1,1.71.852" transform="translate(21.628 70.117)" fill="#ead8b9"/>
              <path id="Trazado_7466" data-name="Trazado 7466" d="M1.931.609,2.116.514A2.8,2.8,0,0,1,3.508.07,2.833,2.833,0,0,1,5,.137a2.821,2.821,0,0,1,1.273.67,2.831,2.831,0,0,1,.965,1.051q.189.447.377.894a3.754,3.754,0,0,1,0,1.991q-.188.447-.377.894A3.765,3.765,0,0,1,5.9,6.981l-.185.094a3.8,3.8,0,0,1-3.829,0l-.768-.593A3.79,3.79,0,0,1,.139,4.807,2.86,2.86,0,0,1,.071,3.3a2.824,2.824,0,0,1,.45-1.411A3.791,3.791,0,0,1,3.8.006l.21,0A2.819,2.819,0,0,1,5.449.325a2.81,2.81,0,0,1,1.2.774A2.8,2.8,0,0,1,7.428,2.3a2.826,2.826,0,0,1,.323,1.442l-.134,1A3.73,3.73,0,0,1,6.654,6.4L5.9,6.981a3.728,3.728,0,0,1-1.89.511l-.21,0-.983-.131A2.8,2.8,0,0,1,1.557,6.7a1.869,1.869,0,0,1-.663-.663A2.786,2.786,0,0,1,.232,4.782Q.167,4.29.1,3.8q.067-.492.132-.982A2.775,2.775,0,0,1,.894,1.561,2.789,2.789,0,0,1,1.931.609" transform="translate(12.374 66.236)" fill="#ead8b9"/>
              <path id="Trazado_7467" data-name="Trazado 7467" d="M1.734.676,2.016.493a3.621,3.621,0,0,1,3.648,0l.731.566a3.6,3.6,0,0,1,.929,1.594,2.728,2.728,0,0,1,.065,1.442,2.694,2.694,0,0,1-.428,1.343,3.633,3.633,0,0,1-1.3,1.3,3.593,3.593,0,0,1-1.823.493L3.5,7.2l-.931-.125a2.638,2.638,0,0,1-1.19-.626,1.771,1.771,0,0,1-.628-.628,2.642,2.642,0,0,1-.626-1.19L0,3.7l.125-.93A2.646,2.646,0,0,1,.751,1.577a2.656,2.656,0,0,1,.983-.9" transform="translate(117.531 34.101)" fill="#ead8b9"/>
              <g id="Grupo_3346" data-name="Grupo 3346" transform="translate(15.872 81.208)" opacity="0.49">
                <g id="Grupo_3345" data-name="Grupo 3345" transform="translate(0 0)">
                  <g id="Grupo_3344" data-name="Grupo 3344" clip-path="url(#clip-path-15)">
                    <path id="Trazado_7468" data-name="Trazado 7468" d="M53.149,10.725C46.9,18.6,36.017,23.192,26.016,20.914a27.589,27.589,0,0,1-12.494-6.591c-3.946-3.641-5.858-7.851-7.873-12.7C4.24-1.763-.45.719.035,3.857.921,9.584,4.947,15.321,9.084,19.208a30.813,30.813,0,0,0,15.9,8.051A31.461,31.461,0,0,0,56.408,13.3c1.264-1.948-1.759-4.47-3.259-2.58" transform="translate(0.001 0)" fill="#fff"/>
                  </g>
                </g>
              </g>
              <g id="Grupo_3349" data-name="Grupo 3349" transform="translate(10.863 68.172)" opacity="0.49">
                <g id="Grupo_3348" data-name="Grupo 3348" transform="translate(0 0)">
                  <g id="Grupo_3347" data-name="Grupo 3347" clip-path="url(#clip-path-16)">
                    <path id="Trazado_7469" data-name="Trazado 7469" d="M2.711.125C-1.928,1.28-.141,8.49,4.505,7.334S7.357-1.031,2.711.125" transform="translate(0 0)" fill="#fff"/>
                  </g>
                </g>
              </g>
              <g id="Grupo_3352" data-name="Grupo 3352" transform="translate(92.137 77.528)" opacity="0.49">
                <g id="Grupo_3351" data-name="Grupo 3351">
                  <g id="Grupo_3350" data-name="Grupo 3350" clip-path="url(#clip-path-17)">
                    <path id="Trazado_7470" data-name="Trazado 7470" d="M.643,17.729c5.031,2.545,11.969,1.685,16.94-.584A22.385,22.385,0,0,0,29.507,3.816c.985-3.114-3.96-5.462-5.364-2.352a22.644,22.644,0,0,1-9.089,10.424c-4.495,2.7-8.571,3.256-13.7,3.408C.141,15.332-.6,17.1.643,17.729" transform="translate(-0.001 0)" fill="#fff"/>
                  </g>
                </g>
              </g>
              <g id="Grupo_3355" data-name="Grupo 3355" transform="translate(115.037 67.05)" opacity="0.49">
                <g id="Grupo_3354" data-name="Grupo 3354" transform="translate(0 0)">
                  <g id="Grupo_3353" data-name="Grupo 3353" clip-path="url(#clip-path-18)">
                    <path id="Trazado_7471" data-name="Trazado 7471" d="M2.12.1C-1.508,1-.11,6.64,3.524,5.736S5.754-.807,2.12.1" transform="translate(0 0)" fill="#fff"/>
                  </g>
                </g>
              </g>
              <g id="Grupo_3358" data-name="Grupo 3358" transform="translate(140.138 58.095)" opacity="0.49">
                <g id="Grupo_3357" data-name="Grupo 3357" transform="translate(0 0)">
                  <g id="Grupo_3356" data-name="Grupo 3356" clip-path="url(#clip-path-19)">
                    <path id="Trazado_7472" data-name="Trazado 7472" d="M.728,8.75c5.614,2.192,13.111-.409,17.692-3.783,2.628-1.936.143-6.446-2.524-4.482A35.511,35.511,0,0,1,8.864,4.514C6.219,5.66,3.469,5.865.769,6.728A1.057,1.057,0,0,0,.728,8.75" transform="translate(0 0)" fill="#fff"/>
                  </g>
                </g>
              </g>
              <g id="Grupo_3361" data-name="Grupo 3361" transform="translate(177.705 31.666)" opacity="0.49">
                <g id="Grupo_3360" data-name="Grupo 3360">
                  <g id="Grupo_3359" data-name="Grupo 3359" clip-path="url(#clip-path-20)">
                    <path id="Trazado_7473" data-name="Trazado 7473" d="M1.1,23.518c12.729,2.01,26.1-8.571,29.842-20.289,1.066-3.337-3.759-4.506-5.074-1.487a30.057,30.057,0,0,1-9.952,12.637C11.311,17.757,6.6,19.093,1.164,20.485c-1.392.356-1.681,2.778-.063,3.033" transform="translate(0 0)" fill="#fff"/>
                  </g>
                </g>
              </g>
              <g id="Grupo_3364" data-name="Grupo 3364" transform="translate(65.28 90.629)" opacity="0.26">
                <g id="Grupo_3363" data-name="Grupo 3363">
                  <g id="Grupo_3362" data-name="Grupo 3362" clip-path="url(#clip-path-21)">
                    <path id="Trazado_7474" data-name="Trazado 7474" d="M269.532,54.5c-9.8,4.242-19.361,8.981-29.241,13.052-9.843,4.055-19.741,8.039-29.7,11.8A189.058,189.058,0,0,1,179.53,88.63a168.819,168.819,0,0,1-31.6,2.645,310.587,310.587,0,0,1-31.444-1.369,111.176,111.176,0,0,1-27.782-6.223c-16.483-6.127-31.381-16.34-43.915-28.526-14.17-13.778-25.265-30-35.061-47.078Q7.906,4.9,6.158,1.67C4.145-2.032-1.548,1.05.4,4.8c9.331,17.948,20.7,35.09,34.663,49.788C47.949,68.152,63.176,79.448,80.406,86.859a112.586,112.586,0,0,0,27.266,7.746c10.531,1.639,21.25,2.015,31.892,2.221a218.435,218.435,0,0,0,32.724-1.491,151.017,151.017,0,0,0,31.686-8.012c10.418-3.77,20.637-8.1,30.813-12.477,4.9-2.1,9.772-4.25,14.609-6.483a151.186,151.186,0,0,0,14.486-7.27c2.339-1.4,4.623-2.814,6.839-4.4a1.247,1.247,0,0,0-1.19-2.191" transform="translate(11.48 65.498)" fill="#fff"/>
                    <path id="Trazado_7475" data-name="Trazado 7475" d="M.494,2.829c0,.042-.005.083-.008.125L1.777.882a1.8,1.8,0,0,0-.641.446A2.746,2.746,0,0,0,.4,2.507L.4,2.537A2.045,2.045,0,0,0,.31,3.608a2.088,2.088,0,0,0,.3,1.059,2.076,2.076,0,0,0,.692.8,2.077,2.077,0,0,0,.913.515l.7.122A2.78,2.78,0,0,0,4.34,5.772l.578-.42a2.773,2.773,0,0,0,.738-1.186c.023-.124.046-.248.068-.372A2.927,2.927,0,0,0,5.055.916,2.927,2.927,0,0,0,.077,3.591,2.9,2.9,0,0,0,.8,4.939l.225.3a2.09,2.09,0,0,0,.866.592A2.082,2.082,0,0,0,2.915,6.1,2.1,2.1,0,0,0,4,5.9a2.047,2.047,0,0,0,.923-.55l.445-.545a2.748,2.748,0,0,0,.414-1.344q-.034-.367-.07-.735a2.73,2.73,0,0,0-.68-1.268l-.018-.025A2.766,2.766,0,0,0,3.829.7,1.793,1.793,0,0,0,3.058.584L5.13,1.875l-.063-.109L4.7,1.255A1.836,1.836,0,0,0,3.932.731,1.214,1.214,0,0,0,3.337.549a1.822,1.822,0,0,0-.961.008L1.766.788q-.256.184-.511.371a1.827,1.827,0,0,0-.524.765,1.829,1.829,0,0,0-.237.905" transform="translate(6.566 50.303)" fill="#fff"/>
                    <path id="Trazado_7476" data-name="Trazado 7476" d="M2.359.079A3.063,3.063,0,0,0,.095,3.715,3.082,3.082,0,0,0,3.731,5.979,3.063,3.063,0,0,0,5.995,2.343,3.082,3.082,0,0,0,2.359.079" transform="translate(0 37.991)" fill="#fff"/>
                    <path id="Trazado_7477" data-name="Trazado 7477" d="M173.23,24.783c-11.906,6.429-25.132,9.989-38.333,12.6-6.737,1.335-13.527,2.4-20.315,3.452-3.5.541-7.008,1.062-10.519,1.529q-2.674.356-5.357.638l-.716.072c-.377.036-.121.011-.041,0-.417.04-.834.075-1.25.11q-1.43.12-2.862.21a103.914,103.914,0,0,1-18.076-.352q-2.046-.23-4.081-.547c-.317-.049-.632-.1-.949-.152-.138-.022-.627-.107.034.008l-.4-.072q-1.081-.192-2.157-.409-3.97-.8-7.864-1.92c-2.6-.746-5.166-1.588-7.69-2.546q-1.927-.733-3.824-1.544-.886-.378-1.764-.773c-.1-.043-.631-.285-.227-.1.377.172-.043-.02-.1-.047q-.559-.261-1.118-.526a107.248,107.248,0,0,1-14.03-8.089q-3.349-2.282-6.513-4.821c-.144-.115-.285-.23-.428-.345.091.073.572.471.071.055-.247-.205-.493-.409-.739-.616q-.786-.663-1.561-1.342-1.547-1.358-3.038-2.778A97.25,97.25,0,0,1,8.629,4.394a6.361,6.361,0,0,1-.653-.884c.008.018.391.545.15.206-.17-.241-.344-.478-.517-.717-.468-.644-.959-1.27-1.435-1.908C5.116-.324,2.8-.255,1.507.681A3.537,3.537,0,0,0,.451,5.244,82.736,82.736,0,0,0,11.322,18.632,106.278,106.278,0,0,0,24.356,29.9,106,106,0,0,0,54.283,45.127a101.192,101.192,0,0,0,33.914,5c14.5-.383,28.685-3.634,42.821-6.6,13.466-2.828,27.373-6.254,39.19-13.577q2.188-1.355,4.28-2.849c1.342-.954.281-3.15-1.258-2.318" transform="translate(58.816 74.843)" fill="#fff"/>
                    <path id="Trazado_7478" data-name="Trazado 7478" d="M.017,2.982c-.005.226-.009.452-.015.677A3.276,3.276,0,0,0,1.544,6.572l.762.349a3.269,3.269,0,0,0,1.712.06,2.469,2.469,0,0,0,1.165-.561,2.456,2.456,0,0,0,.873-.9,3.272,3.272,0,0,0,.1-3.294c-.1-.2-.207-.4-.312-.6L5.37.976A2.342,2.342,0,0,0,4.395.31,1.561,1.561,0,0,0,3.637.076a2.347,2.347,0,0,0-1.224.01L1.636.381.984.854a2.336,2.336,0,0,0-.666.975,2.334,2.334,0,0,0-.3,1.152" transform="translate(50.544 60.055)" fill="#fff"/>
                    <path id="Trazado_7479" data-name="Trazado 7479" d="M2.629.088A3.415,3.415,0,0,0,.106,4.142,3.435,3.435,0,0,0,4.159,6.665,3.416,3.416,0,0,0,6.683,2.611,3.436,3.436,0,0,0,2.629.088" transform="translate(40.235 47.686)" fill="#fff"/>
                    <path id="Trazado_7480" data-name="Trazado 7480" d="M155.536,16.749A358.193,358.193,0,0,1,120.42,29.476q-8.95,2.672-18.132,4.48-4.654.919-9.359,1.541-1.046.138-2.092.257-.611.07-1.222.134l-.524.055c-.147.015-.529.052-.168.018q-2.355.225-4.721.353a113.19,113.19,0,0,1-16.4-.208q-3.627-.324-7.224-.91c-.3-.049-.8-.136-.191-.029-.316-.056-.631-.111-.947-.17q-.88-.163-1.756-.34-1.821-.37-3.626-.807a94.437,94.437,0,0,1-13.823-4.488q-.821-.339-1.635-.695-.375-.164-.749-.331l-.373-.169c-.405-.181.591.278-.027-.014-1.066-.5-2.125-1.019-3.173-1.561q-3.188-1.65-6.224-3.573c-2.011-1.274-3.971-2.627-5.86-4.076-.463-.354-.916-.718-1.373-1.079-.332-.263.21.166.207.171s-.289-.239-.31-.256q-.413-.342-.82-.692-1.324-1.133-2.591-2.33a67.531,67.531,0,0,1-4.9-5.14Q11.228,8.242,10.125,6.8c-.164-.214-.326-.429-.487-.645-.107-.144-.214-.29-.321-.433-.251-.34.167.218.167.228-.009-.166-.368-.519-.468-.661-.206-.3-.407-.6-.618-.889-.81-1.131-1.676-2.221-2.5-3.347C4.9-.323,2.637-.236,1.408.656a3.453,3.453,0,0,0-1.019,4.4,50.22,50.22,0,0,0,9,12.217,76.736,76.736,0,0,0,11.639,9.894A89.135,89.135,0,0,0,48.238,39.65a102.865,102.865,0,0,0,30.948,3.631,142.847,142.847,0,0,0,37.8-6.761,229.375,229.375,0,0,0,35.676-15.071q2.119-1.091,4.227-2.2c1.646-.869.3-3.185-1.356-2.5" transform="translate(77.975 40.202)" fill="#fff"/>
                    <path id="Trazado_7481" data-name="Trazado 7481" d="M.209,2.313c-.011.113-.023.225-.033.338.036-.215.074-.429.11-.644l0,.011.269-.587-.128.2q-.147.322-.295.644l-.122.707a2.109,2.109,0,0,0,.2,1.087,1.374,1.374,0,0,0,.343.637,1.376,1.376,0,0,0,.484.515,1.4,1.4,0,0,0,.6.371,1.388,1.388,0,0,0,.676.208A2.088,2.088,0,0,0,3.4,5.791l.695-.264.58-.421.448-.549.294-.643.122-.707a2.1,2.1,0,0,0-.2-1.087,1.382,1.382,0,0,0-.343-.638,2.081,2.081,0,0,0-.76-.738l-.2-.124.5.409-.008-.009.383.529c-.059-.1-.12-.193-.179-.289l-.367-.5A1.812,1.812,0,0,0,3.6.24,1.2,1.2,0,0,0,3.018.06a1.8,1.8,0,0,0-.95.008L1.465.3l-.5.367a1.81,1.81,0,0,0-.517.756,1.806,1.806,0,0,0-.234.894" transform="translate(72.013 29.895)" fill="#fff"/>
                    <path id="Trazado_7482" data-name="Trazado 7482" d="M5.853,2.956l-.1-.7a2.191,2.191,0,0,0-.5-1.036,2.191,2.191,0,0,0-.8-.777A2.19,2.19,0,0,0,3.4.071a2.2,2.2,0,0,0-1.15.01l-.73.277A2.915,2.915,0,0,0,.44,1.379l-.309.677A2.893,2.893,0,0,0,.077,3.578l.216.672A2.144,2.144,0,0,0,.781,5.265a2.135,2.135,0,0,0,.782.762,2.149,2.149,0,0,0,1.029.367,2.152,2.152,0,0,0,1.126-.009l.716-.272a2.85,2.85,0,0,0,1.061-1c.1-.221.2-.443.3-.664a2.834,2.834,0,0,0,.053-1.492" transform="translate(65.057 19.389)" fill="#fff"/>
                    <path id="Trazado_7483" data-name="Trazado 7483" d="M105.136.123C98.111,3.789,91.4,8.047,84.3,11.593a105.989,105.989,0,0,1-21.763,8.241A82.338,82.338,0,0,1,51.4,21.861c-.19.021-.379.04-.57.059.126-.012.637-.055,0,0q-.569.05-1.138.093-1.283.094-2.569.144-2.433.1-4.871.026a77.571,77.571,0,0,1-9.981-.921c-.152-.024-.663-.126.053.01-.186-.035-.374-.068-.561-.1q-.561-.1-1.119-.219-1.255-.258-2.5-.565-2.341-.578-4.635-1.337c-1.744-.578-3.472-1.211-5.162-1.934q-.259-.111-.518-.225l-.387-.171q.564.261.206.095c-.382-.18-.766-.359-1.145-.547q-1.263-.622-2.493-1.309c-1.556-.869-3.092-1.792-4.573-2.784-1.558-1.043-3.051-2.2-4.668-3.148a3.162,3.162,0,0,0-4.078.7,3.2,3.2,0,0,0,.13,4.134A21.971,21.971,0,0,0,4.983,17.74,39.783,39.783,0,0,0,9.18,20.6a60.622,60.622,0,0,0,9.509,4.47,66.216,66.216,0,0,0,20.424,3.843c15.541.576,30.856-4.2,44.489-11.385,8.138-4.286,16.09-9.335,22.732-15.749a1.033,1.033,0,0,0-1.2-1.651" transform="translate(113.706 20.041)" fill="#fff"/>
                    <path id="Trazado_7484" data-name="Trazado 7484" d="M6.926,3.387c-.029-.233-.059-.468-.089-.7a2.612,2.612,0,0,0-.593-1.232A2.6,2.6,0,0,0,5.295.53,2.612,2.612,0,0,0,4.046.085,2.612,2.612,0,0,0,2.68.1L1.811.427A3.459,3.459,0,0,0,.524,1.64l-.369.805a3.443,3.443,0,0,0-.064,1.81c.076.222.153.445.229.668A2.56,2.56,0,0,0,.9,6.13a2.546,2.546,0,0,0,.93.9,2.542,2.542,0,0,0,1.222.437,2.557,2.557,0,0,0,1.338-.013l.851-.322A3.387,3.387,0,0,0,6.5,5.948c.12-.264.241-.526.36-.789a3.377,3.377,0,0,0,.064-1.772" transform="translate(103.799 14.026)" fill="#fff"/>
                    <path id="Trazado_7485" data-name="Trazado 7485" d="M2.392.08A3.107,3.107,0,0,0,.1,3.767a3.126,3.126,0,0,0,3.688,2.3,3.107,3.107,0,0,0,2.3-3.688A3.126,3.126,0,0,0,2.392.08" transform="translate(97.933 0.001)" fill="#fff"/>
                  </g>
                </g>
              </g>
              <path id="Trazado_7486" data-name="Trazado 7486" d="M208.317,79.969a45.243,45.243,0,0,1-12.212,13.853c-3.269,2.435-7.278,3.767-10.415,6.284-3.443,2.762-8.238,3.83-12.564,4.323a39.046,39.046,0,0,1-37.011-18.243,29.646,29.646,0,0,1-49.472-18.8c-12.255,7.148-30.166,1.228-35.748-11.815-10.113,3.736-21.617,4.462-31.6.4S1.211,42.62.114,31.9,5.951,9.735,16.4,7.1a29.383,29.383,0,0,1,11.969-.128,53.042,53.042,0,0,1,27.2,13.362c1.61-8.488,8.33-12.632,16.3-15.968a56.739,56.739,0,0,1,70.942,23.789C151.623,18.4,165.737,14.415,178.623,17a43.609,43.609,0,0,1,35.211,39.471,40.114,40.114,0,0,1,.02,5.356,42.355,42.355,0,0,1-5.537,18.139" transform="translate(278.27 0)" fill="#efdab6"/>
              <path id="Trazado_7487" data-name="Trazado 7487" d="M211.593,54.552a46.009,46.009,0,0,0-29.74-21c-16.3-3.213-34.076,3.293-44.2,16.466-1.632-8.795-7.387-16.47-14.621-21.732S107.167,19.979,98.44,18.019A50.319,50.319,0,0,0,82.7,16.556,32.961,32.961,0,0,0,54.429,41.588c-7.261-10.615-16.4-20.79-28.594-24.864C17.346,13.89,7.173,15.044,0,19.963,2.69,13.794,7.834,8.739,14.343,7.1a29.364,29.364,0,0,1,11.969-.127,53.036,53.036,0,0,1,27.2,13.361c1.61-8.488,8.33-12.632,16.3-15.968a56.739,56.739,0,0,1,70.941,23.791C149.561,18.4,163.677,14.415,176.562,17a43.659,43.659,0,0,1,35.031,37.551" transform="translate(280.33 0)" fill="#ddc199"/>
              <path id="Trazado_7488" data-name="Trazado 7488" d="M2.485,0c3.31,0,3.315,5.144,0,5.144S-.831,0,2.485,0" transform="translate(398.296 51.182)" fill="#ead8b9"/>
              <path id="Trazado_7489" data-name="Trazado 7489" d="M4.327,7.235l-.531.03.951-.127H4.735l.855-.361-.076.047-.875.37-.973.13L2.692,7.2l-.875-.37-.741-.572Q.79,5.881.5,5.512L.134,4.636A2.765,2.765,0,0,1,.068,3.176a1.823,1.823,0,0,1,.25-.924,1.827,1.827,0,0,1,.471-.808A1.829,1.829,0,0,1,1.447.787,1.818,1.818,0,0,1,2.254.316a1.823,1.823,0,0,1,.924-.25,1.84,1.84,0,0,1,.974,0,1.823,1.823,0,0,1,.924.25,2.751,2.751,0,0,1,1.179.757l.059.077L5.59.591c.076.041.16.072.239.106L6.069.8l.7.54A2.586,2.586,0,0,1,7.48,2.454a1.719,1.719,0,0,1,.235.871A2.611,2.611,0,0,1,7.654,4.7q-.173.413-.348.824-.269.35-.54.7a2.589,2.589,0,0,1-1.111.714,2.605,2.605,0,0,1-1.329.3" transform="translate(463.811 55.102)" fill="#ead8b9"/>
              <path id="Trazado_7490" data-name="Trazado 7490" d="M3.952,7.488l-.2.011A2.816,2.816,0,0,1,2.3,7.178,2.805,2.805,0,0,1,1.1,6.4,2.809,2.809,0,0,1,.325,5.2,2.816,2.816,0,0,1,0,3.755c.045-.331.089-.664.133-1A3.749,3.749,0,0,1,1.1,1.108L1.858.522A3.725,3.725,0,0,1,3.748.011L3.952,0A3.765,3.765,0,0,1,5.866.518,3.8,3.8,0,0,1,7.228,1.879q.191.453.382.905a3.83,3.83,0,0,1,0,2.017,2.859,2.859,0,0,1-.679,1.29,2.87,2.87,0,0,1-1.065.977,3.8,3.8,0,0,1-3.828,0l-.18-.08A2.829,2.829,0,0,1,.806,6.024a2.826,2.826,0,0,1-.67-1.273A2.834,2.834,0,0,1,.07,3.258,2.789,2.789,0,0,1,.515,1.865L1.1,1.108A3.75,3.75,0,0,1,2.752.145l1-.133A3.724,3.724,0,0,1,5.637.522l.18.08.748.577a2.766,2.766,0,0,1,.764,1.19,1.832,1.832,0,0,1,.253.932,2.8,2.8,0,0,1-.067,1.473l-.372.882-.578.748a2.781,2.781,0,0,1-1.189.765,2.791,2.791,0,0,1-1.424.318" transform="translate(472.481 50.804)" fill="#ead8b9"/>
              <path id="Trazado_7491" data-name="Trazado 7491" d="M4.878,7.049l-.3.05A3.619,3.619,0,0,1,.132,4.575,2.735,2.735,0,0,1,.067,3.134,2.685,2.685,0,0,1,.5,1.79,3.614,3.614,0,0,1,5.44.494c.092.052.182.105.273.158l.708.547.548.709.352.837a2.649,2.649,0,0,1,.062,1.4,1.743,1.743,0,0,1-.239.883A1.751,1.751,0,0,1,6.7,5.8a1.754,1.754,0,0,1-.628.628,2.633,2.633,0,0,1-1.19.626" transform="translate(370.083 26.412)" fill="#ead8b9"/>
              <g id="Grupo_3367" data-name="Grupo 3367" transform="translate(423.821 65.483)" opacity="0.49">
                <g id="Grupo_3366" data-name="Grupo 3366">
                  <g id="Grupo_3365" data-name="Grupo 3365" clip-path="url(#clip-path-22)">
                    <path id="Trazado_7492" data-name="Trazado 7492" d="M3.318,13.3c6.468,7.164,17.168,10.9,26.609,8.111A26.466,26.466,0,0,0,41.5,14.338c3.558-3.728,5.134-7.875,6.77-12.641,1.143-3.33,5.787-1.238,5.513,1.8-.5,5.54-4.009,11.278-7.736,15.254A29.573,29.573,0,0,1,31.3,27.427,30.2,30.2,0,0,1,.353,15.969c-1.329-1.79,1.413-4.388,2.965-2.669" transform="translate(0 0)" fill="#fff"/>
                  </g>
                </g>
              </g>
              <g id="Grupo_3370" data-name="Grupo 3370" transform="translate(474.72 52.706)" opacity="0.49">
                <g id="Grupo_3369" data-name="Grupo 3369" transform="translate(0 0)">
                  <g id="Grupo_3368" data-name="Grupo 3368" clip-path="url(#clip-path-23)">
                    <path id="Trazado_7493" data-name="Trazado 7493" d="M4.1.067c4.513.824,3.239,7.84-1.282,7.014S-.426-.759,4.1.067" transform="translate(0 0)" fill="#fff"/>
                  </g>
                </g>
              </g>
              <g id="Grupo_3373" data-name="Grupo 3373" transform="translate(375.912 67.984)" opacity="0.49">
                <g id="Grupo_3372" data-name="Grupo 3372" transform="translate(0 0)">
                  <g id="Grupo_3371" data-name="Grupo 3371" clip-path="url(#clip-path-24)">
                    <path id="Trazado_7494" data-name="Trazado 7494" d="M28.67,15.425c-4.665,2.744-11.362,2.341-16.263.469A21.485,21.485,0,0,1,.178,3.852C-.955.928,3.639-1.62,5.173,1.273a21.731,21.731,0,0,0,9.341,9.433c4.469,2.318,8.406,2.6,13.332,2.433,1.161-.04,1.981,1.607.825,2.286" transform="translate(0.001 0)" fill="#fff"/>
                  </g>
                </g>
              </g>
              <g id="Grupo_3376" data-name="Grupo 3376" transform="translate(376.321 57.912)" opacity="0.49">
                <g id="Grupo_3375" data-name="Grupo 3375" transform="translate(0 0)">
                  <g id="Grupo_3374" data-name="Grupo 3374" clip-path="url(#clip-path-25)">
                    <path id="Trazado_7495" data-name="Trazado 7495" d="M3.2.053c3.53.645,2.534,6.132-1,5.486S-.333-.593,3.2.053" transform="translate(-0.001 0)" fill="#fff"/>
                  </g>
                </g>
              </g>
              <g id="Grupo_3379" data-name="Grupo 3379" transform="translate(338.408 51.732)" opacity="0.49">
                <g id="Grupo_3378" data-name="Grupo 3378" transform="translate(0 0)">
                  <g id="Grupo_3377" data-name="Grupo 3377" clip-path="url(#clip-path-26)">
                    <path id="Trazado_7496" data-name="Trazado 7496" d="M18.387,7.383C13.143,9.823,5.8,7.787,1.21,4.833-1.426,3.139.682-1.333,3.356.387a34.059,34.059,0,0,0,6.981,3.432c2.6.938,5.25.967,7.888,1.63a1.015,1.015,0,0,1,.163,1.935" transform="translate(0 0)" fill="#fff"/>
                  </g>
                </g>
              </g>
              <g id="Grupo_3382" data-name="Grupo 3382" transform="translate(289.72 29.38)" opacity="0.49">
                <g id="Grupo_3381" data-name="Grupo 3381">
                  <g id="Grupo_3380" data-name="Grupo 3380" clip-path="url(#clip-path-27)">
                    <path id="Trazado_7497" data-name="Trazado 7497" d="M30.025,20.868C17.953,23.567,4.506,14.244.207,3.246-1.017.114,3.535-1.3,4.977,1.514a28.859,28.859,0,0,0,10.3,11.5c4.618,2.956,9.215,3.949,14.5,4.952,1.354.256,1.777,2.559.244,2.9" transform="translate(0 0)" fill="#fff"/>
                  </g>
                </g>
              </g>
            </g>
          </g>
        </g>
      </g>
    </g>
  </g>
</svg>
