<svg xmlns="http://www.w3.org/2000/svg" xmlns:xlink="http://www.w3.org/1999/xlink" width="142.07" height="144.72" viewBox="0 0 142.07 144.72">
  <defs>
    <clipPath id="clip-path">
      <rect id="Rect치ngulo_415" data-name="Rect치ngulo 415" width="91.459" height="88.589" fill="none"/>
    </clipPath>
    <clipPath id="clip-path-2">
      <rect id="Rect치ngulo_415-2" data-name="Rect치ngulo 415" width="54.404" height="52.696" fill="none"/>
    </clipPath>
  </defs>
  <g id="MUSICA" transform="translate(-884.589 -4321.28)">
    <g id="Grupo_3415" data-name="Grupo 3415" transform="translate(940.183 4352.461) rotate(19)">
      <g id="Grupo_3414" data-name="Grupo 3414" clip-path="url(#clip-path)">
        <path id="Trazado_7565" data-name="Trazado 7565" d="M42.333,89.352a14.28,14.28,0,0,0,4.38-.5,3.32,3.32,0,0,0,2.4-3.155,3.276,3.276,0,0,0-.958-2.313,3.394,3.394,0,0,0-1.776-.934,2.741,2.741,0,0,0-.156-1.111c-.1-.282-.2-.566-.3-.849-.1-.425-.179-.855-.262-1.27q-.273-1.352-.507-2.706c-.29-1.65-.524-3.3-.751-4.96-.566-5.058-.98-10.123-1.318-15.2-.342-5.115-.606-10.232-.695-15.357q-.093-5.314-.132-10.629-.023-2.847-.019-5.695c0-.929.005-1.863.023-2.8,1.622-.676,3.246-1.347,4.866-2.029,2.445-1.026,4.864-2.126,7.29-3.191q5.9-2.591,11.786-5.221,3.044-1.366,6.092-2.718c.94-.393,1.879-.785,2.83-1.153.559-.218,1.121-.425,1.683-.629l.185-.068c.207,2.558.417,5.117.684,7.669q.509,4.8,1.044,9.6c.614,5.49,1.163,10.988,1.463,16.507.259,4.734.392,9.473.559,14.215q.015.425.033.849l-.16-.318a22.005,22.005,0,0,0-2.538-4,12.822,12.822,0,0,0-1.821-1.707c-.8-.668-1.66-1.266-2.517-1.854a13.568,13.568,0,0,0-4.784-2.2,8.921,8.921,0,0,0-2.825-.13,11.8,11.8,0,0,0-1.536.272,10.534,10.534,0,0,0-1.919.774,8.449,8.449,0,0,0-2.129,1.585,7.3,7.3,0,0,0-1.512,2.359,14.943,14.943,0,0,0-1.2,6.374A15.492,15.492,0,0,0,59,62.347a20.358,20.358,0,0,0,1.3,2.639,18.483,18.483,0,0,0,2.015,2.69A14.6,14.6,0,0,0,64.3,69.507a17.968,17.968,0,0,0,2.577,1.72,21.831,21.831,0,0,0,6.127,2.142,29.368,29.368,0,0,0,3.582.466,26.689,26.689,0,0,0,3.613-.029c.779-.044,1.559-.127,2.336-.207.855-.088,1.707-.176,2.561-.285a8.779,8.779,0,0,0,3.608-.932,3.167,3.167,0,0,0,1.543-2.688,3.106,3.106,0,0,0-.427-1.572,3.008,3.008,0,0,0-1.86-1.432,7.816,7.816,0,0,0-1.393-.139l-.011-.2c-.042-.694-.106-1.389-.163-2.079-.122-1.484-.236-2.971-.35-4.455-.207-2.727-.308-5.461-.427-8.194-.119-2.79-.225-5.579-.409-8.363q-.308-4.7-.71-9.38c-.4-4.669-1.02-9.323-1.559-13.977C82.333,14.695,81.89,9.469,81.453,4.24a2.48,2.48,0,0,0-.684-1.652A2.343,2.343,0,0,0,79.117,1.9a2.177,2.177,0,0,0-.53.074c-.055,0-.111-.01-.166-.01a5.782,5.782,0,0,0-1.155.15,9.074,9.074,0,0,0-1.2.394c-.53.185-1.053.4-1.573.623l.053-.022c-.427.181-.852.36-1.28.539l.521-.218c-4.625,1.95-9.16,4.123-13.733,6.192-4.345,1.963-8.709,3.879-13.07,5.8q-.663.295-1.325.585c-.9.378-1.8.749-2.7,1.126,0-.248.009-.495-.006-.745a2.566,2.566,0,0,0-.329-.978,1.119,1.119,0,0,0-1.057-.636,1.317,1.317,0,0,0-1.313.946,22.33,22.33,0,0,0-.455,2.4c-.014.115-.023.232-.036.347-.729.3-1.457.613-2.186.914a2.247,2.247,0,0,0-1.235.947,2.067,2.067,0,0,0,.741,2.831,1.982,1.982,0,0,0,1.593.207c.258-.106.515-.216.773-.323-.066,1.273-.093,2.547-.133,3.819-.075,2.362-.112,4.724-.151,7.085-.085,5.112-.2,10.229-.078,15.342.127,5.2.288,10.4.611,15.585l.05.8q-.3-.663-.6-1.325a33.221,33.221,0,0,0-5.283-7.981,19.2,19.2,0,0,0-3.8-3.354,13.013,13.013,0,0,0-2.5-1.207,11.061,11.061,0,0,0-3.126-.585,11.716,11.716,0,0,0-3,.285,10.741,10.741,0,0,0-2.6.979,5.973,5.973,0,0,0-.974.642,16.113,16.113,0,0,0-1.251,1.029,7.126,7.126,0,0,0-.782.893,14.391,14.391,0,0,0-1.152,1.668A14.229,14.229,0,0,0,13,61.935a17.31,17.31,0,0,0-.215,3.079,14.931,14.931,0,0,0,.567,3.46,18.427,18.427,0,0,0,1.137,2.8,24.274,24.274,0,0,0,1.235,2.276,35.412,35.412,0,0,0,3.636,4.879,34.948,34.948,0,0,0,6.524,5.739,31.139,31.139,0,0,0,16.448,5.182m39.35-22.564q.03.169.062.338l-.829.1a27.324,27.324,0,0,1-6.195.093A22.462,22.462,0,0,1,70.146,66.1a16.354,16.354,0,0,1-2.608-1.528A16.218,16.218,0,0,1,65.5,62.535a16.308,16.308,0,0,1-1.573-2.718,14.792,14.792,0,0,1-.683-2.522,14.631,14.631,0,0,1-.006-2.807A13.13,13.13,0,0,1,63.8,52.4c.125-.253.258-.495.406-.736a6.833,6.833,0,0,1,.564-.552,8.6,8.6,0,0,1,.987-.577,9.025,9.025,0,0,1,1.2-.333,9.131,9.131,0,0,1,1.207-.008,10.153,10.153,0,0,1,1.711.486,23.064,23.064,0,0,1,3.961,2.364,12.635,12.635,0,0,1,1.741,1.683,47.092,47.092,0,0,1,3.609,6.6q1.142,2.333,2.2,4.708c.1.25.208.5.307.754m-53.668,10.7a33.6,33.6,0,0,1-5.061-5.073A28.079,28.079,0,0,1,20,67.537a12.873,12.873,0,0,1-.61-2.154,13.368,13.368,0,0,1,.016-2.345,14.349,14.349,0,0,1,.655-2.582,10.991,10.991,0,0,1,.794-1.375,9.373,9.373,0,0,1,.8-.792,8.107,8.107,0,0,1,.745-.431,10.1,10.1,0,0,1,1.3-.363,9.64,9.64,0,0,1,1.481-.006,10.034,10.034,0,0,1,1.267.347,12.4,12.4,0,0,1,1.916,1.143,28.109,28.109,0,0,1,4.149,4.26,57.26,57.26,0,0,1,5.628,10.351c1.038,2.259,2.144,4.484,3.176,6.745q.024.107.05.213a12.444,12.444,0,0,0,.36,1.287c.081.223.167.441.257.657-.808-.019-1.615-.063-2.421-.149a29.913,29.913,0,0,1-6.1-1.669,28.717,28.717,0,0,1-5.449-3.192" transform="translate(-5.141 -0.766)" fill="#222221"/>
        <path id="Trazado_7566" data-name="Trazado 7566" d="M3.4,97.156c1.066-.6,1.83,1.12.788,1.732a5.852,5.852,0,0,0-2.8,4.467.671.671,0,0,1-1.326.031A6.33,6.33,0,0,1,3.4,97.156" transform="translate(0 -39.033)" fill="#222221"/>
        <path id="Trazado_7567" data-name="Trazado 7567" d="M5.6,102.02a.805.805,0,0,1,1.165,1.087,7.338,7.338,0,0,0-1.27,2.845,4.783,4.783,0,0,0,.824,3.155c.48.708-.443,1.542-1.028.861A5.786,5.786,0,0,1,3.9,105.95c.032-1.316.527-3.178,1.7-3.929" transform="translate(-1.568 -40.973)" fill="#222221"/>
        <path id="Trazado_7568" data-name="Trazado 7568" d="M146.781,113.331c.039-.827,1.451-.786,1.433.023A8.69,8.69,0,0,1,146.5,118.3c-.366.519-1.284-.051-.947-.6a8.82,8.82,0,0,0,1.229-4.369" transform="translate(-58.522 -45.348)" fill="#222221"/>
        <path id="Trazado_7569" data-name="Trazado 7569" d="M148.712,115.783a.7.7,0,0,1,1.389.03,6.719,6.719,0,0,1-3.705,5.994c-.49.246-.819-.486-.438-.793a7.288,7.288,0,0,0,2.754-5.231" transform="translate(-58.648 -46.346)" fill="#222221"/>
        <path id="Trazado_7570" data-name="Trazado 7570" d="M99.224,1.324a.686.686,0,0,0-.54-1.261c-1.873.834-3.728,1.708-5.559,2.6a.484.484,0,0,0,.381.889c1.91-.709,3.817-1.463,5.718-2.231" transform="translate(-37.35 0)" fill="#222221"/>
        <path id="Trazado_7571" data-name="Trazado 7571" d="M98.2,5.913c.9-.309.309-1.734-.591-1.38-2.339.955-4.689,1.884-7.034,2.826-.642.26-.225,1.2.421.982,2.4-.81,4.8-1.632,7.2-2.429" transform="translate(-36.306 -1.801)" fill="#222221"/>
      </g>
    </g>
    <g id="Grupo_3416" data-name="Grupo 3416" transform="translate(868.589 4336.275) rotate(-16)">
      <g id="Grupo_3414-2" data-name="Grupo 3414" transform="translate(15.38 4.41)" clip-path="url(#clip-path-2)">
        <path id="Trazado_7565-2" data-name="Trazado 7565" d="M30.36,53.922a8.495,8.495,0,0,0,2.605-.3,1.975,1.975,0,0,0,1.428-1.877,1.948,1.948,0,0,0-.57-1.376,2.019,2.019,0,0,0-1.056-.556,1.631,1.631,0,0,0-.093-.661c-.062-.167-.117-.337-.178-.5-.058-.253-.106-.508-.156-.756q-.162-.8-.3-1.61c-.173-.981-.312-1.965-.447-2.95-.337-3.009-.583-6.022-.784-9.042-.2-3.042-.361-6.087-.413-9.135q-.055-3.161-.078-6.322-.014-1.693-.011-3.387c0-.553,0-1.108.014-1.663.965-.4,1.931-.8,2.895-1.207,1.454-.61,2.893-1.265,4.336-1.9q3.51-1.541,7.011-3.106,1.811-.812,3.624-1.617c.559-.234,1.118-.467,1.684-.686.332-.129.667-.253,1-.374l.11-.041c.123,1.522.248,3.044.407,4.562q.3,2.858.621,5.712c.365,3.266.692,6.536.87,9.819.154,2.816.233,5.635.333,8.456q.009.253.02.5l-.095-.189a13.09,13.09,0,0,0-1.51-2.38,7.627,7.627,0,0,0-1.083-1.015c-.474-.4-.987-.753-1.5-1.1A8.071,8.071,0,0,0,46.2,27.915a5.306,5.306,0,0,0-1.681-.077A7.016,7.016,0,0,0,43.6,28a6.266,6.266,0,0,0-1.142.46A5.026,5.026,0,0,0,41.2,29.4a4.344,4.344,0,0,0-.9,1.4,8.889,8.889,0,0,0-.713,3.791,9.216,9.216,0,0,0,.693,3.26,12.11,12.11,0,0,0,.77,1.57,10.994,10.994,0,0,0,1.2,1.6,8.683,8.683,0,0,0,1.181,1.089A10.688,10.688,0,0,0,44.96,43.14,12.986,12.986,0,0,0,48.6,44.414a17.469,17.469,0,0,0,2.13.277,15.876,15.876,0,0,0,2.149-.017c.464-.026.927-.075,1.389-.123.508-.052,1.015-.1,1.524-.169a5.222,5.222,0,0,0,2.146-.555,1.884,1.884,0,0,0,.918-1.6,1.847,1.847,0,0,0-.254-.935,1.789,1.789,0,0,0-1.106-.852,4.65,4.65,0,0,0-.828-.082l-.006-.116c-.025-.413-.063-.826-.1-1.237-.073-.883-.14-1.767-.208-2.65-.123-1.622-.183-3.249-.254-4.874-.071-1.659-.134-3.318-.243-4.975q-.183-2.794-.422-5.58c-.236-2.777-.607-5.546-.927-8.314-.361-3.1-.624-6.21-.884-9.32a1.475,1.475,0,0,0-.407-.983A1.394,1.394,0,0,0,52.24,1.9a1.3,1.3,0,0,0-.315.044c-.033,0-.066-.006-.1-.006a3.439,3.439,0,0,0-.687.089,5.4,5.4,0,0,0-.715.234c-.315.11-.626.24-.935.37l.031-.013-.761.32.31-.129C46.317,3.974,43.62,5.267,40.9,6.5c-2.585,1.168-5.181,2.308-7.775,3.451l-.788.348c-.534.225-1.069.446-1.6.67,0-.148.005-.294,0-.443a1.526,1.526,0,0,0-.2-.582.665.665,0,0,0-.629-.378.783.783,0,0,0-.781.563,13.283,13.283,0,0,0-.271,1.428c-.008.069-.014.138-.022.207-.434.181-.866.364-1.3.544a1.337,1.337,0,0,0-.735.564,1.229,1.229,0,0,0,.441,1.684,1.179,1.179,0,0,0,.948.123l.46-.192c-.039.757-.055,1.515-.079,2.272-.045,1.4-.066,2.81-.09,4.215-.051,3.041-.122,6.085-.046,9.126.076,3.092.171,6.184.364,9.271l.03.477q-.178-.395-.358-.788a19.762,19.762,0,0,0-3.143-4.748,11.421,11.421,0,0,0-2.261-2,7.741,7.741,0,0,0-1.487-.718,6.58,6.58,0,0,0-1.86-.348,6.969,6.969,0,0,0-1.785.169A6.39,6.39,0,0,0,16.384,32a3.553,3.553,0,0,0-.579.382,9.584,9.584,0,0,0-.744.612,4.239,4.239,0,0,0-.465.531,8.56,8.56,0,0,0-.686.992,8.464,8.464,0,0,0-1,3.1,10.3,10.3,0,0,0-.128,1.831,8.881,8.881,0,0,0,.337,2.058,10.961,10.961,0,0,0,.676,1.667,14.439,14.439,0,0,0,.735,1.354,21.064,21.064,0,0,0,2.163,2.9,20.789,20.789,0,0,0,3.88,3.414,18.523,18.523,0,0,0,9.784,3.083M53.767,40.5q.018.1.037.2l-.493.06a16.254,16.254,0,0,1-3.685.055,13.361,13.361,0,0,1-2.722-.724,9.728,9.728,0,0,1-1.552-.909,9.647,9.647,0,0,1-1.211-1.214,9.7,9.7,0,0,1-.936-1.617,8.8,8.8,0,0,1-.406-1.5,8.7,8.7,0,0,1,0-1.67,7.81,7.81,0,0,1,.331-1.241c.074-.15.154-.294.242-.438a4.064,4.064,0,0,1,.335-.329,5.115,5.115,0,0,1,.587-.343,5.368,5.368,0,0,1,.713-.2,5.432,5.432,0,0,1,.718,0,6.039,6.039,0,0,1,1.018.289,13.719,13.719,0,0,1,2.356,1.406,7.516,7.516,0,0,1,1.036,1,28.012,28.012,0,0,1,2.147,3.925q.679,1.388,1.307,2.8c.062.149.124.3.183.449M21.843,46.862a19.984,19.984,0,0,1-3.01-3.018,16.7,16.7,0,0,1-1.759-2.9,7.657,7.657,0,0,1-.363-1.281,7.952,7.952,0,0,1,.009-1.4,8.535,8.535,0,0,1,.389-1.536,6.538,6.538,0,0,1,.472-.818,5.576,5.576,0,0,1,.477-.471,4.823,4.823,0,0,1,.443-.256,6.008,6.008,0,0,1,.774-.216,5.734,5.734,0,0,1,.881,0,5.969,5.969,0,0,1,.754.207,7.376,7.376,0,0,1,1.14.68,16.721,16.721,0,0,1,2.468,2.534,34.061,34.061,0,0,1,3.348,6.157c.618,1.344,1.275,2.667,1.889,4.012q.014.063.03.127a7.4,7.4,0,0,0,.214.766c.048.133.1.262.153.391-.481-.011-.961-.037-1.44-.089a17.793,17.793,0,0,1-3.628-.993,17.082,17.082,0,0,1-3.241-1.9" transform="translate(-8.236 -1.227)" fill="#222221"/>
        <path id="Trazado_7566-2" data-name="Trazado 7566" d="M2.021,97.105c.634-.359,1.089.666.469,1.03a3.481,3.481,0,0,0-1.666,2.657.4.4,0,0,1-.789.018,3.765,3.765,0,0,1,1.986-3.706" transform="translate(0 -62.531)" fill="#222221"/>
        <path id="Trazado_7567-2" data-name="Trazado 7567" d="M4.913,101.952a.479.479,0,0,1,.693.647,4.365,4.365,0,0,0-.756,1.692,2.845,2.845,0,0,0,.49,1.877c.286.421-.263.917-.612.512A3.442,3.442,0,0,1,3.9,104.29a3,3,0,0,1,1.013-2.337" transform="translate(-2.512 -65.639)" fill="#222221"/>
        <path id="Trazado_7568-2" data-name="Trazado 7568" d="M146.253,113.087c.023-.492.863-.468.852.014a5.169,5.169,0,0,1-1.02,2.94c-.218.309-.764-.031-.563-.355a5.247,5.247,0,0,0,.731-2.6" transform="translate(-93.754 -72.648)" fill="#222221"/>
        <path id="Trazado_7569-2" data-name="Trazado 7569" d="M147.529,115.55a.419.419,0,0,1,.826.018,4,4,0,0,1-2.2,3.565c-.291.146-.487-.289-.26-.472a4.335,4.335,0,0,0,1.638-3.112" transform="translate(-93.955 -74.247)" fill="#222221"/>
        <path id="Trazado_7570-2" data-name="Trazado 7570" d="M96.64.787a.408.408,0,0,0-.321-.75C95.2.534,94.1,1.054,93.012,1.586a.288.288,0,0,0,.227.529c1.136-.422,2.271-.87,3.4-1.327" transform="translate(-59.835 0)" fill="#222221"/>
        <path id="Trazado_7571-2" data-name="Trazado 7571" d="M94.978,5.331c.538-.184.184-1.031-.352-.821-1.391.568-2.789,1.121-4.184,1.681-.382.155-.134.711.25.584,1.429-.482,2.854-.971,4.285-1.445" transform="translate(-58.163 -2.885)" fill="#222221"/>
      </g>
    </g>
  </g>
</svg>
