<svg id="Grupo_3418" data-name="Grupo 3418" xmlns="http://www.w3.org/2000/svg" xmlns:xlink="http://www.w3.org/1999/xlink" width="97.271" height="107.879" viewBox="0 0 97.271 107.879">
  <defs>
    <clipPath id="clip-path">
      <rect id="Rectángulo_416" data-name="Rectángulo 416" width="97.271" height="107.879" fill="none"/>
    </clipPath>
  </defs>
  <g id="Grupo_3417" data-name="Grupo 3417" clip-path="url(#clip-path)">
    <path id="Trazado_7572" data-name="Trazado 7572" d="M69.974,21.38c-.543-.962-1.113-1.905-1.68-2.851a20.448,20.448,0,0,0-2.512-3.3,11.7,11.7,0,0,0-3.622-2.592,32.429,32.429,0,0,0-9.6-2.385c-.161-.021-.324-.036-.486-.053A1.815,1.815,0,0,0,52.112,9c-.367-.95-.663-1.926-.992-2.891a23.472,23.472,0,0,0-1.8-4.121A3.651,3.651,0,0,0,46.347,0a2.6,2.6,0,0,0-.331.021A2.79,2.79,0,0,0,44.86.36a6.55,6.55,0,0,0-.768.576,3.194,3.194,0,0,0-.573.764c-.144.235-.274.478-.4.721a12.59,12.59,0,0,0-1.27,3.933,18.885,18.885,0,0,0-.21,2.281,12.056,12.056,0,0,0,.144,2.1c-.258.052-.517.1-.775.153-.682.148-1.362.293-2.047.437-.2.043-.4.1-.593.161a1.329,1.329,0,0,0-1.162-.752,1.153,1.153,0,0,0-.345.052,9.939,9.939,0,0,0-1.776.709A12.669,12.669,0,0,0,33.2,12.833c-.15.119-.288.248-.43.373a1.738,1.738,0,0,0-.855.827,14.246,14.246,0,0,0-1.319,1.657,19.281,19.281,0,0,0-1.7,2.891,30.268,30.268,0,0,0-1.224,3.434,28.622,28.622,0,0,0-.783,3.557c-.24,1.328-.386,2.681-.548,4.022-.287,2.34-.435,4.713-.543,7.068-.114,2.512-.25,5.021-.456,7.53-.182,2.188-.321,4.379-.5,6.567-.174,2.074-.379,4.135-.64,6.2C23.53,61.015,22.6,65.017,21.561,69q-.753,2.89-1.615,5.749c-.591,1.968-1.27,3.888-2.032,5.795-.854,1.978-1.779,3.92-2.7,5.867-.317.666-.638,1.335-.906,2.022l-.277.709a9.039,9.039,0,0,0-.517,2.771,5.979,5.979,0,0,0,.157,1.3,5.327,5.327,0,0,0,.468,1.3,10.073,10.073,0,0,0,1.325,2.025,9.416,9.416,0,0,0,1.908,1.723,14.932,14.932,0,0,0,2.22,1.325,21.006,21.006,0,0,0,4.672,1.667c.98.225,1.973.367,2.962.518,1.34.206,2.7.4,4.05.5,1.291.092,2.579.185,3.868.253,1.2.068,2.407.132,3.607.1,2.462-.074,4.931-.154,7.388-.382.923-.087,1.845-.186,2.764-.29.135.144.267.294.4.433a23.6,23.6,0,0,0,2.928,2.439,15.425,15.425,0,0,0,4.784,2.857,6.863,6.863,0,0,0,1.972.2,9.924,9.924,0,0,0,2.543-.45,12.343,12.343,0,0,0,3.992-2.04,10.694,10.694,0,0,0,1.439-1.3,12.76,12.76,0,0,0,1.356-1.862,7.657,7.657,0,0,0,1.267-4.248,2.455,2.455,0,0,0-.126-.661c1.969-.621,3.933-1.254,5.884-1.936,2.389-.832,4.731-1.828,7.024-2.891,2.274-1.054,4.519-2.163,6.744-3.31a67.425,67.425,0,0,0,5.961-3.523,25.442,25.442,0,0,0,3.1-2.272,14.609,14.609,0,0,0,1.214-1.233c.271-.311.53-.656.774-.986a5.449,5.449,0,0,0,.813-1.646,2.466,2.466,0,0,0-1.128-2.777,2.42,2.42,0,0,0-1.223-.317c-.771-.841-1.492-1.729-2.2-2.617Q95.1,72.163,93.8,70.5l-1.135-1.561c-.392-.543-.74-1.119-1.11-1.677-.314-.478-.6-.971-.894-1.461-.324-.539-.672-1.07-.958-1.63-.65-1.279-1.3-2.546-1.887-3.856-.49-1.1-.965-2.2-1.439-3.309-.359-.868-.736-1.732-1.063-2.612-.425-1.153-.842-2.3-1.226-3.468-.691-2.077-1.375-4.145-2.2-6.176a61.6,61.6,0,0,0-3.027-6.3c-.456-.839-.943-1.655-1.412-2.484-.6-1.061-1.174-2.127-1.744-3.2-1-1.886-1.886-3.84-2.814-5.764-.915-1.905-1.88-3.785-2.915-5.625M45.385,7.158a12.22,12.22,0,0,1,.6-2.269c.1-.223.21-.443.324-.659.112.208.216.42.316.636a17.63,17.63,0,0,1,.814,2.426A25.849,25.849,0,0,0,48.177,10a26.647,26.647,0,0,0-2.822.171,14.906,14.906,0,0,1,.031-3.018m18.2,93.82a8.975,8.975,0,0,1-.995.972,12.916,12.916,0,0,1-1.834,1.061,10.745,10.745,0,0,1-1.775.524,7.243,7.243,0,0,1-.9.022,6.339,6.339,0,0,1-.713-.188,23.463,23.463,0,0,1-3.413-2.109l.287-.044c2.377-.392,4.734-.839,7.074-1.406,1.158-.28,2.3-.624,3.438-.985-.031.08-.059.162-.091.243a12.454,12.454,0,0,1-1.081,1.911M76.425,42.672c.176.379.352.759.525,1.138a57.523,57.523,0,0,1,2.036,5.483l1.027,3.368c.327,1.07.706,2.123,1.073,3.181.314.909.694,1.809,1.06,2.7.469,1.138.931,2.278,1.421,3.409.44,1.021.881,2.028,1.378,3.021.277.561.558,1.125.838,1.686.225.453.506.882.761,1.32.641,1.109,1.322,2.185,2.01,3.267.724,1.135,1.575,2.2,2.4,3.261s1.63,2.09,2.49,3.1c.472.548.943,1.076,1.443,1.6.058.061.127.111.187.17-.239.228-.484.451-.742.665a75.5,75.5,0,0,1-14.638,7.809c-1.147.443-2.293.863-3.455,1.268-1.193.419-2.423.746-3.64,1.085-2.244.626-4.522,1.106-6.778,1.677-2.456.62-4.889,1.335-7.351,1.938q-3.51.86-7.037,1.634c-2.171.474-4.366.815-6.562,1.143-1.283.168-2.567.339-3.856.444-1.579.129-3.172.29-4.759.277q-2.5-.023-5-.108c-1.482-.051-2.961-.242-4.433-.422a23.42,23.42,0,0,1-4.79-1.236A14.86,14.86,0,0,1,19.588,94.2a9.871,9.871,0,0,1-1-.97,7.507,7.507,0,0,1-.453-.747c-.052-.159-.1-.315-.134-.477,0-.127.006-.252.016-.377a6.828,6.828,0,0,1,.282-.994c.445-.968.949-1.9,1.456-2.841.564-1.051,1.115-2.1,1.667-3.163a47.335,47.335,0,0,0,2.965-6.962c.731-2.225,1.353-4.5,1.911-6.781.576-2.358,1.128-4.725,1.6-7.107.283-1.427.561-2.854.755-4.3.173-1.282.327-2.561.453-3.849.247-2.466.312-4.95.41-7.425.1-2.45.2-4.9.287-7.348s0-4.873.031-7.308c.021-1.609.07-3.215.166-4.82.084-1.418.238-2.829.4-4.242a25.825,25.825,0,0,1,1.337-5.266,17.806,17.806,0,0,1,1.7-2.849,1.428,1.428,0,0,0,.406-.061c1.914-.608,3.843-1.168,5.769-1.729.62-.181,1.267-.28,1.9-.413,1.1-.231,2.2-.455,3.314-.616A33.056,33.056,0,0,1,50,13.419c.662.03,1.325.1,1.985.16a36.1,36.1,0,0,1,8.034,1.875,12.223,12.223,0,0,1,2.215,1.239,14.031,14.031,0,0,1,1.889,1.934A30.609,30.609,0,0,1,66.439,22.3c.534.977,1.064,1.951,1.566,2.947.953,1.887,1.84,3.8,2.694,5.736.872,1.97,1.735,3.945,2.734,5.856,1.011,1.936,2.074,3.853,2.993,5.835" transform="translate(-3.899 0)" fill="#222221"/>
    <path id="Trazado_7573" data-name="Trazado 7573" d="M60.135,125.179a1.294,1.294,0,0,0-.672-.177,2.138,2.138,0,0,0-.385.038c-4.14.752-8.293,1.5-12.463,2.067a50.06,50.06,0,0,1-5.839.4,52.458,52.458,0,0,1-6-.4c-2.782-.4-5.562-.8-8.332-1.274a1.486,1.486,0,0,0-1.082.142,1.407,1.407,0,0,0-.505,1.926,1.36,1.36,0,0,0,.842.644c2.185.376,4.374.7,6.568,1.027.659.1,1.322.194,1.981.293,1.1.16,2.207.253,3.311.345,1.162.1,2.327.145,3.492.142a65.878,65.878,0,0,0,9.718-.952c1.483-.226,2.961-.469,4.441-.718a44.261,44.261,0,0,0,4.6-.99,1.375,1.375,0,0,0,.327-2.512" transform="translate(-7.118 -36.078)" fill="#222221"/>
    <path id="Trazado_7574" data-name="Trazado 7574" d="M12.127,134.832a.891.891,0,0,1-.742,1.357c-1.891-.07-3.316-2.146-3.987-3.777a7.582,7.582,0,0,1,.07-5.781c.358-.836,1.747-.275,1.48.577a5.854,5.854,0,0,0,.378,4.6c.7,1.344,1.954,1.9,2.8,3.028" transform="translate(-1.98 -36.429)" fill="#222221"/>
    <path id="Trazado_7575" data-name="Trazado 7575" d="M6.266,135.458c1.075.954-.441,2.386-1.52,1.563A12.754,12.754,0,0,1,.018,126.452a.746.746,0,0,1,1.49-.049,13.335,13.335,0,0,0,4.758,9.054" transform="translate(0 -36.284)" fill="#222221"/>
    <path id="Trazado_7576" data-name="Trazado 7576" d="M133.968,86.553c.593.706-.388,1.828-1.115,1.209a20,20,0,0,1-5.021-6.814c-.272-.608.579-1.182.99-.627.817,1.074,1.546,2.2,2.409,3.243s1.855,1.958,2.737,2.989" transform="translate(-36.88 -23.117)" fill="#222221"/>
    <path id="Trazado_7577" data-name="Trazado 7577" d="M128.76,86.667a.9.9,0,0,1-1.04,1.473,14.5,14.5,0,0,1-6.129-9.621c-.12-.654.792-.783.984-.189a16.781,16.781,0,0,0,6.185,8.337" transform="translate(-35.091 -22.498)" fill="#222221"/>
  </g>
</svg>
