<svg xmlns="http://www.w3.org/2000/svg" width="480.918" height="132.246" viewBox="0 0 480.918 132.246">
  <path id="Trazado_7503" data-name="Trazado 7503" d="M145.6,0H0Q.166,1.752.333,3.5l.313.375-.285.4Q.209,5.335.053,6.4a35.948,35.948,0,0,1,2.928,4.177c2.071,4.016,3.926,8.144,5.96,12.178,1.377,2.731,2.915,5.379,4.381,8.064,1.322.862,3.08,1.427,3.894,2.632,4.23,6.273,10.477,10.337,16.031,15.157,2.186,1.234,4.236,2.906,6.581,3.623,8.6,2.634,16.874,6.753,26.3,5.836,5.209-.5,10.769.322,15.608-1.221,8.907-2.837,18.352-4.784,25.8-11.224,1.285-1.11,3.333-1.336,5.029-1.968.738,1.653,1.359,3.374,2.237,4.956,2.616,4.721,3.848,10.015,7.484,14.39,8.882,10.68,17.992,20.725,30.5,27.6,10.567,5.811,21.373,10.1,33.3,11.548,4.717.57,9.546,1.669,14.18,1.175,14.344-1.524,28.278-5.34,42.3-8.592,5.744-3.469,11.677-6.666,17.182-10.48A180.5,180.5,0,0,0,276.99,70.856c6.942-6.179,13.38-12.921,20.116-19.339.986-.94,2.4-1.432,4.138-2.43,1.149,3.519,2.11,6.572,3.147,9.6,2.9,8.464,5.554,17.026,8.818,25.347,5.275,13.44,13.957,24.7,24.7,34.089,7.494,6.553,16.127,11.732,26.235,13.636a22.316,22.316,0,0,0,4.9.478,159.114,159.114,0,0,0,36.753-5.393c5.556-1.54,9.13-5.921,13.272-9.395a111.767,111.767,0,0,0,11.794-11.535c3.788-4.28,6.979-9.082,10.62-13.5,1.345-1.632,3.23-2.816,5.183-4.473,1.646,2.177,3,4.071,4.464,5.882,2.4,2.984,4.905,5.891,7.3,8.882,1,1.248,1.841,2.625,2.756,3.94a15.83,15.83,0,0,1,7.615,5.813q1.279,1,2.561,1.986,4.782,1.779,9.556,3.563V0Z" fill="#fcc949"/>
</svg>
