<svg xmlns="http://www.w3.org/2000/svg" width="417.563" height="109.471" viewBox="0 0 417.563 109.471">
  <path id="Trazado_7500" data-name="Trazado 7500" d="M325.7,26.987c7.02-.291,14.161-1.514,21.035-.651,9.5,1.194,19.227,1.678,28.142,6.438a97.987,97.987,0,0,1,21.959,16.063C409.3,60.814,414.859,75.93,417.274,92.4c.814,5.545-.325,11.374-.57,17.075H.91C.6,102.495.283,95.521.007,88.545A6.685,6.685,0,0,1,.3,86.159c.991-2.888,2.082-5.743,3.13-8.61,2.043-5.576,3.8-11.163,8.413-15.514,2.74-2.586,4.413-6.3,6.565-9.508,3.695-3.258,7.4-6.5,11.077-9.773,9.315-8.3,19.677-14.259,32.542-14.684,2.066.062,4.132.13,6.2.185,11.847.317,23.557,1.668,34.53,6.375A91.185,91.185,0,0,1,126.74,49.865c1.041.911,2.266,1.605,3.812,2.683,4.541-4.863,8.954-9.394,11.585-15.342,10.125-8.537,19.04-18.532,30.663-25.264,2.839-1.642,5.532-3.536,8.293-5.313q7.783-1.8,15.563-3.593l5.251-.692c7.083-.731,14-3.6,21.29-1.707,1.283.487,2.537,1.072,3.854,1.442,4.153,1.168,8.912,1.34,12.391,3.547,10.853,6.883,21.082,14.665,27.02,26.653,2.563,5.181,5.116,10.369,7.752,15.514a28.193,28.193,0,0,0,2.665,3.479c2.391-2.456,4.481-4.6,6.568-6.742,3.328-1.592,6.919-2.795,9.924-4.858,5.709-3.919,12.352-5.287,18.631-7.65,4.551-1.715,9.128-3.357,13.695-5.032" transform="translate(0 0)" fill="#fcc949"/>
</svg>
