<svg xmlns="http://www.w3.org/2000/svg" width="214.784" height="180.879" viewBox="0 0 214.784 180.879">
  <path id="Trazado_7501" data-name="Trazado 7501" d="M0,6.16a90.921,90.921,0,0,0,9.632-3.19c8.8-4,17.744-3.469,26.79-1.288A6.431,6.431,0,0,1,38.89,3.031C47.01,9.78,54.7,17.011,59.6,26.5c2.25,4.358,3.37,9.307,4.949,14.007.6,1.8,1.053,3.642,1.709,5.944,1.591-.865,3.079-1.322,4.089-2.281C77.8,37.094,87.561,35.719,96.894,33.4c2.084-.517,4.483.341,6.742.416,9.211.3,16.91,4.091,23.585,10.2,2.514,2.3,4.923,4.723,7.3,7.168,4.678,4.81,6.312,11.136,8.54,17.191a42.68,42.68,0,0,1,2.365,19.554c-.37,3.524.683,4.529,4.195,4.675A74.268,74.268,0,0,1,175.484,98.9c12.889,5.48,24.532,13.225,33.359,24.487,2.372,3.029,3.406,6.666,4.755,10.262,2.966,7.9-.377,14.874-1.928,22.117a7.656,7.656,0,0,1-5.1,5.666c-3.671,1.459-7,3.882-10.288,6.163a42.425,42.425,0,0,1-17.377,6.74A158.522,158.522,0,0,1,153.868,177c-9.692.118-19.4.678-29,2.82a41.624,41.624,0,0,1-14.1.74c-6.745-.822-13.68.087-20.516-.187-5.8-.231-11.511,1.113-17.405.154-4.6-.748-9.432-.022-14.163-.01-2.411.007-4.824-.149-7.235-.168-4.61-.036-9.233.163-13.831-.075-10.483-.543-20.953-1.358-31.436-1.9-2.041-.106-4.12.5-6.182.784Z" transform="translate(0 0)" fill="#fcc949"/>
</svg>
