<svg xmlns="http://www.w3.org/2000/svg" viewBox="0 0 1920.997 231.619"><path d="M3,1602.268l.409-81.673h1920l-4.2,80.551s-157.815-53.735-437.78-54.329c-142.342-.3-316.225-9.123-516.993,55.452-198.571,63.868-371.608,85.16-514.038,85.163C165.51,1687.436,3,1602.268,3,1602.268Z" transform="translate(-2.412 -1520.595)" fill="#ecf2ef" opacity="0.6"/><path d="M956.663,1640.824C359.734,1467.268,0,1639.807,0,1639.807l.409-88.684h1920l-.409,89.7s-162.831,77.141-448.281,77.136C1329.007,1717.958,1155.627,1698.672,956.663,1640.824Z" transform="translate(0.588 -1551.123)" fill="#c7d7d0"/><path d="M111.876,1049.492C191.9,1107.886,316.04,1167.97,493.94,1176.97c359.394,18.182,1138.787-344.606,1536.969-98.97" transform="translate(-111.139 -947.234)" fill="none" stroke="#ae9461" stroke-width="2.5"/></svg>