<svg id="_010" data-name="010" xmlns="http://www.w3.org/2000/svg" xmlns:xlink="http://www.w3.org/1999/xlink" width="397.214" height="530.004" viewBox="0 0 397.214 530.004">
  <defs>
    <clipPath id="clip-path">
      <rect id="Rectángulo_653" data-name="Rectángulo 653" width="397.214" height="530.004" fill="none"/>
    </clipPath>
    <clipPath id="clip-path-2">
      <path id="Trazado_8020" data-name="Trazado 8020" d="M1287.381,2151.021l-57.111,79.646s6.007,33.959,44.447,49.509c20.678,8.363,46.5,4.909,67.918,1.453,15.072-2.431,27.967-4.861,35.362-3.176,0,0-12.316-26.19-14.376-42.687s-4.543-22.5-8.854-27.86c0,0,7.745,1.83,9.581,1.235,0,0-6.953-12.457-11.048-20.451-7.553-14.743-20.373-37.736-61.894-37.739-1.315,0-2.651.023-4.025.07" transform="translate(-1230.27 -2150.951)" fill="none"/>
    </clipPath>
    <linearGradient id="linear-gradient" x1="-0.808" y1="1.192" x2="-0.807" y2="1.192" gradientUnits="objectBoundingBox">
      <stop offset="0" stop-color="#ff4545"/>
      <stop offset="1" stop-color="#f7931e"/>
    </linearGradient>
    <clipPath id="clip-path-4">
      <path id="Trazado_8023" data-name="Trazado 8023" d="M2140.233,2609.876a31.122,31.122,0,0,1,2.072,9.461c.311,5.355,2.207,13.659,10.49,18.844s11.466,4.221,11.466,4.221-6.712-4.428-8.5-11.718-4.712-18.06-15.522-20.807Z" transform="translate(-2140.233 -2609.876)" fill="none"/>
    </clipPath>
    <linearGradient id="linear-gradient-2" x1="-7.98" y1="3.452" x2="-7.976" y2="3.452" xlink:href="#linear-gradient"/>
    <clipPath id="clip-path-6">
      <path id="Trazado_8025" data-name="Trazado 8025" d="M2186.993,2964.734c-6.761-2.464-15.765-.329-15.765-.329,7.051.377,11.945,6.6,18.417,12s15.349,5.12,15.349,5.12c-3.755-1.712-3.736-4.264-7.026-14.1s-16-17.057-16-17.057a38.545,38.545,0,0,1,5.022,14.364" transform="translate(-2171.228 -2950.37)" fill="none"/>
    </clipPath>
    <linearGradient id="linear-gradient-3" x1="-6.977" y1="2.053" x2="-6.974" y2="2.053" xlink:href="#linear-gradient"/>
    <clipPath id="clip-path-8">
      <rect id="Rectángulo_610" data-name="Rectángulo 610" width="97.907" height="54.334" fill="none"/>
    </clipPath>
    <clipPath id="clip-path-9">
      <rect id="Rectángulo_611" data-name="Rectángulo 611" width="88.555" height="47.758" fill="none"/>
    </clipPath>
    <clipPath id="clip-path-10">
      <rect id="Rectángulo_612" data-name="Rectángulo 612" width="45.058" height="82.005" fill="none"/>
    </clipPath>
    <clipPath id="clip-path-11">
      <rect id="Rectángulo_613" data-name="Rectángulo 613" width="82.046" height="120.223" fill="none"/>
    </clipPath>
    <clipPath id="clip-path-12">
      <rect id="Rectángulo_614" data-name="Rectángulo 614" width="31.186" height="30.319" fill="none"/>
    </clipPath>
    <clipPath id="clip-path-13">
      <rect id="Rectángulo_615" data-name="Rectángulo 615" width="34.846" height="45.046" fill="none"/>
    </clipPath>
    <clipPath id="clip-path-14">
      <rect id="Rectángulo_616" data-name="Rectángulo 616" width="129.874" height="113.959" fill="none"/>
    </clipPath>
    <clipPath id="clip-path-15">
      <rect id="Rectángulo_617" data-name="Rectángulo 617" width="54.956" height="51.246" fill="none"/>
    </clipPath>
    <clipPath id="clip-path-16">
      <rect id="Rectángulo_618" data-name="Rectángulo 618" width="37.92" height="34.714" fill="none"/>
    </clipPath>
    <clipPath id="clip-path-17">
      <rect id="Rectángulo_619" data-name="Rectángulo 619" width="118.328" height="54.654" fill="none"/>
    </clipPath>
    <clipPath id="clip-path-18">
      <rect id="Rectángulo_620" data-name="Rectángulo 620" width="74.435" height="44.011" fill="none"/>
    </clipPath>
    <clipPath id="clip-path-19">
      <rect id="Rectángulo_621" data-name="Rectángulo 621" width="55.569" height="22.934" fill="none"/>
    </clipPath>
    <clipPath id="clip-path-20">
      <rect id="Rectángulo_623" data-name="Rectángulo 623" width="11.87" height="15.602" fill="none"/>
    </clipPath>
    <clipPath id="clip-path-22">
      <rect id="Rectángulo_625" data-name="Rectángulo 625" width="12.502" height="9.273" fill="none"/>
    </clipPath>
    <clipPath id="clip-path-23">
      <rect id="Rectángulo_624" data-name="Rectángulo 624" width="12.502" height="9.272" fill="none"/>
    </clipPath>
    <clipPath id="clip-path-24">
      <path id="Trazado_8085" data-name="Trazado 8085" d="M2471.515,3185.66a17.155,17.155,0,0,0,7.623,10,51.042,51.042,0,0,1,9.1,7.981s.545-18.057-14.936-18.057c-.572,0-1.165.024-1.782.075" transform="translate(-2471.515 -3185.585)" fill="none"/>
    </clipPath>
    <linearGradient id="linear-gradient-4" x1="-14.699" y1="2.226" x2="-14.692" y2="2.226" xlink:href="#linear-gradient"/>
    <clipPath id="clip-path-26">
      <rect id="Rectángulo_628" data-name="Rectángulo 628" width="41.511" height="43.831" fill="none"/>
    </clipPath>
    <clipPath id="clip-path-27">
      <rect id="Rectángulo_629" data-name="Rectángulo 629" width="32.353" height="32.04" fill="none"/>
    </clipPath>
    <clipPath id="clip-path-28">
      <rect id="Rectángulo_630" data-name="Rectángulo 630" width="69.541" height="37.477" fill="none"/>
    </clipPath>
    <clipPath id="clip-path-29">
      <rect id="Rectángulo_631" data-name="Rectángulo 631" width="59.049" height="95.469" fill="none"/>
    </clipPath>
    <clipPath id="clip-path-30">
      <rect id="Rectángulo_632" data-name="Rectángulo 632" width="212.204" height="177.211" fill="none"/>
    </clipPath>
    <clipPath id="clip-path-31">
      <rect id="Rectángulo_633" data-name="Rectángulo 633" width="38.53" height="101.387" fill="none"/>
    </clipPath>
    <clipPath id="clip-path-32">
      <rect id="Rectángulo_634" data-name="Rectángulo 634" width="108.366" height="37.442" fill="none"/>
    </clipPath>
    <clipPath id="clip-path-33">
      <rect id="Rectángulo_635" data-name="Rectángulo 635" width="10.765" height="27.806" fill="none"/>
    </clipPath>
    <clipPath id="clip-path-34">
      <rect id="Rectángulo_637" data-name="Rectángulo 637" width="17.733" height="57.583" fill="none"/>
    </clipPath>
    <clipPath id="clip-path-36">
      <rect id="Rectángulo_639" data-name="Rectángulo 639" width="11.155" height="52.292" fill="none"/>
    </clipPath>
    <clipPath id="clip-path-38">
      <rect id="Rectángulo_640" data-name="Rectángulo 640" width="62.974" height="17.583" fill="none"/>
    </clipPath>
    <clipPath id="clip-path-39">
      <rect id="Rectángulo_641" data-name="Rectángulo 641" width="83.607" height="84.58" fill="none"/>
    </clipPath>
    <clipPath id="clip-path-40">
      <rect id="Rectángulo_642" data-name="Rectángulo 642" width="85.813" height="82.102" fill="none"/>
    </clipPath>
    <clipPath id="clip-path-41">
      <rect id="Rectángulo_643" data-name="Rectángulo 643" width="104.461" height="59.607" fill="none"/>
    </clipPath>
    <clipPath id="clip-path-42">
      <rect id="Rectángulo_644" data-name="Rectángulo 644" width="65.906" height="111.683" fill="none"/>
    </clipPath>
    <clipPath id="clip-path-43">
      <rect id="Rectángulo_645" data-name="Rectángulo 645" width="41.019" height="31.194" fill="none"/>
    </clipPath>
    <clipPath id="clip-path-44">
      <rect id="Rectángulo_646" data-name="Rectángulo 646" width="28.987" height="36.253" fill="none"/>
    </clipPath>
    <clipPath id="clip-path-45">
      <rect id="Rectángulo_647" data-name="Rectángulo 647" width="142.846" height="89.766" fill="none"/>
    </clipPath>
    <clipPath id="clip-path-46">
      <rect id="Rectángulo_648" data-name="Rectángulo 648" width="18.972" height="26.022" fill="none"/>
    </clipPath>
    <clipPath id="clip-path-47">
      <rect id="Rectángulo_649" data-name="Rectángulo 649" width="10.275" height="11.965" fill="none"/>
    </clipPath>
    <clipPath id="clip-path-48">
      <rect id="Rectángulo_650" data-name="Rectángulo 650" width="48.751" height="83.992" fill="none"/>
    </clipPath>
    <clipPath id="clip-path-49">
      <rect id="Rectángulo_651" data-name="Rectángulo 651" width="52.372" height="31.342" fill="none"/>
    </clipPath>
  </defs>
  <g id="Grupo_4060" data-name="Grupo 4060" clip-path="url(#clip-path)">
    <g id="Grupo_3929" data-name="Grupo 3929" transform="translate(184.601 322.749)">
      <g id="Grupo_3928" data-name="Grupo 3928" clip-path="url(#clip-path-2)">
        <rect id="Rectángulo_605" data-name="Rectángulo 605" width="197.654" height="200.07" transform="translate(-64.886 91.651) rotate(-54.703)" fill="url(#linear-gradient)"/>
      </g>
    </g>
    <g id="Grupo_3931" data-name="Grupo 3931" transform="translate(0 0)">
      <g id="Grupo_3930" data-name="Grupo 3930" clip-path="url(#clip-path)">
        <path id="Trazado_8021" data-name="Trazado 8021" d="M1293.762,2275.689c-10.964,0-21.792-1.388-31.592-5.352-39.057-15.8-45.46-49.639-45.713-51.073a2.077,2.077,0,0,1,.358-1.572l57.111-79.646a2.076,2.076,0,0,1,1.617-.866c47.113-1.6,60.6,24.675,67.839,38.8,4.031,7.871,10.943,20.263,11.013,20.386a2.078,2.078,0,0,1-1.174,2.989c-1.147.373-3.346.195-5.608-.164,2.755,4.847,4.67,11.475,6.3,24.556,1.994,15.976,14.072,41.8,14.194,42.06a2.078,2.078,0,0,1-2.342,2.91c-6.261-1.428-17.319.382-30.126,2.477-12.849,2.1-27.483,4.5-41.88,4.5m-73.033-56.326c1.237,5.189,9.429,33.543,43,47.122,21.589,8.732,49.12,4.227,71.243.606,11.016-1.8,20.784-3.4,27.816-2.958-3.421-7.715-11.342-26.634-13-39.874-2.043-16.374-4.436-21.877-8.412-26.815a2.078,2.078,0,0,1,2.1-3.325c1.8.425,3.852.823,5.513,1.067-2.347-4.251-6.509-11.852-9.307-17.313-6.763-13.2-19.317-37.653-62.98-36.571Z" transform="translate(-1033.902 -1816.438)" fill="#371a45"/>
        <path id="Trazado_8022" data-name="Trazado 8022" d="M1398.8,2260.68s14.442-1.071,27.039,6.709c10.755,6.642,13.9,14.091,14.784,20.714s1.047,14.55,6.833,19.007c0,0-4.585,1.236-7.593-.229,0,0,9.542,14.982,3.741,32.571a72.062,72.062,0,0,0-10.95,1.658c-4.98,1.26-21.424,2.3-25.864,2.387,0,0,5.924,4.65,6.2,6.657,0,0-7.255-.724-13.184.912s-35.884,2.045-40.823-25.8,39.82-64.584,39.82-64.584" transform="translate(-1154.741 -1921.424)" fill="#ffac48"/>
      </g>
    </g>
    <g id="Grupo_3933" data-name="Grupo 3933" transform="translate(321.141 391.61)">
      <g id="Grupo_3932" data-name="Grupo 3932" clip-path="url(#clip-path-4)">
        <rect id="Rectángulo_607" data-name="Rectángulo 607" width="39.287" height="41.209" transform="translate(-16.054 11.984) rotate(-36.741)" fill="url(#linear-gradient-2)"/>
      </g>
    </g>
    <g id="Grupo_3935" data-name="Grupo 3935" transform="translate(0 0)">
      <g id="Grupo_3934" data-name="Grupo 3934" clip-path="url(#clip-path)">
        <path id="Trazado_8024" data-name="Trazado 8024" d="M2151.782,2632.778c-1.845,0-5.587-.682-11.852-4.6-8.811-5.514-11.1-14.183-11.462-20.484a29.381,29.381,0,0,0-1.909-8.765,2.079,2.079,0,0,1,2.422-2.829c12.308,3.126,15.378,15.614,17.028,22.324,1.581,6.425,7.571,10.44,7.631,10.48a2.078,2.078,0,0,1-.542,3.722,4.658,4.658,0,0,1-1.317.156m-20.037-31.15a33.633,33.633,0,0,1,.872,5.821c.308,5.324,2.21,12.63,9.517,17.2,1.2.753,2.284,1.365,3.25,1.861a20.264,20.264,0,0,1-3.408-7.1c-1.689-6.869-4.021-14.267-10.231-17.784" transform="translate(-1807.33 -2206.499)" fill="#371a45"/>
      </g>
    </g>
    <g id="Grupo_3937" data-name="Grupo 3937" transform="translate(325.791 442.701)">
      <g id="Grupo_3936" data-name="Grupo 3936" clip-path="url(#clip-path-6)">
        <rect id="Rectángulo_609" data-name="Rectángulo 609" width="45.831" height="46.089" transform="matrix(0.65, -0.76, 0.76, 0.65, -15.524, 18.151)" fill="url(#linear-gradient-3)"/>
      </g>
    </g>
    <g id="Grupo_3985" data-name="Grupo 3985" transform="translate(0 0)">
      <g id="Grupo_3984" data-name="Grupo 3984" clip-path="url(#clip-path)">
        <path id="Trazado_8026" data-name="Trazado 8026" d="M2192.982,2971.836c-1.728,0-10.059-.288-16.435-5.6-1.492-1.244-2.89-2.52-4.241-3.754-4.418-4.031-8.234-7.514-12.957-7.767a2.077,2.077,0,0,1-.368-4.1,37.852,37.852,0,0,1,13.615-.487,37.055,37.055,0,0,0-4.174-10.458,2.078,2.078,0,0,1,2.809-2.875c.547.311,13.438,7.739,16.94,18.2.675,2.015,1.2,3.7,1.667,5.181,1.769,5.641,2.168,6.734,4.251,7.683a2.077,2.077,0,0,1-.8,3.967c-.036,0-.141,0-.309,0m-24.508-17.962a63.442,63.442,0,0,1,6.634,5.537c1.317,1.2,2.68,2.446,4.1,3.63a20.384,20.384,0,0,0,8.653,4.033,50.023,50.023,0,0,1-1.988-5.65c-.46-1.466-.98-3.127-1.643-5.1-1.533-4.582-5.411-8.624-8.847-11.489a37.588,37.588,0,0,1,1.908,7.93,2.077,2.077,0,0,1-2.778,2.158,19.825,19.825,0,0,0-6.039-1.045" transform="translate(-1833.669 -2495.903)" fill="#371a45"/>
        <path id="Trazado_8027" data-name="Trazado 8027" d="M1325.66,2672.9s2.322-5.188-.057-9.745-7.683-1.289-7.683-1.289l-6.457,4.8.975,5.139Z" transform="translate(-1114.679 -2261.489)" fill="#b2b2b2"/>
        <path id="Trazado_8028" data-name="Trazado 8028" d="M1649.49,2229.866s-4.169,3.863-9.247,3.072-3.686-6.864-3.686-6.864l2.474-7.655,5.18-.726Z" transform="translate(-1390.844 -1884.93)" fill="#b2b2b2"/>
        <path id="Trazado_8029" data-name="Trazado 8029" d="M1313.893,2663.208c-.057,0-.114,0-.172-.007l-13.222-1.094a2.078,2.078,0,0,1-1.87-1.683l-.975-5.139a2.079,2.079,0,0,1,.8-2.055l6.457-4.8c.048-.036.1-.07.15-.1.351-.217,3.517-2.085,6.7-1.212a6.292,6.292,0,0,1,3.918,3.309c2.812,5.386.223,11.3.111,11.554a2.076,2.076,0,0,1-1.9,1.229m-11.476-5.113,10.021.83a9.4,9.4,0,0,0-.445-6.578,2.113,2.113,0,0,0-1.328-1.222,5.276,5.276,0,0,0-3.364.706l-5.323,3.956Z" transform="translate(-1102.91 -2249.722)" fill="#371a45"/>
        <path id="Trazado_8030" data-name="Trazado 8030" d="M1264.36,1468.477l42.438-29.5s14.635-7.022,22.165.343,33.305,45.874,33.305,45.874-22.626-14.06-40.1-15.722-39.776,20.819-39.776,20.819" transform="translate(-1074.644 -1220.492)" fill="#ff2929"/>
        <g id="Grupo_3940" data-name="Grupo 3940" transform="translate(189.716 215.465)" opacity="0.25">
          <g id="Grupo_3939" data-name="Grupo 3939">
            <g id="Grupo_3938" data-name="Grupo 3938" clip-path="url(#clip-path-8)">
              <path id="Trazado_8031" data-name="Trazado 8031" d="M1264.36,1468.477l42.438-29.5s14.635-7.022,22.165.343,33.305,45.874,33.305,45.874-22.626-14.06-40.1-15.722-39.776,20.819-39.776,20.819" transform="translate(-1264.36 -1435.956)" fill="#371a45"/>
            </g>
          </g>
        </g>
        <path id="Trazado_8032" data-name="Trazado 8032" d="M1270.62,1480.586a2.077,2.077,0,0,1-1.475-3.54c.939-.947,23.179-23.173,41.448-21.424,11.519,1.1,24.951,7.268,33.223,11.628-7.844-11.5-22.773-33.039-28.077-38.227-6.041-5.909-18.237-.668-19.677-.018l-42.289,29.4a2.077,2.077,0,0,1-2.371-3.412l42.438-29.5a2.108,2.108,0,0,1,.286-.167c.651-.312,16.044-7.556,24.517.731,7.6,7.431,32.521,44.624,33.578,46.2a2.077,2.077,0,0,1-2.822,2.92c-.223-.138-22.422-13.822-39.2-15.419-16.319-1.545-37.888,20-38.1,20.214a2.07,2.07,0,0,1-1.475.614" transform="translate(-1062.873 -1208.709)" fill="#371a45"/>
        <path id="Trazado_8033" data-name="Trazado 8033" d="M1326.679,1484.512l46.12-38.539s5.816-1.33,11.947,3.593c6.521,5.239,24.892,24.793,28.658,34.136,1.037,2.571,1.831,9.867,1.831,9.867s-11.4-9.785-18.805-15.246-10.978-7.509-12.621-4.149c-1.724,3.524-22.181,56.332-22.372,61.932s-34.759-51.593-34.759-51.593" transform="translate(-1127.612 -1228.866)" fill="#f75252"/>
        <path id="Trazado_8034" data-name="Trazado 8034" d="M1326.692,1484.523s19.113,31.619,28.987,45.539c3.407,4.8,5.72,7.492,5.768,6.059.194-5.6,20.65-58.412,22.375-61.937,1.641-3.358,5.214-1.308,12.617,4.149s18.808,15.248,18.808,15.248-.8-7.3-1.828-9.868c-3.767-9.341-22.139-28.9-28.662-34.132-6.129-4.923-11.946-3.594-11.946-3.594l-2.479,2.07Z" transform="translate(-1127.623 -1228.879)" fill="#ff2929"/>
        <g id="Grupo_3943" data-name="Grupo 3943" transform="translate(199.069 216.944)" opacity="0.7">
          <g id="Grupo_3942" data-name="Grupo 3942">
            <g id="Grupo_3941" data-name="Grupo 3941" clip-path="url(#clip-path-9)">
              <path id="Trazado_8035" data-name="Trazado 8035" d="M1326.692,1484.523s.381.638,1.073,1.767l41.071-34.32,2.479-2.071s5.817-1.329,11.945,3.594c6.523,5.235,24.9,24.791,28.662,34.132a23.384,23.384,0,0,1,.977,3.961c1.447,1.226,2.347,1.994,2.347,1.994s-.8-7.3-1.828-9.868c-3.767-9.341-22.139-28.9-28.662-34.132-6.129-4.923-11.946-3.594-11.946-3.594l-2.479,2.07Z" transform="translate(-1326.692 -1445.823)" fill="#fff"/>
            </g>
          </g>
        </g>
        <g id="Grupo_3946" data-name="Grupo 3946" transform="translate(199.069 219.178)" opacity="0.25">
          <g id="Grupo_3945" data-name="Grupo 3945">
            <g id="Grupo_3944" data-name="Grupo 3944" clip-path="url(#clip-path-10)">
              <path id="Trazado_8036" data-name="Trazado 8036" d="M1326.692,1497.174s19.113,31.619,28.987,45.538c7.59-17.043,20.338-50.393,14.653-82Z" transform="translate(-1326.692 -1460.708)" fill="#371a45"/>
            </g>
          </g>
        </g>
        <path id="Trazado_8037" data-name="Trazado 8037" d="M1349.266,1526.868c-1.761,0-4.668-2.817-19.85-26.741-8.219-12.951-16.206-26.159-16.286-26.291a2.078,2.078,0,0,1,.446-2.669l46.12-38.54a2.075,2.075,0,0,1,.869-.431c.278-.063,6.875-1.491,13.711,4,6.7,5.38,25.338,25.191,29.285,34.979,1.112,2.758,1.885,9.643,1.969,10.418a2.078,2.078,0,0,1-3.419,1.8c-.113-.1-11.428-9.8-18.685-15.151-2.319-1.71-7.754-5.711-9.186-5.363-.077.019-.215.206-.337.454-2.352,4.808-22,56.263-22.161,61.089a2.377,2.377,0,0,1-1.739,2.319,2.877,2.877,0,0,1-.739.125m-31.657-53.656c11.972,19.753,25.409,40.874,30.694,47.582,3.715-13.7,20.707-56.909,21.869-59.284a4.628,4.628,0,0,1,3.08-2.664c2.845-.693,6.2,1.3,12.641,6.054,4.584,3.381,10.731,8.443,14.759,11.817a23.341,23.341,0,0,0-.944-3.989c-3.644-9.038-21.767-28.259-28.033-33.293a13.418,13.418,0,0,0-9.753-3.251Z" transform="translate(-1115.841 -1217.116)" fill="#371a45"/>
        <path id="Trazado_8038" data-name="Trazado 8038" d="M1206.171,758.5l2.112,12.449,1.073,6.342,18.532,109.358s7.223-1.717,16.728-4.815c1.859-.606,3.807-1.264,5.8-1.973,14.884-5.272,32.55-13.335,37.624-23.118,7.583-14.63-4.867-73.479-19.864-94.255-6.872-9.526-29.8-8.6-45.765-6.635-1.785.216-3.484.45-5.061.685-6.652.98-11.182,1.961-11.182,1.961" transform="translate(-1025.186 -641.352)" fill="#fff"/>
        <g id="Grupo_3949" data-name="Grupo 3949" transform="translate(183.098 125.077)" opacity="0.2">
          <g id="Grupo_3948" data-name="Grupo 3948">
            <g id="Grupo_3947" data-name="Grupo 3947" clip-path="url(#clip-path-11)">
              <path id="Trazado_8039" data-name="Trazado 8039" d="M1220.246,838.093l1.073,6.342,14.715,86.831,3.818,22.527.437-.107c.08-.021.178-.046.28-.071l.264-.067c.071-.015.14-.035.211-.05.026-.009.06-.013.086-.022.13-.034.275-.069.426-.111a.861.861,0,0,0,.1-.025c.124-.033.253-.066.394-.1.189-.047.383-.1.586-.154.145-.041.3-.078.458-.12l.49-.131c.21-.055.43-.118.656-.175.457-.126.941-.256,1.451-.4.451-.12.924-.254,1.418-.4.569-.163,1.165-.331,1.782-.511,2.28-.666,4.883-1.458,7.688-2.372.544-.177,1.1-.361,1.661-.547.39-.13.79-.265,1.19-.4.966-.328,1.958-.67,2.953-1.024,14.89-5.273,32.55-13.334,37.618-23.117,6.248-12.046-1.085-54.077-12.251-80.145,6.538,23.474,9.547,49.573,4.837,58.651-2.328,4.489-17.98-5.8-19.446-13.476-3.778-19.786-12.437-44.374-33.475-55.332-.546-.285-10.6,3.451-19.419,4.508" transform="translate(-1220.247 -833.569)" fill="#371a45"/>
            </g>
          </g>
        </g>
        <path id="Trazado_8040" data-name="Trazado 8040" d="M1207.681,874.015l-22.65-133.674,2.586-.561c5.414-1.174,53.234-11.01,64.841,5.07,7.157,9.913,14.384,29.257,18.863,50.484,1.724,8.171,6.907,35.684,1.212,46.671-9.7,18.713-59.846,30.82-61.976,31.326Zm-16.3-129.353,20.767,122.563c15.536-4.03,48.825-14.96,55.467-27.77,7.053-13.608-5.433-71.67-19.649-91.363-7.589-10.511-41.247-6.426-56.585-3.431" transform="translate(-1007.218 -625.335)" fill="#371a45"/>
        <path id="Trazado_8041" data-name="Trazado 8041" d="M1579.648,1132.647l-20.444,6.3a4.268,4.268,0,0,0-2.979,4.256c.268,7.129,1.724,23.563,9.388,27.365,6.361,3.156,15.042.655,19.23-4.967,4.685-6.289,1.86-22.09.089-29.829a4.177,4.177,0,0,0-5.285-3.121" transform="translate(-1322.712 -962.539)" fill="#fff"/>
        <g id="Grupo_3952" data-name="Grupo 3952" transform="translate(233.511 179.087)" opacity="0.2">
          <g id="Grupo_3951" data-name="Grupo 3951">
            <g id="Grupo_3950" data-name="Grupo 3950" clip-path="url(#clip-path-12)">
              <path id="Trazado_8042" data-name="Trazado 8042" d="M1556.232,1195.1c.264,7.128,1.724,23.561,9.388,27.362,6.363,3.158,15.041.656,19.232-4.967,2.878-3.869,2.919-11.336,2.111-18.309a18.561,18.561,0,0,1-2.508,8.951c-8.229,12.775-18.7,2.275-18.7,2.275s-.714,3.286-1.76,3.7c-4.371,1.729-6.564-12.958-7.527-20.585a4.212,4.212,0,0,0-.234,1.575" transform="translate(-1556.229 -1193.524)" fill="#371a45"/>
            </g>
          </g>
        </g>
        <path id="Trazado_8043" data-name="Trazado 8043" d="M1556.082,1159.038a16.6,16.6,0,0,1-7.39-1.665c-8.7-4.314-10.577-20.486-10.925-29.742a7.045,7.045,0,0,1,4.931-7.007l20.445-6.3a6.908,6.908,0,0,1,5.469.619,7.06,7.06,0,0,1,3.331,4.531c2.5,10.939,4.435,25.387-.568,32.1a19.347,19.347,0,0,1-15.293,7.458m8.691-39.415-20.444,6.3a1.5,1.5,0,0,0-1.026,1.5c.5,13.257,3.507,22.832,7.851,24.987,5.025,2.491,12.249.6,15.778-4.14,2.833-3.8,2.687-14.1-.389-27.556a1.48,1.48,0,0,0-.7-.969,1.332,1.332,0,0,0-1.069-.122Z" transform="translate(-1307.021 -946.867)" fill="#371a45"/>
        <path id="Trazado_8044" data-name="Trazado 8044" d="M1614.589,1243.309c.03.012-.017,0-.066-.01a1.046,1.046,0,0,1-.143-.037c-.108-.036-.211-.056-.325-.1-.226-.079-.456-.166-.688-.274a10.864,10.864,0,0,1-1.376-.727,14.192,14.192,0,0,1-2.553-2,20.084,20.084,0,0,1-3.959-5.529l-.726-1.6c-.248-.535-.417-1.105-.632-1.658-.425-1.1-.756-2.3-1.091-3.46s-.613-2.348-.836-3.532c-.109-.591-.209-1.186-.28-1.777a13.086,13.086,0,0,1-.111-1.706v-.08a.73.73,0,0,0-1.452-.116,13.8,13.8,0,0,0-.114,2c0,.644.036,1.281.078,1.917.091,1.271.247,2.529.443,3.778s.4,2.479.719,3.737c.161.625.277,1.262.479,1.881l.6,1.864a23.718,23.718,0,0,0,3.892,6.991,18.518,18.518,0,0,0,2.964,2.938,15.651,15.651,0,0,0,1.777,1.224c.312.19.641.366.983.532.164.087.357.163.535.243.087.04.191.08.294.119s.2.076.377.128a2.445,2.445,0,1,0,1.21-4.738" transform="translate(-1360.123 -1036.996)" fill="#371a45"/>
        <path id="Trazado_8045" data-name="Trazado 8045" d="M1400.257,790.478c2.477-.72,5.01-1.385,7.53-2.007s5.057-1.2,7.593-1.7,5.076-.959,7.6-1.271a49.888,49.888,0,0,1,7.429-.474h.013a2.773,2.773,0,0,0,.156-5.543c-.08,0-.163,0-.241,0a54.882,54.882,0,0,0-8.185,1.216c-2.642.56-5.217,1.255-7.773,1.992s-5.078,1.544-7.583,2.391-4.983,1.733-7.47,2.693a1.429,1.429,0,0,0,.907,2.706Z" transform="translate(-1188.581 -662.522)" fill="#371a45"/>
        <path id="Trazado_8046" data-name="Trazado 8046" d="M1962.537,509a8.537,8.537,0,0,0-1.631-2.751,21.657,21.657,0,0,0,1.631,2.751" transform="translate(-1666.673 -430.289)" fill="#d8d8d8"/>
        <path id="Trazado_8047" data-name="Trazado 8047" d="M1190.551,466.455s65.623-63.405,111.714-74.871c11.967-2.976,26.578-7.48,27.182,4.847,5.893,4.57,9.938,16.542,6.57,23.7-2.649,5.629-10.536,7.8-18.741,13.244s-65.252,41.351-91.877,81.456" transform="translate(-1011.91 -330.009)" fill="#fff"/>
        <path id="Trazado_8048" data-name="Trazado 8048" d="M1190.564,466.444l28.783,39.95,6.064,8.421c.21-.315.42-.622.638-.938,26.869-39.726,83.1-75.121,91.235-80.517,8.211-5.442,16.1-7.618,18.748-13.246,2.552-5.426.841-13.623-2.7-19.259a17.239,17.239,0,0,0-3.873-4.436c-.6-12.331-15.213-7.828-27.184-4.848-46.09,11.468-111.709,74.873-111.709,74.873" transform="translate(-1011.921 -329.996)" fill="#fff"/>
        <g id="Grupo_3955" data-name="Grupo 3955" transform="translate(183.302 102.494)" opacity="0.2">
          <g id="Grupo_3954" data-name="Grupo 3954">
            <g id="Grupo_3953" data-name="Grupo 3953" clip-path="url(#clip-path-13)">
              <path id="Trazado_8049" data-name="Trazado 8049" d="M1221.607,713.107l10.817,15.013c14.078-10.727,23.288-26.868,24.029-45.046-20.1,15.8-34.846,30.033-34.846,30.033" transform="translate(-1221.608 -683.073)" fill="#371a45"/>
            </g>
          </g>
        </g>
        <path id="Trazado_8050" data-name="Trazado 8050" d="M788.532,867.915a67.757,67.757,0,0,0,34.853,9.508c1.032,0,2.05-.021,3.068-.069l-.623-34.645a281.314,281.314,0,0,0-37.3,25.206" transform="translate(-670.213 -716.261)" fill="#e5e5e5"/>
        <path id="Trazado_8051" data-name="Trazado 8051" d="M908.788,823.032a68.673,68.673,0,0,0,15.408,1.731c24.846,0,46.431-13.074,57.379-32.3-11.973-8.8-30.372-17.056-50.711-7.326-27.838,13.33-24.694,30.954-22.076,37.893" transform="translate(-771.024 -663.601)" fill="#d8d8d8"/>
        <g id="Grupo_3958" data-name="Grupo 3958" transform="translate(195.459 70.859)" opacity="0.2">
          <g id="Grupo_3957" data-name="Grupo 3957">
            <g id="Grupo_3956" data-name="Grupo 3956" clip-path="url(#clip-path-14)">
              <path id="Trazado_8052" data-name="Trazado 8052" d="M1302.632,563.8l18.032,22.4c.21-.315.42-.622.638-.937,26.869-39.726,83.1-75.121,91.234-80.517,8.211-5.441,16.1-7.618,18.748-13.246,2.552-5.426.841-13.623-2.7-19.259-3.28,5.959-7.1,13.337-11.123,14.553-7.055,2.124-12.031-3.2-14.425-6.7,2.131,5.441.87,18.343-28.2,40.994-33.789,26.306-53.449,38.789-72.2,42.715" transform="translate(-1302.632 -472.241)" fill="#371a45"/>
            </g>
          </g>
        </g>
        <path id="Trazado_8053" data-name="Trazado 8053" d="M1209.7,501.873a2.77,2.77,0,0,1-2.306-4.3c11.609-17.487,36.794-45.742,90.844-81.045.746-.488,1.355-.885,1.81-1.187,2.815-1.866,5.6-3.367,8.063-4.692,4.647-2.5,8.317-4.479,9.7-7.423,2.817-5.986-.858-16.527-5.761-20.33a2.769,2.769,0,0,1-1.069-2.053c-.154-3.144-1.4-4.061-1.8-4.363-3.506-2.594-12.5-.318-19.728,1.51q-1.119.283-2.216.558c-44.835,11.154-109.808,73.547-110.458,74.176a2.77,2.77,0,1,1-3.849-3.984c2.7-2.61,66.691-64.054,112.971-75.568q1.085-.27,2.194-.552c9.225-2.334,18.765-4.749,24.381-.593a10.2,10.2,0,0,1,3.935,7.306c6.157,5.643,10.293,18.013,6.416,26.252-2.163,4.6-6.763,7.074-12.089,9.942-2.471,1.33-5.025,2.706-7.629,4.432-.464.308-1.083.712-1.843,1.208-53.261,34.788-77.936,62.418-89.257,79.471a2.768,2.768,0,0,1-2.31,1.238" transform="translate(-996.216 -314.282)" fill="#371a45"/>
        <path id="Trazado_8054" data-name="Trazado 8054" d="M1783.765,365.012s4.416-20.41,13.649-19.011c6.511.986,4.957,11.929,5.622,15,.405.979,6.074,2.584,12.532,18" transform="translate(-1516.112 -294.025)" fill="#fff"/>
        <path id="Trazado_8055" data-name="Trazado 8055" d="M1770.847,348.422c.2-.738.452-1.589.708-2.381s.521-1.608.807-2.4a48.413,48.413,0,0,1,1.9-4.619,25.184,25.184,0,0,1,2.36-4.1,9.069,9.069,0,0,1,2.79-2.715,3.043,3.043,0,0,1,1.944-.386,2.4,2.4,0,0,1,.535.143,1.821,1.821,0,0,1,.819.666,5.26,5.26,0,0,1,.743,1.526,19.5,19.5,0,0,1,.776,4.522c.065.832.1,1.692.152,2.592.024.451.048.914.089,1.411a12.425,12.425,0,0,0,.235,1.726l.011.051a2.377,2.377,0,0,0,.137.424,3.8,3.8,0,0,0,.276.515l.08.12.053.069.108.135a3.5,3.5,0,0,0,.364.38,5.809,5.809,0,0,0,.454.375l.606.44c.354.253.672.49.989.742a22.061,22.061,0,0,1,1.81,1.645,34.868,34.868,0,0,1,3.308,3.925c1.028,1.42,2.028,2.9,2.967,4.437.961,1.527,1.861,3.108,2.8,4.69l0,.008a1.4,1.4,0,0,0,2.55-1.078,49.247,49.247,0,0,0-1.839-5.4,44.629,44.629,0,0,0-2.525-5.212,31.7,31.7,0,0,0-3.405-4.908,22.685,22.685,0,0,0-2.176-2.217c-.39-.347-.8-.684-1.181-.99l-.5-.4c-.064-.052-.1-.094-.078-.073a1.1,1.1,0,0,1,.125.13l.053.068.082.117a1.872,1.872,0,0,1,.19.364l.149.474a8.694,8.694,0,0,1-.073-.915l-.032-1.246c-.014-.872-.022-1.786-.061-2.725a24.55,24.55,0,0,0-.851-5.969,11.191,11.191,0,0,0-1.55-3.249,7.882,7.882,0,0,0-3.229-2.681,8.331,8.331,0,0,0-2.01-.6,9.3,9.3,0,0,0-2-.11,9.174,9.174,0,0,0-3.768,1.093,14.715,14.715,0,0,0-4.879,4.532,31.113,31.113,0,0,0-2.879,5.142,49.7,49.7,0,0,0-1.973,5.289q-.409,1.337-.759,2.685c-.227.915-.427,1.78-.619,2.772a2.77,2.77,0,0,0,5.393,1.253Z" transform="translate(-1500.487 -276.849)" fill="#371a45"/>
        <path id="Trazado_8056" data-name="Trazado 8056" d="M1578.123,637.484a2.072,2.072,0,0,1-.809-.164c-22.559-9.545-31.006-42.017-31.355-43.4a2.078,2.078,0,0,1,4.028-1.02c.081.318,8.3,31.853,28.946,40.589a2.078,2.078,0,0,1-.81,3.991" transform="translate(-1313.934 -502.609)" fill="#371a45"/>
        <path id="Trazado_8057" data-name="Trazado 8057" d="M600.216,842.7s-56.13,30.381-77.126,69.582l33.3,14.017s20.2-22.907,44.787-30.211" transform="translate(-444.601 -716.256)" fill="#fff"/>
        <path id="Trazado_8058" data-name="Trazado 8058" d="M523.072,912.291l23.129,9.736,10.173,4.279s20.2-22.907,44.783-30.213l-.326-18.1L600.2,842.71s-56.134,30.379-77.13,69.581" transform="translate(-444.585 -716.262)" fill="#fff"/>
        <g id="Grupo_3961" data-name="Grupo 3961" transform="translate(101.616 158.799)" opacity="0.2">
          <g id="Grupo_3960" data-name="Grupo 3960">
            <g id="Grupo_3959" data-name="Grupo 3959" clip-path="url(#clip-path-15)">
              <path id="Trazado_8059" data-name="Trazado 8059" d="M677.217,1105.281l10.173,4.28s20.2-22.907,44.783-30.213c0,0-8.533-33.255-17.336-16.133s-19.944,18.577-37.619,42.066" transform="translate(-677.217 -1058.314)" fill="#371a45"/>
            </g>
          </g>
        </g>
        <g id="Grupo_3964" data-name="Grupo 3964" transform="translate(118.319 126.448)" opacity="0.2">
          <g id="Grupo_3963" data-name="Grupo 3963">
            <g id="Grupo_3962" data-name="Grupo 3962" clip-path="url(#clip-path-16)">
              <path id="Trazado_8060" data-name="Trazado 8060" d="M788.532,867.915a67.757,67.757,0,0,0,34.853,9.508c1.032,0,2.05-.021,3.068-.069l-.623-34.645a281.314,281.314,0,0,0-37.3,25.206" transform="translate(-788.532 -842.709)" fill="#371a45"/>
            </g>
          </g>
        </g>
        <path id="Trazado_8061" data-name="Trazado 8061" d="M544.618,916.6a2.075,2.075,0,0,1-.805-.163l-33.3-14.017a2.078,2.078,0,0,1-1.026-2.9c21.049-39.3,75.655-69.175,77.969-70.428a2.077,2.077,0,0,1,1.978,3.654c-.547.3-53.911,29.5-75.178,66.737l29.816,12.551c4.455-4.77,22.7-23.172,44.741-29.719A2.077,2.077,0,1,1,590,886.307c-23.709,7.043-43.622,29.369-43.821,29.594a2.078,2.078,0,0,1-1.558.7" transform="translate(-432.832 -704.481)" fill="#371a45"/>
        <path id="Trazado_8062" data-name="Trazado 8062" d="M684.067,1136.5a2.077,2.077,0,0,1-1.9-1.243c-.1-.234-10.528-23.455-28.778-24.008a2.077,2.077,0,1,1,.126-4.153c20.888.633,31.994,25.436,32.456,26.492a2.078,2.078,0,0,1-1.9,2.912" transform="translate(-553.634 -940.973)" fill="#371a45"/>
        <path id="Trazado_8063" data-name="Trazado 8063" d="M941.271,805.8c6.34,10.182,21.342,40.3,19.924,66.8-.911,17.022-7.7,23.013-20.232,31.936-35.09,24.989-98-30.55-98-30.55s9.181-13.658,11.02-23.894c1.01-5.619,2.581-10.6,1.647-24.081,0,0-14.736-23.92,20.689-40.875S941.271,805.8,941.271,805.8" transform="translate(-716.477 -663.593)" fill="#fff"/>
        <path id="Trazado_8064" data-name="Trazado 8064" d="M842.944,873.981s62.912,55.537,98,30.546c12.534-8.919,19.32-14.909,20.234-31.931a79.538,79.538,0,0,0-.935-16.259c-3.338-21.564-13.926-42.408-18.988-50.538,0,0-29.528-37.623-64.955-20.671s-20.685,40.878-20.685,40.878c.934,13.483-.637,18.462-1.648,24.078a39.389,39.389,0,0,1-2.238,7.4,101.748,101.748,0,0,1-8.787,16.495" transform="translate(-716.461 -663.59)" fill="#fff"/>
        <g id="Grupo_3967" data-name="Grupo 3967" transform="translate(126.483 192.746)" opacity="0.2">
          <g id="Grupo_3966" data-name="Grupo 3966">
            <g id="Grupo_3965" data-name="Grupo 3965" clip-path="url(#clip-path-17)">
              <path id="Trazado_8065" data-name="Trazado 8065" d="M842.944,1302.2s62.912,55.537,98,30.546c12.534-8.919,19.32-14.909,20.234-31.931a79.538,79.538,0,0,0-.935-16.26c-25.494,12.007-88.564,14.662-108.513,1.15a101.753,101.753,0,0,1-8.787,16.495" transform="translate(-842.944 -1284.553)" fill="#371a45"/>
            </g>
          </g>
        </g>
        <g id="Grupo_3970" data-name="Grupo 3970" transform="translate(136.116 117.151)" opacity="0.2">
          <g id="Grupo_3969" data-name="Grupo 3969">
            <g id="Grupo_3968" data-name="Grupo 3968" clip-path="url(#clip-path-18)">
              <path id="Trazado_8066" data-name="Trazado 8066" d="M908.788,823.032a68.673,68.673,0,0,0,15.408,1.731c24.846,0,46.431-13.074,57.379-32.3-11.973-8.8-30.372-17.056-50.711-7.326-27.838,13.33-24.694,30.954-22.076,37.893" transform="translate(-907.14 -780.752)" fill="#371a45"/>
            </g>
          </g>
        </g>
        <path id="Trazado_8067" data-name="Trazado 8067" d="M924.342,940.922c2.17,3.94,4.1,8.052,5.909,12.191s3.421,8.37,4.928,12.617c1.479,4.257,2.8,8.562,3.861,12.913,1.113,4.337,2.061,8.7,2.778,13.082a74.471,74.471,0,0,1,.924,13.2,43.81,43.81,0,0,1-1.911,12.706,26.115,26.115,0,0,1-6.549,10.451,80.841,80.841,0,0,1-10.3,8.313,31.446,31.446,0,0,1-11.422,5.224,41.529,41.529,0,0,1-12.783.835,65.7,65.7,0,0,1-12.913-2.446,100.655,100.655,0,0,1-12.538-4.577,164.388,164.388,0,0,1-23.625-12.977q-5.668-3.7-11.11-7.754c-3.609-2.69-7.208-5.516-10.551-8.4l.465,3.622a81.993,81.993,0,0,0,6.626-11.231c.947-1.964,1.836-3.969,2.6-6.05a41.961,41.961,0,0,0,1.867-6.49c.226-1.2.347-2.15.523-3.2s.331-2.1.479-3.183a54.182,54.182,0,0,0,.524-6.556,77.721,77.721,0,0,0-.866-12.91,1.389,1.389,0,0,0-2.764.181v.01a114.837,114.837,0,0,1-.643,12.416c-.251,2.029-.607,4.014-1.04,6.014l-1.4,6.067a58.97,58.97,0,0,1-4.516,11.1c-.92,1.827-1.9,3.634-2.906,5.43s-2.06,3.6-3.084,5.308l-.022.033a2.736,2.736,0,0,0,.487,3.588c3.582,3.093,7.187,5.916,10.91,8.695q5.572,4.145,11.391,7.95a169.748,169.748,0,0,0,24.433,13.413,106.136,106.136,0,0,0,13.227,4.824,71.145,71.145,0,0,0,14.006,2.645,47.027,47.027,0,0,0,14.49-.967A37.042,37.042,0,0,0,927.2,1040.9a85.715,85.715,0,0,0,11.016-8.924,34.126,34.126,0,0,0,4.668-5.8,30.445,30.445,0,0,0,3.2-6.8,49.2,49.2,0,0,0,2.192-14.328c.043-2.379,0-4.755-.18-7.112-.149-2.362-.416-4.706-.74-7.036a91.513,91.513,0,0,0-2.979-13.734c-1.35-4.474-2.952-8.85-4.708-13.149s-3.751-8.49-5.886-12.6q-1.6-3.085-3.367-6.077c-1.178-2-2.4-3.966-3.726-5.887a1.387,1.387,0,0,0-2.359,1.451Z" transform="translate(-700.724 -797.984)" fill="#371a45"/>
        <path id="Trazado_8068" data-name="Trazado 8068" d="M999.325,1211.611l-49.25,1.667a5.99,5.99,0,0,1-6.171-5.767l-1.05-31.015a5.99,5.99,0,0,1,5.767-6.172l49.25-1.666a5.989,5.989,0,0,1,6.171,5.766l1.05,31.015a5.99,5.99,0,0,1-5.767,6.171" transform="translate(-801.378 -993.299)" fill="#fff"/>
        <path id="Trazado_8069" data-name="Trazado 8069" d="M1004.581,1203.953l.369,10.915a5,5,0,0,1-4.815,5.152l-51.224,1.734a5,5,0,0,1-5.147-4.816l-1.116-32.987a5,5,0,0,1,4.809-5.152l6.266-.212.747,22.072a5,5,0,0,0,5.153,4.815Z" transform="translate(-801.201 -1001.741)" fill="#e5e5e5"/>
        <path id="Trazado_8070" data-name="Trazado 8070" d="M934.179,1200.366a8.762,8.762,0,0,1-8.733-8.447L924.4,1160.9a8.76,8.76,0,0,1,8.442-9.033l49.249-1.666a8.759,8.759,0,0,1,9.033,8.441l1.05,31.015a8.754,8.754,0,0,1-8.441,9.034h0l-49.25,1.667c-.1,0-.2.005-.3.005m49.456-4.44h0Zm-1.25-40.186-.109,0-49.25,1.666a3.221,3.221,0,0,0-3.093,3.309l1.05,31.015a3.221,3.221,0,0,0,3.309,3.093l49.248-1.667a3.207,3.207,0,0,0,3.093-3.31l-1.049-31.015a3.22,3.22,0,0,0-3.2-3.093" transform="translate(-785.688 -977.614)" fill="#371a45"/>
        <path id="Trazado_8071" data-name="Trazado 8071" d="M959.088,1213.908l-46.983,1.59a4.155,4.155,0,0,1-4.293-4.012l-1.172-34.648a4.153,4.153,0,0,1,4.012-4.293l46.982-1.591a4.155,4.155,0,0,1,4.294,4.012l1.172,34.648a4.155,4.155,0,0,1-4.012,4.293" transform="translate(-770.597 -995.251)" fill="#fff"/>
        <path id="Trazado_8072" data-name="Trazado 8072" d="M906.724,1177.292l1.145,33.863a4.546,4.546,0,0,0,4.7,4.391l46.2-1.563a4.542,4.542,0,0,0,4.392-4.7l-1.146-33.863a4.546,4.546,0,0,0-4.7-4.391l-46.2,1.563a4.551,4.551,0,0,0-4.392,4.7" transform="translate(-770.668 -995.315)" fill="#fff"/>
        <g id="Grupo_3973" data-name="Grupo 3973" transform="translate(136.907 197.3)" opacity="0.2">
          <g id="Grupo_3972" data-name="Grupo 3972">
            <g id="Grupo_3971" data-name="Grupo 3971" clip-path="url(#clip-path-19)">
              <path id="Trazado_8073" data-name="Trazado 8073" d="M912.413,1324.743l.294,8.7a4.546,4.546,0,0,0,4.7,4.391l45.757-1.548a5,5,0,0,0,4.816-5.153l-.469-13.841c-.007.016-.014.024-.021.039-5.558,8.568-8.046-2.428-8.046-2.428l-14.515.491s-.015,12.765-13.813,14.051a29.054,29.054,0,0,1-18.7-4.7" transform="translate(-912.413 -1314.9)" fill="#371a45"/>
            </g>
          </g>
        </g>
        <path id="Trazado_8074" data-name="Trazado 8074" d="M896.271,1202.577a6.924,6.924,0,0,1-6.916-6.693l-1.172-34.646a6.923,6.923,0,0,1,6.688-7.155l46.981-1.591a6.935,6.935,0,0,1,7.155,6.687l1.172,34.648a6.923,6.923,0,0,1-6.686,7.155l-46.982,1.59q-.12,0-.24,0m45.815-44.548h-.048l-46.981,1.591a1.383,1.383,0,0,0-1.338,1.43l1.173,34.648a1.379,1.379,0,0,0,.438.965,1.339,1.339,0,0,0,.993.373l46.983-1.59a1.385,1.385,0,0,0,1.336-1.431l-1.172-34.648a1.388,1.388,0,0,0-1.385-1.339" transform="translate(-754.908 -979.558)" fill="#371a45"/>
        <path id="Trazado_8075" data-name="Trazado 8075" d="M961.786,1180.6l.418,12.355a10.546,10.546,0,0,0,4.417,8.229,10.539,10.539,0,0,1,4.417,8.227l.469,13.862" transform="translate(-817.471 -1003.455)" fill="#fff"/>
        <path id="Trazado_8076" data-name="Trazado 8076" d="M959.737,1213.588a2.078,2.078,0,0,1-2.075-2.008l-.468-13.862a8.513,8.513,0,0,0-3.547-6.605,12.7,12.7,0,0,1-5.288-9.85l-.418-12.355a2.078,2.078,0,1,1,4.153-.141l.418,12.355a8.518,8.518,0,0,0,3.547,6.608,12.69,12.69,0,0,1,5.288,9.849l.468,13.863a2.078,2.078,0,0,1-2.006,2.146h-.072" transform="translate(-805.701 -991.688)" fill="#371a45"/>
        <path id="Trazado_8077" data-name="Trazado 8077" d="M1155.9,1272.514c.144,4.257-2.537,7.8-5.991,7.912l-5.837.2-.521-15.4,5.837-.2c3.455-.117,6.369,3.237,6.513,7.489" transform="translate(-971.963 -1075.206)" fill="#22a7f0"/>
        <g id="Grupo_3978" data-name="Grupo 3978" transform="translate(171.587 189.814)" opacity="0.7">
          <g id="Grupo_3977" data-name="Grupo 3977">
            <g id="Grupo_3976" data-name="Grupo 3976" clip-path="url(#clip-path-20)">
              <g id="Grupo_3975" data-name="Grupo 3975" transform="translate(0.001 0)">
                <g id="Grupo_3974" data-name="Grupo 3974" clip-path="url(#clip-path-20)">
                  <path id="Trazado_8078" data-name="Trazado 8078" d="M1155.413,1269.832a5.791,5.791,0,0,0-4.675-2.31l-5.833.2.435,12.849-1.276.043-.521-15.4,5.839-.2c2.685-.091,5.049,1.922,6.031,4.82" transform="translate(-1143.542 -1265.009)" fill="#fff"/>
                </g>
              </g>
            </g>
          </g>
        </g>
        <path id="Trazado_8079" data-name="Trazado 8079" d="M1155.9,1273.034c.144,4.256-2.54,7.792-5.993,7.91l-5.839.2-.522-15.4,3.142-.107.256,7.554,5.833-.2a5.353,5.353,0,0,0,3.022-1.085,10.275,10.275,0,0,1,.1,1.129" transform="translate(-971.954 -1075.726)" fill="#1c7aea"/>
        <path id="Trazado_8080" data-name="Trazado 8080" d="M1132.3,1270.933a2.078,2.078,0,0,1-2.075-2.007l-.521-15.4a2.077,2.077,0,0,1,2.006-2.146l5.837-.2a7.707,7.707,0,0,1,6.136,2.82,11.094,11.094,0,0,1,.457,13.509,7.726,7.726,0,0,1-5.931,3.225l-5.837.2h-.072m1.627-15.473.381,11.249,3.761-.128a3.656,3.656,0,0,0,2.759-1.581,6.559,6.559,0,0,0,1.226-4.184h0a6.556,6.556,0,0,0-1.506-4.089,3.646,3.646,0,0,0-2.859-1.393Z" transform="translate(-960.195 -1063.438)" fill="#371a45"/>
        <path id="Trazado_8081" data-name="Trazado 8081" d="M1116.12,1273.837c.144,4.253-2.536,7.8-5.987,7.912s-6.363-3.237-6.507-7.49,2.537-7.8,5.987-7.912,6.363,3.237,6.507,7.49" transform="translate(-938.023 -1076.331)" fill="#22a7f0"/>
        <g id="Grupo_3983" data-name="Grupo 3983" transform="translate(165.6 190.016)" opacity="0.7">
          <g id="Grupo_3982" data-name="Grupo 3982">
            <g id="Grupo_3981" data-name="Grupo 3981" clip-path="url(#clip-path-22)">
              <g id="Grupo_3980" data-name="Grupo 3980" transform="translate(0 0)">
                <g id="Grupo_3979" data-name="Grupo 3979" clip-path="url(#clip-path-23)">
                  <path id="Trazado_8082" data-name="Trazado 8082" d="M1116.137,1273.849a9.731,9.731,0,0,1-.052,1.367c-.642-3.58-3.286-6.231-6.365-6.127s-5.532,2.928-5.93,6.543a9.736,9.736,0,0,1-.145-1.36c-.143-4.25,2.535-7.793,5.983-7.91s6.365,3.237,6.509,7.487" transform="translate(-1103.64 -1266.36)" fill="#fff"/>
                </g>
              </g>
            </g>
          </g>
        </g>
        <path id="Trazado_8083" data-name="Trazado 8083" d="M1116.14,1296.681c.144,4.256-2.534,7.8-5.988,7.915s-6.36-3.236-6.5-7.493q-.014-.389.01-.763a6.235,6.235,0,0,0,5.7,4.027c3.245-.109,5.8-3.244,5.979-7.146a9.029,9.029,0,0,1,.8,3.46" transform="translate(-938.042 -1099.174)" fill="#1c7aea"/>
        <path id="Trazado_8084" data-name="Trazado 8084" d="M1098.187,1272.061a7.749,7.749,0,0,1-5.881-2.824,10.72,10.72,0,0,1-2.522-6.676c-.183-5.39,3.4-9.9,7.992-10.059,4.559-.153,8.47,4.105,8.653,9.5a10.721,10.721,0,0,1-2.065,6.831,7.724,7.724,0,0,1-5.928,3.228c-.084,0-.168,0-.251,0m-.17-15.408-.1,0c-2.26.076-4.083,2.717-3.98,5.766a6.565,6.565,0,0,0,1.505,4.092,3.391,3.391,0,0,0,5.609-.19,6.561,6.561,0,0,0,1.226-4.184h0c-.1-3-2.041-5.485-4.26-5.485" transform="translate(-926.257 -1064.561)" fill="#371a45"/>
      </g>
    </g>
    <g id="Grupo_3987" data-name="Grupo 3987" transform="translate(370.849 477.995)">
      <g id="Grupo_3986" data-name="Grupo 3986" clip-path="url(#clip-path-24)">
        <rect id="Rectángulo_627" data-name="Rectángulo 627" width="24.968" height="24.906" transform="matrix(0.667, -0.745, 0.745, 0.667, -8.973, 10.029)" fill="url(#linear-gradient-4)"/>
      </g>
    </g>
    <g id="Grupo_4059" data-name="Grupo 4059" transform="translate(0 0)">
      <g id="Grupo_4058" data-name="Grupo 4058" clip-path="url(#clip-path)">
        <path id="Trazado_8086" data-name="Trazado 8086" d="M2476.466,3193.941a2.078,2.078,0,0,1-1.556-.7,49.21,49.21,0,0,0-8.648-7.6,19.194,19.194,0,0,1-8.549-11.334,2.077,2.077,0,0,1,1.863-2.494c5.389-.451,9.782.905,13.061,4.016,6.143,5.829,5.918,15.682,5.905,16.1a2.075,2.075,0,0,1-2.075,2.014m-13.727-18.011a15.882,15.882,0,0,0,5.739,6.2,39.741,39.741,0,0,1,5.209,4.037,14.984,14.984,0,0,0-3.923-7.332,11.1,11.1,0,0,0-7.024-2.9m-2.992-2.047h0Z" transform="translate(-2088.897 -2695.813)" fill="#371a45"/>
        <path id="Trazado_8087" data-name="Trazado 8087" d="M1629.848,2223.35a11.127,11.127,0,0,1-1.706-.131,6.292,6.292,0,0,1-4.391-2.65c-1.848-2.728-1.091-6.329-1-6.732.014-.059.03-.116.048-.174l2.474-7.655a2.078,2.078,0,0,1,1.688-1.419l5.18-.726a2.064,2.064,0,0,1,2.194,1.231l5.278,12.173a2.077,2.077,0,0,1-.493,2.35,15.012,15.012,0,0,1-9.273,3.732m-3.062-8.513a5.259,5.259,0,0,0,.411,3.41,2.114,2.114,0,0,0,1.583.865,9.43,9.43,0,0,0,6.372-1.69l-4-9.224-2.326.326Z" transform="translate(-1379.062 -1873.158)" fill="#371a45"/>
        <path id="Trazado_8088" data-name="Trazado 8088" d="M1470.161,2149.647s7.6-2.613,9.825-1.172c3.69,2.394,9.522,16.278,9.522,16.278s.068,5.641-.127,5.912c0,0-7.747-7.584-8.055-7.421.5,2.439.2,10.85.219,11.888,0,0,5.106,6.183,5.4,7.219s-.073,11.951-11.859,28.39l-27.082-19.419Z" transform="translate(-1230.735 -1825.729)" fill="#d8d8d8"/>
        <g id="Grupo_3990" data-name="Grupo 3990" transform="translate(217.274 322.313)" opacity="0.7">
          <g id="Grupo_3989" data-name="Grupo 3989">
            <g id="Grupo_3988" data-name="Grupo 3988" clip-path="url(#clip-path-26)">
              <path id="Trazado_8089" data-name="Trazado 8089" d="M1448.022,2191.325l.769.554,20.324-38.232s7.6-2.618,9.827-1.177c3.691,2.4,9.522,16.28,9.522,16.28s.007.416.007,1.025c.568.547.921.893.921.893.194-.27.132-5.907.132-5.907s-5.831-13.891-9.522-16.28c-2.223-1.44-9.827,1.17-9.827,1.17Z" transform="translate(-1448.022 -2148.049)" fill="#fff"/>
            </g>
          </g>
        </g>
        <path id="Trazado_8090" data-name="Trazado 8090" d="M1232.316,2470.845s-.035,8.04,2.041,9.681c3.451,2.728,18.474,3.8,18.474,3.8s5.364-1.747,5.559-2.018c0,0-9.668-4.9-9.613-5.248,2.471-.312,10.34-3.294,11.33-3.607,0,0,7.494,2.852,8.572,2.8s11.3-3.9,23.083-20.342l-27.082-19.419Z" transform="translate(-1047.408 -2070.896)" fill="#b2b2b2"/>
        <path id="Trazado_8091" data-name="Trazado 8091" d="M1463.323,2201.124a2.078,2.078,0,0,1-1.21-.39l-27.081-19.419a2.078,2.078,0,0,1-.624-2.664l22.154-41.676a2.083,2.083,0,0,1,1.16-.99c2.573-.884,8.859-2.748,11.63-.95,4.024,2.611,9.292,14.8,10.307,17.217a2.064,2.064,0,0,1,.162.78c.077,6.324-.086,6.55-.519,7.151a2.077,2.077,0,0,1-3.14.271c-1.414-1.385-2.929-2.844-4.238-4.082.015,1.76-.013,3.7-.047,5.557-.006.291-.01.55-.014.77,4.917,5.994,5.206,7,5.317,7.381.447,1.552.125,13.034-12.167,30.176a2.082,2.082,0,0,1-1.688.867M1438.929,2179l23.9,17.136c9.081-13.274,10.476-22.773,10.341-24.883-.545-.936-2.942-4.009-4.992-6.491a2.078,2.078,0,0,1-.475-1.28c0-.234.005-.822.02-1.626.044-2.452.149-8.2-.2-9.889a2.078,2.078,0,0,1,1.063-2.252c1.509-.8,2.084-.259,6.546,3.979l.542.515c0-.24,0-.48-.005-.717-2.351-5.519-6.456-13.589-8.579-14.968-.786-.376-4.121.155-7.252,1.142Z" transform="translate(-1218.969 -1814.033)" fill="#371a45"/>
        <path id="Trazado_8092" data-name="Trazado 8092" d="M1641.847,2147.812c.042-1.061.053-2.091.04-3.142s-.055-2.1-.141-3.165a22.917,22.917,0,0,0-.476-3.281,9.031,9.031,0,0,0-.61-1.812c-.07-.159-.18-.34-.273-.507a5.345,5.345,0,0,0-.4-.548,3.4,3.4,0,0,0-1.581-1.05,2.077,2.077,0,1,0-1.045,4.021c-.27-.085-.341-.222-.315-.224a.339.339,0,0,1,.079.051c.038.051.08.078.126.145a5.081,5.081,0,0,1,.55,1.018,19.431,19.431,0,0,1,.868,2.69,52.387,52.387,0,0,1,1.1,5.876l0,.023a1.042,1.042,0,0,0,2.073-.1" transform="translate(-1390.356 -1813.999)" fill="#371a45"/>
        <path id="Trazado_8093" data-name="Trazado 8093" d="M1623.107,2357.284c-.259,1.02-.577,2.078-.916,3.1s-.716,2.033-1.131,3.014a20.718,20.718,0,0,1-3.03,5.259,2.084,2.084,0,1,0,3.177,2.7,2.179,2.179,0,0,0,.2-.278,24.262,24.262,0,0,0,2.613-6.706c.279-1.121.5-2.243.692-3.366s.341-2.234.447-3.4a1.041,1.041,0,0,0-2.046-.352Z" transform="translate(-1374.824 -2002.884)" fill="#371a45"/>
        <path id="Trazado_8094" data-name="Trazado 8094" d="M1587.671,2310.341l-7.4-.654a2.1,2.1,0,1,0-.37,4.18,2.162,2.162,0,0,0,.586-.031l7.291-1.42a1.049,1.049,0,0,0-.108-2.074" transform="translate(-1341.213 -1963.113)" fill="#371a45"/>
        <path id="Trazado_8095" data-name="Trazado 8095" d="M1241.063,2474.632c-.049,0-.1,0-.147,0-2.615-.186-15.851-1.264-19.614-4.238-2.591-2.048-2.843-8.6-2.83-11.32a2.076,2.076,0,0,1,.565-1.416L1251.4,2423.3a2.077,2.077,0,0,1,2.723-.263l27.082,19.419a2.077,2.077,0,0,1,.478,2.9c-12.29,17.14-23.062,21.131-24.674,21.206-.41.023-1.449.065-8.7-2.667l-.713.255c-1.75.629-3.585,1.28-5.26,1.833,1.592.843,3.461,1.81,5.226,2.705a2.077,2.077,0,0,1,.747,3.065c-.431.6-.592.823-6.6,2.78a2.072,2.072,0,0,1-.643.1m-18.429-14.737c.073,3.283.638,6.612,1.266,7.253,1.968,1.553,10.927,2.851,16.907,3.3.225-.074.453-.148.681-.225l-.661-.348c-5.44-2.864-6.139-3.232-5.869-4.919a2.077,2.077,0,0,1,1.791-1.732c1.719-.217,7.131-2.162,9.443-2.992.751-.27,1.3-.465,1.521-.535a2.064,2.064,0,0,1,1.366.039c3.009,1.145,6.688,2.429,7.749,2.645,2.042-.55,10.593-4.92,20.249-17.779l-23.9-17.136Z" transform="translate(-1035.64 -2059.13)" fill="#371a45"/>
        <path id="Trazado_8096" data-name="Trazado 8096" d="M1239.343,2706.317a52.518,52.518,0,0,1-5.919.844,19.436,19.436,0,0,1-2.826.04,5.026,5.026,0,0,1-1.14-.195c-.079-.021-.118-.052-.178-.072a.363.363,0,0,1-.073-.059c-.006-.026.145,0,.312.226a2.077,2.077,0,1,0-3.473,2.28,3.408,3.408,0,0,0,1.5,1.161,5.611,5.611,0,0,0,.646.2c.189.034.395.08.569.1a8.979,8.979,0,0,0,1.911,0,22.616,22.616,0,0,0,3.26-.6c1.037-.261,2.046-.559,3.043-.882s1.972-.666,2.963-1.046a1.041,1.041,0,0,0-.573-1.994Z" transform="translate(-1041.788 -2300.106)" fill="#371a45"/>
        <path id="Trazado_8097" data-name="Trazado 8097" d="M1441.792,2604.367c1.067-.474,2.064-.974,3.075-1.514s1.994-1.112,2.967-1.735a24.277,24.277,0,0,0,5.512-4.626,2.085,2.085,0,1,0-3.177-2.7,2.178,2.178,0,0,0-.2.278,20.8,20.8,0,0,1-4.008,4.557c-.8.707-1.634,1.384-2.493,2.038s-1.756,1.289-2.639,1.861l-.025.016a1.041,1.041,0,0,0,.988,1.825" transform="translate(-1224.208 -2203.971)" fill="#371a45"/>
        <path id="Trazado_8098" data-name="Trazado 8098" d="M575.862,2498.372l-14.323,49.658s-1.956,16.115,7.437,20.884,54.134,16.825,54.134,16.825-20.576-16.918-27.758-32.936,6.955-44.354,6.955-44.354" transform="translate(-477.136 -2123.493)" fill="#f75252"/>
        <path id="Trazado_8099" data-name="Trazado 8099" d="M568.968,2568.9c9.391,4.771,54.132,16.827,54.132,16.827s-20.574-16.917-27.755-32.936c-2.853-6.37-2.341-14.687-.685-22.395a105.384,105.384,0,0,1,7.645-21.959l-26.447-10.082-5.907,20.483-8.421,29.175s-1.953,16.114,7.437,20.885" transform="translate(-477.13 -2123.482)" fill="#ff2929"/>
        <path id="Trazado_8100" data-name="Trazado 8100" d="M637.294,2855.542c14.086,5.429,50.344,15.2,50.344,15.2s-20.574-16.917-27.755-32.934a21.414,21.414,0,0,1-1.343-4.121Z" transform="translate(-541.668 -2408.494)" fill="#cc3232"/>
        <g id="Grupo_3993" data-name="Grupo 3993" transform="translate(92.821 374.877)" opacity="0.25">
          <g id="Grupo_3992" data-name="Grupo 3992">
            <g id="Grupo_3991" data-name="Grupo 3991" clip-path="url(#clip-path-27)">
              <path id="Trazado_8101" data-name="Trazado 8101" d="M618.6,2518.843l6.94,9.722s9.085.983,17.769,1.835a105.423,105.423,0,0,1,7.645-21.959l-26.447-10.082Z" transform="translate(-618.605 -2498.359)" fill="#371a45"/>
            </g>
          </g>
        </g>
        <path id="Trazado_8102" data-name="Trazado 8102" d="M1378.523,2604.239l-.994-7.36a2.1,2.1,0,1,0-4.158.562,2.18,2.18,0,0,0,.158.564l2.994,6.8a1.049,1.049,0,0,0,2-.562" transform="translate(-1167.281 -2205.674)" fill="#371a45"/>
        <path id="Trazado_8103" data-name="Trazado 8103" d="M611.307,2576.046a2.088,2.088,0,0,1-.541-.072c-1.835-.494-45.059-12.167-54.534-16.979-10.567-5.365-8.645-22.269-8.558-22.987a2.063,2.063,0,0,1,.067-.325l14.323-49.658a2.077,2.077,0,0,1,3.992,1.152l-14.272,49.482c-.152,1.564-1.206,14.805,6.331,18.632,6.614,3.359,31.8,10.589,45.214,14.328-6.785-6.436-16.94-17.177-21.674-27.737-7.5-16.723,6.4-44.938,6.992-46.13a2.077,2.077,0,0,1,3.718,1.854c-.137.275-13.614,27.647-6.919,42.577,6.9,15.395,26.98,32.015,27.182,32.181a2.078,2.078,0,0,1-1.32,3.682" transform="translate(-465.334 -2111.722)" fill="#371a45"/>
        <path id="Trazado_8104" data-name="Trazado 8104" d="M603.361,2541.012l-21.7,56.049s.606,5.935,7.237,10.162c7.054,4.5,31.469,15.621,41.526,16.191,2.767.157,9.933-1.432,9.933-1.432s-12.925-7.658-20.473-12.92-10.634-7.988-7.98-10.623c2.785-2.763,46.238-39.082,51.479-41.06s-60.017-16.367-60.017-16.367" transform="translate(-494.379 -2159.735)" fill="#f75252"/>
        <path id="Trazado_8105" data-name="Trazado 8105" d="M581.639,2597.054s.609,5.935,7.236,10.159c7.057,4.5,31.473,15.622,41.528,16.2,2.77.152,9.93-1.434,9.93-1.434s-12.922-7.659-20.47-12.922-10.637-7.984-7.977-10.622c1.35-1.336,12.264-10.574,23.745-19.951,12.195-9.965,25.033-20.089,27.734-21.107,5.242-1.981-60.018-16.37-60.018-16.37l-9.224,23.807Z" transform="translate(-494.364 -2159.729)" fill="#ff2929"/>
        <g id="Grupo_3996" data-name="Grupo 3996" transform="translate(99.76 381.276)" opacity="0.25">
          <g id="Grupo_3995" data-name="Grupo 3995">
            <g id="Grupo_3994" data-name="Grupo 3994" clip-path="url(#clip-path-28)">
              <path id="Trazado_8106" data-name="Trazado 8106" d="M664.849,2564.811a334.317,334.317,0,0,0,41.507,13.669c12.2-9.964,25.034-20.089,27.734-21.106,5.243-1.981-60.018-16.37-60.018-16.37Z" transform="translate(-664.849 -2541.003)" fill="#371a45"/>
            </g>
          </g>
        </g>
        <path id="Trazado_8107" data-name="Trazado 8107" d="M619.044,2613.731c-.18,0-.35,0-.509-.013-10.536-.6-35.281-11.9-42.525-16.513-7.393-4.713-8.157-11.419-8.187-11.7a2.081,2.081,0,0,1,.13-.961l21.7-56.049a2.075,2.075,0,0,1,2.385-1.279c.15.033,15.222,3.361,30.126,6.99,31.579,7.69,31.673,8.991,31.815,10.96a2.378,2.378,0,0,1-1.638,2.39c-4.52,1.706-46.951,36.821-50.748,40.59a1,1,0,0,0-.323.465c.128,1.473,5.663,5.332,8.027,6.979,7.4,5.157,20.216,12.761,20.345,12.837a2.077,2.077,0,0,1-.609,3.815,63.554,63.554,0,0,1-9.991,1.491m-47.011-28.222a13.414,13.414,0,0,0,6.209,8.192c6.779,4.32,30.8,15.317,40.527,15.869a23.335,23.335,0,0,0,4.082-.386c-4.488-2.731-11.254-6.928-15.927-10.187-6.565-4.577-9.537-7.111-9.79-10.03a4.626,4.626,0,0,1,1.535-3.772c2.032-2.017,37.507-31.841,49.154-39.727-8.027-2.85-32.366-8.806-54.935-13.812Z" transform="translate(-482.612 -2147.965)" fill="#371a45"/>
        <path id="Trazado_8108" data-name="Trazado 8108" d="M188.307,1499.01c38.826-4.46,53.479-32.9,53.479-32.9s22.234-23,14.006-61.212S191.876,1312.576,130.3,1293.18a125.324,125.324,0,0,0-20.5-4.633,119.349,119.349,0,0,0-30.37-.306,124.326,124.326,0,0,0-51.529,18.23,13.819,13.819,0,0,0-5.942,8.286,124.285,124.285,0,0,0-.734,54.644,119.593,119.593,0,0,0,10.047,28.683A125.156,125.156,0,0,0,42.233,1416c38.122,52.1,107.251,87.478,146.075,83.008" transform="translate(-15.765 -1094.242)" fill="#fff"/>
        <path id="Trazado_8109" data-name="Trazado 8109" d="M165.63,1486.489c-18.88,0-43.06-7.446-67.722-21.013-29.361-16.152-55.526-38.708-73.674-63.509a128.459,128.459,0,0,1-11.2-18.314,122.648,122.648,0,0,1-10.279-29.346,126.478,126.478,0,0,1,.756-55.89,16.531,16.531,0,0,1,7.132-9.946,126.535,126.535,0,0,1,52.7-18.651,122.535,122.535,0,0,1,31.073.314,128.666,128.666,0,0,1,20.954,4.734c29.311,9.233,59.067,26.779,83.787,49.406,23.52,21.529,39.4,44.992,43.578,64.371,8.037,37.32-11.709,60.441-14.443,63.424-1.947,3.547-17.515,29.665-55.433,34.023a63.236,63.236,0,0,1-7.231.4M77.666,1274.521a117.131,117.131,0,0,0-13.674.8,120.871,120.871,0,0,0-50.354,17.81,11.014,11.014,0,0,0-4.751,6.625,120.827,120.827,0,0,0-.712,53.4,117.146,117.146,0,0,0,9.814,28.02A122.917,122.917,0,0,0,28.7,1398.7c17.68,24.162,43.205,46.156,71.873,61.926,26.954,14.828,53.07,22.108,71.649,19.966h0c36.791-4.226,51.193-31.149,51.334-31.421a2.816,2.816,0,0,1,.469-.651c.208-.218,21.087-22.5,13.289-58.7-3.938-18.281-19.211-40.68-41.9-61.451-24.136-22.093-53.155-39.214-81.711-48.209a123.1,123.1,0,0,0-20.049-4.531,116.71,116.71,0,0,0-15.993-1.1" transform="translate(-0.001 -1078.571)" fill="#371a45"/>
        <path id="Trazado_8110" data-name="Trazado 8110" d="M188.307,1499.01c38.826-4.46,53.479-32.9,53.479-32.9s22.234-23,14.006-61.212S191.876,1312.576,130.3,1293.18a125.324,125.324,0,0,0-20.5-4.633,119.349,119.349,0,0,0-30.37-.306,124.326,124.326,0,0,0-51.529,18.23,13.819,13.819,0,0,0-5.942,8.286,124.285,124.285,0,0,0-.734,54.644,119.593,119.593,0,0,0,10.047,28.683A125.156,125.156,0,0,0,42.233,1416c38.122,52.1,107.251,87.478,146.075,83.008" transform="translate(-15.765 -1094.242)" fill="#fff"/>
        <path id="Trazado_8111" data-name="Trazado 8111" d="M21.24,1369.391a119.374,119.374,0,0,0,10.048,28.683,124.981,124.981,0,0,0,10.955,17.915c38.121,52.1,107.252,87.482,146.073,83.015,20.311-2.334,34.008-11.225,42.449-19.189A57.091,57.091,0,0,0,241.8,1466.1s22.235-23.005,14.008-61.216-63.916-92.322-125.491-111.719a125.837,125.837,0,0,0-20.5-4.633,119.138,119.138,0,0,0-30.372-.3,124.313,124.313,0,0,0-51.529,18.232,13.9,13.9,0,0,0-5.96,8.361,117.356,117.356,0,0,0-3.035,19.326,124.694,124.694,0,0,0,2.321,35.24" transform="translate(-15.775 -1094.232)" fill="#fff"/>
        <path id="Trazado_8112" data-name="Trazado 8112" d="M21.24,1369.391a119.374,119.374,0,0,0,10.048,28.683,124.981,124.981,0,0,0,10.955,17.915c38.121,52.1,107.252,87.482,146.073,83.015,20.311-2.334,34.008-11.225,42.449-19.189A57.091,57.091,0,0,0,241.8,1466.1s22.235-23.005,14.008-61.216c-2.527-11.7-9.5-24.9-19.736-38.142-12.339-15.955-29.416-31.965-49.138-45.476-17.306-11.869-36.653-21.806-56.618-28.1a125.837,125.837,0,0,0-20.5-4.633,119.138,119.138,0,0,0-30.372-.3,124.313,124.313,0,0,0-51.529,18.232,13.9,13.9,0,0,0-5.96,8.361,117.356,117.356,0,0,0-3.035,19.326,124.694,124.694,0,0,0,2.321,35.24" transform="translate(-15.775 -1094.232)" fill="#fff"/>
        <g id="Grupo_3999" data-name="Grupo 3999" transform="translate(161.246 227.038)" opacity="0.2">
          <g id="Grupo_3998" data-name="Grupo 3998">
            <g id="Grupo_3997" data-name="Grupo 3997" clip-path="url(#clip-path-29)">
              <path id="Trazado_8113" data-name="Trazado 8113" d="M1093.033,1578.3s-.976,27.7,17.111,30.061c23.648,3.089,19.064-31.162,19.064-31.162l4.46-18.635c-12.34-15.955-29.417-31.965-49.139-45.476a59.722,59.722,0,0,0-9.909,32.949c-.042,23.365,18.413,32.263,18.413,32.263" transform="translate(-1074.62 -1513.091)" fill="#371a45"/>
            </g>
          </g>
        </g>
        <g id="Grupo_4002" data-name="Grupo 4002" transform="translate(2.785 227.94)" opacity="0.2">
          <g id="Grupo_4001" data-name="Grupo 4001">
            <g id="Grupo_4000" data-name="Grupo 4000" clip-path="url(#clip-path-30)">
              <path id="Trazado_8114" data-name="Trazado 8114" d="M21.24,1566.318A119.373,119.373,0,0,0,31.288,1595a124.994,124.994,0,0,0,10.955,17.915c38.121,52.1,107.252,87.482,146.073,83.015,20.311-2.334,34.008-11.225,42.449-19.189-17.783-10.277-36.141-26.952-30.387-51.736.506-2.2-53.488-41.993-53.488-41.993s-25.206,18.809-50.682,1.476c-30.9-21.011-71.97-93.749-77.289-53.411a124.693,124.693,0,0,0,2.321,35.24" transform="translate(-18.56 -1519.099)" fill="#371a45"/>
            </g>
          </g>
        </g>
        <path id="Trazado_8115" data-name="Trazado 8115" d="M710.676,2471.2c.534.277,1.066.541,1.6.8q1.194.592,2.389,1.164c.644.305,1.281.6,1.925.9.028.014.055.028.09.042q.935.436,1.87.852a1.78,1.78,0,0,0,.2.09c.616.284,1.232.554,1.849.824,1.5.658,3.005,1.288,4.494,1.9.637.263,1.281.519,1.918.768.6.236,1.2.472,1.8.693.395.153.783.3,1.177.45q4.114,1.537,8.137,2.8c.464.145.928.291,1.385.429.575.173,1.143.346,1.71.506.429.131.866.249,1.288.367.561.166,1.122.319,1.676.464.471.125.942.249,1.413.367q1.465.384,2.908.706c.887.215,1.773.408,2.645.588.569.118,1.136.229,1.7.339.6.118,1.184.222,1.773.325.52.1,1.046.18,1.565.263.215.042.429.069.644.1,1,.159,2,.3,2.985.415,1.136.139,2.257.256,3.365.346.554.049,1.108.09,1.648.125s1.094.063,1.627.09a63.747,63.747,0,0,0,10.124-.3c2.368-.269,4.64-.637,6.828-1.073.083-.021.159-.034.242-.049,1.08-.214,2.133-.457,3.165-.713l.09-.02c.526-.132,1.046-.271,1.558-.409s1.046-.283,1.558-.436,1.025-.3,1.53-.464,1-.325,1.5-.492.977-.332,1.454-.512.963-.346,1.433-.533.935-.36,1.392-.554c.921-.367,1.814-.762,2.694-1.164.436-.2.866-.4,1.295-.609s.817-.395,1.226-.6a1.222,1.222,0,0,1,.138-.069c.381-.2.762-.395,1.136-.6.762-.395,1.51-.81,2.23-1.233.049-.028.1-.055.138-.083.388-.222.769-.45,1.143-.678,1.129-.672,2.2-1.371,3.234-2.084q.519-.353,1.018-.706c.339-.243.665-.478.99-.714.492-.367.97-.727,1.434-1.087.228-.173.45-.346.665-.526.644-.506,1.26-1.018,1.849-1.523.3-.25.589-.5.872-.755l.831-.748c.277-.249.547-.5.81-.755-7.991-4.619-16.093-10.526-22.076-17.88-35.85,35-84.712,21.114-86.277,20.657" transform="translate(-604.04 -2082.842)" fill="#cc3232"/>
        <path id="Trazado_8116" data-name="Trazado 8116" d="M18.6,1539.127a123.819,123.819,0,0,0,2.667,27.187c.242,1.142.5,2.3.789,3.456.132.554.278,1.114.423,1.683.291,1.122.595,2.244.927,3.372.1.346.2.686.3,1.032l.063.208a.308.308,0,0,0,.027.075,38.279,38.279,0,0,0,31.135,26.972c16.571,2.321,32.9-2.527,47.262-15.192a44.76,44.76,0,0,1-5.963-3.435c-30.885-21-71.942-93.7-77.281-53.453-.021.179-.035.36-.042.547-.041.561-.076,1.135-.118,1.717-.014.291-.028.582-.041.88s-.035.588-.042.886c-.013.208-.021.422-.028.637-.013.387-.028.775-.041,1.169-.015.416-.021.831-.028,1.254-.008.332-.015.665-.015,1" transform="translate(-15.799 -1291.155)" fill="#e5e5e5"/>
        <path id="Trazado_8117" data-name="Trazado 8117" d="M165.63,1486.489c-18.88,0-43.06-7.446-67.722-21.013-29.361-16.152-55.526-38.708-73.674-63.509a128.459,128.459,0,0,1-11.2-18.314,122.648,122.648,0,0,1-10.279-29.346,126.478,126.478,0,0,1,.756-55.89,16.531,16.531,0,0,1,7.132-9.946,126.535,126.535,0,0,1,52.7-18.651,122.535,122.535,0,0,1,31.073.314,128.666,128.666,0,0,1,20.954,4.734c29.311,9.233,59.067,26.779,83.787,49.406,23.52,21.529,39.4,44.992,43.578,64.371,8.037,37.32-11.709,60.441-14.443,63.424-1.947,3.547-17.515,29.665-55.433,34.023a63.236,63.236,0,0,1-7.231.4M77.666,1274.521a117.131,117.131,0,0,0-13.674.8,120.871,120.871,0,0,0-50.354,17.81,11.014,11.014,0,0,0-4.751,6.625,120.827,120.827,0,0,0-.712,53.4,117.146,117.146,0,0,0,9.814,28.02A122.917,122.917,0,0,0,28.7,1398.7c17.68,24.162,43.205,46.156,71.873,61.926,26.954,14.828,53.07,22.108,71.649,19.966h0c36.791-4.226,51.193-31.149,51.334-31.421a2.816,2.816,0,0,1,.469-.651c.208-.218,21.087-22.5,13.289-58.7-3.938-18.281-19.211-40.68-41.9-61.451-24.136-22.093-53.155-39.214-81.711-48.209a123.1,123.1,0,0,0-20.049-4.531,116.71,116.71,0,0,0-15.993-1.1" transform="translate(-0.001 -1078.571)" fill="#371a45"/>
        <path id="Trazado_8118" data-name="Trazado 8118" d="M710.509,1824.234c24.4,12.256,48.3,18.447,65.929,16.415,38.829-4.461,53.478-32.9,53.478-32.9s22.237-23,14.005-61.21c-3.733-17.357-17.271-37.992-36.7-57.17.642.912,36.085,51.723-.029,102.08-36.133,50.4-95.694,33.072-96.681,32.782" transform="translate(-603.898 -1435.883)" fill="#ff2929"/>
        <g id="Grupo_4005" data-name="Grupo 4005" transform="translate(203.321 253.492)" opacity="0.7">
          <g id="Grupo_4004" data-name="Grupo 4004">
            <g id="Grupo_4003" data-name="Grupo 4003" clip-path="url(#clip-path-31)">
              <path id="Trazado_8119" data-name="Trazado 8119" d="M1389.045,1754.218a74.34,74.34,0,0,1-.928,36.556c4.383-10.5,7.638-25.539,3.615-44.216-3.732-17.36-17.271-38-36.7-57.171a96.08,96.08,0,0,1,10.879,22.444c12.1,14.646,20.352,29.431,23.136,42.387" transform="translate(-1355.03 -1689.387)" fill="#fff"/>
            </g>
          </g>
        </g>
        <g id="Grupo_4008" data-name="Grupo 4008" transform="translate(106.623 367.703)" opacity="0.25">
          <g id="Grupo_4007" data-name="Grupo 4007">
            <g id="Grupo_4006" data-name="Grupo 4006" clip-path="url(#clip-path-32)">
              <path id="Trazado_8120" data-name="Trazado 8120" d="M710.585,2471.2c.539.27,1.073.541,1.613.8q1.195.592,2.389,1.164c.645.305,1.282.6,1.926.9.028.014.055.028.089.042q.936.436,1.87.852a1.672,1.672,0,0,0,.2.09c.616.284,1.233.554,1.849.824,1.5.658,3,1.288,4.494,1.9.637.263,1.28.519,1.917.768.6.236,1.2.472,1.8.693.394.153.783.3,1.177.45q4.113,1.537,8.137,2.8c.464.145.929.291,1.385.429.575.173,1.143.346,1.711.506.429.131.866.249,1.287.367.561.166,1.122.319,1.676.464.472.125.942.249,1.413.367q1.465.384,2.908.706c.887.215,1.773.408,2.646.588.568.118,1.135.229,1.7.339.595.118,1.184.222,1.772.325.519.1,1.046.18,1.565.263.215.042.429.069.645.1,1,.152,2,.291,2.984.415,1.136.139,2.257.256,3.366.346.554.049,1.107.09,1.648.125s1.094.063,1.627.09a64.48,64.48,0,0,0,10.124-.312c2.362-.27,4.64-.63,6.829-1.067.083-.021.159-.034.242-.049,1.073-.221,2.133-.457,3.165-.713l.09-.02c.526-.132,1.045-.271,1.558-.409s1.045-.283,1.558-.436,1.024-.3,1.53-.464,1-.325,1.5-.492.976-.332,1.453-.512.963-.346,1.434-.533.935-.36,1.391-.554c.921-.374,1.815-.762,2.694-1.164.436-.2.866-.4,1.295-.609s.817-.4,1.226-.6a1.287,1.287,0,0,1,.138-.069c.382-.2.762-.395,1.136-.6.762-.4,1.5-.817,2.23-1.233.049-.028.1-.055.138-.083.388-.222.769-.45,1.143-.678,1.129-.679,2.2-1.378,3.234-2.084q.519-.353,1.017-.706c.34-.243.665-.478.991-.714.492-.367.969-.727,1.433-1.087.229-.173.45-.346.665-.526.645-.506,1.261-1.018,1.849-1.523.3-.25.589-.5.873-.755s.561-.5.83-.748.547-.5.811-.755c-7.991-4.619-16.093-10.526-22.077-17.88-35.849,35-84.712,21.114-86.276,20.657Z" transform="translate(-710.585 -2450.546)" fill="#371a45"/>
            </g>
          </g>
        </g>
        <path id="Trazado_8121" data-name="Trazado 8121" d="M753.725,1828.121c-16.921,0-37.937-5.937-60.152-17.1a2.77,2.77,0,0,1,2.023-5.133c2.392.7,58.977,16.623,93.651-31.738,14.52-20.245,19.012-42.9,13.351-67.343a97.514,97.514,0,0,0-13.335-31.528,2.77,2.77,0,0,1,4.211-3.566c20.359,20.093,33.665,40.89,37.465,58.559,8.039,37.317-11.706,60.435-14.443,63.42-1.949,3.55-17.508,29.665-55.432,34.022a64.174,64.174,0,0,1-7.338.4m-38.841-13.784c17.267,6.465,33.248,9.295,45.545,7.876,36.8-4.228,51.194-31.148,51.335-31.419a2.839,2.839,0,0,1,.469-.652c.208-.217,21.09-22.493,13.289-58.7-2.6-12.107-10.435-26.366-22.137-40.678a106.155,106.155,0,0,1,4.611,14.8c5.951,25.692,1.025,50.528-14.246,71.821-23.843,33.255-57.387,37.987-78.865,36.955" transform="translate(-588.205 -1420.198)" fill="#371a45"/>
        <path id="Trazado_8122" data-name="Trazado 8122" d="M772.938,1926.592l5.649,4.051.616-.859c14.064,4.722,32.829-3.267,44.966-20.193s13.687-37.267,4.7-49.073l.616-.859-5.649-4.051c-14.242-10.212-37.184-2.6-51.241,17s-13.9,43.769.341,53.981" transform="translate(-647.795 -1573.32)" fill="#22a7f0"/>
        <path id="Trazado_8123" data-name="Trazado 8123" d="M776.291,1921.385a29.41,29.41,0,0,1-7.853-1.039,2.076,2.076,0,0,1-2.6.141l-5.65-4.051c-15.151-10.865-15.519-36.381-.819-56.88,7.052-9.835,16.494-17.1,26.585-20.443,10.324-3.424,20.112-2.374,27.554,2.964l5.649,4.051a2.077,2.077,0,0,1,.7,2.5c8.788,12.955,6.61,33.384-5.54,50.327-10.107,14.1-24.717,22.428-38.03,22.428m-8.624-5.524a2.065,2.065,0,0,1,.661.109c13.393,4.5,31.317-3.677,42.616-19.434s13.294-35.36,4.737-46.6a2.077,2.077,0,0,1-.412-1.483l-4.178-3c-6.334-4.541-14.794-5.393-23.825-2.4-9.265,3.074-17.972,9.794-24.517,18.92-13.364,18.637-13.425,41.554-.136,51.083l4.178,3a2.089,2.089,0,0,1,.876-.194" transform="translate(-636.259 -1561.475)" fill="#371a45"/>
        <path id="Trazado_8124" data-name="Trazado 8124" d="M824.6,1951.717c14.242,10.212,37.181,2.6,51.236-17s13.9-43.77-.338-53.983-37.181-2.6-51.236,17-13.9,43.769.338,53.982" transform="translate(-691.709 -1594.676)" fill="#d8d8d8"/>
        <path id="Trazado_8125" data-name="Trazado 8125" d="M811.911,1951.709c14.245,10.214,37.18,2.6,51.237-17a55.4,55.4,0,0,0,9.923-23.613c1.648-10.727-.63-20.747-6.828-27.347a23.119,23.119,0,0,0-3.435-3.019c-14.244-10.214-37.179-2.6-51.237,17s-13.905,43.772.339,53.979" transform="translate(-680.919 -1594.67)" fill="#22a7f0"/>
        <g id="Grupo_4011" data-name="Grupo 4011" transform="translate(183.81 289.077)" opacity="0.2">
          <g id="Grupo_4010" data-name="Grupo 4010">
            <g id="Grupo_4009" data-name="Grupo 4009" clip-path="url(#clip-path-33)">
              <path id="Trazado_8126" data-name="Trazado 8126" d="M1226.718,1950.75c2.043,3.85,5.415,4.085,8.531,3.151,1.648-10.727-.63-20.747-6.828-27.346-2.583,7.056-5.256,17.491-1.7,24.2" transform="translate(-1225.004 -1926.553)" fill="#371a45"/>
            </g>
          </g>
        </g>
        <path id="Trazado_8127" data-name="Trazado 8127" d="M813.742,1948.585a26.913,26.913,0,0,1-15.908-4.892c-15.15-10.865-15.516-36.381-.815-56.881s38.984-28.342,54.135-17.478c7.443,5.337,11.58,14.267,11.648,25.146.066,10.631-3.781,21.9-10.833,31.735-10.21,14.239-25.042,22.37-38.227,22.37m-13.487-8.268c13.289,9.527,34.972,2.116,48.338-16.522,6.544-9.127,10.115-19.528,10.054-29.289-.06-9.513-3.58-17.254-9.914-21.8-13.291-9.529-34.973-2.116-48.338,16.522s-13.428,41.554-.14,51.084" transform="translate(-668.256 -1584.684)" fill="#371a45"/>
        <path id="Trazado_8128" data-name="Trazado 8128" d="M875.83,2008.485a17.554,17.554,0,0,0,1.811,1.494,17.85,17.85,0,0,0,9.344,3.253,23.573,23.573,0,0,0,7.489-.744,36.359,36.359,0,0,0,17.732-11.394,44.68,44.68,0,0,0,2.8-3.511c10.251-14.3,10.141-31.922-.245-39.371a16.761,16.761,0,0,0-2.555-1.507c-5.194-2.5-11.524-2.328-17.732.117a34.785,34.785,0,0,0-7.489,4.119,41.915,41.915,0,0,0-9.59,9.669c-.55.769-1.073,1.552-1.565,2.334-8.077,12.927-8.058,27.885,0,35.542" transform="translate(-739.27 -1661.573)" fill="#371a45"/>
        <g id="Grupo_4016" data-name="Grupo 4016" transform="translate(155.205 293.331)" opacity="0.3">
          <g id="Grupo_4015" data-name="Grupo 4015">
            <g id="Grupo_4014" data-name="Grupo 4014" clip-path="url(#clip-path-34)">
              <g id="Grupo_4013" data-name="Grupo 4013" transform="translate(0 0)">
                <g id="Grupo_4012" data-name="Grupo 4012" clip-path="url(#clip-path-34)">
                  <path id="Trazado_8129" data-name="Trazado 8129" d="M1034.36,1956.821v55.668a36.358,36.358,0,0,0,17.733-11.394V1956.7c-5.193-2.5-11.524-2.328-17.733.117" transform="translate(-1034.36 -1954.906)" fill="#fff"/>
                </g>
              </g>
            </g>
          </g>
        </g>
        <g id="Grupo_4021" data-name="Grupo 4021" transform="translate(136.561 299.366)" opacity="0.3">
          <g id="Grupo_4020" data-name="Grupo 4020">
            <g id="Grupo_4019" data-name="Grupo 4019" clip-path="url(#clip-path-36)">
              <g id="Grupo_4018" data-name="Grupo 4018" transform="translate(0 0)">
                <g id="Grupo_4017" data-name="Grupo 4017" clip-path="url(#clip-path-36)">
                  <path id="Trazado_8130" data-name="Trazado 8130" d="M910.1,2007.123v35.542a17.489,17.489,0,0,0,1.811,1.494,17.857,17.857,0,0,0,9.344,3.253V1995.12a41.9,41.9,0,0,0-9.59,9.669c-.55.769-1.073,1.552-1.565,2.334" transform="translate(-910.105 -1995.12)" fill="#fff"/>
                </g>
              </g>
            </g>
          </g>
        </g>
        <path id="Trazado_8131" data-name="Trazado 8131" d="M876.794,2003.734a20.166,20.166,0,0,1-11.918-3.668c-11.3-8.1-11.625-27.063-.725-42.265s28.964-20.978,40.264-12.874,11.624,27.062.724,42.264c-7.554,10.534-18.547,16.543-28.344,16.543m15.615-58.363c-8.437,0-18.128,5.434-24.882,14.851-9.565,13.341-9.669,29.7-.231,36.468s24.9,1.42,34.466-11.92,9.669-29.7.232-36.467a16.2,16.2,0,0,0-9.585-2.932" transform="translate(-727.713 -1649.975)" fill="#371a45"/>
        <path id="Trazado_8132" data-name="Trazado 8132" d="M910.633,2020.91c10.385,7.447,27.111,1.893,37.357-12.4s10.144-31.919-.241-39.365a16.592,16.592,0,0,0-2.291-1.38c8.3,8.193,7.723,24.355-1.8,37.637s-24.642,19.014-35.066,13.778a16.51,16.51,0,0,0,2.042,1.727" transform="translate(-772.258 -1672.506)" fill="#b5b5b5"/>
        <path id="Trazado_8133" data-name="Trazado 8133" d="M909.607,2014.537a20.219,20.219,0,0,1-11.953-3.708,18.6,18.6,0,0,1-2.3-1.945,2.077,2.077,0,0,1,2.4-3.328c9.649,4.849,23.6-.8,32.445-13.131s9.72-27.362,2.032-34.949a2.077,2.077,0,0,1,2.383-3.339,18.725,18.725,0,0,1,2.577,1.552c5.577,4,8.675,10.671,8.725,18.789.047,7.87-2.8,16.206-8.007,23.474s-12.192,12.632-19.66,15.111a27.474,27.474,0,0,1-8.643,1.472m31.965-43.054c.018,7.568-2.671,15.938-8,23.364s-12.388,12.654-19.559,15.064a26.032,26.032,0,0,0,2.923-.789c6.643-2.2,12.891-7.031,17.594-13.589s7.271-14.028,7.228-21.028a26.088,26.088,0,0,0-.191-3.023" transform="translate(-760.489 -1660.736)" fill="#371a45"/>
        <path id="Trazado_8134" data-name="Trazado 8134" d="M23.734,1379.375A38.3,38.3,0,0,0,54.9,1406.42c22.085,3.1,43.739-6.543,60.879-30.445,14.692-20.489,17.633-43.3,12-61.489A38.388,38.388,0,0,0,89.711,1287.7c-3.535.11-6.964.375-10.279.764a124.324,124.324,0,0,0-51.529,18.23,13.819,13.819,0,0,0-5.942,8.285,124.273,124.273,0,0,0-.735,54.644c.679,3.189,1.507,6.446,2.507,9.752" transform="translate(-15.765 -1094.464)" fill="#ff2929"/>
        <g id="Grupo_4024" data-name="Grupo 4024" transform="translate(30.905 201.71)" opacity="0.5">
          <g id="Grupo_4023" data-name="Grupo 4023">
            <g id="Grupo_4022" data-name="Grupo 4022" clip-path="url(#clip-path-38)">
              <path id="Trazado_8135" data-name="Trazado 8135" d="M268.933,1354.691c-.652-5.133-8.045-9.652-19.471-10.346-14.747-.9-45.437,9.177-43.4,13.983,3.189,7.525,63.524,1.5,62.872-3.637" transform="translate(-205.964 -1344.289)" fill="#fff"/>
            </g>
          </g>
        </g>
        <g id="Grupo_4027" data-name="Grupo 4027" transform="translate(2.789 227.938)" opacity="0.25">
          <g id="Grupo_4026" data-name="Grupo 4026">
            <g id="Grupo_4025" data-name="Grupo 4025" clip-path="url(#clip-path-39)">
              <path id="Trazado_8136" data-name="Trazado 8136" d="M18.6,1539.127a123.819,123.819,0,0,0,2.667,27.187c.242,1.142.5,2.3.789,3.456.132.554.278,1.114.423,1.683.291,1.122.595,2.244.927,3.372.1.346.2.686.3,1.032l.063.208a.308.308,0,0,0,.027.075,38.279,38.279,0,0,0,31.135,26.972c16.571,2.321,32.9-2.527,47.262-15.192a44.76,44.76,0,0,1-5.963-3.435c-30.885-21-71.942-93.7-77.281-53.453-.021.179-.035.36-.042.547-.041.567-.083,1.135-.118,1.717-.014.291-.028.582-.041.88s-.035.588-.042.886c-.013.208-.021.422-.028.637-.013.387-.028.775-.041,1.169-.015.416-.021.831-.028,1.254-.008.332-.015.665-.015,1" transform="translate(-18.588 -1519.094)" fill="#371a45"/>
            </g>
          </g>
        </g>
        <path id="Trazado_8137" data-name="Trazado 8137" d="M47.034,1394.062a59.574,59.574,0,0,1-8.286-.584,41.2,41.2,0,0,1-33.43-28.986c-.987-3.262-1.849-6.619-2.565-9.978a126.488,126.488,0,0,1,.757-55.891,16.539,16.539,0,0,1,7.132-9.945,126.537,126.537,0,0,1,52.7-18.651c3.488-.41,7.026-.673,10.516-.783a41.3,41.3,0,0,1,40.794,28.738c6.319,20.392,1.687,44.288-12.392,63.922-15.031,20.962-34.4,32.156-55.227,32.158m28.14-119.3c-.38,0-.76.006-1.141.018-3.332.1-6.711.355-10.041.747a120.872,120.872,0,0,0-50.356,17.81,11.018,11.018,0,0,0-4.751,6.625,120.831,120.831,0,0,0-.713,53.4c.683,3.207,1.507,6.412,2.449,9.526a35.643,35.643,0,0,0,28.9,25.1c22.118,3.1,42.264-7.034,58.243-29.316,13.074-18.233,17.411-40.309,11.6-59.055a35.723,35.723,0,0,0-34.188-24.858" transform="translate(0 -1078.778)" fill="#371a45"/>
        <path id="Trazado_8138" data-name="Trazado 8138" d="M698.663,2578.447a2.078,2.078,0,1,1,1.553-.7,2.087,2.087,0,0,1-1.553.7" transform="translate(-592.053 -2188.017)" fill="#371a45"/>
        <path id="Trazado_8139" data-name="Trazado 8139" d="M1308.354,2318.678c3.224,1.815,69.68,35.731,73.479,31.064,3.2-5.1-50.24-57.163-52.993-59.633S1298,2268,1298,2268l0,.006a92.948,92.948,0,0,1-20.477,28.557l0,0s27.611,20.3,30.84,22.115" transform="translate(-1085.824 -1927.685)" fill="#ff2929"/>
        <g id="Grupo_4030" data-name="Grupo 4030" transform="translate(210.336 340.307)" opacity="0.7">
          <g id="Grupo_4029" data-name="Grupo 4029">
            <g id="Grupo_4028" data-name="Grupo 4028" clip-path="url(#clip-path-40)">
              <path id="Trazado_8140" data-name="Trazado 8140" d="M1401.779,2271.763c5.942,4.169,26.91,18.9,29.278,21.017,2.417,2.167,47,43.682,55.759,57.3a1.114,1.114,0,0,0,.637-.353c3.206-5.1-50.24-57.158-53-59.63s-30.836-22.118-30.836-22.118l-.007.007q-.862,1.89-1.835,3.781" transform="translate(-1401.779 -2267.974)" fill="#fff"/>
            </g>
          </g>
        </g>
        <g id="Grupo_4033" data-name="Grupo 4033" transform="translate(191.688 362.89)" opacity="0.25">
          <g id="Grupo_4032" data-name="Grupo 4032">
            <g id="Grupo_4031" data-name="Grupo 4031" clip-path="url(#clip-path-41)">
              <path id="Trazado_8141" data-name="Trazado 8141" d="M1277.5,2424.462s27.616,20.3,30.843,22.111,69.678,35.732,73.48,31.065a1.041,1.041,0,0,0,.138-.554c-15.041-4.487-65.724-35.441-68.549-37.034-2.916-1.648-25.76-18.385-30.116-21.578-1.89,2.147-3.823,4.134-5.789,5.983Z" transform="translate(-1277.497 -2418.472)" fill="#371a45"/>
            </g>
          </g>
        </g>
        <path id="Trazado_8142" data-name="Trazado 8142" d="M1368.629,2340.493c-2.188,0-5.756-.891-11.923-3.2-6.128-2.294-14.361-5.838-24.472-10.533-17.557-8.152-34.938-17.063-36.667-18.036h0c-3.3-1.86-29.919-21.419-31.05-22.25a2.078,2.078,0,0,1-.239-3.143,90.881,90.881,0,0,0,20.059-27.953,2.087,2.087,0,0,1,3.086-.849c1.151.805,28.216,19.74,31.036,22.27,1.476,1.325,15.49,14.926,28.848,28.943,7.69,8.07,13.688,14.731,17.826,19.8,7.184,8.8,7.893,11.628,6.691,13.542a2.22,2.22,0,0,1-.148.206,3.544,3.544,0,0,1-3.046,1.2M1297.6,2305.1c1.561.878,17.732,9.172,34.554,17.038,24.512,11.462,32.808,13.772,35.553,14.149-1.236-2.48-6.082-9.6-24.8-29.138-12.852-13.415-25.894-26.069-27.224-27.262-2.018-1.81-19.783-14.346-28.627-20.546a95.638,95.638,0,0,1-18.1,25.238c8.711,6.388,26.284,19.191,28.645,20.521" transform="translate(-1074.055 -1915.92)" fill="#371a45"/>
        <path id="Trazado_8143" data-name="Trazado 8143" d="M1162.753,1363.434s-23.448,33.748,10.171,59.219c0,0-4.792,23.357,8.253,27.4,14.684,4.546,27.968-9.49,28.3-27.573.261-14.342-9.662-30.2-9.662-30.2s27.632-13.6,26.48-53.047l-4.861,1.853-34.83,17.431Z" transform="translate(-981.521 -1138.276)" fill="#fff"/>
        <path id="Trazado_8144" data-name="Trazado 8144" d="M1165.223,1415.672a55.575,55.575,0,0,0,7.7,6.994,50.132,50.132,0,0,0-.783,6.551c-.249,4.535,0,10.539,2.341,15.041a11.118,11.118,0,0,0,6.7,5.8c14.681,4.549,27.963-9.487,28.3-27.568.263-14.348-9.66-30.207-9.66-30.207s27.63-13.6,26.474-53.044l-4.861,1.849-34.825,17.43-23.849,4.924a39.716,39.716,0,0,0-2.334,4.016c-4.4,8.594-12.1,29.521,4.806,48.211" transform="translate(-981.52 -1138.291)" fill="#fff"/>
        <g id="Grupo_4036" data-name="Grupo 4036" transform="translate(178.896 200.952)" opacity="0.2">
          <g id="Grupo_4035" data-name="Grupo 4035">
            <g id="Grupo_4034" data-name="Grupo 4034" clip-path="url(#clip-path-42)">
              <path id="Trazado_8145" data-name="Trazado 8145" d="M1230.18,1369.351c6.011,7.9-10.646,16.34-7.786,29.119,1.059,4.73,9.9,26.841-25.336,17.2a55.607,55.607,0,0,0,7.7,6.994,50.1,50.1,0,0,0-.783,6.551c6.26-1.586,20.373-4.293,23.621,2.4,4.273,8.795-8.843,16.6-21.28,12.638a11.115,11.115,0,0,0,6.7,5.8c14.681,4.55,27.963-9.487,28.3-27.568.263-14.348-9.66-30.206-9.66-30.206s27.63-13.6,26.474-53.044l-4.861,1.849-34.825,17.43-23.849,4.924a39.782,39.782,0,0,0-2.334,4.016l.008.014s28.129-10.99,37.92,1.877" transform="translate(-1192.252 -1339.242)" fill="#371a45"/>
            </g>
          </g>
        </g>
        <path id="Trazado_8146" data-name="Trazado 8146" d="M1145.315,1346.943a31.748,31.748,0,0,0-2.6,3.543c-.79,1.215-1.494,2.481-2.165,3.77-.651,1.3-1.259,2.62-1.8,3.975s-1.009,2.743-1.423,4.152a41.405,41.405,0,0,0-1.275,17.654,38.181,38.181,0,0,0,2.39,8.673,41.825,41.825,0,0,0,4.264,7.872,47.63,47.63,0,0,0,5.656,6.812,60.476,60.476,0,0,0,6.586,5.767l-1.041-2.764c-.247,1.279-.4,2.405-.544,3.607q-.2,1.777-.3,3.568a46.176,46.176,0,0,0,.16,7.244,27.459,27.459,0,0,0,1.737,7.356,15.569,15.569,0,0,0,4.816,6.613,13.317,13.317,0,0,0,3.755,2.032l.5.169.469.13.936.253c.631.146,1.271.27,1.913.374a20.835,20.835,0,0,0,7.806-.315,21.96,21.96,0,0,0,7.1-3.081,25.987,25.987,0,0,0,5.66-5.043,33.581,33.581,0,0,0,6.712-13.114,38.775,38.775,0,0,0,1.208-7.227c.084-1.215.118-2.436.093-3.677-.047-1.228-.122-2.452-.28-3.654a58.486,58.486,0,0,0-3.611-13.811q-1.267-3.3-2.807-6.462-.769-1.583-1.6-3.136c-.564-1.048-1.114-2.037-1.778-3.12l-1.125,3.954c.415-.212.693-.368,1.014-.555s.611-.362.912-.546c.6-.371,1.174-.756,1.744-1.147,1.136-.79,2.224-1.629,3.287-2.5a55.753,55.753,0,0,0,5.9-5.694,57.342,57.342,0,0,0,9.013-13.6,62.2,62.2,0,0,0,4.959-15.478,76.724,76.724,0,0,0,1.195-16.1,2.77,2.77,0,0,0-5.538.157v0a71.158,71.158,0,0,1-1.1,14.922,56.712,56.712,0,0,1-4.516,14.113,51.822,51.822,0,0,1-8.14,12.286,50.229,50.229,0,0,1-5.3,5.115c-.949.774-1.918,1.522-2.915,2.215-.5.343-1,.678-1.51.993l-.758.455c-.24.142-.53.3-.692.382l-.033.018a2.794,2.794,0,0,0-1.187,3.769c.028.055.063.115.1.168.522.854,1.081,1.849,1.591,2.8s1.017,1.945,1.5,2.933c.958,1.977,1.837,3.991,2.622,6.033a53.1,53.1,0,0,1,3.282,12.488c.139,1.05.2,2.1.242,3.136.02,1.031-.009,2.083-.081,3.133a33.165,33.165,0,0,1-1.034,6.194,28.057,28.057,0,0,1-5.583,10.957,20.429,20.429,0,0,1-4.471,4,16.461,16.461,0,0,1-5.329,2.321,15.27,15.27,0,0,1-5.727.23c-.478-.079-.955-.171-1.429-.28l-.708-.193-.352-.095-.306-.1a7.751,7.751,0,0,1-2.213-1.194,10.058,10.058,0,0,1-3.064-4.3,21.969,21.969,0,0,1-1.365-5.869,40.56,40.56,0,0,1-.135-6.366c.055-1.074.146-2.15.27-3.221.121-1.053.284-2.178.467-3.129l.006-.029a2.778,2.778,0,0,0-1.046-2.735,47.062,47.062,0,0,1-10.928-11.309,35.418,35.418,0,0,1-5.552-14.278,43.3,43.3,0,0,1,.6-15.5c.262-1.293.571-2.584.937-3.863s.75-2.561,1.194-3.825a68.719,68.719,0,0,1,3.044-7.443l.038-.08a1.39,1.39,0,0,0-2.313-1.5" transform="translate(-965.221 -1122.575)" fill="#371a45"/>
        <path id="Trazado_8147" data-name="Trazado 8147" d="M416.482,585.725s-11.871,12.267-12.1,15.638c-.422,6.252,13.787,35.151,24.971,39.17,4.379,1.574,27.59-5.943,27.59-5.943Z" transform="translate(-343.699 -497.837)" fill="#fff"/>
        <g id="Grupo_4039" data-name="Grupo 4039" transform="translate(72.228 111.718)" opacity="0.2">
          <g id="Grupo_4038" data-name="Grupo 4038">
            <g id="Grupo_4037" data-name="Grupo 4037" clip-path="url(#clip-path-43)">
              <path id="Trazado_8148" data-name="Trazado 8148" d="M522.382,769.578s-23.211,7.515-27.589,5.94-9.2-6.93-13.429-13.257c.344.1,11.22,3.145,20.273-17.683,0-.011.012-.025.016-.037Z" transform="translate(-481.363 -744.542)" fill="#371a45"/>
            </g>
          </g>
        </g>
        <path id="Trazado_8149" data-name="Trazado 8149" d="M1328.685,254.638s20.6-13.077,22.178-17.453c1.578-4.36.532-11.5-1.639-18.8l0-.006c-3.384-11.391-9.49-23.179-12.59-25.413-2.741-1.976-19.761-.665-19.761-.665l5.76,30.4Z" transform="translate(-1119.279 -163.084)" fill="#fff"/>
        <g id="Grupo_4042" data-name="Grupo 4042" transform="translate(203.356 55.301)" opacity="0.2">
          <g id="Grupo_4041" data-name="Grupo 4041">
            <g id="Grupo_4040" data-name="Grupo 4040" clip-path="url(#clip-path-44)">
              <path id="Trazado_8150" data-name="Trazado 8150" d="M1361.313,404.8s20.6-13.077,22.177-17.453c1.578-4.36.532-11.5-1.639-18.8-.14.332-4.737,10.646-26.551,4.328-.011,0-.027-.007-.039-.011Z" transform="translate(-1355.263 -368.55)" fill="#371a45"/>
            </g>
          </g>
        </g>
        <path id="Trazado_8151" data-name="Trazado 8151" d="M415.319,619.973a7.9,7.9,0,0,1-2.569-.335c-12.508-4.494-27.277-34.862-26.8-41.963.257-3.813,8.175-12.525,12.872-17.378l2.151-2.223,45.039,54.392-3.883,1.258c-6.268,2.03-20.106,6.249-26.812,6.249M391.476,578.12c-.2,5.183,13.266,32.754,23.148,36.3,2.062.579,12.274-1.831,21.89-4.746L400.677,566.4c-4.443,4.8-8.762,10.1-9.2,11.721" transform="translate(-328.031 -474.335)" fill="#371a45"/>
        <path id="Trazado_8152" data-name="Trazado 8152" d="M1308.048,243.343l-13.143-69.385,3.084-.238c6.732-.52,18.494-1.058,21.595,1.178,5.773,4.162,19.732,34.911,15.211,47.409-1.719,4.753-16.867,14.765-23.3,18.848Zm-6.542-64.3,10.458,55.208c8.381-5.545,16.758-11.874,17.63-13.846,3.563-9.853-9.071-37.818-13.192-40.968-1.529-.7-8.365-.752-14.9-.394" transform="translate(-1100.605 -147.263)" fill="#371a45"/>
        <path id="Trazado_8153" data-name="Trazado 8153" d="M997.674,592.246l.117.249.1-.2Z" transform="translate(-847.974 -503.38)" fill="#d8d8d8"/>
        <path id="Trazado_8154" data-name="Trazado 8154" d="M999.125,591.458l.216.048-.117-.249Z" transform="translate(-849.207 -502.54)" fill="#d8d8d8"/>
        <path id="Trazado_8155" data-name="Trazado 8155" d="M471.945,124.1a74.005,74.005,0,1,0,35.493-98.457A74,74,0,0,0,471.945,124.1" transform="translate(-395.14 -15.803)" fill="#fff"/>
        <path id="Trazado_8156" data-name="Trazado 8156" d="M486.9,302.779a74.007,74.007,0,1,0,127.59-73.96A74.018,74.018,0,0,1,482.5,290.864a73.954,73.954,0,0,0,4.4,11.915" transform="translate(-410.099 -194.485)" fill="#e5e5e5"/>
        <path id="Trazado_8157" data-name="Trazado 8157" d="M523.4,153.865a76.978,76.978,0,0,1-69.531-44.156h0A76.651,76.651,0,1,1,523.4,153.865M523.245,5.818a71.227,71.227,0,0,0-64.358,101.535h0A71.235,71.235,0,1,0,523.245,5.818" transform="translate(-379.575 -0.236)" fill="#371a45"/>
        <path id="Trazado_8158" data-name="Trazado 8158" d="M523.4,153.865a76.978,76.978,0,0,1-69.531-44.156h0A76.651,76.651,0,1,1,523.4,153.865M523.245,5.818a71.227,71.227,0,0,0-64.358,101.535h0A71.235,71.235,0,1,0,523.245,5.818" transform="translate(-379.575 -0.236)" fill="#371a45"/>
        <path id="Trazado_8159" data-name="Trazado 8159" d="M523.4,153.865a76.978,76.978,0,0,1-69.531-44.156h0A76.651,76.651,0,1,1,523.4,153.865M523.245,5.818a71.227,71.227,0,0,0-64.358,101.535h0A71.235,71.235,0,1,0,523.245,5.818" transform="translate(-379.575 -0.236)" fill="#371a45"/>
        <path id="Trazado_8160" data-name="Trazado 8160" d="M523.048,153.6a76.661,76.661,0,0,1-58.966-27.609c-.042-.044-.082-.09-.121-.137A76.784,76.784,0,1,1,588.446,36.583a75.876,75.876,0,0,1,4.093,7.57,76.824,76.824,0,0,1,5.984,18.456q.015.085.026.17a76.822,76.822,0,0,1-75.5,90.823m-54.794-31.256a71.253,71.253,0,0,0,124.821-58.7c-.01-.055-.019-.111-.026-.168a71.258,71.258,0,0,0-5.523-16.967,70.385,70.385,0,0,0-3.8-7.023A71.236,71.236,0,0,0,455.6,99.724a72.026,72.026,0,0,0,2.986,7.391h0a71.515,71.515,0,0,0,9.529,15.077c.046.049.091.1.134.153" transform="translate(-379.276 -0.001)" fill="#371a45"/>
        <path id="Trazado_8161" data-name="Trazado 8161" d="M455.388,96.877a1.876,1.876,0,0,1-1.845-1.549A75.9,75.9,0,0,1,586.075,32.985,1.876,1.876,0,0,1,583.4,35.6c-22.1-19.536-54.3-23.735-82.035-10.7-27.755,13.046-45.068,40.535-44.1,70.031a1.876,1.876,0,0,1-1.681,1.926,1.832,1.832,0,0,1-.2.01m72.839-86.811a72.09,72.09,0,0,0-70.709,58.146A81.652,81.652,0,0,1,562.663,18.765a72.531,72.531,0,0,0-34.436-8.7" transform="translate(-384.508 -5.369)" fill="#371a45"/>
        <path id="Trazado_8162" data-name="Trazado 8162" d="M492.794,210.571a74.222,74.222,0,0,0,10.011,15.8.006.006,0,0,1,.009,0c22.169,16.986,55.924,24.7,84.48,11.278s44.147-44.333,45.213-72.241a.007.007,0,0,1,0-.009,73.926,73.926,0,0,0-5.768-17.789,72.98,72.98,0,0,0-3.947-7.3c-20.786-20.753-55.666-26.443-86.806-11.806s-49.02,45.143-46.3,74.392a74.236,74.236,0,0,0,3.1,7.676" transform="translate(-415.984 -102.277)" fill="#371a45"/>
        <g id="Grupo_4045" data-name="Grupo 4045" transform="translate(73.678 52.442)" opacity="0.35">
          <g id="Grupo_4044" data-name="Grupo 4044">
            <g id="Grupo_4043" data-name="Grupo 4043" clip-path="url(#clip-path-45)">
              <path id="Trazado_8163" data-name="Trazado 8163" d="M494.156,405.359a74.256,74.256,0,0,0,10.01,15.8.007.007,0,0,1,.01,0c22.169,16.986,55.923,24.7,84.479,11.277S632.8,388.1,633.87,360.195a.006.006,0,0,1,0-.009,73.72,73.72,0,0,0-2.861-10.681c-7.086,23.929-23.151,46.466-47.459,57.892-30.968,14.557-67.3,7.315-92.526-10.1.009.131.015.255.03.382a74.238,74.238,0,0,0,3.1,7.676" transform="translate(-491.026 -349.504)" fill="#111a28"/>
            </g>
          </g>
        </g>
        <g id="Grupo_4048" data-name="Grupo 4048" transform="translate(185.847 46.44)" opacity="0.5">
          <g id="Grupo_4047" data-name="Grupo 4047">
            <g id="Grupo_4046" data-name="Grupo 4046" clip-path="url(#clip-path-46)">
              <path id="Trazado_8164" data-name="Trazado 8164" d="M1238.651,323.39c.674,7.169,5.432,12.585,10.626,12.1s8.859-6.7,8.185-13.865-5.432-12.585-10.626-12.1-8.859,6.7-8.185,13.865" transform="translate(-1238.571 -309.495)" fill="#fff"/>
            </g>
          </g>
        </g>
        <g id="Grupo_4051" data-name="Grupo 4051" transform="translate(186.015 81.459)" opacity="0.5">
          <g id="Grupo_4050" data-name="Grupo 4050">
            <g id="Grupo_4049" data-name="Grupo 4049" clip-path="url(#clip-path-47)">
              <path id="Trazado_8165" data-name="Trazado 8165" d="M1239.7,548.63c-.148,3.3,2.029,6.081,4.862,6.209s5.251-2.446,5.4-5.749-2.028-6.081-4.862-6.208-5.25,2.446-5.4,5.748" transform="translate(-1239.689 -542.878)" fill="#fff"/>
            </g>
          </g>
        </g>
        <g id="Grupo_4054" data-name="Grupo 4054" transform="translate(90.16 33.554)" opacity="0.5">
          <g id="Grupo_4053" data-name="Grupo 4053">
            <g id="Grupo_4052" data-name="Grupo 4052" clip-path="url(#clip-path-48)">
              <path id="Trazado_8166" data-name="Trazado 8166" d="M614.851,307.61s-24.086-33.22-9.033-54.713,43.857-31.073,43.8-29c0,0-29.282,18.386-33.315,47.753-3.109,22.647-1.454,35.962-1.454,35.962" transform="translate(-600.868 -223.619)" fill="#fff"/>
            </g>
          </g>
        </g>
        <path id="Trazado_8167" data-name="Trazado 8167" d="M1298.851,1207.431c.907,6.08,8.58,8.109,8.58,8.109s30.172,3.047,40.538-9.923c8.912-12.292-3.31-21.107-3.31-21.107a26.354,26.354,0,0,1-4.785,3.857c-5.63,3.691-16.384,8.594-33.1,7.784,0,0-7.562,2.493-8,9.542a8.413,8.413,0,0,0,.076,1.738" transform="translate(-1103.882 -1006.775)" fill="#fff"/>
        <g id="Grupo_4057" data-name="Grupo 4057" transform="translate(194.968 177.735)" opacity="0.2">
          <g id="Grupo_4056" data-name="Grupo 4056">
            <g id="Grupo_4055" data-name="Grupo 4055" clip-path="url(#clip-path-49)">
              <path id="Trazado_8168" data-name="Trazado 8168" d="M1299.365,1207.431c.907,6.08,8.58,8.109,8.58,8.109s30.172,3.047,40.538-9.923c8.912-12.292-3.31-21.107-3.31-21.107a26.361,26.361,0,0,1-4.785,3.857c.45,6.544-1.046,14.8-10.069,18.69-9.93,4.286-23.448,2.8-30.954.374" transform="translate(-1299.364 -1184.51)" fill="#371a45"/>
            </g>
          </g>
        </g>
        <path id="Trazado_8169" data-name="Trazado 8169" d="M1299.38,1202.959c-4.431,0-7.524-.3-7.917-.336a2.785,2.785,0,0,1-.43-.078c-3.912-1.035-11.186-5.021-10.708-12.7.545-8.817,9.512-11.871,9.894-12a2.767,2.767,0,0,1,1-.136c24.568,1.188,35.582-10.612,35.691-10.731a2.784,2.784,0,0,1,3.677-.392c.26.187,6.352,4.655,7.523,11.934.708,4.4-.5,8.79-3.583,13.049-.026.036-.052.071-.08.1-7.781,9.732-24.926,11.284-35.067,11.285m-7.122-5.827c2.787.237,28.934,2.139,37.822-8.867,5.312-7.384,1.489-13.092-1.057-15.7-4.455,3.731-16.41,11.576-37.489,10.708-1.341.563-5.415,2.62-5.681,6.916-.287,4.628,5.29,6.6,6.4,6.946" transform="translate(-1088.194 -991.1)" fill="#371a45"/>
        <path id="Trazado_8170" data-name="Trazado 8170" d="M1163.563,1697.369c-17.627,0-21.83-15.713-21.871-15.874a2.077,2.077,0,1,1,4.026-1.024c.138.527,3.617,13.092,18.415,12.736,8.6-.188,13.09-5.077,16.7-9.006,2.5-2.723,4.658-5.076,7.638-5.291a2.077,2.077,0,0,1,.3,4.144c-1.333.1-2.975,1.885-4.876,3.956-3.921,4.272-9.291,10.123-19.666,10.35q-.333.007-.661.007" transform="translate(-970.326 -1426.986)" fill="#371a45"/>
        <path id="Trazado_8171" data-name="Trazado 8171" d="M1268.455,1863.365a21.41,21.41,0,0,1-6.655,2.73,27.794,27.794,0,0,1-7.2.789,23.393,23.393,0,0,1-7.018-1.2,24.594,24.594,0,0,1-6.237-3.212l-.049-.035a2.079,2.079,0,0,0-2.395,3.4c.036.025.077.052.114.075a28.479,28.479,0,0,0,7.545,3.262,26.755,26.755,0,0,0,8.076.821,30.629,30.629,0,0,0,7.876-1.406,23.565,23.565,0,0,0,7.192-3.566,1.038,1.038,0,0,0-1.194-1.7Z" transform="translate(-1052.251 -1582.661)" fill="#371a45"/>
        <path id="Trazado_8172" data-name="Trazado 8172" d="M1528.895,2460.785a21.213,21.213,0,0,0-4.3,3,34.289,34.289,0,0,0-3.553,3.632,33.632,33.632,0,0,0-2.985,4.112,20.913,20.913,0,0,0-2.227,4.751,20.964,20.964,0,0,0,4.308-3,33.746,33.746,0,0,0,3.55-3.636,34.32,34.32,0,0,0,2.981-4.115,21.189,21.189,0,0,0,2.23-4.748" transform="translate(-1288.378 -2091.546)" fill="#371a45"/>
      </g>
    </g>
  </g>
</svg>
