<svg xmlns="http://www.w3.org/2000/svg" xmlns:xlink="http://www.w3.org/1999/xlink" width="319.594" height="383.518" viewBox="0 0 319.594 383.518">
  <defs>
    <clipPath id="clip-path">
      <rect id="Rectángulo_514" data-name="Rectángulo 514" width="262.266" height="235.275" fill="none"/>
    </clipPath>
    <clipPath id="clip-path-3">
      <rect id="Rectángulo_507" data-name="Rectángulo 507" width="54.603" height="89.806" fill="none"/>
    </clipPath>
    <clipPath id="clip-path-4">
      <rect id="Rectángulo_508" data-name="Rectángulo 508" width="210.129" height="112.336" fill="none"/>
    </clipPath>
    <clipPath id="clip-path-5">
      <rect id="Rectángulo_509" data-name="Rectángulo 509" width="247.633" height="154.514" fill="none"/>
    </clipPath>
    <clipPath id="clip-path-6">
      <rect id="Rectángulo_510" data-name="Rectángulo 510" width="142.25" height="55.927" fill="none"/>
    </clipPath>
    <clipPath id="clip-path-7">
      <rect id="Rectángulo_511" data-name="Rectángulo 511" width="139.225" height="97.182" fill="none"/>
    </clipPath>
    <clipPath id="clip-path-8">
      <rect id="Rectángulo_512" data-name="Rectángulo 512" width="68.562" height="46.22" fill="none"/>
    </clipPath>
    <clipPath id="clip-path-9">
      <rect id="Rectángulo_585" data-name="Rectángulo 585" width="83.457" height="79.844" fill="none"/>
    </clipPath>
    <clipPath id="clip-path-11">
      <rect id="Rectángulo_580" data-name="Rectángulo 580" width="53.907" height="72.275" fill="none"/>
    </clipPath>
    <clipPath id="clip-path-12">
      <rect id="Rectángulo_581" data-name="Rectángulo 581" width="51.33" height="75.943" fill="none"/>
    </clipPath>
    <clipPath id="clip-path-13">
      <rect id="Rectángulo_582" data-name="Rectángulo 582" width="15.828" height="16.116" fill="none"/>
    </clipPath>
    <clipPath id="clip-path-14">
      <rect id="Rectángulo_583" data-name="Rectángulo 583" width="8.115" height="5.745" fill="none"/>
    </clipPath>
  </defs>
  <g id="_04" data-name="04" transform="translate(-1665.755 -2632.304)">
    <g id="Grupo_3672" data-name="Grupo 3672" transform="translate(1665.755 2708.983) rotate(-17)">
      <g id="Grupo_3671" data-name="Grupo 3671" clip-path="url(#clip-path)">
        <g id="Grupo_3670" data-name="Grupo 3670">
          <g id="Grupo_3669" data-name="Grupo 3669" clip-path="url(#clip-path)">
            <path id="Trazado_7770" data-name="Trazado 7770" d="M201.731,545.972c-.1,25.067,27.3,47.693,49.066,40.518" transform="translate(-144.367 -390.719)" fill="#00edfa"/>
            <path id="Trazado_7771" data-name="Trazado 7771" d="M52.592,318.6c-11.144,23.351,4.317,40.372,23.342,43.433" transform="translate(-34.955 -227.999)" fill="#00edfa"/>
            <path id="Trazado_7772" data-name="Trazado 7772" d="M514.521,753.063c-20.823,15.358-40.46,3.4-47.063-14.707" transform="translate(-334.531 -528.397)" fill="#00edfa"/>
            <path id="Trazado_7773" data-name="Trazado 7773" d="M26.7,221.749Q72.661,368.526,225.5,385.913" transform="translate(-19.109 -158.692)" fill="#f9df1d"/>
            <path id="Trazado_7774" data-name="Trazado 7774" d="M98.823,174.585A446.348,446.348,0,0,1,57.69,135.145C-34.8,33.216,29.865-19.277,118.6,31.922L230.467,124.3l4.706,3.882c75.242,86.929,16.564,168.754-136.351,46.408" transform="translate(-9.028 -8.626)" fill="#00edfa"/>
            <g id="Grupo_3653" data-name="Grupo 3653" transform="translate(40.477 29.751)" opacity="0.66">
              <g id="Grupo_3652" data-name="Grupo 3652">
                <g id="Grupo_3651" data-name="Grupo 3651" clip-path="url(#clip-path-3)">
                  <path id="Trazado_7775" data-name="Trazado 7775" d="M152.135,104.623s-17.586,9.458-5.621,37.244,33.612,56.022,46.584,52.215-10.506-22.065-16.534-44.556-6.573-44.763-16.241-42.564" transform="translate(-142.344 -104.623)" fill="#fff"/>
                </g>
              </g>
            </g>
            <g id="Grupo_3656" data-name="Grupo 3656" transform="translate(48.662 115.67)" opacity="0.2" style="mix-blend-mode: color-burn;isolation: isolate">
              <g id="Grupo_3655" data-name="Grupo 3655">
                <g id="Grupo_3654" data-name="Grupo 3654" clip-path="url(#clip-path-4)">
                  <path id="Trazado_7776" data-name="Trazado 7776" d="M212.262,457.061a446.343,446.343,0,0,1-41.133-39.441c77.7,60.356,185.659,88.564,195.341,63.867,9.7-24.725-22.806-59.417-22.806-59.417l.242-15.3,4.706,3.882c75.242,86.929,16.564,168.754-136.351,46.408" transform="translate(-171.129 -406.772)" fill="#2c097d"/>
                </g>
              </g>
            </g>
            <g id="Grupo_3659" data-name="Grupo 3659" transform="translate(3.593 3.426)" opacity="0.82">
              <g id="Grupo_3658" data-name="Grupo 3658">
                <g id="Grupo_3657" data-name="Grupo 3657" clip-path="url(#clip-path-5)">
                  <path id="Trazado_7777" data-name="Trazado 7777" d="M260.269,166.563a164.606,164.606,0,0,0-21.725-31.408L121.971,38.885C50.866-2.134-4.783,23.416,23.482,87.638c-35.545-69.3,21.512-98.2,95.133-55.72l116.574,96.256c11.374,13.152,19.692,26.175,25.081,38.389" transform="translate(-12.636 -12.049)" fill="#fff"/>
                </g>
              </g>
            </g>
            <path id="Trazado_7778" data-name="Trazado 7778" d="M100.748,225.737a2.133,2.133,0,0,1-.884-4.075c30.115-13.681,56.645-9.937,57.759-9.771a2.133,2.133,0,0,1-.628,4.219c-.261-.038-26.45-3.7-55.367,9.436a2.125,2.125,0,0,1-.881.192" transform="translate(-70.571 -151.214)" fill="#2c097d"/>
            <path id="Trazado_7779" data-name="Trazado 7779" d="M162.295,97.021c-4.432.423-8.234-1.434-8.493-4.147s3.124-5.256,7.555-5.678,8.234,1.434,8.493,4.147-3.124,5.256-7.555,5.678" transform="translate(-110.057 -62.357)" fill="#f9df1d"/>
            <path id="Trazado_7780" data-name="Trazado 7780" d="M794,604.6c.423,4.432,2.965,7.814,5.678,7.555s4.57-4.061,4.147-8.493-2.965-7.814-5.678-7.555-4.57,4.061-4.147,8.493" transform="translate(-568.174 -426.586)" fill="#f9df1d"/>
            <path id="Trazado_7781" data-name="Trazado 7781" d="M391.24,463.071a7.3,7.3,0,1,1-.98-10.274,7.3,7.3,0,0,1,.98,10.274" transform="translate(-270.737 -322.843)" fill="#f9df1d"/>
            <path id="Trazado_7782" data-name="Trazado 7782" d="M155.672,93.847c-5.024,0-9.015-2.535-9.359-6.138a6.364,6.364,0,0,1,2.86-5.606,13.2,13.2,0,0,1,6.615-2.4c5.693-.54,10.442,2.123,10.818,6.067a6.365,6.365,0,0,1-2.86,5.606,13.215,13.215,0,0,1-6.615,2.4c-.494.047-.982.07-1.459.07m1.6-9.948q-.517,0-1.074.052a9.05,9.05,0,0,0-4.458,1.562c-.787.592-1.227,1.261-1.177,1.791.108,1.138,2.566,2.571,6.167,2.227a9.048,9.048,0,0,0,4.458-1.562c.787-.592,1.227-1.262,1.177-1.791-.1-1.021-2.085-2.279-5.093-2.279" transform="translate(-104.691 -56.99)" fill="#2c097d"/>
            <path id="Trazado_7783" data-name="Trazado 7783" d="M360.2,163.833c25.5,15.562,42.106,18.82,51.267,18.956a15.891,15.891,0,0,0,13.029-6.57c17.4-23.792,19.464-46.555,15.567-65.418a82.38,82.38,0,0,0-79.227-65.425c-19.259-.259-41.22,6.075-61.294,27.657a15.89,15.89,0,0,0-3.988,14.037c1.866,8.97,8.2,24.658,28.308,46.757A166.131,166.131,0,0,0,360.2,163.833" transform="translate(-211.277 -32.467)" fill="#f9df1d"/>
            <g id="Grupo_3662" data-name="Grupo 3662" transform="translate(83.952 12.895)" opacity="0.66">
              <g id="Grupo_3661" data-name="Grupo 3661">
                <g id="Grupo_3660" data-name="Grupo 3660" clip-path="url(#clip-path-6)">
                  <path id="Trazado_7784" data-name="Trazado 7784" d="M437.482,101.273A82.675,82.675,0,0,0,382.9,56.728a56.884,56.884,0,0,1-42.156.9c-12.526,3.81-25.393,11.3-37.564,24.384A15.893,15.893,0,0,0,299.2,96.041a46.958,46.958,0,0,0,1.308,4.919,59.8,59.8,0,0,1-4.948-13.905,15.893,15.893,0,0,1,3.981-14.033c20.076-21.583,42.043-27.924,61.294-27.668a82.458,82.458,0,0,1,76.649,55.919" transform="translate(-295.232 -45.346)" fill="#fff"/>
                </g>
              </g>
            </g>
            <g id="Grupo_3665" data-name="Grupo 3665" transform="translate(91.231 53.139)" opacity="0.2" style="mix-blend-mode: color-burn;isolation: isolate">
              <g id="Grupo_3664" data-name="Grupo 3664">
                <g id="Grupo_3663" data-name="Grupo 3663" clip-path="url(#clip-path-7)">
                  <path id="Trazado_7785" data-name="Trazado 7785" d="M442.82,277.483a15.867,15.867,0,0,1-13.038,6.569c-9.156-.128-25.763-3.4-51.27-18.953a166.186,166.186,0,0,1-36.327-30c-10.336-11.374-17.047-21.043-21.355-28.976,78.185,91.479,140.048,42.6,127.749-19.251a81.245,81.245,0,0,1,9.81,25.194c3.9,18.867,1.82,41.63-15.569,65.417" transform="translate(-320.829 -186.872)" fill="#2c097d"/>
                </g>
              </g>
            </g>
            <path id="Trazado_7786" data-name="Trazado 7786" d="M402.751,177.4l-.281,0c-9.889-.147-27.123-3.645-53.066-19.476a169.563,169.563,0,0,1-37.113-30.649c-20.452-22.482-27.145-38.743-29.159-48.425A19.475,19.475,0,0,1,288,61.669c18.073-19.431,39.547-29.088,63.944-28.791a86.118,86.118,0,0,1,82.66,68.26c4.927,23.857-.516,46.815-16.179,68.235a19.48,19.48,0,0,1-15.67,8.028m-49.644-25.547c24.574,15,40.464,18.3,49.468,18.437a12.516,12.516,0,0,0,10.108-5.114c14.428-19.732,19.459-40.794,14.956-62.6a78.964,78.964,0,0,0-75.793-62.59c-22.269-.283-42,8.624-58.643,26.523a12.351,12.351,0,0,0-3.11,10.892c1.834,8.816,8.085,23.794,27.457,45.089a162.452,162.452,0,0,0,35.558,29.364" transform="translate(-202.335 -23.524)" fill="#2c097d"/>
            <path id="Trazado_7787" data-name="Trazado 7787" d="M670,579.7a2.135,2.135,0,0,1-2.076-2.633c7.432-30.88-1.116-55.9-1.2-56.154a2.133,2.133,0,0,1,4.025-1.414c.374,1.063,9.066,26.4,1.326,58.565A2.134,2.134,0,0,1,670,579.7" transform="translate(-477.045 -370.754)" fill="#2c097d"/>
            <path id="Trazado_7788" data-name="Trazado 7788" d="M794.022,608.931a6.526,6.526,0,0,1-5.116-2.884,13.206,13.206,0,0,1-2.4-6.615c-.543-5.69,2.122-10.443,6.068-10.819a6.35,6.35,0,0,1,5.605,2.86,13.2,13.2,0,0,1,2.4,6.615c.543,5.691-2.122,10.443-6.068,10.819-.163.016-.326.023-.489.023m-3.268-9.9a9.046,9.046,0,0,0,1.562,4.458,2.381,2.381,0,0,0,1.791,1.178c1.138-.108,2.571-2.565,2.227-6.168a9.044,9.044,0,0,0-1.562-4.458c-.592-.789-1.273-1.232-1.79-1.177-1.138.108-2.571,2.566-2.227,6.168" transform="translate(-562.806 -421.217)" fill="#2c097d"/>
            <path id="Trazado_7789" data-name="Trazado 7789" d="M217.259,231.626c-28.947,0-72.058-16.778-129.687-62.886C1.182,95.122-10.664,42.125,7.028,17.052,23.867-6.81,66.768-5.511,111.355,20.21a3.554,3.554,0,1,1-3.552,6.158C66.523,2.555,27.472.408,12.837,21.15-2.32,42.631,9.343,92.737,92.1,163.258c84.812,67.856,136.218,69.834,154.447,50.889,17.6-18.293,8.108-56.235-23.081-92.266a3.554,3.554,0,1,1,5.375-4.653c33.689,38.92,43.076,80.8,22.829,101.848-7.428,7.721-18.882,12.55-34.409,12.551" transform="translate(0 0)" fill="#2c097d"/>
            <path id="Trazado_7790" data-name="Trazado 7790" d="M254.072,239.109c-9.281,0-19.712-1.74-31.1-5.23-28.9-8.856-62.161-28.235-98.868-57.6-35.861-30.562-61.182-59.564-75.346-86.268C36.128,66.2,33.222,45.5,40.356,30.158a3.555,3.555,0,0,1,6.447,3C35.873,56.665,51.629,105.17,128.629,170.8c78.842,63.068,129.425,69.409,150.481,54.283a3.554,3.554,0,0,1,4.833,5.158l-.009.01a3.58,3.58,0,0,1-.6.554c-7.656,5.528-17.539,8.3-29.258,8.3" transform="translate(-26.149 -20.111)" fill="#2c097d"/>
            <path id="Trazado_7791" data-name="Trazado 7791" d="M380.239,462.5a9.458,9.458,0,1,1,.914-.044q-.458.044-.914.044m.022-14.595a5.163,5.163,0,1,0,3.284,1.18,5.156,5.156,0,0,0-3.284-1.18m5.623,9.81h0Z" transform="translate(-265.381 -317.488)" fill="#2c097d"/>
            <path id="Trazado_7792" data-name="Trazado 7792" d="M216.551,380.522a3.505,3.505,0,0,1-.406-.023c-51.4-5.848-94.46-22.847-127.977-50.525S29.818,263.231,14.361,213.866a3.555,3.555,0,1,1,6.784-2.124c30.038,95.928,95.915,150.33,195.8,161.694a3.555,3.555,0,0,1-.4,7.086" transform="translate(-10.16 -149.747)" fill="#2c097d"/>
            <path id="Trazado_7793" data-name="Trazado 7793" d="M233.248,582.453c-7.954,0-16.289-2.878-23.908-8.411-12.457-9.049-20.163-23.238-20.109-37.03a3.555,3.555,0,0,1,3.555-3.541h.014a3.554,3.554,0,0,1,3.541,3.568c-.045,11.547,6.537,23.522,17.178,31.25,8.939,6.493,18.862,8.635,27.22,5.879a3.555,3.555,0,1,1,2.226,6.752,30.953,30.953,0,0,1-9.717,1.533" transform="translate(-135.422 -381.773)" fill="#2c097d"/>
            <path id="Trazado_7794" data-name="Trazado 7794" d="M66.951,356.636a3.622,3.622,0,0,1-.569-.046c-11.836-1.9-21.828-8.617-26.724-17.955-3.3-6.3-5.854-16.7.739-30.519a3.555,3.555,0,0,1,6.416,3.062c-4.216,8.835-4.513,17.188-.859,24.155,3.862,7.364,11.922,12.686,21.557,14.237a3.555,3.555,0,0,1-.56,7.065" transform="translate(-25.968 -219.052)" fill="#2c097d"/>
            <path id="Trazado_7795" data-name="Trazado 7795" d="M486.332,754.724a29.336,29.336,0,0,1-8.477-1.251c-10.1-3.043-18.575-11.583-22.684-22.846a3.555,3.555,0,0,1,6.679-2.437c3.345,9.17,10.095,16.077,18.056,18.477,7.532,2.269,15.679.4,23.558-5.411a3.554,3.554,0,1,1,4.219,5.72c-8.009,5.907-15.336,7.748-21.351,7.748" transform="translate(-325.584 -519.449)" fill="#2c097d"/>
            <g id="Grupo_3668" data-name="Grupo 3668" transform="translate(106.99 36.51)" opacity="0.66">
              <g id="Grupo_3667" data-name="Grupo 3667">
                <g id="Grupo_3666" data-name="Grupo 3666" clip-path="url(#clip-path-8)">
                  <path id="Trazado_7796" data-name="Trazado 7796" d="M415.416,171.662c-14.263,7.214-32,.726-37.654-14.226-2.728-7.217-2.728-15.769,8.183-21.11,21.821-10.681,54.075-10.47,58.517,0,2.812,6.628-11.867,26.648-29.046,35.336" transform="translate(-376.246 -128.394)" fill="#fff"/>
                </g>
              </g>
            </g>
          </g>
        </g>
      </g>
    </g>
    <g id="Grupo_3874" data-name="Grupo 3874" transform="translate(1739.26 2935.977)">
      <g id="Grupo_3873" data-name="Grupo 3873" clip-path="url(#clip-path-9)">
        <g id="Grupo_3872" data-name="Grupo 3872">
          <g id="Grupo_3871" data-name="Grupo 3871" clip-path="url(#clip-path-9)">
            <path id="Trazado_7971" data-name="Trazado 7971" d="M75.935,76.681C66.4,86.229,50.619,87.272,38.13,84.331a42.128,42.128,0,0,1-12.45-4.918C13.856,72.031,14.3,62.125,11.641,56.362s-1.252-14.188-1.252-14.188A16.585,16.585,0,0,1,17.533,30.2c6.9-4.928,9.9-14.685,14.327-17.2,2.067-1.172,7.263-2.255,12.867-2.8,6.458-.626,13.453-.527,16.752,1.033,6.15,2.9,23.4,18.371,26.648,26.8s1.033,25.426-12.191,38.65" transform="translate(-8.025 -7.885)" fill="#d0d8d2"/>
            <g id="Grupo_3861" data-name="Grupo 3861" transform="translate(1.99 1.955)" opacity="0.66">
              <g id="Grupo_3860" data-name="Grupo 3860">
                <g id="Grupo_3859" data-name="Grupo 3859" clip-path="url(#clip-path-11)">
                  <path id="Trazado_7972" data-name="Trazado 7972" d="M63.922,12.654c-3.676-.924-9.459-.914-14.864-.387-5.6.546-10.8,1.629-12.867,2.8-3.805,2.156-6.558,9.648-11.615,14.844q-2.1,8.152-8.9,10.284h-.01a14.014,14.014,0,0,0-.944,4.044s-1.411,8.416,1.252,14.188S18.188,74.1,30.011,81.48c.348.219.705.427,1.073.636a34.259,34.259,0,0,1-5.405-2.7C13.856,72.031,14.3,62.125,11.64,56.362s-1.252-14.188-1.252-14.188A16.585,16.585,0,0,1,17.532,30.2c6.9-4.928,9.9-14.685,14.327-17.2,2.067-1.172,7.263-2.255,12.867-2.8,6.458-.626,13.453-.527,16.752,1.033a21.267,21.267,0,0,1,2.444,1.421" transform="translate(-10.015 -9.84)" fill="#fff"/>
                </g>
              </g>
            </g>
            <g id="Grupo_3864" data-name="Grupo 3864" transform="translate(30.104 1.955)" opacity="0.2">
              <g id="Grupo_3863" data-name="Grupo 3863">
                <g id="Grupo_3862" data-name="Grupo 3862" clip-path="url(#clip-path-12)">
                  <path id="Trazado_7973" data-name="Trazado 7973" d="M189.3,76.681c-9.538,9.548-25.317,10.592-37.806,7.651a73.1,73.1,0,0,0,.785-8.416c0-10.641-3.43-6.928,12.9-11.578s20.689-15.417,16.744-30.291c-3.5-13.165-20.06-21.978-23.836-23.846,6.458-.626,13.453-.527,16.752,1.033,6.15,2.9,23.4,18.371,26.648,26.8s1.033,25.426-12.191,38.65" transform="translate(-151.495 -9.84)" fill="#2c097d"/>
                </g>
              </g>
            </g>
            <path id="Trazado_7974" data-name="Trazado 7974" d="M42.4,79.844c-9.8,0-19.456-2.664-25.8-6.628C7.048,67.245,4.9,59.555,3.337,53.94a32.026,32.026,0,0,0-1.526-4.635C-.932,43.364.209,35.176.38,34.071A18.668,18.668,0,0,1,8.348,20.695c3.379-2.414,5.848-6.264,8.026-9.661,2.145-3.346,4-6.235,6.487-7.646C27.9.532,47.693-1.572,54.3,1.546c6.5,3.066,24.175,18.855,27.66,27.883,3.8,9.839.657,27.472-12.643,40.772-6.9,6.9-16.98,9.642-26.914,9.642m1.4-75.909c-7.291,0-16.245,1.357-18.987,2.911-1.634.926-3.317,3.552-5.1,6.332-2.372,3.7-5.06,7.892-9.062,10.75A14.628,14.628,0,0,0,4.344,34.353a2.087,2.087,0,0,1-.025.256c-.013.078-1.266,7.9,1.1,13.031a35.241,35.241,0,0,1,1.746,5.232c1.545,5.54,3.3,11.819,11.544,16.974,11.651,7.282,35.471,9.87,47.8-2.455,12.862-12.862,14.611-29.1,11.745-36.531C75.186,22.922,58.332,7.845,52.6,5.14c-1.811-.855-5.089-1.206-8.8-1.206M2.359,34.284h0Z" transform="translate(0 0)" fill="#2c097d"/>
            <path id="Trazado_7975" data-name="Trazado 7975" d="M37.752,68.478a24.048,24.048,0,0,1-10.277-2.04c-5.421-2.6-23.107-12.362-23.107-28.762a1.49,1.49,0,1,1,2.981,0c0,14.66,16.392,23.664,21.416,26.074,9.041,4.339,26.769.526,34.571-10.106,8.072-11,7.256-20.118-3.12-34.841C50.05,4.379,37.585,7.432,37.058,7.57a1.49,1.49,0,0,1-.766-2.88c.6-.161,14.954-3.788,26.36,12.4C73.8,32.9,74.633,43.285,65.739,55.407c-6.35,8.654-18.117,13.071-27.987,13.071" transform="translate(-3.5 -3.392)" fill="#2c097d"/>
            <path id="Trazado_7976" data-name="Trazado 7976" d="M331.506,233.961a1.481,1.481,0,0,1-.8-.236c-.347-.223-8.543-5.544-12-13.47a1.49,1.49,0,0,1,2.732-1.191c3.09,7.084,10.8,12.1,10.878,12.153a1.491,1.491,0,0,1-.807,2.744" transform="translate(-255.272 -174.816)" fill="#2c097d"/>
            <path id="Trazado_7977" data-name="Trazado 7977" d="M177.593,328.43a1.49,1.49,0,0,1-1.479-1.327,33.972,33.972,0,0,1,1.914-14.953,1.49,1.49,0,0,1,2.765,1.113,31.493,31.493,0,0,0-1.717,13.513,1.491,1.491,0,0,1-1.483,1.654" transform="translate(-140.977 -249.374)" fill="#2c097d"/>
            <path id="Trazado_7978" data-name="Trazado 7978" d="M100.111,158.237c-5.066,9.128-18.8,4.94-18.3-5.393.67-10.332,14.775-12.931,18.787-3.3a1.066,1.066,0,0,1-1.948.858,7.48,7.48,0,0,0-8.114-4.017c-7.217,1.459-7.779,11.6-.779,13.865a7.492,7.492,0,0,0,8.512-3.08,1.066,1.066,0,0,1,1.839,1.073" transform="translate(-65.547 -115.021)" fill="#2c097d"/>
            <g id="Grupo_3867" data-name="Grupo 3867" transform="translate(17.734 29.847)" opacity="0.2">
              <g id="Grupo_3866" data-name="Grupo 3866">
                <g id="Grupo_3865" data-name="Grupo 3865" clip-path="url(#clip-path-13)">
                  <path id="Trazado_7979" data-name="Trazado 7979" d="M105.072,154.295a8.442,8.442,0,0,0-3.935-.964,8.549,8.549,0,0,0-7.293,12.986,8.539,8.539,0,1,1,11.227-12.022" transform="translate(-89.244 -150.201)" fill="#2c097d"/>
                </g>
              </g>
            </g>
            <path id="Trazado_7980" data-name="Trazado 7980" d="M164.282,80.168a3.34,3.34,0,0,0-2.193.727,2.21,2.21,0,0,0,1.038,3.41,8.792,8.792,0,0,0,5.244.089,3.211,3.211,0,0,0,1.79-1.065,1.936,1.936,0,0,0-.636-1.782,6.8,6.8,0,0,0-2.266-1.439.708.708,0,0,1,.468-1.335,7.619,7.619,0,0,1,2.97,1.552c2.386,2.267,1.431,5.083-1.763,5.918-3.049.917-8.15.811-9.021-3.026a3.5,3.5,0,0,1,2.748-4.38c.748-.1,2.375-.477,2.371.7a.715.715,0,0,1-.751.634" transform="translate(-128.063 -63.062)" fill="#2c097d"/>
            <path id="Trazado_7981" data-name="Trazado 7981" d="M246.311,145.233c-1.084,1.387-2.448,3.165-.77,4.264,1.357.863,3.681,1.285,4.709-.16a3.182,3.182,0,0,0,.346-3.264.711.711,0,0,1,1.2-.756,4.491,4.491,0,0,1-4.985,6.792c-4.8-1.044-5.011-5.075-1.458-7.924a.712.712,0,0,1,.957,1.049" transform="translate(-194.649 -115.4)" fill="#2c097d"/>
            <path id="Trazado_7982" data-name="Trazado 7982" d="M70.327,310.088c.355-3.785,5.215-2.473,5.833.467.2.856.27,3.18-1.074,2.858a.743.743,0,0,1-.455-.8,2.832,2.832,0,0,0-1.087-2.557,2.31,2.31,0,0,0-1.1-.433c-.312-.018-.568.427-.714.693a.715.715,0,0,1-1.4-.231" transform="translate(-56.351 -246.6)" fill="#2c097d"/>
            <path id="Trazado_7983" data-name="Trazado 7983" d="M179.8,269.863c-1.593.99-2.74,2.175-.716,3.12,1.156.492,3.47-1.453,2.91-2.66a.714.714,0,0,1,1.173-.8,2.567,2.567,0,0,1,.378,2.269c-.776,2.929-4.926,4.536-6.863,1.775a2.813,2.813,0,0,1,.869-4.159c.69-.386,2.094-1.515,2.6-.4a.716.716,0,0,1-.347.857" transform="translate(-141.086 -215.168)" fill="#2c097d"/>
            <path id="Trazado_7984" data-name="Trazado 7984" d="M224.815,331.481c-2.015-.07-4.784.544-4.762,2.693,1.067,2.167,5.834,1.827,6.909-.287a1.776,1.776,0,0,0-.158-1.774.706.706,0,0,1,1.155-.8,3.273,3.273,0,0,1,.725,1.523c.431,4.723-6.68,6.084-9.618,3.333-2.479-2.4.281-5.888,3.08-6.115.859-.055,3.571-.518,3.441.837a.715.715,0,0,1-.772.591" transform="translate(-174.761 -264.37)" fill="#2c097d"/>
            <path id="Trazado_7985" data-name="Trazado 7985" d="M306.493,269.234c-2.725-3.754-6.836,2.1-3.354,3.977a.714.714,0,0,1-.354,1.375c-2.981-.575-3.677-4.659-1.822-6.75,1.268-1.7,3.984-2.43,5.622-.85.548.569,1.879,1.876.81,2.516a.722.722,0,0,1-.9-.268" transform="translate(-240.336 -213.232)" fill="#2c097d"/>
            <g id="Grupo_3870" data-name="Grupo 3870" transform="translate(31.873 16.445)" opacity="0.2">
              <g id="Grupo_3869" data-name="Grupo 3869">
                <g id="Grupo_3868" data-name="Grupo 3868" clip-path="url(#clip-path-14)">
                  <path id="Trazado_7986" data-name="Trazado 7986" d="M163.35,88.5s-4.814-3.592-2.152-4.9,7.313-.7,7.313-.7-6.6.825-5.161,5.6" transform="translate(-160.396 -82.757)" fill="#2c097d"/>
                </g>
              </g>
            </g>
          </g>
        </g>
      </g>
    </g>
  </g>
</svg>
