<svg xmlns="http://www.w3.org/2000/svg" xmlns:xlink="http://www.w3.org/1999/xlink" width="359.843" height="584.498" viewBox="0 0 359.843 584.498">
  <defs>
    <clipPath id="clip-path">
      <rect id="Rectángulo_663" data-name="Rectángulo 663" width="188.137" height="240.821" fill="none"/>
    </clipPath>
    <clipPath id="clip-path-3">
      <rect id="Rectángulo_654" data-name="Rectángulo 654" width="34.699" height="43.029" fill="none"/>
    </clipPath>
    <clipPath id="clip-path-4">
      <rect id="Rectángulo_655" data-name="Rectángulo 655" width="64.614" height="38.608" fill="none"/>
    </clipPath>
    <clipPath id="clip-path-5">
      <rect id="Rectángulo_656" data-name="Rectángulo 656" width="137.338" height="159.963" fill="none"/>
    </clipPath>
    <clipPath id="clip-path-6">
      <rect id="Rectángulo_657" data-name="Rectángulo 657" width="51.335" height="68.098" fill="none"/>
    </clipPath>
    <clipPath id="clip-path-7">
      <rect id="Rectángulo_658" data-name="Rectángulo 658" width="33.675" height="52.359" fill="none"/>
    </clipPath>
    <clipPath id="clip-path-8">
      <rect id="Rectángulo_659" data-name="Rectángulo 659" width="94.223" height="75.212" fill="none"/>
    </clipPath>
    <clipPath id="clip-path-9">
      <rect id="Rectángulo_660" data-name="Rectángulo 660" width="0.439" height="0.666" fill="none"/>
    </clipPath>
    <clipPath id="clip-path-10">
      <rect id="Rectángulo_661" data-name="Rectángulo 661" width="0.379" height="2.211" fill="none"/>
    </clipPath>
    <clipPath id="clip-path-11">
      <rect id="Rectángulo_671" data-name="Rectángulo 671" width="288.96" height="259.221" fill="none"/>
    </clipPath>
    <clipPath id="clip-path-13">
      <rect id="Rectángulo_664" data-name="Rectángulo 664" width="60.161" height="98.946" fill="none"/>
    </clipPath>
    <clipPath id="clip-path-14">
      <rect id="Rectángulo_665" data-name="Rectángulo 665" width="231.516" height="123.77" fill="none"/>
    </clipPath>
    <clipPath id="clip-path-15">
      <rect id="Rectángulo_666" data-name="Rectángulo 666" width="272.837" height="170.24" fill="none"/>
    </clipPath>
    <clipPath id="clip-path-16">
      <rect id="Rectángulo_667" data-name="Rectángulo 667" width="156.729" height="61.619" fill="none"/>
    </clipPath>
    <clipPath id="clip-path-17">
      <rect id="Rectángulo_668" data-name="Rectángulo 668" width="153.395" height="107.074" fill="none"/>
    </clipPath>
    <clipPath id="clip-path-18">
      <rect id="Rectángulo_669" data-name="Rectángulo 669" width="75.541" height="50.924" fill="none"/>
    </clipPath>
  </defs>
  <g id="_07" data-name="07" transform="translate(115.563 -6714.416)">
    <g id="Grupo_4089" data-name="Grupo 4089" transform="matrix(0.995, 0.105, -0.105, 0.995, 57.173, 6714.416)">
      <g id="Grupo_4088" data-name="Grupo 4088" clip-path="url(#clip-path)">
        <g id="Grupo_4087" data-name="Grupo 4087">
          <g id="Grupo_4086" data-name="Grupo 4086" clip-path="url(#clip-path)">
            <path id="Trazado_8173" data-name="Trazado 8173" d="M11.752,222.844c7.77,23.658,34.806,37.744,59.707,29.974,0,0-14.192,17.236-8.346,43.364,4.756,21.19,17.509,31.292,27.793,28.748a6.1,6.1,0,0,0,3.665-9.012,6.082,6.082,0,0,0,8.5-4.832,15.714,15.714,0,0,0-2.075-8.739,63.865,63.865,0,0,1,9.073,7.134c3.226,3.241,1.515,6.392.409,12.132-.257,1.393-.515,2.817-.863,4.2-7.24,28.9,41.94,28.081,36.836,9.421a18.911,18.911,0,0,0-3.908-6.937,14.86,14.86,0,0,0,2.666-5.362c33.655,6.6,45.787-20.72,26.6-24.113,10.587-25.537-11.466-45.939-29.747-42.8,0,0-1.2-5.392-8.618-10.224.47-.182.939-.394,1.424-.591,12.42-5.6,25.4-19.826,29.293-35.912A36.485,36.485,0,0,0,160,180.979c-4.014-5.256-11.178-8.861-12.844-1.954,0,0-7.3-8.285-13.071-2.514-5.756,5.756-.742,21.583-2.242,30.52-1.515,8.951-12.1,22.538-31.55,27.869,5.241-8.149,10.224-16.313,8.558-24.991-.712-3.726-2.635-7.543-6.3-11.511,0,0-17.13-44.606-51.831-38.865-19.311,3.2-31.6,15.1-37.381,29.111a50.3,50.3,0,0,0-1.59,34.2" transform="translate(4.34 -110.85)" fill="#4cea57"/>
            <g id="Grupo_4064" data-name="Grupo 4064" transform="translate(142.788 171.856)" opacity="0.2">
              <g id="Grupo_4063" data-name="Grupo 4063">
                <g id="Grupo_4062" data-name="Grupo 4062" clip-path="url(#clip-path-3)">
                  <path id="Trazado_8174" data-name="Trazado 8174" d="M39.1,570.253s1.5-5.943,6.537-.9,3.912,25.393,6.181,31.848,18.041,1.555,18.041,1.555-12.956,9.294-21.968,7.323-2.028-10.872-2.028-11.829-10.7-20.672-10.7-20.672" transform="translate(-35.159 -567.323)" fill="#2c097d"/>
                </g>
              </g>
            </g>
            <g id="Grupo_4067" data-name="Grupo 4067" transform="translate(103.88 95.741)" opacity="0.2">
              <g id="Grupo_4066" data-name="Grupo 4066" transform="translate(0)">
                <g id="Grupo_4065" data-name="Grupo 4065" transform="translate(0)" clip-path="url(#clip-path-4)">
                  <path id="Trazado_8175" data-name="Trazado 8175" d="M64.846,346.7s13.647,1.091,18.478,2.923c2.726,1.045,10.421,3.166,16.843,5.044,12.42-5.6,25.4-19.826,29.293-35.912l-1.075-2.7s-16.282,28.46-33.64,28.46-18.554-3.378-18.554-3.378Z" transform="translate(-64.846 -316.056)" fill="#2c097d"/>
                </g>
              </g>
            </g>
            <g id="Grupo_4070" data-name="Grupo 4070" transform="translate(13.671 77.838)" opacity="0.2">
              <g id="Grupo_4069" data-name="Grupo 4069">
                <g id="Grupo_4068" data-name="Grupo 4068" clip-path="url(#clip-path-5)">
                  <path id="Trazado_8176" data-name="Trazado 8176" d="M124.836,291.262c7.77,23.658,34.806,37.745,59.707,29.974,0,0-14.192,17.236-8.346,43.364,4.756,21.19,17.509,31.292,27.793,28.748a6.1,6.1,0,0,0,3.665-9.012,6.082,6.082,0,0,0,8.5-4.832,15.714,15.714,0,0,0-2.075-8.739,63.865,63.865,0,0,1,9.073,7.134c3.226,3.241,1.515,6.392.409,12.132-.257,1.393-.515,2.817-.863,4.2-7.24,28.9,41.94,28.081,36.836,9.421-4.317,2.272-14.192,6.407-22.871,2.5-11.5-5.2-6.377-17.736-4.211-27.945,2.181-10.209,10.224-10.814,10.224-10.814,18.857-13.889,13.435-29.444,13.435-29.444q-28.672,42.3-58.949-12.253s-.227,14.646-.788,15.207,11.92,18.191,11.92,18.191,2.378,14.025-1.333,19.72c-3.726,5.68-17.358-.227-22.416-26.6-5.059-26.354,4.271-31.762,19.266-40.213,12-6.77,16.4-24.295,17.676-31-4.408,16.449-37.305,35.791-66.659,26.612-30.959-9.694-27.915-50.649-27.915-50.649l-.485.106a50.3,50.3,0,0,0-1.59,34.2" transform="translate(-122.567 -256.956)" fill="#2c097d"/>
                </g>
              </g>
            </g>
            <g id="Grupo_4073" data-name="Grupo 4073" transform="translate(133.779 137.636)" opacity="0.66">
              <g id="Grupo_4072" data-name="Grupo 4072" transform="translate(0)">
                <g id="Grupo_4071" data-name="Grupo 4071" clip-path="url(#clip-path-6)">
                  <path id="Trazado_8177" data-name="Trazado 8177" d="M17.162,454.356a41.055,41.055,0,0,1-7.179,3.787c7.422,4.832,8.618,10.224,8.618,10.224,18.282-3.135,40.335,17.267,29.747,42.8,7.407,1.3,10.148,6.18,8.785,11.284,6.695-6.71,5.574-15.752-4.938-17.615,10.587-25.537-11.466-45.939-29.747-42.8,0,0-.818-3.681-5.286-7.679" transform="translate(-9.982 -454.356)" fill="#fff"/>
                </g>
              </g>
            </g>
            <g id="Grupo_4076" data-name="Grupo 4076" transform="translate(135.839 63.769)" opacity="0.66">
              <g id="Grupo_4075" data-name="Grupo 4075" transform="translate(0)">
                <g id="Grupo_4074" data-name="Grupo 4074" transform="translate(0)" clip-path="url(#clip-path-7)">
                  <path id="Trazado_8178" data-name="Trazado 8178" d="M85.865,262.87c9.194-13.117,13.389-30.429,3.968-45.848-4.014-5.256-11.178-8.861-12.844-1.954,0,0-7.3-8.285-13.071-2.514a9.734,9.734,0,0,0-2.439,5.225c5.483-3.393,11.663,3.62,11.663,3.62,1.666-6.907,8.83-3.3,12.844,1.954,7.982,13.056,6.195,27.445-.121,39.517" transform="translate(-61.479 -210.51)" fill="#fff"/>
                </g>
              </g>
            </g>
            <g id="Grupo_4079" data-name="Grupo 4079" transform="translate(19.152 48.323)" opacity="0.66">
              <g id="Grupo_4078" data-name="Grupo 4078">
                <g id="Grupo_4077" data-name="Grupo 4077" clip-path="url(#clip-path-8)">
                  <path id="Trazado_8179" data-name="Trazado 8179" d="M246.8,185.629c6.786-9.482,17.358-16.858,31.913-19.266,34.7-5.74,51.831,38.865,51.831,38.865,9.754,10.557,7.24,20.145,2.03,29.5,7.3-11.42,13.783-22.9,1.818-35.836,0,0-17.13-44.606-51.83-38.865-17.661,2.923-29.46,13.147-35.76,25.6" transform="translate(-246.803 -159.522)" fill="#fff"/>
                </g>
              </g>
            </g>
            <g id="Grupo_4082" data-name="Grupo 4082" transform="translate(104.486 123.535)" opacity="0.66">
              <g id="Grupo_4081" data-name="Grupo 4081" transform="translate(0)">
                <g id="Grupo_4080" data-name="Grupo 4080" clip-path="url(#clip-path-9)">
                  <path id="Trazado_8180" data-name="Trazado 8180" d="M275.135,407.806c-.151.227-.3.439-.439.666.015,0,.045-.015.061-.015.121-.212.257-.424.379-.651" transform="translate(-274.696 -407.806)" fill="#fff"/>
                </g>
              </g>
            </g>
            <path id="Trazado_8181" data-name="Trazado 8181" d="M123.639,345.018c7.123,0,13.9-2.354,17.316-6.689,2.168-2.75,4.713-8.434-1.151-16.657a19.026,19.026,0,0,0,.92-1.824c13.944,2.116,26.047-1.134,32.733-8.9,3.642-4.228,4.91-9.293,3.394-13.55a12.026,12.026,0,0,0-7.538-7.144c3.637-11.342,1.733-22.732-5.414-31.681-6.672-8.356-16.79-13.015-26.351-12.35a22.066,22.066,0,0,0-4.847-6.315c11.739-6.465,22.367-19.152,26.8-32.448,4.1-12.3,2.927-24.25-3.379-34.567a2.914,2.914,0,0,0-.178-.259c-3.105-4.067-8.249-7.748-12.728-6.8a6.517,6.517,0,0,0-3.385,1.893,13.542,13.542,0,0,0-7.282-2.787,9.457,9.457,0,0,0-7.069,2.927c-4.593,4.593-3.919,12.866-3.267,20.867.334,4.09.678,8.32.179,11.293-1.015,6-7.712,16.429-21.494,22.634,5.29-9.513,8.47-20.515-2.2-32.4-2.226-5.481-19.95-46.011-54.936-40.223-19.9,3.292-30.586,14.737-36.049,23.759C-.129,186.746-2.162,203.41,2.4,217.287c7.574,23.059,32.181,37.226,56.123,33.614a57.381,57.381,0,0,0-4.84,39.44c2.932,13.064,9.22,23.4,17.255,28.371,4.667,2.884,9.582,3.8,14.222,2.656a8.872,8.872,0,0,0,6.084-5.223,9.24,9.24,0,0,0,.721-3.31,9.3,9.3,0,0,0,3.314-1.187,8.778,8.778,0,0,0,4.332-6.782q.063-.688.061-1.389c.625.541,1.23,1.1,1.784,1.648,1.285,1.291,1.214,2.189.277,6.192-.231.984-.479,2.05-.7,3.22l-.051.274c-.231,1.255-.472,2.552-.775,3.753-2.623,10.464,1.128,19.044,10.292,23.544a30.151,30.151,0,0,0,13.143,2.909m15.094-31.62a3.029,3.029,0,0,0-2.916,2.219,12.2,12.2,0,0,1-2.05,4.2,3.058,3.058,0,0,0-.029,3.9c2.577,3.106,5.094,7.511,2.458,10.855-3.426,4.349-14.728,6.168-23.029,2.091-4.572-2.245-9.513-6.952-7.087-16.628.35-1.385.608-2.78.858-4.13l.046-.251c.205-1.064.437-2.052.651-2.964.97-4.145,1.887-8.061-1.891-11.857a67.31,67.31,0,0,0-9.626-7.573,3.029,3.029,0,0,0-4.28,3.977,12.968,12.968,0,0,1,1.745,7.065,2.759,2.759,0,0,1-1.39,2.127,3.2,3.2,0,0,1-2.891.2,3.029,3.029,0,0,0-3.813,4.312,3.155,3.155,0,0,1,.178,2.844,2.848,2.848,0,0,1-1.957,1.7,12.464,12.464,0,0,1-9.581-1.928C67.471,309.444,62.176,300.5,59.6,289.017c-5.431-24.266,7.6-40.619,7.733-40.782a3.031,3.031,0,0,0-3.246-4.811C41.117,250.59,15.5,237.758,8.16,215.4v0c-4.03-12.245-2.216-26.981,4.733-38.457,4.8-7.934,14.231-18,31.855-20.919,31.825-5.258,48.346,36.542,48.509,36.965a3.052,3.052,0,0,0,.6.968c10.161,10.994,5.576,20.128-2.58,32.808a3.03,3.03,0,0,0,3.349,4.56c19.7-5.4,31.881-19.323,33.736-30.286.624-3.72.265-8.126-.115-12.792-.515-6.319-1.1-13.481,1.512-16.091A3.358,3.358,0,0,1,132.355,171c2.521.08,5.423,2.8,6.062,3.53a3.029,3.029,0,0,0,5.218-1.292c.077-.321.365-1.374.829-1.472,1.137-.235,4.158,1.334,6.57,4.432,6.657,11,5.157,22.03,2.717,29.355-4.479,13.448-15.954,26.165-27.9,30.924a3.029,3.029,0,0,0-.532,5.353c6.146,4,7.279,8.209,7.324,8.386A3.076,3.076,0,0,0,136.1,252.5c8.123-1.4,17.173,2.477,23.069,9.86,6.4,8.02,7.632,18.516,3.369,28.8a3.029,3.029,0,0,0,2.271,4.143c3.347.592,5.6,2.062,6.338,4.139.776,2.179-.075,5.006-2.277,7.562-4.366,5.067-14.419,9.424-29.547,6.457a3.081,3.081,0,0,0-.586-.058" transform="translate(10.659 -104.197)" fill="#2c097d"/>
            <path id="Trazado_8182" data-name="Trazado 8182" d="M181.557,424.074a84.054,84.054,0,0,0-23.5-5.6,1.733,1.733,0,0,0-.5,3.424,79.561,79.561,0,0,1,21.37,7.639,3.033,3.033,0,1,0,2.633-5.459" transform="translate(-42.592 -291.699)" fill="#2c097d"/>
            <path id="Trazado_8183" data-name="Trazado 8183" d="M331.423,452c2.151-1.154,15.136-8.307,11.759-11.063a1.74,1.74,0,0,0-2.281,0,26.469,26.469,0,0,1-5.556,3.163,53.93,53.93,0,0,1-6.169,2.276A3.044,3.044,0,1,0,331.423,452" transform="translate(-254.653 -307.07)" fill="#2c097d"/>
            <path id="Trazado_8184" data-name="Trazado 8184" d="M122.89,602.151a27.962,27.962,0,0,0-2.207-26.285,36,36,0,0,0-5.6-6.732l-.03,2.979c3.065-3.644,4.048-8.3,4.693-12.855a1.732,1.732,0,0,0-3.418-.542c-.7,3.614-1.74,7.575-4.167,10.389a1.984,1.984,0,0,0-.029,2.98c5.226,5.431,8.505,12.906,7.42,20.464a20.819,20.819,0,0,1-2.033,6.793,3.031,3.031,0,1,0,5.369,2.809" transform="translate(29.18 -388.5)" fill="#2c097d"/>
            <path id="Trazado_8185" data-name="Trazado 8185" d="M286.5,535.476a142.4,142.4,0,0,0-9.413-14.021,71.016,71.016,0,0,1-7.055-14.377,54.946,54.946,0,0,1-2.982-10.3,1.73,1.73,0,0,0-3.434.415,57.333,57.333,0,0,0,2.528,11.218,74.826,74.826,0,0,0,6.7,15.841,138.637,138.637,0,0,1,8.329,14.108,3.03,3.03,0,1,0,5.328-2.884" transform="translate(-178.654 -345.27)" fill="#2c097d"/>
            <path id="Trazado_8186" data-name="Trazado 8186" d="M134.59,706.832c-2.576,2.612-6.252,4.051-9.819,5a1.739,1.739,0,0,0,.494,3.424,28.075,28.075,0,0,0,11.644-2.85,14.487,14.487,0,0,0,2.449-1.621c3.914-3.42-2.13-8.435-4.767-3.955" transform="translate(10.1 -491.478)" fill="#2c097d"/>
            <path id="Trazado_8187" data-name="Trazado 8187" d="M325.986,371.991a3.136,3.136,0,1,0,3.136-3.136,3.136,3.136,0,0,0-3.136,3.136" transform="translate(-242.869 -257.12)" fill="#2c097d"/>
            <path id="Trazado_8188" data-name="Trazado 8188" d="M317.373,270.489s8.487-6.534,5.52-17.162-12.383-14-15.547-7.736c-3.868,7.661-1.164,30.868,10.027,24.9" transform="translate(-227.984 -169.005)" fill="#2c097d"/>
            <path id="Trazado_8189" data-name="Trazado 8189" d="M343.712,275.8c0,2.012,1.213,3.643,2.708,3.643s2.708-1.631,2.708-3.643-1.213-3.643-2.708-3.643-2.708,1.631-2.708,3.643" transform="translate(-265.11 -189.716)" fill="#fff"/>
            <path id="Trazado_8190" data-name="Trazado 8190" d="M418.939,356.737a6.009,6.009,0,0,0,1.595-8.28,17.267,17.267,0,0,0-9.651-6.685c-10.778-3.267-20.692-.693-20.692,5.408,0,7.43,14.357,19.741,28.749,9.558" transform="translate(-351.611 -237.246)" fill="#2c097d"/>
            <path id="Trazado_8191" data-name="Trazado 8191" d="M425.407,347.4c0,2.084,2.034,3.774,4.544,3.774s4.544-1.69,4.544-3.774-2.034-3.774-4.544-3.774-4.544,1.69-4.544,3.774" transform="translate(-375.224 -239.534)" fill="#fff"/>
            <path id="Trazado_8192" data-name="Trazado 8192" d="M417.478,354.264a7.227,7.227,0,0,0,1.383-10.541c-4.461-5.9-12.087-7.926-19.163-8.175-8.71-.354-17.087,5.082-11,14.159,6.314,9.428,19.878,11.336,28.776,4.557m-1.25-1.766c-8,5.969-19.729,4.041-25.1-4.375-6.837-11.016,11.8-10.679,18.137-8.184,5.015,1.413,12.923,7.656,6.962,12.559" transform="translate(-349.525 -233.89)" fill="#2c097d"/>
            <path id="Trazado_8193" data-name="Trazado 8193" d="M315.191,267.931c5.237-4.2,8.027-11.44,6.315-18.026-1.143-4.834-4.061-9.832-8.961-11.82-11.056-3.827-11.88,11.344-10.5,18.6.833,6.4,5.2,15.783,13.143,11.241m-1.173-1.818c-6.15,3.336-8.965-4.893-9.471-9.8-.488-4.333-.8-13.6,3.455-15.571,5.239-1.489,9.735,5.1,10.927,9.818,1.725,5.611-.542,11.78-4.911,15.549" transform="translate(-225.216 -165.538)" fill="#2c097d"/>
            <path id="Trazado_8194" data-name="Trazado 8194" d="M184.383,491.971c.879-.36,1.765-.569,2.065-.365.252.064.446.538.544.8.346,1.6-.234,3.459-2.031,3.849a1.084,1.084,0,0,0,0,2.164c4.1.478,6.45-4.762,4.415-7.973-1.51-2.474-4.7-1.768-6.222-.252a1.087,1.087,0,0,0,1.229,1.781" transform="translate(-57.343 -340.741)" fill="#2c097d"/>
            <path id="Trazado_8195" data-name="Trazado 8195" d="M397.993,64.1a75.664,75.664,0,0,1,4.266-33.759c12.27-2.766,9.8-20.713-3.418-20.264-15.3.18-17.913,14.941-9.952,17.428,0,0-6.352,12.75-.3,37.681" transform="translate(-338.572 -7.016)" fill="#4cea57"/>
            <path id="Trazado_8196" data-name="Trazado 8196" d="M535.826,139.248c-14.7-12.392-13.463-27.6-13.463-27.6-9.238-2.028-12.167-7.548-9.463-15.659s15.716-11.435,20.222-2.873-1.605,14.157-1.605,14.157-.479,18.626,10.505,27.7" transform="translate(-508.963 -61.404)" fill="#4cea57"/>
            <path id="Trazado_8197" data-name="Trazado 8197" d="M393.229,56.866a76.8,76.8,0,0,1,4.795-32.571l-2.055,1.81c6.265-1.059,11.178-7.68,10.182-14.05C405.291,3.524,397.17-1.128,389.2.234c-4.415.579-8.7,2.364-11.638,6.014-4.5,5.266-3.9,14.676,3.546,17l-1.728-4.054c-2.639,6.393-3.072,13.325-2.916,20.112a85.513,85.513,0,0,0,1.925,14.628l1.183,4.742a2.164,2.164,0,0,0,4.205-1.021c-1.813-9-2.793-18.463-1.449-27.563a40.012,40.012,0,0,1,1.52-6.494,19.073,19.073,0,0,1,.715-1.821,2.948,2.948,0,0,0-1.728-4.054,3.336,3.336,0,0,1-2.273-3.026c-.21-6.093,6.747-9.024,12.49-8.553,5.787-.072,9.329,7,6.044,11.57a7.726,7.726,0,0,1-4.382,2.824,2.83,2.83,0,0,0-2.054,1.811,79.917,79.917,0,0,0-3.952,17.283,75.143,75.143,0,0,0,.215,17.663,2.165,2.165,0,0,0,4.306-.427" transform="translate(-331.654 0)" fill="#2c097d"/>
            <path id="Trazado_8198" data-name="Trazado 8198" d="M533.193,130.738c-7.239-6.546-12.313-15.867-12.023-25.716a2.836,2.836,0,0,0-2.225-3.008c-4-.987-7.964-2.771-8.068-7.188-.1-3.975,1.726-8.088,5.693-9.693,6.4-2.99,11.591,1.586,11.24,8.1a10.2,10.2,0,0,1-2.7,5.776,2.233,2.233,0,0,0-.429,1.336,50.511,50.511,0,0,0,.752,8.086,40.052,40.052,0,0,0,5.586,15.169,25.071,25.071,0,0,0,5.6,6.18,2.164,2.164,0,0,0,2.784-3.311c-6.937-6.3-9.1-16.893-9.106-25.98l-.91,2c4.9-4.5,5.441-12.427,2.15-17.889-3.135-6.212-11.548-7.836-17.425-4.986C506.6,82.649,502.774,92.566,506.2,100c2.11,4.421,7.257,6.769,11.522,7.563L515.5,104.56a34.9,34.9,0,0,0,4.13,16.686,40.571,40.571,0,0,0,10.773,12.8,2.165,2.165,0,0,0,2.789-3.309" transform="translate(-504.936 -54.548)" fill="#2c097d"/>
            <g id="Grupo_4085" data-name="Grupo 4085" transform="translate(112.65 99.376)" opacity="0.2">
              <g id="Grupo_4084" data-name="Grupo 4084" transform="translate(0)">
                <g id="Grupo_4083" data-name="Grupo 4083" clip-path="url(#clip-path-10)">
                  <path id="Trazado_8199" data-name="Trazado 8199" d="M247.946,330.267a12.753,12.753,0,0,0,.379-2.211c-.045.318-.167,1.091-.379,2.211" transform="translate(-247.946 -328.056)" fill="#2c097d"/>
                </g>
              </g>
            </g>
          </g>
        </g>
      </g>
    </g>
    <g id="Grupo_4111" data-name="Grupo 4111" transform="translate(-115.563 7044.455) rotate(-11)">
      <g id="Grupo_4110" data-name="Grupo 4110" clip-path="url(#clip-path-11)">
        <g id="Grupo_4109" data-name="Grupo 4109">
          <g id="Grupo_4108" data-name="Grupo 4108" clip-path="url(#clip-path-11)">
            <path id="Trazado_8200" data-name="Trazado 8200" d="M201.731,545.972c-.108,27.619,30.079,52.547,54.059,44.643" transform="translate(-138.528 -374.918)" fill="#00edfa"/>
            <path id="Trazado_8201" data-name="Trazado 8201" d="M52.973,318.6C40.7,344.323,57.73,363.076,78.691,366.449" transform="translate(-33.541 -218.778)" fill="#00edfa"/>
            <path id="Trazado_8202" data-name="Trazado 8202" d="M519.311,754.56c-22.942,16.921-44.578,3.741-51.853-16.2" transform="translate(-321.002 -507.027)" fill="#00edfa"/>
            <path id="Trazado_8203" data-name="Trazado 8203" d="M26.7,221.749Q77.339,383.464,245.728,402.621" transform="translate(-18.336 -152.274)" fill="#f9df1d"/>
            <path id="Trazado_8204" data-name="Trazado 8204" d="M107.6,191.128a491.776,491.776,0,0,1-45.319-43.455c-101.9-112.3-30.657-170.139,67.109-113.729L252.64,135.72,257.825,140c82.9,95.777,18.25,185.929-150.229,51.131" transform="translate(-8.662 -8.277)" fill="#00edfa"/>
            <g id="Grupo_4092" data-name="Grupo 4092" transform="translate(44.597 32.779)" opacity="0.66">
              <g id="Grupo_4091" data-name="Grupo 4091">
                <g id="Grupo_4090" data-name="Grupo 4090" clip-path="url(#clip-path-13)">
                  <path id="Trazado_8205" data-name="Trazado 8205" d="M153.131,104.623s-19.376,10.42-6.193,41.034,37.033,61.724,51.325,57.53-11.575-24.311-18.217-49.091-7.242-49.319-17.894-46.9" transform="translate(-142.344 -104.623)" fill="#fff"/>
                </g>
              </g>
            </g>
            <g id="Grupo_4095" data-name="Grupo 4095" transform="translate(53.615 127.443)" opacity="0.2" style="mix-blend-mode: color-burn;isolation: isolate">
              <g id="Grupo_4094" data-name="Grupo 4094">
                <g id="Grupo_4093" data-name="Grupo 4093" clip-path="url(#clip-path-14)">
                  <path id="Trazado_8206" data-name="Trazado 8206" d="M216.448,462.18a491.775,491.775,0,0,1-45.319-43.455c85.61,66.5,204.555,97.578,215.223,70.368,10.684-27.242-25.127-65.465-25.127-65.465l.266-16.856,5.185,4.277c82.9,95.777,18.25,185.929-150.229,51.131" transform="translate(-171.129 -406.772)" fill="#2c097d"/>
                </g>
              </g>
            </g>
            <g id="Grupo_4098" data-name="Grupo 4098" transform="translate(3.959 3.775)" opacity="0.82">
              <g id="Grupo_4097" data-name="Grupo 4097">
                <g id="Grupo_4096" data-name="Grupo 4096" clip-path="url(#clip-path-15)">
                  <path id="Trazado_8207" data-name="Trazado 8207" d="M285.473,182.289a181.361,181.361,0,0,0-23.936-34.6L133.1,41.616C54.757-3.578-6.556,24.573,24.586,95.332-14.576,18.98,48.288-12.867,129.4,33.94L257.84,139.993c12.532,14.49,21.7,28.839,27.633,42.3" transform="translate(-12.636 -12.049)" fill="#fff"/>
                </g>
              </g>
            </g>
            <path id="Trazado_8208" data-name="Trazado 8208" d="M100.965,227.206a2.35,2.35,0,0,1-.974-4.49c33.181-15.074,62.41-10.949,63.638-10.766a2.35,2.35,0,0,1-.691,4.648c-.288-.042-29.142-4.077-61,10.4a2.342,2.342,0,0,1-.971.211" transform="translate(-67.717 -145.099)" fill="#2c097d"/>
            <path id="Trazado_8209" data-name="Trazado 8209" d="M163.161,98.027c-4.883.466-9.072-1.58-9.357-4.57s3.442-5.79,8.324-6.256,9.072,1.58,9.357,4.57-3.442,5.79-8.324,6.256" transform="translate(-105.606 -59.835)" fill="#f9df1d"/>
            <path id="Trazado_8210" data-name="Trazado 8210" d="M794.005,605.464c.466,4.883,3.267,8.609,6.256,8.324s5.035-4.474,4.57-9.357-3.267-8.61-6.256-8.324-5.035,4.475-4.57,9.357" transform="translate(-545.196 -409.334)" fill="#f9df1d"/>
            <path id="Trazado_8211" data-name="Trazado 8211" d="M392.555,464.287a8.041,8.041,0,1,1-1.08-11.32,8.041,8.041,0,0,1,1.08,11.32" transform="translate(-259.787 -309.787)" fill="#f9df1d"/>
            <path id="Trazado_8212" data-name="Trazado 8212" d="M156.627,95.294c-5.535,0-9.933-2.793-10.311-6.762a7.012,7.012,0,0,1,3.151-6.176,14.544,14.544,0,0,1,7.289-2.643c6.273-.6,11.505,2.339,11.92,6.685a7.013,7.013,0,0,1-3.151,6.177,14.56,14.56,0,0,1-7.289,2.643c-.545.052-1.082.077-1.608.077m1.759-10.961q-.57,0-1.183.057a9.971,9.971,0,0,0-4.912,1.721c-.867.653-1.352,1.39-1.3,1.973.119,1.254,2.827,2.833,6.795,2.454a9.969,9.969,0,0,0,4.912-1.721c.868-.652,1.352-1.39,1.3-1.973-.107-1.124-2.3-2.511-5.611-2.511" transform="translate(-100.457 -54.685)" fill="#2c097d"/>
            <path id="Trazado_8213" data-name="Trazado 8213" d="M366.81,175.89c28.1,17.146,46.392,20.736,56.485,20.885a17.508,17.508,0,0,0,14.356-7.239c19.168-26.214,21.445-51.293,17.152-72.076a90.765,90.765,0,0,0-87.29-72.084c-21.22-.285-45.416,6.693-67.532,30.472a17.507,17.507,0,0,0-4.393,15.465c2.056,9.882,9.039,27.168,31.19,51.516a183.041,183.041,0,0,0,40.034,33.06" transform="translate(-202.732 -31.154)" fill="#f9df1d"/>
            <g id="Grupo_4101" data-name="Grupo 4101" transform="translate(92.497 14.207)" opacity="0.66">
              <g id="Grupo_4100" data-name="Grupo 4100">
                <g id="Grupo_4099" data-name="Grupo 4099" clip-path="url(#clip-path-16)">
                  <path id="Trazado_8214" data-name="Trazado 8214" d="M451.96,106.965a91.09,91.09,0,0,0-60.138-49.079,62.673,62.673,0,0,1-46.447.987c-13.8,4.2-27.978,12.454-41.387,26.866A17.511,17.511,0,0,0,299.6,101.2a51.713,51.713,0,0,0,1.441,5.42,65.891,65.891,0,0,1-5.451-15.32,17.511,17.511,0,0,1,4.386-15.461C322.1,52.059,346.3,45.072,367.51,45.354a90.85,90.85,0,0,1,84.451,61.611" transform="translate(-295.232 -45.346)" fill="#fff"/>
                </g>
              </g>
            </g>
            <g id="Grupo_4104" data-name="Grupo 4104" transform="translate(100.517 58.547)" opacity="0.2" style="mix-blend-mode: color-burn;isolation: isolate">
              <g id="Grupo_4103" data-name="Grupo 4103">
                <g id="Grupo_4102" data-name="Grupo 4102" clip-path="url(#clip-path-17)">
                  <path id="Trazado_8215" data-name="Trazado 8215" d="M455.236,286.706a17.482,17.482,0,0,1-14.365,7.237c-10.088-.141-28.385-3.744-56.488-20.882a183.1,183.1,0,0,1-40.024-33.053c-11.389-12.532-18.782-23.184-23.529-31.926,86.143,100.789,154.3,46.933,140.751-21.211a89.513,89.513,0,0,1,10.809,27.759c4.292,20.788,2.005,45.867-17.153,72.075" transform="translate(-320.829 -186.872)" fill="#2c097d"/>
                </g>
              </g>
            </g>
            <path id="Trazado_8216" data-name="Trazado 8216" d="M414.966,192.112l-.31,0c-10.9-.162-29.883-4.016-58.467-21.458A186.821,186.821,0,0,1,315.3,136.884c-22.534-24.77-29.908-42.686-32.127-53.353A21.457,21.457,0,0,1,288.532,64.6c19.913-21.409,43.573-32.048,70.452-31.721a94.883,94.883,0,0,1,91.073,75.208c5.429,26.285-.569,51.579-17.826,75.18a21.462,21.462,0,0,1-17.265,8.845m-54.7-28.147c27.075,16.522,44.583,20.166,54.5,20.313a13.79,13.79,0,0,0,11.136-5.635c15.9-21.74,21.44-44.946,16.478-68.973a87,87,0,0,0-83.508-68.96c-24.535-.311-46.27,9.5-64.612,29.223a13.608,13.608,0,0,0-3.427,12c2.02,9.713,8.908,26.216,30.252,49.679a178.986,178.986,0,0,0,39.177,32.352" transform="translate(-194.152 -22.573)" fill="#2c097d"/>
            <path id="Trazado_8217" data-name="Trazado 8217" d="M670.345,585.97a2.352,2.352,0,0,1-2.287-2.9c8.188-34.023-1.229-61.594-1.326-61.869a2.35,2.35,0,0,1,4.434-1.557c.412,1.171,9.989,29.091,1.461,64.526a2.351,2.351,0,0,1-2.282,1.8" transform="translate(-457.753 -355.759)" fill="#2c097d"/>
            <path id="Trazado_8218" data-name="Trazado 8218" d="M794.794,611a7.19,7.19,0,0,1-5.637-3.177,14.55,14.55,0,0,1-2.643-7.289c-.6-6.269,2.339-11.506,6.685-11.92a7,7,0,0,1,6.176,3.151,14.542,14.542,0,0,1,2.643,7.289c.6,6.27-2.338,11.505-6.685,11.92-.18.017-.359.026-.539.026m-3.6-10.913A9.965,9.965,0,0,0,792.914,605a2.623,2.623,0,0,0,1.973,1.3c1.254-.119,2.832-2.826,2.454-6.8a9.965,9.965,0,0,0-1.721-4.911c-.652-.869-1.4-1.357-1.973-1.3-1.254.119-2.832,2.827-2.454,6.8" transform="translate(-540.045 -404.182)" fill="#2c097d"/>
            <path id="Trazado_8219" data-name="Trazado 8219" d="M239.371,255.2c-31.893,0-79.392-18.485-142.887-69.287C1.3,104.8-11.75,46.412,7.743,18.787,26.3-7.5,73.563-6.071,122.689,22.267a3.916,3.916,0,1,1-3.913,6.785C73.293,2.815,30.268.45,14.143,23.3c-16.7,23.667-3.849,78.873,87.328,156.572,93.444,74.762,150.082,76.942,170.167,56.068,19.39-20.155,8.933-61.958-25.43-101.657a3.916,3.916,0,1,1,5.922-5.127c37.118,42.882,47.46,89.026,25.152,112.214-8.184,8.507-20.8,13.827-37.911,13.828" transform="translate(0 0)" fill="#2c097d"/>
            <path id="Trazado_8220" data-name="Trazado 8220" d="M276.212,260.585c-10.226,0-21.718-1.917-34.266-5.762-31.839-9.758-68.488-31.108-108.93-63.461C93.505,157.69,65.607,125.737,50,96.315,36.086,70.078,32.884,47.274,40.745,30.367a3.917,3.917,0,0,1,7.1,3.3C35.8,59.572,53.164,113.014,138,185.324c86.866,69.487,142.6,76.473,165.8,59.808a3.916,3.916,0,0,1,5.325,5.683l-.01.011a3.945,3.945,0,0,1-.666.611c-8.436,6.091-19.324,9.148-32.236,9.148" transform="translate(-25.092 -19.298)" fill="#2c097d"/>
            <path id="Trazado_8221" data-name="Trazado 8221" d="M381.2,464.42a10.419,10.419,0,1,1,1.007-.048q-.5.048-1.007.048m.024-16.08a5.688,5.688,0,1,0,3.619,1.3,5.681,5.681,0,0,0-3.619-1.3m6.195,10.809h0Z" transform="translate(-254.648 -304.648)" fill="#2c097d"/>
            <path id="Trazado_8222" data-name="Trazado 8222" d="M237.146,397.954a3.856,3.856,0,0,1-.447-.025c-56.634-6.443-104.074-25.172-141-55.668S31.408,268.725,14.378,214.336A3.916,3.916,0,0,1,21.852,212C54.947,317.687,127.53,377.626,237.584,390.146a3.916,3.916,0,0,1-.438,7.807" transform="translate(-9.749 -143.691)" fill="#2c097d"/>
            <path id="Trazado_8223" data-name="Trazado 8223" d="M237.728,587.438c-8.763,0-17.947-3.171-26.341-9.267-13.725-9.97-22.215-25.6-22.155-40.8a3.916,3.916,0,0,1,3.916-3.9h.015a3.916,3.916,0,0,1,3.9,3.931c-.05,12.723,7.2,25.916,18.926,34.431,9.849,7.153,20.781,9.514,29.991,6.477a3.917,3.917,0,1,1,2.452,7.439,34.107,34.107,0,0,1-10.706,1.689" transform="translate(-129.945 -366.333)" fill="#2c097d"/>
            <path id="Trazado_8224" data-name="Trazado 8224" d="M70.072,361.78a3.989,3.989,0,0,1-.627-.05C56.4,359.631,45.4,352.236,40,341.948c-3.639-6.937-6.45-18.4.814-33.625a3.916,3.916,0,0,1,7.069,3.373c-4.645,9.734-4.972,18.937-.947,26.614,4.255,8.114,13.135,13.978,23.751,15.686a3.917,3.917,0,0,1-.617,7.784" transform="translate(-24.918 -210.193)" fill="#2c097d"/>
            <path id="Trazado_8225" data-name="Trazado 8225" d="M489.525,757.662a32.323,32.323,0,0,1-9.34-1.378c-11.123-3.352-20.466-12.762-24.992-25.171a3.916,3.916,0,0,1,7.358-2.685c3.685,10.1,11.122,17.713,19.894,20.357,8.3,2.5,17.275.439,25.956-5.961a3.916,3.916,0,1,1,4.649,6.3c-8.824,6.509-16.9,8.536-23.524,8.536" transform="translate(-312.416 -498.441)" fill="#2c097d"/>
            <g id="Grupo_4107" data-name="Grupo 4107" transform="translate(117.879 40.226)" opacity="0.66">
              <g id="Grupo_4106" data-name="Grupo 4106">
                <g id="Grupo_4105" data-name="Grupo 4105" clip-path="url(#clip-path-18)">
                  <path id="Trazado_8226" data-name="Trazado 8226" d="M419.4,176.065c-15.715,7.948-35.261.8-41.487-15.674-3.005-7.952-3.005-17.375,9.016-23.259,24.042-11.768,59.579-11.535,64.473,0,3.1,7.3-13.074,29.36-32,38.933" transform="translate(-376.246 -128.394)" fill="#fff"/>
                </g>
              </g>
            </g>
          </g>
        </g>
      </g>
    </g>
  </g>
</svg>
