<svg xmlns="http://www.w3.org/2000/svg" xmlns:xlink="http://www.w3.org/1999/xlink" width="424.632" height="612.971" viewBox="0 0 424.632 612.971">
  <defs>
    <clipPath id="clip-path">
      <rect id="Rectángulo_452" data-name="Rectángulo 452" width="123.353" height="118.013" fill="none"/>
    </clipPath>
    <clipPath id="clip-path-3">
      <rect id="Rectángulo_447" data-name="Rectángulo 447" width="79.678" height="106.826" fill="none"/>
    </clipPath>
    <clipPath id="clip-path-4">
      <rect id="Rectángulo_448" data-name="Rectángulo 448" width="75.868" height="112.247" fill="none"/>
    </clipPath>
    <clipPath id="clip-path-5">
      <rect id="Rectángulo_449" data-name="Rectángulo 449" width="23.394" height="23.82" fill="none"/>
    </clipPath>
    <clipPath id="clip-path-6">
      <rect id="Rectángulo_450" data-name="Rectángulo 450" width="11.995" height="8.492" fill="none"/>
    </clipPath>
    <clipPath id="clip-path-7">
      <rect id="Rectángulo_495" data-name="Rectángulo 495" width="339.408" height="585.618" fill="none"/>
    </clipPath>
    <clipPath id="clip-path-9">
      <rect id="Rectángulo_453" data-name="Rectángulo 453" width="64.916" height="101.338" transform="translate(0 0)" fill="none"/>
    </clipPath>
    <clipPath id="clip-path-10">
      <rect id="Rectángulo_454" data-name="Rectángulo 454" width="26.779" height="27.778" fill="none"/>
    </clipPath>
    <clipPath id="clip-path-11">
      <rect id="Rectángulo_455" data-name="Rectángulo 455" width="20.357" height="19.77" fill="none"/>
    </clipPath>
    <clipPath id="clip-path-12">
      <rect id="Rectángulo_456" data-name="Rectángulo 456" width="108.486" height="72.223" fill="none"/>
    </clipPath>
    <clipPath id="clip-path-13">
      <rect id="Rectángulo_457" data-name="Rectángulo 457" width="108.766" height="86.298" transform="translate(0 0)" fill="none"/>
    </clipPath>
    <clipPath id="clip-path-14">
      <rect id="Rectángulo_458" data-name="Rectángulo 458" width="43.153" height="34.93" fill="none"/>
    </clipPath>
    <clipPath id="clip-path-15">
      <rect id="Rectángulo_459" data-name="Rectángulo 459" width="108.487" height="72.223" fill="none"/>
    </clipPath>
    <clipPath id="clip-path-16">
      <rect id="Rectángulo_460" data-name="Rectángulo 460" width="108.765" height="86.297" transform="translate(0 0)" fill="none"/>
    </clipPath>
    <clipPath id="clip-path-17">
      <rect id="Rectángulo_461" data-name="Rectángulo 461" width="43.153" height="34.932" fill="none"/>
    </clipPath>
    <clipPath id="clip-path-18">
      <rect id="Rectángulo_462" data-name="Rectángulo 462" width="19.857" height="20.312" fill="none"/>
    </clipPath>
    <clipPath id="clip-path-19">
      <rect id="Rectángulo_463" data-name="Rectángulo 463" width="106.779" height="82.022" fill="none"/>
    </clipPath>
    <clipPath id="clip-path-20">
      <rect id="Rectángulo_464" data-name="Rectángulo 464" width="106.613" height="100.531" transform="translate(0 0)" fill="none"/>
    </clipPath>
    <clipPath id="clip-path-21">
      <rect id="Rectángulo_465" data-name="Rectángulo 465" width="50.541" height="22.87" transform="translate(0 0)" fill="none"/>
    </clipPath>
    <clipPath id="clip-path-22">
      <rect id="Rectángulo_466" data-name="Rectángulo 466" width="84.484" height="77.343" fill="none"/>
    </clipPath>
    <clipPath id="clip-path-23">
      <rect id="Rectángulo_467" data-name="Rectángulo 467" width="32.084" height="16.53" transform="translate(0 0)" fill="none"/>
    </clipPath>
    <clipPath id="clip-path-24">
      <rect id="Rectángulo_468" data-name="Rectángulo 468" width="6.399" height="3.119" fill="none"/>
    </clipPath>
    <clipPath id="clip-path-25">
      <rect id="Rectángulo_469" data-name="Rectángulo 469" width="56.15" height="98.931" transform="translate(0 0)" fill="none"/>
    </clipPath>
    <clipPath id="clip-path-26">
      <rect id="Rectángulo_470" data-name="Rectángulo 470" width="18.781" height="13.532" transform="translate(0 0)" fill="none"/>
    </clipPath>
    <clipPath id="clip-path-27">
      <rect id="Rectángulo_471" data-name="Rectángulo 471" width="137.05" height="139.763" transform="translate(0 0)" fill="none"/>
    </clipPath>
    <clipPath id="clip-path-28">
      <rect id="Rectángulo_472" data-name="Rectángulo 472" width="64.529" height="42.429" transform="translate(0 0)" fill="none"/>
    </clipPath>
    <clipPath id="clip-path-29">
      <rect id="Rectángulo_473" data-name="Rectángulo 473" width="56.726" height="23.073" transform="translate(0 0)" fill="none"/>
    </clipPath>
    <clipPath id="clip-path-30">
      <rect id="Rectángulo_474" data-name="Rectángulo 474" width="12.411" height="16.039" fill="none"/>
    </clipPath>
    <clipPath id="clip-path-31">
      <rect id="Rectángulo_475" data-name="Rectángulo 475" width="12.418" height="10.243" fill="none"/>
    </clipPath>
    <clipPath id="clip-path-32">
      <rect id="Rectángulo_476" data-name="Rectángulo 476" width="12.418" height="10.782" fill="none"/>
    </clipPath>
    <clipPath id="clip-path-33">
      <rect id="Rectángulo_477" data-name="Rectángulo 477" width="48.663" height="15.599" transform="translate(0 0)" fill="none"/>
    </clipPath>
    <clipPath id="clip-path-34">
      <rect id="Rectángulo_478" data-name="Rectángulo 478" width="4.376" height="5.435" fill="none"/>
    </clipPath>
    <clipPath id="clip-path-35">
      <rect id="Rectángulo_479" data-name="Rectángulo 479" width="18.93" height="13.903" fill="none"/>
    </clipPath>
    <clipPath id="clip-path-36">
      <rect id="Rectángulo_480" data-name="Rectángulo 480" width="3.596" height="3.158" transform="translate(0 0)" fill="none"/>
    </clipPath>
    <clipPath id="clip-path-37">
      <rect id="Rectángulo_481" data-name="Rectángulo 481" width="0.163" height="1.1" transform="translate(0 0)" fill="none"/>
    </clipPath>
    <clipPath id="clip-path-38">
      <rect id="Rectángulo_482" data-name="Rectángulo 482" width="108.405" height="64.625" fill="none"/>
    </clipPath>
    <clipPath id="clip-path-39">
      <rect id="Rectángulo_483" data-name="Rectángulo 483" width="108.405" height="85.517" fill="none"/>
    </clipPath>
    <clipPath id="clip-path-40">
      <rect id="Rectángulo_484" data-name="Rectángulo 484" width="46.476" height="30.421" fill="none"/>
    </clipPath>
    <clipPath id="clip-path-41">
      <rect id="Rectángulo_485" data-name="Rectángulo 485" width="85.263" height="44.424" fill="none"/>
    </clipPath>
    <clipPath id="clip-path-42">
      <rect id="Rectángulo_486" data-name="Rectángulo 486" width="17.685" height="27.941" transform="translate(0 0)" fill="none"/>
    </clipPath>
    <clipPath id="clip-path-43">
      <rect id="Rectángulo_487" data-name="Rectángulo 487" width="23.655" height="18.909" transform="translate(0 0)" fill="none"/>
    </clipPath>
    <clipPath id="clip-path-44">
      <rect id="Rectángulo_488" data-name="Rectángulo 488" width="107.699" height="56.277" fill="none"/>
    </clipPath>
    <clipPath id="clip-path-45">
      <rect id="Rectángulo_489" data-name="Rectángulo 489" width="157.248" height="104.848" transform="translate(0 0)" fill="none"/>
    </clipPath>
    <clipPath id="clip-path-46">
      <rect id="Rectángulo_490" data-name="Rectángulo 490" width="20.278" height="27.968" transform="translate(0 0)" fill="none"/>
    </clipPath>
    <clipPath id="clip-path-47">
      <rect id="Rectángulo_491" data-name="Rectángulo 491" width="11.043" height="12.82" fill="none"/>
    </clipPath>
    <clipPath id="clip-path-48">
      <rect id="Rectángulo_492" data-name="Rectángulo 492" width="98.069" height="117.76" transform="translate(0 0)" fill="none"/>
    </clipPath>
    <clipPath id="clip-path-49">
      <rect id="Rectángulo_493" data-name="Rectángulo 493" width="55.606" height="82.062" transform="translate(0 0)" fill="none"/>
    </clipPath>
    <clipPath id="clip-path-50">
      <rect id="Rectángulo_506" data-name="Rectángulo 506" width="32.075" height="32.075" fill="none"/>
    </clipPath>
    <clipPath id="clip-path-51">
      <rect id="Rectángulo_506-2" data-name="Rectángulo 506" width="24.24" height="24.24" fill="none"/>
    </clipPath>
    <clipPath id="clip-path-53">
      <rect id="Rectángulo_506-4" data-name="Rectángulo 506" width="16.037" height="16.037" fill="none"/>
    </clipPath>
  </defs>
  <g id="_02" data-name="02" transform="translate(0 0)">
    <g id="Grupo_3486" data-name="Grupo 3486" transform="translate(301.279 68.695)">
      <g id="Grupo_3485" data-name="Grupo 3485" transform="translate(0)" clip-path="url(#clip-path)">
        <g id="Grupo_3484" data-name="Grupo 3484">
          <g id="Grupo_3483" data-name="Grupo 3483" clip-path="url(#clip-path)">
            <path id="Trazado_7626" data-name="Trazado 7626" d="M30,108.634c14.1,14.113,37.419,15.655,55.879,11.308a62.267,62.267,0,0,0,18.4-7.269C121.76,101.761,121.1,87.119,125.035,78.6s1.85-20.971,1.85-20.971a24.514,24.514,0,0,0-10.559-17.7C106.135,32.65,101.7,18.229,95.15,14.514,92.1,12.781,84.415,11.18,76.132,10.372c-9.546-.925-19.884-.778-24.76,1.527-9.09,4.288-34.585,27.154-39.386,39.607C7.168,63.96,10.458,89.087,30,108.634" transform="translate(-7.026 -6.95)" fill="#d0d8d2"/>
            <g id="Grupo_3473" data-name="Grupo 3473" transform="translate(40.733 2.89)" opacity="0.66">
              <g id="Grupo_3472" data-name="Grupo 3472">
                <g id="Grupo_3471" data-name="Grupo 3471" clip-path="url(#clip-path-3)">
                  <path id="Trazado_7627" data-name="Trazado 7627" d="M10.015,14c5.434-1.366,13.981-1.351,21.97-.573,8.283.808,15.963,2.408,19.018,4.141,5.625,3.187,9.692,14.26,17.167,21.94q3.106,12.05,13.158,15.2h.015a20.714,20.714,0,0,1,1.4,5.977s2.085,12.439-1.85,20.971-3.275,23.159-20.751,34.071c-.514.323-1.043.631-1.586.94a50.637,50.637,0,0,0,7.989-3.994C84.015,101.761,83.354,87.119,87.29,78.6s1.85-20.971,1.85-20.971a24.514,24.514,0,0,0-10.559-17.7C68.39,32.65,63.955,18.229,57.405,14.514,54.35,12.781,46.67,11.18,38.387,10.372,28.842,9.447,18.5,9.594,13.627,11.9A31.433,31.433,0,0,0,10.015,14" transform="translate(-10.015 -9.84)" fill="#fff"/>
                </g>
              </g>
            </g>
            <g id="Grupo_3476" data-name="Grupo 3476" transform="translate(2.989 2.89)" opacity="0.2">
              <g id="Grupo_3475" data-name="Grupo 3475">
                <g id="Grupo_3474" data-name="Grupo 3474" clip-path="url(#clip-path-4)">
                  <path id="Trazado_7628" data-name="Trazado 7628" d="M171.484,108.634c14.1,14.113,37.419,15.655,55.879,11.308A108.05,108.05,0,0,1,226.2,107.5c0-15.728,5.07-10.24-19.073-17.113S176.551,67.6,182.381,45.618c5.17-19.458,29.65-32.485,35.231-35.245-9.546-.925-19.884-.778-24.76,1.527-9.09,4.288-34.585,27.154-39.386,39.607-4.817,12.453-1.527,37.58,18.019,57.127" transform="translate(-151.495 -9.84)" fill="#2c097d"/>
                </g>
              </g>
            </g>
            <path id="Trazado_7629" data-name="Trazado 7629" d="M60.681,118.013c14.483,0,28.757-3.937,38.131-9.8,14.123-8.826,17.294-20.192,19.609-28.491a47.337,47.337,0,0,1,2.256-6.85c4.054-8.782,2.368-20.885,2.115-22.518a27.593,27.593,0,0,0-11.776-19.77c-4.995-3.567-8.644-9.259-11.862-14.28-3.17-4.945-5.908-9.215-9.588-11.3C82.115.786,52.86-2.323,43.1,2.286,33.5,6.817,7.365,30.154,2.215,43.5-3.4,58.041,1.243,84.1,20.9,103.761c10.2,10.2,25.1,14.251,39.78,14.252M58.6,5.816c10.776,0,24.01,2.006,28.064,4.3,2.415,1.368,4.9,5.25,7.538,9.359,3.506,5.468,7.479,11.664,13.394,15.89a21.621,21.621,0,0,1,9.332,15.408,3.084,3.084,0,0,0,.037.378c.019.116,1.872,11.683-1.626,19.26a52.088,52.088,0,0,0-2.581,7.734c-2.284,8.188-4.872,17.469-17.063,25.088C78.478,114,43.272,117.825,25.054,99.608,6.044,80.6,3.458,56.59,7.695,45.614,12.224,33.879,37.136,11.6,45.6,7.6c2.677-1.264,7.521-1.782,13-1.782m61.262,44.858h0Z" transform="translate(0 0)" fill="#2c097d"/>
            <path id="Trazado_7630" data-name="Trazado 7630" d="M54.665,99.191a35.544,35.544,0,0,0,15.19-3.016c8.012-3.844,34.153-18.271,34.153-42.512a2.2,2.2,0,0,0-4.406,0C99.6,75.331,75.376,88.64,67.95,92.2c-13.362,6.413-39.566.778-51.1-14.937C4.921,61,6.128,47.529,21.464,25.768,36.489,4.449,54.913,8.962,55.692,9.165a2.2,2.2,0,0,0,1.133-4.257c-.894-.238-22.1-5.6-38.961,18.322C1.391,46.6.154,61.954,13.3,79.871c9.386,12.791,26.778,19.319,41.366,19.32" transform="translate(18.061 -2.99)" fill="#2c097d"/>
            <path id="Trazado_7631" data-name="Trazado 7631" d="M320.783,241.51a2.189,2.189,0,0,0,1.186-.349c.513-.329,12.627-8.194,17.738-19.909a2.2,2.2,0,1,0-4.039-1.761c-4.567,10.47-15.964,17.889-16.078,17.963a2.2,2.2,0,0,0,1.193,4.056" transform="translate(-310.108 -154.09)" fill="#2c097d"/>
            <path id="Trazado_7632" data-name="Trazado 7632" d="M180.827,336.658a2.2,2.2,0,0,0,2.186-1.961,50.213,50.213,0,0,0-2.829-22.1,2.2,2.2,0,0,0-4.087,1.645,46.548,46.548,0,0,1,2.538,19.972,2.2,2.2,0,0,0,1.947,2.431,2.225,2.225,0,0,0,.245.014" transform="translate(-111.595 -219.809)" fill="#2c097d"/>
            <path id="Trazado_7633" data-name="Trazado 7633" d="M82.644,165.26c7.488,13.491,27.782,7.3,27.042-7.971-.99-15.271-21.838-19.112-27.768-4.884a1.576,1.576,0,0,0,2.88,1.268,11.056,11.056,0,0,1,11.993-5.938c10.667,2.157,11.5,17.145,1.152,20.493a11.074,11.074,0,0,1-12.581-4.553,1.576,1.576,0,0,0-2.718,1.585" transform="translate(-10.379 -101.385)" fill="#2c097d"/>
            <g id="Grupo_3479" data-name="Grupo 3479" transform="translate(73.746 44.116)" opacity="0.2">
              <g id="Grupo_3478" data-name="Grupo 3478" transform="translate(0)">
                <g id="Grupo_3477" data-name="Grupo 3477" clip-path="url(#clip-path-5)">
                  <path id="Trazado_7634" data-name="Trazado 7634" d="M89.244,156.251a12.478,12.478,0,0,1,5.816-1.424,12.635,12.635,0,0,1,10.779,19.194,12.621,12.621,0,1,0-16.595-17.77" transform="translate(-89.244 -150.201)" fill="#2c097d"/>
                </g>
              </g>
            </g>
            <path id="Trazado_7635" data-name="Trazado 7635" d="M171.275,80.87a4.936,4.936,0,0,1,3.242,1.074,3.266,3.266,0,0,1-1.534,5.04,13,13,0,0,1-7.751.132,4.746,4.746,0,0,1-2.645-1.573,2.861,2.861,0,0,1,.94-2.634,10.045,10.045,0,0,1,3.349-2.128,1.047,1.047,0,0,0-.691-1.973,11.261,11.261,0,0,0-4.39,2.293c-3.527,3.351-2.114,7.513,2.605,8.747,4.507,1.356,12.047,1.2,13.333-4.473.62-2.952-.918-5.977-4.061-6.474-1.105-.144-3.51-.7-3.5,1.031a1.057,1.057,0,0,0,1.109.937" transform="translate(-101.455 -55.586)" fill="#2c097d"/>
            <path id="Trazado_7636" data-name="Trazado 7636" d="M252.164,145.813c1.6,2.05,3.618,4.677,1.139,6.3-2.006,1.276-5.44,1.9-6.961-.237a4.7,4.7,0,0,1-.512-4.825,1.051,1.051,0,0,0-1.775-1.118,6.638,6.638,0,0,0,7.368,10.039c7.089-1.543,7.406-7.5,2.155-11.713a1.052,1.052,0,0,0-1.414,1.551" transform="translate(-205.17 -101.719)" fill="#2c097d"/>
            <path id="Trazado_7637" data-name="Trazado 7637" d="M79.11,311.2c-.524-5.594-7.708-3.656-8.622.691-.292,1.265-.4,4.7,1.588,4.224a1.1,1.1,0,0,0,.672-1.178,4.185,4.185,0,0,1,1.607-3.78,3.414,3.414,0,0,1,1.629-.64c.462-.026.839.632,1.056,1.025a1.056,1.056,0,0,0,2.07-.341" transform="translate(23.587 -217.365)" fill="#2c097d"/>
            <path id="Trazado_7638" data-name="Trazado 7638" d="M181.768,270.5c2.355,1.464,4.05,3.215,1.058,4.612-1.709.727-5.129-2.148-4.3-3.931A1.055,1.055,0,0,0,176.792,270a3.794,3.794,0,0,0-.558,3.354c1.147,4.329,7.281,6.7,10.144,2.623,1.757-2.035.693-4.906-1.285-6.147-1.02-.57-3.1-2.239-3.837-.6a1.058,1.058,0,0,0,.513,1.266" transform="translate(-115.63 -189.659)" fill="#2c097d"/>
            <path id="Trazado_7639" data-name="Trazado 7639" d="M223.848,332.221c2.979-.1,7.071.8,7.039,3.98-1.576,3.2-8.622,2.7-10.212-.424a2.626,2.626,0,0,1,.233-2.623,1.044,1.044,0,0,0-1.707-1.182,4.839,4.839,0,0,0-1.072,2.252c-.637,6.98,9.873,8.993,14.217,4.926,3.664-3.544-.416-8.7-4.553-9.038-1.27-.082-5.278-.766-5.086,1.237a1.057,1.057,0,0,0,1.142.873" transform="translate(-174.477 -233.028)" fill="#2c097d"/>
            <path id="Trazado_7640" data-name="Trazado 7640" d="M301.869,270.727c4.028-5.549,10.1,3.1,4.957,5.879a1.055,1.055,0,0,0,.523,2.032c4.406-.85,5.435-6.886,2.692-9.977-1.874-2.512-5.889-3.592-8.31-1.256-.811.842-2.777,2.773-1.2,3.718a1.066,1.066,0,0,0,1.334-.4" transform="translate(-276.3 -187.952)" fill="#2c097d"/>
            <g id="Grupo_3482" data-name="Grupo 3482" transform="translate(64.248 24.307)" opacity="0.2">
              <g id="Grupo_3481" data-name="Grupo 3481" transform="translate(0)">
                <g id="Grupo_3480" data-name="Grupo 3480" clip-path="url(#clip-path-6)">
                  <path id="Trazado_7641" data-name="Trazado 7641" d="M168.024,91.249S175.139,85.94,171.2,84,160.4,82.969,160.4,82.969s9.748,1.219,7.628,8.28" transform="translate(-160.395 -82.757)" fill="#2c097d"/>
                </g>
              </g>
            </g>
          </g>
        </g>
      </g>
    </g>
    <g id="Grupo_3613" data-name="Grupo 3613" transform="matrix(-0.996, -0.087, 0.087, -0.996, 338.116, 612.971)">
      <g id="Grupo_3612" data-name="Grupo 3612" transform="translate(0 0)" clip-path="url(#clip-path-7)">
        <g id="Grupo_3611" data-name="Grupo 3611" transform="translate(0 0)">
          <g id="Grupo_3610" data-name="Grupo 3610" clip-path="url(#clip-path-7)">
            <path id="Trazado_7642" data-name="Trazado 7642" d="M1.676,0A1.677,1.677,0,0,0,0,1.676V73.3a1.676,1.676,0,0,0,3.353,0V1.676A1.677,1.677,0,0,0,1.676,0" transform="translate(238.669 292.938)" fill="#371a45"/>
            <path id="Trazado_7643" data-name="Trazado 7643" d="M18.895,0a1.677,1.677,0,0,0-1.653,1.4L.023,105.845a1.677,1.677,0,0,0,3.309.545L20.551,1.949A1.676,1.676,0,0,0,19.169.023,1.636,1.636,0,0,0,18.895,0" transform="translate(214.653 295.925)" fill="#371a45"/>
            <path id="Trazado_7644" data-name="Trazado 7644" d="M1.678,0A1.678,1.678,0,0,0,.029,1.984L23.651,128.73a1.676,1.676,0,1,0,3.3-.614L3.324,1.37A1.677,1.677,0,0,0,1.678,0" transform="translate(243.24 288.573)" fill="#371a45"/>
            <path id="Trazado_7645" data-name="Trazado 7645" d="M65.437,112.243l-.521-10.9-.263-5.554L60.092,0S53.578.682,44.918,2.3c-1.694.317-3.471.667-5.3,1.056C26.016,6.246,9.673,11.226,4.182,19.058-4.025,30.771.6,82.586,11.523,102.039c5,8.918,25.2,10.637,39.4,10.7,1.587.009,3.1,0,4.508-.034,5.934-.112,10.009-.458,10.009-.458" transform="translate(40.058 94.067)" fill="#fff"/>
            <g id="Grupo_3489" data-name="Grupo 3489" transform="translate(40.058 94.067)" opacity="0.35">
              <g id="Grupo_3488" data-name="Grupo 3488" transform="translate(0 0)">
                <g id="Grupo_3487" data-name="Grupo 3487" clip-path="url(#clip-path-9)">
                  <path id="Trazado_7646" data-name="Trazado 7646" d="M64.916,101.338l-.263-5.554L61.031,19.73,60.091,0,59.7.044c-.073.01-.161.02-.253.029-.073.01-.156.019-.238.029-.063,0-.127.014-.19.019-.024.005-.053.005-.078.01-.117.015-.248.029-.385.048a.651.651,0,0,0-.092.01c-.112.014-.229.029-.355.044-.17.019-.346.044-.531.068-.131.019-.273.034-.414.054l-.443.058c-.19.024-.389.053-.594.078-.414.058-.852.116-1.314.185-.409.054-.837.117-1.285.185-.516.078-1.056.156-1.616.243-2.069.321-4.435.716-6.991,1.193-.5.093-1,.19-1.514.287-.355.068-.72.141-1.085.214-.881.175-1.787.36-2.7.555C26.01,6.246,9.673,11.226,4.187,19.058-2.575,28.7-.638,65.539,6.363,89.11,3.14,68.27,3.291,45.565,8.388,38.3c2.519-3.594,7.686-6.6,13.881-9.083a3.636,3.636,0,0,1,4.906,4.026l-.012.067a63.894,63.894,0,0,0-.355,17.657c1.587,14.385,5.91,34.855,23.381,49.863.409.355,6.888.453,14.726.511" transform="translate(0 0)" fill="#371a45"/>
                </g>
              </g>
            </g>
            <path id="Trazado_7647" data-name="Trazado 7647" d="M65.305,0,62.48.3C60.555.5,15.219,5.4,4.65,20.483-1.578,29.371.029,53.628.669,60.851c1.3,14.679,4.923,34.334,11.177,45.471,8.526,15.184,51.6,11.977,56.483,11.56l2.576-.219ZM54.45,113.048c-14.687,0-33.67-1.781-37.923-9.355C5.421,83.918,2.056,33.539,9.046,23.565,16.141,13.441,46.1,7.747,60.215,5.963L65.3,112.721c-3.01.19-6.764.327-10.847.327" transform="translate(37.392 91.1)" fill="#371a45"/>
            <path id="Trazado_7648" data-name="Trazado 7648" d="M4.844,32.94l18.588-3.161A3.692,3.692,0,0,0,26.5,26.456c.526-6.142,1.006-20.39-5.3-24.488C15.954-1.434,8.08-.239,3.81,4.122-.968,9-.179,22.857.546,29.685a3.7,3.7,0,0,0,4.3,3.255" transform="translate(44.304 118.399)" fill="#fff"/>
            <g id="Grupo_3492" data-name="Grupo 3492" transform="translate(44.305 118.4)" opacity="0.35">
              <g id="Grupo_3491" data-name="Grupo 3491" transform="translate(0 0)">
                <g id="Grupo_3490" data-name="Grupo 3490" clip-path="url(#clip-path-10)">
                  <path id="Trazado_7649" data-name="Trazado 7649" d="M26.494,26.454c.53-6.139,1.006-20.389-5.3-24.485C15.95-1.435,8.078-.239,3.805,4.123.87,7.126.037,13.523,0,19.589a15.781,15.781,0,0,1,3.154-7.4c8.576-10.052,16.633.1,16.633.1s.976-2.739,1.937-2.979c4.015-1,4.369,11.828,4.4,18.472a3.578,3.578,0,0,0,.373-1.325" transform="translate(0 0)" fill="#371a45"/>
                </g>
              </g>
            </g>
            <path id="Trazado_7650" data-name="Trazado 7650" d="M16.822,0A17.276,17.276,0,0,0,4.587,4.922C-.6,10.222-.46,22.924.572,32.647a6.381,6.381,0,0,0,7.417,5.617h0L26.578,35.1a6.38,6.38,0,0,0,5.289-5.739c.689-8.044.759-22.243-6.517-26.97A15.658,15.658,0,0,0,16.822,0M6.914,32.986a1.013,1.013,0,0,1-1-.906c-1.232-11.6-.269-20.562,2.512-23.4C11.89,5.137,18.434,4.3,22.425,6.9c3.494,2.269,5.062,10.7,4.093,22.008a1.011,1.011,0,0,1-.841.906L7.089,32.972h0a1.034,1.034,0,0,1-.176.016" transform="translate(41.608 115.722)" fill="#371a45"/>
            <path id="Trazado_7651" data-name="Trazado 7651" d="M1.344,3.352a3.776,3.776,0,0,1,.518.21c.2.1.4.2.6.321a10.015,10.015,0,0,1,1.176.793,12.856,12.856,0,0,1,2.1,2.039,17.641,17.641,0,0,1,3,5.287,33.615,33.615,0,0,1,1.5,6.142,24.537,24.537,0,0,1,.351,6.393,24.9,24.9,0,0,0,.484-6.47,34.843,34.843,0,0,0-.732-6.545A19.743,19.743,0,0,0,7.781,5.24,15.6,15.6,0,0,0,5.59,2.483a13.057,13.057,0,0,0-1.357-1.2c-.239-.19-.5-.368-.76-.542A7.189,7.189,0,0,0,2.553.225L2.41.159A1.694,1.694,0,1,0,.98,3.231a1.776,1.776,0,0,0,.364.122" transform="translate(54.014 116.817)" fill="#371a45"/>
            <path id="Trazado_7652" data-name="Trazado 7652" d="M30.078.018C27.83.353,25.537.634,23.262.88s-4.559.451-6.834.591-4.545.242-6.785.221a44.685,44.685,0,0,1-6.526-.441H3.11a2.687,2.687,0,1,0-.844,5.308c.084.013.172.023.255.028a49.462,49.462,0,0,0,7.325-.181c2.379-.2,4.713-.529,7.033-.892s4.619-.791,6.907-1.256,4.556-.964,6.843-1.527A1.385,1.385,0,0,0,30.1.014Z" transform="translate(49.664 193.522)" fill="#371a45"/>
            <path id="Trazado_7653" data-name="Trazado 7653" d="M.183.548A2.842,2.842,0,0,1,0,0Z" transform="translate(254.929 510.393)" fill="#d66b09"/>
            <path id="Trazado_7654" data-name="Trazado 7654" d="M11.946,18.134,19.382,9.01a4.369,4.369,0,0,0-2.69-7.073L5.072.058A4.369,4.369,0,0,0,.291,5.924l4.184,11a4.369,4.369,0,0,0,7.471,1.207" transform="translate(246.541 434.011)" fill="#e25a5a"/>
            <g id="Grupo_3495" data-name="Grupo 3495" transform="translate(246.967 434.065)" opacity="0.35">
              <g id="Grupo_3494" data-name="Grupo 3494" transform="translate(0 0)">
                <g id="Grupo_3493" data-name="Grupo 3493" clip-path="url(#clip-path-11)">
                  <path id="Trazado_7655" data-name="Trazado 7655" d="M11.862,18.18,19.354,9.1a4.369,4.369,0,0,0-2.647-7.089L5.1.063A4.369,4.369,0,0,0,.282,5.9L4.4,16.927a4.369,4.369,0,0,0,7.463,1.253" transform="translate(-0.001 0)" fill="#371a45"/>
                </g>
              </g>
            </g>
            <path id="Trazado_7656" data-name="Trazado 7656" d="M7.244,0a7.18,7.18,0,0,0-5.6,2.679A7.192,7.192,0,0,0,.484,9.853l4.184,11a7.267,7.267,0,0,0,12.425,2.008l7.437-9.125A7.266,7.266,0,0,0,20.056,1.974L8.436.1A7.457,7.457,0,0,0,7.244,0m4.224,19.744a1.556,1.556,0,0,1-.242-.019,1.446,1.446,0,0,1-1.14-.929L5.9,7.794A1.471,1.471,0,0,1,7.511,5.818L19.132,7.7a1.471,1.471,0,0,1,.906,2.381L12.6,19.2a1.423,1.423,0,0,1-1.133.542" transform="translate(243.64 431.112)" fill="#371a45"/>
            <path id="Trazado_7657" data-name="Trazado 7657" d="M1.505,62.859C8.5,29.947,49.392-4.032,70.191.39s44.332,52.1,37.335,85.008-36.4,54.547-65.678,48.324S-5.491,95.772,1.505,62.859" transform="translate(185.465 447.938)" fill="#00d7ed"/>
            <g id="Grupo_3498" data-name="Grupo 3498" transform="translate(185.465 510.504)" opacity="0.7">
              <g id="Grupo_3497" data-name="Grupo 3497" transform="translate(0 0)">
                <g id="Grupo_3496" data-name="Grupo 3496" clip-path="url(#clip-path-12)">
                  <path id="Trazado_7658" data-name="Trazado 7658" d="M1.505.294,1.569,0C-1.692,30.3,15.823,58.1,43.023,63.88c28.988,6.161,58.106-14.988,65.463-47.358a56.254,56.254,0,0,1-.961,6.308c-7,32.914-36.4,54.549-65.678,48.326S-5.492,33.207,1.505.294" transform="translate(0 0)" fill="#fff"/>
                </g>
              </g>
            </g>
            <g id="Grupo_3501" data-name="Grupo 3501" transform="translate(185.483 447.935)" opacity="0.35">
              <g id="Grupo_3500" data-name="Grupo 3500" transform="translate(0 0)">
                <g id="Grupo_3499" data-name="Grupo 3499" clip-path="url(#clip-path-13)">
                  <path id="Trazado_7659" data-name="Trazado 7659" d="M1.487,62.861C8.484,29.948,49.372-4.027,70.17.389S114.5,52.489,107.507,85.4c-.065.3-.129.6-.2.9-.516-26.385-22.34-59.038-40.845-62.972C45.667,18.9,6.252,45.935.448,73.244c-.172.8-.319,1.611-.448,2.411A68.071,68.071,0,0,1,1.487,62.861" transform="translate(0.001 0)" fill="#371a45"/>
                </g>
              </g>
            </g>
            <path id="Trazado_7660" data-name="Trazado 7660" d="M69.307,0C58.8,0,44.86,6.7,31.649,18.33,16.137,31.984,4.89,49.482,1.562,65.138c-7.317,34.422,11.781,67.752,42.574,74.3s61.8-16.133,69.116-50.555c3.328-15.656.171-36.217-8.445-55C96.395,15.544,84.47,2.729,73.685.436A21.046,21.046,0,0,0,69.307,0M54.837,134.767a45.609,45.609,0,0,1-9.5-1C17.674,127.886.578,97.64,7.231,66.343,13.508,36.815,49.062,5.769,69.071,5.766A16.394,16.394,0,0,1,72.48,6.1c19.065,4.053,41.756,50.278,35.1,81.571-5.89,27.707-28.45,47.091-52.746,47.091" transform="translate(182.574 445.056)" fill="#371a45"/>
            <g id="Grupo_3504" data-name="Grupo 3504" transform="translate(198.466 530.735)" opacity="0.5">
              <g id="Grupo_3503" data-name="Grupo 3503" transform="translate(0 0)">
                <g id="Grupo_3502" data-name="Grupo 3502" clip-path="url(#clip-path-14)">
                  <path id="Trazado_7661" data-name="Trazado 7661" d="M33.377,34.834c-14.432-1.293-23.654-7.218-29.9-17.048C-3.159,7.358.384-1.166,8.4.131S17.627,14.356,35.54,23.055c11.576,5.622,9.228,12.8-2.163,11.779" transform="translate(-0.001 0)" fill="#fff"/>
                </g>
              </g>
            </g>
            <path id="Trazado_7662" data-name="Trazado 7662" d="M.183.548A2.849,2.849,0,0,1,0,0Z" transform="translate(213.659 455.366)" fill="#d66b09"/>
            <path id="Trazado_7663" data-name="Trazado 7663" d="M1.505,62.86C8.5,29.947,49.392-4.032,70.191.39s44.332,52.1,37.335,85.008-36.4,54.547-65.678,48.324S-5.491,95.771,1.505,62.86" transform="translate(144.195 392.911)" fill="#f22"/>
            <g id="Grupo_3507" data-name="Grupo 3507" transform="translate(144.195 455.476)" opacity="0.7">
              <g id="Grupo_3506" data-name="Grupo 3506" transform="translate(0 0)">
                <g id="Grupo_3505" data-name="Grupo 3505" clip-path="url(#clip-path-15)">
                  <path id="Trazado_7664" data-name="Trazado 7664" d="M1.505.293,1.569,0C-1.693,30.3,15.823,58.1,43.023,63.88c28.988,6.161,58.106-14.988,65.463-47.358a56.278,56.278,0,0,1-.961,6.308c-7,32.914-36.4,54.549-65.678,48.326S-5.492,33.207,1.505.293" transform="translate(0 0.001)" fill="#fff"/>
                </g>
              </g>
            </g>
            <g id="Grupo_3510" data-name="Grupo 3510" transform="translate(145.052 399.615)" opacity="0.35">
              <g id="Grupo_3509" data-name="Grupo 3509" transform="translate(0 0)">
                <g id="Grupo_3508" data-name="Grupo 3508" clip-path="url(#clip-path-16)">
                  <path id="Trazado_7665" data-name="Trazado 7665" d="M1.487,62.861C8.484,29.948,49.372-4.027,70.17.389S114.5,52.489,107.507,85.4c-.065.3-.129.6-.2.9-.516-26.385-22.34-59.038-40.845-62.972C45.666,18.9,6.252,45.935.448,73.244c-.172.8-.319,1.611-.448,2.411A68.052,68.052,0,0,1,1.487,62.861" transform="translate(0 -0.001)" fill="#371a45"/>
                </g>
              </g>
            </g>
            <path id="Trazado_7666" data-name="Trazado 7666" d="M69.322,0c-10.5,0-24.447,6.7-37.659,18.33C16.152,31.983,4.905,49.482,1.577,65.138a67.429,67.429,0,0,0,6.885,47.475c8.035,14.113,20.71,23.639,35.69,26.823s30.434-.362,43.514-9.986a67.433,67.433,0,0,0,25.6-40.569c3.328-15.656.171-36.217-8.445-55C96.409,15.545,84.484,2.729,73.7.436A21.046,21.046,0,0,0,69.322,0m-14.4,134.776a45.978,45.978,0,0,1-9.57-1.008C32.017,130.932,20.7,122.4,13.5,109.746a61.641,61.641,0,0,1-6.252-43.4C13.523,36.815,49.077,5.769,69.086,5.766a16.392,16.392,0,0,1,3.409.339c19.066,4.054,41.756,50.278,35.1,81.571a61.642,61.642,0,0,1-23.367,37.106,49.355,49.355,0,0,1-29.3,9.994" transform="translate(141.289 390.03)" fill="#371a45"/>
            <g id="Grupo_3513" data-name="Grupo 3513" transform="translate(157.195 477.384)" opacity="0.5">
              <g id="Grupo_3512" data-name="Grupo 3512" transform="translate(0 0)">
                <g id="Grupo_3511" data-name="Grupo 3511" clip-path="url(#clip-path-17)">
                  <path id="Trazado_7667" data-name="Trazado 7667" d="M33.377,34.834c-14.432-1.293-23.654-7.218-29.9-17.048C-3.159,7.358.384-1.166,8.4.131S17.627,14.356,35.54,23.055c11.576,5.622,9.228,12.8-2.164,11.779" transform="translate(0 0)" fill="#fff"/>
                </g>
              </g>
            </g>
            <path id="Trazado_7668" data-name="Trazado 7668" d="M.424.393A2.84,2.84,0,0,1,0,0Z" transform="translate(289.187 454.491)" fill="#d66b09"/>
            <path id="Trazado_7669" data-name="Trazado 7669" d="M17.628,16.742,19.758,5.166A4.369,4.369,0,0,0,14,.258L2.907,4.2a4.369,4.369,0,0,0-1.37,7.442l8.96,7.634a4.369,4.369,0,0,0,7.13-2.535" transform="translate(246.66 384.97)" fill="#3bd8e0"/>
            <g id="Grupo_3516" data-name="Grupo 3516" transform="translate(247.059 384.881)" opacity="0.35">
              <g id="Grupo_3515" data-name="Grupo 3515" transform="translate(0 0)">
                <g id="Grupo_3514" data-name="Grupo 3514" clip-path="url(#clip-path-18)">
                  <path id="Trazado_7670" data-name="Trazado 7670" d="M17.576,16.755l2.2-11.564A4.369,4.369,0,0,0,14.047.25L2.932,4.125a4.369,4.369,0,0,0-1.415,7.434l8.914,7.688a4.369,4.369,0,0,0,7.145-2.491" transform="translate(0 0)" fill="#371a45"/>
                </g>
              </g>
            </g>
            <path id="Trazado_7671" data-name="Trazado 7671" d="M18.389,0a7.338,7.338,0,0,0-2.461.429L4.836,4.372A7.267,7.267,0,0,0,2.558,16.751l8.96,7.633a7.268,7.268,0,0,0,11.86-4.216L25.509,8.591A7.282,7.282,0,0,0,18.389,0M16.214,20.327a1.415,1.415,0,0,1-.936-.354l-8.96-7.633a1.471,1.471,0,0,1,.461-2.507L17.87,5.89a1.471,1.471,0,0,1,1.939,1.653L17.678,19.119a1.444,1.444,0,0,1-.954,1.12,1.549,1.549,0,0,1-.511.088" transform="translate(243.76 382.069)" fill="#371a45"/>
            <path id="Trazado_7672" data-name="Trazado 7672" d="M2.564,88.6C-7.134,56.378,12.371,6.919,32.733.791S96.657,25.14,106.355,57.359s-5.676,65.332-34.337,73.958S12.261,120.818,2.564,88.6" transform="translate(227.237 398.936)" fill="#068fff"/>
            <g id="Grupo_3519" data-name="Grupo 3519" transform="translate(229.716 450.303)" opacity="0.7">
              <g id="Grupo_3518" data-name="Grupo 3518" transform="translate(0 0)">
                <g id="Grupo_3517" data-name="Grupo 3517" clip-path="url(#clip-path-19)">
                  <path id="Trazado_7673" data-name="Trazado 7673" d="M.086,37.232,0,36.944c11.718,28.137,40.443,44.08,67.071,36.064C95.449,64.466,110.8,31.918,101.684,0a56.275,56.275,0,0,1,2.192,5.993c9.7,32.222-5.675,65.333-34.335,73.96S9.783,69.454.086,37.232" transform="translate(-0.001 -0.001)" fill="#fff"/>
                </g>
              </g>
            </g>
            <g id="Grupo_3522" data-name="Grupo 3522" transform="translate(227.237 406.479)" opacity="0.35">
              <g id="Grupo_3521" data-name="Grupo 3521" transform="translate(0 0)">
                <g id="Grupo_3520" data-name="Grupo 3520" clip-path="url(#clip-path-20)">
                  <path id="Trazado_7674" data-name="Trazado 7674" d="M2.564,88.6C-7.134,56.378,12.371,6.924,32.729.791S96.658,25.143,106.353,57.36c.089.3.176.59.259.885-13.144-22.884-47.984-41.014-66.1-35.561C20.153,28.811-1.4,71.468,6.648,98.2c.235.787.5,1.566.767,2.329A68.049,68.049,0,0,1,2.564,88.6" transform="translate(0.001 0)" fill="#371a45"/>
                </g>
              </g>
            </g>
            <path id="Trazado_7675" data-name="Trazado 7675" d="M41.3,0a22.673,22.673,0,0,0-6.533.886C24.213,4.064,13.39,17.823,6.524,36.794-.508,56.225-1.951,76.976,2.661,92.3h0a67.432,67.432,0,0,0,28.873,38.31c13.832,8.508,29.528,10.763,44.192,6.349s26.508-14.957,33.346-29.686A67.429,67.429,0,0,0,112,59.394C107.389,44.067,94.731,27.56,78.144,15.239,64.984,5.464,51.543,0,41.3,0M8.211,90.633C-1.009,60,17.776,12.053,36.441,6.436S97.232,30.43,106.453,61.065a61.638,61.638,0,0,1-2.638,43.771c-6.132,13.208-16.7,22.647-29.759,26.577s-27.081,1.893-39.486-5.736A61.64,61.64,0,0,1,8.211,90.633Z" transform="translate(224.365 396.066)" fill="#371a45"/>
            <g id="Grupo_3525" data-name="Grupo 3525" transform="translate(252.724 496.584)" opacity="0.5">
              <g id="Grupo_3524" data-name="Grupo 3524" transform="translate(0 0)">
                <g id="Grupo_3523" data-name="Grupo 3523" clip-path="url(#clip-path-21)">
                  <path id="Trazado_7676" data-name="Trazado 7676" d="M43.569,18.855C30.3,24.664,19.36,23.9,9.151,18.294-1.678,12.341-2.672,3.164,4.983.443S19.912,8.478,39.8,7.488c12.853-.64,14.247,6.782,3.769,11.367" transform="translate(-0.001 0)" fill="#fff"/>
                </g>
              </g>
            </g>
            <path id="Trazado_7677" data-name="Trazado 7677" d="M94.32,66.1a27.531,27.531,0,0,0-9.387-.387c-.143-.256-.293-.518-.443-.773C66.751,33.484,51.389,15.4,40.187,5.085a17.29,17.29,0,0,0-5.969-3.524C20.633-3.329,0,4.83,0,4.83L2.414,15.957,8.289,43.07a78.147,78.147,0,0,1,8.239,5.364c.549.405,1.129.83,1.728,1.279A179.371,179.371,0,0,1,35.54,64.576a272.742,272.742,0,0,1,37.249,45.588s5.57,9.949,18.824,6.58c7.067-1.8,10.74-4.759,11.926-8.794,0,0,6.668.736,6.855-8.714.168-8.027-3.331-30.55-16.073-33.132" transform="translate(141.934 180.857)" fill="#fff"/>
            <g id="Grupo_3528" data-name="Grupo 3528" transform="translate(141.934 180.858)" opacity="0.35">
              <g id="Grupo_3527" data-name="Grupo 3527" transform="translate(0 0)">
                <g id="Grupo_3526" data-name="Grupo 3526" clip-path="url(#clip-path-22)">
                  <path id="Trazado_7678" data-name="Trazado 7678" d="M84.484,64.931C66.745,33.477,51.389,15.395,40.187,5.085,27.912-6.2,0,4.829,0,4.829L2.963,18.5c9.231-2.121,20.707,1.153,29.9,5.295,36.423,16.4,39.515,41.166,41.7,53.548.281-3.911,2.339-8.944,9.917-12.412" transform="translate(0 0)" fill="#371a45"/>
                </g>
              </g>
            </g>
            <g id="Grupo_3531" data-name="Grupo 3531" transform="translate(217.109 246.35)" opacity="0.35">
              <g id="Grupo_3530" data-name="Grupo 3530" transform="translate(0 0)">
                <g id="Grupo_3529" data-name="Grupo 3529" clip-path="url(#clip-path-23)">
                  <path id="Trazado_7679" data-name="Trazado 7679" d="M13.91.01S2.647-.97,0,16.372c0,0,3.412-3.031,13.268-5.155,9.787-2.109,18.816,5.313,18.816,5.313S28.247-.356,13.91.01" transform="translate(-0.001 0)" fill="#371a45"/>
                </g>
              </g>
            </g>
            <path id="Trazado_7680" data-name="Trazado 7680" d="M2.687,0A2.684,2.684,0,0,0,1.5,5.092C1.781,5.233,30.131,19.641,62.8,69c2.335,4.074,9.8,10.821,21.779,7.781,6.77-1.719,11.048-4.56,13.077-8.686,2.123-4.316,1.668-9.662-1.429-16.822-3.03-7.005-9.31-10.8-14.623-8.818-4.884,1.822-8.548,8.692-4.185,22.51a2.684,2.684,0,1,0,5.119-1.616c-3.011-9.536-1.622-14.909.942-15.865,2.178-.816,5.787,1.22,7.821,5.92,2.392,5.531,2.9,9.561,1.538,12.321-1.293,2.629-4.427,4.544-9.581,5.852C72.124,74.4,67.474,66.365,67.429,66.283l-.1-.17C33.733,15.327,5.071.866,3.868.276A2.666,2.666,0,0,0,2.687,0" transform="translate(149.634 223.424)" fill="#371a45"/>
            <path id="Trazado_7681" data-name="Trazado 7681" d="M2.683,0a2.685,2.685,0,0,0-.7,5.277c.241.07,26.516,8.2,62.675,72.607l.934,1.663,1.878-.335a25.409,25.409,0,0,1,8.381.375c10.919,2.215,14.074,23.4,13.932,30.445-.051,2.491-.626,4.311-1.667,5.262a3.272,3.272,0,0,1-2.27.834,2.662,2.662,0,0,0-2.938,2.375,2.705,2.705,0,0,0,2.4,2.966,8.622,8.622,0,0,0,6.3-2.1c2.267-1.989,3.459-5.1,3.542-9.233.2-10.02-4.11-32.949-18.231-35.813a32.7,32.7,0,0,0-8.446-.607C31.383,8.267,4.516.4,3.382.093A2.681,2.681,0,0,0,2.683,0" transform="translate(159.862 170.004)" fill="#371a45"/>
            <path id="Trazado_7682" data-name="Trazado 7682" d="M12.721,0a2.708,2.708,0,0,0-.371.025C7.614.68,4.168,2.781,2.106,6.269c-3.3,5.59-2.719,14.318,1.735,25.941C8.17,43.5,13.834,43.929,14.9,43.9l-.144-5.366a.668.668,0,0,1,.192,0c-.03,0-3.126-.5-6.1-8.25C5.123,20.554,4.368,12.993,6.728,9c1.2-2.035,3.282-3.231,6.357-3.657A2.684,2.684,0,0,0,12.721,0" transform="translate(214.147 243.891)" fill="#371a45"/>
            <path id="Trazado_7683" data-name="Trazado 7683" d="M142.461,104.415c-2.776-14.246-9.281-47.621-28.891-66.8,0,0,1.541-25.617-9.088-34.835C97.228-3.515,76.109.97,71.637,15.34c-3.861,12.394,1.784,31.5,4.965,37.205C83.718,65.3,88.808,81.468,88.764,88.759l-8.651.412C74.849,75.462,61.676,55.153,51.3,45.9c0,0-.505-22.99-15.25-32.265C25.35,6.908,4.667,10.762.619,28.632c-2.832,12.5,4.722,30.1,9.038,36.85,6.836,10.672,19.336,35.8,24.319,54.6.343,1.291.649,2.558.917,3.786,1.123,5.14,2.233,10.379,3.312,15.537.985,4.728,1.952,9.387,2.869,13.859,2.614,12.712,4.884,23.839,6.424,30.294,0,0,.692,4.609,1.877,10.865.923,4.853,2.146,10.7,3.586,16.148,2.464,9.337,5.557,17.5,8.832,17.5h54.62a22.345,22.345,0,0,0,8.239-1.459,20.554,20.554,0,0,0,10.316-9.15,35.85,35.85,0,0,0,4.4-14.308c.774-6.605,1.9-14.576,2.975-23.415,2.707-22.329,5.027-50.173.119-75.328" transform="translate(33.81 2.676)" fill="#fff"/>
            <g id="Grupo_3534" data-name="Grupo 3534" transform="translate(72.015 139.113)" opacity="0.35">
              <g id="Grupo_3533" data-name="Grupo 3533" transform="translate(0 0)">
                <g id="Grupo_3532" data-name="Grupo 3532" clip-path="url(#clip-path-24)">
                  <path id="Trazado_7684" data-name="Trazado 7684" d="M6.4,2.227C6.244,1.484,6.088.742,5.925,0A24.739,24.739,0,0,0,0,2.969c.013.05.019.1.031.15Z" transform="translate(0 0)" fill="#371a45"/>
                </g>
              </g>
            </g>
            <g id="Grupo_3537" data-name="Grupo 3537" transform="translate(104.144 2.676)" opacity="0.35">
              <g id="Grupo_3536" data-name="Grupo 3536" transform="translate(0 0)">
                <g id="Grupo_3535" data-name="Grupo 3535" clip-path="url(#clip-path-25)">
                  <path id="Trazado_7685" data-name="Trazado 7685" d="M13.391,55.228c-3.181-5.707-8.826-24.812-4.965-37.205C11.837,7.064,24.923,1.856,34.161,2.791h0C26.919-3.52,5.777.961,1.3,15.341c-3.861,12.394,1.784,31.5,4.965,37.206C13.384,65.3,18.474,81.468,18.43,88.759l-8.651.411c-.736-1.915-1.622-3.954-2.645-6.081,1.507,5.459-.237,8.571-2.061,11.257A2.684,2.684,0,0,0,8.408,98.3c3.768-1.717,9.528-3.443,17.928-3.931A63.585,63.585,0,0,1,52.475,98.74a2.683,2.683,0,0,0,3.252-3.916c-7.305-11.463-36.395-28.949-42.336-39.6" transform="translate(0 0)" fill="#371a45"/>
                </g>
              </g>
            </g>
            <path id="Trazado_7686" data-name="Trazado 7686" d="M51.033,186.027c-2.461-20.312-6.341-40.367-10.74-60.378a117.7,117.7,0,0,0-4.565-14.993q-2.7-7.294-5.841-14.365T23.269,82.309c-2.336-4.6-4.754-9.153-7.461-13.621l-1.979-3.22-.883-1.585-.837-1.633c-1.084-2.2-2.054-4.477-2.929-6.782a73.656,73.656,0,0,1-2.238-7.026A56.129,56.129,0,0,1,5.59,41.294a34.244,34.244,0,0,1-.069-7.046A22.412,22.412,0,0,1,7.31,27.7a19.581,19.581,0,0,1,3.8-5.506,20.2,20.2,0,0,1,5.477-3.916,23.676,23.676,0,0,1,13.371-2.2,19.134,19.134,0,0,1,6.375,1.951,15.012,15.012,0,0,1,1.406.855l.7.476.673.523A23.926,23.926,0,0,1,41.643,22.2a29.6,29.6,0,0,1,4.08,5.665,40.578,40.578,0,0,1,2.866,6.567,52.325,52.325,0,0,1,1.829,7.046c.229,1.2.413,2.405.562,3.613.145,1.187.261,2.464.3,3.55l.043,1.17.855.774a79.121,79.121,0,0,1,8.528,9.293c2.655,3.336,5.151,6.827,7.512,10.407s4.571,7.265,6.616,11.021a101.839,101.839,0,0,1,5.435,11.5l.7,1.811,1.929-.092,8.656-.412,2.6-.124-.048-2.543a44.668,44.668,0,0,0-1.557-10.131c-.81-3.207-1.791-6.336-2.882-9.42A122.506,122.506,0,0,0,81.653,53.99,45.607,45.607,0,0,1,78.447,45.6a72.355,72.355,0,0,1-2.017-9.033,57.27,57.27,0,0,1-.732-9.115,30.22,30.22,0,0,1,1.181-8.69,16.659,16.659,0,0,1,4.378-6.9,23.1,23.1,0,0,1,7.2-4.581,25.539,25.539,0,0,1,8.427-1.9,18.574,18.574,0,0,1,4.169.251,10,10,0,0,1,3.547,1.28,5.32,5.32,0,0,1,.682.483c.221.168.47.44.707.652a13.448,13.448,0,0,1,1.326,1.526,20.894,20.894,0,0,1,2.174,3.631,38.75,38.75,0,0,1,2.708,8.522,68.785,68.785,0,0,1,1.217,9.149,82.159,82.159,0,0,1,.137,9.245l-.057,1.235.86.845a72.045,72.045,0,0,1,12.353,16.711,120.128,120.128,0,0,1,8.385,19.4,189.936,189.936,0,0,1,5.617,20.573q.573,2.614,1.1,5.25c.349,1.755.715,3.533.988,5.266s.614,3.482.861,5.235l.643,5.277a207.567,207.567,0,0,1,1,21.307c-.041,7.133-.465,14.275-1.114,21.4l-2.07,21.416c-.312,3.584-.619,7.174-.8,10.788s-.308,7.244-.171,10.9a.905.905,0,0,0,1.775.215l0-.007c1-3.506,1.8-7.026,2.544-10.567s1.378-7.1,1.951-10.674c1.125-7.151,1.942-14.368,2.407-21.623s.789-14.527.844-21.821a212.862,212.862,0,0,0-1.028-21.9l-.666-5.462c-.256-1.818-.6-3.627-.894-5.44-.291-1.83-.653-3.584-1.007-5.366s-.727-3.56-1.117-5.34a195.349,195.349,0,0,0-5.778-21.15,125.446,125.446,0,0,0-8.769-20.268,77.359,77.359,0,0,0-13.3-17.955l.8,2.08a87,87,0,0,0-.14-9.94,74.15,74.15,0,0,0-1.316-9.866,44.019,44.019,0,0,0-3.111-9.726,26.262,26.262,0,0,0-2.754-4.585,18.859,18.859,0,0,0-1.82-2.09c-.355-.326-.651-.645-1.059-.971a10.593,10.593,0,0,0-1.27-.908,15.289,15.289,0,0,0-5.409-2,23.936,23.936,0,0,0-5.39-.334A30.863,30.863,0,0,0,86.43,2.317,28.436,28.436,0,0,0,77.539,8a22.046,22.046,0,0,0-5.779,9.156A35.432,35.432,0,0,0,70.331,27.41a62.573,62.573,0,0,0,.8,10A77.708,77.708,0,0,0,73.292,47.1a50.133,50.133,0,0,0,3.671,9.5A117.235,117.235,0,0,1,84.619,73.7c1.043,2.948,1.977,5.933,2.734,8.93a40.131,40.131,0,0,1,1.394,8.794L91.3,88.754l-8.656.412,2.633,1.719a107.035,107.035,0,0,0-5.73-12.143Q76.362,72.886,72.7,67.334c-2.441-3.7-5.022-7.313-7.8-10.8a84.1,84.1,0,0,0-9.154-9.955l.9,1.944c-.054-1.467-.179-2.735-.339-4.082-.164-1.326-.365-2.645-.615-3.956a57.723,57.723,0,0,0-2.019-7.772,45.942,45.942,0,0,0-3.259-7.456,34.935,34.935,0,0,0-4.861-6.732,27.527,27.527,0,0,0-6.714-5.228,24.468,24.468,0,0,0-8.192-2.53,29.011,29.011,0,0,0-16.44,2.7,25.587,25.587,0,0,0-6.923,4.959,24.957,24.957,0,0,0-4.856,7.045A27.746,27.746,0,0,0,.187,33.645,39.5,39.5,0,0,0,.255,41.89a61.439,61.439,0,0,0,1.491,7.9,79.04,79.04,0,0,0,2.409,7.567c.937,2.47,1.972,4.9,3.144,7.278l.91,1.777L9.19,68.17l2.031,3.307c2.588,4.269,4.97,8.745,7.255,13.251s4.433,9.1,6.436,13.741,3.9,9.327,5.561,14.073a127.189,127.189,0,0,1,4.21,14.348c2.132,9.951,4.268,19.942,6.531,29.9,1.144,4.978,2.327,9.951,3.649,14.9s2.7,9.888,4.428,14.753a.9.9,0,0,0,1.741-.409Z" transform="translate(31.145 0)" fill="#371a45"/>
            <path id="Trazado_7687" data-name="Trazado 7687" d="M10.94,0A23.4,23.4,0,0,0,.88,2.194a1.676,1.676,0,1,0,1.593,2.95c.669-.356,16.644-8.531,29.6,12.254,7.387,11.844,3.126,23.944-1.385,36.756-3.656,10.383-7.436,21.12-4.961,32.147A1.676,1.676,0,1,0,29,85.567c-2.263-10.088,1.355-20.364,4.853-30.3,4.575-12.995,9.306-26.432,1.067-39.644C27.013,2.94,17.789,0,10.94,0" transform="translate(202.931 160.416)" fill="#371a45"/>
            <path id="Trazado_7688" data-name="Trazado 7688" d="M10.552.789C7.379.515,3.822.268,0,.09,2.283.031,4.386.006,6.261,0a11.941,11.941,0,0,1,4.29.789" transform="translate(148.682 108.356)" fill="#fff"/>
            <path id="Trazado_7689" data-name="Trazado 7689" d="M18.781,9.256a9.391,9.391,0,1,0-9.255,9.525,9.391,9.391,0,0,0,9.255-9.525" transform="translate(169.261 133.209)" fill="#fff"/>
            <g id="Grupo_3540" data-name="Grupo 3540" transform="translate(169.259 133.206)" opacity="0.35">
              <g id="Grupo_3539" data-name="Grupo 3539" transform="translate(0 0)">
                <g id="Grupo_3538" data-name="Grupo 3538" clip-path="url(#clip-path-26)">
                  <path id="Trazado_7690" data-name="Trazado 7690" d="M18.781,9.26A9.391,9.391,0,1,0,0,9.53a9.283,9.283,0,0,0,.961,4,9.392,9.392,0,0,1,16.975-.244,9.287,9.287,0,0,0,.845-4.027" transform="translate(-0.001 0)" fill="#371a45"/>
                </g>
              </g>
            </g>
            <path id="Trazado_7691" data-name="Trazado 7691" d="M11.491,0h-.169a11.487,11.487,0,1,0,.331,22.971A11.486,11.486,0,0,0,19.491,3.248a11.4,11.4,0,0,0-8-3.248m-.006,18.781a7.3,7.3,0,0,1-.1-14.589h.106a7.3,7.3,0,0,1,.1,14.59h-.106" transform="translate(167.165 131.114)" fill="#371a45"/>
            <g id="Grupo_3543" data-name="Grupo 3543" transform="translate(33.81 13.206)" opacity="0.35">
              <g id="Grupo_3542" data-name="Grupo 3542" transform="translate(0 0)">
                <g id="Grupo_3541" data-name="Grupo 3541" clip-path="url(#clip-path-27)">
                  <path id="Trazado_7692" data-name="Trazado 7692" d="M137.041,107.033a9.588,9.588,0,0,0-9.119-9.98l-44.347-2a9.583,9.583,0,0,0-9.98,9.119l-.125,2.838c-16.772-3.15-27.949-1.453-33.837.181C33.982,89.169,23.023,67.376,16.78,57.634c-4.316-6.749-11.87-24.35-9.038-36.85C11,6.37,25.094,1.074,36.034,3.1,25.331-3.622,4.667.239.619,18.1c-2.832,12.5,4.722,30.1,9.038,36.85,6.836,10.672,19.335,35.8,24.319,54.6.343,1.291.649,2.557.917,3.786,1.123,5.139,2.233,10.379,3.312,15.537a24.741,24.741,0,0,1,5.925-2.969c10.535-3.755,24.669-2.719,28.592-2.339l-.187,4.21a9.568,9.568,0,0,0,9.119,9.98l44.341,2a9.58,9.58,0,0,0,9.98-9.119l.842-18.693Z" transform="translate(0 0)" fill="#371a45"/>
                </g>
              </g>
            </g>
            <path id="Trazado_7693" data-name="Trazado 7693" d="M55.4,2.008,11.051.01A9.587,9.587,0,0,0,1.072,9.129L.01,32.729a9.593,9.593,0,0,0,7.22,9.7,9.31,9.31,0,0,0,1.9.28l44.341,2a9.579,9.579,0,0,0,9.979-9.12L64.3,16.9l.223-4.908A9.587,9.587,0,0,0,55.4,2.008" transform="translate(109.67 115.738)" fill="#fff"/>
            <g id="Grupo_3546" data-name="Grupo 3546" transform="translate(109.67 115.738)" opacity="0.35">
              <g id="Grupo_3545" data-name="Grupo 3545" transform="translate(0 0)">
                <g id="Grupo_3544" data-name="Grupo 3544" clip-path="url(#clip-path-28)">
                  <path id="Trazado_7694" data-name="Trazado 7694" d="M55.4,2.008,11.051.01A9.587,9.587,0,0,0,1.072,9.13L.01,32.729a9.593,9.593,0,0,0,7.22,9.7c2.593-1.559,4.241-2.557,4.241-2.557C14.484,21.026,20.3,11.822,43.844,12.5c10.161.294,16.5,2.132,20.451,4.4l.223-4.908A9.587,9.587,0,0,0,55.4,2.008" transform="translate(0 0)" fill="#371a45"/>
                </g>
              </g>
            </g>
            <path id="Trazado_7695" data-name="Trazado 7695" d="M12.71,0A11.683,11.683,0,0,0,1.076,11.13L.012,34.733A11.667,11.667,0,0,0,11.129,46.9l44.346,2A11.683,11.683,0,0,0,67.642,37.781l1.063-23.6A11.681,11.681,0,0,0,57.587,2.01l-44.344-2C13.066,0,12.887,0,12.71,0M56,44.72q-.169,0-.34-.007l-44.345-2A7.474,7.474,0,0,1,4.2,34.921l1.064-23.6A7.492,7.492,0,0,1,13.054,4.2h0L57.4,6.2a7.492,7.492,0,0,1,7.12,7.792l-1.063,23.6A7.5,7.5,0,0,1,56,44.72" transform="translate(107.575 113.641)" fill="#371a45"/>
            <path id="Trazado_7696" data-name="Trazado 7696" d="M57.171,2.262A8.5,8.5,0,0,0,55.4,2.007L11.051.01A9.577,9.577,0,0,0,2.11,5.23a9.4,9.4,0,0,0-1.032,3.9L.6,19.613.445,23.072.01,32.729a9.587,9.587,0,0,0,9.119,9.979l9.583.43a9.586,9.586,0,0,1-7.361-9.724l.571-12.748.491-10.858A9.592,9.592,0,0,1,22.392.687Z" transform="translate(109.67 115.739)" fill="#fff"/>
            <g id="Grupo_3549" data-name="Grupo 3549" transform="translate(110.115 115.738)" opacity="0.35">
              <g id="Grupo_3548" data-name="Grupo 3548" transform="translate(0 0)">
                <g id="Grupo_3547" data-name="Grupo 3547" clip-path="url(#clip-path-29)">
                  <path id="Trazado_7697" data-name="Trazado 7697" d="M56.726,2.262a8.52,8.52,0,0,0-1.772-.255L10.606.01A9.576,9.576,0,0,0,.634,9.129L0,23.073c1.227-2.414,3.367-5.347,6.587-5.521,1.767-.1,3.442,1.245,4.89,3.113l.491-10.859A9.592,9.592,0,0,1,21.948.687Z" transform="translate(0 0)" fill="#371a45"/>
                </g>
              </g>
            </g>
            <path id="Trazado_7698" data-name="Trazado 7698" d="M12.7,0A11.68,11.68,0,0,0,1.076,11.131L.012,34.733A11.682,11.682,0,0,0,11.13,46.9l9.579.43.576-4.132a7.473,7.473,0,0,1-5.746-7.6L16.6,12a7.487,7.487,0,0,1,7.786-7.12L59.173,6.45l.6-4.127a10.961,10.961,0,0,0-2.192-.312l-44.339-2Q12.969,0,12.7,0m.892,42.817-2.275-.1A7.492,7.492,0,0,1,4.2,34.923L5.262,11.317A7.487,7.487,0,0,1,13.048,4.2l2.568.116a11.539,11.539,0,0,0-3.2,7.5l-1.064,23.6a11.619,11.619,0,0,0,2.241,7.4" transform="translate(107.577 113.641)" fill="#371a45"/>
            <path id="Trazado_7699" data-name="Trazado 7699" d="M12.41,8.167C12.444,7.295,11.494.2,11.494.2L6.52,0C3.1-.131.18,3.306.008,7.68s2.465,8.029,5.89,8.164l4.974.2S12.354,9.59,12.41,8.167" transform="translate(128.315 129.778)" fill="#22a7f0"/>
            <g id="Grupo_3552" data-name="Grupo 3552" transform="translate(129.153 129.777)" opacity="0.35">
              <g id="Grupo_3551" data-name="Grupo 3551" transform="translate(0 0)">
                <g id="Grupo_3550" data-name="Grupo 3550" clip-path="url(#clip-path-30)">
                  <path id="Trazado_7700" data-name="Trazado 7700" d="M12.41,8.167C12.444,7.295,11.494.2,11.494.2L6.52,0C3.1-.131.18,3.306.008,7.68s2.465,8.029,5.89,8.164l4.974.2S12.354,9.59,12.41,8.167" transform="translate(0 0)" fill="#371a45"/>
                </g>
              </g>
            </g>
            <path id="Trazado_7701" data-name="Trazado 7701" d="M8.006,0C3.775,0,.214,4.105.009,9.291c-.208,5.291,3.156,9.734,7.5,9.9l3.472.137a3.451,3.451,0,0,0,3.535-2.727,56.6,56.6,0,0,0,1.246-6.695v0a57.9,57.9,0,0,0-.73-6.74A3.468,3.468,0,0,0,11.716.142L8.262.006C8.177,0,8.091,0,8.006,0m3.11,15.983h0L7.64,15.846c-2.453-.1-4.414-3.039-4.281-6.423C3.491,6.1,5.6,3.353,8.007,3.353l.124,0,3.454.136a.126.126,0,0,1,.121.108c.521,4.012.7,5.838.7,6.188a60.153,60.153,0,0,1-1.17,6.1.126.126,0,0,1-.125.1" transform="translate(127.476 128.1)" fill="#371a45"/>
            <path id="Trazado_7702" data-name="Trazado 7702" d="M12.41,8.168C12.582,3.793,9.945.139,6.52,0S.18,3.306.008,7.68,2.473,15.709,5.9,15.844s6.34-3.3,6.512-7.676" transform="translate(134.126 129.973)" fill="#22a7f0"/>
            <g id="Grupo_3555" data-name="Grupo 3555" transform="translate(134.124 135.58)" opacity="0.7">
              <g id="Grupo_3554" data-name="Grupo 3554" transform="translate(0 0)">
                <g id="Grupo_3553" data-name="Grupo 3553" clip-path="url(#clip-path-31)">
                  <path id="Trazado_7703" data-name="Trazado 7703" d="M12.41,2.56A9.8,9.8,0,0,0,12.349.985C11.506,4.318,9,6.689,6.14,6.577,3.139,6.463.744,3.643.308,0a9.877,9.877,0,0,0-.3,2.075C-.159,6.448,2.477,10.1,5.9,10.239S12.242,6.934,12.41,2.56" transform="translate(0 0)" fill="#fff"/>
                </g>
              </g>
            </g>
            <g id="Grupo_3558" data-name="Grupo 3558" transform="translate(134.124 129.972)" opacity="0.35">
              <g id="Grupo_3557" data-name="Grupo 3557" transform="translate(0 0)">
                <g id="Grupo_3556" data-name="Grupo 3556" clip-path="url(#clip-path-32)">
                  <path id="Trazado_7704" data-name="Trazado 7704" d="M12.41,8.168C12.583,3.8,9.946.14,6.524,0S.181,3.31.008,7.683a9.837,9.837,0,0,0,.139,2.11c.976-3.046,3.367-5.167,6.066-5.059,2.85.111,5.155,2.672,5.748,6.048a10.037,10.037,0,0,0,.449-2.614" transform="translate(0 0)" fill="#371a45"/>
                </g>
              </g>
            </g>
            <path id="Trazado_7705" data-name="Trazado 7705" d="M8.006,0C3.774,0,.213,4.105.009,9.292c-.208,5.289,3.156,9.733,7.5,9.9.086,0,.172.005.257.005,4.232,0,7.793-4.105,8-9.292.208-5.29-3.156-9.733-7.5-9.9C8.177,0,8.091,0,8.006,0M7.763,15.848c-.041,0-.082,0-.124,0-2.452-.1-4.413-3.039-4.28-6.424s2.287-6.17,4.772-6.067c2.452.1,4.413,3.039,4.28,6.423-.131,3.328-2.245,6.07-4.649,6.07" transform="translate(132.45 128.296)" fill="#371a45"/>
            <path id="Trazado_7706" data-name="Trazado 7706" d="M1.933,0A1.676,1.676,0,0,0,.258,1.64L0,13.591a9.916,9.916,0,0,0,4.271,8.377A6.547,6.547,0,0,1,7.1,27.65L6.4,44.484a1.676,1.676,0,1,0,3.349.139l.7-16.835a9.882,9.882,0,0,0-4.265-8.576,6.567,6.567,0,0,1-2.829-5.55l.256-11.95A1.677,1.677,0,0,0,1.97,0Z" transform="translate(151.017 115.619)" fill="#371a45"/>
            <path id="Trazado_7707" data-name="Trazado 7707" d="M7.91,24.5S.291,23.021.005,14.066C-.2,7.628,5.5,3.786,5.5,3.786s12.857-7.12,39.768-1.832c0,0,8.051,10.313-.655,16.483,0,0-25.528-3.209-36.706,6.064" transform="translate(66.298 125.935)" fill="#fff"/>
            <g id="Grupo_3561" data-name="Grupo 3561" transform="translate(66.296 125.935)" opacity="0.35">
              <g id="Grupo_3560" data-name="Grupo 3560" transform="translate(0 0)">
                <g id="Grupo_3559" data-name="Grupo 3559" clip-path="url(#clip-path-33)">
                  <path id="Trazado_7708" data-name="Trazado 7708" d="M45.275,1.952C18.362-3.331,5.507,3.785,5.507,3.785S-.2,7.627.005,14.064A14.64,14.64,0,0,0,.136,15.6a14.484,14.484,0,0,1,4.422-5.264S15.776,4.128,39.176,7.615a9.9,9.9,0,0,1,8.3,7.682l.023.114c3.58-6.019-2.22-13.46-2.22-13.46" transform="translate(0 0)" fill="#371a45"/>
                </g>
              </g>
            </g>
            <path id="Trazado_7709" data-name="Trazado 7709" d="M28.533,0C14.132,0,6.987,3.833,6.585,4.055l-.155.1C6.157,4.334-.233,8.727.007,16.235c.269,8.406,6.4,11.8,9.6,12.425l.974.189.764-.633c10.358-8.593,34.858-5.627,35.106-5.6l.808.1.665-.471a10.918,10.918,0,0,0,4.812-7.46c.887-6.044-3.528-11.782-3.716-12.023l-.481-.616L47.772,2A99.918,99.918,0,0,0,28.533,0M8.7,7.679c1.117-.555,13.4-6.263,37.444-1.726.915,1.384,2.944,4.9,2.446,8.242a6.53,6.53,0,0,1-2.477,4.167c-4.582-.476-25.578-2.14-36.549,5.93-1.7-.631-5.187-2.6-5.366-8.192-.153-4.786,3.878-7.96,4.5-8.421" transform="translate(64.202 123.832)" fill="#371a45"/>
            <path id="Trazado_7710" data-name="Trazado 7710" d="M26.934,0a2.088,2.088,0,0,0-.456.051C-2.161,6.408.022,33.466.047,33.738a2.116,2.116,0,0,0,2.28,1.893A2.1,2.1,0,0,0,4.22,33.354C4.134,32.385,2.41,9.686,27.387,4.142A2.1,2.1,0,0,0,26.934,0" transform="translate(189.398 226.781)" fill="#371a45"/>
            <path id="Trazado_7711" data-name="Trazado 7711" d="M14.045,16.748,19.931,6.554A4.369,4.369,0,0,0,16.147,0H4.376A4.369,4.369,0,0,0,.592,6.554L6.478,16.748a4.369,4.369,0,0,0,7.567,0" transform="translate(229.924 348.992)" fill="#ffe000"/>
            <g id="Grupo_3564" data-name="Grupo 3564" transform="translate(229.924 348.992)" opacity="0.35">
              <g id="Grupo_3563" data-name="Grupo 3563" transform="translate(0 0)">
                <g id="Grupo_3562" data-name="Grupo 3562" clip-path="url(#clip-path-34)">
                  <path id="Trazado_7712" data-name="Trazado 7712" d="M.134,5.436A4.374,4.374,0,0,1,4.376,0,4.374,4.374,0,0,0,.134,5.436" transform="translate(0.001 0)" fill="#371a45"/>
                </g>
              </g>
            </g>
            <g id="Grupo_3567" data-name="Grupo 3567" transform="translate(230.72 354.021)" opacity="0.35">
              <g id="Grupo_3566" data-name="Grupo 3566" transform="translate(0 0)">
                <g id="Grupo_3565" data-name="Grupo 3565" clip-path="url(#clip-path-35)">
                  <path id="Trazado_7713" data-name="Trazado 7713" d="M3.58,0H15.351a4.312,4.312,0,0,1,3.58,1.877L13.25,11.718a4.369,4.369,0,0,1-7.568,0L0,1.877A4.312,4.312,0,0,1,3.58,0" transform="translate(-0.001 0)" fill="#371a45"/>
                </g>
              </g>
            </g>
            <g id="Grupo_3570" data-name="Grupo 3570" transform="translate(246.687 349.034)" opacity="0.35">
              <g id="Grupo_3569" data-name="Grupo 3569" transform="translate(0 0)">
                <g id="Grupo_3568" data-name="Grupo 3568" clip-path="url(#clip-path-36)">
                  <path id="Trazado_7714" data-name="Trazado 7714" d="M0,0A4.365,4.365,0,0,1,3.6,3.158,4.365,4.365,0,0,0,0,0" transform="translate(-0.001 -0.001)" fill="#371a45"/>
                </g>
              </g>
            </g>
            <g id="Grupo_3573" data-name="Grupo 3573" transform="translate(250.283 352.192)" opacity="0.35">
              <g id="Grupo_3572" data-name="Grupo 3572" transform="translate(0 0)">
                <g id="Grupo_3571" data-name="Grupo 3571" clip-path="url(#clip-path-37)">
                  <path id="Trazado_7715" data-name="Trazado 7715" d="M0,0A4.334,4.334,0,0,1,.162,1.1,4.334,4.334,0,0,0,0,0" transform="translate(0.001 0)" fill="#371a45"/>
                </g>
              </g>
            </g>
            <path id="Trazado_7716" data-name="Trazado 7716" d="M19.049,0H7.278A7.192,7.192,0,0,0,.986,3.633a7.193,7.193,0,0,0,0,7.267L6.87,21.094a7.192,7.192,0,0,0,6.292,3.633h0a7.194,7.194,0,0,0,6.294-3.633h0L25.343,10.9a7.193,7.193,0,0,0,0-7.267A7.192,7.192,0,0,0,19.049,0M13.164,18.932A1.445,1.445,0,0,1,11.89,18.2L6,8A1.471,1.471,0,0,1,7.278,5.8H19.049A1.471,1.471,0,0,1,20.324,8L14.438,18.2a1.447,1.447,0,0,1-1.275.735" transform="translate(227.022 346.094)" fill="#371a45"/>
            <path id="Trazado_7717" data-name="Trazado 7717" d="M.084,72.648C1.741,39.041,36.687-1.027,57.924.02S110,44.376,108.343,77.983,81.11,137.639,51.215,136.165-1.572,106.254.084,72.648" transform="translate(182.641 362.402)" fill="#ffe000"/>
            <g id="Grupo_3576" data-name="Grupo 3576" transform="translate(182.642 434.003)" opacity="0.7">
              <g id="Grupo_3575" data-name="Grupo 3575" transform="translate(0 0)">
                <g id="Grupo_3574" data-name="Grupo 3574" clip-path="url(#clip-path-38)">
                  <path id="Trazado_7718" data-name="Trazado 7718" d="M.085,1.047C.09.947.1.847.1.747,1.715,31.183,23.44,55.828,51.215,57.2c29.6,1.457,54.97-24.066,57.069-57.2a56.265,56.265,0,0,1,.058,6.381c-1.657,33.608-27.233,59.658-57.127,58.185S-1.572,34.655.085,1.047" transform="translate(-0.001 0)" fill="#fff"/>
                </g>
              </g>
            </g>
            <g id="Grupo_3579" data-name="Grupo 3579" transform="translate(182.642 369.944)" opacity="0.35">
              <g id="Grupo_3578" data-name="Grupo 3578" transform="translate(0 0)">
                <g id="Grupo_3577" data-name="Grupo 3577" clip-path="url(#clip-path-39)">
                  <path id="Trazado_7719" data-name="Trazado 7719" d="M.084,72.649C1.741,39.041,36.686-1.022,57.922.02S110,44.38,108.342,77.983c-.016.311-.032.616-.053.921-4.719-25.965-31.473-54.718-50.368-55.649C36.686,22.208,2.089,55.18.716,83.065c-.042.821-.058,1.641-.058,2.451A68.079,68.079,0,0,1,.084,72.649" transform="translate(0 0)" fill="#371a45"/>
                </g>
              </g>
            </g>
            <path id="Trazado_7720" data-name="Trazado 7720" d="M60.045,0C49.138,0,34.792,9.248,22.323,24.394,9.188,40.346.877,59.414.089,75.4A67.431,67.431,0,0,0,14.459,121.17c10.183,12.65,24.215,20.032,39.512,20.786,31.422,1.548,58.432-25.786,60.165-60.934.787-15.987-5.609-35.78-17.111-52.947C85.8,11.314,71.978.565,60.965.022Q60.51,0,60.045,0M56.517,136.223q-1.127,0-2.261-.056c-13.62-.671-26.151-7.288-35.282-18.632a61.639,61.639,0,0,1-13.1-41.849C6.606,60.9,14.427,43.1,26.8,28.077,38.3,14.1,51.64,5.364,60.68,5.811c19.468.959,49.242,42.972,47.667,74.925-1.533,31.1-24.558,55.487-51.831,55.487" transform="translate(179.742 359.506)" fill="#371a45"/>
            <g id="Grupo_3582" data-name="Grupo 3582" transform="translate(198.588 451.665)" opacity="0.7">
              <g id="Grupo_3581" data-name="Grupo 3581" transform="translate(0 0)">
                <g id="Grupo_3580" data-name="Grupo 3580" clip-path="url(#clip-path-40)">
                  <path id="Trazado_7721" data-name="Trazado 7721" d="M37.44,30.274C22.987,31.3,12.938,26.922,5.2,18.216-3.011,8.98-.873,0,7.251,0S18.626,12.571,37.7,18.3C50.022,22,48.849,29.464,37.44,30.274" transform="translate(-0.001 0)" fill="#fff"/>
                </g>
              </g>
            </g>
            <path id="Trazado_7722" data-name="Trazado 7722" d="M90.7,91.683l-5.4-21L75.669,33.147c-1.067-.393-2.208-.8-3.437-1.247-6.543-2.4-15.425-6.156-27.151-17.664C40.971,10.2,36.374,7.193,29.17,2.783,13.67-6.691-13.7,8.728,8.119,38.3c18.837,25.529,40.648,37.243,59,44.622,6.131,2.457,11.876,4.441,17,6.287,2.333.842,4.534,1.659,6.58,2.476" transform="translate(2.652 124.043)" fill="#fff"/>
            <g id="Grupo_3585" data-name="Grupo 3585" transform="translate(2.655 124.043)" opacity="0.35">
              <g id="Grupo_3584" data-name="Grupo 3584" transform="translate(0 0)">
                <g id="Grupo_3583" data-name="Grupo 3583" clip-path="url(#clip-path-41)">
                  <path id="Trazado_7723" data-name="Trazado 7723" d="M75.666,33.146C68.911,30.638,59,27.894,45.079,14.234,40.968,10.2,36.371,7.193,29.167,2.783,16.325-5.064-4.657,4.168.925,24.382c4.943-34.8,35.029-12.2,45.6-.9,16.836,18,36.617,23.4,38.525,19.959s-9.38-10.3-9.38-10.3" transform="translate(0 0)" fill="#371a45"/>
                </g>
              </g>
            </g>
            <path id="Trazado_7724" data-name="Trazado 7724" d="M21.65,0A22.494,22.494,0,0,0,5.112,6.982c-7.893,8.611-6.585,21.912,3.5,35.581C32.91,75.5,61.619,85.744,82.581,93.227c3.512,1.254,6.83,2.438,9.771,3.615a2.684,2.684,0,1,0,1.994-4.983c-3.035-1.214-6.4-2.415-9.96-3.687-20.311-7.251-48.129-17.182-71.454-48.8C4.364,27.763,2.956,17.278,9.07,10.609A17.418,17.418,0,0,1,30.42,7.747c7.459,4.562,11.671,7.382,15.432,11.073C58.985,31.707,68.975,35.3,75.587,37.675c.624.225,1.225.441,1.8.655A2.684,2.684,0,1,0,79.257,33.3c-.593-.22-1.212-.443-1.854-.674-6.539-2.351-15.5-5.572-27.79-17.635C45.48,10.933,41.034,7.946,33.222,3.168A22.18,22.18,0,0,0,21.65,0" transform="translate(0 121.372)" fill="#371a45"/>
            <path id="Trazado_7725" data-name="Trazado 7725" d="M14.161.056h0A1.61,1.61,0,0,0,12.186,1.19L.056,45.956A1.61,1.61,0,0,0,1.19,47.931,16.893,16.893,0,0,0,21.912,36.044l4.136-15.266A16.892,16.892,0,0,0,14.161.056" transform="translate(176.079 275.053)" fill="#fff"/>
            <path id="Trazado_7726" data-name="Trazado 7726" d="M14.305,0a2.183,2.183,0,0,0-2.1,1.611L.077,46.377a2.179,2.179,0,0,0,1.534,2.674A17.481,17.481,0,0,0,23.031,36.764L27.168,21.5A17.461,17.461,0,0,0,14.88.078,2.2,2.2,0,0,0,14.305,0M6.173,48.522a16.3,16.3,0,0,1-4.264-.57,1.042,1.042,0,0,1-.733-1.277L13.3,1.909a1.04,1.04,0,0,1,1.276-.733h0A16.323,16.323,0,0,1,26.069,21.2L21.933,36.465A16.355,16.355,0,0,1,6.173,48.522" transform="translate(175.509 274.483)" fill="#371a45"/>
            <g id="Grupo_3588" data-name="Grupo 3588" transform="translate(185.036 275.049)" opacity="0.35">
              <g id="Grupo_3587" data-name="Grupo 3587" transform="translate(0 0)">
                <g id="Grupo_3586" data-name="Grupo 3586" clip-path="url(#clip-path-42)">
                  <path id="Trazado_7727" data-name="Trazado 7727" d="M15.152,27.94l1.941-7.159A16.9,16.9,0,0,0,5.2.056,1.614,1.614,0,0,0,3.228,1.193L0,13.092a1.613,1.613,0,0,1,1.664-.539l1.061.291a16.879,16.879,0,0,1,12.428,15.1" transform="translate(-0.001 0.001)" fill="#371a45"/>
                </g>
              </g>
            </g>
            <path id="Trazado_7728" data-name="Trazado 7728" d="M16.418,0a4.3,4.3,0,0,0-4.137,3.174L.151,47.939a4.3,4.3,0,0,0,3.023,5.268A19.6,19.6,0,0,0,27.189,39.432l4.136-15.266A19.576,19.576,0,0,0,17.548.152,4.3,4.3,0,0,0,16.418,0m-.273,5.333h0M5.624,48.268,17.171,5.652a14.208,14.208,0,0,1,8.972,17.11L22.007,38.028A14.228,14.228,0,0,1,5.624,48.268" transform="translate(173.393 272.368)" fill="#371a45"/>
            <path id="Trazado_7729" data-name="Trazado 7729" d="M12.479,48.467h0a1.61,1.61,0,0,0,1.975-1.133L26.584,2.567A1.61,1.61,0,0,0,25.451.592,16.893,16.893,0,0,0,4.728,12.479L.592,27.744A16.892,16.892,0,0,0,12.479,48.467" transform="translate(17.026 234.481)" fill="#fff"/>
            <path id="Trazado_7730" data-name="Trazado 7730" d="M21.6,0A17.491,17.491,0,0,0,4.746,12.9L.61,28.162A17.482,17.482,0,0,0,12.9,49.583a2.181,2.181,0,0,0,2.673-1.533L27.7,3.283A2.181,2.181,0,0,0,26.166.61,17.4,17.4,0,0,0,21.6,0M13.2,48.484A16.343,16.343,0,0,1,1.708,28.46L5.844,13.195A16.324,16.324,0,0,1,25.868,1.708,1.043,1.043,0,0,1,26.6,2.985L14.472,47.751a1.042,1.042,0,0,1-1.277.733" transform="translate(16.459 233.914)" fill="#371a45"/>
            <g id="Grupo_3591" data-name="Grupo 3591" transform="translate(20.014 234.481)" opacity="0.35">
              <g id="Grupo_3590" data-name="Grupo 3590" transform="translate(0 0)">
                <g id="Grupo_3589" data-name="Grupo 3589" clip-path="url(#clip-path-43)">
                  <path id="Trazado_7731" data-name="Trazado 7731" d="M20.235,14.987,23.6,2.568A1.614,1.614,0,0,0,22.462.591,16.885,16.885,0,0,0,1.743,12.476L0,18.909a16.9,16.9,0,0,1,17.448-5.552l1.633.443a1.629,1.629,0,0,1,1.153,1.187" transform="translate(0 0.001)" fill="#371a45"/>
                </g>
              </g>
            </g>
            <path id="Trazado_7732" data-name="Trazado 7732" d="M23.72,0A19.612,19.612,0,0,0,4.82,14.459L.683,29.724A19.6,19.6,0,0,0,14.459,53.74a4.3,4.3,0,0,0,5.268-3.021L31.857,5.952A4.294,4.294,0,0,0,28.834.684,19.541,19.541,0,0,0,23.72,0M14.837,48.239A14.229,14.229,0,0,1,5.865,31.128L10,15.863A14.21,14.21,0,0,1,26.384,5.623Zm1.026.319h0m-.7,2.591h0Z" transform="translate(14.344 231.799)" fill="#371a45"/>
            <g id="Grupo_3594" data-name="Grupo 3594" transform="translate(69.776 189.158)" opacity="0.35">
              <g id="Grupo_3593" data-name="Grupo 3593" transform="translate(0 0)">
                <g id="Grupo_3592" data-name="Grupo 3592" clip-path="url(#clip-path-44)">
                  <path id="Trazado_7733" data-name="Trazado 7733" d="M107.7,56.276A63.918,63.918,0,0,0,18.182,5.567Q15.74,6.652,13.41,7.944A64.092,64.092,0,0,0,0,17.8c6.131,2.458,11.876,4.441,17,6.287,2.464,9.337,5.558,17.5,8.832,17.5H80.448a22.344,22.344,0,0,0,8.239-1.46c.549.405,1.129.83,1.728,1.279A179.341,179.341,0,0,1,107.7,56.276" transform="translate(0 0)" fill="#371a45"/>
                </g>
              </g>
            </g>
            <path id="Trazado_7734" data-name="Trazado 7734" d="M156.61,94.258a79.036,79.036,0,1,0-92.766,62.353A79.036,79.036,0,0,0,156.61,94.258" transform="translate(30.831 199.98)" fill="#fff"/>
            <path id="Trazado_7735" data-name="Trazado 7735" d="M79.464,0a79.625,79.625,0,0,0-65.9,124.038A79.606,79.606,0,1,0,94.946,1.511,80.487,80.487,0,0,0,79.464,0m.329,158.12a79.246,79.246,0,0,1-15.261-1.49A78.467,78.467,0,0,1,35.857,14.507,78.466,78.466,0,0,1,156.63,94.727,78.525,78.525,0,0,1,79.793,158.12" transform="translate(30.252 199.402)" fill="#371a45"/>
            <g id="Grupo_3597" data-name="Grupo 3597" transform="translate(31.685 199.979)" opacity="0.35">
              <g id="Grupo_3596" data-name="Grupo 3596" transform="translate(0 0)">
                <g id="Grupo_3595" data-name="Grupo 3595" clip-path="url(#clip-path-45)">
                  <path id="Trazado_7736" data-name="Trazado 7736" d="M152.908,104.849a79.039,79.039,0,1,0-152.273-41C.392,65.076.179,66.315,0,67.54a79.04,79.04,0,0,1,152.908,37.309" transform="translate(0 0)" fill="#371a45"/>
                </g>
              </g>
            </g>
            <path id="Trazado_7737" data-name="Trazado 7737" d="M81.574,0A81.74,81.74,0,0,0,13.922,127.332,81.72,81.72,0,1,0,97.468,1.551,82.621,82.621,0,0,0,81.574,0M81.9,158.12a77.134,77.134,0,0,1-14.849-1.45,76.352,76.352,0,0,1-27.9-138.293A76.352,76.352,0,0,1,156.67,96.435,76.409,76.409,0,0,1,81.9,158.12" transform="translate(28.137 197.286)" fill="#371a45"/>
            <path id="Trazado_7738" data-name="Trazado 7738" d="M155.088,83.568a70.893,70.893,0,0,0-4.67-43.62C145.966,29.9,123.308,9.169,91.4,2.111,61.818-4.433,31.5,5.658,23.36,13.038A70.891,70.891,0,0,0,1.407,51.019c-8.48,40.04,22.4,63.925,64.844,72.913s80.356-.324,88.836-40.364" transform="translate(32.496 208.629)" fill="#371a45"/>
            <g id="Grupo_3600" data-name="Grupo 3600" transform="translate(151.319 276.687)" opacity="0.5">
              <g id="Grupo_3599" data-name="Grupo 3599" transform="translate(0 0)">
                <g id="Grupo_3598" data-name="Grupo 3598" clip-path="url(#clip-path-46)">
                  <path id="Trazado_7739" data-name="Trazado 7739" d="M.009,13.686C.236,5.964,4.956-.162,10.551,0S20.5,6.561,20.27,14.282,15.322,28.13,9.727,27.965-.219,21.407.009,13.686" transform="translate(0 0)" fill="#fff"/>
                </g>
              </g>
            </g>
            <g id="Grupo_3603" data-name="Grupo 3603" transform="translate(149.531 254.583)" opacity="0.5">
              <g id="Grupo_3602" data-name="Grupo 3602" transform="translate(0 0)">
                <g id="Grupo_3601" data-name="Grupo 3601" clip-path="url(#clip-path-47)">
                  <path id="Trazado_7740" data-name="Trazado 7740" d="M.045,7.01C-.341,3.486,1.8.36,4.822.029S10.612,2.286,11,5.81s-1.752,6.65-4.777,6.982S.431,10.535.045,7.01" transform="translate(0 0)" fill="#fff"/>
                </g>
              </g>
            </g>
            <g id="Grupo_3606" data-name="Grupo 3606" transform="translate(91.048 208.625)" opacity="0.35">
              <g id="Grupo_3605" data-name="Grupo 3605" transform="translate(0 0)">
                <g id="Grupo_3604" data-name="Grupo 3604" clip-path="url(#clip-path-48)">
                  <path id="Trazado_7741" data-name="Trazado 7741" d="M73.679,117.76c11.292-6.974,19.447-18.105,22.855-34.186a70.928,70.928,0,0,0-4.667-43.621C87.414,29.905,64.753,9.173,32.849,2.112A97.482,97.482,0,0,0,0,.808C39.033,10.323,66.6,35.718,72.125,48.18a89.951,89.951,0,0,1,5.925,55.359,80.009,80.009,0,0,1-4.371,14.222" transform="translate(0 0)" fill="#111a28"/>
                </g>
              </g>
            </g>
            <path id="Trazado_7742" data-name="Trazado 7742" d="M2.511,0A2.514,2.514,0,0,0,.219,3.535C9.631,26.481,33.655,43.586,66.144,50.467c32.25,6.829,61.048,1.319,79.04-15.12a2.515,2.515,0,0,0-2.716-4.2c-.036.018-.086.044-.121.064l-.254.142-.214.2c-16.773,15.393-44,20.494-74.693,13.992C36.323,39.01,13.6,22.98,4.849,1.568L4.74,1.337A2.527,2.527,0,0,0,2.511,0m141.07,33.406h0Z" transform="translate(29.947 292.509)" fill="#371a45"/>
            <g id="Grupo_3609" data-name="Grupo 3609" transform="translate(46.082 239.483)" opacity="0.5">
              <g id="Grupo_3608" data-name="Grupo 3608" transform="translate(0 0)">
                <g id="Grupo_3607" data-name="Grupo 3607" clip-path="url(#clip-path-49)">
                  <path id="Trazado_7743" data-name="Trazado 7743" d="M10.123,0S-10.644,36.873,7.31,57.122,55.9,83.794,55.6,81.679c0,0-32.167-15.39-39.757-45C9.995,13.838,10.123,0,10.123,0" transform="translate(0 0)" fill="#fff"/>
                </g>
              </g>
            </g>
            <path id="Trazado_7744" data-name="Trazado 7744" d="M2.028,4.345c2.906.177,5.913.284,8.869.427,2.965.158,5.939.263,8.9.532s5.914.6,8.837,1.132A56.5,56.5,0,0,1,37.3,8.668l.008,0a.3.3,0,0,0,.269-.533,38.946,38.946,0,0,0-8.3-4.111A67.185,67.185,0,0,0,20.34,1.566,75.812,75.812,0,0,0,11.19.236,56.794,56.794,0,0,0,1.921.156a2.1,2.1,0,0,0,.05,4.187Z" transform="translate(120.681 89.697)" fill="#371a45"/>
            <path id="Trazado_7745" data-name="Trazado 7745" d="M29.464,0C13.646,0,.911,10.738.729,10.894a2.1,2.1,0,0,0,2.732,3.177C4.419,13.251,27.11-5.789,48.306,11a2.1,2.1,0,1,0,2.6-3.284A33.8,33.8,0,0,0,29.464,0" transform="translate(115.38 58.087)" fill="#371a45"/>
            <path id="Trazado_7746" data-name="Trazado 7746" d="M36.817,0C29.765,0,22.476,2.735,15.227,8.17A71.146,71.146,0,0,0,.355,23.625a2.1,2.1,0,0,0,3.48,2.337c.213-.318,21.689-31.686,44.922-18.487A2.1,2.1,0,1,0,50.829,3.83,28.064,28.064,0,0,0,36.817,0" transform="translate(52.955 64.917)" fill="#371a45"/>
            <path id="Trazado_7747" data-name="Trazado 7747" d="M24.827,0a2.1,2.1,0,0,0-2.071,1.79C19.636,22.964.816,41.689.626,41.876a2.1,2.1,0,0,0,2.938,2.989C4.379,44.065,23.574,24.988,26.9,2.4A2.1,2.1,0,0,0,25.135.022,2.22,2.22,0,0,0,24.827,0" transform="translate(40.994 149.875)" fill="#371a45"/>
            <path id="Trazado_7748" data-name="Trazado 7748" d="M0,14.384A28.986,28.986,0,0,1,6.317,7.723a20.842,20.842,0,0,1,7.932-3.858,16.86,16.86,0,0,1,8.4.282A25.024,25.024,0,0,1,30.2,7.98a2.692,2.692,0,1,0,2.847-4.555l-.037-.019A29.665,29.665,0,0,0,23.445.2,21.133,21.133,0,0,0,18.351.12,20.24,20.24,0,0,0,13.457,1.3a22.863,22.863,0,0,0-8.03,5.417A29.636,29.636,0,0,0,0,14.384" transform="translate(53.505 42.887)" fill="#371a45"/>
            <path id="Trazado_7749" data-name="Trazado 7749" d="M0,12.695A24.361,24.361,0,0,1,5.9,6.924,19.332,19.332,0,0,1,13.194,3.8a17.463,17.463,0,0,1,7.621.267A25.244,25.244,0,0,1,27.83,7.134a2.694,2.694,0,0,0,2.841-4.578,2.728,2.728,0,0,0-.37-.192l-.042-.017A29.907,29.907,0,0,0,21.449.088a20.84,20.84,0,0,0-8.983,1.125A21.358,21.358,0,0,0,5.054,5.885,25.019,25.019,0,0,0,0,12.695" transform="translate(118.335 35.551)" fill="#371a45"/>
          </g>
        </g>
      </g>
    </g>
    <g id="Grupo_3643" data-name="Grupo 3643" transform="translate(24.874 315.639)">
      <g id="Grupo_3642" data-name="Grupo 3642" clip-path="url(#clip-path-50)">
        <path id="Trazado_7769" data-name="Trazado 7769" d="M22.4,8.549,18.53,1.479a2.841,2.841,0,0,0-4.986,0L9.677,8.549a2.843,2.843,0,0,1-1.129,1.13l-7.07,3.867a2.842,2.842,0,0,0,0,4.986L8.548,22.4a2.843,2.843,0,0,1,1.129,1.13l3.867,7.07a2.841,2.841,0,0,0,4.986,0l3.867-7.07a2.841,2.841,0,0,1,1.13-1.13l7.07-3.867a2.842,2.842,0,0,0,0-4.986l-7.07-3.867a2.841,2.841,0,0,1-1.13-1.13" transform="translate(0.001 0)" fill="#fff"/>
      </g>
    </g>
    <g id="Grupo_3646" data-name="Grupo 3646" transform="translate(100.329 527.883)">
      <g id="Grupo_3642-2" data-name="Grupo 3642" clip-path="url(#clip-path-51)">
        <path id="Trazado_7769-2" data-name="Trazado 7769" d="M16.926,6.461,14,1.117a2.147,2.147,0,0,0-3.768,0L7.313,6.461a2.148,2.148,0,0,1-.853.854L1.116,10.236a2.148,2.148,0,0,0,0,3.768L6.46,16.927a2.148,2.148,0,0,1,.853.854l2.922,5.343a2.147,2.147,0,0,0,3.768,0l2.922-5.343a2.147,2.147,0,0,1,.854-.854L23.123,14a2.148,2.148,0,0,0,0-3.768L17.78,7.314a2.147,2.147,0,0,1-.854-.854" transform="translate(0.001 0)" fill="#fff"/>
      </g>
    </g>
    <g id="Grupo_3645" data-name="Grupo 3645" transform="translate(364.281 361.024)">
      <g id="Grupo_3642-3" data-name="Grupo 3642" transform="translate(0)" clip-path="url(#clip-path-50)">
        <path id="Trazado_7769-3" data-name="Trazado 7769" d="M22.4,8.549l-3.867-7.07a2.841,2.841,0,0,0-4.986,0L9.677,8.549a2.843,2.843,0,0,1-1.129,1.13l-7.07,3.867a2.842,2.842,0,0,0,0,4.986L8.548,22.4a2.843,2.843,0,0,1,1.129,1.13l3.867,7.07a2.841,2.841,0,0,0,4.986,0l3.867-7.07a2.841,2.841,0,0,1,1.13-1.13l7.07-3.867a2.842,2.842,0,0,0,0-4.986l-7.07-3.867a2.841,2.841,0,0,1-1.13-1.13" transform="translate(0.001 0)" fill="#fff"/>
      </g>
    </g>
    <g id="Grupo_3644" data-name="Grupo 3644" transform="translate(255.407 13.676)">
      <g id="Grupo_3642-4" data-name="Grupo 3642" transform="translate(0)" clip-path="url(#clip-path-53)">
        <path id="Trazado_7769-4" data-name="Trazado 7769" d="M11.2,4.275,9.265.74a1.421,1.421,0,0,0-2.493,0L4.838,4.275a1.421,1.421,0,0,1-.565.565L.739,6.773a1.421,1.421,0,0,0,0,2.493L4.274,11.2a1.421,1.421,0,0,1,.565.565L6.772,15.3a1.421,1.421,0,0,0,2.493,0L11.2,11.764a1.421,1.421,0,0,1,.565-.565L15.3,9.266a1.421,1.421,0,0,0,0-2.493L11.763,4.839a1.421,1.421,0,0,1-.565-.565" transform="translate(0.001 0)" fill="#fff"/>
      </g>
    </g>
  </g>
</svg>
