<svg xmlns="http://www.w3.org/2000/svg" xmlns:xlink="http://www.w3.org/1999/xlink" width="277.937" height="460.201" viewBox="0 0 277.937 460.201">
  <defs>
    <clipPath id="clip-path">
      <rect id="Rectángulo_595" data-name="Rectángulo 595" width="239.101" height="239.101" fill="none"/>
    </clipPath>
    <clipPath id="clip-path-3">
      <rect id="Rectángulo_586" data-name="Rectángulo 586" width="111.835" height="86.609" fill="none"/>
    </clipPath>
    <clipPath id="clip-path-4">
      <rect id="Rectángulo_587" data-name="Rectángulo 587" width="50.196" height="81.988" fill="none"/>
    </clipPath>
    <clipPath id="clip-path-5">
      <rect id="Rectángulo_588" data-name="Rectángulo 588" width="91.443" height="43.397" fill="none"/>
    </clipPath>
    <clipPath id="clip-path-6">
      <rect id="Rectángulo_589" data-name="Rectángulo 589" width="234.008" height="182.904" fill="none"/>
    </clipPath>
    <clipPath id="clip-path-7">
      <rect id="Rectángulo_590" data-name="Rectángulo 590" width="61.328" height="47.105" fill="none"/>
    </clipPath>
    <clipPath id="clip-path-8">
      <rect id="Rectángulo_591" data-name="Rectángulo 591" width="39.873" height="104.614" fill="none"/>
    </clipPath>
    <clipPath id="clip-path-9">
      <rect id="Rectángulo_592" data-name="Rectángulo 592" width="54.565" height="55.532" fill="none"/>
    </clipPath>
    <clipPath id="clip-path-10">
      <rect id="Rectángulo_593" data-name="Rectángulo 593" width="211.628" height="193.434" fill="none"/>
    </clipPath>
    <clipPath id="clip-path-11">
      <rect id="Rectángulo_604" data-name="Rectángulo 604" width="121.278" height="129.881" fill="none"/>
    </clipPath>
    <clipPath id="clip-path-13">
      <rect id="Rectángulo_596" data-name="Rectángulo 596" width="13.375" height="16.231" fill="none"/>
    </clipPath>
    <clipPath id="clip-path-14">
      <rect id="Rectángulo_597" data-name="Rectángulo 597" width="13.737" height="18.415" fill="none"/>
    </clipPath>
    <clipPath id="clip-path-15">
      <rect id="Rectángulo_598" data-name="Rectángulo 598" width="23.401" height="28.606" fill="none"/>
    </clipPath>
    <clipPath id="clip-path-16">
      <rect id="Rectángulo_599" data-name="Rectángulo 599" width="111.515" height="83.685" fill="none"/>
    </clipPath>
    <clipPath id="clip-path-17">
      <rect id="Rectángulo_600" data-name="Rectángulo 600" width="60.456" height="73.162" fill="none"/>
    </clipPath>
    <clipPath id="clip-path-18">
      <rect id="Rectángulo_601" data-name="Rectángulo 601" width="99.561" height="34.184" fill="none"/>
    </clipPath>
    <clipPath id="clip-path-19">
      <rect id="Rectángulo_602" data-name="Rectángulo 602" width="56.749" height="27.517" fill="none"/>
    </clipPath>
  </defs>
  <g id="_06" data-name="06" transform="translate(-1688.224 -6040.424)">
    <g id="Grupo_3902" data-name="Grupo 3902" transform="translate(1727.06 6040.424)">
      <g id="Grupo_3901" data-name="Grupo 3901" clip-path="url(#clip-path)">
        <g id="Grupo_3900" data-name="Grupo 3900">
          <g id="Grupo_3899" data-name="Grupo 3899" clip-path="url(#clip-path)">
            <path id="Trazado_7987" data-name="Trazado 7987" d="M247.355,130.253a117.1,117.1,0,1,1-117.1-117.1,117.1,117.1,0,0,1,117.1,117.1" transform="translate(-10.7 -10.702)" fill="#00edfa"/>
            <g id="Grupo_3877" data-name="Grupo 3877" transform="translate(27.762 29.262)" opacity="0.66">
              <g id="Grupo_3876" data-name="Grupo 3876">
                <g id="Grupo_3875" data-name="Grupo 3875" clip-path="url(#clip-path-3)">
                  <path id="Trazado_7988" data-name="Trazado 7988" d="M258.181,166.871c10.4,15.383-8.536,28.283-37.721,48.005s-57.57,38.8-67.966,23.417,4.836-43.841,34.021-63.564,61.271-23.241,71.666-7.858" transform="translate(-149.227 -157.291)" fill="#fff"/>
                </g>
              </g>
            </g>
            <path id="Trazado_7989" data-name="Trazado 7989" d="M43.9,837.467s5.25,5.514,15.006,3.784,12.454,6.158,11.208,16.259-12.245,8.717-12.245,8.717" transform="translate(-35.733 -681.666)" fill="#4cea57"/>
            <path id="Trazado_7990" data-name="Trazado 7990" d="M47.213,204.061S70.327,214.29,63.131,235.6s-23.109,10.24-25.046,36.531S14.326,292.85,14.326,292.85c.454-33.609,7.95-64.529,32.887-88.789" transform="translate(-11.661 -166.098)" fill="#4cea57"/>
            <g id="Grupo_3880" data-name="Grupo 3880" transform="translate(2.661 45.258)" opacity="0.2">
              <g id="Grupo_3879" data-name="Grupo 3879">
                <g id="Grupo_3878" data-name="Grupo 3878" clip-path="url(#clip-path-4)">
                  <path id="Trazado_7991" data-name="Trazado 7991" d="M63.112,267.51c-7.19,21.311-23.106,10.241-25.041,36.538s-23.766,20.715-23.766,20.715c.019-1.646.065-3.284.121-4.911,6.465.121,18.1-2.325,19.488-21.2,1.944-26.3,17.85-15.227,25.05-36.538,2.6-7.721,1.228-13.99-1.581-18.846,5.088,5.209,9.441,13.255,5.73,24.241" transform="translate(-14.305 -243.269)" fill="#2c097d"/>
                </g>
              </g>
            </g>
            <path id="Trazado_7992" data-name="Trazado 7992" d="M362.081,984.521c0-7.23-.339-24.113-7.119-33.453s-5.673-13.561-9.686-22.417-14.806-8.925-23.939-1.315-18.681,8.579-27.052,6.089-13.076,5.12-20.895,11.347-3.792,20.039-3.792,20.039l18.2,10.809s14.725,6.445,19.776,1.394,13.183-1.951,16,9.057" transform="translate(-218.598 -750.316)" fill="#4cea57"/>
            <g id="Grupo_3883" data-name="Grupo 3883" transform="translate(49.966 171.49)" opacity="0.66">
              <g id="Grupo_3882" data-name="Grupo 3882">
                <g id="Grupo_3881" data-name="Grupo 3881" clip-path="url(#clip-path-5)">
                  <path id="Trazado_7993" data-name="Trazado 7993" d="M360.019,963.056a27.676,27.676,0,0,0-3.525-6.874c-6.781-9.339-5.674-13.562-9.683-22.418s-14.809-8.93-23.943-1.312-18.678,8.576-27.05,6.083-13.079,5.125-20.892,11.348c-4.884,3.879-5.144,10.716-4.66,15.311l-.651-.391s-4.028-13.813,3.786-20.036,12.53-13.841,20.9-11.348,17.916,1.516,27.05-6.093,19.925-7.544,23.934,1.312,2.911,13.079,9.693,22.418a33.91,33.91,0,0,1,5.042,12" transform="translate(-268.575 -921.799)" fill="#fff"/>
                </g>
              </g>
            </g>
            <g id="Grupo_3886" data-name="Grupo 3886" transform="translate(2.643 53.75)" opacity="0.2">
              <g id="Grupo_3885" data-name="Grupo 3885">
                <g id="Grupo_3884" data-name="Grupo 3884" clip-path="url(#clip-path-6)">
                  <path id="Trazado_7994" data-name="Trazado 7994" d="M248.214,354.721A117.1,117.1,0,0,1,14.2,361.539a113.182,113.182,0,1,0,213.786-72.62,116.573,116.573,0,0,1,20.223,65.8" transform="translate(-14.205 -288.919)" fill="#2c097d"/>
                </g>
              </g>
            </g>
            <path id="Trazado_7995" data-name="Trazado 7995" d="M728.309,81.883c1.222,11.521-12.015,26.21-10.816,46.136s2.491,42.251-11.07,48.616-17.989-11.531-21.679-30.166-16.236-22.048-22.509-34.5-38.284-7.749-43.266-19.742,4.336-26.753,14.806-29.52,7.2-6.734,16.79-9.963S669.384,50.2,667.17,41.9,649,43.747,646.506,37.567s-11.485-3.875-17.112-9.5,1.289-13.3,1.289-13.3q61.61,3.417,97.626,67.114" transform="translate(-502.693 -12.021)" fill="#4cea57"/>
            <g id="Grupo_3889" data-name="Grupo 3889" transform="translate(114.898 73.256)" opacity="0.2">
              <g id="Grupo_3888" data-name="Grupo 3888">
                <g id="Grupo_3887" data-name="Grupo 3887" clip-path="url(#clip-path-7)">
                  <path id="Trazado_7996" data-name="Trazado 7996" d="M657.082,409.2c5.934,11.795,17.506,15.478,21.85,31.673-5.3-7.693-12.437-11.981-16.687-20.418-6.27-12.455-38.277-7.749-43.263-19.739a18.467,18.467,0,0,1-1.377-6.949c10.055,6.669,34.129,4.809,39.478,15.432" transform="translate(-617.604 -393.769)" fill="#2c097d"/>
                </g>
              </g>
            </g>
            <g id="Grupo_3892" data-name="Grupo 3892" transform="translate(185.826 61.313)" opacity="0.2">
              <g id="Grupo_3891" data-name="Grupo 3891">
                <g id="Grupo_3890" data-name="Grupo 3890" clip-path="url(#clip-path-8)">
                  <path id="Trazado_7997" data-name="Trazado 7997" d="M1027.831,384.255c1.2,19.925,2.493,42.249-11.069,48.612-9.469,4.456-14.492-2.939-17.906-14.158,3.07,4.018,7.125,5.544,12.734,2.9,13.562-6.362,12.269-28.687,11.079-48.612-1.107-18.4,10.093-32.324,10.855-43.431q2.623,4.13,5.125,8.548c1.219,11.525-12.018,26.213-10.818,46.138" transform="translate(-998.855 -329.569)" fill="#2c097d"/>
                </g>
              </g>
            </g>
            <g id="Grupo_3895" data-name="Grupo 3895" transform="translate(114.896 30.077)" opacity="0.66">
              <g id="Grupo_3894" data-name="Grupo 3894">
                <g id="Grupo_3893" data-name="Grupo 3893" clip-path="url(#clip-path-9)">
                  <path id="Trazado_7998" data-name="Trazado 7998" d="M671.823,165.074c2.214,8.3-7,7.609-16.6,10.837s-6.316,7.2-16.79,9.962S618.644,203.4,623.63,215.4a7.925,7.925,0,0,0,1.042,1.8c-2.688-1.33-4.716-3.042-5.7-5.4-4.977-11.99,4.335-26.752,14.809-29.524s7.19-6.735,16.79-9.962c9.516-3.2,18.669-2.539,16.65-10.641,2.232.177,3.972,1.042,4.6,3.4" transform="translate(-617.59 -161.669)" fill="#fff"/>
                </g>
              </g>
            </g>
            <g id="Grupo_3898" data-name="Grupo 3898" transform="translate(2.447 2.45)" opacity="0.66">
              <g id="Grupo_3897" data-name="Grupo 3897">
                <g id="Grupo_3896" data-name="Grupo 3896" clip-path="url(#clip-path-10)">
                  <path id="Trazado_7999" data-name="Trazado 7999" d="M224.782,61.139A117.106,117.106,0,0,0,41.451,206.6,117.105,117.105,0,1,1,224.782,61.139" transform="translate(-13.154 -13.169)" fill="#fff"/>
                </g>
              </g>
            </g>
            <path id="Trazado_8000" data-name="Trazado 8000" d="M119.55,239.1A119.55,119.55,0,1,1,239.1,119.55,119.686,119.686,0,0,1,119.55,239.1m0-234.209A114.659,114.659,0,1,0,234.209,119.55,114.788,114.788,0,0,0,119.55,4.892" fill="#2c097d"/>
            <path id="Trazado_8001" data-name="Trazado 8001" d="M690.981,170.1a10.415,10.415,0,0,1-4.76-1.132c-7.8-3.946-11.068-17.493-13.984-32.22-2.121-10.709-7.218-15.937-12.615-21.473-3.485-3.574-7.088-7.27-9.69-12.435C647.291,97.6,638.148,95.77,629.307,94c-9.713-1.94-19.756-3.946-22.711-11.06-2.448-5.892-2.024-12.717,1.192-19.219,3.311-6.693,9.123-11.844,15.168-13.442,4.85-1.282,6.254-2.736,7.879-4.418a18.825,18.825,0,0,1,8.762-5.5c2.465-.829,4.908-1.411,7.064-1.924,3.649-.869,7.1-1.69,8-3.2.14-.234.565-.947.04-2.916-.551-2.068-2.971-2.023-8.548-1.116-4.533.736-10.172,1.654-12.027-2.95-.863-2.141-2.948-2.8-6.559-3.782-3.28-.891-7-1.9-10.041-4.945-5.687-5.686-1.7-13.277,1.206-16.5a2.325,2.325,0,0,1,3.458,3.11c-.221.248-5.362,6.113-1.376,10.1,2.169,2.169,5.119,2.971,7.972,3.746,3.7,1,7.884,2.142,9.653,6.531.466,1.155,4.224.543,6.967.1,5.091-.828,12.062-1.962,13.788,4.508a8.11,8.11,0,0,1-.541,6.5c-1.905,3.191-6.079,4.185-10.911,5.336-2.16.514-4.393,1.046-6.658,1.808a14.311,14.311,0,0,0-6.9,4.323c-1.842,1.908-3.931,4.07-10.036,5.684-4.784,1.265-9.455,5.483-12.187,11.007-2.612,5.28-2.99,10.739-1.065,15.373,2,4.824,10.81,6.582,19.327,8.284,9.935,1.984,20.207,4.036,23.868,11.3,2.279,4.524,5.479,7.806,8.866,11.28,5.633,5.778,11.458,11.753,13.847,23.816,2.578,13.016,5.591,25.975,11.521,28.974,1.913.967,4.167.816,6.889-.461,12.183-5.718,10.883-27.316,9.736-46.371-.7-11.609,3.174-21.252,6.592-29.76,2.53-6.3,4.714-11.735,4.233-16.27a2.325,2.325,0,1,1,4.624-.491c.6,5.686-1.781,11.621-4.542,18.494-3.234,8.053-6.9,17.181-6.264,27.747,1.235,20.531,2.636,43.8-12.4,50.861a14.647,14.647,0,0,1-6.2,1.533" transform="translate(-492.466 -1.848)" fill="#2c097d"/>
            <path id="Trazado_8002" data-name="Trazado 8002" d="M8.854,285.492a23.074,23.074,0,0,1-5.281-.569,2.326,2.326,0,1,1,1.151-4.506c.071.018,7.779,1.87,13.68-2.4,4.2-3.038,6.614-8.5,7.184-16.233,1.151-15.63,7.27-19.315,13.188-22.878,4.629-2.787,9-5.42,11.975-14.226,6.419-19.012-13.8-28.285-14.66-28.67a2.325,2.325,0,0,1,1.885-4.252c.251.111,24.965,11.355,17.181,34.41-3.519,10.422-9.078,13.769-13.982,16.722-5.572,3.356-9.974,6.006-10.948,19.236-.677,9.191-3.752,15.816-9.139,19.691a20.837,20.837,0,0,1-12.234,3.678" transform="translate(-1.483 -155.919)" fill="#2c097d"/>
            <path id="Trazado_8003" data-name="Trazado 8003" d="M48.987,858.441a13.649,13.649,0,0,1-1.585-.08,2.326,2.326,0,0,1,.581-4.615c.882.106,8.722.81,9.646-6.694.737-5.976-.051-10.4-2.217-12.455-1.4-1.329-3.454-1.731-6.277-1.23-10.858,1.927-16.846-4.208-17.1-4.47a2.325,2.325,0,0,1,3.357-3.219c.207.209,4.638,4.576,12.927,3.109,4.316-.766,7.778.054,10.289,2.435,3.312,3.141,4.568,8.812,3.633,16.4A11.588,11.588,0,0,1,57.94,855.7a14.836,14.836,0,0,1-8.954,2.745" transform="translate(-25.557 -671.492)" fill="#2c097d"/>
            <path id="Trazado_8004" data-name="Trazado 8004" d="M351.891,976.645a2.325,2.325,0,0,1-2.325-2.326c0-15.189-2.246-25.985-6.675-32.087a41.622,41.622,0,0,1-7.022-14.7,58.34,58.34,0,0,0-2.9-8.127,8.782,8.782,0,0,0-6.132-5.221c-4.184-.959-9.492.81-14.2,4.733-11.124,9.27-22.022,8.669-29.2,6.531-4.852-1.443-8.113,1.293-13.459,6.253-1.66,1.54-3.376,3.133-5.324,4.684-6.523,5.2-3.045,17.446-3.009,17.569a2.325,2.325,0,0,1-4.465,1.3c-.183-.625-4.36-15.392,4.576-22.509,1.81-1.442,3.461-2.974,5.058-4.456,5.305-4.923,10.318-9.573,17.948-7.3,8.738,2.6,17.348.646,24.9-5.646,5.9-4.919,12.542-7,18.217-5.694a13.447,13.447,0,0,1,9.329,7.835,63.081,63.081,0,0,1,3.123,8.725,37.251,37.251,0,0,0,6.327,13.286c5.089,7.01,7.563,18.4,7.563,34.819a2.325,2.325,0,0,1-2.325,2.326" transform="translate(-208.407 -740.115)" fill="#2c097d"/>
            <path id="Trazado_8005" data-name="Trazado 8005" d="M397.537,1209.451a2.326,2.326,0,0,1-2.251-1.749c-1.3-5.081-3.942-8.625-7.064-9.48a4.991,4.991,0,0,0-5.04,1.491c-6,6-20.7-.183-22.352-.908a2.325,2.325,0,0,1,1.864-4.261c4.334,1.891,14.24,4.839,17.2,1.881a9.649,9.649,0,0,1,9.557-2.688c4.755,1.3,8.621,6.092,10.342,12.812a2.327,2.327,0,0,1-2.255,2.9" transform="translate(-292.567 -971.371)" fill="#2c097d"/>
          </g>
        </g>
      </g>
    </g>
    <g id="Grupo_3927" data-name="Grupo 3927" transform="translate(1688.224 6378.577) rotate(-20)">
      <g id="Grupo_3926" data-name="Grupo 3926" clip-path="url(#clip-path-11)">
        <g id="Grupo_3925" data-name="Grupo 3925">
          <g id="Grupo_3924" data-name="Grupo 3924" clip-path="url(#clip-path-11)">
            <path id="Trazado_8006" data-name="Trazado 8006" d="M72.162,82.467a35.689,35.689,0,0,0,54.764,22.808,2.324,2.324,0,0,1,3.291,3.108,62.989,62.989,0,1,1-6.734-73.917,4.544,4.544,0,0,1-4.854,7.335A35.674,35.674,0,0,0,72.162,82.467" transform="translate(-11.214 -11.127)" fill="#d0d8d2"/>
            <g id="Grupo_3905" data-name="Grupo 3905" transform="translate(45.054 93.031)" opacity="0.2">
              <g id="Grupo_3904" data-name="Grupo 3904">
                <g id="Grupo_3903" data-name="Grupo 3903" clip-path="url(#clip-path-13)">
                  <path id="Trazado_8007" data-name="Trazado 8007" d="M311.086,649.219s-5.4-2.684-4.413-8.779,4.291-6.737,4.755-6.737,4.619-1.818,8.5.342c0,0-10.593,1.7-8.609,8.8s7.27,5.685,7.27,5.685" transform="translate(-306.554 -632.989)" fill="#2c097d"/>
                </g>
              </g>
            </g>
            <g id="Grupo_3908" data-name="Grupo 3908" transform="translate(12.525 61.356)" opacity="0.2">
              <g id="Grupo_3907" data-name="Grupo 3907">
                <g id="Grupo_3906" data-name="Grupo 3906" clip-path="url(#clip-path-14)">
                  <path id="Trazado_8008" data-name="Trazado 8008" d="M91.519,417.468s-10.555,5.9-4.331,14.029,10.406,2.469,10.406,2.469-6.75-.219-7.16-5.575,8.527-6.5,8.527-6.5-2.309-2.692-2.569-2.951" transform="translate(-85.224 -417.468)" fill="#2c097d"/>
                </g>
              </g>
            </g>
            <g id="Grupo_3911" data-name="Grupo 3911" transform="translate(23.274 19.135)" opacity="0.2">
              <g id="Grupo_3910" data-name="Grupo 3910">
                <g id="Grupo_3909" data-name="Grupo 3909" clip-path="url(#clip-path-15)">
                  <path id="Trazado_8009" data-name="Trazado 8009" d="M159.873,154.822s-3.4-6.325,0-15.37,13.665-9.253,13.665-9.253l8.224,5.182c-16.313,2.057-19.8,11.076-17.144,23.423" transform="translate(-158.36 -130.199)" fill="#2c097d"/>
                </g>
              </g>
            </g>
            <g id="Grupo_3914" data-name="Grupo 3914" transform="translate(1.93 1.916)" opacity="0.66">
              <g id="Grupo_3913" data-name="Grupo 3913">
                <g id="Grupo_3912" data-name="Grupo 3912" clip-path="url(#clip-path-16)">
                  <path id="Trazado_8010" data-name="Trazado 8010" d="M124.5,38.593A63.035,63.035,0,0,0,75.787,17.576c-5.489,4.644-12.6,5.849-21.024,4.247a63.213,63.213,0,0,0-39.572,67.9,65.5,65.5,0,0,0,1.433,7,63.838,63.838,0,0,1-2.814-11.515A63.006,63.006,0,0,1,123.471,34.456a4.446,4.446,0,0,1,1.029,4.137" transform="translate(-13.132 -13.035)" fill="#fff"/>
                </g>
              </g>
            </g>
            <g id="Grupo_3917" data-name="Grupo 3917" transform="translate(52.991 14.6)" opacity="0.2">
              <g id="Grupo_3916" data-name="Grupo 3916">
                <g id="Grupo_3915" data-name="Grupo 3915" clip-path="url(#clip-path-17)">
                  <path id="Trazado_8011" data-name="Trazado 8011" d="M361.219,149.667A35.668,35.668,0,0,1,407.683,109a4.544,4.544,0,0,0,4.857-7.334q-1.047-1.19-2.16-2.329a62.548,62.548,0,0,1,9.45,8.737,4.544,4.544,0,0,1-4.857,7.334A35.681,35.681,0,0,0,376.5,172.5a35.564,35.564,0,0,1-15.278-22.832" transform="translate(-360.552 -99.337)" fill="#2c097d"/>
                </g>
              </g>
            </g>
            <g id="Grupo_3920" data-name="Grupo 3920" transform="translate(19.78 93.746)" opacity="0.2">
              <g id="Grupo_3919" data-name="Grupo 3919">
                <g id="Grupo_3918" data-name="Grupo 3918" clip-path="url(#clip-path-18)">
                  <path id="Trazado_8012" data-name="Trazado 8012" d="M233.806,641.365a63,63,0,0,1-99.22,11.6,62.983,62.983,0,0,0,86.455-10.259,35.239,35.239,0,0,0,9.472-4.453,2.324,2.324,0,0,1,3.292,3.108" transform="translate(-134.586 -637.855)" fill="#2c097d"/>
                </g>
              </g>
            </g>
            <g id="Grupo_3923" data-name="Grupo 3923" transform="translate(62.593 77.121)" opacity="0.66">
              <g id="Grupo_3922" data-name="Grupo 3922">
                <g id="Grupo_3921" data-name="Grupo 3921" clip-path="url(#clip-path-19)">
                  <path id="Trazado_8013" data-name="Trazado 8013" d="M482.293,544.872c-.206.338-.4.676-.617,1.007a2.342,2.342,0,0,0-1.293.4,35.7,35.7,0,0,1-54.5-21.546A35.687,35.687,0,0,0,479,541.764a2.324,2.324,0,0,1,3.292,3.108" transform="translate(-425.886 -524.737)" fill="#fff"/>
                </g>
              </g>
            </g>
            <path id="Trazado_8014" data-name="Trazado 8014" d="M64.745,129.881A65,65,0,0,1,.7,74.37a64.936,64.936,0,0,1,113.02-52.307,6.476,6.476,0,0,1-6.928,10.44,33.684,33.684,0,0,0-18.859-.822A34.066,34.066,0,0,0,62.843,70.967a33.756,33.756,0,0,0,51.8,21.573,4.256,4.256,0,0,1,6.021,5.709A65.089,65.089,0,0,1,77.827,128.56a65.9,65.9,0,0,1-13.082,1.321M64.929,3.863a61.062,61.062,0,1,0,52.416,92.4.322.322,0,0,0-.071-.457.348.348,0,0,0-.492-.051,37.6,37.6,0,1,1-8.745-66.911,2.516,2.516,0,0,0,3.012-1,2.564,2.564,0,0,0-.231-3.225A61.131,61.131,0,0,0,64.929,3.863" transform="translate(0 0)" fill="#2c097d"/>
            <path id="Trazado_8015" data-name="Trazado 8015" d="M145.642,121.885a14.8,14.8,0,0,1,18.584,1.89c7.519,7.511,5.172,21.023-3.788,26.33A14.875,14.875,0,0,1,137.5,139.2a1.382,1.382,0,0,1,2.725-.437c.937,5.331,5.344,9.775,10.775,10.1,11.518.7,18.43-14.145,10.624-22.582-3.636-4.044-9.864-4.669-14.567-2.029a1.382,1.382,0,0,1-1.415-2.37" transform="translate(-117.285 -101.9)" fill="#2c097d"/>
            <path id="Trazado_8016" data-name="Trazado 8016" d="M84.377,409.5c2.492-3.911,8.131-4.6,11.735-1.78,5.283,3.837,6.447,12.218,2,17.153-5.266,5.7-13.612,1.8-15.245-5a1.315,1.315,0,0,1,2.479-.851c1.054,2.745,3.62,5.338,6.607,5.18,2.714-.075,4.841-2.694,5.16-5.672a9.059,9.059,0,0,0-3.072-8.06,5.308,5.308,0,0,0-7.581.625,1.315,1.315,0,0,1-2.086-1.592" transform="translate(-70.649 -346.33)" fill="#2c097d"/>
            <path id="Trazado_8017" data-name="Trazado 8017" d="M295.709,427.4a5.548,5.548,0,0,1-6.994,5.587,5.748,5.748,0,0,1-3.343-8.572,5.442,5.442,0,0,1,5.992-2.346,1.055,1.055,0,0,1-.418,2.058,3.142,3.142,0,1,0,2.664,3.269,1.055,1.055,0,0,1,2.1,0" transform="translate(-242.669 -359.87)" fill="#2c097d"/>
            <path id="Trazado_8018" data-name="Trazado 8018" d="M311.957,627.529A9.808,9.808,0,0,1,312.367,640a10.042,10.042,0,0,1-17.074-2.121c-3.057-6.717,2.432-14.566,9.793-13.812a1.052,1.052,0,0,1-.115,2.1,7.629,7.629,0,0,0-7.5,5.706,7.32,7.32,0,0,0,12.743,6.424,7.628,7.628,0,0,0,.135-9.412,1.051,1.051,0,0,1,1.61-1.349" transform="translate(-251.157 -532.303)" fill="#2c097d"/>
            <path id="Trazado_8019" data-name="Trazado 8019" d="M491.125,102.5c-1.052,4.3-7.281,5.68-10.222,2.418a4.561,4.561,0,0,1,.442-6.341,6.34,6.34,0,0,1,5.6-1.572,1.054,1.054,0,0,1-.209,2.084,4.671,4.671,0,0,0-3.432,1.416c-1.807,2.149.741,3.744,2.925,3.323a3.838,3.838,0,0,0,2.916-1.994,1.054,1.054,0,0,1,1.98.666" transform="translate(-409.299 -82.641)" fill="#2c097d"/>
          </g>
        </g>
      </g>
    </g>
  </g>
</svg>
