<svg xmlns="http://www.w3.org/2000/svg" xmlns:xlink="http://www.w3.org/1999/xlink" width="368.338" height="495.458" viewBox="0 0 368.338 495.458">
  <defs>
    <clipPath id="clip-path">
      <rect id="Rectángulo_545" data-name="Rectángulo 545" width="248.339" height="224.033" transform="translate(0 0)" fill="none"/>
    </clipPath>
    <clipPath id="clip-path-2">
      <path id="Trazado_7849" data-name="Trazado 7849" d="M0,0C32.9,5.554,66.539,4.357,78.53,34.246L43.285,73.933C12.189,65.559,9.4,32.016,0,0" fill="none"/>
    </clipPath>
    <linearGradient id="linear-gradient" x1="0.109" y1="0.118" x2="0.111" y2="0.118" gradientUnits="objectBoundingBox">
      <stop offset="0" stop-color="#f0b031"/>
      <stop offset="1" stop-color="#c41754"/>
    </linearGradient>
    <clipPath id="clip-path-3">
      <rect id="Rectángulo_544" data-name="Rectángulo 544" width="248.339" height="224.033" fill="none"/>
    </clipPath>
    <clipPath id="clip-path-4">
      <rect id="Rectángulo_531" data-name="Rectángulo 531" width="55.204" height="46.988" fill="none"/>
    </clipPath>
    <clipPath id="clip-path-5">
      <rect id="Rectángulo_532" data-name="Rectángulo 532" width="28.502" height="21.702" fill="none"/>
    </clipPath>
    <clipPath id="clip-path-6">
      <rect id="Rectángulo_533" data-name="Rectángulo 533" width="60.098" height="40.546" fill="none"/>
    </clipPath>
    <clipPath id="clip-path-7">
      <rect id="Rectángulo_534" data-name="Rectángulo 534" width="75.13" height="30.071" fill="none"/>
    </clipPath>
    <clipPath id="clip-path-8">
      <rect id="Rectángulo_535" data-name="Rectángulo 535" width="47.961" height="72.095" fill="none"/>
    </clipPath>
    <clipPath id="clip-path-9">
      <rect id="Rectángulo_536" data-name="Rectángulo 536" width="183.21" height="171.176" fill="none"/>
    </clipPath>
    <clipPath id="clip-path-10">
      <rect id="Rectángulo_537" data-name="Rectángulo 537" width="187.39" height="127.48" fill="none"/>
    </clipPath>
    <clipPath id="clip-path-11">
      <rect id="Rectángulo_538" data-name="Rectángulo 538" width="52.249" height="48.809" fill="none"/>
    </clipPath>
    <clipPath id="clip-path-12">
      <rect id="Rectángulo_539" data-name="Rectángulo 539" width="32.05" height="30.755" fill="none"/>
    </clipPath>
    <clipPath id="clip-path-13">
      <rect id="Rectángulo_540" data-name="Rectángulo 540" width="32.368" height="28.77" fill="none"/>
    </clipPath>
    <clipPath id="clip-path-14">
      <rect id="Rectángulo_541" data-name="Rectángulo 541" width="4.498" height="3.355" fill="none"/>
    </clipPath>
    <clipPath id="clip-path-15">
      <rect id="Rectángulo_542" data-name="Rectángulo 542" width="65.342" height="59.117" fill="none"/>
    </clipPath>
    <clipPath id="clip-path-16">
      <rect id="Rectángulo_543" data-name="Rectángulo 543" width="65.211" height="59.085" fill="none"/>
    </clipPath>
    <clipPath id="clip-path-17">
      <rect id="Rectángulo_551" data-name="Rectángulo 551" width="90.284" height="88.906" fill="none"/>
    </clipPath>
    <clipPath id="clip-path-19">
      <rect id="Rectángulo_546" data-name="Rectángulo 546" width="10.674" height="8.826" fill="none"/>
    </clipPath>
    <clipPath id="clip-path-20">
      <rect id="Rectángulo_547" data-name="Rectángulo 547" width="14.327" height="15.834" fill="none"/>
    </clipPath>
    <clipPath id="clip-path-21">
      <rect id="Rectángulo_548" data-name="Rectángulo 548" width="75.313" height="69.24" transform="translate(0 0)" fill="none"/>
    </clipPath>
    <clipPath id="clip-path-22">
      <rect id="Rectángulo_549" data-name="Rectángulo 549" width="65.816" height="84.307" transform="translate(0 0)" fill="none"/>
    </clipPath>
    <clipPath id="clip-path-23">
      <rect id="Rectángulo_579" data-name="Rectángulo 579" width="190.966" height="190.966" fill="none"/>
    </clipPath>
    <clipPath id="clip-path-25">
      <rect id="Rectángulo_575" data-name="Rectángulo 575" width="154.745" height="166.945" fill="none"/>
    </clipPath>
    <clipPath id="clip-path-26">
      <rect id="Rectángulo_576" data-name="Rectángulo 576" width="160.517" height="160.537" fill="none"/>
    </clipPath>
    <clipPath id="clip-path-27">
      <rect id="Rectángulo_577" data-name="Rectángulo 577" width="46.654" height="95.194" fill="none"/>
    </clipPath>
  </defs>
  <g id="_03" data-name="03" transform="translate(51.19 -1816.295)">
    <g id="Grupo_3762" data-name="Grupo 3762" transform="matrix(0.208, -0.978, 0.978, 0.208, -28.789, 2059.208)">
      <g id="Grupo_3761" data-name="Grupo 3761" transform="translate(0 0)" clip-path="url(#clip-path)">
        <g id="Grupo_3719" data-name="Grupo 3719" transform="translate(2.809 4.236)">
          <g id="Grupo_3718" data-name="Grupo 3718" transform="translate(0 0)" clip-path="url(#clip-path-2)">
            <rect id="Rectángulo_530" data-name="Rectángulo 530" width="107.485" height="107.828" transform="translate(43.407 -39.046) rotate(48.028)" fill="url(#linear-gradient)"/>
          </g>
        </g>
        <g id="Grupo_3760" data-name="Grupo 3760" transform="translate(0 0)">
          <g id="Grupo_3759" data-name="Grupo 3759" clip-path="url(#clip-path-3)">
            <path id="Trazado_7850" data-name="Trazado 7850" d="M43.216,20.855S31.047-4.162.032.6C-1.036,31.965,25.244,41.093,25.244,41.093" transform="translate(26.862 25.02)" fill="#ffed7c"/>
            <path id="Trazado_7851" data-name="Trazado 7851" d="M55.2,14.676,48.036,0a53.387,53.387,0,0,0-9.113,3.428,69.605,69.605,0,0,0-36.6,41.21A53.39,53.39,0,0,0,0,54.091l15.42,5.38" transform="translate(43.994 35.094)" fill="#bcbcbc"/>
            <g id="Grupo_3722" data-name="Grupo 3722" transform="translate(43.994 47.58)" opacity="0.66">
              <g id="Grupo_3721" data-name="Grupo 3721" transform="translate(0 0)">
                <g id="Grupo_3720" data-name="Grupo 3720" clip-path="url(#clip-path-4)">
                  <path id="Trazado_7852" data-name="Trazado 7852" d="M55.2,2.19,54.136,0,17.116,41.689,1.7,36.3A45.785,45.785,0,0,1,3,30.214c-.235.641-.459,1.282-.673,1.934A53.606,53.606,0,0,0,0,41.6l15.417,5.385Z" transform="translate(0 0)" fill="#fff"/>
                </g>
              </g>
            </g>
            <g id="Grupo_3725" data-name="Grupo 3725" transform="translate(63.656 38.722)" opacity="0.2">
              <g id="Grupo_3724" data-name="Grupo 3724" transform="translate(0 0)">
                <g id="Grupo_3723" data-name="Grupo 3723" clip-path="url(#clip-path-5)">
                  <path id="Trazado_7853" data-name="Trazado 7853" d="M15.722,21.7S0,18.534,0,17.528,2.543,8.2,3.391,8.2,11.5,3.231,12.823,3.231,22.463,0,22.463,0L28.5,12.76" transform="translate(0 0)" fill="#2c097d"/>
                </g>
              </g>
            </g>
            <path id="Trazado_7854" data-name="Trazado 7854" d="M187.39,164.188C187.176,105.875,116.822,7.6,47.675.06a8.792,8.792,0,0,0-4.712.727,78.964,78.964,0,0,0-12.02,6.966A76.284,76.284,0,0,0,16.659,20.777,93.781,93.781,0,0,0,.548,48.576a8.783,8.783,0,0,0-.3,5.139C16.072,121.41,121.811,179.531,179.7,172.864a8.724,8.724,0,0,0,7.693-8.675" transform="translate(58.137 47.84)" fill="#fff"/>
            <path id="Trazado_7855" data-name="Trazado 7855" d="M50.846,0a2.823,2.823,0,0,0-.655.077,56.038,56.038,0,0,0-9.647,3.614A72.582,72.582,0,0,0,2.469,46.567,55.981,55.981,0,0,0,.019,56.574a2.809,2.809,0,0,0,1.865,2.979l15.42,5.38,1.851-5.3L5.986,55.034A61.319,61.319,0,0,1,7.8,48.326,66.944,66.944,0,0,1,42.921,8.782a61.359,61.359,0,0,1,6.446-2.6l6.118,12.532,5.049-2.464L53.37,1.577A2.811,2.811,0,0,0,50.846,0" transform="translate(41.185 32.285)" fill="#2c097d"/>
            <path id="Trazado_7856" data-name="Trazado 7856" d="M2.809,0A2.809,2.809,0,0,0,.114,3.6C1.678,8.926,3.076,14.364,4.427,19.624c6.93,26.965,13.475,52.435,40.937,59.83a2.809,2.809,0,1,0,1.461-5.424c-24.3-6.543-30.164-29.371-36.956-55.8C8.862,14.309,7.83,10.294,6.719,6.282,10.835,6.911,14.943,7.461,18.951,8,46,11.619,69.363,14.747,78.732,38.1a2.809,2.809,0,1,0,5.214-2.092C73.357,9.613,47.292,6.123,19.7,2.429,14.314,1.709,8.749.963,3.276.04A2.778,2.778,0,0,0,2.809,0" transform="translate(0 1.426)" fill="#2c097d"/>
            <path id="Trazado_7857" data-name="Trazado 7857" d="M75.13,44.531l-2.842-3.985L43.388,0C34.83,6.784,23.216,9.1,12.19,12.949a78.794,78.794,0,0,0-7.885,3.162A7.5,7.5,0,0,0,2.981,28.879C22.372,43.473,46.967,47.587,75.13,44.531" transform="translate(15.959 114.804)" fill="#e81f3a"/>
            <g id="Grupo_3728" data-name="Grupo 3728" transform="translate(28.15 114.804)" opacity="0.2">
              <g id="Grupo_3727" data-name="Grupo 3727" transform="translate(0 0)">
                <g id="Grupo_3726" data-name="Grupo 3726" clip-path="url(#clip-path-6)">
                  <path id="Trazado_7858" data-name="Trazado 7858" d="M60.1,40.546,31.2,0C22.639,6.784,11.026,9.1,0,12.949l1.389,1.6S17.6,6.806,34.883,21.09,60.1,40.546,60.1,40.546" transform="translate(0 0)" fill="#2c097d"/>
                </g>
              </g>
            </g>
            <g id="Grupo_3731" data-name="Grupo 3731" transform="translate(15.959 130.21)" opacity="0.66">
              <g id="Grupo_3730" data-name="Grupo 3730" transform="translate(0 0)">
                <g id="Grupo_3729" data-name="Grupo 3729" clip-path="url(#clip-path-7)">
                  <path id="Trazado_7859" data-name="Trazado 7859" d="M75.13,29.125,72.288,25.14C47.523,26.614,25.781,21.977,8.28,8.8A7.45,7.45,0,0,1,5.855,0C5.331.224,4.818.459,4.306.705A7.5,7.5,0,0,0,2.981,13.473C22.372,28.067,46.967,32.18,75.13,29.125" transform="translate(0 0)" fill="#fff"/>
                </g>
              </g>
            </g>
            <path id="Trazado_7860" data-name="Trazado 7860" d="M47.961,72.095q-.064-6.458-.609-12.607c-1.335-15.032-4.9-28.59-11.25-40.343A76.924,76.924,0,0,0,23.9,2.307,7.5,7.5,0,0,0,11.378,5.127C6.816,18.856,7.116,34.273,0,45.844Z" transform="translate(118.216 2.676)" fill="#e81f3a"/>
            <g id="Grupo_3734" data-name="Grupo 3734" transform="translate(118.216 2.676)" opacity="0.2">
              <g id="Grupo_3733" data-name="Grupo 3733" transform="translate(0 0)">
                <g id="Grupo_3732" data-name="Grupo 3732" clip-path="url(#clip-path-8)">
                  <path id="Trazado_7861" data-name="Trazado 7861" d="M47.961,72.095q-.064-6.458-.609-12.607L45.46,55.8S13.355,51.817,13.355,36.047c0-11.539,14.8-15.567,22.746-16.9A76.924,76.924,0,0,0,23.9,2.307,7.5,7.5,0,0,0,11.378,5.127C6.816,18.856,7.116,34.273,0,45.844Z" transform="translate(0 0)" fill="#2c097d"/>
                </g>
              </g>
            </g>
            <path id="Trazado_7862" data-name="Trazado 7862" d="M51.828,43.281C51.785,30.343,48.281,15.438,42.106,0a77.241,77.241,0,0,0-25.9,19.413A77.23,77.23,0,0,0,0,47.416c16.069,4.306,31.283,6.026,44.136,4.541a8.724,8.724,0,0,0,7.693-8.675" transform="translate(193.699 168.747)" fill="#e81f3a"/>
            <g id="Grupo_3737" data-name="Grupo 3737" transform="translate(59.166 51.366)" opacity="0.2">
              <g id="Grupo_3736" data-name="Grupo 3736" transform="translate(0 0)">
                <g id="Grupo_3735" data-name="Grupo 3735" clip-path="url(#clip-path-9)">
                  <path id="Trazado_7863" data-name="Trazado 7863" d="M183.21,164.188c-.043-12.938-3.547-27.843-9.722-43.281C151.841,66.739,97.3,5.926,43.495.06a8.792,8.792,0,0,0-4.712.726q-.865.4-1.7.833-3.125,1.731-6.026,3.718-2.324,1.571-4.5,3.3a1.332,1.332,0,0,0-.2.16A83.519,83.519,0,0,0,3.323,38.395Q1.544,42.1,0,46.055A79.94,79.94,0,0,1,20.449,23.4a126.876,126.876,0,0,0,14.9,15.535c17.458,15.5,35.3,23.922,39.851,18.8S69.275,35.905,51.818,20.4c-1.891-1.677-3.782-3.269-5.652-4.776,29.4,5.844,58.559,27.255,82,54.2a28.863,28.863,0,1,0,10.919,13.5,229.6,229.6,0,0,1,29.787,52.01c5.021,12.554,8.28,24.755,9.338,35.834.214-.011.427-.043.641-.064a8.085,8.085,0,0,0,1.25-.246,8.668,8.668,0,0,0,3.109-6.678" transform="translate(0 0)" fill="#2c097d"/>
                </g>
              </g>
            </g>
            <g id="Grupo_3740" data-name="Grupo 3740" transform="translate(58.137 93.745)" opacity="0.66">
              <g id="Grupo_3739" data-name="Grupo 3739" transform="translate(0 0)">
                <g id="Grupo_3738" data-name="Grupo 3738" clip-path="url(#clip-path-10)">
                  <path id="Trazado_7864" data-name="Trazado 7864" d="M187.39,118.283v-.032a8.742,8.742,0,0,1-6.111,3.643C123.4,128.561,17.664,70.429,1.83,2.746A9.132,9.132,0,0,1,1.605,0C1.242.876.89,1.774.548,2.671a8.783,8.783,0,0,0-.3,5.139C16.072,75.5,121.811,133.625,179.7,126.958a8.724,8.724,0,0,0,7.693-8.675" transform="translate(0 0)" fill="#fff"/>
                </g>
              </g>
            </g>
            <path id="Trazado_7865" data-name="Trazado 7865" d="M49.43,0a11.385,11.385,0,0,0-4.849,1.056C24.363,10.562,9.612,27.158.738,50.383a11.559,11.559,0,0,0-.417,6.786c7.382,31.569,34.794,64.081,75.208,89.2,37.218,23.134,78.334,35.431,107.3,32.092a11.5,11.5,0,0,0,10.188-11.472c-.107-29.193-17.207-68.6-44.626-102.852C118.609,26.944,83.036,3.593,50.787.075A12.521,12.521,0,0,0,49.43,0M172.865,173.394c-26.921,0-62.055-11.707-94.37-31.794-39.158-24.341-65.658-55.58-72.7-85.709a5.973,5.973,0,0,1,.195-3.5C14.441,30.26,27.848,15.131,46.971,6.14a6,6,0,0,1,3.206-.481h0C80.953,9.017,115.15,31.612,144,67.65c26.663,33.3,43.291,71.378,43.393,99.361a5.955,5.955,0,0,1-5.213,5.87,81.512,81.512,0,0,1-9.317.511" transform="translate(55.326 45.029)" fill="#2c097d"/>
            <path id="Trazado_7866" data-name="Trazado 7866" d="M46.058,0A2.661,2.661,0,0,0,44.4.578c-6.114,4.848-13.993,7.3-22.334,9.9A126.044,126.044,0,0,0,5.842,16.368a10.166,10.166,0,0,0-1.8,17.313C22.966,47.92,47.186,53.209,78.083,49.851a2.671,2.671,0,0,0-.577-5.311C48.022,47.742,25.041,42.8,7.255,29.412a4.825,4.825,0,0,1,.86-8.21A121.961,121.961,0,0,1,23.656,15.58C32.1,12.95,40.824,10.23,47.719,4.764A2.671,2.671,0,0,0,46.058,0" transform="translate(13.289 112.134)" fill="#2c097d"/>
            <path id="Trazado_7867" data-name="Trazado 7867" d="M21.208,0a10.324,10.324,0,0,0-2.267.254,10.089,10.089,0,0,0-7.421,6.71A125.908,125.908,0,0,0,7.59,23.771c-1.6,8.59-3.1,16.7-7.193,23.346a2.671,2.671,0,1,0,4.549,2.8c4.613-7.491,6.282-16.48,7.9-25.172A121.848,121.848,0,0,1,16.59,8.65a4.823,4.823,0,0,1,8.05-1.824C40.031,22.907,47.66,45.141,47.963,74.8a2.706,2.706,0,0,0,2.7,2.644,2.671,2.671,0,0,0,2.644-2.7C52.988,43.664,44.874,20.24,28.5,3.132A10.052,10.052,0,0,0,21.208,0" transform="translate(115.544 0)" fill="#2c097d"/>
            <path id="Trazado_7868" data-name="Trazado 7868" d="M47.958,7.271A28.82,28.82,0,1,0,50.37,47.958,28.821,28.821,0,0,0,47.958,7.271" transform="translate(138.937 121.899)" fill="#e81f3a"/>
            <g id="Grupo_3743" data-name="Grupo 3743" transform="translate(138.939 130.734)" opacity="0.66">
              <g id="Grupo_3742" data-name="Grupo 3742" transform="translate(0 0)">
                <g id="Grupo_3741" data-name="Grupo 3741" clip-path="url(#clip-path-11)">
                  <path id="Trazado_7869" data-name="Trazado 7869" d="M52.249,36.753A28.81,28.81,0,0,1,8.06,0c-.278.278-.534.556-.79.844a28.823,28.823,0,1,0,43.1,38.281,25.777,25.777,0,0,0,1.881-2.372" transform="translate(0 0)" fill="#fff"/>
                </g>
              </g>
            </g>
            <path id="Trazado_7870" data-name="Trazado 7870" d="M28.475,4.317a17.112,17.112,0,1,0,1.432,24.158A17.112,17.112,0,0,0,28.475,4.317" transform="translate(150.646 133.607)" fill="#34adef"/>
            <g id="Grupo_3746" data-name="Grupo 3746" transform="translate(150.644 137.08)" opacity="0.2">
              <g id="Grupo_3745" data-name="Grupo 3745" transform="translate(0 0)">
                <g id="Grupo_3744" data-name="Grupo 3744" clip-path="url(#clip-path-12)">
                  <path id="Trazado_7871" data-name="Trazado 7871" d="M32.05,21.988A17.113,17.113,0,0,1,6.783,0,17.114,17.114,0,1,0,32.05,21.988" transform="translate(0 0)" fill="#2c097d"/>
                </g>
              </g>
            </g>
            <g id="Grupo_3749" data-name="Grupo 3749" transform="translate(155.258 129.688)" opacity="0.66">
              <g id="Grupo_3748" data-name="Grupo 3748" transform="translate(0 0)">
                <g id="Grupo_3747" data-name="Grupo 3747" clip-path="url(#clip-path-13)">
                  <path id="Trazado_7872" data-name="Trazado 7872" d="M26.614,4.314A17.119,17.119,0,0,0,2.457,5.746,16.933,16.933,0,0,0,0,9.347,17.114,17.114,0,0,1,27.768,28.77c.1-.1.182-.192.278-.3A17.1,17.1,0,0,0,26.614,4.314" transform="translate(0 0)" fill="#fff"/>
                </g>
              </g>
            </g>
            <path id="Trazado_7873" data-name="Trazado 7873" d="M31,0q-.933,0-1.873.055A30.957,30.957,0,0,0,10.4,54.106,30.957,30.957,0,1,0,51.515,7.811,30.732,30.732,0,0,0,31,0m-.076,57.643a26.684,26.684,0,0,1-19.916-44.4,26.683,26.683,0,0,1,39.9,35.436A26.508,26.508,0,0,1,32.538,57.6q-.809.048-1.615.048" transform="translate(136.799 119.761)" fill="#2c097d"/>
            <path id="Trazado_7874" data-name="Trazado 7874" d="M19.251,0A19.232,19.232,0,1,0,32.022,4.848,19.209,19.209,0,0,0,19.251,0M19.22,34.216a14.982,14.982,0,1,1,.907-.026q-.455.027-.907.026M30.6,6.446h0Z" transform="translate(148.518 131.479)" fill="#2c097d"/>
            <path id="Trazado_7875" data-name="Trazado 7875" d="M40.905,20.3C23.447,4.8,5.608-3.621,1.062,1.5S6.983,23.337,24.442,38.841s35.3,23.923,39.843,18.8S58.364,35.806,40.905,20.3" transform="translate(63.028 57.158)" fill="#e81f3a"/>
            <g id="Grupo_3752" data-name="Grupo 3752" transform="translate(85.726 56.651)" opacity="0.2">
              <g id="Grupo_3751" data-name="Grupo 3751" transform="translate(0 0)">
                <g id="Grupo_3750" data-name="Grupo 3750" transform="translate(0 0)" clip-path="url(#clip-path-14)">
                  <path id="Trazado_7876" data-name="Trazado 7876" d="M4.5.053A.373.373,0,0,0,4.412,0C2.9,1.068,1.421,2.18,0,3.355Q2.18,1.624,4.5.053" transform="translate(0 0)" fill="#2c097d"/>
                </g>
              </g>
            </g>
            <g id="Grupo_3755" data-name="Grupo 3755" transform="translate(63.031 57.161)" opacity="0.2">
              <g id="Grupo_3754" data-name="Grupo 3754" transform="translate(0 0)">
                <g id="Grupo_3753" data-name="Grupo 3753" transform="translate(0 0)" clip-path="url(#clip-path-15)">
                  <path id="Trazado_7877" data-name="Trazado 7877" d="M40.9,20.3C23.443,4.8,5.6-3.62,1.06,1.5A5,5,0,0,0,.013,5.216C7.268,4.767,21.9,12.727,36.285,25.494S60.3,51.852,60.709,59.117a5.01,5.01,0,0,0,3.568-1.474C68.829,52.525,58.359,35.8,40.9,20.3" transform="translate(0 0)" fill="#2c097d"/>
                </g>
              </g>
            </g>
            <g id="Grupo_3758" data-name="Grupo 3758" transform="translate(63.027 57.217)" opacity="0.66">
              <g id="Grupo_3757" data-name="Grupo 3757" transform="translate(0 0)">
                <g id="Grupo_3756" data-name="Grupo 3756" clip-path="url(#clip-path-16)">
                  <path id="Trazado_7878" data-name="Trazado 7878" d="M65.211,55.7C58.1,56.454,43.2,48.431,28.575,35.45,12.881,21.507,2.838,6.6,4.269,0A4.744,4.744,0,0,0,1.064,1.442C-3.487,6.56,6.983,23.28,24.441,38.783s35.3,23.921,39.841,18.8a4.1,4.1,0,0,0,.93-1.891" transform="translate(0 0)" fill="#fff"/>
                </g>
              </g>
            </g>
            <path id="Trazado_7879" data-name="Trazado 7879" d="M8.03,0C4.83,0,2.907,1.123,1.753,2.423-.44,4.892-1.672,10.042,4.91,20.556c4.554,7.273,11.819,15.5,20.457,23.175C42.12,58.608,62.547,69.76,69.176,62.3S62.314,35.868,45.561,20.991C36.923,13.32,27.891,7.078,20.131,3.416,14.819.909,10.908,0,8.03,0m54.9,59.18c-5.049,0-17.881-5.481-33.837-19.65C20.848,32.2,13.95,24.407,9.672,17.574,5.467,10.858,5.144,7.065,5.953,6.154S10.568,5.115,17.733,8.5c7.29,3.44,15.848,9.369,24.1,16.7C60.925,42.149,67.136,56.135,64.975,58.569a2.705,2.705,0,0,1-2.041.612" transform="translate(60.238 54.369)" fill="#2c097d"/>
            <path id="Trazado_7880" data-name="Trazado 7880" d="M44.914,0a2.793,2.793,0,0,0-1.14.244A80.108,80.108,0,0,0,16.918,20.355,80.014,80.014,0,0,0,.126,49.393a2.809,2.809,0,0,0,5.367,1.659A74.372,74.372,0,0,1,21.118,24.086,74.478,74.478,0,0,1,46.057,5.376,2.809,2.809,0,0,0,44.914,0" transform="translate(190.888 165.936)" fill="#2c097d"/>
          </g>
        </g>
      </g>
    </g>
    <g id="Grupo_3778" data-name="Grupo 3778" transform="translate(317.148 2135.099) rotate(163)">
      <g id="Grupo_3777" data-name="Grupo 3777" transform="translate(0 0)" clip-path="url(#clip-path-17)">
        <g id="Grupo_3776" data-name="Grupo 3776">
          <g id="Grupo_3775" data-name="Grupo 3775" clip-path="url(#clip-path-17)">
            <path id="Trazado_7881" data-name="Trazado 7881" d="M83.127,20.379C78.976,9.952,65.2,10.754,61.62,9.835S51.587.6,40.811.035,12.05,6.138,5.249,15.02-1.04,33.934,2.819,42.8c.465,1.07.942,2.209,1.43,3.406.035.1.058.163.058.163,3.569,8.812,7.824,20.856,13.671,30.388,3.488,5.662,9.37,7.556,15.578,7.545a47.89,47.89,0,0,0,16.368-3.453,140.023,140.023,0,0,1,16.543-5.359c9.277-3.755,12.451-19.426,15.845-29.284s4.964-15.392.814-25.831" transform="translate(2.345 2.325)" fill="#d0d8d2"/>
            <g id="Grupo_3765" data-name="Grupo 3765" transform="translate(14.815 36.427)" opacity="0.2">
              <g id="Grupo_3764" data-name="Grupo 3764" transform="translate(0 0)">
                <g id="Grupo_3763" data-name="Grupo 3763" clip-path="url(#clip-path-19)">
                  <path id="Trazado_7882" data-name="Trazado 7882" d="M.672,1.326S-1.561,6.773,2.113,8.359,9.2,7,9.334,6.86s1.34-2.839,1.34-2.839S7.72,6.528,4.837,4.727,2.589.375,2.964,0" transform="translate(0 0)" fill="#2c097d"/>
                </g>
              </g>
            </g>
            <g id="Grupo_3768" data-name="Grupo 3768" transform="translate(26.87 53.271)" opacity="0.2">
              <g id="Grupo_3767" data-name="Grupo 3767" transform="translate(0 0)">
                <g id="Grupo_3766" data-name="Grupo 3766" clip-path="url(#clip-path-20)">
                  <path id="Trazado_7883" data-name="Trazado 7883" d="M3.23,1.389S-3.4,7.482,2.336,12.613a11.967,11.967,0,0,0,11.99,2.594A13.941,13.941,0,0,1,7.095,6.82C5.017.507,11.471,0,11.471,0" transform="translate(0 0)" fill="#2c097d"/>
                </g>
              </g>
            </g>
            <g id="Grupo_3771" data-name="Grupo 3771" transform="translate(2.347 17.391)" opacity="0.66">
              <g id="Grupo_3770" data-name="Grupo 3770" transform="translate(0 0)">
                <g id="Grupo_3769" data-name="Grupo 3769" clip-path="url(#clip-path-21)">
                  <path id="Trazado_7884" data-name="Trazado 7884" d="M75.313,50.849a14.3,14.3,0,0,1-5.894,4.743,140.022,140.022,0,0,0-16.543,5.359A47.89,47.89,0,0,1,36.508,64.4c-.151,0-.3,0-.453-.012-3.278-8.812-9.335-10.474-16.368-9.649-5.22-9.149-9.114-20.1-12.427-28.273,0,0-.023-.058-.058-.163-.488-1.2-.965-2.337-1.43-3.406C2.609,15.624,1.679,7.568,5.213,0-1.565,8.87-1.03,18.879,2.818,27.738c.465,1.07.942,2.209,1.43,3.406.035.1.058.163.058.163C7.875,40.119,12.13,52.163,17.977,61.7c3.488,5.662,9.37,7.556,15.578,7.545a47.89,47.89,0,0,0,16.368-3.453,140.024,140.024,0,0,1,16.543-5.359c3.848-1.558,6.65-5.173,8.847-9.579" transform="translate(0 0)" fill="#fff"/>
                </g>
              </g>
            </g>
            <g id="Grupo_3774" data-name="Grupo 3774" transform="translate(22.151 2.325)" opacity="0.2">
              <g id="Grupo_3773" data-name="Grupo 3773" transform="translate(0 0)">
                <g id="Grupo_3772" data-name="Grupo 3772" clip-path="url(#clip-path-22)">
                  <path id="Trazado_7885" data-name="Trazado 7885" d="M63.321,20.379C59.171,9.952,45.4,10.754,41.815,9.835S31.782.6,21.005.035c-4.964-.267-11.451,1-17.67,3.325H3.323A41.7,41.7,0,0,0,1.208,8.44C-.49,13.5-.234,16.59.963,18.426A69.129,69.129,0,0,1,8.38,19.519q1.744.331,3.418.7h.012c1.8.384,3.546.791,5.22,1.221-1.151.488-1.1,1.116.825,1.883,9.475,3.8,19.751,18.914,18.717,35.457A28.789,28.789,0,0,1,22.11,82.063l4.731-.849A33.7,33.7,0,0,1,13.74,84.3l.012.012A47.89,47.89,0,0,0,30.12,80.854c.372-.151.756-.291,1.116-.43l7.58-1.36s.291-.57.779-1.546c4.383-1.4,7.068-2.023,7.068-2.023,9.277-3.755,12.451-19.426,15.845-29.284s4.964-15.392.814-25.831" transform="translate(0 0)" fill="#2c097d"/>
                </g>
              </g>
            </g>
            <path id="Trazado_7886" data-name="Trazado 7886" d="M41.854,0C30.484,0,12.86,6.645,5.744,15.932-2.593,26.813-.33,38.321,3.037,46.059c1.079,2.479,2.238,5.432,3.465,8.559,3.1,7.887,6.948,17.7,11.846,25.684C26.859,94.167,47.1,87.669,53.1,85.346A138.911,138.911,0,0,1,69.343,80.08a2.321,2.321,0,0,0,.337-.107c8.711-3.517,12.442-15.568,15.44-25.25.6-1.941,1.169-3.774,1.74-5.432,3.467-10.048,5.212-16.276.77-27.443C83.741,12.072,72.966,10.9,67.179,10.269a25.028,25.028,0,0,1-2.63-.362,17.425,17.425,0,0,1-3.653-2.343C57.054,4.736,51.25.463,43.282.037,42.818.012,42.341,0,41.854,0M35.816,84.282c-5.28,0-10.5-1.509-13.505-6.413-4.683-7.63-8.294-16.832-11.48-24.95C9.587,49.752,8.413,46.76,7.3,44.2,4.433,37.611,2.475,27.845,9.435,18.76c6.473-8.448,23.677-14.61,33.6-14.08,6.58.352,11.507,3.98,15.1,6.629,2.04,1.5,3.651,2.688,5.249,3.1a25.366,25.366,0,0,0,3.289.482c5.153.561,13.779,1.5,16.633,8.675,3.85,9.678,2.442,14.685-.845,24.207-.6,1.728-1.174,3.6-1.786,5.573-2.687,8.677-6.025,19.46-12.59,22.251a143.823,143.823,0,0,0-16.662,5.411c-2.814,1.089-9.259,3.273-15.61,3.273" transform="translate(0 0)" fill="#2c097d"/>
            <path id="Trazado_7887" data-name="Trazado 7887" d="M16.654,0C9.119,0,4.216,2.87,1.517,11.327a30.836,30.836,0,0,0-.037,19.132A1.744,1.744,0,0,0,4.734,29.2a27.828,27.828,0,0,1,.1-16.815c2.817-8.824,7.506-10.478,21.813-7.7C41.5,7.58,51.97,11.187,54.793,19.4c2.888,8.4,4.289,22.619-1.268,35.038-5.112,11.422-21.02,11.58-21.18,11.58a1.744,1.744,0,0,0,0,3.488h0c.8,0,18.328-.165,24.36-13.643,5.966-13.332,4.626-28.162,1.383-37.6-3.366-9.793-14.737-13.878-30.773-17A57.407,57.407,0,0,0,16.654,0" transform="translate(3.547 18.863)" fill="#2c097d"/>
            <path id="Trazado_7888" data-name="Trazado 7888" d="M3.71,0A1.745,1.745,0,0,0,2.064,1.169C-1.117,10.263-.946,23.685,4.879,29.51c5.046,5.047,19.457,3.2,23.23,2.608,4.833,3.345,8.847,1.051,10.342-.711A1.744,1.744,0,0,0,35.8,29.138c-.409.458-2.607,2.567-6.174-.231a1.743,1.743,0,0,0-1.373-.346c-6.4,1.1-17.727,1.667-20.911-1.516-4.2-4.2-5.127-15.752-1.988-24.724A1.745,1.745,0,0,0,3.71,0" transform="translate(50.835 4.304)" fill="#2c097d"/>
            <path id="Trazado_7889" data-name="Trazado 7889" d="M20.977,13.326c1.645-4.215-.6-9.088-4.283-11.408C11.318-1.913,1.955.079.3,7.138c-1.849,6.822,5.08,13.141,11.519,12.493a1.248,1.248,0,0,0-.034-2.49,9.032,9.032,0,0,1-7.754-4.854C.922,5.36,9.479,1.116,14.952,4.678a7.277,7.277,0,0,1,3.653,7.89,1.248,1.248,0,0,0,2.372.758" transform="translate(24.845 51.073)" fill="#2c097d"/>
            <path id="Trazado_7890" data-name="Trazado 7890" d="M1.548,11.926c3,4.184,10.058,3.206,12.042-1.516,2.361-4.7-1.645-10.743-6.857-10.4A7.026,7.026,0,0,0,.015,5.806a1.25,1.25,0,0,0,2.422.575A4.465,4.465,0,0,1,6.766,3.263a4.138,4.138,0,0,1,1.928,7.72,4.474,4.474,0,0,1-5.266-.692,1.251,1.251,0,0,0-1.88,1.634" transform="translate(12.959 33.09)" fill="#2c097d"/>
            <path id="Trazado_7891" data-name="Trazado 7891" d="M.359,6.662a4.436,4.436,0,0,0,3.32.814c2.146-.32,3.7-2.911,2.369-4.753-.531-1-4.233-3.89-4.879-2.209a.834.834,0,0,0,.288.95A9.9,9.9,0,0,1,4.092,3.906c.2.4.165.425.048.7C3.5,5.616,2.333,5.574,1.2,5.229A.834.834,0,0,0,.359,6.662" transform="translate(38.862 36.015)" fill="#2c097d"/>
            <path id="Trazado_7892" data-name="Trazado 7892" d="M.343,8.438c2.831,2.14,7.079,3.207,10.3.984C14.377,6.905,14.052,1.277,9.4.037a.834.834,0,0,0-.576,1.558c4.863,2.389.868,7.567-3.37,6.8A12.275,12.275,0,0,1,1.18,7.009.833.833,0,0,0,.343,8.438" transform="translate(26.176 5.578)" fill="#2c097d"/>
            <path id="Trazado_7893" data-name="Trazado 7893" d="M5.276,13.187C.936,14.014,1.4-.655,6.287,2.31a.831.831,0,0,0,1.1-.406C7.9.614,5.372-.108,4.24.013c-6.131.946-5.6,16.88,1.514,14.764a.838.838,0,0,0-.478-1.591" transform="translate(70.414 47.122)" fill="#2c097d"/>
          </g>
        </g>
      </g>
    </g>
    <g id="Grupo_3858" data-name="Grupo 3858" transform="translate(-51.19 2120.787)">
      <g id="Grupo_3857" data-name="Grupo 3857" clip-path="url(#clip-path-23)">
        <g id="Grupo_3856" data-name="Grupo 3856">
          <g id="Grupo_3855" data-name="Grupo 3855" clip-path="url(#clip-path-23)">
            <path id="Trazado_7959" data-name="Trazado 7959" d="M226.187,324.694v.01c-.431.913-14.5,30.348-33.26,49.111-19.07,19.07-47.7,23.192-73.82,19.931s-44.066,5.6-44.066,5.6a92.891,92.891,0,0,1-27.293-36.459c.666.154,27.98,6.777,56.513-9.3,28.872-16.271,51.448-47.286,71.882-48.711,20.167-1.394,42.354-13,42.959-13.329a92.029,92.029,0,0,1,7.085,33.147" transform="translate(-37.957 -231.764)" fill="#a38f5b"/>
            <path id="Trazado_7960" data-name="Trazado 7960" d="M191.6,103.344c-.6.328-22.792,11.934-42.959,13.329-20.434,1.425-43.01,32.44-71.882,48.711-28.533,16.076-55.847,9.453-56.513,9.3a92.025,92.025,0,0,1-7-31.568c-.062-1.353-.092-2.707-.092-4.07a92.362,92.362,0,0,1,4.429-28.38c.584,1.487,26.688,1.763,42.7-9.853,16.681-12.1,32.942-12.3,54.093-17.481S144.865,54.8,144.865,54.8a92.659,92.659,0,0,1,23.222,15.348l.041.041a92.7,92.7,0,0,1,9.115,9.494l.062.072v.01a93.036,93.036,0,0,1,8.93,12.765l.031.051a90.82,90.82,0,0,1,5.3,10.683c.01.031.031.051.031.082" transform="translate(-10.452 -43.561)" fill="#a38f5b"/>
            <path id="Trazado_7961" data-name="Trazado 7961" d="M162.036,21.688s-9.34,23.345-30.492,28.533S94.132,55.6,77.451,67.7c-16.015,11.616-42.118,11.34-42.7,9.853a.619.619,0,0,1,.062-.195l.01-.01A91.843,91.843,0,0,1,47.913,51.585c0-.01,0-.01.01-.021s.01-.031.031-.041a92.9,92.9,0,0,1,91.075-37.012,90.576,90.576,0,0,1,12.631,3.127,88.8,88.8,0,0,1,10.376,4.05" transform="translate(-27.623 -10.451)" fill="#c4b383"/>
            <path id="Trazado_7962" data-name="Trazado 7962" d="M332.035,455.79a92.379,92.379,0,0,1-4.686,29.169.714.714,0,0,1-.051.133,92.288,92.288,0,0,1-16.158,29.354c-.02.021-.041.051-.061.072h-.01a92.875,92.875,0,0,1-95.5,31h-.01c-.01,0-.021-.01-.031-.01a91.963,91.963,0,0,1-22.351-9.166.309.309,0,0,1-.113-.062,93.843,93.843,0,0,1-12.18-8.366l-.031-.031s17.932-8.848,44.066-5.6,54.75-.861,73.82-19.931c18.763-18.763,32.829-48.2,33.26-49.111a.729.729,0,0,1,.01.144q.031,1.2.031,2.4" transform="translate(-143.764 -360.306)" fill="#c4b383"/>
            <path id="Trazado_7963" data-name="Trazado 7963" d="M191.351,162.845h-.01c-.6.328-22.792,11.934-42.959,13.329-20.434,1.425-43.01,32.44-71.882,48.711-28.533,16.076-55.847,9.453-56.513,9.3l-.01-.01c-8.828-13.7-6.992-31.558-6.992-31.558s29.7-.759,52.586-4.07,49.869-17.132,68.478-35.741,33.783-33.157,33.783-33.157l.041.041,9.115,9.494.062.072v.01c-8.192,14.754-.092,14.2,8.93,12.765l.031.051,5.3,10.683Z" transform="translate(-10.196 -103.062)" fill="#c4b383"/>
            <path id="Trazado_7964" data-name="Trazado 7964" d="M327.349,484.879a.714.714,0,0,1-.051.133,100.832,100.832,0,0,1-16.158,29.354c-.02.021-.041.051-.061.072h-.01c-26.514,17.809-56.79,30.317-95.5,31h-.01c-.01,0-.021-.01-.031-.01a130.711,130.711,0,0,1-22.351-9.166.308.308,0,0,1-.113-.062,64.648,64.648,0,0,1-12.18-8.366l-.031-.031s17.932-8.848,44.066-5.6,54.75-.861,73.82-19.931c18.763-18.763,32.829-48.2,33.26-49.111v-.01l.01-.01v.164q.031,1.2.031,2.4c0,.108-.006.215-.007.323a88.54,88.54,0,0,1-4.679,28.847" transform="translate(-143.764 -360.227)" fill="#84775a"/>
            <path id="Trazado_7965" data-name="Trazado 7965" d="M162.006,21.688s-9.34,23.345-30.492,28.533S94.1,55.6,77.421,67.7c-16.015,11.616-42.118,11.34-42.7,9.853a.186.186,0,0,1,.062-.195l.01-.01C36.41,75.678,47.206,53,47.883,51.585c0-.01,0-.01.01-.021a.431.431,0,0,1,.021-.051l.01.01c.277.441,7.3,10.827,29.6-.01,22.782-11.063,35.331-9.689,45.553-19.9,7.751-7.751,13.564-14.354,15.923-17.1.759-.882,1.159-1.364,1.159-1.364l11.473,4.491Z" transform="translate(-27.593 -10.451)" fill="#7c6a45"/>
            <g id="Grupo_3848" data-name="Grupo 3848" transform="translate(28.646 18.27)" opacity="0.2" style="mix-blend-mode: color-burn;isolation: isolate">
              <g id="Grupo_3847" data-name="Grupo 3847">
                <g id="Grupo_3846" data-name="Grupo 3846" clip-path="url(#clip-path-25)">
                  <path id="Trazado_7966" data-name="Trazado 7966" d="M294.443,163.255a92.81,92.81,0,0,1-139.4,80.248c-1.815-1.2-3.578-2.481-5.3-3.814A94.275,94.275,0,0,1,141,229.713c-.441-.584-.871-1.169-1.3-1.763a86.48,86.48,0,0,0,7.69,5.865,78.568,78.568,0,0,0,44.21,13.708c46.9,0,84.9-42,84.9-93.792,0-25.047-8.889-47.819-23.376-64.633a87.732,87.732,0,0,1,8.561,4.429c1.753,1.159,3.455,2.389,5.116,3.67a92.426,92.426,0,0,1,27.641,66.058" transform="translate(-139.698 -89.097)" fill="#2c097d"/>
                </g>
              </g>
            </g>
            <path id="Trazado_7967" data-name="Trazado 7967" d="M522.17,512.692a3.388,3.388,0,0,1-3.392-.639c-1.376-1.289-2.11-4.245,2.294-11.007,7.55-11.592,13.954-19.37,24.9-22.573s17.2-7.855,19.485-2.288S552.7,493.916,544.1,501.047c-8.019,6.65-18.547,10.513-21.932,11.646" transform="translate(-411.556 -376.48)" fill="#c4b383"/>
            <g id="Grupo_3851" data-name="Grupo 3851" transform="translate(2.696 2.696)" opacity="0.66">
              <g id="Grupo_3850" data-name="Grupo 3850">
                <g id="Grupo_3849" data-name="Grupo 3849" clip-path="url(#clip-path-26)">
                  <path id="Trazado_7968" data-name="Trazado 7968" d="M173.665,42.542A92.775,92.775,0,0,0,42.553,173.684,92.777,92.777,0,1,1,171.081,39.876c.882.871,1.753,1.763,2.584,2.666" transform="translate(-13.148 -13.147)" fill="#fff"/>
                </g>
              </g>
            </g>
            <path id="Trazado_7969" data-name="Trazado 7969" d="M95.483,190.966A95.484,95.484,0,0,1,0,95.483a95.483,95.483,0,1,1,95.483,95.483m0-185.575a90.092,90.092,0,0,0-55.139,161.34,89.151,89.151,0,0,0,55.139,18.844,90.092,90.092,0,0,0,0-180.184" fill="#2c097d"/>
            <g id="Grupo_3854" data-name="Grupo 3854" transform="translate(22.196 31.996)" opacity="0.48">
              <g id="Grupo_3853" data-name="Grupo 3853">
                <g id="Grupo_3852" data-name="Grupo 3852" clip-path="url(#clip-path-27)">
                  <path id="Trazado_7970" data-name="Trazado 7970" d="M146.639,206.935c-7.571,26.112-14.558,47.033-25,44.006s-17.877-28.13-10.307-54.242,27.285-43.343,37.723-40.316,5.151,24.44-2.419,50.552" transform="translate(-108.242 -156.038)" fill="#fff"/>
                </g>
              </g>
            </g>
          </g>
        </g>
      </g>
    </g>
  </g>
</svg>
