<svg xmlns="http://www.w3.org/2000/svg" xmlns:xlink="http://www.w3.org/1999/xlink" width="350.278" height="517.58" viewBox="0 0 350.278 517.58">
  <defs>
    <clipPath id="clip-path">
      <rect id="Rectángulo_446" data-name="Rectángulo 446" width="207.146" height="186.871" transform="translate(0 0)" fill="none"/>
    </clipPath>
    <clipPath id="clip-path-2">
      <path id="Trazado_7594" data-name="Trazado 7594" d="M0,0C27.445,4.633,55.5,3.634,65.5,28.565l-29.4,33.1C10.167,54.684,7.844,26.706,0,0" transform="translate(0 0)" fill="none"/>
    </clipPath>
    <linearGradient id="linear-gradient" x1="0.109" y1="0.118" x2="0.111" y2="0.118" gradientUnits="objectBoundingBox">
      <stop offset="0" stop-color="#f0b031"/>
      <stop offset="1" stop-color="#c41754"/>
    </linearGradient>
    <clipPath id="clip-path-3">
      <rect id="Rectángulo_445" data-name="Rectángulo 445" width="207.145" height="186.871" transform="translate(0 0)" fill="none"/>
    </clipPath>
    <clipPath id="clip-path-4">
      <rect id="Rectángulo_432" data-name="Rectángulo 432" width="46.047" height="39.194" transform="translate(0 0)" fill="none"/>
    </clipPath>
    <clipPath id="clip-path-5">
      <rect id="Rectángulo_433" data-name="Rectángulo 433" width="23.775" height="18.102" transform="translate(0 0)" fill="none"/>
    </clipPath>
    <clipPath id="clip-path-6">
      <rect id="Rectángulo_434" data-name="Rectángulo 434" width="50.129" height="33.82" transform="translate(0 0)" fill="none"/>
    </clipPath>
    <clipPath id="clip-path-7">
      <rect id="Rectángulo_435" data-name="Rectángulo 435" width="62.668" height="25.083" transform="translate(0 0)" fill="none"/>
    </clipPath>
    <clipPath id="clip-path-8">
      <rect id="Rectángulo_436" data-name="Rectángulo 436" width="40.005" height="60.136" transform="translate(0 0)" fill="none"/>
    </clipPath>
    <clipPath id="clip-path-9">
      <rect id="Rectángulo_437" data-name="Rectángulo 437" width="152.82" height="142.782" transform="translate(0 0)" fill="none"/>
    </clipPath>
    <clipPath id="clip-path-10">
      <rect id="Rectángulo_438" data-name="Rectángulo 438" width="156.307" height="106.334" transform="translate(0 0)" fill="none"/>
    </clipPath>
    <clipPath id="clip-path-11">
      <rect id="Rectángulo_439" data-name="Rectángulo 439" width="43.582" height="40.712" transform="translate(0 0)" fill="none"/>
    </clipPath>
    <clipPath id="clip-path-12">
      <rect id="Rectángulo_440" data-name="Rectángulo 440" width="26.734" height="25.653" transform="translate(0 0)" fill="none"/>
    </clipPath>
    <clipPath id="clip-path-13">
      <rect id="Rectángulo_441" data-name="Rectángulo 441" width="26.999" height="23.998" transform="translate(0 0)" fill="none"/>
    </clipPath>
    <clipPath id="clip-path-14">
      <rect id="Rectángulo_442" data-name="Rectángulo 442" width="3.752" height="2.798" transform="translate(0 0)" fill="none"/>
    </clipPath>
    <clipPath id="clip-path-15">
      <rect id="Rectángulo_443" data-name="Rectángulo 443" width="54.503" height="49.311" transform="translate(0 0)" fill="none"/>
    </clipPath>
    <clipPath id="clip-path-16">
      <rect id="Rectángulo_444" data-name="Rectángulo 444" width="54.394" height="49.284" transform="translate(0 0)" fill="none"/>
    </clipPath>
    <clipPath id="clip-path-17">
      <rect id="Rectángulo_505" data-name="Rectángulo 505" width="149.988" height="149.988" fill="none"/>
    </clipPath>
    <clipPath id="clip-path-19">
      <rect id="Rectángulo_496" data-name="Rectángulo 496" width="70.154" height="54.33" fill="none"/>
    </clipPath>
    <clipPath id="clip-path-20">
      <rect id="Rectángulo_497" data-name="Rectángulo 497" width="31.488" height="51.431" fill="none"/>
    </clipPath>
    <clipPath id="clip-path-21">
      <rect id="Rectángulo_498" data-name="Rectángulo 498" width="57.362" height="27.223" fill="none"/>
    </clipPath>
    <clipPath id="clip-path-22">
      <rect id="Rectángulo_499" data-name="Rectángulo 499" width="146.793" height="114.736" fill="none"/>
    </clipPath>
    <clipPath id="clip-path-23">
      <rect id="Rectángulo_500" data-name="Rectángulo 500" width="38.471" height="29.549" fill="none"/>
    </clipPath>
    <clipPath id="clip-path-24">
      <rect id="Rectángulo_501" data-name="Rectángulo 501" width="25.012" height="65.624" fill="none"/>
    </clipPath>
    <clipPath id="clip-path-25">
      <rect id="Rectángulo_502" data-name="Rectángulo 502" width="34.229" height="34.835" fill="none"/>
    </clipPath>
    <clipPath id="clip-path-26">
      <rect id="Rectángulo_503" data-name="Rectángulo 503" width="132.754" height="121.341" fill="none"/>
    </clipPath>
    <clipPath id="clip-path-27">
      <rect id="Rectángulo_506" data-name="Rectángulo 506" width="34.627" height="34.627" fill="none"/>
    </clipPath>
    <clipPath id="clip-path-28">
      <rect id="Rectángulo_506-2" data-name="Rectángulo 506" width="30" height="30" fill="none"/>
    </clipPath>
    <clipPath id="clip-path-30">
      <rect id="Rectángulo_506-4" data-name="Rectángulo 506" width="17.313" height="17.313" fill="none"/>
    </clipPath>
  </defs>
  <g id="_01" data-name="01" transform="translate(0)">
    <g id="Grupo_3470" data-name="Grupo 3470" transform="matrix(0.208, -0.978, 0.978, 0.208, 73.512, 207.461)">
      <g id="Grupo_3469" data-name="Grupo 3469" transform="translate(0 0)" clip-path="url(#clip-path)">
        <g id="Grupo_3427" data-name="Grupo 3427" transform="translate(2.343 3.533)">
          <g id="Grupo_3426" data-name="Grupo 3426" transform="translate(0 0)" clip-path="url(#clip-path-2)">
            <rect id="Rectángulo_431" data-name="Rectángulo 431" width="89.656" height="89.942" transform="translate(36.207 -32.569) rotate(48.028)" fill="url(#linear-gradient)"/>
          </g>
        </g>
        <g id="Grupo_3468" data-name="Grupo 3468" transform="translate(0 0)">
          <g id="Grupo_3467" data-name="Grupo 3467" clip-path="url(#clip-path-3)">
            <path id="Trazado_7595" data-name="Trazado 7595" d="M36.048,17.4S25.9-3.472.026.5c-.891,26.159,21.03,33.773,21.03,33.773" transform="translate(22.407 20.87)" fill="#ffed7c"/>
            <path id="Trazado_7596" data-name="Trazado 7596" d="M46.044,12.241,40.068,0a44.52,44.52,0,0,0-7.6,2.859A58.059,58.059,0,0,0,1.941,37.233,44.534,44.534,0,0,0,0,45.119l12.862,4.488" transform="translate(36.697 29.273)" fill="#bcbcbc"/>
            <g id="Grupo_3430" data-name="Grupo 3430" transform="translate(36.697 39.687)" opacity="0.66">
              <g id="Grupo_3429" data-name="Grupo 3429">
                <g id="Grupo_3428" data-name="Grupo 3428" clip-path="url(#clip-path-4)">
                  <path id="Trazado_7597" data-name="Trazado 7597" d="M46.047,1.827,45.156,0,14.277,34.774,1.417,30.282A38.192,38.192,0,0,1,2.5,25.2c-.2.535-.383,1.069-.561,1.613A44.713,44.713,0,0,0,0,34.7l12.86,4.492Z" transform="translate(0 0)" fill="#fff"/>
                </g>
              </g>
            </g>
            <g id="Grupo_3433" data-name="Grupo 3433" transform="translate(53.097 32.299)" opacity="0.2">
              <g id="Grupo_3432" data-name="Grupo 3432" transform="translate(0 0)">
                <g id="Grupo_3431" data-name="Grupo 3431" clip-path="url(#clip-path-5)">
                  <path id="Trazado_7598" data-name="Trazado 7598" d="M13.114,18.1S0,15.46,0,14.62,2.121,6.843,2.828,6.843,9.592,2.7,10.7,2.7,18.737,0,18.737,0l5.038,10.643" transform="translate(0 0)" fill="#2c097d"/>
                </g>
              </g>
            </g>
            <path id="Trazado_7599" data-name="Trazado 7599" d="M156.306,136.953C156.128,88.313,97.444,6.342,39.767.05a7.334,7.334,0,0,0-3.93.606A65.869,65.869,0,0,0,25.811,6.467,63.628,63.628,0,0,0,13.9,17.33,78.226,78.226,0,0,0,.457,40.519a7.326,7.326,0,0,0-.25,4.287c13.2,56.465,101.4,104.945,149.682,99.384a7.277,7.277,0,0,0,6.417-7.236" transform="translate(48.493 39.904)" fill="#fff"/>
            <path id="Trazado_7600" data-name="Trazado 7600" d="M42.412,0a2.352,2.352,0,0,0-.546.064,46.738,46.738,0,0,0-8.047,3.015A60.543,60.543,0,0,0,2.059,38.842,46.693,46.693,0,0,0,.016,47.189a2.343,2.343,0,0,0,1.555,2.485l12.862,4.488,1.544-4.425L4.993,45.9a51.153,51.153,0,0,1,1.516-5.6A55.839,55.839,0,0,1,35.8,7.325a51.154,51.154,0,0,1,5.377-2.166l5.1,10.454,4.211-2.056L44.517,1.315A2.345,2.345,0,0,0,42.412,0" transform="translate(34.353 26.929)" fill="#2c097d"/>
            <path id="Trazado_7601" data-name="Trazado 7601" d="M2.343,0A2.343,2.343,0,0,0,.1,3c1.3,4.442,2.47,8.978,3.6,13.365,5.78,22.492,11.24,43.737,34.146,49.906a2.343,2.343,0,0,0,1.218-4.525C18.791,56.292,13.9,37.251,8.231,15.2,7.392,11.936,6.531,8.587,5.6,5.24c3.433.525,6.86.984,10.2,1.431,22.564,3.021,42.05,5.63,49.865,25.11a2.343,2.343,0,1,0,4.349-1.745C61.189,8.019,39.447,5.108,16.429,2.026,11.94,1.425,7.3.8,2.733.033A2.306,2.306,0,0,0,2.343,0" transform="translate(0 1.19)" fill="#2c097d"/>
            <path id="Trazado_7602" data-name="Trazado 7602" d="M62.668,37.144,60.3,33.82,36.191,0C29.052,5.659,19.365,7.593,10.168,10.8a65.712,65.712,0,0,0-6.577,2.638,6.255,6.255,0,0,0-1.105,10.65c16.175,12.174,36.69,15.6,60.181,13.056" transform="translate(13.312 95.761)" fill="#e81f3a"/>
            <g id="Grupo_3436" data-name="Grupo 3436" transform="translate(23.48 95.761)" opacity="0.2">
              <g id="Grupo_3435" data-name="Grupo 3435" transform="translate(0 0)">
                <g id="Grupo_3434" data-name="Grupo 3434" clip-path="url(#clip-path-6)">
                  <path id="Trazado_7603" data-name="Trazado 7603" d="M50.129,33.82,26.022,0C18.884,5.659,9.2,7.593,0,10.8l1.159,1.337S14.678,5.677,29.1,17.592,50.129,33.82,50.129,33.82" transform="translate(0 0)" fill="#2c097d"/>
                </g>
              </g>
            </g>
            <g id="Grupo_3439" data-name="Grupo 3439" transform="translate(13.312 108.611)" opacity="0.66">
              <g id="Grupo_3438" data-name="Grupo 3438" transform="translate(0 0)">
                <g id="Grupo_3437" data-name="Grupo 3437" clip-path="url(#clip-path-7)">
                  <path id="Trazado_7604" data-name="Trazado 7604" d="M62.668,24.294,60.3,20.969C39.64,22.2,21.5,18.332,6.907,7.343A6.214,6.214,0,0,1,4.884,0c-.437.187-.864.383-1.292.588a6.255,6.255,0,0,0-1.105,10.65c16.175,12.174,36.69,15.6,60.181,13.056" transform="translate(0 0)" fill="#fff"/>
                </g>
              </g>
            </g>
            <path id="Trazado_7605" data-name="Trazado 7605" d="M40.005,60.136q-.053-5.387-.508-10.516c-1.114-12.539-4.091-23.848-9.384-33.651A64.163,64.163,0,0,0,19.936,1.924,6.257,6.257,0,0,0,9.491,4.277C5.686,15.729,5.935,28.588,0,38.24Z" transform="translate(98.607 2.232)" fill="#e81f3a"/>
            <g id="Grupo_3442" data-name="Grupo 3442" transform="translate(98.607 2.232)" opacity="0.2">
              <g id="Grupo_3441" data-name="Grupo 3441">
                <g id="Grupo_3440" data-name="Grupo 3440" clip-path="url(#clip-path-8)">
                  <path id="Trazado_7606" data-name="Trazado 7606" d="M40.005,60.136q-.053-5.387-.508-10.516L37.92,46.546S11.14,43.221,11.14,30.068c0-9.625,12.343-12.984,18.973-14.1A64.163,64.163,0,0,0,19.936,1.924,6.257,6.257,0,0,0,9.491,4.277C5.686,15.729,5.935,28.588,0,38.24Z" transform="translate(0 0)" fill="#2c097d"/>
                </g>
              </g>
            </g>
            <path id="Trazado_7607" data-name="Trazado 7607" d="M43.231,36.1C43.2,25.31,40.272,12.878,35.121,0a64.429,64.429,0,0,0-21.6,16.193A64.419,64.419,0,0,0,0,39.551c13.4,3.591,26.094,5.026,36.815,3.788A7.277,7.277,0,0,0,43.231,36.1" transform="translate(161.569 140.756)" fill="#e81f3a"/>
            <g id="Grupo_3445" data-name="Grupo 3445" transform="translate(49.351 42.845)" opacity="0.2">
              <g id="Grupo_3444" data-name="Grupo 3444">
                <g id="Grupo_3443" data-name="Grupo 3443" clip-path="url(#clip-path-9)">
                  <path id="Trazado_7608" data-name="Trazado 7608" d="M152.819,136.953c-.036-10.792-2.959-23.224-8.11-36.1C126.654,55.669,81.16,4.943,36.28.05a7.334,7.334,0,0,0-3.93.606q-.722.334-1.417.7-2.607,1.444-5.026,3.1-1.938,1.31-3.752,2.754a1.11,1.11,0,0,0-.169.134A69.665,69.665,0,0,0,2.772,32.026Q1.288,35.114,0,38.416A66.679,66.679,0,0,1,17.057,19.523,105.83,105.83,0,0,0,29.489,32.48C44.051,45.411,58.934,52.434,62.73,48.165S57.784,29.949,43.222,17.018c-1.577-1.4-3.155-2.727-4.714-3.984,24.525,4.875,48.846,22.734,68.4,45.21a24.076,24.076,0,1,0,9.108,11.265,191.514,191.514,0,0,1,24.846,43.383c4.189,10.471,6.907,20.649,7.789,29.89.178-.009.356-.036.535-.053a6.745,6.745,0,0,0,1.043-.2,7.23,7.23,0,0,0,2.593-5.57" transform="translate(0 0)" fill="#2c097d"/>
                </g>
              </g>
            </g>
            <g id="Grupo_3448" data-name="Grupo 3448" transform="translate(48.494 78.195)" opacity="0.66">
              <g id="Grupo_3447" data-name="Grupo 3447" transform="translate(0 0)">
                <g id="Grupo_3446" data-name="Grupo 3446" clip-path="url(#clip-path-10)">
                  <path id="Trazado_7609" data-name="Trazado 7609" d="M156.306,98.663v-.027a7.292,7.292,0,0,1-5.1,3.039C102.934,107.236,14.734,58.747,1.526,2.29A7.617,7.617,0,0,1,1.339,0c-.3.731-.6,1.479-.882,2.228a7.326,7.326,0,0,0-.25,4.287C13.406,62.98,101.606,111.46,149.89,105.9a7.277,7.277,0,0,0,6.417-7.236" transform="translate(0 0)" fill="#fff"/>
                </g>
              </g>
            </g>
            <path id="Trazado_7610" data-name="Trazado 7610" d="M41.231,0a9.5,9.5,0,0,0-4.045.881C20.322,8.81,8.018,22.653.616,42.026a9.642,9.642,0,0,0-.348,5.66C6.426,74.018,29.291,101.138,63,122.092c31.044,19.3,65.34,29.554,89.5,26.769a9.588,9.588,0,0,0,8.5-9.569c-.09-24.35-14.353-57.224-37.224-85.791C98.935,22.474,69.262,3,42.363.062A10.446,10.446,0,0,0,41.231,0m102.96,144.632c-22.455,0-51.761-9.765-78.716-26.52C32.812,97.809,10.708,71.751,4.831,46.619A4.982,4.982,0,0,1,4.993,43.7C12.046,25.24,23.229,12.621,39.18,5.122a5.007,5.007,0,0,1,2.674-.4h0c25.67,2.8,54.194,21.648,78.26,51.708,22.24,27.78,36.11,59.538,36.2,82.88a4.967,4.967,0,0,1-4.348,4.9,67.991,67.991,0,0,1-7.771.427" transform="translate(46.149 37.56)" fill="#2c097d"/>
            <path id="Trazado_7611" data-name="Trazado 7611" d="M38.418,0a2.219,2.219,0,0,0-1.383.482c-5.1,4.043-11.672,6.091-18.629,8.259A105.136,105.136,0,0,0,4.873,13.653a8.48,8.48,0,0,0-1.5,14.441C19.157,39.971,39.359,44.383,65.131,41.582a2.228,2.228,0,0,0-.481-4.43C40.057,39.822,20.888,35.7,6.051,24.534a4.024,4.024,0,0,1,.717-6.848A101.73,101.73,0,0,1,19.732,13C26.772,10.8,34.052,8.533,39.8,3.974A2.228,2.228,0,0,0,38.418,0" transform="translate(11.085 93.534)" fill="#2c097d"/>
            <path id="Trazado_7612" data-name="Trazado 7612" d="M17.69,0A8.613,8.613,0,0,0,15.8.211a8.416,8.416,0,0,0-6.19,5.6A105.044,105.044,0,0,0,6.331,19.828C5,26.993,3.743,33.76.331,39.3a2.228,2.228,0,1,0,3.794,2.337c3.848-6.249,5.24-13.746,6.587-21A101.633,101.633,0,0,1,13.838,7.215a4.023,4.023,0,0,1,6.715-1.521c12.839,13.413,19.2,31.96,19.454,56.7A2.257,2.257,0,0,0,42.258,64.6a2.228,2.228,0,0,0,2.205-2.251C44.2,36.421,37.43,16.883,23.772,2.612A8.385,8.385,0,0,0,17.69,0" transform="translate(96.378 0)" fill="#2c097d"/>
            <path id="Trazado_7613" data-name="Trazado 7613" d="M40,6.065A24.04,24.04,0,1,0,42.015,40,24.04,24.04,0,0,0,40,6.065" transform="translate(115.891 101.679)" fill="#e81f3a"/>
            <g id="Grupo_3451" data-name="Grupo 3451" transform="translate(115.892 109.048)" opacity="0.66">
              <g id="Grupo_3450" data-name="Grupo 3450" transform="translate(0 0)">
                <g id="Grupo_3449" data-name="Grupo 3449" clip-path="url(#clip-path-11)">
                  <path id="Trazado_7614" data-name="Trazado 7614" d="M43.582,30.657A24.031,24.031,0,0,1,6.723,0c-.232.232-.446.463-.659.7a24.042,24.042,0,1,0,35.95,31.931,21.491,21.491,0,0,0,1.569-1.978" transform="translate(0 0)" fill="#fff"/>
                </g>
              </g>
            </g>
            <path id="Trazado_7615" data-name="Trazado 7615" d="M23.752,3.6a14.274,14.274,0,1,0,1.195,20.15A14.274,14.274,0,0,0,23.752,3.6" transform="translate(125.657 111.445)" fill="#34adef"/>
            <g id="Grupo_3454" data-name="Grupo 3454" transform="translate(125.656 114.342)" opacity="0.2">
              <g id="Grupo_3453" data-name="Grupo 3453" transform="translate(0 0)">
                <g id="Grupo_3452" data-name="Grupo 3452" clip-path="url(#clip-path-12)">
                  <path id="Trazado_7616" data-name="Trazado 7616" d="M26.734,18.341A14.275,14.275,0,0,1,5.657,0,14.275,14.275,0,1,0,26.734,18.341" transform="translate(0 0)" fill="#2c097d"/>
                </g>
              </g>
            </g>
            <g id="Grupo_3457" data-name="Grupo 3457" transform="translate(129.504 108.176)" opacity="0.66">
              <g id="Grupo_3456" data-name="Grupo 3456">
                <g id="Grupo_3455" data-name="Grupo 3455" clip-path="url(#clip-path-13)">
                  <path id="Trazado_7617" data-name="Trazado 7617" d="M22.2,3.6A14.279,14.279,0,0,0,2.05,4.793,14.127,14.127,0,0,0,0,7.8,14.275,14.275,0,0,1,23.162,24c.08-.08.152-.16.232-.25A14.263,14.263,0,0,0,22.2,3.6" transform="translate(0 0)" fill="#fff"/>
                </g>
              </g>
            </g>
            <path id="Trazado_7618" data-name="Trazado 7618" d="M25.857,0Q25.079,0,24.3.046A25.822,25.822,0,0,0,8.677,45.131,25.822,25.822,0,1,0,42.97,6.515,25.634,25.634,0,0,0,25.857,0m-.063,48.081A22.258,22.258,0,0,1,9.181,11.044,22.257,22.257,0,0,1,42.466,40.6a22.111,22.111,0,0,1-15.325,7.439q-.675.04-1.347.04" transform="translate(114.107 99.896)" fill="#2c097d"/>
            <path id="Trazado_7619" data-name="Trazado 7619" d="M16.057,0A16.042,16.042,0,1,0,26.71,4.043,16.023,16.023,0,0,0,16.057,0m-.026,28.54a12.5,12.5,0,1,1,.756-.022q-.379.022-.756.022M25.527,5.376h0Z" transform="translate(123.882 109.67)" fill="#2c097d"/>
            <path id="Trazado_7620" data-name="Trazado 7620" d="M34.12,16.934C19.558,4,4.678-3.02.886,1.25S5.825,19.466,20.387,32.4,49.829,52.353,53.621,48.082s-4.939-18.216-19.5-31.148" transform="translate(52.574 47.677)" fill="#e81f3a"/>
            <g id="Grupo_3460" data-name="Grupo 3460" transform="translate(71.506 47.254)" opacity="0.2">
              <g id="Grupo_3459" data-name="Grupo 3459" transform="translate(0 0)">
                <g id="Grupo_3458" data-name="Grupo 3458" clip-path="url(#clip-path-14)">
                  <path id="Trazado_7621" data-name="Trazado 7621" d="M3.752.045A.313.313,0,0,0,3.681,0C2.415.891,1.185,1.818,0,2.8Q1.818,1.355,3.752.045" transform="translate(0 0)" fill="#2c097d"/>
                </g>
              </g>
            </g>
            <g id="Grupo_3463" data-name="Grupo 3463" transform="translate(52.575 47.68)" opacity="0.2">
              <g id="Grupo_3462" data-name="Grupo 3462" transform="translate(0 0)">
                <g id="Grupo_3461" data-name="Grupo 3461" clip-path="url(#clip-path-15)">
                  <path id="Trazado_7622" data-name="Trazado 7622" d="M34.116,16.934C19.554,4,4.672-3.019.884,1.249a4.167,4.167,0,0,0-.873,3.1c6.051-.374,18.26,6.265,30.256,16.915S50.3,43.251,50.639,49.311a4.179,4.179,0,0,0,2.977-1.23c3.8-4.269-4.937-18.216-19.5-31.147" transform="translate(0 0)" fill="#2c097d"/>
                </g>
              </g>
            </g>
            <g id="Grupo_3466" data-name="Grupo 3466" transform="translate(52.572 47.726)" opacity="0.66">
              <g id="Grupo_3465" data-name="Grupo 3465">
                <g id="Grupo_3464" data-name="Grupo 3464" clip-path="url(#clip-path-16)">
                  <path id="Trazado_7623" data-name="Trazado 7623" d="M54.394,46.457c-5.935.633-18.358-6.06-30.559-16.888C10.744,17.94,2.367,5.508,3.561,0A3.957,3.957,0,0,0,.888,1.2c-3.8,4.269,4.937,18.216,19.5,31.147S49.831,52.3,53.619,48.035a3.415,3.415,0,0,0,.775-1.577" transform="translate(0 0)" fill="#fff"/>
                </g>
              </g>
            </g>
            <path id="Trazado_7624" data-name="Trazado 7624" d="M6.7,0A6.612,6.612,0,0,0,1.462,2.021C-.367,4.08-1.395,8.377,4.1,17.146c3.8,6.067,9.858,12.932,17.063,19.331C35.133,48.886,52.172,58.189,57.7,51.965S51.977,29.919,38,17.509C30.8,11.111,23.265,5.9,16.792,2.849,12.361.758,9.1,0,6.7,0M52.5,49.364c-4.211,0-14.915-4.572-28.224-16.391-6.881-6.111-12.635-12.615-16.2-18.314-3.508-5.6-3.777-8.766-3.1-9.526s3.849-.867,9.826,1.954c6.081,2.87,13.219,7.815,20.1,13.926C50.819,35.157,56,46.823,54.2,48.853a2.257,2.257,0,0,1-1.7.51" transform="translate(50.246 45.35)" fill="#2c097d"/>
            <path id="Trazado_7625" data-name="Trazado 7625" d="M37.463,0a2.331,2.331,0,0,0-.951.2,66.821,66.821,0,0,0-22.4,16.776A66.74,66.74,0,0,0,.105,41.2a2.343,2.343,0,0,0,4.477,1.384A62.034,62.034,0,0,1,17.615,20.091a62.124,62.124,0,0,1,20.8-15.607A2.343,2.343,0,0,0,37.463,0" transform="translate(159.224 138.411)" fill="#2c097d"/>
          </g>
        </g>
      </g>
    </g>
    <g id="Grupo_3641" data-name="Grupo 3641" transform="translate(0 277.746)">
      <g id="Grupo_3640" data-name="Grupo 3640" clip-path="url(#clip-path-17)">
        <g id="Grupo_3639" data-name="Grupo 3639">
          <g id="Grupo_3638" data-name="Grupo 3638" clip-path="url(#clip-path-17)">
            <path id="Trazado_7750" data-name="Trazado 7750" d="M13.146,86.608a73.46,73.46,0,1,0,73.46-73.46,73.46,73.46,0,0,0-73.46,73.46" transform="translate(-11.612 -11.614)" fill="#00edfa"/>
            <g id="Grupo_3616" data-name="Grupo 3616" transform="translate(62.419 18.356)" opacity="0.66">
              <g id="Grupo_3615" data-name="Grupo 3615">
                <g id="Grupo_3614" data-name="Grupo 3614" clip-path="url(#clip-path-19)">
                  <path id="Trazado_7751" data-name="Trazado 7751" d="M151.034,163.3c-6.521,9.65,5.355,17.742,23.662,30.114s36.114,24.339,42.635,14.69S214.3,180.6,195.99,168.23s-38.435-14.579-44.956-4.93" transform="translate(-149.227 -157.291)" fill="#fff"/>
                </g>
              </g>
            </g>
            <path id="Trazado_7752" data-name="Trazado 7752" d="M60.522,837.467s-3.293,3.459-9.413,2.374-7.812,3.863-7.031,10.2,7.681,5.468,7.681,5.468" transform="translate(84.343 -739.733)" fill="#4cea57"/>
            <path id="Trazado_7753" data-name="Trazado 7753" d="M25.183,204.061s-14.5,6.417-9.986,19.785,14.5,6.423,15.711,22.916,14.9,13,14.9,13c-.285-21.083-4.987-40.479-20.63-55.7" transform="translate(102.504 -180.247)" fill="#4cea57"/>
            <g id="Grupo_3619" data-name="Grupo 3619" transform="translate(116.831 28.39)" opacity="0.2">
              <g id="Grupo_3618" data-name="Grupo 3618">
                <g id="Grupo_3617" data-name="Grupo 3617" clip-path="url(#clip-path-20)">
                  <path id="Trazado_7754" data-name="Trazado 7754" d="M15.176,258.475c4.511,13.368,14.494,6.424,15.708,22.92S45.793,294.39,45.793,294.39c-.012-1.033-.041-2.06-.076-3.081-4.056.076-11.355-1.459-12.225-13.3-1.22-16.5-11.2-9.552-15.714-22.92a13.828,13.828,0,0,1,.992-11.822c-3.192,3.268-5.923,8.315-3.594,15.206" transform="translate(-14.305 -243.269)" fill="#2c097d"/>
                </g>
              </g>
            </g>
            <path id="Trazado_7755" data-name="Trazado 7755" d="M268.561,961.148c0-4.535.213-15.126,4.466-20.985s3.559-8.507,6.076-14.062,9.288-5.6,15.017-.825,11.718,5.382,16.97,3.819,8.2,3.212,13.107,7.118,2.379,12.57,2.379,12.57l-11.414,6.78s-9.237,4.043-12.405.875-8.27-1.224-10.038,5.681" transform="translate(-208.58 -814.231)" fill="#4cea57"/>
            <g id="Grupo_3622" data-name="Grupo 3622" transform="translate(61.282 107.576)" opacity="0.66">
              <g id="Grupo_3621" data-name="Grupo 3621">
                <g id="Grupo_3620" data-name="Grupo 3620" clip-path="url(#clip-path-21)">
                  <path id="Trazado_7756" data-name="Trazado 7756" d="M268.575,947.68a17.362,17.362,0,0,1,2.212-4.312c4.254-5.858,3.559-8.508,6.074-14.063s9.29-5.6,15.02-.823,11.717,5.38,16.969,3.816,8.2,3.215,13.106,7.119c3.063,2.433,3.227,6.722,2.923,9.6l.408-.245s2.527-8.665-2.375-12.569-7.86-8.683-13.112-7.119-11.238.951-16.969-3.822-12.5-4.732-15.014.823-1.826,8.2-6.08,14.063a21.272,21.272,0,0,0-3.163,7.527" transform="translate(-268.575 -921.799)" fill="#fff"/>
                </g>
              </g>
            </g>
            <g id="Grupo_3625" data-name="Grupo 3625" transform="translate(1.537 33.717)" opacity="0.2">
              <g id="Grupo_3624" data-name="Grupo 3624">
                <g id="Grupo_3623" data-name="Grupo 3623" clip-path="url(#clip-path-22)">
                  <path id="Trazado_7757" data-name="Trazado 7757" d="M14.2,330.2A73.459,73.459,0,0,0,161,334.474,71,71,0,1,1,26.891,288.919,73.126,73.126,0,0,0,14.2,330.2" transform="translate(-14.206 -288.919)" fill="#2c097d"/>
                </g>
              </g>
            </g>
            <path id="Trazado_7758" data-name="Trazado 7758" d="M617.638,56.869c-.766,7.227,7.537,16.441,6.785,28.941s-1.562,26.5,6.944,30.5,11.284-7.234,13.6-18.923,10.185-13.831,14.12-21.643S683.1,70.88,686.227,63.357s-2.72-16.782-9.288-18.518-4.514-4.225-10.532-6.25S654.6,37,655.99,31.79s11.4,1.157,12.963-2.72,7.2-2.431,10.735-5.961-.809-8.34-.809-8.34q-38.648,2.143-61.241,42.1" transform="translate(-609.179 -13.045)" fill="#4cea57"/>
            <g id="Grupo_3628" data-name="Grupo 3628" transform="translate(39.441 45.954)" opacity="0.2">
              <g id="Grupo_3627" data-name="Grupo 3627">
                <g id="Grupo_3626" data-name="Grupo 3626" clip-path="url(#clip-path-23)">
                  <path id="Trazado_7759" data-name="Trazado 7759" d="M631.31,403.449c-3.723,7.4-10.982,9.71-13.707,19.869,3.326-4.826,7.8-7.516,10.468-12.808,3.933-7.813,24.012-4.861,27.139-12.382a11.585,11.585,0,0,0,.864-4.359c-6.308,4.184-21.409,3.017-24.764,9.68" transform="translate(-617.604 -393.769)" fill="#2c097d"/>
                </g>
              </g>
            </g>
            <g id="Grupo_3631" data-name="Grupo 3631" transform="translate(8.407 38.461)" opacity="0.2">
              <g id="Grupo_3630" data-name="Grupo 3630">
                <g id="Grupo_3629" data-name="Grupo 3629" clip-path="url(#clip-path-24)">
                  <path id="Trazado_7760" data-name="Trazado 7760" d="M1005.691,363.874c-.753,12.5-1.564,26.5,6.944,30.494,5.94,2.795,9.091-1.844,11.233-8.881-1.926,2.521-4.47,3.478-7.988,1.821-8.508-3.991-7.7-18-6.95-30.494.694-11.542-6.331-20.277-6.81-27.244q-1.646,2.591-3.215,5.363c-.764,7.23,7.539,16.443,6.786,28.942" transform="translate(-998.855 -329.569)" fill="#2c097d"/>
                </g>
              </g>
            </g>
            <g id="Grupo_3634" data-name="Grupo 3634" transform="translate(43.685 18.867)" opacity="0.66">
              <g id="Grupo_3633" data-name="Grupo 3633">
                <g id="Grupo_3632" data-name="Grupo 3632" clip-path="url(#clip-path-25)">
                  <path id="Trazado_7761" data-name="Trazado 7761" d="M617.8,163.8c-1.389,5.2,4.394,4.773,10.416,6.8s3.962,4.516,10.532,6.249,12.411,10.993,9.284,18.521a4.971,4.971,0,0,1-.654,1.132,6.93,6.93,0,0,0,3.577-3.39c3.122-7.521-2.719-16.782-9.289-18.521s-4.511-4.225-10.532-6.249c-5.969-2.007-11.711-1.593-10.445-6.675A2.85,2.85,0,0,0,617.8,163.8" transform="translate(-617.59 -161.669)" fill="#fff"/>
                </g>
              </g>
            </g>
            <g id="Grupo_3637" data-name="Grupo 3637" transform="translate(15.699 1.537)" opacity="0.66">
              <g id="Grupo_3636" data-name="Grupo 3636">
                <g id="Grupo_3635" data-name="Grupo 3635" clip-path="url(#clip-path-26)">
                  <path id="Trazado_7762" data-name="Trazado 7762" d="M13.154,43.261a73.461,73.461,0,0,1,115,91.249,73.46,73.46,0,1,0-115-91.249" transform="translate(-13.154 -13.169)" fill="#fff"/>
                </g>
              </g>
            </g>
            <path id="Trazado_7763" data-name="Trazado 7763" d="M74.994,149.988A74.994,74.994,0,1,0,0,74.994a75.079,75.079,0,0,0,74.994,74.994m0-146.919A71.925,71.925,0,1,1,3.069,74.994,72.007,72.007,0,0,1,74.994,3.069" fill="#2c097d"/>
            <path id="Trazado_7764" data-name="Trazado 7764" d="M623.534,107.549a6.533,6.533,0,0,0,2.986-.71c4.9-2.476,6.943-10.973,8.772-20.212,1.33-6.717,4.528-10,7.914-13.47a31.2,31.2,0,0,0,6.078-7.8c1.657-3.289,7.392-4.434,12.938-5.542,6.093-1.217,12.393-2.475,14.247-6.938a14.45,14.45,0,0,0-.748-12.056c-2.077-4.2-5.723-7.43-9.515-8.432a8.688,8.688,0,0,1-4.943-2.772,11.808,11.808,0,0,0-5.5-3.45c-1.546-.52-3.079-.885-4.431-1.207-2.289-.545-4.452-1.06-5.016-2-.088-.147-.355-.594-.025-1.829.346-1.3,1.864-1.269,5.362-.7,2.844.462,6.381,1.037,7.545-1.851.541-1.343,1.849-1.757,4.114-2.372a13.075,13.075,0,0,0,6.3-3.1c3.567-3.567,1.065-8.329-.757-10.348A1.459,1.459,0,0,0,666.688,4.7c.138.156,3.363,3.835.863,6.335a10.63,10.63,0,0,1-5,2.35c-2.318.63-4.946,1.344-6.055,4.1-.292.724-2.649.341-4.37.062-3.193-.519-7.566-1.231-8.649,2.828a5.088,5.088,0,0,0,.339,4.077c1.2,2,3.813,2.625,6.845,3.347,1.355.322,2.756.656,4.177,1.134a8.977,8.977,0,0,1,4.329,2.712,11.477,11.477,0,0,0,6.3,3.565c3,.793,5.931,3.439,7.645,6.9a11.587,11.587,0,0,1,.668,9.643c-1.257,3.026-6.781,4.129-12.124,5.2-6.232,1.245-12.676,2.532-14.972,7.091a28.491,28.491,0,0,1-5.562,7.076c-3.534,3.625-7.188,7.372-8.686,14.94-1.617,8.165-3.507,16.294-7.227,18.175a4.776,4.776,0,0,1-4.322-.289c-7.642-3.587-6.827-17.136-6.108-29.089.438-7.282-1.991-13.331-4.135-18.668-1.587-3.95-2.957-7.361-2.655-10.206a1.459,1.459,0,0,0-2.9-.308c-.378,3.567,1.117,7.29,2.849,11.6,2.029,5.052,4.329,10.778,3.93,17.406-.775,12.879-1.653,27.477,7.781,31.905a9.188,9.188,0,0,0,3.891.962" transform="translate(-598.075 -2.005)" fill="#2c097d"/>
            <path id="Trazado_7765" data-name="Trazado 7765" d="M31.819,250.482a14.471,14.471,0,0,0,3.313-.357,1.459,1.459,0,1,0-.722-2.827c-.044.011-4.88,1.173-8.582-1.507-2.633-1.906-4.149-5.332-4.507-10.183-.722-9.8-4.561-12.116-8.273-14.352-2.9-1.749-5.647-3.4-7.512-8.924-4.027-11.926,8.654-17.743,9.2-17.985a1.459,1.459,0,0,0-1.183-2.667c-.157.07-15.661,7.123-10.778,21.585,2.208,6.538,5.694,8.637,8.771,10.49,3.5,2.1,6.257,3.768,6.868,12.067.425,5.765,2.353,9.921,5.733,12.352a13.071,13.071,0,0,0,7.674,2.307" transform="translate(113.546 -169.201)" fill="#2c097d"/>
            <path id="Trazado_7766" data-name="Trazado 7766" d="M39.9,845.965a8.556,8.556,0,0,0,.994-.05,1.459,1.459,0,1,0-.365-2.895c-.553.066-5.471.508-6.051-4.2-.462-3.749.032-6.523,1.391-7.813.879-.833,2.166-1.086,3.937-.772,6.811,1.209,10.568-2.639,10.724-2.8a1.459,1.459,0,0,0-2.106-2.019c-.13.131-2.91,2.871-8.109,1.951-2.707-.481-4.879.034-6.455,1.528-2.078,1.971-2.866,5.528-2.279,10.286a7.269,7.269,0,0,0,2.7,5.065,9.307,9.307,0,0,0,5.617,1.722" transform="translate(95.387 -728.692)" fill="#2c097d"/>
            <path id="Trazado_7767" data-name="Trazado 7767" d="M257.5,951.537a1.459,1.459,0,0,0,1.459-1.459c0-9.528,1.409-16.3,4.187-20.128a26.11,26.11,0,0,0,4.405-9.219,36.6,36.6,0,0,1,1.82-5.1,5.509,5.509,0,0,1,3.846-3.275c2.625-.6,5.954.508,8.908,2.969,6.978,5.815,13.814,5.438,18.32,4.1,3.043-.9,5.089.811,8.443,3.923,1.041.966,2.118,1.965,3.34,2.938,4.092,3.259,1.91,10.944,1.888,11.021a1.459,1.459,0,1,0,2.8.817c.115-.392,2.735-9.655-2.871-14.12-1.136-.9-2.171-1.866-3.173-2.8-3.328-3.088-6.473-6-11.259-4.58-5.481,1.63-10.882.405-15.62-3.542-3.7-3.086-7.868-4.388-11.427-3.572a8.435,8.435,0,0,0-5.852,4.915,39.565,39.565,0,0,0-1.959,5.473,23.368,23.368,0,0,1-3.969,8.334c-3.192,4.4-4.744,11.542-4.744,21.842a1.459,1.459,0,0,0,1.459,1.459" transform="translate(-197.519 -803.161)" fill="#2c097d"/>
            <path id="Trazado_7768" data-name="Trazado 7768" d="M360.9,1203.464a1.459,1.459,0,0,0,1.412-1.1c.816-3.187,2.473-5.41,4.432-5.947a3.13,3.13,0,0,1,3.161.935c3.764,3.765,12.983-.115,14.022-.57a1.459,1.459,0,0,0-1.169-2.673c-2.719,1.186-8.933,3.035-10.79,1.18a6.053,6.053,0,0,0-5.995-1.686c-2.983.817-5.408,3.822-6.487,8.037a1.459,1.459,0,0,0,1.414,1.821" transform="translate(-276.756 -1054.116)" fill="#2c097d"/>
          </g>
        </g>
      </g>
    </g>
    <g id="Grupo_3647" data-name="Grupo 3647" transform="translate(285.651 229)">
      <g id="Grupo_3642" data-name="Grupo 3642" transform="translate(0)" clip-path="url(#clip-path-27)">
        <path id="Trazado_7769" data-name="Trazado 7769" d="M24.178,9.229,20,1.6a3.067,3.067,0,0,0-5.382,0L10.447,9.229a3.069,3.069,0,0,1-1.219,1.22L1.6,14.622a3.068,3.068,0,0,0,0,5.383l7.633,4.174a3.069,3.069,0,0,1,1.219,1.22l4.175,7.633a3.067,3.067,0,0,0,5.382,0L24.178,25.4a3.067,3.067,0,0,1,1.22-1.22l7.633-4.174a3.068,3.068,0,0,0,0-5.383L25.4,10.448a3.067,3.067,0,0,1-1.22-1.22" transform="translate(0.001 0)" fill="#fff"/>
      </g>
    </g>
    <g id="Grupo_3649" data-name="Grupo 3649" transform="translate(69.278 487.58)">
      <g id="Grupo_3642-2" data-name="Grupo 3642" clip-path="url(#clip-path-28)">
        <path id="Trazado_7769-2" data-name="Trazado 7769" d="M20.948,8,17.331,1.383a2.658,2.658,0,0,0-4.663,0L9.051,8A2.659,2.659,0,0,1,7.995,9.052L1.382,12.669a2.658,2.658,0,0,0,0,4.664l6.613,3.616a2.659,2.659,0,0,1,1.056,1.057l3.617,6.613a2.658,2.658,0,0,0,4.663,0l3.617-6.613A2.657,2.657,0,0,1,22,20.949l6.613-3.616a2.658,2.658,0,0,0,0-4.664L22,9.052A2.657,2.657,0,0,1,20.948,8" transform="translate(0.001 0)" fill="#fff"/>
      </g>
    </g>
    <g id="Grupo_3650" data-name="Grupo 3650" transform="translate(320.278)">
      <g id="Grupo_3642-3" data-name="Grupo 3642" clip-path="url(#clip-path-28)">
        <path id="Trazado_7769-3" data-name="Trazado 7769" d="M20.948,8,17.331,1.383a2.658,2.658,0,0,0-4.663,0L9.051,8A2.659,2.659,0,0,1,7.995,9.052L1.382,12.669a2.658,2.658,0,0,0,0,4.664l6.613,3.616a2.659,2.659,0,0,1,1.056,1.057l3.617,6.613a2.658,2.658,0,0,0,4.663,0l3.617-6.613A2.657,2.657,0,0,1,22,20.949l6.613-3.616a2.658,2.658,0,0,0,0-4.664L22,9.052A2.657,2.657,0,0,1,20.948,8" transform="translate(0.001 0)" fill="#fff"/>
      </g>
    </g>
    <g id="Grupo_3648" data-name="Grupo 3648" transform="translate(90.621 15)">
      <g id="Grupo_3642-4" data-name="Grupo 3642" transform="translate(0)" clip-path="url(#clip-path-30)">
        <path id="Trazado_7769-4" data-name="Trazado 7769" d="M12.089,4.615,10,.8A1.534,1.534,0,0,0,7.311.8L5.223,4.615a1.534,1.534,0,0,1-.61.61L.8,7.312A1.534,1.534,0,0,0,.8,10L4.614,12.09a1.534,1.534,0,0,1,.61.61l2.087,3.816a1.534,1.534,0,0,0,2.691,0L12.089,12.7a1.534,1.534,0,0,1,.61-.61L16.515,10a1.534,1.534,0,0,0,0-2.691L12.7,5.224a1.534,1.534,0,0,1-.61-.61" transform="translate(0.001 0)" fill="#fff"/>
      </g>
    </g>
  </g>
</svg>
