<svg id="_08" data-name="08" xmlns="http://www.w3.org/2000/svg" xmlns:xlink="http://www.w3.org/1999/xlink" width="295.746" height="326.119" viewBox="0 0 295.746 326.119">
  <defs>
    <clipPath id="clip-path">
      <rect id="Rectángulo_683" data-name="Rectángulo 683" width="295.746" height="326.119" fill="none"/>
    </clipPath>
    <clipPath id="clip-path-3">
      <rect id="Rectángulo_672" data-name="Rectángulo 672" width="68.362" height="75.511" fill="none"/>
    </clipPath>
    <clipPath id="clip-path-4">
      <rect id="Rectángulo_673" data-name="Rectángulo 673" width="48.148" height="104.371" fill="none"/>
    </clipPath>
    <clipPath id="clip-path-5">
      <rect id="Rectángulo_674" data-name="Rectángulo 674" width="104.491" height="139.33" fill="none"/>
    </clipPath>
    <clipPath id="clip-path-6">
      <rect id="Rectángulo_675" data-name="Rectángulo 675" width="172.642" height="77.735" fill="none"/>
    </clipPath>
    <clipPath id="clip-path-7">
      <rect id="Rectángulo_676" data-name="Rectángulo 676" width="57.454" height="27.72" fill="none"/>
    </clipPath>
    <clipPath id="clip-path-8">
      <rect id="Rectángulo_677" data-name="Rectángulo 677" width="43.966" height="52.572" fill="none"/>
    </clipPath>
    <clipPath id="clip-path-9">
      <rect id="Rectángulo_678" data-name="Rectángulo 678" width="147.244" height="142.399" fill="none"/>
    </clipPath>
    <clipPath id="clip-path-10">
      <rect id="Rectángulo_679" data-name="Rectángulo 679" width="59.648" height="42.887" fill="none"/>
    </clipPath>
    <clipPath id="clip-path-11">
      <rect id="Rectángulo_680" data-name="Rectángulo 680" width="87.271" height="32.082" fill="none"/>
    </clipPath>
    <clipPath id="clip-path-12">
      <rect id="Rectángulo_681" data-name="Rectángulo 681" width="44.454" height="38.991" fill="none"/>
    </clipPath>
  </defs>
  <g id="Grupo_4144" data-name="Grupo 4144" clip-path="url(#clip-path)">
    <g id="Grupo_4143" data-name="Grupo 4143">
      <g id="Grupo_4142" data-name="Grupo 4142" clip-path="url(#clip-path)">
        <path id="Trazado_8227" data-name="Trazado 8227" d="M70,215.181s15.248-15.986,31.7-13.275,73.668,60.767,73.668,60.767,3.74,27.766-24.493,33.469S65.8,235.825,65.8,235.825Z" transform="translate(95.399 -125.581)" fill="#fff"/>
        <path id="Trazado_8228" data-name="Trazado 8228" d="M142.786,294.623a20.435,20.435,0,0,0,4.057-.389c30.478-6.156,26.778-36.315,26.737-36.618a2.832,2.832,0,0,0-.789-1.607c-5.922-6.009-58.348-58.792-75.223-61.572C79.841,191.5,64.025,207.853,63.361,208.55a2.817,2.817,0,0,0-.725,1.387l-4.207,20.644a2.828,2.828,0,0,0,.628,2.41c2.261,2.626,53.436,61.632,83.729,61.632m25.274-35.356c.335,4.591.476,24.815-22.337,29.423-21.447,4.328-65.184-39.671-81.474-58.345l3.757-18.438c2.777-2.666,15.535-14.043,28.643-11.891,12.567,2.071,55.118,42.788,71.411,59.251" transform="translate(99.996 -120.901)" fill="#2c097d"/>
        <path id="Trazado_8229" data-name="Trazado 8229" d="M13.6,377.283a51.522,51.522,0,0,0,4.94,12.01c9.446,16.836,32.069,5.9,32.069,5.9,22.567-15.12,29.411-33.144,31.353-40.535a28.847,28.847,0,0,0,.716-3.412l13.178,5.618c-22.134,47.416-9.823,66.948,10.577,79.919-6.618,6.617-7.9,13.914-5.939,19.57,2.47,7.051,10.049,11.557,18.684,8.9,15.573-4.77,25.452-20.965,28.959-34.766,3.507-13.82-12.255-21.455-15.629-28.9-3.356-7.428,6.165-17.157,6.165-17.157l4.77-2.7a41.782,41.782,0,0,0,3.676,5.26c.019.019.038.057.057.075,13.48,16.478,33.672,14.856,33.672,14.856a23.015,23.015,0,0,0,5.713,9.841c9.823,9.86,27.356,7.013,34.294-13.687,8.691-25.942-.7-35.9-15.139-40.516-14.442-4.638-16.836-11.915-16.836-11.915,5.675-26.923-1.735-43.193-12.2-53.016-14.4-13.537-34.634-14.856-34.634-14.856,8.88-.735,34.52,2.149,48.83,8.654h.019a33.338,33.338,0,0,1,4.864,2.7c12.33,8.409,31.127-4.619,32.8-16.553,1.678-11.915,3.224-38.555-47.963-40.327s-77.091,17.477-77.091,17.477L56.511,307l-4.393,5.354a87.166,87.166,0,0,1-22.171,45.531c-15.912-3.639-19.664,6.787-16.346,19.4" transform="translate(61.883 -144.601)" fill="#fff"/>
        <g id="Grupo_4114" data-name="Grupo 4114" transform="translate(75.484 178.573)" opacity="0.2">
          <g id="Grupo_4113" data-name="Grupo 4113" transform="translate(0)">
            <g id="Grupo_4112" data-name="Grupo 4112" transform="translate(0)" clip-path="url(#clip-path-3)">
              <path id="Trazado_8230" data-name="Trazado 8230" d="M402.848,527.694a51.523,51.523,0,0,0,4.94,12.01c9.445,16.836,32.069,5.9,32.069,5.9,22.567-15.12,29.411-33.144,31.353-40.535l-10.86-31.485a57.677,57.677,0,0,1-8.333,42.759c-13.933,21.116-19.193,5.222-19.193,5.222l-6.2-5.788s9.332,11.878-2.319,19.061c-9.427,5.826-18.382-3.412-21.455-7.145" transform="translate(-402.848 -473.585)" fill="#2c097d"/>
            </g>
          </g>
        </g>
        <g id="Grupo_4117" data-name="Grupo 4117" transform="translate(162.379 217.053)" opacity="0.2">
          <g id="Grupo_4116" data-name="Grupo 4116">
            <g id="Grupo_4115" data-name="Grupo 4115" clip-path="url(#clip-path-4)">
              <path id="Trazado_8231" data-name="Trazado 8231" d="M226.007,670.335c2.47,7.051,10.049,11.557,18.684,8.9,15.573-4.77,25.452-20.965,28.959-34.765,3.507-13.82-12.255-21.455-15.629-28.9-3.356-7.428,6.165-17.157,6.165-17.157l4.77-2.7a41.778,41.778,0,0,0,3.676,5.26c-2.809-4.412-8.446-12.443-8.446-12.443l-1.584-12.9s-6.259,19.513-25.433,17.081c0,0-3.9,10.087,8.05,24.962,11.953,14.856,17.288,29.92,6.448,43.381-8.3,10.294-20.418,9.974-25.659,9.276" transform="translate(-226.007 -575.635)" fill="#2c097d"/>
            </g>
          </g>
        </g>
        <g id="Grupo_4120" data-name="Grupo 4120" transform="translate(181.59 133.304)" opacity="0.2">
          <g id="Grupo_4119" data-name="Grupo 4119" transform="translate(0)">
            <g id="Grupo_4118" data-name="Grupo 4118" clip-path="url(#clip-path-5)">
              <path id="Trazado_8232" data-name="Trazado 8232" d="M25.632,357.7S43.2,359.564,51.2,364.051s26.64,20.757,23,46.436c-3.658,25.678,33.936,31.674,38.989,50.923,3.544,13.518-11.463,22.077-20.7,25.98,9.823,9.86,27.356,7.013,34.294-13.688,8.691-25.942-.7-35.9-15.139-40.516C97.2,428.548,94.8,421.271,94.8,421.271c5.675-26.923-1.735-43.193-12.2-53.016A332.638,332.638,0,0,0,51.2,355.077c-13.612-4.638-25.565,2.621-25.565,2.621" transform="translate(-25.632 -353.528)" fill="#2c097d"/>
            </g>
          </g>
        </g>
        <g id="Grupo_4123" data-name="Grupo 4123" transform="translate(118.394 87.528)" opacity="0.2">
          <g id="Grupo_4122" data-name="Grupo 4122">
            <g id="Grupo_4121" data-name="Grupo 4121" clip-path="url(#clip-path-6)">
              <path id="Trazado_8233" data-name="Trazado 8233" d="M12.491,307l4.77,2.866c24.924-6.58,44.023-21.644,54.052-49.9,0,0,55.466-28.337,84.35-7.862s-10.105,31.692-10.105,31.692.471.98,1.3,2.639h.019a33.338,33.338,0,0,1,4.864,2.7c12.33,8.409,31.127-4.619,32.8-16.553,1.678-11.915,3.224-38.555-47.963-40.327s-77.091,17.477-77.091,17.477Z" transform="translate(-12.491 -232.129)" fill="#2c097d"/>
            </g>
          </g>
        </g>
        <path id="Trazado_8234" data-name="Trazado 8234" d="M109.6,464.157a19.61,19.61,0,0,0,5.748-.876c17.233-5.278,27.4-23.115,30.871-36.785,2.759-10.873-4.756-18.492-10.242-24.056-2.4-2.438-4.674-4.74-5.559-6.694-2.016-4.455,2.954-11.166,5.353-13.736l2.058-1.17c11.725,17.446,29.987,19.219,36.34,19.277,3.523,9.2,11.258,15.122,20.2,15.268.1,0,.2,0,.307,0,8.338,0,18.975-5.524,24.19-21.084,4.384-13.08,4.647-23.127.805-30.716-3.135-6.192-8.948-10.576-17.77-13.4-10.459-3.352-13.849-7.989-14.734-9.56,4.061-20.145,1.374-36.61-7.99-48.948a50.34,50.34,0,0,0-15.907-13.533c10.1,1.807,20.4,4.674,26.218,8.639,5.653,3.854,13.137,4.19,20.537.92,8.748-3.865,15.6-11.847,16.67-19.409,1.071-7.586,1.592-18.748-6.219-28.06-8-9.54-22.954-14.755-44.443-15.5-51.568-1.771-77.784,17.227-78.874,18.037a2.857,2.857,0,0,0-.5.476L45.254,305.884a2.827,2.827,0,0,0-.6,1.335A83.747,83.747,0,0,1,24.259,350.11c-9.35-1.684-14.051,1.531-16.368,4.629C3.024,361.245,4.406,373.517,11.412,386c8.5,15.146,27.111,11.235,35.763,7.053a2.882,2.882,0,0,0,.343-.2c23.547-15.773,30.582-34.549,32.569-42.331l7.32,3.115c-21.25,47.276-7.628,66.835,10.055,79.019-7.007,8.723-6.035,17.763-2.774,23.186a17.157,17.157,0,0,0,14.909,8.31m29.177-89.939a2.817,2.817,0,0,0-1.395.369l-4.768,2.711a2.816,2.816,0,0,0-.621.479c-.445.454-10.844,11.209-6.727,20.3,1.3,2.874,3.915,5.525,6.684,8.332,5.291,5.365,10.761,10.912,8.787,18.693-3.109,12.248-12.057,28.179-27.045,32.77-5.735,1.757-11.293-.183-14.153-4.94-2.65-4.409-2.934-11.669,4.22-18.824a2.826,2.826,0,0,0-.48-4.385c-18.084-11.516-31.753-28.735-9.522-76.35a2.828,2.828,0,0,0-1.455-3.8l-13.179-5.609a2.829,2.829,0,0,0-3.916,2.27c-.028.224-3.2,23.323-30.656,41.8-2.09.964-20.482,8.952-28.2-4.806C10.615,373.022,9,362.7,12.42,358.126c2.618-3.5,8.1-3.11,12.232-2.163a2.828,2.828,0,0,0,2.722-.854A90.641,90.641,0,0,0,50.1,308.891l50.688-61.759c2.811-1.926,28.268-18.348,75.05-16.745,19.816.688,33.377,5.223,40.3,13.482,6.289,7.5,5.95,16.569,4.952,23.636-.8,5.638-6.413,11.957-13.356,15.025-3.273,1.448-9.583,3.315-15.065-.42-13.123-8.949-45.418-12.664-55.532-11.841a2.828,2.828,0,0,0,.043,5.641c.242.017,24.346,1.832,37.512,19.223,8.447,11.157,10.716,26.38,6.745,45.244a2.831,2.831,0,0,0,.079,1.461c.29.888,3.276,8.808,18.653,13.735,7.408,2.373,12,5.732,14.448,10.571,3.08,6.082,2.7,14.953-1.122,26.363-3.622,10.807-10.632,17.225-18.787,17.225l-.255,0c-7.082-.116-13.2-5.338-15.58-13.3a2.846,2.846,0,0,0-2.937-2.009c-.925.077-22.739,1.492-34.732-18.812a2.826,2.826,0,0,0-2.438-1.39" transform="translate(66.554 -139.922)" fill="#2c097d"/>
        <path id="Trazado_8235" data-name="Trazado 8235" d="M270.919,464.547a10.207,10.207,0,0,0,.3,3.28c1.848,6.938,5.9,17.194,14.5,22.888a9.721,9.721,0,0,0,8.522,1c6.881-2.338,20.889-7.975,31.089-17.8a9.909,9.909,0,0,0,2.979-7.975,9.786,9.786,0,0,0-.471-2.3c-2.093-6.278-6.618-16.289-15.592-23.284a9.937,9.937,0,0,0-11.632-.32l-25.263,16.949a9.97,9.97,0,0,0-4.431,7.56" transform="translate(-134.746 -273.04)" fill="#fff"/>
        <g id="Grupo_4126" data-name="Grupo 4126" transform="translate(136.148 191.506)" opacity="0.2">
          <g id="Grupo_4125" data-name="Grupo 4125" transform="translate(0)">
            <g id="Grupo_4124" data-name="Grupo 4124" transform="translate(0)" clip-path="url(#clip-path-7)">
              <path id="Trazado_8236" data-name="Trazado 8236" d="M270.919,507.885a10.207,10.207,0,0,0,.3,3.28c1.848,6.938,5.9,17.194,14.5,22.888a9.72,9.72,0,0,0,8.522,1c6.881-2.338,20.889-7.975,31.089-17.8a9.909,9.909,0,0,0,2.979-7.975c-33.125,24.547-51.7,6.184-57.39-1.4" transform="translate(-270.894 -507.885)" fill="#2c097d"/>
            </g>
          </g>
        </g>
        <path id="Trazado_8237" data-name="Trazado 8237" d="M286.31,490.389a12.952,12.952,0,0,0,4.159-.687c7.511-2.554,21.674-8.346,32.144-18.446a12.807,12.807,0,0,0,3.237-13.212c-2.416-7.227-7.248-17.365-16.545-24.615a12.714,12.714,0,0,0-14.941-.443L269.09,449.94a12.824,12.824,0,0,0-5.273,13.922c2.072,7.829,6.472,18.436,15.663,24.513a12.4,12.4,0,0,0,6.83,2.014m15.262-53.953a6.892,6.892,0,0,1,4.255,1.454c8.186,6.383,12.49,15.458,14.658,21.948a7.121,7.121,0,0,1-1.8,7.348c-9.678,9.337-22.974,14.76-30.038,17.16a6.964,6.964,0,0,1-6.049-.69c-7.706-5.094-11.495-14.364-13.314-21.242a7.167,7.167,0,0,1,2.955-7.777l25.276-16.953a7.283,7.283,0,0,1,4.057-1.247m21.6,22.505h0Z" transform="translate(-130.071 -268.345)" fill="#2c097d"/>
        <path id="Trazado_8238" data-name="Trazado 8238" d="M314.844,490.7a2.809,2.809,0,0,0,1.626-.517l2.207-1.555a7.956,7.956,0,0,0,2.727-9.561,81.231,81.231,0,0,0-21.575-29.11,7.932,7.932,0,0,0-9.541-.564l-2.3,1.542a2.828,2.828,0,0,0,3.15,4.7l2.3-1.543a2.221,2.221,0,0,1,2.714.164A75.448,75.448,0,0,1,316.2,481.273a2.269,2.269,0,0,1-.778,2.728l-2.207,1.556a2.828,2.828,0,0,0,1.631,5.139" transform="translate(-134.396 -279.11)" fill="#2c097d"/>
        <path id="Trazado_8239" data-name="Trazado 8239" d="M358.84,509.255a1.886,1.886,0,0,0,1.649-2.8l-9.384-17,4.515-4.638a3.639,3.639,0,0,0,.48-4.343l-8.022-13.5a1.886,1.886,0,1,0-3.242,1.926l8.023,13.5-4.516,4.635a3.614,3.614,0,0,0-.538,4.241l9.384,17.006a1.884,1.884,0,0,0,1.652.974" transform="translate(-194.903 -290.319)" fill="#2c097d"/>
        <path id="Trazado_8240" data-name="Trazado 8240" d="M388.658,507.153c2.818,0,5.11-2.671,5.11-5.952s-2.292-5.952-5.11-5.952-5.111,2.67-5.111,5.952,2.293,5.952,5.111,5.952m0-8.133c.632,0,1.339.932,1.339,2.181s-.707,2.182-1.339,2.182-1.34-.934-1.34-2.182.708-2.181,1.34-2.181" transform="translate(-242.644 -308.507)" fill="#2c097d"/>
        <path id="Trazado_8241" data-name="Trazado 8241" d="M193.95,399.256c1.791,2.244,4.94,4.525,10.388,6.127,14.536-13.706,26.753-29.185,33.578-48.792,0,0-7.07-4.638-19.551-3.639a35.811,35.811,0,0,1-1.565,5.09c-2.658,7.221-9.408,20.908-24.943,33.05a9.551,9.551,0,0,0,2.093,8.163" transform="translate(-14.434 -219.778)" fill="#fff"/>
        <g id="Grupo_4129" data-name="Grupo 4129" transform="translate(179.516 133.033)" opacity="0.2">
          <g id="Grupo_4128" data-name="Grupo 4128">
            <g id="Grupo_4127" data-name="Grupo 4127" clip-path="url(#clip-path-8)">
              <path id="Trazado_8242" data-name="Trazado 8242" d="M191.648,399.256c1.791,2.244,4.94,4.525,10.388,6.127,14.536-13.706,26.753-29.185,33.578-48.792,0,0-7.07-4.638-19.551-3.639a35.812,35.812,0,0,1-1.565,5.09c4.449,2.658,8.9,7.9,4.657,17.7-7.3,16.836-27.507,23.51-27.507,23.51" transform="translate(-191.648 -352.811)" fill="#2c097d"/>
            </g>
          </g>
        </g>
        <path id="Trazado_8243" data-name="Trazado 8243" d="M199.605,403.542a2.831,2.831,0,0,0,1.94-.77c17.171-16.183,28.074-32.048,34.315-49.928a2.828,2.828,0,0,0-1.122-3.3c-.322-.21-8.046-5.133-21.331-4.1a2.829,2.829,0,0,0-2.551,2.262c-.066.313-4.346,19.983-25.47,36.471a2.832,2.832,0,0,0-.972,1.43c-.037.124-3.468,12.515,14.388,17.815a2.849,2.849,0,0,0,.8.117m30.068-50.23c-5.9,15.638-15.755,29.772-30.8,44.195-8.622-3.027-9.277-7.654-9.144-9.551,18.285-14.631,24.429-31.141,26.121-36.978a33.318,33.318,0,0,1,13.822,2.334" transform="translate(-9.699 -215.101)" fill="#2c097d"/>
        <path id="Trazado_8244" data-name="Trazado 8244" d="M241.562,586.818c-3.862-6.286-6.414-13.958-5.809-21.427a1.615,1.615,0,0,0-3.2-.365,32.069,32.069,0,0,0-.514,6.324,44.283,44.283,0,0,0,4.658,18.346,2.834,2.834,0,1,0,4.869-2.879" transform="translate(-33.796 -351.134)" fill="#2c097d"/>
        <path id="Trazado_8245" data-name="Trazado 8245" d="M119.161,521.945c-1.849-1.966-13.971-14.308-15.856-10.008a1.617,1.617,0,0,0,.66,1.987c3.178,1.942,5.989,5.3,8.394,8.321,1.659,1.932,3.235,5.919,6.318,3.969a2.842,2.842,0,0,0,.484-4.27" transform="translate(136.926 -318.34)" fill="#2c097d"/>
        <path id="Trazado_8246" data-name="Trazado 8246" d="M262.383,628.565a26.52,26.52,0,0,1-15.934,1.162,1.617,1.617,0,0,0-1.1,3.038,25.111,25.111,0,0,0,4.55,1.437,32.891,32.891,0,0,0,14.293-.276,2.837,2.837,0,1,0-1.805-5.36" transform="translate(-62.722 -391.411)" fill="#2c097d"/>
        <path id="Trazado_8247" data-name="Trazado 8247" d="M498.381,563.418c6.434,2.977,13.312,8.485,14.032,16.034.379,2.489-.375,5.04-1.127,7.522a1.611,1.611,0,0,0,3.037,1.058c4.313-8.663.9-18.582-6.251-24.58a36.444,36.444,0,0,0-7.331-5.174,2.832,2.832,0,1,0-2.359,5.139" transform="translate(-407.724 -347.564)" fill="#2c097d"/>
        <path id="Trazado_8248" data-name="Trazado 8248" d="M254.606,345.684a46.268,46.268,0,0,0-18.086,2.956,1.618,1.618,0,0,0,.976,3.078,42.059,42.059,0,0,1,16.485-.41,2.834,2.834,0,1,0,.625-5.624" transform="translate(-50.346 -215.328)" fill="#2c097d"/>
        <path id="Trazado_8249" data-name="Trazado 8249" d="M420.936,470.124c-3.112-3.327-6.248-6.749-9.065-10.268a1.621,1.621,0,0,0-2.71,1.763c2.283,4.173,4.775,8.075,7.341,12.017,2.327,3.352,7.166-.475,4.434-3.512" transform="translate(-280.21 -286.064)" fill="#2c097d"/>
        <path id="Trazado_8250" data-name="Trazado 8250" d="M448.5,548.545a2.83,2.83,0,0,0,2.724-3.589c-.074-.261-7.659-26.119-36.67-29.1a2.828,2.828,0,0,0-.578,5.627,36.652,36.652,0,0,1,31.8,25.008,2.834,2.834,0,0,0,2.72,2.054" transform="translate(-310.724 -321.335)" fill="#2c097d"/>
        <path id="Trazado_8251" data-name="Trazado 8251" d="M94.785,594.165a2.83,2.83,0,0,0,.6-.064c30.093-6.467,40.944-42.806,41.391-44.351a2.828,2.828,0,0,0-5.432-1.576c-.1.346-10.383,34.645-37.149,40.4a2.828,2.828,0,0,0,.592,5.593" transform="translate(124.185 -340.205)" fill="#2c097d"/>
        <path id="Trazado_8252" data-name="Trazado 8252" d="M264.119,683.879a2.826,2.826,0,0,0,2.484-1.472c11.131-20.349,43.037-8.911,43.357-8.792a2.828,2.828,0,0,0,1.956-5.307c-1.5-.553-36.8-13.243-50.275,11.386a2.83,2.83,0,0,0,2.478,4.186" transform="translate(-116.543 -413.971)" fill="#2c097d"/>
        <path id="Trazado_8253" data-name="Trazado 8253" d="M163.083,275.717a2.831,2.831,0,0,0,2.649-3.82c-10.123-27.051,7.228-42.143,7.405-42.292a2.828,2.828,0,0,0-3.653-4.317c-.207.175-20.553,17.856-9.049,48.593a2.829,2.829,0,0,0,2.649,1.837" transform="translate(62.441 -139.922)" fill="#2c097d"/>
        <path id="Trazado_8254" data-name="Trazado 8254" d="M331.99,95.425A82.925,82.925,0,1,0,414.915,12.5,82.925,82.925,0,0,0,331.99,95.425" transform="translate(-327.276 -7.787)" fill="#fff"/>
        <g id="Grupo_4132" data-name="Grupo 4132" transform="translate(23.317 28.161)" opacity="0.2">
          <g id="Grupo_4131" data-name="Grupo 4131" transform="translate(0)">
            <g id="Grupo_4130" data-name="Grupo 4130" transform="translate(0)" clip-path="url(#clip-path-9)">
              <path id="Trazado_8255" data-name="Trazado 8255" d="M332,186.5A82.922,82.922,0,1,0,454.092,74.685,82.926,82.926,0,0,1,332,186.5" transform="translate(-331.998 -74.685)" fill="#2c097d"/>
            </g>
          </g>
        </g>
        <path id="Trazado_8256" data-name="Trazado 8256" d="M382.409,154.076c.719-43.449,48.376-71.844,112.209-56.765l27.325,29.965c19.212,37.96-5.35,83.271-29.822,96.782-51.866,9.878-93.184-3.142-109.712-69.981" transform="translate(-377.278 -58.074)" fill="#2c097d"/>
        <path id="Trazado_8257" data-name="Trazado 8257" d="M410.243,176.506a85.753,85.753,0,1,0-85.754-85.753,85.851,85.851,0,0,0,85.754,85.753m0-165.85a80.1,80.1,0,1,1-80.1,80.1,80.188,80.188,0,0,1,80.1-80.1" transform="translate(-322.604 -3.115)" fill="#2c097d"/>
        <path id="Trazado_8258" data-name="Trazado 8258" d="M489.187,222.823a1.88,1.88,0,0,0,.909-.235c25.154-13.888,50.186-60.569,30.592-99.284a1.867,1.867,0,0,0-.289-.419L493.075,92.921a1.886,1.886,0,0,0-.959-.564c-36.253-8.564-69.608-3.705-91.508,13.332-14.549,11.317-22.724,27.383-23.02,45.237a1.886,1.886,0,0,0,3.771.063c.276-16.69,7.934-31.721,21.564-42.323,20.881-16.246,52.84-20.888,87.761-12.771l26.757,29.341c18.392,36.719-5.328,80.892-29.166,94.052a1.885,1.885,0,0,0,.913,3.536" transform="translate(-374.341 -54.954)" fill="#2c097d"/>
        <path id="Trazado_8259" data-name="Trazado 8259" d="M474.193,99.167a2.823,2.823,0,0,0,2.249-1.111c37.879-49.6,99.1-25.455,101.692-24.4a2.828,2.828,0,0,0,2.136-5.237c-.674-.275-67.794-26.859-108.322,26.207a2.828,2.828,0,0,0,2.245,4.545" transform="translate(-464.019 -38.32)" fill="#2c097d"/>
        <path id="Trazado_8260" data-name="Trazado 8260" d="M375.795,74.748,369.4,80.7a13.962,13.962,0,0,1-11.27,3.709c-13.773-1.8-31.2-16.52-36.2-36.377a11.418,11.418,0,0,1,2.135-9.826c3.06-3.889,6.961-9.105,6.961-9.105,14.958-14.958,46.276,10.4,49.97,30.846a16.417,16.417,0,0,1-5.194,14.8" transform="translate(-206.74 -15.32)" fill="#fff"/>
        <g id="Grupo_4135" data-name="Grupo 4135" transform="translate(114.845 26.314)" opacity="0.2">
          <g id="Grupo_4134" data-name="Grupo 4134">
            <g id="Grupo_4133" data-name="Grupo 4133" clip-path="url(#clip-path-10)">
              <path id="Trazado_8261" data-name="Trazado 8261" d="M321.914,76.176c5,19.871,22.417,34.6,36.2,36.387a13.99,13.99,0,0,0,11.274-3.714l6.391-5.958a16.441,16.441,0,0,0,5.2-14.8,25.082,25.082,0,0,0-.9-3.544,16.931,16.931,0,0,1-5,8.541l-6.391,5.958a13.977,13.977,0,0,1-11.274,3.7C344.444,101.063,328.23,87.9,322.2,69.785a11.013,11.013,0,0,0-.283,6.391" transform="translate(-321.571 -69.785)" fill="#2c097d"/>
            </g>
          </g>
        </g>
        <path id="Trazado_8262" data-name="Trazado 8262" d="M352.024,39.132c-9.678-2.3-14.585,5.587-11.729,14.313,3.98,11.294,13.388,20.389,24.994,23.135,13.105,2.2,15.62-9.938,9.673-19.13a2.024,2.024,0,0,0-3.586,1.856c4.254,9.081,1.5,15.268-8.895,10.669C354.768,66.7,341.747,53.8,345.262,45.041c.849-1.636,3.335-2.265,6.058-1.931a2.022,2.022,0,0,0,.7-3.978" transform="translate(-210.272 -24.125)" fill="#2c097d"/>
        <path id="Trazado_8263" data-name="Trazado 8263" d="M355.178,82.7a16.822,16.822,0,0,0,11.456-4.58l6.4-5.954A19.112,19.112,0,0,0,379.083,54.8c-2.638-14.608-18.313-31.6-33.542-36.37-8.435-2.644-15.972-1.212-21.21,4.027a2.874,2.874,0,0,0-.265.306c-.039.052-3.916,5.233-6.919,9.051a14.317,14.317,0,0,0-2.655,12.266c5.388,21.371,24.221,36.618,38.581,38.49a16.186,16.186,0,0,0,2.105.137m14-14.675-6.4,5.954a11.108,11.108,0,0,1-8.978,2.975c-12.525-1.633-29.02-15.2-33.827-34.265a8.626,8.626,0,0,1,1.615-7.386c2.736-3.478,6.175-8.055,6.876-8.99,3.772-3.668,8.944-4.509,15.385-2.493C357.1,27.971,371.243,43.213,373.517,55.8a13.664,13.664,0,0,1-4.337,12.226" transform="translate(-202.052 -10.671)" fill="#2c097d"/>
        <g id="Grupo_4138" data-name="Grupo 4138" transform="translate(28.627 47.569)" opacity="0.31">
          <g id="Grupo_4137" data-name="Grupo 4137">
            <g id="Grupo_4136" data-name="Grupo 4136" clip-path="url(#clip-path-11)">
              <path id="Trazado_8264" data-name="Trazado 8264" d="M555.959,129.515c7.795,2.593,10.953,12.349,5.67,18.64q-.407.484-.882.96c-7.619,7.619-50.2-4.207-70.209,6.731s-19.716-18.774,13.234-26.229c26.789-6.061,43.82-2.886,52.187-.1" transform="translate(-476.969 -126.155)" fill="#fffffd"/>
            </g>
          </g>
        </g>
        <g id="Grupo_4141" data-name="Grupo 4141" transform="translate(81.045 115.351)" opacity="0.31">
          <g id="Grupo_4140" data-name="Grupo 4140">
            <g id="Grupo_4139" data-name="Grupo 4139" clip-path="url(#clip-path-12)">
              <path id="Trazado_8265" data-name="Trazado 8265" d="M491.655,308.212s10.284,6.825-.935,21.689-32.627,18.978-38.143,11.031,11.873-12.527,16.267-20.006,15.285-20.24,22.811-12.714" transform="translate(-451.507 -305.918)" fill="#fffffd"/>
            </g>
          </g>
        </g>
        <path id="Trazado_8266" data-name="Trazado 8266" d="M258.787,200.844c-7.352-.986-14.46,2.82-18.826,8.515-.811,1.333-3.058,3.19-1.27,4.608,1.793,1.145,2.836-1.309,3.944-2.3,3.74-3.922,9.5-6.544,14.889-5.313a2.834,2.834,0,1,0,1.263-5.513" transform="translate(-55.183 -125.016)" fill="#2c097d"/>
        <path id="Trazado_8267" data-name="Trazado 8267" d="M87.638,1.885A85.88,85.88,0,0,0,7.684,56.7a2.826,2.826,0,0,0-.25.636A85.709,85.709,0,0,0,110.619,170.241,83.6,83.6,0,0,1,90.813,210.19a27.285,27.285,0,0,0-4.865-.468c-6.191,0-9.628,2.587-11.5,5.095-4.867,6.506-3.485,18.778,3.52,31.264C82.575,254.3,90.159,256.9,97.517,256.9a39.1,39.1,0,0,0,16.211-3.771,2.764,2.764,0,0,0,.343-.2c18.984-12.718,27.227-27.377,30.754-36.663a29.726,29.726,0,0,0,4.583,3.756,11.923,11.923,0,0,0,1.529.851c-16.772,42.118-3.681,60.308,13.079,71.857-7.007,8.723-6.036,17.763-2.776,23.187a17.158,17.158,0,0,0,14.91,8.309,19.668,19.668,0,0,0,5.748-.874c17.234-5.28,27.4-23.118,30.87-36.786,2.76-10.872-4.756-18.492-10.243-24.058-2.4-2.436-4.673-4.739-5.558-6.693-2.016-4.454,2.955-11.167,5.354-13.735l2.057-1.171c11.726,17.451,29.987,19.22,36.341,19.277,3.522,9.2,11.257,15.121,20.2,15.269.1,0,.207,0,.312,0,8.314,0,18.973-5.526,24.187-21.082,4.384-13.081,4.647-23.13.8-30.718-3.135-6.192-8.948-10.575-17.768-13.4-10.316-3.3-13.8-7.972-14.729-9.585q3.317-16.476.609-29.588c11.9-4.885,16.588-14.239,18.367-21.964a27.236,27.236,0,0,0,3.878-1.345c8.748-3.866,15.6-11.847,16.671-19.41,1.071-7.585,1.592-18.748-6.219-28.06-8-9.54-22.955-14.754-44.443-15.5q-3.353-.116-6.555-.112-1.019,0-2.025.01-.122-.011-.243-.011c-.086,0-.172,0-.258.011-5.371.065-10.417.363-15.167.828a114.591,114.591,0,0,0-13.121-8.9,2.953,2.953,0,0,0-1.421-.754,22.549,22.549,0,0,0-6.236-2.349,26.347,26.347,0,0,0-4.319-.352c-7.725,0-14.858,3.269-20.22,6.7a85.114,85.114,0,0,0-3.341-17.179l1.3-1.208a19.115,19.115,0,0,0,6.05-17.372c-2.639-14.609-18.313-31.6-33.542-36.371a26.613,26.613,0,0,0-7.943-1.293,18.468,18.468,0,0,0-11.321,3.64A85.237,85.237,0,0,0,87.638,1.885m0-1.885a86.661,86.661,0,0,1,36.39,7.93,20.344,20.344,0,0,1,11.517-3.354,28.517,28.517,0,0,1,8.507,1.38c15.808,4.948,32.085,22.628,34.832,37.834a20.988,20.988,0,0,1-6.62,19.087l-.442.412a87.058,87.058,0,0,1,2.759,13.452c6.371-3.615,12.636-5.444,18.662-5.444a28.474,28.474,0,0,1,4.627.377,23.617,23.617,0,0,1,6.608,2.44,4.807,4.807,0,0,1,1.857.989,114.578,114.578,0,0,1,12.56,8.49c4.784-.448,9.668-.705,14.529-.766.114-.008.228-.012.34-.012s.206,0,.309.01q.974-.008,1.959-.009c2.247,0,4.474.038,6.621.112,22.046.764,37.462,6.206,45.821,16.172,8.294,9.888,7.764,21.592,6.642,29.535-1.155,8.174-8.464,16.756-17.777,20.871a26.791,26.791,0,0,1-3.069,1.129,31.736,31.736,0,0,1-17.8,21.582c1.489,8.4,1.238,17.836-.748,28.083,1.195,1.7,4.654,5.4,13.308,8.168,9.326,2.988,15.5,7.68,18.876,14.345,4.083,8.061,3.854,18.583-.7,32.169-5.527,16.492-17.042,22.368-25.975,22.368l-.343,0c-9.31-.153-17.428-5.98-21.449-15.3-7.817-.294-24.219-2.922-35.623-18.643l-.308.175c-2.663,2.931-6.191,8.444-4.824,11.464.748,1.65,3,3.935,5.183,6.147,5.477,5.555,13.749,13.945,10.728,25.846-3.59,14.143-14.163,32.615-32.146,38.124a21.554,21.554,0,0,1-6.3.957,19.066,19.066,0,0,1-16.525-9.223c-3.406-5.665-4.6-14.724,1.717-23.738-15.057-10.9-29.109-29.1-12.766-71.422-.071-.045-.14-.089-.209-.135a30.773,30.773,0,0,1-2.815-2.106c-4.262,9.913-12.918,23.273-30.433,35.008a4.8,4.8,0,0,1-.577.33,41.107,41.107,0,0,1-17.028,3.957c-9.541,0-16.87-4.075-21.2-11.786-7.37-13.136-8.7-26.213-3.386-33.316,1.995-2.669,5.872-5.85,13.013-5.85a28.165,28.165,0,0,1,4.133.322,81.342,81.342,0,0,0,18.051-35.324A87.6,87.6,0,0,1,5.637,56.758a4.536,4.536,0,0,1,.326-.834A87.762,87.762,0,0,1,87.638,0" transform="translate(0)" fill="#2c097d"/>
      </g>
    </g>
  </g>
</svg>
