<svg xmlns="http://www.w3.org/2000/svg" xmlns:xlink="http://www.w3.org/1999/xlink" width="349.9" height="390.583" viewBox="0 0 349.9 390.583">
  <defs>
    <clipPath id="clip-path">
      <rect id="Rectángulo_574" data-name="Rectángulo 574" width="349.9" height="390.583" fill="none"/>
    </clipPath>
    <clipPath id="clip-path-2">
      <rect id="Rectángulo_573" data-name="Rectángulo 573" width="349.9" height="390.582" fill="none"/>
    </clipPath>
    <clipPath id="clip-path-3">
      <rect id="Rectángulo_552" data-name="Rectángulo 552" width="101.107" height="93.985" fill="none"/>
    </clipPath>
    <clipPath id="clip-path-4">
      <rect id="Rectángulo_553" data-name="Rectángulo 553" width="64.482" height="99.418" fill="none"/>
    </clipPath>
    <clipPath id="clip-path-5">
      <rect id="Rectángulo_554" data-name="Rectángulo 554" width="80.709" height="73.708" fill="none"/>
    </clipPath>
    <clipPath id="clip-path-6">
      <rect id="Rectángulo_555" data-name="Rectángulo 555" width="76.819" height="65.92" fill="none"/>
    </clipPath>
    <clipPath id="clip-path-7">
      <rect id="Rectángulo_556" data-name="Rectángulo 556" width="35.917" height="37.14" fill="none"/>
    </clipPath>
    <clipPath id="clip-path-8">
      <rect id="Rectángulo_557" data-name="Rectángulo 557" width="66.908" height="102.867" fill="none"/>
    </clipPath>
    <clipPath id="clip-path-9">
      <rect id="Rectángulo_558" data-name="Rectángulo 558" width="14.024" height="20.681" fill="none"/>
    </clipPath>
    <clipPath id="clip-path-10">
      <rect id="Rectángulo_559" data-name="Rectángulo 559" width="130.852" height="162.33" fill="none"/>
    </clipPath>
    <clipPath id="clip-path-11">
      <rect id="Rectángulo_560" data-name="Rectángulo 560" width="88.153" height="33.944" fill="none"/>
    </clipPath>
    <clipPath id="clip-path-12">
      <rect id="Rectángulo_561" data-name="Rectángulo 561" width="135.167" height="136.154" fill="none"/>
    </clipPath>
    <clipPath id="clip-path-13">
      <rect id="Rectángulo_562" data-name="Rectángulo 562" width="101.823" height="79.475" fill="none"/>
    </clipPath>
    <clipPath id="clip-path-14">
      <rect id="Rectángulo_563" data-name="Rectángulo 563" width="60.635" height="43.491" fill="none"/>
    </clipPath>
    <clipPath id="clip-path-15">
      <rect id="Rectángulo_564" data-name="Rectángulo 564" width="27.026" height="30.35" fill="none"/>
    </clipPath>
    <clipPath id="clip-path-16">
      <rect id="Rectángulo_565" data-name="Rectángulo 565" width="20.406" height="18.348" fill="none"/>
    </clipPath>
    <clipPath id="clip-path-17">
      <rect id="Rectángulo_566" data-name="Rectángulo 566" width="183.41" height="133.389" fill="none"/>
    </clipPath>
    <clipPath id="clip-path-18">
      <rect id="Rectángulo_567" data-name="Rectángulo 567" width="53.556" height="42.987" fill="none"/>
    </clipPath>
    <clipPath id="clip-path-19">
      <rect id="Rectángulo_568" data-name="Rectángulo 568" width="43.216" height="35.113" fill="none"/>
    </clipPath>
    <clipPath id="clip-path-20">
      <rect id="Rectángulo_569" data-name="Rectángulo 569" width="109.35" height="58.651" fill="none"/>
    </clipPath>
    <clipPath id="clip-path-21">
      <rect id="Rectángulo_570" data-name="Rectángulo 570" width="25.345" height="27.924" fill="none"/>
    </clipPath>
    <clipPath id="clip-path-22">
      <rect id="Rectángulo_571" data-name="Rectángulo 571" width="10.367" height="11.621" fill="none"/>
    </clipPath>
    <clipPath id="clip-path-23">
      <rect id="Rectángulo_572" data-name="Rectángulo 572" width="0.559" height="2.56" fill="none"/>
    </clipPath>
  </defs>
  <g id="_05" data-name="05" transform="translate(0)">
    <g id="Grupo_3844" data-name="Grupo 3844" transform="translate(0)" clip-path="url(#clip-path)">
      <g id="Grupo_3843" data-name="Grupo 3843" transform="translate(0 0.001)">
        <g id="Grupo_3842" data-name="Grupo 3842" clip-path="url(#clip-path-2)">
          <path id="Trazado_7894" data-name="Trazado 7894" d="M456.48,1727.853c1.69,12.595,9.45,25.915,19.65,37.354,13.148,14.745,30.349,26.367,43.827,29.277,23.937,5.168,37.526-21.577,37.526-21.577l-52.907-56.29c-.747-1.3-2.727-2.9-5.092-4.519-3.439-2.346-7.7-4.708-10.193-6.151-4.214-2.436-36.676-6.921-32.811,21.9" transform="translate(-391.434 -1462.328)" fill="#fefefe"/>
          <g id="Grupo_3781" data-name="Grupo 3781" transform="translate(64.987 240.328)" opacity="0.25">
            <g id="Grupo_3780" data-name="Grupo 3780">
              <g id="Grupo_3779" data-name="Grupo 3779" clip-path="url(#clip-path-3)">
                <path id="Trazado_7895" data-name="Trazado 7895" d="M458.266,1709.362a32.237,32.237,0,0,0,.019,8.528c3.692,30.054,39.2,63.888,63.124,69.137s37.69-22.744,37.69-22.744l-3.776-4.191c-5.837,7.907-17.286,19.246-33.278,15.74-10.938-2.4-24.3-10.773-35.929-22.031a20.417,20.417,0,0,1,.61-30.066,34.477,34.477,0,0,1,14.194-7.246l.436-14.832c-3.439-2.346-7.7-4.709-10.193-6.151-3.57-2.064-27.431-5.6-32.274,10.916l-.017.062a22.085,22.085,0,0,0-.559,2.56c-.017.1-.033.213-.047.318" transform="translate(-457.993 -1693.696)" fill="#371a45"/>
              </g>
            </g>
          </g>
          <path id="Trazado_7896" data-name="Trazado 7896" d="M508.146,1780.28a31.54,31.54,0,0,1-6.671-.723c-12.389-2.676-27.617-12.113-40.734-25.245-14.069-14.085-23.2-30.08-25.05-43.883-1.747-13.026,3.547-19.55,8.3-22.73,9.913-6.639,25.374-4.182,28.926-2.129l1.348.773c6.833,3.91,13.124,7.691,15.019,10.979a2.957,2.957,0,1,1-5.124,2.954c-1.254-2.175-9.666-6.988-12.833-8.8l-1.371-.786c-1.809-1.035-14.739-3.418-22.7,1.942-4.856,3.267-6.773,8.99-5.7,17.011,3.622,27.011,37.532,59.028,61.171,64.133,21.391,4.621,33.75-19.02,34.266-20.028a2.957,2.957,0,0,1,5.271,2.682,54.953,54.953,0,0,1-10.391,13.535c-7.211,6.817-15.307,10.315-23.723,10.315" transform="translate(-373.576 -1444.511)" fill="#371a45"/>
          <path id="Trazado_7897" data-name="Trazado 7897" d="M1474.315,77.512c.113.895,11.021,14.258,12.732,15.178s27.358,11.211,27.358,11.211.959,14.045,8.724,12.978c4.578-.626,11.09-10.126,15.664-17.822,3.188-5.357,5.437-9.842,5.437-9.842s33.979,3.8,32.471-5.92-18.687-23.416-18.687-23.416,11.066-30.337,6.063-35.676-32.96,10.387-32.96,10.387-15.161-15.061-25.892-18.934c-2.925-1.054-5.521-1.28-7.393-.141-6.294,3.829,3.607,35.119,3.607,35.119l-24.059,9.644s-3.182,16.339-3.066,17.234" transform="translate(-1265.114 -12.664)" fill="#ffcf02"/>
          <g id="Grupo_3784" data-name="Grupo 3784" transform="translate(209.198 2.094)" opacity="0.2" style="mix-blend-mode: color-burn;isolation: isolate">
            <g id="Grupo_3783" data-name="Grupo 3783">
              <g id="Grupo_3782" data-name="Grupo 3782" clip-path="url(#clip-path-4)">
                <path id="Trazado_7898" data-name="Trazado 7898" d="M1474.315,77.512c.087.681,6.452,8.617,10.228,12.754,1.573-17.13,13.171-10.9,13.171-10.9l17.657,4.047s3.793,23.595,5.741,28.665c1.746,4.545,7.8.418,9.037-.488a0,0,0,0,1,0,0,94.494,94.494,0,0,0,8.64-12.532c-33.393-15.656-33.625-77.539-33.568-83.4-2.925-1.054-5.521-1.28-7.393-.141-6.294,3.829,3.607,35.119,3.607,35.119l-24.059,9.644s-3.182,16.339-3.066,17.234" transform="translate(-1474.312 -14.758)" fill="#000072"/>
              </g>
            </g>
          </g>
          <g id="Grupo_3787" data-name="Grupo 3787" transform="translate(230.928 2.094)" opacity="0.7">
            <g id="Grupo_3786" data-name="Grupo 3786">
              <g id="Grupo_3785" data-name="Grupo 3785" clip-path="url(#clip-path-5)">
                <path id="Trazado_7899" data-name="Trazado 7899" d="M1657.657,38.54s27.954-15.729,32.958-10.39-6.063,35.679-6.063,35.679,17.178,13.69,18.687,23.414a3.63,3.63,0,0,1-.005,1.222c3.231-1,5.275-2.621,4.879-5.17-1.508-9.726-18.687-23.416-18.687-23.416s11.066-30.337,6.063-35.676-32.96,10.387-32.96,10.387-24.552-24.39-33.285-19.074a4.64,4.64,0,0,0-1.79,3.193c10.352.114,30.2,19.833,30.2,19.833" transform="translate(-1627.453 -14.757)" fill="#fefefe"/>
              </g>
            </g>
          </g>
          <path id="Trazado_7900" data-name="Trazado 7900" d="M1509.471,106.405a7.328,7.328,0,0,1-4.7-1.686c-3.67-2.986-4.849-9.175-5.2-11.982-6.13-2.461-24.782-9.967-26.384-10.832-.389-.21-1.573-.85-7.592-8.115-6.069-7.328-6.168-8.1-6.24-8.67-.051-.4-.156-1.234,3.089-17.909a2.129,2.129,0,0,1,1.3-1.569l22.247-8.916c-.841-2.837-2.432-8.486-3.646-14.451-2.542-12.5-2.069-19.046,1.536-21.24,9-5.472,28.61,12.33,34.753,18.268,2.435-1.318,7.712-4.086,13.4-6.527,14.878-6.379,18.968-4.59,20.748-2.69,5.162,5.511-2.009,27.726-5.106,36.444,4.038,3.394,16.889,14.814,18.28,23.779a5.57,5.57,0,0,1-1.544,4.862c-5.461,5.7-25.107,4.312-31.795,3.654-3.4,6.6-14.226,26.432-22.046,27.5a8.1,8.1,0,0,1-1.1.076m-5.79-15.31c.151,2.142,1.125,8.165,3.783,10.324a3.1,3.1,0,0,0,2.528.692c4.586-.629,14.157-15.882,19.488-26.511a2.133,2.133,0,0,1,2.139-1.161c9.636,1.077,26.228,1.428,29.719-2.216a1.333,1.333,0,0,0,.41-1.263c-1.132-7.3-13.312-18.41-17.91-22.077a2.13,2.13,0,0,1-.673-2.393c.027-.075,2.765-7.607,4.854-15.669,3.867-14.915,1.893-17.571,1.655-17.825-.085-.092-2.264-2.177-15.936,3.68-7.425,3.181-14.357,7.069-14.426,7.108a2.129,2.129,0,0,1-2.543-.345c-9.707-9.639-25.646-21.83-30.68-18.767-.109.066-2.618,1.786.417,16.725,1.645,8.1,4.09,15.858,4.114,15.936a2.128,2.128,0,0,1-1.237,2.618L1466.4,49.162c-1.1,5.7-2.494,13.18-2.765,15.233,1.632,2.474,10.011,12.612,11.618,13.788,1.542.776,17.367,7.181,27.1,11.082a2.129,2.129,0,0,1,1.332,1.83" transform="translate(-1252.266 -0.004)" fill="#371a45"/>
          <path id="Trazado_7901" data-name="Trazado 7901" d="M128.69,525.237c18.813,6.738,27.588-1.108,34.3-11.2,1.026-1.543,2-3.136,2.959-4.739,7.219-12.1,5.594-23.835,7.963-42.207,2.349-18.23,23.223-25.941,23.549-26.06l0,0s9.658,25.941,31.839,42.136,45.009,17.006,45.009,17.006-4.649,12.3-5.281,22.761-1.493,18.254,11.233,33.477,41.249,20.435,50.647.954a28.611,28.611,0,0,0,1.721-4.438c4.982-16.986-10.284-28-10.284-28,31.826-39.526,18.386-64.16,18.386-64.16,7.587-1.732,11.724-4.435,13.9-6.527a8.362,8.362,0,0,0,2.23-3.034s16.813,10.043,22.672,17.263,14.359,10.415,25.713,5.858c17.524-7.96,28.8-20.121,35.059-32.739a.123.123,0,0,1,.011-.023c8.8-17.748,7.681-36.386.085-45.47-16.589-20.856-43.977-14.11-49.866,4.436q-22.7-27.5-68.1-1.735l-21.946-8.662-8.952-3.533a124.252,124.252,0,0,0,11.518-14.351c13.669-19.8,23.525-45.51,29.259-77.629q.452-2.524.869-5.1s3.777-2.972,7.85-6.9a65.164,65.164,0,0,0,6.551-7.2c.459-.6.884-1.206,1.269-1.8l-2.606-17.275-13.481-1.9s17.8-6.046,14.16-16.551q-.037-.11-.082-.221c-1.4-3.727-4.828-5.078-8.916-5.052-7.067.039-16.107,4.194-20.058,7.257,0,0-.171.03-.439.048-1.082.068-3.764-.057-3.207-3.119.245-1.339,2.977-3.756,6.422-6.337,6.391-4.783,15.24-10.119,15.24-10.119s-.076-10.242-9.036-7.347c-5.689,1.837-13.9,11.088-21.28,23.668q-.922,1.571-1.824,3.206c-1.057,1.92-2.095,3.9-3.094,5.943a140.9,140.9,0,0,0-6.37,15.111s-11.836,33.225-20.011,40.833c-.188.175-.372.337-.557.483-4.981,3.987-43.409,37.544-72.7,63.179-18.812,16.463-33.857,29.657-33.857,29.657a68.21,68.21,0,0,0-12.655,8.815q-1.056.919-2.079,1.884c-21.354,20.089-32.882,53.951-26.3,83.2-6.348,6.463-19.121,28.486,2.569,36.255" transform="translate(-100.028 -182.334)" fill="#fefefe"/>
          <g id="Grupo_3790" data-name="Grupo 3790" transform="translate(131.007 145.532)" opacity="0.25">
            <g id="Grupo_3789" data-name="Grupo 3789">
              <g id="Grupo_3788" data-name="Grupo 3788" clip-path="url(#clip-path-6)">
                <path id="Trazado_7902" data-name="Trazado 7902" d="M940.44,1064.338c32.8-2.362,43.325,20.025,43.325,20.025l8.242,7.187.71-3.653-8.952-3.534c4.1-4.383,12.738-15.889,16.317-21.076-20.229,17.247-32.549,3.373-30.185-30.3l-19.922-7.354c-1.713.28-2.046,1.711-10.857,6.354s-31.477,34.715,1.323,32.353" transform="translate(-923.261 -1025.63)" fill="#371a45"/>
              </g>
            </g>
          </g>
          <path id="Trazado_7903" data-name="Trazado 7903" d="M1738.867,1491.554a2.954,2.954,0,0,1-2.489-1.357c-8.425-13.081-13.565-35.866-6.5-52.327,3.832-8.924,10.8-14.578,20.159-16.351a2.957,2.957,0,1,1,1.1,5.81c-7.438,1.411-12.763,5.742-15.826,12.875-6.036,14.054-1.672,34.828,6.033,46.792a2.958,2.958,0,0,1-2.483,4.559" transform="translate(-1481.562 -1219.768)" fill="#371a45"/>
          <path id="Trazado_7904" data-name="Trazado 7904" d="M1213.613,1985.979a2.959,2.959,0,0,1-2.7-4.157c11.366-25.61,35.124-43.616,54.1-40.985,6.472.9,17.722,5.128,20.341,23.4a2.957,2.957,0,0,1-5.855.84c-1.556-10.851-6.846-17.206-15.3-18.377-14.147-1.956-36.479,11.83-47.884,37.525a2.957,2.957,0,0,1-2.7,1.759" transform="translate(-1038.87 -1665.223)" fill="#371a45"/>
          <path id="Trazado_7905" data-name="Trazado 7905" d="M247.557,1807.508a2.958,2.958,0,0,1-2.692-1.729c-.5-1.088-12.237-25.774-41.233-21.907a2.957,2.957,0,0,1-.78-5.863c17.469-2.32,29.434,4.68,36.4,10.962a48.536,48.536,0,0,1,11,14.354,2.959,2.959,0,0,1-2.69,4.183" transform="translate(-171.865 -1525.327)" fill="#371a45"/>
          <path id="Trazado_7906" data-name="Trazado 7906" d="M1277.179,1046.406c-6.594,0-24.221-.79-40.969-8.4a2.957,2.957,0,1,1,2.446-5.385c19.335,8.785,40.677,7.835,40.89,7.825a2.957,2.957,0,0,1,.3,5.906c-.176.009-1.116.053-2.665.053" transform="translate(-1059.308 -885.87)" fill="#371a45"/>
          <g id="Grupo_3793" data-name="Grupo 3793" transform="translate(210.902 50.283)" opacity="0.25">
            <g id="Grupo_3792" data-name="Grupo 3792">
              <g id="Grupo_3791" data-name="Grupo 3791" clip-path="url(#clip-path-7)">
                <path id="Trazado_7907" data-name="Trazado 7907" d="M1493.511,391.51c-4.537-8.651-1.222-21.414,8.369-28.777,8.339-6.405,17.985-4.037,20.357-3.311-1.4-3.727-4.828-5.078-8.916-5.052-7.067.039-16.107,4.194-20.058,7.257,0,0-.171.03-.439.048a51.542,51.542,0,0,0-5.355,10.781c-4.585,12.627,6.042,19.054,6.042,19.054" transform="translate(-1486.321 -354.37)" fill="#371a45"/>
              </g>
            </g>
          </g>
          <g id="Grupo_3796" data-name="Grupo 3796" transform="translate(174.099 57.539)" opacity="0.25">
            <g id="Grupo_3795" data-name="Grupo 3795">
              <g id="Grupo_3794" data-name="Grupo 3794" clip-path="url(#clip-path-8)">
                <path id="Trazado_7908" data-name="Trazado 7908" d="M1227.1,467.4c-.245,21.431-.111,40.98-.111,40.98s10.561-34.5,18.907-50.341,24.613-6.2,31.966-3.9,5.091,14.546,5.091,14.546l2.189-8.427q.452-2.524.869-5.1s3.777-2.972,7.85-6.9c-11,4.609-9.334-5.645-9.334-5.645-7.723,13.1-38.891-1.456-27.566-36.988l-.386-.1c-1.058,1.92-2.095,3.9-3.094,5.943a140.931,140.931,0,0,0-6.37,15.111s-11.835,33.225-20.01,40.833" transform="translate(-1226.949 -405.512)" fill="#371a45"/>
              </g>
            </g>
          </g>
          <g id="Grupo_3799" data-name="Grupo 3799" transform="translate(234.803 72.397)" opacity="0.25">
            <g id="Grupo_3798" data-name="Grupo 3798">
              <g id="Grupo_3797" data-name="Grupo 3797" clip-path="url(#clip-path-9)">
                <path id="Trazado_7909" data-name="Trazado 7909" d="M1654.757,510.22l.952,13.506c8.617-4.813,11.329,5.047,11.8,7.175.459-.6.885-1.205,1.269-1.8l-2.605-17.275Z" transform="translate(-1654.757 -510.22)" fill="#371a45"/>
              </g>
            </g>
          </g>
          <g id="Grupo_3802" data-name="Grupo 3802" transform="translate(17.006 183.046)" opacity="0.25">
            <g id="Grupo_3801" data-name="Grupo 3801">
              <g id="Grupo_3800" data-name="Grupo 3800" clip-path="url(#clip-path-10)">
                <path id="Trazado_7910" data-name="Trazado 7910" d="M131.97,1449.828c18.813,6.738,27.588-1.108,34.3-11.2l-.189-.548c-29.47,25.35-45.132-12.469-25.83-26.9-4.071-26.3,2.791-51.788,17.18-68.315a25.452,25.452,0,0,1,21.163-8.554c49.352,3.734,72.111-27.353,72.111-27.353l-46.406-16.95c-18.812,16.463-33.857,29.657-33.857,29.657a68.212,68.212,0,0,0-12.655,8.815l-.028.026c-.251.217-.5.438-.743.658q-.221.195-.434.39c-.293.268-.586.535-.874.809-21.354,20.089-32.882,53.951-26.3,83.2-6.348,6.463-19.121,28.486,2.569,36.255" transform="translate(-119.849 -1290.012)" fill="#371a45"/>
              </g>
            </g>
          </g>
          <g id="Grupo_3805" data-name="Grupo 3805" transform="translate(139.907 247.949)" opacity="0.25">
            <g id="Grupo_3804" data-name="Grupo 3804">
              <g id="Grupo_3803" data-name="Grupo 3803" clip-path="url(#clip-path-11)">
                <path id="Trazado_7911" data-name="Trazado 7911" d="M1023.787,1747.415l-37.8,3.348,3.475,4.207s-3.157,11.95,13.033,7.674,19.879,10.223,19.879,10.223c-1.852,9,5.693,8.485,5.693,8.485,7.362-29.66,46.071-18.884,46.071-18.884s-14.682-12.07-29.665-6.145Z" transform="translate(-985.989 -1747.414)" fill="#371a45"/>
              </g>
            </g>
          </g>
          <g id="Grupo_3808" data-name="Grupo 3808" transform="translate(97.898 251.472)" opacity="0.25">
            <g id="Grupo_3807" data-name="Grupo 3807">
              <g id="Grupo_3806" data-name="Grupo 3806" clip-path="url(#clip-path-12)">
                <path id="Trazado_7912" data-name="Trazado 7912" d="M689.928,1779.421s9.658,25.942,31.839,42.136,45.009,17.006,45.009,17.006-4.649,12.3-5.282,22.761S760,1879.578,772.727,1894.8s41.248,20.435,50.646.954a28.607,28.607,0,0,0,1.721-4.438l-.151-.037s-1.165,11.669-23.226,7.123-39.935-42.454-18.875-83.5c0,0-25.4,17.449-52.306-11.666,0,0-17.334-15.945-23.77-30.994,0,0-11.057,2.444-16.839,7.183" transform="translate(-689.928 -1772.238)" fill="#371a45"/>
              </g>
            </g>
          </g>
          <g id="Grupo_3811" data-name="Grupo 3811" transform="translate(238.922 214.589)" opacity="0.25">
            <g id="Grupo_3810" data-name="Grupo 3810">
              <g id="Grupo_3809" data-name="Grupo 3809" clip-path="url(#clip-path-13)">
                <path id="Trazado_7913" data-name="Trazado 7913" d="M1683.792,1542.166a80.559,80.559,0,0,1,2.8,31.585c.417.516.829,1.041,1.235,1.571a33.257,33.257,0,0,0,12.114-5.74,8.358,8.358,0,0,0,2.23-3.034s16.813,10.044,22.672,17.263,14.359,10.415,25.713,5.859c17.524-7.96,28.8-20.122,35.059-32.739-.617,1.039-13.609,22.6-33.131,22.459-20.005-.141-6.011-19.633-5.058-33.349s3.748-29.887,8.849-33.731c0,0-11.505,4.925-15.686,25.933a23.175,23.175,0,0,1-6.72,14.522c-6.463,6.285-24.593,6.317-40.9-15.448a12.857,12.857,0,0,0-9.175,4.848" transform="translate(-1683.792 -1512.311)" fill="#371a45"/>
              </g>
            </g>
          </g>
          <path id="Trazado_7914" data-name="Trazado 7914" d="M423.849,2215.879s7.81,9.08,3.377,17.569-16.247,6.185-16.247,6.185Z" transform="translate(-352.663 -1901.456)" fill="#fefefe"/>
          <path id="Trazado_7915" data-name="Trazado 7915" d="M294.869,554.81a42.7,42.7,0,0,1-31.44-14.651c-13.139-15.716-12.6-24.522-11.969-34.718l.051-.836c.446-7.358,2.736-15.429,4.21-19.982a94.37,94.37,0,0,1-42.727-17.218c-18.487-13.5-28.426-33.221-31.672-40.6-5.38,2.622-17.409,9.835-19.043,22.516-.662,5.139-1,9.668-1.329,14.049-.838,11.194-1.5,20.036-7.026,29.294-7.917,13.265-17.588,25.522-40.794,17.207-9.453-3.387-12.621-9.263-13.614-13.6-2.189-9.555,3.876-20.643,8.83-26.32C101,433.8,119.84,391.34,150.9,374.486c6.677-5.856,98.395-86.284,106.408-92.7,6.171-4.94,16.26-30.55,19.628-40,8.341-23.626,24.116-46.412,34.445-49.749,4.311-1.392,7.131-.3,8.738.86,4,2.891,4.161,8.634,4.165,9.28a2.958,2.958,0,0,1-1.431,2.555c-7.057,4.254-14.959,9.634-18.527,12.769,5.976-3.535,16.457-7.552,23.794-5.371a10.217,10.217,0,0,1,7.04,6.643,11.175,11.175,0,0,1-.531,8.743,19.587,19.587,0,0,1-6.688,7.161l4.158.585a2.956,2.956,0,0,1,2.512,2.487l2.6,17.273a2.955,2.955,0,0,1-.444,2.052c-4.187,6.445-12.62,13.6-15.412,15.883-6.655,40.237-19.879,71.934-39.333,94.306l25.626,10.115c28.954-16.064,51.6-16.19,67.414-.394a28.673,28.673,0,0,1,20.227-14.33c12.094-2.231,24.369,2.789,32.841,13.421,6.4,7.675,8.444,20.889,5.343,34.5-4.749,20.85-19.9,38.452-41.567,48.292l-.121.052c-11.5,4.616-21.841,2.223-29.113-6.74-4.178-5.148-14.685-12.072-19.461-15.083-2.1,2.443-6.083,5.429-13.065,7.527,2.632,8.162,6.027,30.315-18.254,61.71,6.676,6.13,14.487,18.877,7.111,34.168-3.829,7.937-10.962,12.931-20.088,14.063a32.921,32.921,0,0,1-4.05.245M182.9,419.926a2.959,2.959,0,0,1,2.772,1.926c.093.249,9.645,25.326,30.811,40.777,21.2,15.48,43.15,16.434,43.369,16.442a2.957,2.957,0,0,1,2.661,4c-.045.119-4.5,12.015-5.1,21.892l-.051.842c-.6,9.667-1.025,16.651,10.6,30.561,7.059,8.442,19.774,13.626,30.225,12.33,5-.62,11.74-2.99,15.489-10.763,8.226-17.052-6.979-28.29-7.63-28.759a2.957,2.957,0,0,1-.572-4.253c15.756-19.568,19.817-35.128,20.449-44.735.677-10.287-2.335-16.112-2.365-16.17a2.969,2.969,0,0,1,1.948-4.282c11.125-2.537,13.738-7.123,13.989-7.617a2.957,2.957,0,0,1,4.32-1.6c.7.421,17.332,10.4,23.45,17.937,5.647,6.961,13.135,8.643,22.257,5,19.937-9.076,33.854-25.18,38.186-44.193,2.7-11.864,1.118-23.137-4.137-29.42l-.046-.056c-7.09-8.914-17.25-13.142-27.163-11.315-8.432,1.553-15.164,7.226-17.571,14.805a2.957,2.957,0,0,1-5.1.987c-14.206-17.206-35.258-17.547-64.364-1.046a2.959,2.959,0,0,1-2.544.178l-30.9-12.2a2.957,2.957,0,0,1-1.075-4.77c20.411-21.833,34.167-53.977,40.888-95.537a2.957,2.957,0,0,1,1.09-1.851c.1-.08,9.7-7.669,14.4-14.282l-2.1-13.947-11.3-1.591a2.957,2.957,0,0,1-.539-5.728c2.629-.9,9.93-4.2,12.067-8.583a5.178,5.178,0,0,0,.251-4.2,4.356,4.356,0,0,0-3.137-2.91c-5.755-1.71-16.638,2.637-21.314,6.263a2.951,2.951,0,0,1-1.31.577c-.6.1-3.714.518-5.742-1.531a5.4,5.4,0,0,1-1.313-4.986c.318-1.742,1.56-4.217,12.334-11.571,3.594-2.452,7.106-4.665,9.083-5.889a5.054,5.054,0,0,0-1.526-2.977c-.725-.519-1.887-.525-3.449-.021-7.68,2.481-22.436,22.723-30.688,46.1-1.3,3.647-12.917,35.765-21.507,42.641-8.036,6.433-105.473,91.887-106.456,92.749a2.977,2.977,0,0,1-.553.383c-29.492,15.806-47.235,56.471-39.552,90.65a2.956,2.956,0,0,1-.775,2.72c-4.394,4.475-10.1,14.577-8.386,22.049.978,4.269,4.2,7.328,9.844,9.35,19.051,6.827,26.268-2.184,33.72-14.67,4.811-8.061,5.4-15.882,6.207-26.705.318-4.251.679-9.068,1.361-14.363,2.568-19.93,24.543-28.124,25.477-28.463a2.96,2.96,0,0,1,1.008-.178m156.478,12.7a.058.058,0,0,1,0,.011.058.058,0,0,0,0-.011m0-.011,0,.011,0-.011m0-.01s0,.006,0,.009,0-.006,0-.009m0-.008s0,0,0,0,0,0,0,0M152.6,376.93h0Z" transform="translate(-85 -164.228)" fill="#371a45"/>
          <path id="Trazado_7916" data-name="Trazado 7916" d="M1433.682,1809.662a2.958,2.958,0,0,1-2.559-1.471c-5.409-9.3-17.537-24.354-37.933-20.659a2.957,2.957,0,1,1-1.055-5.82c17.756-3.216,33.416,5.133,44.1,23.506a2.958,2.958,0,0,1-2.554,4.445" transform="translate(-1192.512 -1528.316)" fill="#371a45"/>
          <path id="Trazado_7917" data-name="Trazado 7917" d="M1022.481,1476.685l38.4,21.234c3.371-3.464,10.066-5.921,13.848-7.1,1.669-.52,2.771-.792,2.771-.792,8.612-6.274,19.657-16.22,24.545-20.71a7.823,7.823,0,0,0,2.525-5.8c-.025-5.056-.429-9.182-4.348-13.372-5.364-5.739-31.476-14.9-37.671-11.779a241.24,241.24,0,0,0-26.656,16.07,53.519,53.519,0,0,0-7.507,6.275,21.339,21.339,0,0,0-5.9,15.98" transform="translate(-877.346 -1233.719)" fill="#fefefe"/>
          <g id="Grupo_3814" data-name="Grupo 3814" transform="translate(145.077 220.708)" opacity="0.25">
            <g id="Grupo_3813" data-name="Grupo 3813">
              <g id="Grupo_3812" data-name="Grupo 3812" clip-path="url(#clip-path-14)">
                <path id="Trazado_7918" data-name="Trazado 7918" d="M1022.481,1577.686l38.4,21.234c3.371-3.464,10.066-5.921,13.848-7.1-5.142-3.263-5.186-11.545-5.186-11.545l13.519-10.87s-11.8,5.438-18.773,7.293-15.528-3.546-25.209-9.146-3.178-12.122-3.178-12.122l-.006,0a53.511,53.511,0,0,0-7.507,6.276,21.338,21.338,0,0,0-5.9,15.98" transform="translate(-1022.422 -1555.429)" fill="#371a45"/>
              </g>
            </g>
          </g>
          <path id="Trazado_7919" data-name="Trazado 7919" d="M1043.543,1484.1l-41.689-23.055-.186-1.494a24.258,24.258,0,0,1,6.677-18.362c7.7-8.259,29.91-20.405,34.993-22.969,7.768-3.915,35.215,6.038,41.163,12.4,4.7,5.03,5.118,10.138,5.145,15.365a10.826,10.826,0,0,1-3.49,8.016c-4.509,4.142-15.949,14.471-24.8,20.917l-.469.342-.564.139c-3.046.755-11.717,3.5-15.208,7.084ZM1007.5,1457.41l35.1,19.413c5.155-4.017,13.307-6.38,15.724-7.019,8.541-6.289,19.468-16.158,23.824-20.16h0a4.9,4.9,0,0,0,1.576-3.628c-.024-4.452-.292-7.872-3.552-11.357-1.842-1.97-8.37-5.5-17.286-8.423-9.915-3.257-15.536-3.42-16.892-2.735-6.326,3.19-26.81,14.731-33.331,21.722a18.78,18.78,0,0,0-5.168,12.187m52.116,15.117h0Z" transform="translate(-859.468 -1216.221)" fill="#371a45"/>
          <path id="Trazado_7920" data-name="Trazado 7920" d="M1087.325,1534.4c-8.6,0-31.089-12.412-35.26-18.641-1.23-1.837-.943-3.145-.485-3.919a1.73,1.73,0,0,1,3.091,1.531c.428,1.38,5.1,5.546,14.243,10.547,8.281,4.528,16.051,7.393,18.917,6.994,6.8-.982,24.636-15.437,30.968-22.3,3.643-3.946,3.182-6.427,2.336-7.271a1.709,1.709,0,0,1-.133-2.425,1.749,1.749,0,0,1,2.459-.134,5.775,5.775,0,0,1,1.711,3.947c.13,2.566-1.159,5.334-3.832,8.229-5.751,6.231-24.442,22.136-33.016,23.373a7.121,7.121,0,0,1-1,.067" transform="translate(-902.029 -1285.734)" fill="#371a45"/>
          <path id="Trazado_7921" data-name="Trazado 7921" d="M1270.964,1489.468a1.46,1.46,0,0,1-.822-.254l-9.756-6.645a1.468,1.468,0,0,1-.579-.792l-3.044-10.216-17.484-6.137a1.464,1.464,0,0,1,.97-2.762l18.188,6.385a1.464,1.464,0,0,1,.917.963l3.109,10.433,9.326,6.352a1.463,1.463,0,0,1-.825,2.673" transform="translate(-1062.592 -1255.047)" fill="#371a45"/>
          <path id="Trazado_7922" data-name="Trazado 7922" d="M1206.435,1557.645a2.8,2.8,0,0,0,.208,1.48c.9,2.2,4.379,4.2,8.737,4.814s8.252-.348,9.729-2.214a2.8,2.8,0,0,0,.609-1.365,2.635,2.635,0,0,0-.017-.835l-.028-.144c-.55-2.394-4.213-4.656-8.9-5.316-5.324-.75-9.951.853-10.335,3.58" transform="translate(-1035.226 -1333.393)" fill="#0ea6f1"/>
          <path id="Trazado_7923" data-name="Trazado 7923" d="M1209.16,1556.744a20.3,20.3,0,0,1-2.835-.2c-4.862-.684-8.742-2.924-9.886-5.706a4.239,4.239,0,0,1-.3-2.24c.266-1.891,1.788-3.408,4.285-4.273a16.923,16.923,0,0,1,7.7-.553c5.262.74,9.425,3.388,10.125,6.437l.038.187a4.172,4.172,0,0,1,.03,1.325,4.239,4.239,0,0,1-.915,2.073c-1.491,1.885-4.576,2.953-8.241,2.953m-3.815-10.246a12.359,12.359,0,0,0-3.967.588c-1.366.473-2.243,1.189-2.345,1.915a1.357,1.357,0,0,0,.11.715c.621,1.51,3.426,3.34,7.59,3.926s7.368-.4,8.378-1.674a1.354,1.354,0,0,0,.307-.661,1.171,1.171,0,0,0-.009-.377l-.023-.114c-.354-1.538-3.326-3.54-7.671-4.151a17.13,17.13,0,0,0-2.371-.168m-7.76,2.3h0Z" transform="translate(-1026.375 -1324.545)" fill="#371a45"/>
          <path id="Trazado_7924" data-name="Trazado 7924" d="M1193.287,1585.432a23.6,23.6,0,0,1-3.292-.235,19.9,19.9,0,0,1-8.529-3.124c-2.488-1.752-3.691-3.9-3.389-6.042a4.694,4.694,0,0,1,.651-1.79l2.107-3.445a1.463,1.463,0,0,1,2.7.968,1.358,1.358,0,0,0,.11.715c.621,1.51,3.426,3.34,7.589,3.926s7.368-.4,8.378-1.674a1.352,1.352,0,0,0,.308-.661,1.174,1.174,0,0,0-.009-.377,1.464,1.464,0,0,1,2.877-.536l1.183,6.035a1.446,1.446,0,0,1,.013.486c-.3,2.146-2.051,3.876-4.926,4.872a17.828,17.828,0,0,1-5.769.882m-11.557-10.492-.5.815a1.784,1.784,0,0,0-.258.683h0c-.139.988.654,2.169,2.176,3.24a18.782,18.782,0,0,0,14.948,2.1c1.638-.568,2.694-1.4,2.945-2.311l-.353-1.794c-2.208,1.555-5.865,2.189-9.866,1.623-4.05-.569-7.42-2.22-9.093-4.364m-2.2,1.3h0Z" transform="translate(-1010.874 -1347.307)" fill="#371a45"/>
          <path id="Trazado_7925" data-name="Trazado 7925" d="M808.02,1763.811c2.514,8.766,14.82,6.262,14.82,6.262a99.4,99.4,0,0,1,11.821-22.968q.746-1.064,1.525-2.093l.02-.029a75.278,75.278,0,0,1,14.277-14.5,74.371,74.371,0,0,1,9.5-6.212c4.132-12.4-9.988-14.647-17.5-9.679-.739.38-1.457.765-2.16,1.16-11.469,6.443-18.421,14.983-23.715,24.3-3.038,5.341-5.527,10.934-8.013,16.533a10.64,10.64,0,0,0-.574,7.225" transform="translate(-693.035 -1469.194)" fill="#fefefe"/>
          <g id="Grupo_3817" data-name="Grupo 3817" transform="translate(114.6 270.86)" opacity="0.25">
            <g id="Grupo_3816" data-name="Grupo 3816">
              <g id="Grupo_3815" data-name="Grupo 3815" clip-path="url(#clip-path-15)">
                <path id="Trazado_7926" data-name="Trazado 7926" d="M808.02,1932.63c2.514,8.766,14.82,6.262,14.82,6.262a99.4,99.4,0,0,1,11.821-22.968c-2.661,3.344-8.361,9.253-14.132,7.1-6.961-2.6-4.588-11.952-3.922-14.148-3.038,5.341-5.527,10.934-8.013,16.532a10.64,10.64,0,0,0-.574,7.225" transform="translate(-807.635 -1908.873)" fill="#371a45"/>
              </g>
            </g>
          </g>
          <g id="Grupo_3820" data-name="Grupo 3820" transform="translate(147.286 242.944)" opacity="0.25">
            <g id="Grupo_3819" data-name="Grupo 3819">
              <g id="Grupo_3818" data-name="Grupo 3818" clip-path="url(#clip-path-16)">
                <path id="Trazado_7927" data-name="Trazado 7927" d="M1037.99,1715.756c14.209,1.557,9.909,13.929,9.909,13.929l.253.8a74.4,74.4,0,0,1,9.5-6.212c4.132-12.4-9.988-14.647-17.5-9.678-.739.38-1.456.765-2.159,1.16" transform="translate(-1037.99 -1712.138)" fill="#371a45"/>
              </g>
            </g>
          </g>
          <path id="Trazado_7928" data-name="Trazado 7928" d="M800.779,1754.8c-5.324,0-11.97-1.834-13.956-8.757a13.594,13.594,0,0,1,.714-9.239c7.147-16.094,14.539-32.734,35.1-43.352,5.786-3.74,13.978-3.836,18.725-.2,3.811,2.922,4.931,7.795,3.074,13.369l-.365,1.1-1.013.558c-16.449,9.064-28.158,23.533-35.8,44.234l-.57,1.545-1.614.328a21.957,21.957,0,0,1-4.3.412m31.87-58.294a12.833,12.833,0,0,0-6.891,1.972l-.28.164c-18.812,9.66-25.478,24.67-32.536,40.562a7.675,7.675,0,0,0-.434,5.209c1.3,4.523,7.028,4.618,9.835,4.378,8-20.763,20.051-35.536,36.789-45.089.648-2.625.189-4.558-1.368-5.752a8.512,8.512,0,0,0-5.115-1.443m8.981,9.184h0Z" transform="translate(-674.748 -1450.698)" fill="#371a45"/>
          <path id="Trazado_7929" data-name="Trazado 7929" d="M1234.572,1847.292c-3.081,3.168-6.246,6.347-8.5,10.2a1.849,1.849,0,0,1-3.412-1.172,16.58,16.58,0,0,1,.989-3.957,20.793,20.793,0,0,1,7.162-9.635,2.976,2.976,0,0,1,3.762,4.563" transform="translate(-1049.159 -1580.812)" fill="#371a45"/>
          <path id="Trazado_7930" data-name="Trazado 7930" d="M1979.8,1533.65a2.944,2.944,0,0,1-1.954-.739c-11.424-10.075-2.584-24.341,3.871-34.759,2.5-4.036,4.864-7.85,5.816-10.8a87.787,87.787,0,0,0,2.167-9.083c2.085-10.249,4.679-23,16.571-30.783,13.072-8.548,24.813-1.932,29.2,2.76a2.957,2.957,0,0,1-4.314,4.045c-.4-.423-9.544-9.774-21.643-1.855-9.826,6.428-11.955,16.892-14.013,27.013a91.729,91.729,0,0,1-2.334,9.719c-1.174,3.64-3.721,7.751-6.418,12.1-7.415,11.967-12.113,20.923-4.986,27.208a2.957,2.957,0,0,1-1.957,5.175" transform="translate(-1692.46 -1238.544)" fill="#371a45"/>
          <path id="Trazado_7931" data-name="Trazado 7931" d="M2180.342,1559.069c-2.557,0-31.877-4.283-40.838-5.6a2.957,2.957,0,1,1,.861-5.852c14.364,2.113,37.913,5.484,39.954,5.539h.053a2.938,2.938,0,0,1,2.933,2.9,2.976,2.976,0,0,1-2.927,3.009h-.035" transform="translate(-1833.748 -1327.99)" fill="#371a45"/>
          <path id="Trazado_7932" data-name="Trazado 7932" d="M2150.619,1674.369a2.913,2.913,0,0,1-.448-.035l-44.215-6.73a2.957,2.957,0,0,1,.89-5.846l44.215,6.731a2.957,2.957,0,0,1-.441,5.881" transform="translate(-1804.974 -1425.932)" fill="#371a45"/>
          <path id="Trazado_7933" data-name="Trazado 7933" d="M2108.743,1799.17a2.949,2.949,0,0,1-.689-.082l-41.028-9.792a2.957,2.957,0,1,1,1.373-5.752l41.028,9.792a2.957,2.957,0,0,1-.684,5.834" transform="translate(-1771.776 -1530.397)" fill="#371a45"/>
          <path id="Trazado_7934" data-name="Trazado 7934" d="M2043.859,1896.242a2.956,2.956,0,0,1-1.1-.211l-32.468-12.965a2.957,2.957,0,1,1,2.194-5.493l32.468,12.965a2.958,2.958,0,0,1-1.1,5.7" transform="translate(-1723.446 -1610.973)" fill="#371a45"/>
          <path id="Trazado_7935" data-name="Trazado 7935" d="M2028.292,1518.333a48.459,48.459,0,0,0-4.155,14.623,1.3,1.3,0,0,1-2.574-.08,52.165,52.165,0,0,1,1.237-16.766,2.979,2.979,0,1,1,5.492,2.224" transform="translate(-1734.557 -1299.115)" fill="#371a45"/>
          <path id="Trazado_7936" data-name="Trazado 7936" d="M1682.515,1803.884c1.459-5.576,1.2-11.5.232-17.16-.27-1.743-.872-4.159-1.281-5.9a1.466,1.466,0,0,1,2.788-.881,44.742,44.742,0,0,1,3.176,12.3,33.738,33.738,0,0,1-.652,11.335,14.77,14.77,0,0,1-.53,1.71,2,2,0,0,1-3.733-1.41" transform="translate(-1442.839 -1526.587)" fill="#371a45"/>
          <path id="Trazado_7937" data-name="Trazado 7937" d="M396.667,2225.01a23.267,23.267,0,0,1-4.139-.344,2.957,2.957,0,0,1,1.132-5.8c.088.016,9.718,1.751,13.06-4.651,3.436-6.579-2.938-14.2-3-14.278a2.957,2.957,0,0,1,4.49-3.85c.372.432,9.056,10.716,3.756,20.866-3.583,6.861-10.734,8.061-15.3,8.062" transform="translate(-334.778 -1883.587)" fill="#371a45"/>
          <path id="Trazado_7938" data-name="Trazado 7938" d="M1635.458,498.865c2.793,4.283,2.457,9.777,1.516,14.551a38.52,38.52,0,0,1-1.287,4.471,1.357,1.357,0,0,1-1.727.836c-1.552-.607-.64-2.473-.58-3.68a41.684,41.684,0,0,0,.367-6.371,19.379,19.379,0,0,0-1.519-7.463,2,2,0,0,1,3.23-2.344" transform="translate(-1400.286 -427.367)" fill="#371a45"/>
          <path id="Trazado_7939" data-name="Trazado 7939" d="M1482.034,394.642c-4.619,4.356-6.87,10.67-7.559,16.88a1.6,1.6,0,0,1-3.192-.161,28.318,28.318,0,0,1,4.475-15.594,18.559,18.559,0,0,1,3.856-4.3,2,2,0,0,1,2.42,3.173" transform="translate(-1262.515 -335.558)" fill="#371a45"/>
          <path id="Trazado_7940" data-name="Trazado 7940" d="M204.089,328.935a90.571,90.571,0,0,1-3.174,46.035,93.038,93.038,0,0,1-3.661,9.2c-.676,1.476-1.405,2.946-2.168,4.414a93.3,93.3,0,0,1-27,31.521q-2.148,1.583-4.366,3.045a93.073,93.073,0,0,1-93.281,5.42A90.453,90.453,0,0,1,31.662,305.386a93.047,93.047,0,0,1,16.98-22.916c.77-.774,1.566-1.529,2.376-2.266q3.23-2.979,6.7-5.62a94.44,94.44,0,0,1,35.87-16.8q3.076-.71,6.2-1.213a92.6,92.6,0,0,1,56.521,8.826,89.988,89.988,0,0,1,47.78,63.534" transform="translate(-18.065 -219.157)" fill="#fff"/>
          <path id="Trazado_7941" data-name="Trazado 7941" d="M109.933,436.79A92.322,92.322,0,0,1,68,426.775a89.967,89.967,0,0,1-45.3-53.268,90.935,90.935,0,0,1,6.37-70.385,93.367,93.367,0,0,1,17.043-23c.74-.743,1.521-1.488,2.386-2.275,2.149-1.982,4.412-3.88,6.722-5.639a94.783,94.783,0,0,1,36-16.859c2.082-.48,4.176-.89,6.225-1.217a92.954,92.954,0,0,1,56.734,8.859,90.085,90.085,0,0,1,47.964,63.78,91.237,91.237,0,0,1-3.186,46.212,93.862,93.862,0,0,1-3.675,9.231c-.624,1.363-1.335,2.812-2.175,4.428a93.647,93.647,0,0,1-27.1,31.64c-1.424,1.05-2.9,2.078-4.383,3.056a94.292,94.292,0,0,1-51.693,15.455m2.362-183.146q-2.657,0-5.32.155a92.584,92.584,0,0,0-9.416,1.018c-2.034.325-4.112.731-6.179,1.209A94.079,94.079,0,0,0,55.643,272.76c-2.293,1.746-4.539,3.63-6.673,5.6-.858.781-1.632,1.518-2.365,2.256a92.676,92.676,0,0,0-16.918,22.833A90.242,90.242,0,0,0,23.364,373.3a89.275,89.275,0,0,0,44.949,52.857,92.935,92.935,0,0,0,92.93-5.4c1.473-.971,2.937-1.992,4.351-3.034a93.16,93.16,0,0,0,26.9-31.4c.833-1.6,1.54-3.043,2.16-4.4a93.379,93.379,0,0,0,3.648-9.163,90.54,90.54,0,0,0,3.161-45.858,89.388,89.388,0,0,0-47.595-63.289,91.659,91.659,0,0,0-41.572-9.966" transform="translate(-15.781 -217.055)" fill="#371a45"/>
          <path id="Trazado_7942" data-name="Trazado 7942" d="M385.275,396.988c-18.08,63.161-92.135,89.412-136.324,42.2-30.063-32.118-21.213-86.509,12.086-113.563,24.235-19.69,56.448-28.5,97.072.091,0,0,15.979,15.436,20.666,30.593a206.441,206.441,0,0,1,6.658,30.713Z" transform="translate(-197.873 -263.801)" fill="#371a45"/>
          <g id="Grupo_3823" data-name="Grupo 3823" transform="translate(4.224 86.038)" opacity="0.25">
            <g id="Grupo_3822" data-name="Grupo 3822">
              <g id="Grupo_3821" data-name="Grupo 3821" clip-path="url(#clip-path-17)">
                <path id="Trazado_7943" data-name="Trazado 7943" d="M77.919,729.718A93.054,93.054,0,0,0,171.2,724.3q2.22-1.459,4.364-3.042a93.541,93.541,0,0,0,27.005-31.52c.756-1.469,1.488-2.937,2.168-4.412a94.335,94.335,0,0,0,3.657-9.2,90.63,90.63,0,0,0-4.884-69.774,90.538,90.538,0,0,1-3.545,43.959,92.1,92.1,0,0,1-3.657,9.2c-.674,1.474-1.406,2.941-2.168,4.412a93.208,93.208,0,0,1-27,31.519q-2.153,1.585-4.37,3.043A93.058,93.058,0,0,1,69.489,703.9a89.858,89.858,0,0,1-39.718-39.811,89.985,89.985,0,0,0,48.148,65.627" transform="translate(-29.771 -606.349)" fill="#371a45"/>
              </g>
            </g>
          </g>
          <path id="Trazado_7944" data-name="Trazado 7944" d="M95.78,424.981a94.663,94.663,0,0,1-43-10.269A92.291,92.291,0,0,1,6.319,360.069a93.257,93.257,0,0,1,6.529-72.183A95.719,95.719,0,0,1,30.32,264.307c.752-.755,1.56-1.526,2.454-2.34,2.192-2.021,4.51-3.967,6.88-5.77a97.13,97.13,0,0,1,36.9-17.277c2.132-.492,4.279-.912,6.38-1.248a95.3,95.3,0,0,1,58.165,9.085,92.4,92.4,0,0,1,49.2,65.425,93.573,93.573,0,0,1-3.267,47.4,96.42,96.42,0,0,1-3.767,9.463c-.637,1.393-1.366,2.876-2.223,4.527a95.971,95.971,0,0,1-27.784,32.44c-1.463,1.079-2.971,2.13-4.489,3.131a96.641,96.641,0,0,1-52.983,15.84m2.364-183.145q-2.591,0-5.184.151a90.362,90.362,0,0,0-9.184.993c-1.98.317-4.006.713-6.021,1.178a91.763,91.763,0,0,0-34.847,16.317c-2.234,1.7-4.423,3.537-6.5,5.457-.83.755-1.6,1.486-2.294,2.186A90.393,90.393,0,0,0,17.6,290.391a87.922,87.922,0,0,0-6.163,68.05,86.955,86.955,0,0,0,43.781,51.481,90.589,90.589,0,0,0,90.587-5.273c1.435-.945,2.865-1.943,4.246-2.961a90.82,90.82,0,0,0,26.216-30.609c.809-1.558,1.5-2.963,2.1-4.28a90.938,90.938,0,0,0,3.558-8.939,88.193,88.193,0,0,0,3.08-44.67,87.067,87.067,0,0,0-46.359-61.643,89.329,89.329,0,0,0-40.511-9.711" transform="translate(-1.631 -202.908)" fill="#371a45"/>
          <path id="Trazado_7945" data-name="Trazado 7945" d="M94.15,423.625a94.923,94.923,0,0,1-43.119-10.3,92.558,92.558,0,0,1-46.6-54.8,93.526,93.526,0,0,1,6.548-72.39A95.991,95.991,0,0,1,28.5,262.489c.753-.756,1.565-1.53,2.462-2.347,2.2-2.026,4.522-3.977,6.9-5.785a97.4,97.4,0,0,1,37-17.326c2.138-.493,4.291-.914,6.4-1.251a95.561,95.561,0,0,1,58.33,9.111,92.683,92.683,0,0,1,49.342,65.614,93.848,93.848,0,0,1-3.277,47.536,96.716,96.716,0,0,1-3.778,9.49c-.639,1.4-1.369,2.883-2.228,4.538A96.251,96.251,0,0,1,151.782,404.6c-1.467,1.082-2.98,2.136-4.5,3.139A96.915,96.915,0,0,1,94.15,423.625M96.514,240.48q-2.584,0-5.169.15a89.915,89.915,0,0,0-9.157.99c-1.974.315-3.994.71-6,1.174a91.475,91.475,0,0,0-34.744,16.268c-2.228,1.7-4.41,3.527-6.485,5.44q-1.242,1.13-2.285,2.178a90.13,90.13,0,0,0-16.459,22.209,87.653,87.653,0,0,0-6.144,67.843,86.684,86.684,0,0,0,43.646,51.322,90.319,90.319,0,0,0,90.317-5.257c1.43-.942,2.857-1.937,4.234-2.953A90.549,90.549,0,0,0,174.4,369.329c.807-1.553,1.495-2.953,2.1-4.267a90.72,90.72,0,0,0,3.549-8.913,87.927,87.927,0,0,0,3.071-44.533A86.8,86.8,0,0,0,136.9,250.162a89.059,89.059,0,0,0-40.388-9.682" transform="translate(0 -201.282)" fill="#371a45"/>
          <path id="Trazado_7946" data-name="Trazado 7946" d="M256.34,968.626c44.186,47.209,118.242,20.957,136.323-42.2l.03-2.02c-39.438,45.919-107.91,56.483-153.493,9.587a67.8,67.8,0,0,0,17.139,34.633" transform="translate(-205.26 -793.238)" fill="#220f2d"/>
          <path id="Trazado_7947" data-name="Trazado 7947" d="M227.6,413.374c-.653,0-1.3-.008-1.955-.022-23.189-.537-44.26-10.235-60.936-28.047-15.33-16.376-22.864-38.727-21.214-62.934,1.831-26.86,14.949-52.665,35.09-69.029,11.187-9.089,22.883-15.318,34.762-18.514l.293-.079.3-.018A95.015,95.015,0,0,1,262.531,244.9a92.683,92.683,0,0,1,49.342,65.614,93.848,93.848,0,0,1-3.277,47.536,96.536,96.536,0,0,1-3.778,9.49c-.639,1.4-1.369,2.883-2.228,4.538a96.476,96.476,0,0,1-8.108,12.842l-.139.185-.166.161C275.761,403.2,251.6,413.374,227.6,413.374M214.594,240.619c-10.973,3-21.83,8.826-32.276,17.314-18.892,15.349-31.2,39.588-32.919,64.841-1.537,22.553,5.434,43.325,19.631,58.49,15.565,16.626,35.191,25.677,56.755,26.176,22.977.525,46.334-9.035,64.1-26.253a90.511,90.511,0,0,0,7.463-11.853c.806-1.553,1.494-2.953,2.1-4.267a90.644,90.644,0,0,0,3.549-8.913,87.929,87.929,0,0,0,3.071-44.533,86.8,86.8,0,0,0-46.216-61.454,89.069,89.069,0,0,0-45.253-9.548m77.52,142.525h0Z" transform="translate(-122.945 -201.288)" fill="#371a45"/>
          <path id="Trazado_7948" data-name="Trazado 7948" d="M71.715,1139.371c10.61,14.549,28.24,20.426,39.38,13.121s11.567-25.022.957-39.571c-.065-.092-.138-.187-.208-.277-10.628-14.348-28.111-20.1-39.172-12.845-8.606,5.643-10.818,17.5-6.49,29.309a42.14,42.14,0,0,0,5.533,10.262" transform="translate(-54.943 -941.051)" fill="#fff"/>
          <g id="Grupo_3826" data-name="Grupo 3826" transform="translate(11.238 171.594)" opacity="0.25">
            <g id="Grupo_3825" data-name="Grupo 3825">
              <g id="Grupo_3824" data-name="Grupo 3824" clip-path="url(#clip-path-18)">
                <path id="Trazado_7949" data-name="Trazado 7949" d="M84.736,1236.025c10.61,14.549,28.24,20.426,39.38,13.121s11.567-25.022.957-39.571c-.065-.092-.138-.187-.208-.277-.136,2.3-.97,5.016-3.913,6.214-5.157,2.1-20.1-1.937-20.1-1.937s-9.424,5.224-21.652,12.187a42.138,42.138,0,0,0,5.533,10.262" transform="translate(-79.203 -1209.299)" fill="#371a45"/>
              </g>
            </g>
          </g>
          <path id="Trazado_7950" data-name="Trazado 7950" d="M82.164,1140.912c-10.725,0-22.714-6.361-30.787-17.431-6.631-9.094-9.47-19.6-7.789-28.835a22.019,22.019,0,0,1,9.513-14.951c12.418-8.144,31.883-1.932,43.392,13.848,6.631,9.093,9.47,19.6,7.789,28.835a22.021,22.021,0,0,1-9.513,14.952,22.736,22.736,0,0,1-12.605,3.583m-16.315-58.956a17.116,17.116,0,0,0-9.5,2.684,16.248,16.248,0,0,0-6.938,11.065c-1.372,7.534,1.151,16.614,6.749,24.29,9.68,13.273,25.547,18.832,35.37,12.388a16.251,16.251,0,0,0,6.938-11.066c1.372-7.534-1.151-16.615-6.749-24.29-6.943-9.521-17.069-15.072-25.865-15.072" transform="translate(-36.997 -923.417)" fill="#371a45"/>
          <path id="Trazado_7951" data-name="Trazado 7951" d="M81.548,1228.849c11.433,8.182,24.764,6.736,29.776-3.228s-.195-24.675-11.628-32.856-24.764-6.736-29.776,3.228.195,24.675,11.628,32.857" transform="translate(-58.362 -1018.966)" fill="#fff"/>
          <path id="Trazado_7952" data-name="Trazado 7952" d="M94.579,1232.3a26.826,26.826,0,0,1-15.373-5.376c-11.554-8.268-16.821-23.213-11.741-33.314a15.551,15.551,0,0,1,10.347-8.192c6.243-1.539,13.52.22,19.964,4.832,11.554,8.268,16.821,23.212,11.741,33.314a15.551,15.551,0,0,1-10.347,8.192,19.149,19.149,0,0,1-4.591.545m-12.173-46.7a18.427,18.427,0,0,0-4.42.524,14.645,14.645,0,0,0-9.872,7.813c-4.926,9.8.239,24.329,11.515,32.4,6.27,4.486,13.329,6.206,19.368,4.717a14.645,14.645,0,0,0,9.873-7.813c4.926-9.8-.239-24.33-11.515-32.4a26.111,26.111,0,0,0-14.948-5.241" transform="translate(-56.232 -1016.744)" fill="#371a45"/>
          <g id="Grupo_3829" data-name="Grupo 3829" transform="translate(12.182 178.041)" opacity="0.25">
            <g id="Grupo_3828" data-name="Grupo 3828">
              <g id="Grupo_3827" data-name="Grupo 3827" clip-path="url(#clip-path-19)">
                <path id="Trazado_7953" data-name="Trazado 7953" d="M127.4,1266.55a30.517,30.517,0,0,0-8.689-11.81c3.268,10.751-2.119,20-12.721,21.135-6.85.736-14.3-2.092-20.137-7.029.2.68.449,1.369.724,2.06,4.645,11.6,17.548,20.038,28.822,18.834s16.642-11.59,12-23.189" transform="translate(-85.853 -1254.74)" fill="#371a45"/>
              </g>
            </g>
          </g>
          <path id="Trazado_7954" data-name="Trazado 7954" d="M81.106,1214.413c-8.675,0-18.544-5.462-25.526-14.957-5.673-7.714-8.237-16.785-6.86-24.265a16.49,16.49,0,0,1,7.2-11.259c9.895-6.38,25.288-.985,35.043,12.28,5.673,7.714,8.237,16.786,6.86,24.266a16.49,16.49,0,0,1-7.2,11.258,17.35,17.35,0,0,1-9.518,2.676m-20.761-18.46c7.644,10.4,20.042,15.347,27.074,10.813a10.855,10.855,0,0,0,4.589-7.359c1.087-5.905-1.084-13.266-5.808-19.691-7.644-10.4-20.044-15.348-27.074-10.814a10.855,10.855,0,0,0-4.589,7.359c-1.087,5.9,1.085,13.266,5.808,19.691" transform="translate(-41.494 -996.481)" fill="#371a45"/>
          <g id="Grupo_3832" data-name="Grupo 3832" transform="translate(58.709 54.677)" opacity="0.5">
            <g id="Grupo_3831" data-name="Grupo 3831">
              <g id="Grupo_3830" data-name="Grupo 3830" clip-path="url(#clip-path-20)">
                <path id="Trazado_7955" data-name="Trazado 7955" d="M413.954,421.316S446.3,398.251,477.5,401.9l.1.012a36.993,36.993,0,0,1,18.014,7.266A74.422,74.422,0,0,1,509.86,423.26c10.165,12.812,12.488,20.732,12.488,20.732,2.046-12.6.128-23.564-8.23-34.32q-1.24-1.587-2.67-3.178c-.218-.245-.44-.483-.667-.719,0-.007,0-.01-.016-.012a90.611,90.611,0,0,0-8.357-7.139c-10.376-7.828-26.251-16.2-43.545-12.287-32.337,7.316-47.044,34.485-44.908,34.979" transform="translate(-413.751 -385.342)" fill="#fff"/>
              </g>
            </g>
          </g>
          <g id="Grupo_3835" data-name="Grupo 3835" transform="translate(52.616 125.454)" opacity="0.5">
            <g id="Grupo_3834" data-name="Grupo 3834">
              <g id="Grupo_3833" data-name="Grupo 3833" clip-path="url(#clip-path-21)">
                <path id="Trazado_7956" data-name="Trazado 7956" d="M394.842,893.178c3.1,7.216.522,15.265-5.752,17.978s-13.872-.936-16.969-8.152-.522-15.265,5.752-17.978,13.872.936,16.969,8.151" transform="translate(-370.809 -884.129)" fill="#fff"/>
              </g>
            </g>
          </g>
          <g id="Grupo_3838" data-name="Grupo 3838" transform="translate(70.294 157.342)" opacity="0.5">
            <g id="Grupo_3837" data-name="Grupo 3837">
              <g id="Grupo_3836" data-name="Grupo 3836" clip-path="url(#clip-path-22)">
                <path id="Trazado_7957" data-name="Trazado 7957" d="M505.42,1113.043c1.02,3.079-.322,6.305-3,7.206s-5.669-.865-6.688-3.944.322-6.305,3-7.206,5.669.865,6.688,3.944" transform="translate(-495.395 -1108.863)" fill="#fff"/>
              </g>
            </g>
          </g>
          <g id="Grupo_3841" data-name="Grupo 3841" transform="translate(65.007 254.598)" opacity="0.2" style="mix-blend-mode: color-burn;isolation: isolate">
            <g id="Grupo_3840" data-name="Grupo 3840">
              <g id="Grupo_3839" data-name="Grupo 3839" clip-path="url(#clip-path-23)">
                <path id="Trazado_7958" data-name="Trazado 7958" d="M458.133,1796.827a22,22,0,0,1,.559-2.56,19.934,19.934,0,0,0-.559,2.56" transform="translate(-458.133 -1794.267)" fill="#000072"/>
              </g>
            </g>
          </g>
        </g>
      </g>
    </g>
  </g>
</svg>
