<svg xmlns="http://www.w3.org/2000/svg" width="1796.776" height="452" viewBox="0 0 1796.776 452">
  <g id="estrellas" transform="translate(-58.777 -1221)">
    <path id="Trazado_7797" data-name="Trazado 7797" d="M9.051,7.995l3.617-6.612a2.657,2.657,0,0,1,4.663,0l3.617,6.612A2.662,2.662,0,0,0,22,9.052l6.613,3.616a2.658,2.658,0,0,1,0,4.663L22,20.948A2.657,2.657,0,0,0,20.948,22l-3.617,6.613a2.658,2.658,0,0,1-4.663,0L9.051,22a2.656,2.656,0,0,0-1.057-1.057L1.382,17.331a2.658,2.658,0,0,1,0-4.663L7.995,9.052A2.661,2.661,0,0,0,9.051,7.995" transform="matrix(0.978, -0.208, 0.208, 0.978, 239.191, 1598.203)" fill="#7051c8"/>
    <path id="Trazado_7803" data-name="Trazado 7803" d="M9.549,8.434l3.816-6.976a2.8,2.8,0,0,1,4.92,0L22.1,8.434a2.808,2.808,0,0,0,1.114,1.115l6.976,3.815a2.8,2.8,0,0,1,0,4.92L23.214,22.1A2.8,2.8,0,0,0,22.1,23.214L18.284,30.19a2.8,2.8,0,0,1-4.92,0L9.549,23.214A2.8,2.8,0,0,0,8.434,22.1L1.458,18.284a2.8,2.8,0,0,1,0-4.92L8.434,9.549A2.807,2.807,0,0,0,9.549,8.434" transform="translate(449.024 1230)" fill="#7051c8"/>
    <path id="Trazado_7800" data-name="Trazado 7800" d="M9.655,8.528l3.858-7.053a2.834,2.834,0,0,1,4.974,0l3.858,7.053a2.84,2.84,0,0,0,1.127,1.127l7.054,3.858a2.835,2.835,0,0,1,0,4.974l-7.054,3.858a2.834,2.834,0,0,0-1.127,1.127l-3.858,7.054a2.835,2.835,0,0,1-4.974,0L9.655,23.472a2.833,2.833,0,0,0-1.127-1.127L1.474,18.487a2.835,2.835,0,0,1,0-4.974L8.528,9.655A2.838,2.838,0,0,0,9.655,8.528" transform="translate(1621.553 1245.415)" fill="#7051c8"/>
    <path id="Trazado_7798" data-name="Trazado 7798" d="M831.086,118.681l2.674-4.888a1.964,1.964,0,0,1,3.447,0l2.673,4.888a1.968,1.968,0,0,0,.781.781l4.888,2.673a1.965,1.965,0,0,1,0,3.447l-4.888,2.674a1.966,1.966,0,0,0-.781.781l-2.673,4.888a1.964,1.964,0,0,1-3.447,0l-2.674-4.888a1.964,1.964,0,0,0-.781-.781l-4.888-2.674a1.965,1.965,0,0,1,0-3.447l4.888-2.673a1.965,1.965,0,0,0,.781-.781" transform="translate(-280.474 1513.635)" fill="#7051c8"/>
    <path id="Trazado_7804" data-name="Trazado 7804" d="M831.086,118.681l2.674-4.888a1.964,1.964,0,0,1,3.447,0l2.673,4.888a1.968,1.968,0,0,0,.781.781l4.888,2.673a1.965,1.965,0,0,1,0,3.447l-4.888,2.674a1.966,1.966,0,0,0-.781.781l-2.673,4.888a1.964,1.964,0,0,1-3.447,0l-2.674-4.888a1.964,1.964,0,0,0-.781-.781l-4.888-2.674a1.965,1.965,0,0,1,0-3.447l4.888-2.673a1.965,1.965,0,0,0,.781-.781" transform="translate(-765.618 1311.072)" fill="#7051c8"/>
    <path id="Trazado_7801" data-name="Trazado 7801" d="M831.086,118.681l2.674-4.888a1.964,1.964,0,0,1,3.447,0l2.673,4.888a1.968,1.968,0,0,0,.781.781l4.888,2.673a1.965,1.965,0,0,1,0,3.447l-4.888,2.674a1.966,1.966,0,0,0-.781.781l-2.673,4.888a1.964,1.964,0,0,1-3.447,0l-2.674-4.888a1.964,1.964,0,0,0-.781-.781l-4.888-2.674a1.965,1.965,0,0,1,0-3.447l4.888-2.673a1.965,1.965,0,0,0,.781-.781" transform="translate(1046.052 1024.493) rotate(11)" fill="#7051c8"/>
    <path id="Trazado_7802" data-name="Trazado 7802" d="M831.086,118.681l2.674-4.888a1.964,1.964,0,0,1,3.447,0l2.673,4.888a1.968,1.968,0,0,0,.781.781l4.888,2.673a1.965,1.965,0,0,1,0,3.447l-4.888,2.674a1.966,1.966,0,0,0-.781.781l-2.673,4.888a1.964,1.964,0,0,1-3.447,0l-2.674-4.888a1.964,1.964,0,0,0-.781-.781l-4.888-2.674a1.965,1.965,0,0,1,0-3.447l4.888-2.673a1.965,1.965,0,0,0,.781-.781" transform="translate(519.068 1524.724)" fill="#7051c8"/>
    <path id="Trazado_7799" data-name="Trazado 7799" d="M16,8A8,8,0,1,1,8,0a8,8,0,0,1,8,8" transform="translate(1160 1221)" fill="#7051c8"/>
    <path id="Trazado_7799-2" data-name="Trazado 7799" d="M12,6A6,6,0,1,1,6,0a6,6,0,0,1,6,6" transform="translate(1795 1661)" fill="#7051c8"/>
    <path id="Trazado_7799-3" data-name="Trazado 7799" d="M12,6A6,6,0,1,1,6,0a6,6,0,0,1,6,6" transform="translate(97 1649)" fill="#7051c8"/>
    <path id="Trazado_7799-4" data-name="Trazado 7799" d="M18,9A9,9,0,1,1,9,0a9,9,0,0,1,9,9" transform="translate(97 1236)" fill="#7051c8"/>
    <path id="Trazado_7805" data-name="Trazado 7805" d="M93.353,57.042c-.984,4.453-10.971,6.318-25.078,5.441A16.477,16.477,0,0,0,51.932,72.908c-5.152,13.161-11.054,21.43-15.507,20.446s-6.317-10.971-5.441-25.077A16.479,16.479,0,0,0,20.557,51.932C7.386,46.778-.906,40.871.08,36.418c.989-4.478,10.992-6.344,25.1-5.453A16.479,16.479,0,0,0,41.54,20.539C46.7,7.364,52.6-.9,57.049.08s6.317,10.97,5.438,25.092A16.477,16.477,0,0,0,72.928,41.524c13.155,5.136,21.416,11.04,20.426,15.518" transform="translate(1621.552 1471.545)" fill="#7051c8"/>
    <path id="Trazado_7805-2" data-name="Trazado 7805" d="M76.835,46.949c-.81,3.665-9.03,5.2-20.64,4.479a13.562,13.562,0,0,0-13.452,8.58C38.5,70.84,33.645,77.646,29.98,76.836s-5.2-9.03-4.478-20.64A13.563,13.563,0,0,0,16.92,42.743C6.079,38.5-.745,33.639.066,29.974c.814-3.685,9.047-5.221,20.655-4.488A13.563,13.563,0,0,0,34.19,16.905C38.433,6.061,43.29-.745,46.955.066s5.2,9.029,4.476,20.652a13.561,13.561,0,0,0,8.593,13.459C70.851,38.4,77.65,43.264,76.835,46.949" transform="matrix(0.966, -0.259, 0.259, 0.966, 249.546, 1352.323)" fill="#7051c8"/>
  </g>
</svg>
