<svg xmlns="http://www.w3.org/2000/svg" xmlns:xlink="http://www.w3.org/1999/xlink" width="103.846" height="134.566" viewBox="0 0 103.846 134.566">
  <defs>
    <clipPath id="clip-path">
      <rect id="Rectángulo_412" data-name="Rectángulo 412" width="83.965" height="121.836" fill="none"/>
    </clipPath>
  </defs>
  <g id="Grupo_3409" data-name="Grupo 3409" transform="matrix(0.985, 0.174, -0.174, 0.985, 21.157, 0)">
    <g id="Grupo_3408" data-name="Grupo 3408" clip-path="url(#clip-path)">
      <path id="Trazado_7523" data-name="Trazado 7523" d="M83.884,109.83a1.03,1.03,0,0,1-.164,1.086A1.079,1.079,0,0,1,83.326,112c-22,18.382-61.114,7.777-82.915-5.64A.849.849,0,0,1,.74,104.8a.58.58,0,0,1-.082-.691C15.142,76.241,24.81,46.481,38.095,18.12c-1.956-.2-3.9-.411-5.853-.625-1.151-.115-3.206.1-4.11-.838-.823-.855-.378-1.791-.017-2.761.838-2.253,1.594-4.406.937-6.839A1.092,1.092,0,0,1,30.63,5.839a25.4,25.4,0,0,1,7.415,4.783c-.674-2.81-1.315-5.623-2.2-8.385A1.135,1.135,0,0,1,36.927.808,29.046,29.046,0,0,0,44.08.035a1.164,1.164,0,0,1,1.4.789c.871,2.844-.263,5.836-.887,8.632-.2.837-.313,2.185-.543,3.468a33.248,33.248,0,0,0,7.4-6.938c.477-.674,1.71-.723,1.907.247a91.708,91.708,0,0,0,2.434,10.029,1.165,1.165,0,0,1-1.1,1.447c-3.387.181-6.791.411-10.177.608C52.449,30.8,58.268,44.344,63.677,58.106Q73.864,83.927,83.884,109.83m-2.614.4q-2.713-6.906-5.426-13.844a1.192,1.192,0,0,1-.592.017c-19.862-5.426-40.216-11.279-55.836-25.3-2.268,5.343-4.653,10.6-7.251,15.751,19.3,14.879,39.361,24.761,64.188,26.717a31.224,31.224,0,0,0,4.916-3.337m-6.346-16.2q-4.045-10.283-8.089-20.568a.919.919,0,0,1-.559.017c-14.37-3.453-28.3-11.065-39.492-20.684C24.563,58.5,22.327,64.205,19.96,69.829,35.908,82.834,55.375,88.7,74.924,94.03M65.98,71.259q-1.9-4.858-3.815-9.717c-1.891-4.834-3.831-9.634-5.87-14.4a.8.8,0,0,1-.707.066A69.073,69.073,0,0,1,33.474,35.712c-2.087,5.212-4.127,10.49-6.165,15.751a152.468,152.468,0,0,0,38.671,19.8m-25.156,46.48c10.391,1.267,21.966,1.579,31.814-2.4-22.163-2.022-45.461-11.114-61.162-27.128a159.965,159.965,0,0,1-9.749,16.523.642.642,0,0,1-.3.231c12.446,6.461,25.435,11.1,39.394,12.774M53.171,15.489A54.3,54.3,0,0,1,51.609,8.8a25.367,25.367,0,0,1-7.974,5.8,5.046,5.046,0,0,1-.658,1.3c.017.017.017.049.033.066.033,0,.049-.017.082-.017,3.354-.181,6.725-.312,10.079-.46m-10.8-6.642c.461-1.957,1.316-4.276,1.118-6.364a31.285,31.285,0,0,1-5.1.576,72.283,72.283,0,0,1,2.22,10.7l.1.148a1.541,1.541,0,0,1,.657.1,39.418,39.418,0,0,0,1-5.162m13.022,36.17A179.2,179.2,0,0,0,41.12,17.973c-2.516,5.343-4.834,10.819-7.086,16.342a84.962,84.962,0,0,0,21.357,10.7m-16.1-29.463q-.173-.666-.345-1.331a35,35,0,0,0-7.5-5.64,10.4,10.4,0,0,1-.033,1.43c-.181,1.579-.954,2.927-1.249,4.456-.477.559-.477.788,0,.706a4.881,4.881,0,0,1,1.184.1c.888.082,1.792.181,2.68.28,1.661.181,3.337.362,5,.559.1-.18.181-.378.263-.559" transform="translate(0 0)" fill="#222221"/>
      <path id="Trazado_7524" data-name="Trazado 7524" d="M73.563,90.408a.806.806,0,1,1-.625,1.48c-.838-.4-1.677-.789-2.516-1.168a15.64,15.64,0,0,0-1.956-.954.574.574,0,0,1-.23.164.632.632,0,0,1-.4-1.2c.674-.345,1.842.345,2.482.559,1.069.378,2.17.739,3.239,1.118" transform="translate(-8.488 -11.158)" fill="#222221"/>
      <path id="Trazado_7525" data-name="Trazado 7525" d="M72.971,86.985c1.036.263.51,1.956-.444,1.562a30.967,30.967,0,0,1-6.495-3.42.38.38,0,0,1,.378-.657,42.8,42.8,0,0,0,6.56,2.516" transform="translate(-8.291 -10.628)" fill="#222221"/>
      <path id="Trazado_7526" data-name="Trazado 7526" d="M47.378,48.78c.756.329.2,1.431-.526,1.25a24.721,24.721,0,0,1-8.763-4.621c-.608-.46-.05-1.512.608-1.052a51.321,51.321,0,0,0,8.681,4.423" transform="translate(-4.762 -5.57)" fill="#222221"/>
      <path id="Trazado_7527" data-name="Trazado 7527" d="M45.451,51.4c.789.394.1,1.545-.691,1.167-1.907-.92-3.831-1.906-5.672-2.992-.494-.28-.149-1.151.394-.92,2.023.822,4.012,1.759,5.968,2.746" transform="translate(-4.891 -6.12)" fill="#222221"/>
      <path id="Trazado_7528" data-name="Trazado 7528" d="M45.012,111.655a.782.782,0,1,1-.954,1.233c-1.956-1.53-3.946-3.009-5.952-4.505-.625-.461-.033-1.513.625-1.052,2.072,1.463,4.16,2.927,6.28,4.324" transform="translate(-4.764 -13.497)" fill="#222221"/>
      <path id="Trazado_7529" data-name="Trazado 7529" d="M41.9,112.405c.707.394.2,1.628-.543,1.316a28.287,28.287,0,0,1-8.533-5.821c-.329-.329.115-.937.494-.657a81.242,81.242,0,0,0,8.582,5.163" transform="translate(-4.118 -13.492)" fill="#222221"/>
      <path id="Trazado_7530" data-name="Trazado 7530" d="M41.61,126.885a.792.792,0,0,1-.411,1.529c-2.91-.691-5.771-1.693-8.615-2.565a.691.691,0,0,1,.361-1.332c2.894.773,5.837,1.414,8.665,2.368" transform="translate(-4.041 -15.672)" fill="#222221"/>
      <path id="Trazado_7531" data-name="Trazado 7531" d="M37.475,128.991c.855.312.51,1.677-.394,1.4-2.581-.789-5.2-1.809-7.711-2.812-.559-.23-.362-1.118.263-.954,2.614.707,5.294,1.463,7.843,2.368" transform="translate(-3.656 -15.938)" fill="#222221"/>
    </g>
  </g>
</svg>
