<svg xmlns="http://www.w3.org/2000/svg" xmlns:xlink="http://www.w3.org/1999/xlink" width="107.671" height="111.103" viewBox="0 0 107.671 111.103">
  <defs>
    <clipPath id="clip-path">
      <rect id="Rectángulo_411" data-name="Rectángulo 411" width="90" height="94.454" fill="none"/>
    </clipPath>
  </defs>
  <g id="Grupo_3407" data-name="Grupo 3407" transform="matrix(0.978, -0.208, 0.208, 0.978, 0, 18.712)">
    <g id="Grupo_3406" data-name="Grupo 3406" transform="translate(0 0)" clip-path="url(#clip-path)">
      <path id="Trazado_7513" data-name="Trazado 7513" d="M86.856,3.349c4.028,3.219,3.12,8.135,2.9,12.776-.375,8.826-1.007,17.634-1.54,26.439q-.712,12.264-1.461,24.546c-.395,6.812.177,14.592-1.3,21.247-.829,3.751-1.461,4.58-4.957,5.39-6.891,1.58-16.408.02-23.557,0-17.97-.059-35.938-.079-53.888-.395a1.484,1.484,0,0,1-1.007-2.508,1.394,1.394,0,0,1,1.007-.414c13.467-.2,26.934-.159,40.421-.178H62.706c8.274.02,16.745,1.58,19.608-8.036,1.659-5.509.789-13.092,1.145-18.878q.592-9.448,1.145-18.878c.572-9.538,6.259-35.5-3.831-39.433-5.588-2.192-15.54-.376-21.563-.435-6.437-.059-12.875-.139-19.312-.2-6.417-.059-12.855-.139-19.291-.2-2.409-.02-5.372-.513-7.721-.079Q8.118,2.372,7.258,7.278a8.042,8.042,0,0,0-1.876,6.991C2.2,39.168,4.3,65.037,2.164,90.113a1.009,1.009,0,0,1-.236.613,1.041,1.041,0,0,1-1.876-.613c-.276-17.711.612-35.4,1.224-53.1.3-8.847.533-17.692.908-26.539.159-4.265-.217-7.128,3.595-9.32C9.944-1.252,19.758.841,24.457.881q12.558.118,25.1.256c8.372.08,16.744.1,25.1.237,3.653.059,9.063-.533,12.2,1.975" transform="translate(0 0)" fill="#222221"/>
      <path id="Trazado_7514" data-name="Trazado 7514" d="M80.745,13.266c.119,1.343-1.955,1.323-2.093,0a6.438,6.438,0,0,0-3.2-4.838.738.738,0,0,1,.573-1.343,6.962,6.962,0,0,1,4.719,6.18" transform="translate(3.741 0.351)" fill="#222221"/>
      <path id="Trazado_7515" data-name="Trazado 7515" d="M77.81,12.512a.886.886,0,0,1-1.619.671c-.751-.967-1.145-1.915-2.272-2.567A5.256,5.256,0,0,0,70.385,10a.738.738,0,0,1-.4-1.421,6.362,6.362,0,0,1,4.66.435c1.3.632,2.943,1.975,3.16,3.495" transform="translate(3.459 0.415)" fill="#222221"/>
      <path id="Trazado_7516" data-name="Trazado 7516" d="M75.245,77.5a1.138,1.138,0,0,1,.572,1.836c-3.04,3.732-8.372,5-12.914,3.891-1.125-.277-.632-1.955.473-1.719a11.2,11.2,0,0,0,9.933-2.823,13.706,13.706,0,0,1-7.879.967.638.638,0,0,1,0-1.224c1.4-.375,2.863-.435,4.284-.849a22.236,22.236,0,0,0,3.219-1.2,1.092,1.092,0,0,1,.3-1.067c1.58-1.54,3.337.751,2.015,2.192" transform="translate(3.101 3.726)" fill="#222221"/>
      <path id="Trazado_7517" data-name="Trazado 7517" d="M77.63,67.915a1.541,1.541,0,0,1-3.08,0c-.356-17.732-1.719-35.879-.79-53.612-10.13-.236-20.239-.572-30.369-.888l-11.532-.356c-3.14-.1-12.776-2.053-15.343-.473-5.529,3.337-3.179,18.443-3.277,24.762-.159,10.011.276,20.082-.475,30.074,0,.039-.02.059-.02.119,20.1-.869,40.263-.751,60.384-.829a1.26,1.26,0,0,1,1.3,1.2,1.307,1.307,0,0,1-1.3,1.54c-20.4.177-40.834.573-61.213-.059a.926.926,0,0,1-.612-1.58.873.873,0,0,1-.157-.395c-2.133-18.483-.731-37.834.1-56.376a1.454,1.454,0,0,1,1.421-1.421c20.476.612,40.974,1.105,61.45,1.836a1.409,1.409,0,0,1,.77.3.968.968,0,0,1,.849.888c2.369,18.108,1.817,37.045,1.9,55.27" transform="translate(0.499 0.48)" fill="#222221"/>
      <path id="Trazado_7518" data-name="Trazado 7518" d="M63.289,37.948A18.671,18.671,0,0,1,45.557,60.912c-11.058.356-27.526-8.787-23.241-21.7.315-.928,1.935-.829,1.8.237-2.784,21.6,39.849,25.827,36.135-.672-.256-1.935,2.568-2.844,3.041-.829" transform="translate(1.077 1.834)" fill="#222221"/>
      <path id="Trazado_7519" data-name="Trazado 7519" d="M54.766,30.376c.789,2.448-2.192,5.154-4.5,3.712a2.493,2.493,0,0,1-.652-.711,2.6,2.6,0,0,1-.692-3.752,3.379,3.379,0,0,1,5.845.751" transform="translate(2.412 1.408)" fill="#222221"/>
      <path id="Trazado_7520" data-name="Trazado 7520" d="M31.485,29.6c2.429-1.461,5.272,1.105,4.443,3.673-.751,2.31-4.048,3.593-5.588,1.263a3.469,3.469,0,0,1,.257-4.067,2.349,2.349,0,0,1,.888-.869" transform="translate(1.484 1.453)" fill="#222221"/>
      <path id="Trazado_7521" data-name="Trazado 7521" d="M22.6,71.788a.939.939,0,0,1,0,1.876c-2.8-.04-5.608-.139-8.392-.276a.662.662,0,0,1,0-1.324c2.784-.138,5.588-.217,8.392-.276" transform="translate(0.676 3.576)" fill="#222221"/>
      <path id="Trazado_7522" data-name="Trazado 7522" d="M21.284,68.44c1.3-.1,1.323,2.015,0,2.053-3.456.06-6.911.159-10.367.237-.948.02-.928-1.383,0-1.461,3.456-.276,6.911-.533,10.367-.829" transform="translate(0.509 3.409)" fill="#222221"/>
    </g>
  </g>
</svg>
