<svg id="Grupo_3411" data-name="Grupo 3411" xmlns="http://www.w3.org/2000/svg" xmlns:xlink="http://www.w3.org/1999/xlink" width="140.69" height="126.711" viewBox="0 0 140.69 126.711">
  <defs>
    <clipPath id="clip-path">
      <rect id="Rectángulo_413" data-name="Rectángulo 413" width="140.69" height="126.711" fill="none"/>
    </clipPath>
  </defs>
  <g id="Grupo_3410" data-name="Grupo 3410" clip-path="url(#clip-path)">
    <path id="Trazado_7532" data-name="Trazado 7532" d="M142.782,66.5c.938.615.048,2.151-.89,1.52a40.751,40.751,0,0,0-6.065-3.316,5.424,5.424,0,0,0,3.445,4.2c1.1.437.7,2.168-.5,1.828a6.7,6.7,0,0,1-4.5-5.289,54.369,54.369,0,0,1-9.024,10.432,1.118,1.118,0,0,1,.307.728c.469,9.931,4.61,19.052,5.936,28.837a1.265,1.265,0,0,1-1.828,1.407c-9.542-4.577-19.23-9.041-28.513-14.119q-1.263,14.847-3.381,29.6c-.145.986-1.39,1-1.989.534-8.88-7.02-17.533-14.7-24.584-23.6-.308.081-.615.162-.923.226a.987.987,0,0,1,.631,1.261,194.581,194.581,0,0,1-7.035,19.8c-1.893,4.513-3.591,10.124-6.809,13.828a1.174,1.174,0,0,1-1.132.291c-4.221-1.067-5.87-8.394-7.5-11.952a146.682,146.682,0,0,1-7.764-20.071v-.065a78.156,78.156,0,0,1-10.383-1.2,33.6,33.6,0,0,1-4.335,4.868.973.973,0,0,1-1.375-1.375c.211-.226.42-.436.647-.663a23.564,23.564,0,0,1-6.437,2.75.815.815,0,0,1-.437-1.569,60.714,60.714,0,0,0,9.187-4.577A9.472,9.472,0,0,1,21.5,99.073c-1.439-1.019-3.461-3.057-1.957-4.869,1.2-1.439,3.526-1.019,4.949-.162a9.332,9.332,0,0,1,2.539,2.394c-.226-1.569-.064-3.186,1.294-4.2a2.919,2.919,0,0,1,4.14.323c1.278,1.811.048,4.884-.825,6.615-.162.323-.372.63-.55.954,18.876,2.668,37.749-2.135,55.8-7.5,17.613-5.24,34.288-12.777,45.269-27.965a8.687,8.687,0,0,1-3.85-.727c-1.277-.582-3.363-1.8-3.089-3.494.34-1.989,2.6-2.038,4.06-1.439a13.619,13.619,0,0,1,3.768,2.313,4.079,4.079,0,0,1,1-3.461,2.807,2.807,0,0,1,3.509-.259c1.392,1.116.584,3.138-.081,4.447a5.5,5.5,0,0,1-1.114,1.52,23.354,23.354,0,0,1,6.42,2.944m-6.922-5.256c.21-.42,1-1.942.566-2.3-.518-.42-1.342.113-1.586.566a5.725,5.725,0,0,0-.291,2.912.581.581,0,0,1-.033.178,2.514,2.514,0,0,0,1.343-1.359m-5.192,1.617a7.458,7.458,0,0,0,1.439.162,11.947,11.947,0,0,0-1.683-1.261c-.5-.308-3.4-1.925-2.863-.486.292.841,2.314,1.391,3.106,1.586m-1.957,40.773c-1.52-8.782-4.982-17.144-5.4-26.1a82.276,82.276,0,0,1-22.157,12.648.988.988,0,0,1,.177.647c-.015.064-.015.145-.031.226,9.282,3.817,18.356,8.249,27.413,12.583M95.718,119.776Q97.682,105.414,99.049,91c-2.9,1.1-5.822,2.086-8.765,3.009-5.726,1.763-11.548,3.445-17.436,4.851,7.44,7.246,14.783,14.41,22.87,20.913M68.756,100.157a1.024,1.024,0,0,1,.194-.371,110.7,110.7,0,0,1-26.832,2.862c2.28,5.143,4.415,10.367,6.729,15.51,1.034,2.28,2.085,4.544,3.185,6.793.291.6,2.766,6.567,3.381,6.712,3.509.841,12.13-27.657,13.343-31.506M29.664,98.9c.874-1.488,1.731-3.04.825-4.593-.275-1.213-.7-1.31-1.261-.323a1.2,1.2,0,0,0-.744,1.342,6.691,6.691,0,0,0,.259,2.814.64.64,0,0,1-.34.711c.032.082.064.178.1.26a.642.642,0,0,1,0,.388.757.757,0,0,1,.307.291c.081.015.145.015.226.032.211-.307.437-.6.631-.922m-2.717.42c-1.23-1.763-2.475-4.237-4.884-4.254-1.65-.016-.567,1.7.129,2.28a8.291,8.291,0,0,0,1.52,1.019,8.959,8.959,0,0,0,3.235.954" transform="translate(-2.492 -8)" fill="#222221"/>
    <path id="Trazado_7533" data-name="Trazado 7533" d="M135.47,98.82c.663.615-.242,1.8-.971,1.261A35.618,35.618,0,0,1,130,96.2c-.485-.518.146-1.408.776-1a34.852,34.852,0,0,1,4.691,3.623" transform="translate(-18.194 -13.326)" fill="#222221"/>
    <path id="Trazado_7534" data-name="Trazado 7534" d="M132.217,100.743a.776.776,0,0,1-.744,1.294c-2.443-.938-4.739-3.154-6.55-5-.566-.582.275-1.375.889-.874,1.084.874,2.184,1.746,3.332,2.523a33.818,33.818,0,0,1,3.073,2.054" transform="translate(-17.48 -13.454)" fill="#222221"/>
    <path id="Trazado_7535" data-name="Trazado 7535" d="M108.921,106.994a16.721,16.721,0,0,1-1.245,7.052.5.5,0,0,1-.971-.275c.178-1.132.437-2.232.582-3.38.162-1.132.146-2.28.291-3.4a.671.671,0,0,1,1.342,0" transform="translate(-14.952 -14.902)" fill="#222221"/>
    <path id="Trazado_7536" data-name="Trazado 7536" d="M105.981,105.366a.687.687,0,0,1,1.326.356,53.235,53.235,0,0,1-1.8,5.207.5.5,0,0,1-.97-.259,49.294,49.294,0,0,1,1.439-5.3" transform="translate(-14.648 -14.696)" fill="#222221"/>
    <path id="Trazado_7537" data-name="Trazado 7537" d="M62.641,131.969a.547.547,0,0,1-1.052.292c-.533-1.439-1.148-2.879-1.552-4.351a.73.73,0,0,1,1.407-.389c.518,1.439.825,2.961,1.2,4.448" transform="translate(-8.409 -17.799)" fill="#222221"/>
    <path id="Trazado_7538" data-name="Trazado 7538" d="M60.665,135.283c.033.566-.793.631-.938.129a20.039,20.039,0,0,0-.938-2.717c-.372-.792-.905-1.52-1.278-2.329-.275-.615.453-1.278.971-.744a9.256,9.256,0,0,1,2.183,5.66" transform="translate(-8.051 -18.137)" fill="#222221"/>
    <path id="Trazado_7539" data-name="Trazado 7539" d="M126.512,27.173c.852,1.578-.144,3.988-1.061,5.317a8.015,8.015,0,0,1-3.774,3.029,6.622,6.622,0,0,0,5.017,3.258.856.856,0,0,1-.064,1.709,7.337,7.337,0,0,1-6.317-4.265,46.311,46.311,0,0,0,.97,5.121c.279,1.047-1.453,1.454-1.654.389a25.615,25.615,0,0,1-.574-6.2c-3.55.518-7.118.89-10.711,1.152.378,9.465.12,18.978.085,28.456a1.215,1.215,0,0,1-1.569,1.1c-2.892-.782-4.347-3.3-6.268-5.539-2.485-2.872-4.935-5.8-7.308-8.767A163.8,163.8,0,0,1,82.637,65.384a1.157,1.157,0,0,1-1.914-.58c-1.518-8.8-3.163-17.648-4.236-26.534q-2.674,13.662-6.423,27.059a1.173,1.173,0,0,1-1.952.458,62.653,62.653,0,0,1-9.765-12.576c-4.069,3.049-8.126,6.078-12.171,9.154-.733.555-2.22.239-2.046-.931,1.335-9.1,2.393-18.256,3.747-27.345-3.921,8.065-8.045,16.043-12.118,24.027a1.179,1.179,0,0,1-2.04-.052,73.793,73.793,0,0,1-6.949-18.7,166.958,166.958,0,0,0-17.233,7.55,1.281,1.281,0,0,1-1.811-1.485c3.094-9.963,6-20.082,9.687-29.853-2.527-1.566-5-3.194-7.406-4.939a20.555,20.555,0,0,0-2.042,6.443c-.134,1.128-1.887,1.091-1.8-.077a15,15,0,0,1,1.4-5.229,12.42,12.42,0,0,0-.85,1.047c-.936,1.316-1.593,2.766-2.409,4.17a.818.818,0,0,1-1.47-.668,17.246,17.246,0,0,1,4.4-6.582C3.659,9.067-1.565,7.27.447,4.305c1.071-1.6,3.506-1.488,5.028-.732a5.138,5.138,0,0,1,1.057.682A5.806,5.806,0,0,1,6.8,2.914C7.345,1.274,8.962-.4,10.853.085c3.983,1.041,1.942,6.854.171,9.362C43.612,29.159,79.829,38.781,117.9,33.5a8.652,8.652,0,0,1-3.194-4.268c-.451-1.422-.334-3.261,1.218-3.941,1.414-.63,3.005.275,3.836,1.408a6.172,6.172,0,0,1,.89,3.364,8.1,8.1,0,0,1,1.629-2.327c1.051-1.044,3.229-2.452,4.237-.563m-1.674,2.138c.025-.1.247-1.071.091-1.168-.21-.117-.563.149-.741.241a5.68,5.68,0,0,0-1.439,1.368,7.508,7.508,0,0,0-1.36,3.476.614.614,0,0,1-.094.238,5.991,5.991,0,0,0,3.544-4.155m-6.291,1.228c0-.98.162-2.779-1.048-3.26-1.794-.708-.846,1.844-.487,2.524a7.5,7.5,0,0,0,1.582,2.071c-.037-.44-.039-.871-.047-1.335M106.022,63.167c.079-8.79.006-17.595.489-26.364a161.935,161.935,0,0,1-29.044-.79c2.086,8.531,3.554,17.258,5.089,25.918q4.879-5.755,9.245-11.923a1.18,1.18,0,0,1,.6-.423.717.717,0,0,1,1.011.062c.046.056.113.123.158.179a1.07,1.07,0,0,1,.24.242c2.188,2.244,4.321,4.535,6.441,6.845,1.587,1.737,3.561,4.763,5.771,6.254M74.7,36.181a.957.957,0,0,1,.238-.471,154.481,154.481,0,0,1-24.954-5.455,266.867,266.867,0,0,1-3.023,28.521q5.033-3.724,10.033-7.44a1.208,1.208,0,0,1,1.249-.126.542.542,0,0,1,.6.208,125.392,125.392,0,0,0,9.508,11.275Q71.886,49.526,74.7,36.181M34.782,54.807c4.23-8.452,8.416-16.945,12.874-25.268A139.459,139.459,0,0,1,18.962,16.506c-2.261,9.053-5.147,17.988-7.955,26.9a165.511,165.511,0,0,1,15.387-6.354.959.959,0,0,1,.757.038.468.468,0,0,1,.458.325c2.309,5.87,4.446,11.715,7.172,17.388M9.877,7.956C10.833,6.369,11.8,4.481,11.2,2.695c-.827-2.464-2.849.32-3.07,1.5a4.432,4.432,0,0,0,0,1.777,8.977,8.977,0,0,1,1.09,2.169,1.3,1.3,0,0,0,.2-.131.482.482,0,0,1,.452-.056m-2.654.091A9.487,9.487,0,0,0,5.82,6.1a4.127,4.127,0,0,0-1.555-.964c-.488-.168-2.342-.5-2.01.638.247.839,2.751,1.6,3.512,1.868.488.168.965.288,1.457.4" transform="translate(0 0)" fill="#222221"/>
    <path id="Trazado_7540" data-name="Trazado 7540" d="M120.006,48.148a.79.79,0,0,1,1.538.254,28.1,28.1,0,0,0-.129,3.2c.1.974.491,1.879.587,2.853.044.471-.617.627-.9.328-1.4-1.433-1.829-4.82-1.093-6.638" transform="translate(-16.767 -6.672)" fill="#222221"/>
    <path id="Trazado_7541" data-name="Trazado 7541" d="M117,47a.9.9,0,0,1,1.8.077,30.505,30.505,0,0,1-.173,5.772c-.1.705-1.206.948-1.347.134A33.136,33.136,0,0,1,117,47" transform="translate(-16.391 -6.47)" fill="#222221"/>
    <path id="Trazado_7542" data-name="Trazado 7542" d="M63.884,51.079c.729-.5,1.6.721.908,1.249a43.194,43.194,0,0,1-4.844,3.214.587.587,0,0,1-.684-.936,40.883,40.883,0,0,1,4.621-3.527" transform="translate(-8.279 -7.141)" fill="#222221"/>
    <path id="Trazado_7543" data-name="Trazado 7543" d="M63.561,55.231c.646-.434,1.314.572.785,1.078a19.6,19.6,0,0,1-4.473,3.31c-.356.183-.856-.248-.572-.6a20.049,20.049,0,0,1,4.26-3.791" transform="translate(-8.298 -7.725)" fill="#222221"/>
    <path id="Trazado_7544" data-name="Trazado 7544" d="M23.786,36.07c.57-.616,1.621.251,1.132.93-.982,1.41-1.983,2.807-2.984,4.206-.36.517-1.269.182-1.04-.47a13.461,13.461,0,0,1,2.892-4.666" transform="translate(-2.923 -5.025)" fill="#222221"/>
    <path id="Trazado_7545" data-name="Trazado 7545" d="M18.878,37.446c.344-.729,1.525-.158,1.286.6A31.417,31.417,0,0,1,17.8,43.547c-.334.56-1.135.117-1.005-.462a31.3,31.3,0,0,1,2.082-5.639" transform="translate(-2.352 -5.2)" fill="#222221"/>
  </g>
</svg>
