<svg xmlns="http://www.w3.org/2000/svg" xmlns:xlink="http://www.w3.org/1999/xlink" width="135.053" height="144.503" viewBox="0 0 135.053 144.503">
  <defs>
    <clipPath id="clip-path">
      <rect id="Rectángulo_414" data-name="Rectángulo 414" width="120" height="130.855" fill="none"/>
    </clipPath>
  </defs>
  <g id="Grupo_3413" data-name="Grupo 3413" transform="translate(0 14.624) rotate(-7)">
    <g id="Grupo_3412" data-name="Grupo 3412" clip-path="url(#clip-path)">
      <path id="Trazado_7546" data-name="Trazado 7546" d="M116.358,117.793c3.243,2.418,4.69,7.565,2.8,11.192a1.514,1.514,0,0,1-1.539,1.869c-37.734-1.025-75.927.476-113.57-2.015A.958.958,0,0,1,3.1,128c-4.14-1.612-3.938-7.656-.55-10a5.905,5.905,0,0,1,3.5-1.044.511.511,0,0,1-.092-.293,72.245,72.245,0,0,1,.422-18.117,1.152,1.152,0,0,1,.092-.275c-.422-6.851,5.679-9.4,12.712-10.239A8.491,8.491,0,0,1,24.274,76.89c-.531-6.21-2.564-16.871,3.371-21.157,6.87-4.946,20.095-2.327,28.081-2.052.312-9.251.422-18.427.549-27.678a.806.806,0,0,1,.293-.6.747.747,0,0,1,.6-1.044c1.044-.036,2.106-.019,3.15-.019a18.7,18.7,0,0,1,.367-9.58c-.184-.019-.367-.037-.569-.073A6.248,6.248,0,0,1,55.6,7.356,9.039,9.039,0,0,1,61.4.688a.107.107,0,0,0,.019-.073.89.89,0,0,1,1.7.037.653.653,0,0,1,.056.659c.183,1.96,2.436,3.5,3.022,5.422a7.423,7.423,0,0,1,.037,4.194,5.294,5.294,0,0,1-3.609,3.682.607.607,0,0,1,0,.183,44.262,44.262,0,0,0-.861,5.128c-.11,1.484-.019,2.95-.073,4.415q2.089.056,4.177.166a1.068,1.068,0,0,1,.915.641,1.17,1.17,0,0,1,.458.861,235.974,235.974,0,0,1-.476,27.4c7.4-.33,15.222-.44,21.34,2.161,9.452,3.994,5.643,13.079,7.767,21.194a1.167,1.167,0,0,1-.678,1.447,8.5,8.5,0,0,1,5.716,10.4c2.363.036,4.726.073,7.089.128a1.269,1.269,0,0,1,1.154.733c3.389.842,5.074,3.517,5.77,7.089,1.319,6.741,1.154,14.177,1.447,21.01.019.092-.019.147-.019.22m.422,9.763c.641-2.857.7-5.916-2.088-7.821a5.333,5.333,0,0,0-2.986-.9,5.785,5.785,0,0,0-5.074,2.931c.018,1.117-1.906,1.5-2.437.219-2.693-6.539-10.368-5.788-13.921-.641a1.211,1.211,0,0,1-2.217.788c-3.994-6.319-16.211-8.939-18.868.2a.334.334,0,0,1,.037.128,1.141,1.141,0,0,1-2.2.6c-1.045-2.8-2.748-5.421-5.953-5.843a5.562,5.562,0,0,0-6.027,4.011,5.815,5.815,0,0,1,.129,1.374,1.2,1.2,0,0,1-1.246,1.154.983.983,0,0,1-1.025-.842c-.44-2.364-1.557-4.543-4.085-5.185-3.04-.769-5.642,1.484-6.7,4.122a.8.8,0,0,1-.513.458,1.061,1.061,0,0,1-1.85-.33c-1.209-7.052-9.4-4.891-12.089-.036a.77.77,0,0,1-1.081.256,1.19,1.19,0,0,1-1.007-.714c-2.693-6.43-10.661-5.129-12.914.787a.767.767,0,0,1-.549.495c-.073.9-1.612,1.044-1.776.092-.55-3.132-3.774-5.147-6.613-3.113-2.729,1.978-1.722,5,.092,7.107a1.112,1.112,0,0,1,.239-.056c16.468-1.173,33.137-1.374,49.842-1.117,21.029.293,42.094,1.282,62.885,1.868M113.7,116.548c-.348-3.591-.641-7.18-.9-10.789-.311-4.415.476-11.943-4.415-14.361a1.324,1.324,0,0,1-.385.092c-15.826-.019-31.635-.33-47.461-.55L36.823,90.61c-7.785-.11-26.3-3.26-28.612,7.877a.636.636,0,0,1,.092.329,72.724,72.724,0,0,1-.879,18.044.555.555,0,0,1-.11.256,6.333,6.333,0,0,1,4.231,3.444c2.217-7.07,11.925-7.034,15.479-.952a8.8,8.8,0,0,1,8.39-4.488,7.542,7.542,0,0,1,6.026,4.066,7.174,7.174,0,0,1,7.034-3.847,7.8,7.8,0,0,1,5.6,3.572,7.3,7.3,0,0,1,6.393-4.011,9.183,9.183,0,0,1,7.785,4.964c1.282-3.407,5.221-5.44,8.829-5.715a14.133,14.133,0,0,1,12.108,5.532c3.444-6.686,12.621-5.916,16.449,0a7.56,7.56,0,0,1,8.06-3.132M98.571,88.229a6.273,6.273,0,0,0-6.136-8.042,11.255,11.255,0,0,0-9.1,4.525.775.775,0,0,1-.824.239,1.262,1.262,0,0,1-2.089-.806c-.842-7.785-10.807-3.737-14.159-.476a.863.863,0,0,1-.349.2c.2,1.062-1.465,1.722-1.959.7C61,78.392,53.492,78.08,50.1,84.107a.72.72,0,0,1-1.008.238c-.293,1.081-1.942,1.1-1.942-.147A5.327,5.327,0,0,0,40.8,78.941c-2.95.422-5.276,2.73-6.924,5.074a.7.7,0,0,1-.166.166c-.055.219-.109.421-.183.641a.862.862,0,0,1-1.685-.22c-.239-3.791-2.8-6.96-6.943-5.642-3.828,1.227-4.872,5.348-4.341,8.921,6.155-.549,12.749.019,16.266.056,20.571.165,41.16.256,61.713.622a1.142,1.142,0,0,1,.036-.329m-5-10.35a1.452,1.452,0,0,1-.2-.421c-1.923-7.291,1.593-17.622-8.463-20.15-7.126-1.776-15.717-.788-22.97-.915-7.822-.165-15.7-.642-23.521-.495-5.825.129-10,2.528-12.236,8.554-1.136,3.077-.239,8.481-.367,12.09,3.353-.312,7.09,1.96,7.877,5.165,2-2.93,5.056-5.238,8.774-4.927A7.37,7.37,0,0,1,49.132,82.7c3.2-6.631,12.713-6.65,16.138-.329,4.158-5.092,15.606-7.639,17.292.4a12.342,12.342,0,0,1,11.009-4.891M65.179,53.461c-.055-1.19-.11-2.4-.147-3.608-2.253-1.136-4.469-2.4-6.667-3.664-.275,2.546-.642,5.074-1.154,7.51,2.51.019,5.2-.11,7.968-.239M64.94,48c-.128-3.26-.2-6.558-.219-9.837a36.207,36.207,0,0,1-5.936-2.729,85.046,85.046,0,0,1-.293,9.434C60.654,45.878,62.815,46.9,64.94,48m-.219-11.576c0-3.279.092-6.576.293-9.818-2.364-.183-4.745-.44-7.108-.788a70.914,70.914,0,0,1,.806,8.243c2,.842,3.957,1.667,6.009,2.364M63.53,11.5c2.583-3.408-1.319-5.935-2.088-9.012-2.033,1.373-3.774,3.15-3.865,5.806-.11,2.894,3.682,6.21,5.953,3.206" transform="translate(0 0)" fill="#222221"/>
      <path id="Trazado_7547" data-name="Trazado 7547" d="M112.634,98.914c.092.549-.586,1.1-1.025.6A12.073,12.073,0,0,0,110,97.668a4.416,4.416,0,0,0-2.4-.879.614.614,0,0,1,0-1.227c1.906.019,4.672,1.227,5.038,3.352" transform="translate(-2.797 -2.498)" fill="#222221"/>
      <path id="Trazado_7548" data-name="Trazado 7548" d="M110.156,99.333a.759.759,0,0,1-.842,1.1c-.349-.055-.678-.109-1.025-.165-.569-.092-.642-.805-.349-1.19a2.447,2.447,0,0,0-1.282-.385.577.577,0,0,1,0-1.154,3.718,3.718,0,0,1,3.5,1.795" transform="translate(-2.773 -2.549)" fill="#222221"/>
      <path id="Trazado_7549" data-name="Trazado 7549" d="M107.11,105.734c1.557,1.722.568,4.341-1.393,5.2-1.9.861-4.542.147-5.293-1.942-.66-1.813.97-4.084,2.949-3.554a2.875,2.875,0,0,1,3.737.293m-2.693,3.3c.678-.165,1.374-.715,1.154-1.484-.129-.476-.788-.714-1.007-.165a1.068,1.068,0,0,1-2.052-.036.912.912,0,0,0,.036,1.153,1.966,1.966,0,0,0,1.869.532" transform="translate(-2.621 -2.742)" fill="#222221"/>
      <path id="Trazado_7550" data-name="Trazado 7550" d="M106.222,125.447c.532.861-.732,1.539-1.319.769a13.6,13.6,0,0,0-3.224-3.169.649.649,0,0,1,.659-1.117,10.387,10.387,0,0,1,3.884,3.517" transform="translate(-2.65 -3.185)" fill="#222221"/>
      <path id="Trazado_7551" data-name="Trazado 7551" d="M85.484,67.377a3.634,3.634,0,0,1-.7,5.477,3.594,3.594,0,0,1-5.111-1.832,3.5,3.5,0,0,1,1.539-3.865c.971-1.154,3.224-.952,4.268.22m-2.217,3.755a1.406,1.406,0,0,0,.147-2.564c-.367-.129-.586-.019-.642.165a1.015,1.015,0,0,1-1.337.659,2.2,2.2,0,0,0-.019.7,1.532,1.532,0,0,0,1.85,1.044" transform="translate(-2.079 -1.735)" fill="#222221"/>
      <path id="Trazado_7552" data-name="Trazado 7552" d="M83.237,106.1A3.988,3.988,0,0,1,81,111.414c-2.015.659-4.616-.769-4.745-3a3.237,3.237,0,0,1,2.711-3.3,2.127,2.127,0,0,1,1.9-.9,3.015,3.015,0,0,1,2.364,1.886M81.4,107.86c.073-.495-.348-1.722-.788-1.63a.459.459,0,0,1-.183.146.764.764,0,0,0-.146.22.9.9,0,0,1-1.393.239,1.36,1.36,0,0,0-.641,1.3,1.626,1.626,0,0,0,1.685,1.264A1.68,1.68,0,0,0,81.4,107.86" transform="translate(-1.993 -2.724)" fill="#222221"/>
      <path id="Trazado_7553" data-name="Trazado 7553" d="M77.194,112.093a.559.559,0,0,1,0,.971c-1.062.531-2.473-.183-3.334-.879a4.763,4.763,0,0,1-1.7-3.206c-.055-.568.879-.678.989-.128a3.681,3.681,0,0,0,1.594,2.418c.787.531,1.648.458,2.454.824" transform="translate(-1.886 -2.836)" fill="#222221"/>
      <path id="Trazado_7554" data-name="Trazado 7554" d="M75.206,113.725c.879.2.476,1.447-.366,1.319a8,8,0,0,1-5.789-4.4.469.469,0,0,1,.806-.476,8.37,8.37,0,0,0,5.348,3.554" transform="translate(-1.804 -2.874)" fill="#222221"/>
      <path id="Trazado_7555" data-name="Trazado 7555" d="M72.656,71.477c.458-.788,1.722,0,1.191.715L71.9,74.866c-.385.531-1.227.073-.9-.513.549-.952,1.1-1.9,1.649-2.876" transform="translate(-1.854 -1.86)" fill="#222221"/>
      <path id="Trazado_7556" data-name="Trazado 7556" d="M69.482,69.312c.715,2.069-1.209,4.341-3.114,4.8a.447.447,0,0,1-.238-.861,3.331,3.331,0,0,0,1.832-1.557,4.4,4.4,0,0,0,.366-2.217.593.593,0,0,1,1.154-.165" transform="translate(-1.72 -1.801)" fill="#222221"/>
      <path id="Trazado_7557" data-name="Trazado 7557" d="M63.906,67.309a3.366,3.366,0,0,1-1.667,5.019,3.429,3.429,0,0,1-4.415-3.352,3.363,3.363,0,0,1,4.268-2.967.486.486,0,0,1,.293.275,3.31,3.31,0,0,1,1.52,1.025m-2.327,3.114c.715-.293,1.209-1.393.568-1.978-.641-.55-1.356-.239-1.96.128a.719.719,0,0,1-.494.129c0,.092-.019.183-.019.275.055.842,1.025,1.777,1.9,1.447" transform="translate(-1.511 -1.722)" fill="#222221"/>
      <path id="Trazado_7558" data-name="Trazado 7558" d="M52.508,106.946a3.2,3.2,0,0,1-3.279,3.315,3.277,3.277,0,0,1-3.462-3.242,3.477,3.477,0,0,1,3.7-3.407.757.757,0,0,1,.494.292,3.467,3.467,0,0,1,2.547,3.041m-3.279,1.136a1.116,1.116,0,0,0,1.209-1.136,1.684,1.684,0,0,0-.9-1.466c-.019,0-.037.019-.073.019-.788.183-1.521.586-1.521,1.52a1.123,1.123,0,0,0,1.283,1.062" transform="translate(-1.196 -2.708)" fill="#222221"/>
      <path id="Trazado_7559" data-name="Trazado 7559" d="M46.011,62.654c.275.788-.915,1.062-1.209.33a4.215,4.215,0,0,0-2.675-2.528.514.514,0,0,1,.276-.989,5.033,5.033,0,0,1,3.608,3.187" transform="translate(-1.092 -1.554)" fill="#222221"/>
      <path id="Trazado_7560" data-name="Trazado 7560" d="M42.242,63.618c.164.549-.623,1.062-1.008.586-.935-1.154-1.923-2.069-3.536-1.667a.543.543,0,0,1-.293-1.044c1.759-.549,4.269.2,4.837,2.125" transform="translate(-0.968 -1.603)" fill="#222221"/>
      <path id="Trazado_7561" data-name="Trazado 7561" d="M41.657,67.8a3.919,3.919,0,0,1-2.912,4.671,3.394,3.394,0,0,1-4.36-2.454,3.187,3.187,0,0,1,2.638-3.884.581.581,0,0,1,.311.037,2.515,2.515,0,0,1,2.272-.495A2.875,2.875,0,0,1,41.657,67.8m-1.886,1.227c.22-1.025-.659-2.088-1.612-1.246a.821.821,0,0,1-1.246-.147c-1.264.806-.825,3.151.915,2.986a2.151,2.151,0,0,0,1.942-1.593" transform="translate(-0.897 -1.714)" fill="#222221"/>
      <path id="Trazado_7562" data-name="Trazado 7562" d="M24.763,105.28a3.2,3.2,0,0,1,1.19,2.913,3.914,3.914,0,0,1-4.048,3.095,3.308,3.308,0,0,1-3.186-3.974,3.4,3.4,0,0,1,3.847-2.931.615.615,0,0,1,.311.22,2.811,2.811,0,0,1,1.887.678m-.989,2.967a1.14,1.14,0,0,0-.146-1.3c-.386-.495-.879-.349-1.447-.459a.686.686,0,0,1-.513-.458,2.288,2.288,0,0,0-.879,1.429,1.3,1.3,0,0,0,.971,1.667,2.081,2.081,0,0,0,2.015-.879" transform="translate(-0.488 -2.727)" fill="#222221"/>
      <path id="Trazado_7563" data-name="Trazado 7563" d="M22.924,99.049c.769.293.458,1.52-.348,1.246a6.6,6.6,0,0,0-5.57.476.5.5,0,0,1-.494-.861,6.8,6.8,0,0,1,6.411-.861" transform="translate(-0.426 -2.578)" fill="#222221"/>
      <path id="Trazado_7564" data-name="Trazado 7564" d="M22.5,101.427c.7.165.4,1.191-.293,1.062a4.716,4.716,0,0,0-4.194,1.025.356.356,0,0,1-.495-.512,5.242,5.242,0,0,1,4.982-1.576" transform="translate(-0.455 -2.648)" fill="#222221"/>
    </g>
  </g>
</svg>
