<svg xmlns="http://www.w3.org/2000/svg" xmlns:xlink="http://www.w3.org/1999/xlink" width="67.213" height="77.003" viewBox="0 0 67.213 77.003">
  <defs>
    <clipPath id="clip-path">
      <rect id="Rectángulo_410" data-name="Rectángulo 410" width="67.213" height="77.003" fill="#fff"/>
    </clipPath>
  </defs>
  <g id="Grupo_3404" data-name="Grupo 3404" clip-path="url(#clip-path)">
    <path id="Trazado_7504" data-name="Trazado 7504" d="M66.957,58.874c-.053,6.465,2.16,14.642-5.53,16.169C49.615,77.388,36,76.518,23.978,76.584c-6.9.04-19.567,2.634-22.885-5.6-1.62-4.03-.949-9.283-.988-13.5Q.006,48.6.21,39.715c.106-5.162-.9-12.285.856-17.2.7-1.922,1.369-2.923,2.963-3.371a.832.832,0,0,1,.7-.33c3.634-.079,7.269-.105,10.9-.105C12.219,13.459,11.955,3,19.04.514,26.769-2.2,31.536,6.4,33.155,12.55a4.394,4.394,0,0,1,2.028.013,4.6,4.6,0,0,1,.606.2c1.9-3.556,4.319-7.216,7.532-9.717C45.257,1.555,48.628-.46,51.182.58c2.975,1.225,4.661,5.715,5.175,8.586a14.632,14.632,0,0,1-1.383,9.586c4.9-.013,9.691.869,11.205,5.768,1.291,4.161.593,9.665.685,13.971q.177,10.191.092,20.384m-2.357,0c.04-4.254.04-8.494,0-12.747s-.105-8.48-.211-12.733c-.158-6.018.435-10.336-7-11.89-4-.83-9.059-.092-13.168-.145l-3.963-.039c.474,8.665.145,17.381.368,26.059.237,8.809,1.014,17.605,1.185,26.415,2.384-.092,4.767-.172,7.15-.29,3.4-.185,9.375.632,12.469-.816,4.517-2.12,3.147-9.889,3.173-13.813M53.1,18.436a16.417,16.417,0,0,0,1.514-7.519c-.224-3.2-1.87-8.8-6.031-8.546-5.188.316-9.1,7.4-11.706,11.035a4.183,4.183,0,0,1,1.29,1.882,13.02,13.02,0,0,1,6.939-2.449c.935-.04.883,1.317,0,1.422a16.2,16.2,0,0,0-6.755,2.331,4.947,4.947,0,0,1-.632,2.317q4.563.079,9.125.118c1.8.027,3.964-.158,6.189-.237a.92.92,0,0,1,.066-.356m-14.063,2.87q-3.989-.039-7.979-.092c-1.778-.013-3.542-.04-5.306-.053.237,17.658.118,35.422-.119,53.079,3.608-.039,7.229-.118,10.837-.224,1.093-.039,2.2-.105,3.306-.145-2.067-16.907-2.62-35.592-.738-52.565m-3.858-2.423c.671-.79,1.4-1.383,1.264-2.555A2.18,2.18,0,0,0,34.67,14.42a2.242,2.242,0,0,0-2.529,1.067,3.758,3.758,0,0,0-.079,2.8.7.7,0,0,1-.118.553l3.239.039M30.759,14.17a4.007,4.007,0,0,1,1.067-1.04C30,8.375,26.7.37,20.054,2.305c-6.834,1.988-4.6,11.324-3.028,16.052a.827.827,0,0,1,.013.356q6.893.02,13.8.118a2.716,2.716,0,0,1-.79-1.843,61.89,61.89,0,0,1-6.333-4.161.529.529,0,0,1,.54-.909,59.086,59.086,0,0,1,5.965,3.476,4.711,4.711,0,0,1,.54-1.224m-18.026,60c3.581.079,7.19.106,10.784.079a476.634,476.634,0,0,1,.606-53.118c-6.07-.066-12.154-.158-18.224-.4a.84.84,0,0,1-.487.3c-4.517.9-2.963,23.452-2.989,27.56C2.4,52.83,2.422,57.07,2.5,61.3c.04,1.62-.329,4.082.172,5.6l6.768,7.19c1.093.053,2.186.092,3.292.092" transform="translate(0 0)" fill="#fff"/>
    <path id="Trazado_7505" data-name="Trazado 7505" d="M87.32,91.675a6.343,6.343,0,0,1-3.437,6.755c-.606.316-1.146-.592-.54-.935,2.12-1.238,2.778-3.3,2.62-5.636a.693.693,0,0,1,1.356-.184" transform="translate(-24.919 -27.35)" fill="#fff"/>
    <path id="Trazado_7506" data-name="Trazado 7506" d="M83.626,88.969a.741.741,0,0,1,1.277.75c-1,1.752-2.093,3.5-3.186,5.2a.558.558,0,0,1-.962-.566c.909-1.8,1.87-3.634,2.871-5.386" transform="translate(-24.201 -26.579)" fill="#fff"/>
    <path id="Trazado_7507" data-name="Trazado 7507" d="M73.363,9.448c.105.54-.592,1.133-1.027.606a7.991,7.991,0,0,0-1.988-2.159,4.633,4.633,0,0,0-3-.606c-.685.092-.83-1.053-.171-1.172,2.265-.421,5.728.737,6.189,3.332" transform="translate(-20.021 -1.809)" fill="#fff"/>
    <path id="Trazado_7508" data-name="Trazado 7508" d="M72.777,12.552c.25.671-.816,1.093-1.133.487a6.922,6.922,0,0,0-3.357-3.213c-.513-.263-.132-1.014.382-.9a6,6,0,0,1,4.108,3.621" transform="translate(-20.409 -2.675)" fill="#fff"/>
    <path id="Trazado_7509" data-name="Trazado 7509" d="M52.967,35.375a37.384,37.384,0,0,1-.447,3.792c-.119,1.133-.2,2.278-.4,3.411-.118.632-1,.408-1.04-.145a21.962,21.962,0,0,1,.514-7.242.7.7,0,0,1,1.369.184" transform="translate(-15.295 -10.408)" fill="#fff"/>
    <path id="Trazado_7510" data-name="Trazado 7510" d="M49.7,34.771a18.362,18.362,0,0,1-.632,5.425c-.224.751-1.238.409-1.145-.316a23.709,23.709,0,0,0,.277-5.109c-.053-.961,1.488-.974,1.5,0" transform="translate(-14.372 -10.212)" fill="#fff"/>
    <path id="Trazado_7511" data-name="Trazado 7511" d="M12,82.5a.7.7,0,0,1,.711,1.2c-.764.5-.566,2.291-.632,3.054-.079.949-.158,1.9-.316,2.831-.092.487-.75.3-.8-.105a27.632,27.632,0,0,1-.145-4.78A2.393,2.393,0,0,1,12,82.5" transform="translate(-3.231 -24.719)" fill="#fff"/>
    <path id="Trazado_7512" data-name="Trazado 7512" d="M9.024,91.7a.49.49,0,0,1-.843.5c-1.5-2.291-2.146-5.741-.816-8.269.382-.725,1.356-.185,1.238.526a15.5,15.5,0,0,0-.5,3.476A10.348,10.348,0,0,0,9.024,91.7" transform="translate(-1.992 -25.072)" fill="#fff"/>
  </g>
</svg>
