<svg xmlns="http://www.w3.org/2000/svg" xmlns:xlink="http://www.w3.org/1999/xlink" width="123.595" height="116.086" viewBox="0 0 123.595 116.086">
  <defs>
    <clipPath id="clip-path">
      <rect id="Rectángulo_417" data-name="Rectángulo 417" width="123.595" height="116.086" fill="none"/>
    </clipPath>
  </defs>
  <g id="Grupo_3419" data-name="Grupo 3419" clip-path="url(#clip-path)">
    <path id="Trazado_7578" data-name="Trazado 7578" d="M97.159,60.956C92.184,67.1,87.45,72.992,82.646,78.828a19.508,19.508,0,0,1-3.6,3.513c-2.827,2.02-5.448.8-5.407-2.707A51.246,51.246,0,0,1,74.9,70.077c1.149-5.631,2.378-11.255,3.861-16.8.7-2.616.05-4-2.207-5.45-5.774-3.71-11.4-7.656-16.957-11.688-1.092-.792-2.355-2.528-2.162-3.576.189-1.026,2.03-2.214,3.325-2.494,7.524-1.622,15.078-3.143,22.674-4.369,2.424-.391,3.673-1.106,4.287-3.583,1.383-5.572,3.082-11.066,4.669-16.586a4.326,4.326,0,0,1,.764-1.915C94.6,2.249,96.03.43,97.76.014c.888-.214,2.894,1.96,3.548,3.431,2.443,5.5,4.535,11.156,6.762,16.752.363.912.794,1.8,1.1,2.732,1.755,5.355,5.336,7.889,11.056,7.607a35.9,35.9,0,0,1,7.954.512c4.838.857,5.846,3.727,2.494,7.269-3.758,3.969-7.71,7.766-11.741,11.459-1.792,1.643-1.627,2.911-.791,5.065a184.221,184.221,0,0,1,6.327,18.967c.477,1.779-.4,4.984-1.749,5.867-1.169.767-4.319-.276-5.838-1.474-5.492-4.337-10.676-9.065-15.951-13.674-1.347-1.177-2.6-2.46-3.771-3.573M64.227,33.536q-.1.825-.193,1.65c5.486,3.322,10.876,6.817,16.494,9.9,3.1,1.7,4.18,3.893,3.481,7.2-.405,1.92-.782,3.846-1.169,5.771q-1.754,8.7-3.507,17.405l.96.46c3.124-3.717,6.324-7.374,9.357-11.164,7.446-9.3,7.383-9.291,16.486-1.512,4.172,3.566,8.5,6.95,12.757,10.417l1.6-1.07c-2.057-5.565-3.624-11.384-6.329-16.613-2.063-3.987-1.2-6.287,1.663-9.088,3.78-3.694,7.188-7.77,11.228-12.2-3.032,0-6.032.056-9.029-.011-7.989-.179-9.789-1.47-12.7-9.029-.5-1.306-.9-2.652-1.309-3.992q-2.706-8.91-5.386-17.828L97.31,3.71c-1.8,6.673-3.814,13.3-5.318,20.034-1.311,5.872-1.356,6.038-7.54,6.8-6.761.834-13.485,1.982-20.225,2.992" transform="translate(-9.041 0)" fill="#222221"/>
    <path id="Trazado_7579" data-name="Trazado 7579" d="M31.63,104.815c-2.481,5.394-4.674,10.214-6.92,15.01a11.917,11.917,0,0,1-1.915,3.24,18.767,18.767,0,0,1-3.267,2.266c-.687-1.12-1.873-2.2-1.974-3.367a137.694,137.694,0,0,1-.8-16.355c.177-5.22-1.454-8.343-6.745-9.763a30.121,30.121,0,0,1-8.173-4.18c-2.534-1.642-2.447-3.625.3-5.14a71.063,71.063,0,0,1,8.938-4.642c3.672-1.385,5.115-3.768,5.393-7.538a73.332,73.332,0,0,1,1.784-11.192c.37-1.59,1.66-2.965,2.532-4.438,1.467.924,3.29,1.556,4.331,2.829,2.657,3.245,5.051,6.72,7.384,10.214,1.857,2.785,4.044,3.941,7.435,2.887a20.573,20.573,0,0,1,6.226-.816c3.754.04,5.034,1.894,3.839,5.458-1.2,3.581-2.634,7.087-3.959,10.629-.95,2.536-.521,4.592,1.074,7a60.936,60.936,0,0,1,5.716,11.611c.56,1.443.343,4.033-.62,4.973-.864.844-3.4.585-4.91.028a55.7,55.7,0,0,1-7.848-3.969c-2.548-1.433-5-3.027-7.817-4.744M4.4,89.13a16.513,16.513,0,0,0,2.063,1.344c2.342.931,4.695,1.838,7.061,2.7,5.842,2.13,6.777,3.316,6.881,9.5.088,5.247.018,10.5.018,15.744l1.158.249c1.527-3.37,3.181-6.69,4.555-10.121,3.712-9.264,3.848-9.329,12.485-3.984,3.371,2.087,6.8,4.079,10.2,6.113l1.171-1.082c-2.1-3.516-3.828-7.334-6.394-10.466-2.645-3.226-3.288-6.345-1.9-10.1,1.29-3.481,2.571-6.961,4.072-11.025-2.4.342-4.3.272-5.916.907-5.054,1.98-8.339-.2-11.054-4.18-2.578-3.778-5.187-7.533-8.436-12.247-.636,5.525-1.5,10.153-1.595,14.8-.07,3.462-1.4,5.525-4.355,6.921C11.266,85.694,8.161,87.274,4.4,89.13" transform="translate(0 -9.245)" fill="#222221"/>
    <path id="Trazado_7580" data-name="Trazado 7580" d="M128.053,22.737c.57.928-.869,1.7-1.516.955-2.844-3.208-4.693-7.575-5.988-11.634-.31-.959,1.091-1.675,1.455-.679,1.546,4.155,3.795,7.609,6.049,11.358" transform="translate(-18.975 -1.716)" fill="#222221"/>
    <path id="Trazado_7581" data-name="Trazado 7581" d="M123.922,24.314c.555,1.025-1.063,1.747-1.631.741-1.367-2.44-2.7-4.963-3.875-7.532-.323-.676.711-1.357,1.124-.7,1.567,2.421,3.01,4.941,4.382,7.489" transform="translate(-18.637 -2.607)" fill="#222221"/>
    <path id="Trazado_7582" data-name="Trazado 7582" d="M10.815,115.332c.763.383,1.562-.741.849-1.263a18.51,18.51,0,0,0-7.214-3.058c-.6-.115-.939.775-.352,1.025,1.143.5,2.315.918,3.438,1.472s2.161,1.249,3.279,1.823" transform="translate(-0.597 -17.479)" fill="#222221"/>
    <path id="Trazado_7583" data-name="Trazado 7583" d="M10.3,111.417a.835.835,0,0,0,1.1-1.253,13.42,13.42,0,0,0-9.979-3.452c-.615.033-.536.881.041.927a15.524,15.524,0,0,1,8.835,3.778" transform="translate(-0.157 -16.8)" fill="#222221"/>
    <path id="Trazado_7584" data-name="Trazado 7584" d="M77.448,23.281a.967.967,0,0,0-.361-1.9c-2.831.581-5.65,1.222-8.441,1.9a.682.682,0,0,0,.255,1.34c2.844-.4,5.7-.858,8.548-1.339" transform="translate(-10.726 -3.363)" fill="#222221"/>
    <path id="Trazado_7585" data-name="Trazado 7585" d="M76.062,27.81c1.338-.151.95-2.293-.4-2.078-3.509.606-7.026,1.173-10.539,1.759-.963.163-.672,1.578.282,1.479,3.551-.386,7.1-.793,10.653-1.16" transform="translate(-10.162 -4.049)" fill="#222221"/>
  </g>
</svg>
