<svg xmlns="http://www.w3.org/2000/svg" width="648.73" height="1150.379" viewBox="0 0 648.73 1150.379">
  <g id="Grupo_69" data-name="Grupo 69" transform="translate(-1937.117 3891.964) rotate(-20)">
    <path id="Trazado_6920" data-name="Trazado 6920" d="M3294.137-2888.215s-173.624,189.409-178.885,355.141,205.192,436.691,323.572,570.855" fill="none" stroke="#e7d8cb" stroke-miterlimit="10" stroke-width="4"/>
    <path id="Trazado_6921" data-name="Trazado 6921" d="M3330.7-2888.215s-189.409,268.329-165.733,570.855,234.13,547.18,234.13,547.18" transform="translate(-4.996)" fill="none" stroke="#e7d8cb" stroke-miterlimit="10" stroke-width="4"/>
    <path id="Trazado_6922" data-name="Trazado 6922" d="M3191.175-2746.371s-34.028-24.173-4.4-57.683C3186.779-2804.054,3212.895-2781.58,3191.175-2746.371Z" transform="translate(-6.224 -8.803)" fill="none" stroke="#e7d8cb" stroke-linejoin="round" stroke-width="4"/>
    <path id="Trazado_6923" data-name="Trazado 6923" d="M3276.086-2133.273s-22.509-25.384,7.1-46.479C3283.189-2179.752,3299.744-2157.166,3276.086-2133.273Z" transform="translate(-15.976 -74.104)" fill="none" stroke="#e7d8cb" stroke-linejoin="round" stroke-width="4"/>
    <path id="Trazado_6924" data-name="Trazado 6924" d="M3187.244-2658.5s-4.559,18.352-23.6,11.4C3163.648-2647.091,3168.8-2661.824,3187.244-2658.5Z" transform="translate(-5.072 -23.977)" fill="none" stroke="#e7d8cb" stroke-linejoin="round" stroke-width="4"/>
    <path id="Trazado_6925" data-name="Trazado 6925" d="M3277.047-2089.586s-13.374,10.922-23.49-4.572C3253.557-2094.158,3265.384-2102.11,3277.047-2089.586Z" transform="translate(-14.477 -82.797)" fill="none" stroke="#e7d8cb" stroke-linejoin="round" stroke-width="4"/>
  </g>
</svg>
