<svg width="800" height="800" viewBox="0 0 800 800" fill="none" xmlns="http://www.w3.org/2000/svg">
<g clip-path="url(#clip0_795_30)">
<path d="M400 0C620.914 0 800 179.086 800 400C800 620.914 620.914 800 400 800C179.086 800 0 620.914 0 400C0 179.086 179.086 0 400 0ZM400 50C206.7 50 50 206.7 50 400C50 593.3 206.7 750 400 750C593.3 750 750 593.3 750 400C750 206.7 593.3 50 400 50ZM550 375V425H250V375H550Z" fill="white"/>
</g>
<defs>
<clipPath id="clip0_795_30">
<rect width="800" height="800" fill="white"/>
</clipPath>
</defs>
</svg>
