<svg width="800" height="800" viewBox="0 0 800 800" fill="none" xmlns="http://www.w3.org/2000/svg">
<g clip-path="url(#clip0_795_5)">
<path d="M371.918 284.246V371.919H284.245C268.735 371.919 256.163 384.491 256.163 400.001C256.163 415.511 268.735 428.082 284.245 428.082H371.918V515.756C371.918 531.266 384.49 543.838 400 543.838C415.51 543.838 427.918 531.266 427.918 515.756V428.082H515.592C531.102 428.082 543.673 415.511 543.673 400.001C543.673 384.491 531.102 371.919 515.592 371.919H427.918V284.246C427.918 268.736 415.347 256.164 400 256.164C384.653 256.164 371.918 268.736 371.918 284.246Z" fill="white"/>
<path d="M117.061 117.061C41.6326 192.653 0 293.061 0 400C0 506.939 41.6327 607.347 117.224 682.939C192.653 758.367 293.224 800 400 800C506.776 800 607.347 758.367 682.939 682.776C758.367 607.347 800 506.776 800 400C800 293.224 758.367 192.653 682.776 117.061C607.347 41.6326 506.939 0 400 0C293.224 0 192.653 41.6326 117.061 117.061ZM744 400C744 491.918 708.245 578.286 643.265 643.265C578.286 708.245 491.918 744 400 744C308.082 744 221.714 708.245 156.735 643.265C91.7551 578.286 56 491.918 56 400C56 308.082 91.7551 221.714 156.735 156.735C221.714 91.7551 308.082 56 400 56C491.918 56 578.286 91.7551 643.265 156.735C708.245 221.714 744 308.082 744 400Z" fill="white"/>
</g>
<defs>
<clipPath id="clip0_795_5">
<rect width="800" height="800" fill="white"/>
</clipPath>
</defs>
</svg>
