<svg xmlns="http://www.w3.org/2000/svg" xmlns:xlink="http://www.w3.org/1999/xlink" width="137.982" height="138.251" viewBox="0 0 137.982 138.251">
  <defs>
    <clipPath id="clip-path">
      <rect id="Rectángulo_115" data-name="Rectángulo 115" width="137.982" height="138.251" fill="none"/>
    </clipPath>
  </defs>
  <g id="Grupo_2644" data-name="Grupo 2644" clip-path="url(#clip-path)">
    <g id="Grupo_2647" data-name="Grupo 2647" transform="translate(17.198 21.731)">
      <path id="Trazado_3699" data-name="Trazado 3699" d="M115.917,115.995H26.306c-5.195-2.03-6.986-4.671-6.986-10.3q0-41.333,0-82.666c0-.485-.007-.971.006-1.456a9,9,0,0,1,9.149-8.931c2.315-.008,4.63-.021,6.945.006.813.01,1.152-.3,1.132-1.122-.032-1.344-.014-2.688,0-4.032C36.576,3.8,38.987,1.217,42.4,1.21,45.895,1.2,48.3,3.77,48.323,7.543c.009,1.269.045,2.541-.01,3.808-.042.972.324,1.305,1.3,1.3q18.594-.034,37.188,0c1.055,0,1.355-.415,1.35-1.4a35.073,35.073,0,0,1,.116-5.033,5.8,5.8,0,0,1,6.358-5.006,5.729,5.729,0,0,1,5.243,5.7c.02,1.456.055,2.914-.01,4.368-.046,1.022.309,1.381,1.348,1.369,4.106-.045,8.214-.022,12.321-.017a8.979,8.979,0,0,1,9.371,9.381q.017,42.341.007,84.682a10.189,10.189,0,0,1-.374,2.876c-.99,3.387-3.36,5.357-6.613,6.415M71.109,47.3q-19.205,0-38.411,0c-1.6,0-1.608,0-1.608,1.633q0,26.876,0,53.752c0,1.6.048,1.659,1.614,1.659q38.411,0,76.821,0c1.563,0,1.608-.054,1.608-1.665q0-26.876,0-53.753c0-1.623,0-1.627-1.614-1.627q-19.205,0-38.411,0" transform="translate(-19.318 -1.206)" fill="#AE9461"/>
      <path id="Trazado_3700" data-name="Trazado 3700" d="M121.3,204.261a6.107,6.107,0,0,1,4.28,1.908c2.032,2.031,4.1,4.029,6.08,6.11.764.8,1.221.859,2.042.028,5.769-5.841,11.594-11.625,17.394-17.437a6.115,6.115,0,0,1,4.552-2.049,5.833,5.833,0,0,1,4.7,9.273,9.583,9.583,0,0,1-1.115,1.251q-10.879,10.89-21.767,21.771c-3.157,3.154-6.392,3.149-9.548,0-3.563-3.561-7.15-7.1-10.677-10.7a5.851,5.851,0,0,1,1.872-9.753,5.277,5.277,0,0,1,2.188-.4" transform="translate(-86.628 -135.473)" fill="#AE9461"/>
    </g>
  </g>
</svg>
