<svg id="Grupo_2659" data-name="Grupo 2659" xmlns="http://www.w3.org/2000/svg" xmlns:xlink="http://www.w3.org/1999/xlink" width="113.999" height="108.775" viewBox="0 0 113.999 108.775">
  <defs>
    <clipPath id="clip-path">
      <rect id="Rectángulo_128" data-name="Rectángulo 128" width="113.999" height="108.775" fill="none"/>
    </clipPath>
  </defs>
  <g id="Grupo_2657" data-name="Grupo 2657" clip-path="url(#clip-path)">
    <path id="Trazado_3703" data-name="Trazado 3703" d="M57.008,0q20.881,0,41.762,0c6.948.007,12.417,3.749,14.433,10.021a17.111,17.111,0,0,1,.755,5.119q.077,28.644.025,57.289c-.009,7.75-4.86,13.6-12.287,14.875a18.571,18.571,0,0,1-3.1.178c-7.5.014-15,.023-22.5-.013a2.137,2.137,0,0,0-1.941.989q-6.7,9.025-13.478,18c-2.316,3.084-5.058,3.078-7.386-.02q-6.792-9.036-13.552-18.1A1.914,1.914,0,0,0,38,87.482c-7.706.028-15.412.051-23.118.006A14.45,14.45,0,0,1,.2,75.263a16.572,16.572,0,0,1-.186-2.846Q0,43.773.01,15.128C.017,7.616,4.558,1.858,11.668.353A19.345,19.345,0,0,1,15.618.018Q36.313-.016,57.008,0m15.43,37.161c1.693,0,3.378.044,5.059-.019a7.016,7.016,0,0,0,2.412-.431,3.92,3.92,0,0,0-1.442-7.475c-1.638-.06-3.28-.013-5.025-.013.156-1.223.293-2.242.413-3.263s.271-2.054.327-3.086a3.868,3.868,0,0,0-2.738-4.093c-2.521-.808-4.848.873-5.211,3.772-.272,2.173-.536,4.348-.81,6.583H52.234c.258-2.046.536-4.005.745-5.972a3.984,3.984,0,1,0-7.91-.9c-.245,1.93-.548,3.855-.708,5.791-.075.908-.368,1.193-1.278,1.174-2.526-.052-5.055-.06-7.58.015A3.784,3.784,0,0,0,31.85,32.8a3.851,3.851,0,0,0,3.064,4.206,11.674,11.674,0,0,0,2.221.151c1.975.019,3.95.006,6.064.006L41.548,50.4c-1.86,0-3.6-.006-5.33,0-2.645.011-4.4,1.621-4.382,4.01.016,2.319,1.777,3.926,4.333,3.941,1.442.009,2.883,0,4.365,0-.255,2.194-.554,4.243-.715,6.3a3.836,3.836,0,0,0,2.961,4.164c2.5.611,4.628-1.027,4.981-3.833.277-2.2.546-4.4.816-6.575H61.641a1.65,1.65,0,0,1,.064.4c-.211,1.725-.418,3.451-.652,5.173-.355,2.61,1.071,4.642,3.495,4.948,2.225.281,4.1-1.387,4.4-3.89.267-2.207.564-4.409.858-6.69,2.752,0,5.4.057,8.042-.032a5.636,5.636,0,0,0,2.568-.7,3.8,3.8,0,0,0,1.621-4.339,4,4,0,0,0-3.792-2.868c-2.435-.036-4.87-.009-7.449-.009.552-4.448,1.086-8.75,1.643-13.239" transform="translate(0 0)" fill="#AE9461"/>
    <path id="Trazado_3704" data-name="Trazado 3704" d="M164.162,112.222c-.547,4.389-1.084,8.689-1.629,13.06H149.34c.546-4.371,1.084-8.673,1.633-13.06Z" transform="translate(-99.757 -74.963)" fill="#AE9461"/>
  </g>
</svg>
