<svg xmlns="http://www.w3.org/2000/svg" xmlns:xlink="http://www.w3.org/1999/xlink" width="368.659" height="160.338" viewBox="0 0 368.659 160.338"><defs><clipPath id="a"><rect width="368.659" height="160.338" fill="none"/></clipPath><clipPath id="c"><rect width="368.659" height="54.238" fill="none"/></clipPath></defs><g style="isolation:isolate"><g clip-path="url(#a)"><g clip-path="url(#a)"><g transform="translate(0 106.1)" style="mix-blend-mode:multiply;isolation:isolate"><g clip-path="url(#c)"><path d="M.832,134.454A1.3,1.3,0,0,0,0,135.814H368.659l-.06-.794a6.549,6.549,0,0,0-3.652-.892c-.437-.022-.87-.045-1.306-.082-12.529-.067-25.056-.161-37.581.05-2.4.066-4.8-.157-7.2-.044-1.306.117-2.616.05-3.924.058q-7.965-.229-15.928-.038c-5.349-.108-10.7.122-16.046-.053-5.472.085-10.945-.112-16.416.045-.647.043-1.3.047-1.945.037-.429,0-.859,0-1.288.008-6-.129-12-.114-18,0-.65.006-1.3.009-1.951.007-.886-.037-1.771,0-2.657-.051-21.379-.143-42.756-.192-64.134.012-39.11-.276-78.22-.046-117.331-.118a31.032,31.032,0,0,0-4.208.1c-16.1-.155-32.208-.1-48.3-.045-.408.043-.825.08-1.236.1-1.565-.137-3.091.34-4.653.343" transform="translate(0 -81.575)" fill="#f8f2e5"/><path d="M146.559,143.116q39.222.027,78.443.051,21.633.007,43.267-.035c.241-1.023-.444-2.661,1.818-2.231,1.048.2,2.166-.291,1.533-1.862-.614-1.525.838-1.73,1.574-2.246,1.829-1.281,2.7-2.584.754-4.46-1.177-1.135-.419-4.051-3.317-3.606-.095-1.014.588-1.668,1.109-2.4.685-.751.485-1.779.814-2.586a4.607,4.607,0,0,1-1.026,2.83c.22,2.455,1.339,2.772,3.139,1.28,1.227-1.017,2.042-2.451,3.844-2.865,1.068-.245,1.019-1.576.458-2.39-.938-1.361-.936-2.809-.857-4.75.284,3.223,2.978,5.2,5.629,4.555a1.729,1.729,0,0,0,1.492-1.71,4.1,4.1,0,0,0-2.049-3.734c-2.3-1.409-3.479-4.859-2.638-7.965-1.058,3.164-.3,4.789,2.359,5.26a5.093,5.093,0,0,1,2.428,1.256c1.55,1.273,2.587.219,3.468-.978.977-1.33,1.7-3.1-.176-3.881-3.636-1.508-3.312-4.7-3.493-7.495a6.322,6.322,0,0,0-2.27-4.827c-1.268-1.1-2.786-1.882-3.164-3.946-.265-1.456-2.212-1.532-3.529-1.866-1.171-.3-1.443.719-1.222,1.542.528,1.964.316,4.3,2.563,5.5a4.336,4.336,0,0,1,1.222,1.249c.355.454.8.93.258,1.512a1.944,1.944,0,0,1-1.252.58c-.862.071-.793-.638-.892-1.185-.185-1.016-.127-2.3-1.521-2.408-.994-.076-1.309.8-1.354,1.7.105-5.675-1.352-7.741-4.437-6.279-.211-.653.193-1.107.531-1.559.668-.893,1.337-2,.252-2.766a2.662,2.662,0,0,0-3.511.482c-3.048,2.963-1.9,6.972,2.875,9.419a4.981,4.981,0,0,0-4.169.287c1.194-3.3-2.188-5.816.2-8.612.412-.48-.373-1.375-1.135-1.432-1.358-.1-2.694-.968-4.09-.183l-.325-.017-.327.02c-1.039,1.545-3.27,2.334-2.966,4.749-.336-1.165.677-2.777-.832-3.417s-2.236.932-3.112,1.759c-1.609,1.518-3.16,3.125-3.527,5.529-.387-1.862-.077-4.225-3.414-3.359-1.135.295-2.593-.858-3.811-1.569-.731-.427-1.576-.8-2.171.1a1.923,1.923,0,0,0,.364,2.277c.88,1.165,2.363,1.424,3.1,1.835-.345-.693-2.188,1.531-2.825-.847-.226-.847-1.534.17-1.678,1.226a31.12,31.12,0,0,0,.034,4.2c0,1.325.523,2.88-1.167,3.718.879-1.139,1.38-2.544.129-3.448-1.445-1.043-1.9.569-2.5,1.507-.253.393.136-.038-.209.272-.226.2-.453.058-.532-.271-1.378-1.155-2.4-.7-2.938.8-1.148,3.2-3.638,5.43-5.746,8.634-.279-2.991,4.034-4.148,1.834-7.018-1.132-3.792-1.8-4.156-4.044-2.23a2.523,2.523,0,0,1,.442,1.913,2.415,2.415,0,0,0-.181-1.371c-1.411-3.55,1.3-4.826,3.516-6.37a1.469,1.469,0,0,0-.2-1.834,3.421,3.421,0,0,0-.815-.563c-.155-.051-.315-.1-.472-.147a2.31,2.31,0,0,0-1.746.7,17.268,17.268,0,0,1-1.826,1.475c-.945.835-1.113,3.966-3.316,1.081-.3-.4-.812-.127-1.2.246a4.8,4.8,0,0,0-.217,6.286c.571.6,1.563,1.513.827,1.99-3.575,2.32-.277,7.535-4.227,9.642a.978.978,0,0,0,.237,1.726c2.272.685,2.121,2.266,2.05,4.14a4.6,4.6,0,0,0,2.249,4.458,2.283,2.283,0,0,1,1.151,1.975c.266.387-.575.13-.11.071.151-.019.164-.156-.033-.329a13.465,13.465,0,0,1-3.753-5.7c-.248-.671-.7-1.447-1.368-1.5-3.08-.243-3.392-2.726-4.133-4.873-.623-1.809-1.333-3.394-3.689-2.047-.463,1.3-3.706,2.573-.05,3.927a2.814,2.814,0,0,0,.841-.486c-.027.218-.321.2-.36.413-.663,1.31.508,2.167.881,3.451-1.492-.176-1.725-1.471-2.4-2.266-1.157-1.368-2.091-1.455-2.7.441a1.624,1.624,0,0,0,.348.794c-.282-.026-.095-.392-.328-.458.453-2.621,2.5-4.185,4.036-6.084.887-1.492.359-2.674-.84-3.672-.46-.382-1.484-.612-1.5-.162-.151,3.425-3.345,2.795-5.115,4.021a.708.708,0,0,1-.807.017c2.735-.846,3.406-4.154,6.424-4.87,1.288-.305.737-2.016.513-3.133-.2-1-.151-2.386-1.323-2.657-1.581-.364-1.493.923-1.587,2.042.108-2.267-.317-4.307-2.315-5.719-.831-.587-1.553-1.1-2.457-.28a1.786,1.786,0,0,0-.238,2.254,11.22,11.22,0,0,0,1,1.426c2.292,3.571,1.762,5.9-2.046,7.988-1.149.628-1.85,1.7-3.51,2.887.517-1.673,1.171-2.693.738-3.782a3.757,3.757,0,0,0-.431-.844,9.184,9.184,0,0,1-1.027-2.552,8.708,8.708,0,0,0-9.074.788c-.67.773.1,1.813-.495,2.673-1.869-.866-2.256-2.544-2.521-4.306-.144-.962-.4-2-1.667-1.74-1.1.227-1.31,1.234-1.247,2.231a9.609,9.609,0,0,0,6.38,8.813c-2.243,1.816-3.464,1.7-4.26-.871-.677-2.185-1.582-2.741-3.476-1.725-1.544.827-1.414-.668-1.885-1.271-.557-.715-.789-1.853-1.939-1.783-1.236.076-1.3,1.13-1.384,2.082a2.224,2.224,0,0,1-.15.954c-2.027-4.78-3.319,1.843-5.134.328a1.221,1.221,0,0,0-.677.588c-.29,1.17.169,2.366-.115,3.54-.072.295-.122.59-.169.89a5.16,5.16,0,0,0-.043,1.4,4.3,4.3,0,0,0,.556,1.312c.573.726,1.125,1.577,2.238.956,1.327-.741,1.312-.767,2.147.9-1.954-.083-3.908.251-4.734-2.125a2,2,0,0,0-.743-.644,4.137,4.137,0,0,0-1.949-.4c-1.266,1.622-4.165.973-4.683,2.94,1.167-1.51,1.553-3.928,2.686-6.022.752-1.39.177-2.476-.78-3.445-.874-.885-1.908-.668-2.928-.27-1.274.5-1.98,1.556-1.518,2.757.687,1.786-.383,2.716-1.226,3.937-1.042,1.512-.971-.7-1.592-.377a1.547,1.547,0,0,0-.941-.1,26.411,26.411,0,0,0-2.087,1.966,2.409,2.409,0,0,0-.407.881c-.38,4.077,1.359,6.26,5.117,6.422.267.011.789-.247.747-.18-1.5,2.36,2.657,4.136.553,6.487.039-1.137.256-2.5-1.215-2.923-1.706-.491-1.76,1.026-2.21,2.037-.849,1.915-1.828,3.6-4.421,3.207-1.111-.169-2.547-.5-3.167.758-.7,1.429.672,2.293,1.446,3.257a9.758,9.758,0,0,0,.76.721" transform="translate(-91.688 -89.632)" fill="#ead8b0"/><path d="M80.776,90.4l5.081,1.1c-1.487,1.986-1.97,3.8-.624,5.7a1.041,1.041,0,0,1,.135,1.306c-1.34,1.626.332,2.453.937,4.256.9-2.138,2.023-2.625,3.56-1.518a1.153,1.153,0,0,0,1.322.069,1.435,1.435,0,0,0,.765-1.459.913.913,0,0,0-1.262-.828c-1.756.661-2.69.159-2.883-1.733a1.238,1.238,0,0,0-.447-.9c-1.052-.474-1.937-1.094-1.48-2.36A7.52,7.52,0,0,1,88.717,90.6a1.184,1.184,0,0,1,1.59.309c.424.567.138,1.013-.322,1.492-1.8,1.879-1.784,1.9-.325,4.529,1.4-.2.644-1.956,2.037-2.467.161-.043.206.329.368.629,1.3,2.419,2.069,4.886.989,7.629a.9.9,0,0,0,.777,1.287c.5.057.774-.408.933-.872.349-1.014-.232-2.288.8-3.338,1.4,1.526.2,3.351,1.022,4.767,1.465.526,2.057-1.946,3.752-1.068.547.284.847-.581.822-1.209a1.447,1.447,0,0,0-.607-1.2c-1.4-.988-1.995-2.914-3.871-3.356a4.516,4.516,0,0,0-1.364-4.453c1.585-.466,1.962,1.209,3.028.977,1.314-.285,1.4.331,1.019,1.361a1.658,1.658,0,0,0,.913,2.314c4.117,2.076,4.328,2.412,4.262,6.467-.018,1.027-1.434,2.5,1.117,2.668.646.041-.252,1.106-.492,1.7-.69,1.7-.6,1.846,1.4,1.687,1.4-.11,1.951,1.019,2.867,1.615-.095,1.213-.995,1.913-1.53,2.78-.655,1.064-1.521.917-2.205-.114-.34-.511-.211-1.221-1.274-1.317-3.4-.308-3.388-.4-3.219-3.882a2.668,2.668,0,0,0-.142-.671c-2.113,1.434-2.473,3.212-1.054,5.2,1.532,2.145,1.532,2.145,1.874,4.233.742.248,1.614-1.012,1.81-.453.367,1.048,1.384,1.933,1.124,3.146-.182.854-.812.939-1.636.707-1.217-.343-2.354-1.1-3.658-.741-.77-1.062.246-1.843.238-2.74-.006-.6,0-1.22-.619-1.511a1.837,1.837,0,0,0-1.988.175c-.639.484-.381,1.006-.025,1.511,1.084,1.532.1,3.708,1.736,5.176.548.492-.141,1.394-1.046.923-1.135-.589-1.81-1.168-1.853.885-.024,1.112-1.514,1.932-2.363,2.595-.9.7-1.391-.684-1.527-1.647-1.233.044-1.747,1.094-2.437,1.834a1.392,1.392,0,0,0,0,1.926c.638.686,1.246.271,1.779-.273.251-.257.556-.394,1.177-.064-.356,1.591-.234,3.138,1.8,3.933.666.259.562,1.3-.277,1.646-1.439.586-2.175,2.122-3.674,2.309-.009,1.191,1.083,1.5,1.208,2.511H86.066c-.2,2.012,2.66,1.2,2.489,3.035l64.739,0c.622-.407.375-1.371,1.057-1.713,3.377-1.692,3.675-2.447,2.1-5.332-.228-.421-.532-1.071-.939-.858-3.171,1.654-2.261-1.491-3.032-2.573-.676-.95-1.127-2.364-2.469-2.18-1.492.2-1.5,1.557-1.279,2.8.135.764.088,1.487-.938,1.417-1.114-.076-2.732.721-3.22-.542-.606-1.564-2.273-3.322-.434-5.13,1.97-1.936,1.292-3.6-.531-5.009a4.642,4.642,0,0,1-2.028-4.07c.128,1.924,1.031,3.149,3.068,2.4,1.757-.65,1.988-2.345,1.163-3.837a18.188,18.188,0,0,0-3.553-4.763c-1.348-1.227-3.114-2.467.143-3.554.308-.1.46-.7.435-.642-.877,1.738.264,3.658,1.842,4.515,1.38.75,3.377,2.56,5.091.734,2.321-2.476,3.855-.964,5.517.634,1.23,1.183,4.529.385,5.152-1.267.832-2.2-.684-6.117-2.811-7.4-.42-.253-1.949.031-1.048-.932.8-.851-.382-2.634,1.335-2.647,2.81-.021,1.874-1.855,1.637-3.319,1.684,1.125-2.048,5.356,2.805,4.559a6.777,6.777,0,0,0,.91-.243c1.259-.366,1.464.7,1.894,1.422,1.348,2.263,2.151,1.09,2.886-.424.041-.03.063-.118.143-.153a1.972,1.972,0,0,0-.292.615c.959,1.769,2.147,2.636,3.975,1.055a26.1,26.1,0,0,1,1.878-3.943,3.8,3.8,0,0,0,.343,2.45c.962.984,2.156,1.663,3.406.881,1.233-.77.456-2.1.35-3.207a5.87,5.87,0,0,0-.248-1.014c.447-.115-1.471-.959.577-1.13a22.649,22.649,0,0,0,6.754-1.675.978.978,0,0,0,.019-.935,85.264,85.264,0,0,1-11.216-3.488c-3.233,1.424-6.382-.006-9.558-.308-11.173-1.061-22.209-3.313-33.437-3.915-5.826-.018-11.652-.1-17.477-.03-3.6.044-7.131-.832-10.741-.652-1.856.093-3.739-.251-5.563.321a5.479,5.479,0,0,1-2.75.019c-4.167-.781-8.373-.273-12.563-.238-.293,0-.583.345-.874.53" transform="translate(88.027 -89.679)" fill="#ecdbb7"/><path d="M19.978,140.068l3.509-.007c.273-1.936.7-3.934-2.518-3.222-.574.127-1.255-.8-.787-1.156,1.976-1.494.235-3.269.4-4.5.277-.621.5-.752.715-.592.877.661,1.561,2.443,2.709,1.655,1.765-1.212.482-3.212.416-4.85a1.61,1.61,0,0,0-.142-.483,3.086,3.086,0,0,1,.271.542c.619.819,1.368,1.378,2.343.771a1.286,1.286,0,0,0,.28-1.853c-1.214-1.715.583-3.319.064-4.971-.114-.141-.188-.224-.2-.254-.159-.292-.558-.433-.526-.844a2.047,2.047,0,0,0,.53.827c.647,2.671.5,5.485,2.028,7.99.831,1.363,1.526,1.41,3.094.14-1.443,1.848-2.474.945-3.581.7-2.222-.485-3.347.616-2.973,2.871.383,2.32.8,5.435,3.142,5.8,2.27.355,4-2.287,5.4-4.241.594-.831.705-1.989,1.623-2.649,2.651-3.257,2.845-3.339,5.678-.31,1.4,1.5,2.3.951,3.27-.209.109,2.224-.836,3.269-3.236,3.044a15.851,15.851,0,0,0-6.464,1.058c-2.273.839-4.015,2.18-4.464,4.741l38.695,0c1.794-3.461.685-3.981-3.585-7.28-1.817-1.4-.987-1.724.059-2.546a25.993,25.993,0,0,0-7-4.244c-2.021-1.221-4.6-1.68-5.678-4.187h0c-2.191.215-2.915-1.727-4.194-2.854l0,.007c-1.094-.839-2.91-.472-3.521-2.115l0,.009a3.953,3.953,0,0,1-.706-.741,1.407,1.407,0,0,0-1.384-.683,9.006,9.006,0,0,1-2.861-1.364l-.007-.006c-4.174-1.618-8.284-3.427-12.712-4.278C25.1,109.1,22.479,108.65,19.9,108c-1.966,1.309-2.643-1.314-4.159-1.368a1.918,1.918,0,0,0-.933.279c-.523,1.473-.782,2.714-3,3.067-2.268.36-3.928,2.145-3.711,5.148.115,1.6-.045,3.9-2.976,3.649-1.1-.1-1.3.9-1.368,2-.163,2.8.553,5.632-.634,8.418-.45,1.057-.425,2.828,1.08,3.332,1.558.523,1.488-1.454,2.214-1.965,2-1.413,2.667-2.758,1.145-4.874.49.717.685,1.529,1.112,2.23.317.521.652,1.054,1.324.926a1.323,1.323,0,0,0,1.066-1.242c.344-3.728,2.21-4.952,5.951-4.276,2.713.491,4.452-3.807,3.03-7.084-1.745.124-1.745.124-2.837,2.043a16.08,16.08,0,0,1,.6-4.064c.164-.473-.477-1.682,1.152-1.37,1.723.33.327,1.083.4,1.576a3.048,3.048,0,0,0,.484,1.616c1.686,1.829,2.217,4.295,3.485,6.337-.127.584-.327-.033-.5,0-.606-.259-1.325-.258-1.579.292-.973,2.1-1.65,4.409-4.4,4.918-.2.037-.323.323-.428.535-1.578,3.172.461,10.026,3.555,11.953" transform="translate(295.201 -86.576)" fill="#e9d6ac"/><path d="M271.753,108.039c-1.04.566-2.282.855-2.835,2.083.383.271.284-.315.168.13-.058.225-.246.148-.159-.124-1.827-.125-2.847,1.437-4.312,2.065.716,1.873-.631.858-1.235.883-1.563,1.491-3.988,1.912-5.023,4.057-.858,2.341-1.991,4.626.8,6.644.888.64.5,2.164.815,3.251a3.33,3.33,0,0,0,.534.672c-.435.289-.2-.518-.571-.353a2.2,2.2,0,0,0-1.419.211,2.672,2.672,0,0,0-1.223,3.623c.628.857,1.271,1.694,2.5,1.628,1.866-2.025,3.752-2.212,6.1-.465a1.344,1.344,0,0,0,1.587.188c1.672-.909,3.119-2.657,5.336-1.291a7.95,7.95,0,0,1,4.256-3.7c-.146.778-1.275,1.427-1.517,2.469-.314,1.355-.413,2.7,1.267,3.128,1.621.415,2.382-.477,2.493-2.072a7.16,7.16,0,0,1,.642-3.2,3.917,3.917,0,0,1,1.852,4.4c-.209,1.13-1.12,2.871.786,3.206a2.678,2.678,0,0,0,3.14-2.625c.116-2.209.4-.818,1-.208,1.107,1.12,2.211,1.443,2.729-.58.509-1.984,1.434-3.718-1.319-5.3-2.32-1.33-3.754-3.862-1.628-6.753h0q1.045-1.065,2.109-2.111c.366-1.826.858-2.506,2.879-4.4a5.947,5.947,0,0,0,1.792-2.935,2.455,2.455,0,0,0-1.551-3.126c-1.676-.587-1.391,1.029-1.747,1.88-.253.608-.386,1.29-1.012,1.654-.916-1.607,1.424-4.4-1.353-5-1.8-.39-2.66,1.712-3,3.161.478-1.293-.6-2.189-1.465-3.168a5.325,5.325,0,0,0-.748-.626c-1.669-.849-3.383.07-5.071-.12-1.2-.07-1.846.977-2.794,1.414-.684.976-1.917.858-2.812,1.411" transform="translate(-228.835 -86.88)" fill="#ead8b0"/><path d="M308.983,117.677c-2.266,1.322-2.02,3.688-2.578,5.9,1.1.014,2.628-1.5,2.7.971.052,1.9,1.982,1.034,3.058,1.579-.252,1.227-.539,2.341-.689,3.475-.069.518-.141.949-.686,1.026-.513.072-.816-.362-1.128-.7a1.649,1.649,0,0,1-.422-1.6,1.043,1.043,0,0,0-1.126-1.375c-1.258.017-.667.922-.569,1.514.349,2.125-.355,3.612-2.521,4.3-1.329-.741-.08-2.054.052-2.287,1.634-2.875-1.093-4.34-1.956-6.325-.363-.835-1.466-.091-1.571.455-.28,1.453-.986,2.871-.637,4.415.219.971-.309,1.259-1.135,1.246-.847-.014-1.236-.5-1.292-1.322a2.7,2.7,0,0,1,.762-1.9,4.277,4.277,0,0,0,.647-4.267,3.528,3.528,0,0,1-2.912,2.83c-2.251.1-1.727,1.333-1.32,2.787-2.448-1.849-2.432-1.834-4.542.108a22,22,0,0,1-1.949,1.443c-.87-.709.632-1.927-.7-2.451-.645-.254-1.416-.89-1.91-.235-1.362,1.8-2.448.5-3.62-.368-1.049,1.131-.557,2.353-.69,3.444-.31.625-.8,1.139-1.057,1.8-.528,1.345-1.325,1.72-2.15.295a5.173,5.173,0,0,0-3.632-2.945c-1.131-.213-1.091-1.345-.986-2.313.248-2.282-.78-2.828-2.916-2.416-1.564.3-3.094,1.135-4.771.621-.835.678-2.1.489-2.818,1.4-.125,1.255-.11,2.7-2.04,1.5a16.79,16.79,0,0,0-4.318,4.13,1.3,1.3,0,0,0,.641.481c.256.069.516.125.762.185.289,1.618-1.4,1.088-1.939,1.8a2.031,2.031,0,0,0-.6.776,2.264,2.264,0,0,0,.47,2.385h49.27c-.032-1.461-1.126-2.444-1.985-3.632a13.873,13.873,0,0,1,5.874.473,1.474,1.474,0,0,0,.955.212.677.677,0,0,0,.446-1.079c-1.453-2.3,1.932-3.288,1.416-5.318a1.8,1.8,0,0,1,.647-.112,1.008,1.008,0,0,1,.841.987c-.069,1.233-.87,2.423-.174,3.756,2.028-.133,1.3-2.164,2.113-3.152,1.041-1.272.109-2.28-.994-3.19-.819-.676-1.044-1.654.24-2.189.762-.317.773-.731.473-1.336-.331-.67-.814-.69-1.435-.385-.8.39-1.416,2.143-2.5.657-1.021-1.4-4.169-1.468-2.881-4.373.272-.614-.043-1.135-.221-1.68" transform="translate(-251.292 -84.552)" fill="#ead7ad"/><path d="M239.678,106.9c1.5,1.243,3.38-.095,4.947.713.351-.338.844-.347,1.259-.535-.392.244-.9.217-1.259.535a3.225,3.225,0,0,0,.571.873c1.583,1.23,1.853,2.488-.112,3.75a1.458,1.458,0,0,0,2.037-.646c.421-.679.456-1.576,1.242-2.059.647-.4.739-1.822,1.736-1.391,1.394.6.308,1.468-.025,2.279-.355.866.917,1.811-.176,2.848-.349.33.763.614,1.273.793.424.149.68.212,1.052-.382a5.712,5.712,0,0,0,1.1-4.305c1.343.724,2.115,1.447,1.579,2.994a4.337,4.337,0,0,1-3.735,3.147c-1.647.07-1.762.138-.978,1.442a4.485,4.485,0,0,1,.773,2.622,2.375,2.375,0,0,1,1.44,2.215c.046.594.233,1.23,1.059.95a.844.844,0,0,0,.576-1.105c-.416-1.545-.2-2.512,1.788-2.343.726.062.794-.78.556-1.34-.269-.637-.82-1.167-1.028-1.813-.251-.781-.335-1.74.7-2.054.887-.27,1.9-1.31,2.751.116.441.744,1.482,1.409.406,2.382a4.2,4.2,0,0,0-1.271,3.132,4.146,4.146,0,0,1-1.811,3.258c-.8.545-1.278,1.342-.531,2.011,1.11.994,1.484-.485,2.085-.978.535-.439.1-1.4.749-1.87.7.257.775,2.754,2.089.633.534-.86.515-2.073,1.7-2.489a2.849,2.849,0,0,1,1.408.7h.7a.425.425,0,0,0,.7,0c0-.47,0-.938,0-1.407a.922.922,0,0,1,0-1.409.78.78,0,0,0-.083-.942c-2.511-2.442-2.516-2.437-2.313-5.916.64,1.352-.049,3.541,2.4,3.339q0-.351,0-.7c2.263-1.415,3.083-3.235,2.22-5.952-.645-2.028-.1-4.186.51-6.2a2.382,2.382,0,0,1,2.229-1.941c1.118-.006,1.084.938,1.291,1.745.29,1.124,1.635,1.746,1.93.7.633-2.248,3.326-3.365,3.017-5.983-1.252-1.122-2.664-.071-3.983-.3a25.623,25.623,0,0,0-7.213,1.743c-4.931,1.626-10.124,2.458-14.778,4.916a97.033,97.033,0,0,0-10.571,4.225" transform="translate(-191.154 -88.561)" fill="#ecdbb6"/><path d="M186.272,105.1c-.109.521-.732.933-.293,1.637,1.621-.592,2.234-2.1,3-3.858,1.848,2.845-1.017,3.665-1.507,5.262a.415.415,0,0,0,.609.207c3.154-1.359,4.534-3.5,3.448-7.031-.338-1.1.264-2.386-.084-3.7,1.811.42.633,2,1.53,2.591.8-1.091,1.585-2.458,2.563-.129a.9.9,0,0,0,1.409.51c.742-.521.51-1.183-.064-1.759a6.1,6.1,0,0,0-2.783-2.049,2.1,2.1,0,0,1-1.743-2.551c1.513,1.772,4.491.984,5.588,3.41.082.181.853-.715,1.331-1.824,1.881,1.724.447,4.237,1.613,6.346,1.763-1.64.69-4.008,2.145-5.671,1.368-1.564,3.126-2.7,4.46-5.094.655,2.48-.639,4.726,1.28,6.372,1.189-.951.587-2.312.708-3.466.105-1.016.084-1.884,1.6-1.452,1.233.353.69-.459.4-.907-.4-.608-.047-1.106.134-1.64l-23.2.047c-2.7.808-5.475.62-8.234.59a30.808,30.808,0,0,0-10.806,1.523.94.94,0,0,0,.1.95,5.714,5.714,0,0,0,1.628,1.106c1.33.537,2.665,1.617,4.013.035a.869.869,0,0,1,.717-.1,4.942,4.942,0,0,1,.929,1.437c.256.408.725.509,1.088.764h0c.234.235.493.446.7.7a1.453,1.453,0,0,1,.7,1.407c-.6.8-.25,1.345.471,1.795a1.962,1.962,0,0,0,1.531-.084c1.5-2.286-1.3-3.75-1.119-5.95,2.9-.829,2.447,2.98,4.825,2.986-1.762,1.759-3.488,3.025-3.616,5.32a3.469,3.469,0,0,0,.188.936c.76,1.479,1.743.808,2.857.446.6-.194,2.137-1.206,1.9.886" transform="translate(-43.451 -89.566)" fill="#ecdbb7"/><path d="M284.7,125.832c.394.765,1.288,1.763,1.8,1.268,1.518-1.479,3.58-.117,4.919-1.547a2.791,2.791,0,0,1-.047,2.609c-.329.88.246,1.587.476,2.345.389,1.284,1.294.519,2.02.411.847-.127,1.285.37,1.629,1.033a20.254,20.254,0,0,0,1.164,2.162c.984,1.432,2.3,1.5,2.946-.027.407-.96,1.594-2,.611-3.3-.73-.429-1.02-1.519-2.111-1.4-2.011,0,.1-3.741-2.512-3.058,1.217.287,2.442-1.11,3.92-.461h1.407a7.952,7.952,0,0,0-.279-4.334c-.122-.3-.086-.931-.183-.944-3.3-.426-1.889-2.1-1.107-3.745.17-.36-.36-1.051-.568-1.59a2.611,2.611,0,0,0-.689.119,7.387,7.387,0,0,0-.674.644,1.913,1.913,0,0,0-1.519.579c.017.516-.23.758-.748.719-1.025.063-1.252,1.122-1.964,1.576-.308,1.212-.6,2.328-2.036,2.851a22.6,22.6,0,0,0-6.446,4.1Z" transform="translate(-269.258 -84.997)" fill="#e9d4a9"/><path d="M78.448,110.364C74.7,107.5,70.1,106.5,65.915,104.579c-2.939-1.35-6.21-1.234-9.132-2.587-.9-.416-1.959-.425-2.731-1.266a2.268,2.268,0,0,0-1.529-.765c-4.78.29-8.516-3.259-13.134-3.515a9.112,9.112,0,0,1-1.032-.173c-2.03,2.294-.119,3.185,1.484,4.192,6.263,1.7,12.8,2.3,18.926,4.551,2.734,1.006,5.694,1.142,8.372,2.318a26.035,26.035,0,0,1,6.457,2.419c1.5.7,3.055,1.876,4.851.612" transform="translate(245.868 -88.472)" fill="#f9f3e7"/><path d="M90.235,90.352c1.813,1.32,4.083,1,6.024,1.162,6.132.511,12.178,1.548,18.256,2.367,3.555.478,7.129.91,10.627,1.674,2.449.535,4.866.3,7.3.407,1.151.052.976-.67.79-1.388-4.059-.322-7.977-1.588-12.1-1.672a14.161,14.161,0,0,0-4.071.041c-1.42.363-2.976.781-4.111-1.138-.4-.671-2.167-.762-3.3-.726-6.493.2-12.918-1.262-19.417-.728" transform="translate(128.537 -89.577)" fill="#f9f4ea"/><path d="M199.731,93.218c.276-.2.554-.589.827-.586,4.561.054,8.984-1.611,13.622-.949a6.774,6.774,0,0,0,4.575-1.248,103.691,103.691,0,0,1-14.9-.573c-1.982-.286-3.695.314-5.477.619-3.052.524-6.241.084-9.18,1.327-.034.192-.07.383-.105.576a2.182,2.182,0,0,0,1.658,1.5c3-.1,6.111,1.177,8.984-.667" transform="translate(-73.809 -89.659)" fill="#f5eddb"/><path d="M220.862,97c1.181,1.243,2.34-.486,3.516-.025.186.039.372.077.557.118,6.61-.227,13.182-1.023,19.783-1.408a2.437,2.437,0,0,0,2.217-1.455c-.324-1.975-1.674-1.981-3.077-1.428a3.709,3.709,0,0,1-3.293-.034c-.793-.161-1.72-.671-2.356-.424-3.125,1.215-6.395.845-9.6,1.136-.38.965-1.387.969-2.122,1.387h0c-.561.68-1.539.085-2.121.7l-1.393.015c-.561.667-1.536.084-2.115.7h0q-.366.243-.241.485c.082.16.163.24.245.24" transform="translate(-139.253 -89.202)" fill="#f5eddb"/><path d="M39.2,108.735c-2.551.073-4.6-1.4-6.661-2.5a9.211,9.211,0,0,0-4.574-1.068c-.085,1.76,1.653,1.365,2.451,2.083,1.672,2.243,5.163,1.06,6.7,3.565a2.84,2.84,0,0,0,.941.418c3.705.135,6.968,1.759,10.353,2.991a7.184,7.184,0,0,0,2.056.122c-2.526-2.347-6-2.693-8.919-4.231a6.4,6.4,0,0,1-2.344-1.381" transform="translate(285.118 -86.843)" fill="#eedebe"/><path d="M249.164,102.388c2.837.16,5.315-1.275,7.922-2,2.339-.65,5.054-.842,6.855-2.918-2.2-.424-4.428.266-6.6-.057-1.727-.258-1.579,2.17-2.964,1.823a3.984,3.984,0,0,0-3.3.691,9.923,9.923,0,0,0-1.915,2.458" transform="translate(-190.069 -88.278)" fill="#f8f2e5"/><path d="M5.353,126.6a1.959,1.959,0,0,0-.344.008c-.955.173-2.475-.522-2.739.641-.305,1.351,1.065,2.34,2.246,2.592,1.969.419,2.261,2.714,4.122,3.3.386.122.176,2.143.241,3.287l.711-.02c1.387-1.653.889-3.3,0-4.955A11.254,11.254,0,0,0,5.353,126.6" transform="translate(355.572 -82.926)" fill="#e4cb97"/><path d="M82.83,99.878c-1.22-.862-2.156-1.84-1.417-3.5-1.588-.075-3.2.148-4.736-.535-.388-.173-1.178-.27-1.3-.08-1.368,2.035-3.425,1.086-5.2,1.3,0,.233,0,.467,0,.7.138.138.277.277.414.418,2.558.71,5.077,1.563,7.655,2.2,1.571.389,3.191.825,4.59-.509" transform="translate(202.814 -88.583)" fill="#f6eedc"/><path d="M311.731,130.142q-.351.016-.7.059c-.406.414-1.028.305-1.479.612l.026,0a1.464,1.464,0,0,1-.825.7,1.3,1.3,0,0,0-.555.2,2.657,2.657,0,0,0-.667.576c-1.281.593-1.533,2.165-2.71,2.856,1.184,1.363,2.7.59,4.088.634.787-.789-.1-2.008.716-2.791l0,0c.956-.764,3.175-.594,2.111-2.854" transform="translate(-303.988 -82.27)" fill="#ddc07e"/><path d="M290.6,125.28c3.057-1.2,5.62-3.336,8.743-4.476,1.823-.666-.754-1.565-.261-2.481a37.149,37.149,0,0,1-5.947,4.4c-.982.655-2.356,1.051-2.534,2.553" transform="translate(-275.151 -84.434)" fill="#ead7ad"/><path d="M214.075,92.991c1.03.789,2.111,1.5,3.371.519,1.084-.838,1.967.309,2.962.182.159.015.316.032.474.05,1.629-.1,3.193-.725,4.871-.506a2.168,2.168,0,0,0,2.387-1.652l.007-.012c-2.15-1.245-4.163.227-6.239.367-2.624.176-5.225.686-7.834,1.052" transform="translate(-112.762 -89.423)" fill="#f5eddb"/><path d="M250.36,96.44l0-.725c-2.713-1.163-4.919.9-7.405,1.2-.144.018-.22.6-.328.92,2.707.248,5.161-.907,7.736-1.393" transform="translate(-168.751 -88.638)" fill="#f8f2e5"/><path d="M.05,130.7q0,2.477,0,4.956l3.438-.04C2.6,133.793,2.013,131.765.05,130.7" transform="translate(365.107 -82.168)" fill="#dcbd79"/><path d="M17.261,117.061c-.1,1.2.916,1.843,1.357,2.772.9,1.891,1.861,1.131,2.837.082-1.356-1.013-2.359-2.544-4.194-2.854" transform="translate(326.79 -84.665)" fill="#ecdcb9"/><path d="M12.454,119.472c.292,3.567,3.274,3.484,5.678,4.187-1.576-1.826-3.967-2.544-5.678-4.187" transform="translate(335.793 -84.224)" fill="#ecdcb9"/><path d="M300.327,126.874c.045.9-.072,2.334,1.264,1.8,1.258-.5,2.2-1.8.776-3.3l-.712.658c-.283.525-.989.373-1.318.826Z" transform="translate(-289.742 -83.143)" fill="#e0c487"/><path d="M279.774,111.958a3.431,3.431,0,0,0,.6.784c.777.562,1.977.916,2.36.052.6-1.355-.756-1.513-1.73-1.719l-1.235.883" transform="translate(-245.23 -85.761)" fill="#e4cb97"/><path d="M20.8,115.279c.162,2.391,1.923,2.118,3.521,2.115-.657-1.566-2.409-1.309-3.521-2.115" transform="translate(319.738 -84.992)" fill="#ecdcb9"/><path d="M272.951,107.782c1.112-.121,2.58.466,2.812-1.411a3.973,3.973,0,0,0-2.812,1.411" transform="translate(-230.034 -86.623)" fill="#f1e5ca"/><path d="M25.536,112.931c.561,1.278,1.63,1.491,2.861,1.364a4.186,4.186,0,0,0-2.861-1.364" transform="translate(310.05 -85.421)" fill="#eedebe"/><path d="M236.076,94.685c1.025.022,2.041.033,2.122-1.387-.749.4-1.626.6-2.122,1.387" transform="translate(-148.842 -89.016)" fill="#f8f2e5"/><path d="M288.571,117.1c.344.44.76.958,1.255.3.3-.4-.135-.773-.508-1.021l-.748.718" transform="translate(-262.679 -84.789)" fill="#ddbb78"/><path d="M240.838,95.768c.776-.017,1.605.127,2.115-.7-.778.011-1.6-.122-2.115.7" transform="translate(-159.231 -88.692)" fill="#f8f2e5"/><path d="M237.869,95.166c.78-.009,1.614.143,2.121-.7-.776.024-1.6-.1-2.121.7" transform="translate(-152.755 -88.802)" fill="#f8f2e5"/><path d="M301.533,126.756a1.292,1.292,0,0,0,1.319-.825,1.462,1.462,0,0,0-1.319.825" transform="translate(-290.938 -83.041)" fill="#ead7ad"/><path d="M305.651,130.814a1.388,1.388,0,0,0,1.479-.613l-.774-.067q-.353.339-.705.68" transform="translate(-300.088 -82.272)" fill="#e2c890"/><path d="M287.232,115.995l.674-.645-.674.645" transform="translate(-259.073 -84.979)" fill="#ead8b0"/><path d="M23.769,114.661l.706.742-.706-.742" transform="translate(316.062 -85.105)" fill="#ecdcb9"/><path d="M306.879,131.41a.968.968,0,0,0,.825-.7l-.825.7" transform="translate(-302.115 -82.167)" fill="#e2c890"/><path d="M308.045,132.049l.667-.577-.667.577" transform="translate(-304.503 -82.027)" fill="#e2c890"/><path d="M104.572,117.466a8.726,8.726,0,0,0,.112,2.091c.329,1.109.138,1.8-1.044,2.125a1.593,1.593,0,0,0-.859.513c-1.247,1.817-1.409,2.053-2.906,1.232-1.2-.655-1.84-.735-2.466.542a1.856,1.856,0,0,1-.948.965c-1.859.473-1.931,1.75-1.6,3.248.1.45.328.887-.056,1.309-2.79-.821-.957-3.549-2.021-5.136-1.436,1.743-1.436,1.743-.3,5.717-.829.854-1.311-.854-2.108-.285-.084.877-.181,1.777-.254,2.679a.877.877,0,0,1-.887.884c-.59.034-.807-.418-.8-.911.012-1.584-.53-3.341,1.278-4.413a1.5,1.5,0,0,0,.653-1.151c.206-1.124-2.744-.773-1.124-2.539.854-.932.635-1.9-.226-2.786a.53.53,0,0,1,.232-.847,1.1,1.1,0,0,1,.942.032,2.36,2.36,0,0,0,2.483.789c-.1-1.2-1.731-3.581,1.622-2.951-.412-1.936-1.971-3.8.27-5.371,2.972-2.088,2.977-2.081,5.268-.186.7-1.106.859-2.141-.06-3.117-.528-.561-.305-1.038-.129-1.579a2.559,2.559,0,0,0-.24-1.331,3.239,3.239,0,0,0-.557-.744,3.185,3.185,0,0,0-.792-.509,3.564,3.564,0,0,0-.937-.189c-1.061-.364-2.377,1.24-3.261-.433a3.081,3.081,0,0,0-.547-.687,10.549,10.549,0,0,1-1.017-.8,1.21,1.21,0,0,0-1.148-.422,4.837,4.837,0,0,0-.8.286c-.128.054-.253.118-.38.169a1.756,1.756,0,0,1-1.9-.24c-.459-.382-.819-.922-1.5-.931-2.131,1.674-1.552,4.169-1.813,6.359a13.377,13.377,0,0,0,.117,3.524c.362.213-.648.469-.246.226.112-.067-.039-.106-.089-.246-.526-1.492-3.644.48-3.238-2.455.054-.4-1.227-.031-1.822.3-.769.422-1.472.723-2.169-.143-.484-.6-.906-1.526-1.945-.825a2.124,2.124,0,0,0-.73,2.506c.185.8.758,1.449.926,2.264-3.3-.748-6.48,1.45-6.449,4.629.018,1.826,1.01,3.935-1.268,4.951-2.448,1.091-3.713-.984-5.068-2.427a26.209,26.209,0,0,1,2.235,1.486c1.747,1.072,2.836.4,3.681-1.185,1.253-2.353.728-6.84-1.088-8.927-.6-.689-1.243-1.673-2.266-1.287s-.907,1.533-.909,2.466a6,6,0,0,0,.562,2.378c-1.442-1.626-1.346-1.621-1.217-4.234.091-1.876.2-4.021-2.81-3.56-1.433.949-1.988-.631-2.952-1.039a1.733,1.733,0,0,0-1.378.182c-.86.92-.531,2.192-1.18,3.231.749-1.525.115-3,0-4.505.092-.88.058-1.708-1.139-1.681a4.109,4.109,0,0,1-2.512-1.077V99.608c-1.844,1.511-3.2,2.864-2.816,5.189-2.014,2.143-2.251,4.789-2.061,7.525.121,1.727.918,3.7,2.443,3.892,2.154.27,2.445,2.177,3.882,2.945-1.362-.982-2.616.407-3.9.118a2.044,2.044,0,0,0-.9.379c-.537.456-1.222.981-1.209,1.643.035,2-1.077,1.8-2.339,1.371-1.123-.379-2.281-.907-3.108.407-.762,1.212-.1,2.216.716,3.123.7.782,1.208,1.707,1.849,2.534.288.37.637.885,1.046.868,1.985-.08,3.883-1.022,5.792.027-.143.482-1.3,1.1-1.568,2.269a2.1,2.1,0,0,0,.773,2.479c1.182.717,1.813-.05,2.649-1.667-1.523,2.4-.272,3.484.926,4.581.151.254.612.269.541.674-.006.031-.231-.411-.538-.292-.925.216-2.246-.411-2.579,1.075-.327,1.454.8,2.008,1.8,2.6h.721c.47-.37.938-.53,1.4.009l16.872-.018c.186-1.414-.629-2.424-1.39-3.458-1.025-.969-2.605-.234-3.638-1.178a6.452,6.452,0,0,1,3.682,1.221c3.734,1.753,7.386,3.753,11.788,2.282,1.655-.553,2.236-2.826,4.327-2.512.3-.03.393-.62.61-.441s-.366.354-.327.674a4.745,4.745,0,0,0,1.129,3.418q8.092,0,16.183,0a12.72,12.72,0,0,0-1.067-1.375c-1.485-1.467-2.328-3.082-1.759-5.271a6.515,6.515,0,0,0-.118-4.108c-.392-.99-.08-1.7,1.008-1.673,2.476.06,3.187-1.508,3.34-3.521.138-1.837,1.08-1.4,2.124-.9.231-.633,1.466-.872.58-1.959-.986-1.209-2.153-2.315-2.157-4.152,0-1.039-1.162-.861-1.94-.928" transform="translate(210.618 -87.861)" fill="#ead7af"/><path d="M123.369,141.933a9.011,9.011,0,0,1-1.139-1.692c-.509-1.3-.164-1.355.994-.717.685.377.931-.834,1.562-1.066h0a6.05,6.05,0,0,1,0-1.4c.35-1.5-2.561-.259-1.758-2.183a5.385,5.385,0,0,0,.65-3.128c-1.369.254-.8,1.527-1.274,2.145-.364.473-.729,1.006-1.4.641a1.26,1.26,0,0,1-.692-1.464c.385-.963,1.057-1.808,1.49-2.755.5-1.084,1.46-2.183.367-3.418-.767-.033-.778.495-.872.93-.137.642.2,1.6-.654,1.8-1.066.253-1.277-.717-1.523-1.5-.217-.684-.512-1.456-1.363-1.28-.926.192-.659,1.074-.622,1.736.025.439.324.891-.17,1.273a1.527,1.527,0,0,1-1.749-.807c-.786-1.274-1.266-2.74-2.667-3.6-.553-.338-.425-1.049-.088-1.575.388-.6,1.191-.712,1.477-.24,1.118,1.852,3.287-.2,4.594,1.546-1.228-2.053-.227-3.527.623-5.026-.724-.839-1.694-1.5-1.927-2.772.932.775,1.009,2.069,1.927,2.771.814.1,1.407,1.888,2.5.155.66-1.048,1.01.163,1.449.554s.825,1.4,1.6.65a1.244,1.244,0,0,0-.338-2.07c-1.3-.838-2.655-1.585-1.64-3.5-1.26-.476-2.25,1.388-2.972.381-.813-1.136-2.042-2.1-1.976-3.879a28.4,28.4,0,0,1,1.375-7.073c-1.643.712-2.712-.015-3.516-1.407-.924-.193-.98.677-1.524,1.309a21.549,21.549,0,0,0-1.668-3.244c-.8-1.075-1.519-.855-1.732.529h-3.054c.956-2.092.511-4.047.752-6.13-2.661,1.342-2.7,1.359-1.769,3.414.213.471.4.833.071,1.247-.538.676-1,.234-1.469-.14-.511-.409-.945-1.17-1.749-.525-.39.312-.651.969-.366,1.245,1.815,1.762.08,2.494-.9,3.475-.144.144-.166.409-.244.62.148.582.569.628,1.077.6,2.43-.159,3.971,1.128,4.11,3.4.041.684-.493,1.287-.142,2.041.826,1.766.389,1.918-1.375,1.267-2.424-.893.13,1.635-1.361,1.785-.7-2.87-3.56-2.936-5.912-4.131-.5,1.124-.912,2.405-2.19,2.9-.487.19-1.062.428-1.131-.6-.075-1.133-.26-1.232-1.124-.7-.558.344-.983.705-1.432.065a17.564,17.564,0,0,1-1.622-2.7c-.491-1.066.328-1.7,1-2.36.444-.435.742-1.091.116-1.491-.7-.446-.964.315-1.233.788-.4.711-.765,1.447-1.222,2.32-.909.167-1.326-1.248-2.307-.917a4.985,4.985,0,0,0,1.962,5.214,20.083,20.083,0,0,1,3.749,4.838,1.755,1.755,0,0,1-1.091,2.574c-1.262.388-1.923-.388-2.215-1.6-.224-.925.459-2.122-.919-2.894,0,1.789.127,3.456-.04,5.093-.134,1.306,1.029,1.067,1.532,1.57,2.888,2.89,2.836,3.461-.813,5.458.6,1.479,1.544,2.9,1.546,4.527,0,1.451.574,1.635,1.86,1.694,1.4.065,2.757-.886,4,.146a2.941,2.941,0,0,0,.29-2.907c-.235-.7-.544-1.5.247-1.846,1.132-.5,1.3.666,1.621,1.323.5,1.008,1.316,1.914.777,3.257-.461,1.151.626,1.569,1.172,2.177,1.1-.458.976-1.759,1.927-2.075.479.02.668.325.564.684-.286.978-.955,1.941.834,2.282.705.134.509.931-.072,1.32-.984.659-2.007,1.212-3.309-.092v3.161l2.1.019a.864.864,0,0,1,1.411-.022Z" transform="translate(140.452 -88.442)" fill="#ebd9b3"/><path d="M39.692,118.866c-.916,2.159-2.279,4.29-.089,6.511-1.468.593-1.865-.7-2.726-.88-1.439,1.588.36,3.338-.142,4.993-2.25-.048-1.578-2.235-2.451-3.242-2.244,2.029-2.231,2.023-1.126,5.018.182.5.427,1.233-.584,1.1-.487-.066-1.287-.757-1.181.267.124,1.2.312,2.572,1.633,3.28.684.367,1.292.565,1.7-.36a4.007,4.007,0,0,1,.415-.6c.348.981.684,1.93,1.02,2.876l7.067.014c1.742-1.274,2.414-3.8,4.91-4.188a3.014,3.014,0,0,0,0-4.224c-.76-.288-1.783-.79-1.707.619.1,1.907-.489,3.228-2.385,3.639-1.4.3-1.216,1.867-2.156,2.473-2.011-1.569-2.333-3.832-2.944-6.026-.476-1.711.632-1.868,1.61-1.855,1.268.015,2.328.87,3.332,1.511.952-.364.47-1.352.945-1.8.526-.493,1.777-.709.774-1.689-.842-.825-1.423.03-1.924.709a.791.791,0,0,1-.969.37c-.347-1.081-.108-2.455-1.339-3.348-.667-.484-.654-1.378-.4-2.259A2.225,2.225,0,0,0,39.692,118.866Z" transform="translate(282.532 -84.335)" fill="#ead7af"/><path d="M76.44,135.568c.265-1.475-.476-2.783-.693-4.179h0c-.815-.056-1.635-.071-2.442-.181a.817.817,0,0,0-1.041.587c-1.029,2.673-3.67,2.461-5.737,2.783-1.327.206-2.1-1.622-3.02-2.7-.984-.4-.81,2.641-2.344.823a2.7,2.7,0,0,0-2.3-.606h0a3.307,3.307,0,0,0,1.4,3.469l16.181.006" transform="translate(222.557 -82.078)" fill="#e7d2a5"/><path d="M307.556,132.551c-1.035.726-.606,1.828-.715,2.791a2.542,2.542,0,0,0,.683-.028q.016-1.381.032-2.763" transform="translate(-301.922 -81.829)" fill="#e2c890"/><path d="M106.069,135.053c-.054-.422-.1-.96-.561-1.033-.751-.123-.747.551-.851,1.055l1.411-.022" transform="translate(138.768 -81.563)" fill="#ecdbb7"/><path d="M88.22,135.036c-.1-.29-.131-.78-.3-.834-.659-.208-.849.383-1.1.826l1.4.008" transform="translate(177.724 -81.535)" fill="#ebd9b3"/><path d="M231.808,93.4l-1.4-.7c-3.043.716-5.008,2.468-4.873,8.172-.968-2.306-1.388-4.2-3.005-5.572-.736-.623-.867-1.978-2.241-1.274a2.211,2.211,0,0,0-1.311,2.891,2.87,2.87,0,0,1,.234,1.058c-.516-.62-.288-2.823-2.242-2.96-1.484-.1-3.237.626-4.389.39-3.251-.667-4.874,2.708-7.856,2.488-1.214-.09-2.335,1.129-2.534,2.563-.189,1.374-1.28,1.869-2.173,2.587-.645,1.455-.574,2.611,1.407,2.364,1.48-.183,3.178.419,4.572-.806-.982.952-1.027,2.371-1.621,3.579.1.971-.327,2.075.708,2.811.234-.256.468-.561.7,0-.1,1.1.332,2.286-1.24,2.927-1.215.495-.719,1.468.285,1.585,1.152.134,2.944,1.22,3.147-1.291.071-.87.8-1.1,1.549-1.085,1.093.024,1.6-.536,2.1-1.477.632-1.189,2.437-2.016,2.064-3.425a10.145,10.145,0,0,0-2.14-4.613c-.161-.169-.394-.3-.483-.5-.308-.693-1.214-1.473-.263-2.153,1.216-.871,1.058.806,1.617,1.053,1.544.683,1.854,1.816,1.876,3.352a15.175,15.175,0,0,0,.948,3.385l.969-3.747.468-.06c.334,1.574.667,3.146,1.091,5.147-2.432-.674-3.846.085-4.362,2.292a1.85,1.85,0,0,1-1.814,1.409c-1.327.12-1.97,1.084-2.69,2.076.568,1.292,2.014-.484,2.687.818.329.635.858.141,1.2-.482.965-1.755,1.013-1.729,2.215.186,1.3-.254.491-3.4,2.928-2.189.16.079.291-.516.193-.875-.166-.61-1.181-.892-.663-1.823,1.878.666,1.673,2.243,1.687,3.718,1.608-.069,2.884.412,2.772,2.28-.1,1.689,1.331,2.674,1.624,4.175a1.472,1.472,0,0,0,1.885,1.161c1.666-.479,1.9.447,2.247,1.744.857,3.213,3.884,4.67,5.977,7.858.324-2.24-1.635-3.161-.666-4.645.187-.285-.379-.736-.842-.942a4.019,4.019,0,0,1-2.735-4.258c.366-3.521.366-3.521-2.79-4.137.516-1.808,3.18-2.076,3.078-4.26-.009-.185.409-.459.361-.561-1.251-2.6-.109-4.193,2.034-5.649.754-.512,0-1.614-.547-2.131a20.477,20.477,0,0,0-2.877-1.9,4.928,4.928,0,0,0,1.813-4.392c.422.108.732.091.828.226.588.825-.007,2.58,1.691,2.479,1.4-.083.946-1.659,1.485-2.477.3-.458.306-1.114.846-1.462.678-.826,1.326-1.655.5-2.751a1.972,1.972,0,0,0-.845-.5c-2.415,2.033-2.307-.745-3.172-1.672" transform="translate(-103.764 -89.127)" fill="#ebd9b3"/><path d="M239.327,96.387c-.782.9-.959,2.438-2.667,2.36-.582-.026-.71.539-.524,1.026a2.2,2.2,0,0,1,.082,2.014c-.181.311-.419.6-.829.505-.377-.085-.638-.416-.433-.737.909-1.426.013-2.242-1.045-2.8-1.31-.691-2.147.315-3,1.142a3.385,3.385,0,0,0-1.355,2.744c.342,2.325-1.76,4.783.439,7.018.385.392.018,1.1-.315,1.62-.563.886-1.071,1.808-1.6,2.715.885-.083,1.48.6,2.455.942.738-.767.043-2.731,1.931-2.751.842.991-1.221,3.31.946,3.315,1.557,0,.793-2.091,1.009-3.264.082-.439.17-.877.361-1.844,1.41,1.82,2.444,3.3,2.668,5.245,1.348-.342,1.266-1.912,2.382-2.157a2.117,2.117,0,0,1,1.335.117c.712.376.483.849,0,1.355-.428.446-.554,1.378.116,1.342,2.145-.117,1.828,1.749,2.545,2.786,1.03.225,1.084-1.241,2.3-1.156,1.889.134,1.609-1.556,1.617-2.81,0-.183-.2-.369-.3-.554-2.128,1.372-2.114-1.352-3.211-1.675-3.626-1.068-2.322-4.393-3.275-6.66-.167-.4.27-.945.794-.957.545-.012.687.44.73.954.363,4.334.96,5.135,4.284,5.8.873-1.323-.45-2.422-.387-3.656,1.873-1.684,4.064-3.131,3.652-6.222-.135-1.014.7-.461,1.182-.358,3.11-.5,1.346-2.686,1.116-3.96a2.512,2.512,0,0,0-3.691-2c-2.138,1.093-4.7-.345-6.674,1.592-.964.948-.983-2.526-2.629-1.025Z" transform="translate(-154.203 -88.611)" fill="#ebd9b3"/><path d="M230.009,100.669c-.742-.31-.755-1.435-1.7-1.575-.743.677-.381,1.526-.387,2.264-.017,1.746.185,3.5-2.007,4.256-.923.318-.8,1.288-.829,2.091.807-.05,1.824.286,2.36-.348.974-1.154,2.61-1.123,3.1-.538,1.141,1.371,2.163-1.362,2.985.185,1.829-1.442,2.279-3.251,1.1-6.709.127,2.625-.39,3.846-2.418,2.874-.726-.348-1.258.066-1.911.29-1.519.523-.777-.822-.994-1.382.388-.392,1.144-.6.7-1.407" transform="translate(-132.92 -87.955)" fill="#edddbb"/><path d="M199.746,103.077c.879-1.046,1.31-1.882-.725-1.743-1.169.079-2.21,1.516-3.5.335-2.132.051-.961,2.687-2.507,3.2-.105.105-.206.214-.306.323a1.54,1.54,0,0,0,.075,1.913c.538.606.045,1.417-.424,1.3-3-.775-1.617,1.737-2.046,2.759-.207.493.293,1.284.49,2,2.921-1.96,3.89-5.325,6.405-7.383.655-.537.265-1.57.51-2.326.411-1.272,1.164-1.26,2.025-.37" transform="translate(-56.925 -87.548)" fill="#ebd9b3"/><path d="M212.821,118.062c.03-.588.085-1.24.64-1.521.8-.408.877.5,1.2.868.849.977.716,2.826,2.727,2.806.537,0,1.052.409,1.44-.25.317-.538.428-1.2-.1-1.572-1.109-.793-1.894-1.682-1.687-3.147-1.02-.1-2.655.22-1.138-1.637a2.869,2.869,0,0,0,.434-1.881c-2.45.448-2.913,2.958-4.418,4.389-.51.485.213,1.452.9,1.945" transform="translate(-100.958 -85.642)" fill="#ebd9b3"/><path d="M201.465,98.859a1.46,1.46,0,0,1-.705-1.408c-2.525-.123-3.585,1.666-4.556,3.533-.667,1.281-.181,2.192,1.04,2.8.844-1.661,1.816-1.119,2.612-.038.446.6.06,1.648.905,2.15,1.482-2.221,1.194-4.62.7-7.038" transform="translate(-64.976 -88.257)" fill="#ebd9b3"/><path d="M245.166,117.367h-.7c.076,1.3.994,2.366.629,4.362,1.665-1.3,2.932-2.474,4.278-.7.2.267.633-.054.8-.381.375-.72.93-1.508.2-2.24s-1.676-1.171-1.491-2.526c.08-.584-.62-.309-1.047-.189-1.547.432-.743,1.645-.854,2.553-.822.121-1.136-.748-1.809-.878" transform="translate(-171.293 -84.947)" fill="#ebd9b3"/><path d="M252.793,112.527a2.408,2.408,0,0,1-1.407-1.868,12.269,12.269,0,0,0-1.155-3.295,21.669,21.669,0,0,1-1.4,5.333c-.419.99.934,2.285,2.354,2.322a1.588,1.588,0,0,1,1.6,1.026c.919-1.172.282-2.346,0-3.519" transform="translate(-178.92 -86.441)" fill="#ebd9b3"/><path d="M202.171,95.507c.732.938-.014,1.876,0,2.813a1.284,1.284,0,0,0,1.407-1.407,3.859,3.859,0,0,0,.7-1.407c.066-1.207-.127-2.283-1.408-2.815-.371.321-.331.764-.355,1.188-.017-.425.027-.867-.347-1.189-.836,1.92-2.1,1.723-3.521.705-.291,1.408,1.028,2.618.479,4.071a.873.873,0,0,0,.761,1.269c.752.037.957-.672.71-1.239-.76-1.732.13-2.054,1.57-1.992Z" transform="translate(-70.606 -89.127)" fill="#ecdbb6"/><path d="M179.79,100.685a3.12,3.12,0,0,0,.777,2.58c.757.8,1.514.693,1.977-.141.7-1.267,1.2-2.648,1.917-4.29a3,3,0,0,0-2.15,1.936c-.994,1.769-1.724.765-2.521-.085" transform="translate(-28.499 -88.003)" fill="#ecdbb7"/><path d="M200.759,109.349c1.521-1.093,3.248-1.62,1.485-3.866a3.62,3.62,0,0,0-1.485,3.866" transform="translate(-71.762 -86.785)" fill="#ebd9b3"/><path d="M158.125,121.342c2.055-.941,1.062-3.009,1.723-4.466-1.459,1.162-2.37,2.526-1.723,4.467Z" transform="translate(21.984 -84.699)" fill="#ecdbb7"/><path d="M241.189,113.862a.607.607,0,0,0-.829.529c-.129.561-.189,1.169.466,1.447.419.176.607-.2.693-.541a1.277,1.277,0,0,0-.33-1.435" transform="translate(-157.21 -85.256)" fill="#ebd9b3"/><path d="M263.167,115.892A1.979,1.979,0,0,0,261.057,118a1.977,1.977,0,0,0,2.109-2.111" transform="translate(-203.365 -84.879)" fill="#ecdbb6"/><path d="M225.564,108.43a1.107,1.107,0,0,0,.486-1.478.628.628,0,0,0-.538-.277c-.906.306-.538,1.124-.648,1.753h.7" transform="translate(-123.549 -86.568)" fill="#edddbb"/><path d="M199.228,102.856v2.018c.77-.046.571-.574.573-.93a1.28,1.28,0,0,0-.573-1.088" transform="translate(-66.872 -87.266)" fill="#ebd9b3"/><path d="M251.76,117.237c-.368-.438-.394-1.561-1.408-.7a1.45,1.45,0,0,0,1.408.7" transform="translate(-179.294 -84.819)" fill="#ebd9b3"/><path d="M198.726,95.071a1.455,1.455,0,0,0-.7,1.408l1.408-.7c-.235-.234-.47-.47-.7-.7" transform="translate(-65.052 -88.692)" fill="#ebd9b3"/><path d="M184.5,100.224c-.19-.082-.431-.279-.561-.221-.291.127-.241.344.083.426a5.055,5.055,0,0,0,.645.076l-.167-.28" transform="translate(-33.408 -87.791)" fill="#ecdbb7"/><path d="M249.7,114.7q-1.075.7,0,1.408,0-.7,0-1.408" transform="translate(-175.828 -85.097)" fill="#ebd9b3"/><path d="M216.8,117.082c.053.1.127.284.157.277.233-.051.177-.16-.157-.277" transform="translate(-104.936 -84.661)" fill="#ebd9b3"/><path d="M213.25,114.748c.1-.053.284-.127.277-.157C213.476,114.358,213.367,114.413,213.25,114.748Z" transform="translate(-97.165 -85.143)" fill="#ebd9b3"/><path d="M198.132,96.369l-.7-.7.7.7" transform="translate(-63.051 -88.583)" fill="#ebd9b3"/><path d="M69.157,109.555c1.356-.665,1.9-.083,2.1,1.266.334,2.246-.8,4-2.1,5.764,1.266.427,1.473-.859,2.376-.875.877.872.765,2.3,1.643,3.436a1.5,1.5,0,0,0,.955-2.36,6.106,6.106,0,0,1-.582-4.408c3.9,2.865,4.4,6.216,1.506,10.913-1.578-1.337-3.866-1.564-5.054-3.933.163,4.209,1.919,5.963,5.46,5.853a3.135,3.135,0,0,0,2.952-4.14c-.855-2.6-.021-4.532,2.538-5.8,1.074-.532,2.315-1.325,1.99,1.013a.559.559,0,0,0,.729.543,1.216,1.216,0,0,0,.731-.644,3.445,3.445,0,0,0-.382-3.335c-.678-.887-1.2-1.776.037-2.819,1.09.631.61,2.7,2.126,2.733,1.313.032,1.666-1.878,3.25-1.973.258,1.346-1.258,3.077.752,4.031,1.254-.134.328-1.817,1.432-2.068.628.049.687.495.653.977-.046.622-.66,1.534.457,1.648.886.09,1.1-.871,1-1.523a14.682,14.682,0,0,1,.157-4.745c.385-1.933-.505-4.27,1.3-5.886.2-.556-.13-1.11-.551-.949a5.25,5.25,0,0,1-5.914-1.015c-1.5-1.336-3.633,1.091-3.887.777-1.035-1.278-1.912-2.231-3.7-1.953-.8.123-1.414.9-2.3.564-.252-.17-.5-.33-.749-.508-2.242-1.635-5.3-.858-7.517-2.558h0c-.33.111-.776.42-.974.305-2.233-1.31-3.942-.6-5.226,1.3-1.22-.046-.715-1.144-1.233-1.562s-.782-1.22-1.986-.848a13.031,13.031,0,0,1,1.169,3.74,21.683,21.683,0,0,1,.655,3.74c-1.1.775-1.956-.512-2.967-.332a2.215,2.215,0,0,0,2.179,1.409c1.177.015.87.734.635,1.4.744.409,1.744.435,2.111,1.409h1.407a7.1,7.1,0,0,1,2.815,1.407" transform="translate(202.412 -88.396)" fill="#ebd9b3"/><path d="M148.083,98.182c.589-.046.709-.487.834-.95.308-1.124.64-2.242.954-3.365.2-.722.971-1.63-.232-2.044-.8-.276-1.2.581-1.454,1.216a24.029,24.029,0,0,0-1.23,3.635,1.277,1.277,0,0,0,1.129,1.508" transform="translate(44.535 -89.296)" fill="#ead8b0"/><path d="M154.5,128.755c1.129-.29,1.286-1.067,1.74-1.555a1.305,1.305,0,0,0-1.212-2.306,1.675,1.675,0,0,0-1.527,1.622,3.6,3.6,0,0,0,1,2.238" transform="translate(30.229 -83.241)" fill="#ead8b0"/><path d="M143.3,111.257a5.766,5.766,0,0,0,.66-3.722c-.058-.519-.322-.982-.825-.92-.671.083-1.818.5-1.579,1.023.55,1.208.316,2.845,1.744,3.618Z" transform="translate(57.216 -86.579)" fill="#ead8b0"/><path d="M144.3,102.612c-.618,1.274.386,2.189.677,3.217.141.5.757.5,1.188.284a.687.687,0,0,0,.14-1.162c-.712-.712-.784-1.967-2-2.339" transform="translate(51.607 -87.311)" fill="#ead8b0"/><path d="M141.069,110.538c.151,1.274-.356,2.663.558,4.012,1.009-2.248,1.009-2.248-.558-4.011Z" transform="translate(59.442 -85.86)" fill="#ead8b0"/><path d="M141.443,115.157c-.493.27-.452.738-.392,1.175.069.492.327.886.892.677.368-.136.393-.555.327-.9-.088-.46-.256-.894-.827-.954" transform="translate(59.524 -85.014)" fill="#ead8b0"/><path d="M94.922,103.218c.941-.844.881-1.668.08-2.676C93.953,101.588,95.128,102.39,94.922,103.218Z" transform="translate(161.169 -87.69)" fill="#ebd9b3"/><path d="M23.223,128.333q0,2.112,0,4.224c2.954-.511,5.876-1.391,8.924-.439.492.154,1.472-.659,1.307-.828-1.736-1.794.924-3.444.143-5.175-1.721-.059-1.617,1.821-2.776,2.425-.99-.269-1.048-1.371-1.613-2.033-2.22-2.6-4.5-2.186-5.884,1.135a2.8,2.8,0,0,0-.1.691" transform="translate(307.444 -83.245)" fill="#ebdab4"/><path d="M49.327,111.2c-1.872,1.438-2.76.542-3.381-1.5-1.421,3.746-1.455,7.1-1.9,10.692,2.292-1.01,1.558-3.528,3.2-4.678,1.309-.917.88-3,2.081-4.515" transform="translate(267.217 -86.014)" fill="#ead7af"/><path d="M46.737,110.6c-.065-1.009-.508-2.037-1.523-1.96-2.117.161-3.315-1.3-4.814-2.256-1.454-.111-1.174.842-1.046,1.7q.17.2.343.4c.806-.366,1.883-.61,1.872.56-.025,2.442,1.8,1.861,2.462,1.233,1.294-1.222,1.847.058,2.706.318" transform="translate(275.491 -86.623)" fill="#ead7af"/><path d="M45.352,107.169c.917.939,1.572,2.179,3.005,2.52,1,.238,1.1-.422,1.216-1.112h0c-.874-1.652-1.656-3.461-4.11-2.372a.666.666,0,0,0-.11.965" transform="translate(265.617 -86.714)" fill="#ead7af"/><path d="M36.037,128.247c-.6,1.48.334,2.109,1.051,2.834.769.779,1.23.091,1.649-.4.622-.739.5-1.146-.573-1.233-.8-.065-1.065-1.22-2.127-1.2" transform="translate(287.139 -82.617)" fill="#ead7af"/><path d="M40.881,119.361v-3.2C38.7,117.93,38.7,117.93,40.881,119.361Z" transform="translate(281.344 -84.829)" fill="#ead7af"/><path d="M41.629,116.46c.463.09.62-.235.692-.574.121-.564.18-1.177-.489-1.443-.427-.17-.592.227-.69.558-.2.667.046,1.357.486,1.459" transform="translate(277.669 -85.152)" fill="#ead7af"/><path d="M41.322,120.651c.091.506.072,1.107.844,1.061a.317.317,0,0,0,.218-.218C42.429,120.723,41.828,120.742,41.322,120.651Z" transform="translate(277.385 -84.008)" fill="#ead7af"/><path d="M50.169,107.2v-.7c-.269-.635-.667-1.01-1.407-.7a1.455,1.455,0,0,0,.7,1.408h.7" transform="translate(260.8 -86.748)" fill="#ebd9b3"/><path d="M42.379,123.425c-.19-.082-.431-.279-.561-.222-.291.128-.241.345.083.426a4.654,4.654,0,0,0,.646.076c-.057-.092-.112-.186-.168-.279" transform="translate(276.864 -83.543)" fill="#ead7af"/><path d="M292.3,124.49c-.516-1.21-.893-2.876-2.347-.618-.634.984-1.71.515-2.592.637-1.264.174-1.484.929-1.241,2.049,1.3.647,1.64-1.652,2.926-.968.893,1.017-1.422,2.1.013,3a1.382,1.382,0,0,0,1.836-.583,3.436,3.436,0,0,1,1.406-3.52" transform="translate(-262.048 -83.623)" fill="#ead7ad"/><path d="M278.253,109.33c-.062.1-.128.189-.182.289-.272.505-1.4.678-.659,1.553a.953.953,0,0,0,.922.079c.911-.642.627-1.313-.089-1.926l.008,0" transform="translate(-238.161 -86.082)" fill="#e3ca93"/><path d="M284.59,124.22c.053.1.127.284.157.277C284.981,124.446,284.925,124.337,284.59,124.22Z" transform="translate(-252.93 -83.354)" fill="#ead7ad"/><path d="M305.743,130.211c.164,1.594-1.428,1.887-2.111,2.854a5.068,5.068,0,0,0,3.274-.989,1.054,1.054,0,0,0,.35-1.511c-.364-.709-.782-1.2-1.513-.354" transform="translate(-298.001 -82.34)" fill="#e2c890"/><path d="M264.263,106.025c.336,0,.673.021,1.006-.009.627-.059,1.417.124,1.531-.836a.733.733,0,0,0-.261-.581c-.868-.571-1.038.5-1.578.731C264.679,105.448,264.493,105.786,264.263,106.025Z" transform="translate(-210.794 -86.977)" fill="#ead8b0"/><path d="M216.529,101.865q-.351.7-.7,1.407c1.865.117,2.69-.689,2.884-2.622.173-1.706,2.345-2.673,3.969-1.9.493.235.739.544.891-.137.318-1.436,1.785-1.738,2.615-2.843.887.579-.38,1.915.941,2.293,1.264-.25.943-2.585,3.272-2.234,1.919.289,3.51-.349,3.941,2.352.2,1.282,1.633.752,2.805.8-2.761-2.442-2.76-2.8-.11-4.618.616.581-1.846,2.968,1.3,2.237.89-.206,1.079,1.647,1.266,2.58a3.79,3.79,0,0,0,2.541,3.348c-.366-4.1.106-7.7,3.934-9.811l-.717-.011c-3.043.218-6.086-.441-9.128.009-3.045.3-6.114.3-9.153.7l0,0a2.207,2.207,0,0,1-2.2,1.39c-4.013-.146-7.969.612-11.967.728a26.492,26.492,0,0,0-8.357,1.393c.569.115,1.228.168,1.156.986-.059.666-.641,1.287.025,2.259,1.5-1.245,3.523-1.617,4.677-3.264,1.162.647-.632,1.32.314,1.8.629.322,1.116-.151,1.579-.453.381-.247.638-.683,1.009-.95,1.511-1.087,2.623-.905,3.354.79.511,1.181,1.616,2.589-.147,3.763" transform="translate(-119.44 -89.152)" fill="#ecdbb6"/><path d="M194.462,102.589c.678-1.521.664-3.63,3.13-3.624a.84.84,0,0,0,.95-.812c.008-.965-.328-2.3-1.188-2.248-3.18.2-.981-1.605-1.06-2.721-1.091-.532-2.448.807-3.488-.334a.868.868,0,0,0-1.475.026,1.435,1.435,0,0,0-.127,1.639,23.817,23.817,0,0,1,2.553,5.258c-.646,1.158-1.168,2.287.7,2.816" transform="translate(-55.863 -89.171)" fill="#ebd9b3"/><path d="M197.306,101.456c-1.028-.741-.6-1.843-.7-2.816H195.2c-1.239,2.246-.5,4.689-.7,7.038.926.382,1.941,1.038,2.1-.754.084-.958-.273-2.038.715-2.765Z" transform="translate(-58.706 -88.038)" fill="#ead8b0"/><path d="M199.807,92.692c.03.338-.014.868.35.868s.323-.53.351-.868h-.7Z" transform="translate(-68.242 -89.127)" fill="#ebd9b3"/><path d="M81.183,107.305l1.407.7c2.088-.663,2.87,1.292,4.22,2.108.027-.77-.122-1.6.7-2.1-.6-1.145-2.225-.264-2.811-1.432-.34-.644-.819-1.275-1.546-1.275-4.367,0-8.2-2.106-12.333-3.057-4.5-1.036-9.044-1.773-13.558-2.7a13.929,13.929,0,0,1-7.006-1.137,13.2,13.2,0,0,0-5.658-.973,3.325,3.325,0,0,0,3.616,2.1,5.612,5.612,0,0,1,4.121,1.423h0c.136.721.31,1.5,1.284.946.476-.272.723-.926,1.188-1.236,1.26-.841,2.338-.381,2.777,1.149.217.756.2,1.592.819,2.2.217-.133.509-.2.588-.376,1.414-3.062,2.579-3.592,5.548-.039.22.264.334.616.549.887a2.457,2.457,0,0,0,.589.39c1.2-.516,1.3-3.327,3.541-1.8a1.459,1.459,0,0,0,.706,1.4c.938.059,1.876.628,2.815,0,.218-.251.489-.448.705-.7l.7.7a7.6,7.6,0,0,1,.7.7h.7c.846,2.154,2.994.4,4.221,1.407l.7,0C80.7,106.855,80.979,107.039,81.183,107.305Z" transform="translate(228.378 -88.257)" fill="#ecdbb7"/><path d="M212.883,93.615c3.166,1.261,6.183.583,9.152-.7a2.461,2.461,0,0,1-1.416-1.407c-.915.379-1.546,1.251-2.857.847a5.382,5.382,0,0,0-4.879,1.262" transform="translate(-105.239 -89.344)" fill="#f5eddb"/><path d="M87.789,106.749c.159-.736.316-1.471.5-2.328-1.233-.53-1.566,1.3-2.611.919-.425.3-.665.8-.267,1.126a1.867,1.867,0,0,1,.459,2.7c-1.182,2.1.535,1.747,1.966,2.262a13.079,13.079,0,0,1-.047-4.679" transform="translate(179.56 -86.997)" fill="#ecdbb7"/><path d="M79.279,132.379c-.379-1.086-1.523-1.394-2.212-2.172-.969-1.094-1.964-.408-2.774.219s-.723,1.3.252,1.892C76.142,133.286,77.7,132.332,79.279,132.379Z" transform="translate(202.14 -82.364)" fill="#e7d2a5"/><path d="M84.878,107.85c-.709-2.153-.709-2.153-2.815-1.407.151.315.31.626.451.945.783,1.792.782,1.792,2.364.461" transform="translate(186.692 -86.692)" fill="#ecdbb7"/><path d="M55.362,105.4c-1.146-1.253-3.016-.331-4.221-1.407.247,2.557.238,2.531,2.512,1.648a7.469,7.469,0,0,1,1.71-.241" transform="translate(252.791 -87.058)" fill="#ebd9b3"/><path d="M59.9,103.449c-.938.012-1.876-.732-2.813,0a1.7,1.7,0,0,0,2.813,0" transform="translate(241.216 -87.217)" fill="#ebd9b3"/><path d="M59.232,131.4c.1-.053.284-.127.277-.157-.052-.233-.161-.176-.277.159Z" transform="translate(239.073 -82.094)" fill="#e7d2a5"/><path d="M87.162,131.954c.053.1.127.284.157.277C87.553,132.179,87.5,132.07,87.162,131.954Z" transform="translate(178.076 -81.938)" fill="#ebd9b3"/><path d="M50.657,105.888c-.235-.234-.47-.468-.705-.7.235.233.47.467.705.7" transform="translate(258.903 -86.84)" fill="#ebd9b3"/><path d="M56.007,104.1l-.7-.7.7.7" transform="translate(247.223 -87.167)" fill="#ebd9b3"/><path d="M57.2,102.808l-.705.7.705-.7" transform="translate(244.626 -87.275)" fill="#ebd9b3"/><path d="M112.913,126.234c2.348-.767,2.327-.761,1.688-3.09a8.157,8.157,0,0,1,.1-5.756,5.64,5.64,0,0,0,.665-3.38c-.132-.718-.538-1.033-1.211-.776-.49.187-1.421.477-.951,1.1.955,1.256.3,2.062-.317,3.1a4.257,4.257,0,0,0-.149,4.027c.577,1.294.666,2.3-.629,3.364-1.327,1.091-1.148,4.1.086,5.175.628.545,1.371.17,1.978-.007.771-.227.5-.951.234-1.436-.44-.8-.987-1.538-1.494-2.311" transform="translate(121.681 -85.383)" fill="#ecdbb7"/><path d="M104.245,107.571c.086-2.974-3.278-.385-4.057-2.645-.519-1.506-3.31-1.027-3.962-3.216-.531,3.683,3.355,5.173,2.919,8.712.982-.924,2.254-.835,2.571-2.01.42-1.562,1.7-.536,2.529-.841" transform="translate(150.627 -87.476)" fill="#ecdbb7"/><path d="M94.275,112.422a11.036,11.036,0,0,1,1.156,5.29c-.231,2.286.807,2.629,3.391,1.353-.975-1.529-2.27-2.841-2.529-4.8-.2-1.486-.822-2.819.437-4.183.573-.62.469-1.521-.639-2.138a6.543,6.543,0,0,0-1.113,3.774c-.287.181-.659.279-.7.705" transform="translate(158.3 -86.335)" fill="#ead7af"/><path d="M94.865,117.209a5.3,5.3,0,0,0-2.47-4.67c-.457,3.618-.457,3.618,2.47,4.671Z" transform="translate(164.744 -85.493)" fill="#ead7af"/><path d="M98.721,112.383l.7-.705c-1.337-.826-.069-2.694-1.407-3.52a10.169,10.169,0,0,1-.34,2.029c-.441,1.164.134,1.733,1.045,2.2" transform="translate(153.854 -86.295)" fill="#ecdbb7"/><path d="M98.549,101.614c.045.429.037.9.512,1.1.084.037.4-.187.387-.248C99.356,101.988,98.957,101.788,98.549,101.614Z" transform="translate(152.617 -87.494)" fill="#ecdbb7"/><path d="M90.748,115.6c.051-.092.147-.189.14-.277s-.121-.163-.187-.244q-.327.3.047.521" transform="translate(170.642 -85.028)" fill="#ead7af"/><path d="M211.072,113.642c1.866-2.448.512-4.613,1.189-6.527.2-.574-.674-1.141-1.421-1.253a3.752,3.752,0,0,0-3.73,1.19c.6.658,1.158.053,1.686.153.409.077,1.261,0,1.006.513-1.159,2.347,1.669,3.326,1.271,5.924" transform="translate(-88.665 -86.73)" fill="#ead8b0"/><path d="M209.035,116.555c-.131-.157-.239-.406-.4-.451-.263-.072-.4.124-.312.383a.564.564,0,0,0,.208.258c.261.188.435.117.506-.19" transform="translate(-86.809 -84.843)" fill="#ead8b0"/><path d="M209.464,113.871l-.592-.115a2.841,2.841,0,0,0,.13.564.335.335,0,0,0,.306.1c.27-.092.317-.3.155-.554" transform="translate(-88.016 -85.27)" fill="#ead8b0"/><path d="M200.167,95.117c.1-.053.284-.127.277-.159-.052-.233-.161-.177-.278.157Z" transform="translate(-68.602 -88.738)" fill="#ebd9b3"/><path d="M74.1,100.471c.1-.053.283-.127.277-.157C74.324,100.081,74.215,100.136,74.1,100.471Z" transform="translate(206.616 -87.758)" fill="#ebd9b3"/></g></g><path d="M177.652,30.431c-3.32,6.048-8.322,10.862-12.574,16.227A60.525,60.525,0,0,1,150.492,59.78a35.082,35.082,0,0,1-6.094,3.333,17.7,17.7,0,0,1-4.122,1.109,25.349,25.349,0,0,1-1.2,2.259,69.915,69.915,0,0,1-3.836,6.5,99.763,99.763,0,0,1-8.349,11.009C124.4,86.554,120,90.523,116.2,89.968a3.633,3.633,0,0,1-.535-.219,9.941,9.941,0,0,0-1.177,1.042l-.047.049c-.088.137-.174.277-.26.413l-.007-.007-.054-.066c-7.171,7.516-13.83,15.551-21.75,22.318-5.281,4.727-10.913,9.117-16.52,13.472.528-.295,1.052-.6,1.577-.894q3.883-2.234,7.843-4.333c6.354-3.4,12.723-6.556,19.221-9.714,6.175-3.005,12.516-5.646,18.874-8.236,1.6-.646,3.209-1.268,4.842-1.823.788-.267,1.584-.515,2.389-.73a2.15,2.15,0,0,1,1.338-.043c2.185,1.325-1.618,3.669-2.661,4.654q-3.022,2.435-6,4.926c-6.644,5.33-13.18,11.176-21.2,14.345A76.968,76.968,0,0,1,90.045,128.3c-5.561.984-11.325,2.274-17.038,2.268a3.653,3.653,0,0,1-1.656-.072c-4.418,3.469-8.865,6.9-13.494,10.086-1.693,1.2-3.362,2.373-5.1,3.523-.53.371-1.23,1-1.794.329-.687-1.117.993-1.555,1.692-2.167.215-.144.427-.295.641-.44.006-.013.006-.026.012-.038a23.621,23.621,0,0,0,1.835-4.264c2.007-6.1,3.8-12.269,6.2-18.227a60.068,60.068,0,0,1,7.534-13.4A72.582,72.582,0,0,1,87.064,89.927c2.97-1.824,6.049-3.462,9.167-5.019,1.414-.7,2.847-1.395,4.289-2.047a3.081,3.081,0,0,1,1.551-.444.856.856,0,0,1,.73.862,1.5,1.5,0,0,1-.625,1.016c-.64.581-1.269,1.17-1.88,1.782-4.382,4.562-7.9,9.864-11.635,14.947-4.028,5.5-7.762,11.205-11.716,16.756-4.01,5.519-9.147,10.048-13.7,15.092-1.441,1.661-2.9,3.3-4.3,5,5.18-3.67,10.147-7.622,15.134-11.547,6.738-5.213,13.433-10.461,19.7-16.245,5.318-4.709,9.946-10.108,14.794-15.282,1.578-1.623,3.007-3.426,4.641-5q.483-.765.962-1.534c-.91-1.758-.579-4.347-.212-6.189,2.176-8.339,6.414-15.942,10.441-23.506-.448-.36-.883-.729-1.29-1.112-8.6-7.975-15.851-18.41-16.944-30.364-.483-5.274-.942-12.826,2.845-17a4.541,4.541,0,0,1,.648-.45c3.7-2.081,5.376,5.681,6.211,8.263.9,3.333,1.717,6.689,2.508,10.05,1.026,4.306,2.056,8.614,3.2,12.89a4.034,4.034,0,0,1,.629-.156c.459-.034,1-.243,1.493-.271-.291-1.1-.569-2.208-.827-3.317-1.639-6.679-1.7-13.573-1.7-20.425.057-4.267-.149-8.943,2.35-12.627A9.162,9.162,0,0,1,129.358.061a4.194,4.194,0,0,1,5.019,3.6,26.248,26.248,0,0,1-.09,7.5c-.616,5.11-1.676,10.157-2.25,15.272-.435,4.127-.723,8.273-.8,12.423a9.829,9.829,0,0,1,2.111.125h0c.038-5.853.16-11.743,1.634-17.433a30.12,30.12,0,0,1,3.8-9.658C141.3,8.033,149.352-1.376,151.37,7.78c.827,5.352-1.372,10.638-2.831,15.707-1.408,4.414-2.759,8.718-4.394,13.078-.574,1.52-1.177,3.028-1.8,4.529a1.215,1.215,0,0,1,.768.1q.543-1.109,1.072-2.227a.778.778,0,0,1,.327-.351.877.877,0,0,1,.109-.045c1.187-2.337,2.44-4.64,3.533-7.023,1.7-3.846,3.567-7.613,5.4-11.393,2.07-3.928,3.86-8.566,7.916-10.848,5.721-2.6,4.743,6,3.715,9.155a64.7,64.7,0,0,1-3.871,9.578c-2.844,6.169-6.732,11.71-10.577,17.277a3.191,3.191,0,0,1,.971.676,1.434,1.434,0,0,1,.283.31c1.73-2,3.42-4.066,5.021-6.149,3.122-4.1,6.123-8.307,9.483-12.224,2.818-3.242,5.549-6.688,9.083-9.182,3.345-2.324,6.123-.562,5.343,3.432a25.941,25.941,0,0,1-3.271,8.253m-47.7,72.782c.015-.014.031-.027.047-.04l.19-.179q-.3.091-.6.187a.8.8,0,0,1,.358.032m-.623.053c-16.571,5.984-32.353,13.945-47.832,22.325,8.786-3.205,17.612-6.307,26.232-9.942,3.251-1.319,6.34-2.98,9.447-4.6a64.222,64.222,0,0,0,12.153-7.785M79.4,128.524c1.669-.234,3.33-.537,4.993-.82,17.741-2.952,21.871-5.058,35.75-16.414-13.519,7.51-28.347,12.122-42.791,17.486q1.026-.106,2.048-.252m8.012-36.951c-7.359,4.8-14.256,10.656-19.2,17.986-4.776,7.217-7.431,15.489-10.026,23.685,2.928-4.626,6.079-9.087,8.945-13.776a154.028,154.028,0,0,1,10.879-15.487c4.755-6.153,10.9-11,16.448-16.392-2.389,1.256-4.764,2.542-7.048,3.985M63.089,130.658c3.1-3.312,6.442-6.4,9.383-9.86,3.676-4.163,6.566-8.913,9.751-13.441,4.731-6.631,9.335-13.376,14.481-19.7-3.819,3.657-7.769,7.178-11.6,10.824a68.652,68.652,0,0,0-7.159,8.174,160.3,160.3,0,0,0-10.772,15.731c-2.926,4.692-6.158,9.125-8.988,13.9,1.64-1.917,3.212-3.688,4.9-5.628m62.819-47.945a104.062,104.062,0,0,0,9.415-12.783c1.058-1.816,2.066-3.662,3.075-5.506-.349.022-.7.041-1.048.051-.169.006-.338.008-.508.013-.118.267-.328.5-.471.755A139.061,139.061,0,0,1,122.144,84.3a27.661,27.661,0,0,1-3.539,3.793c2.871-1.054,5.212-3.2,7.3-5.378m6.3-18.823q-.985,1.618-1.969,3.236c-1.879,3.005-3.929,5.9-6.049,8.742-2.741,3.7-5.22,7.716-7.694,11.689,2.015-1.053,3.4-3.09,4.855-4.8,2.733-3.2,5.5-6.388,7.915-9.845,2.066-2.7,3.918-5.539,5.717-8.419-.064,0-.129,0-.193,0a4.534,4.534,0,0,1-2.583-.6m-3.31-2.133c-1.243,2.1-2.527,4.18-3.659,6.346-2.358,4.413-4.852,8.754-7.133,13.207-.426.864-.842,1.732-1.223,2.616,1.4-2.236,2.825-4.457,4.336-6.622,2.035-2.915,4.221-5.708,6.166-8.689q1.748-2.749,3.458-5.522-.974-.665-1.945-1.337m-5.348,1.783c-1.742,3.359-3.478,6.734-5,10.214a56.515,56.515,0,0,0-3.107,9.016c-.05.228-.095.486-.134.761,1.105-2.7,2.8-5.525,3.291-6.562,2.989-5.374,5.787-10.856,8.986-16.109-.628-.425-1.273-.865-1.907-1.325-.738,1.319-1.44,2.66-2.126,4m-.484-21.388a7.833,7.833,0,0,0-1.059.244c.521,1.893,1.065,3.779,1.647,5.655a50.814,50.814,0,0,0,1.777,4.835,5.627,5.627,0,0,0,1.62,2.373c1.045-1.093-.291-3.85-.6-5.206-.775-2.7-1.583-5.4-2.33-8.116a8.479,8.479,0,0,1-1.051.214m9.423-1.679c-.369-.067-.871,0-1.273-.079-.013,2.091.021,4.181.127,6.27.183,2.6-.022,5.283.618,7.823a44.89,44.89,0,0,0,1.369-12.733l.007-1.178c-.282-.017-.564-.089-.847-.1m9.9,2.145a.83.83,0,0,1-.508-.4c-1.021,2.441-2.069,4.871-3.093,7.312q1.869-3.416,3.617-6.9l-.017-.008M137.36,54.913l0,0-.007,0h0m0,0h0m12.919-8.051a1.118,1.118,0,0,1-.375-.331c-1.924,2.8-3.817,5.611-5.543,8.527,1.927-1.645,3.2-3.886,4.924-5.719.557-.6,1.112-1.221,1.665-1.843-.235-.19-.389-.48-.671-.633m7.049-4.527c-2.21,2.823-4.543,5.543-6.97,8.18-1.474,1.6-2.755,3.677-4.369,5.216a12.412,12.412,0,0,1-2.081,1.61,1.073,1.073,0,0,1-1.676-.98,4.322,4.322,0,0,1,.442-1.477,47.468,47.468,0,0,1,3.656-5.918c2.571-3.793,5.3-7.573,7.8-11.443A87.351,87.351,0,0,0,163.1,19.772a17.735,17.735,0,0,0,1.236-7.037,4.522,4.522,0,0,0-.5-2.15c-1.892-.8-4.185,2.244-5.208,3.6a61.614,61.614,0,0,0-3.71,6.769c-1.826,3.759-3.742,7.654-5.442,11.506-1.827,3.866-3.969,7.585-5.679,11.51-1.046,2.238-2.238,4.4-3.351,6.605-.4.8-.774,1.584-1.154,2.365q-.344.49-.73.95a9.919,9.919,0,0,1-.692.718l.009-.007c-.027.022-.052.045-.079.069l-.124.077h0a.367.367,0,0,1-.043.025l.014-.006-.011,0h0c-.078.043-.156.083-.241.119l-.039.015-.007,0h0l-.008,0-.014,0,.011,0c-.077.022-.153.045-.231.063s-.13.022-.2.03a2.139,2.139,0,0,1-.246,0h-.02l-.024,0L136.563,55c-.037-.009-.075-.02-.111-.032s-.072-.028-.109-.043l-.078-.046-.077-.059c-.03-.028-.059-.056-.086-.084s-.026-.033-.039-.05l-.021-.038c-.014-.032-.028-.064-.041-.1,0-.015-.007-.031-.012-.046h0c-.006-.019-.011-.038-.015-.057-.013-.089-.022-.175-.03-.264-.007-.2,0-.392.006-.587.024-.269.06-.535.108-.8v0l0-.011v-.014c.18-.8.406-1.584.633-2.37,1.744-4.212,3.6-8.378,5.277-12.615,1.784-4.557,3.293-9.233,4.776-13.9,1.273-4.258,2.877-8.49,3.2-12.954.056-1.8.073-4.108-1.432-5.355-1.233-.419-2.354.7-3.281,1.372a24.691,24.691,0,0,0-7.655,11.185,52.911,52.911,0,0,0-2.376,11.973c-.383,5.656-.162,11.261-.375,16.794a37.8,37.8,0,0,1-.677,4.859,19.868,19.868,0,0,1-.942,3.85,1.345,1.345,0,0,1-2.145.418,4.639,4.639,0,0,1-.961-2.681c-.146-1.333-.2-2.673-.246-4.013a138.691,138.691,0,0,1,.345-20.584c.557-6.827,2.192-13.512,2.752-20.336.021-1.947.349-4.311-.761-6.011-1.324-1.344-3.478-.8-4.886.128a9.245,9.245,0,0,0-3.827,5.426,32.387,32.387,0,0,0-.709,8.078c-.009,3.371,0,6.746.175,10.112.3,9.3,3.681,18.081,5.984,26.989.679,3.6-2.4,5.284-4.27,1.738a47.58,47.58,0,0,1-3.269-8.786c-1.93-6.669-3.534-13.425-5.133-20.178-.925-3.233-2.776-13.367-5.258-15.009a.806.806,0,0,0-.471.052l.1-.031c-1.255.666-1.7,2.052-2.2,3.348-1.339,4.215-1.079,8.723-.631,13.065,1.046,10.182,6.739,19.141,13.764,26.383,2.945,3.259,6.515,5.594,10.116,8.026l0-.006.017.019,0,0,.026.031a1.8,1.8,0,0,0,.38.325,1.741,1.741,0,0,0,.27.237.926.926,0,0,0,.623.177h.009l.022,0,0,0a1.711,1.711,0,0,0,.394.217,24.46,24.46,0,0,0,8.193-.412,26.51,26.51,0,0,0,7.824-3.775,59.993,59.993,0,0,0,15.017-13.665c4.445-5.486,9.564-10.517,12.714-16.922a27.159,27.159,0,0,0,1.636-3.823,8.5,8.5,0,0,0,.525-4.2c-2.37-4.98-19.949,19.873-22.009,22.369" transform="translate(127.496 0)" fill="#fff"/></g></g></g></svg>