<svg xmlns="http://www.w3.org/2000/svg" width="346.93" height="323.509" viewBox="0 0 346.93 323.509"><g transform="translate(0)"><path d="M133.958,305.406c1.655-15.91,5.077-31.6,6.969-47.487,1.023-7.29,1.7-14.624,2.722-21.916,1.045-7.344,2.141-14.689,2.577-22.1.4-6.4.821-12.982,1.307-19.407.83-9.21,1.731-18.458,1.189-27.739a118.537,118.537,0,0,0-6.1-28.44c-.486-1.509-.92-3.035-1.384-4.551a136.979,136.979,0,0,1-3.021,18.528c-1.246,5.213-2.728,10.358-4.364,15.453a.665.665,0,0,1,.61.579c0,4.664-.468,9.325-.759,13.981a107.962,107.962,0,0,1-1.38,12.376c-3.642,15.436-10.947,29.673-17.663,43.943-2.413,5.034-5.03,9.967-7.711,14.864a225.03,225.03,0,0,1-13.1,22.066c-4.649,6.825-9.523,13.634-16.2,18.628a42.6,42.6,0,0,1-9.942,6.081c-.885.39-1.779.751-2.673,1.115-.8.94-2.044,2.545-2.757,1.133a4.41,4.41,0,0,1,.268-2.035c.378-1.372.877-2.711,1.374-4.044,1.615-4.276,3.362-8.5,5.166-12.695,9.208-21.214,21.337-40.992,31.6-61.692q9.639-19.8,19.819-39.346a37.755,37.755,0,0,1,7.618-11.339c1.155-1.176,2.348-2.322,3.615-3.383a.623.623,0,0,1,.723-.031,164.257,164.257,0,0,0,6.239-24.471.476.476,0,0,1-.112-.014c-.571.045-.91.608-1.365.915-.845.71-1.686,1.423-2.513,2.154-4.085,3.57-7.549,7.795-11.7,11.293-7.382,5.573-15.219,10.525-21.654,17.272-4.794,5.128-9.59,10.263-14.237,15.527-4.734,5.462-8.818,11.609-12.9,17.585-6.778,9.968-13.171,20.146-19.571,30.4-2.769,4.353-5.519,8.72-8.032,13.227-1.288,2.262-2.563,4.542-3.995,6.718-1.131,1.618-2.205,3.443-3.869,4.565a.8.8,0,0,1-1.031-.2.944.944,0,0,1-.107-.805.585.585,0,0,1-.3-.445,18.323,18.323,0,0,1-.012-2.678,46.178,46.178,0,0,1,.689-6.388c2.046-9.857,6.486-18.961,10.818-27.979,3.189-6.85,6.817-13.483,10.631-20a180.271,180.271,0,0,1,17.8-25.786c5.153-6.1,10.279-12.248,15.7-18.166a64.255,64.255,0,0,1,16.009-13.4,58.478,58.478,0,0,1,8.709-3.218,47.243,47.243,0,0,1,10.93-2.221c2.5-.2,5.009-.419,7.52-.5a8.755,8.755,0,0,1,2.9.2c.154-1,.3-2.005.429-3.012,1.623-12.261,1.463-24.666.751-36.988q-.7-9.922-1.775-19.815c-.424.687-.851,1.371-1.276,2.057-1.474,2.417-2.993,4.807-4.463,7.226a35.552,35.552,0,0,1-5.389,6.991c-4.04,4.38-8.42,8.423-12.731,12.53-5.95,5.812-11.54,11.837-17.25,17.955a284.577,284.577,0,0,0-24.291,28.7c-8.793,12.15-16,25.345-24.138,37.927-4.272,6.68-8.514,13.375-12.637,20.144a116.038,116.038,0,0,1-6.707,9.966c-.57.64-1.041,1.561-1.9,1.839a.721.721,0,0,1-.827-.719,6.747,6.747,0,0,1,.419-1.723c-.1-2.481-.265-4.96-.242-7.445.11-5.092.028-10.24,1.021-15.257A55.133,55.133,0,0,1,31.472,190.9,241.833,241.833,0,0,1,43.82,165.67c2.262-4.182,4.66-8.292,7.317-12.238,5.3-7.853,11.048-15.392,16.617-23.053a141.046,141.046,0,0,1,26.111-26.627A144.9,144.9,0,0,1,116.246,89c4.5-2.328,9.2-4.265,13.854-6.255.927-.3,6.281-2.922,8.117-2.789-1.016-9.228-2.239-18.434-3.615-27.615a2.5,2.5,0,0,1-.327.211c-.922.586-1.859,1.145-2.8,1.7-3.391,2.008-6.714,4.394-10.418,5.858-5.268,2.016-10.606,3.854-15.785,6.1A65.879,65.879,0,0,0,89.426,76.1c-3.57,2.8-7.013,5.761-10.362,8.823-5.079,4.9-9.8,10.166-14.566,15.366-5.263,5.791-9.262,12.529-13.822,18.852-5.913,8.424-12.141,16.626-17.83,25.205-3.164,4.861-6.165,9.823-9.191,14.771-2.226,3.752-4.381,7.547-6.553,11.331a34.787,34.787,0,0,1-4.5,6.953c-3.35,3.366-6.461,6.94-9.5,10.587-.655.688-1.293,1.642-2.3,1.785a.757.757,0,0,1-.756-.491c-.182-.713.255-1.376.445-2.054C-.189,179.835,2.1,172.511,4.5,165.6c5.753-16.974,14.307-32.84,24.066-47.823A207.262,207.262,0,0,1,50.482,88.788c4.156-4.507,8.407-8.938,12.988-13.018,6.745-5.835,13.9-11.174,20.8-16.828a89.7,89.7,0,0,1,10.9-7.817,20.393,20.393,0,0,1,8.191-2.3,91.4,91.4,0,0,1,21.561-.491,30.261,30.261,0,0,1,8.591,1.936,1.122,1.122,0,0,1,.778-.041q-.876-5.742-1.821-11.468a188.85,188.85,0,0,0-5.1-22.282.632.632,0,1,1,1.217-.337c.717,2.387,1.359,4.8,1.973,7.213,1.356,5.392,2.421,10.846,3.355,16.325a.748.748,0,0,1,.072.023c.051.024.1.05.151.075.007-.031.011-.06.022-.092a.671.671,0,0,1,1.031-.321,39.922,39.922,0,0,0,8.252-.706c2.357-.011,4.507,1.122,6.578,2.128,3.37,1.665,6.565,3.647,9.765,5.611,3.407,1.994,6.677,4.2,9.958,6.394a82.25,82.25,0,0,1,9.682,7.149,60.96,60.96,0,0,1,8.214,8.8,108.081,108.081,0,0,1,7.026,9.491c3.324,4.89,5.51,10.387,7.516,15.916,2.082,5.59,4.23,11.162,6.134,16.815,2.353,7.544,4.7,15.091,7.156,22.6,3.142,9.31,5.889,18.75,8.441,28.236a201.849,201.849,0,0,1,5.42,22.747,110.4,110.4,0,0,1,1.268,11.6c.321,4.182.818,8.224,1.275,12.44a50.27,50.27,0,0,1-1.242,18.161c-.251.677-.082,2.457-1.218,2.156a.381.381,0,0,1-.043-.022.752.752,0,0,1-.1.041,1.6,1.6,0,0,1-1.526-.53c-2.957-3.618-5.018-7.895-7.019-12.1a96.306,96.306,0,0,1-3.971-11.652c-1.744-5.648-3.233-11.369-4.737-17.085-2.763-9.7-5.929-19.285-8.239-29.11-2.026-7.752-3.23-15.676-4.714-23.54-1.547-7.379-4.111-14.545-6.635-21.64a147.474,147.474,0,0,0-9.177-21.234,113.584,113.584,0,0,0-10.309-15.3,132.9,132.9,0,0,0-16.459-18.19c-3.839-3.382-7.732-6.706-11.787-9.828-3.072-2.362-6.408-4.322-9.542-6.611a10.885,10.885,0,0,1-.956-.743c.605,3.66,1.157,7.329,1.7,11,2.061,14.631,4.061,29.311,5.181,44.05a2.282,2.282,0,0,1,1.413.077c1.475.292,2.948.592,4.4.985,7.983,2.114,8.965,2.3,15.183,7.872,3.716,3.406,7.627,6.572,11.137,10.208a82.8,82.8,0,0,1,7.07,8.978,77.127,77.127,0,0,1,9.015,15.355c3.725,9.328,4.345,19.482,6.215,29.267,1.915,11.884,3.515,23.819,4.592,35.81.751,8.018.82,16.081,1.4,24.111.434,6.073.694,12.15,1.006,18.23.646,10.417,1.424,20.9,1.734,31.353a32.648,32.648,0,0,1-.269,6.206.928.928,0,0,1-1.35.736c-3.112-2.721-5.312-6.39-7.227-10.023-6.979-13.768-9.534-29.239-11.1-44.454-1.284-11.607-3.375-23.116-4.33-34.76a212.251,212.251,0,0,0-3.683-23.325c-1.4-6.585-2.766-13.193-4.774-19.625-2.8-9.832-7.54-18.919-12.512-27.808a73.815,73.815,0,0,0-6.263-9.233c-1.128-1.372-2.329-2.687-3.317-4.168-1.9-3.051-3.462-6.3-5.328-9.37-.82-1.379-1.724-2.678-2.6-4.03-.084-.144-.176-.288-.269-.435.4,5.705.672,11.418.751,17.142.059,5.171-.093,10.351-.5,15.509a.554.554,0,0,1,.311.38c.036.173.083.343.135.511a1.92,1.92,0,0,1,.751.511c1.232,1.266,2.34,2.643,3.5,3.968a135.82,135.82,0,0,1,10.162,13.092c6.348,9.335,8.093,20.824,8.332,31.9.019,11.124-1.156,22.215-2.275,33.272-.7,7.405-1.439,14.808-2.552,22.164a247.6,247.6,0,0,1-8,38.072,74.618,74.618,0,0,1-6,15.075c-1.729,3.1-3.677,6.061-5.576,9.052-1.7,2.558-3.3,5.343-5.551,7.418-.753.653-1.518-.542-.754-1.024M79.514,290.992A59.569,59.569,0,0,0,89.3,279.826a187.927,187.927,0,0,0,14.048-22.405q8.047-14.341,14.874-29.3a208.155,208.155,0,0,0,10-23.9,83.289,83.289,0,0,0,2.732-9.165c1.2-6.067,1.4-12.288,1.875-18.442.094-2.24.332-4.559.359-6.836-4.187,12.682-9.319,25.068-14.324,37.435-6.934,16.9-15.075,33.26-23.535,49.435-7.015,13.3-14.236,26.693-24.306,37.974-1.323,1.535-2.667,3.052-4.019,4.564.754-.329,1.5-.671,2.238-1.041a48.183,48.183,0,0,0,10.268-7.152M125,177.095a57.305,57.305,0,0,0-3.447,6.317c-4.683,9.13-9.491,18.2-13.978,27.43q-7.43,15.559-15.66,30.714-8.384,15.417-16.347,31.062c-2.071,4.147-4.025,8.558-5.859,12.857-2.116,5.11-4.366,10.192-5.989,15.486.037-.042.074-.084.112-.125a.627.627,0,0,1,.375-.485l.093-.039c5.108-5.695,10.265-11.4,14.547-17.775,8.423-12.421,15.1-25.942,21.953-39.265a582.558,582.558,0,0,0,31.166-73.835A42.189,42.189,0,0,0,125,177.095M39.351,260.867c4.17-5.208,6.924-11.519,10.573-17.131,6.921-10.979,13.719-22.031,20.941-32.817,4.449-6.51,8.73-13.161,13.738-19.264,3.259-3.975,6.831-7.675,10.3-11.461a113.478,113.478,0,0,1,10.868-10.954c2.886-2.449,5.9-4.75,8.953-6.983a98.287,98.287,0,0,0,8.788-6.527c3.827-3.583,7.278-7.555,11.283-10.952-6.331,2.857-12.782,5.439-19.095,8.334a56.567,56.567,0,0,0-13.633,8.612c-6.819,6.131-12.369,13.506-18.054,20.66a312.59,312.59,0,0,0-32.063,51.163c-4.536,8.946-9.18,17.871-12.6,27.321m93.571-118.105a70.182,70.182,0,0,0-9.827,1.122,74.43,74.43,0,0,0-13.483,4.462c-8.173,4.526-14.482,11.578-20.543,18.548-5.994,7.067-12.261,14.012-17.728,21.519a267.158,267.158,0,0,0-24.387,43.059l0-.011-.014.03,0,.006,0-.006A107.191,107.191,0,0,0,41.009,246.2a45.06,45.06,0,0,0-2.465,13.2c3.267-8.729,7.508-17.039,11.735-25.333,12.428-24.808,27.767-48.263,46.4-68.865,6.23-6.9,14.022-11.513,22.55-15.064,5.944-2.422,11.735-5.226,17.713-7.554-1.341,0-2.683.082-4.019.177M43.506,201.173c8.7-13.267,16.516-27.1,25.338-40.285,8.819-12.937,19.272-24.621,30.037-35.949,6.229-6.656,12.48-13.3,19.181-19.491,4.141-4.014,8.377-7.957,11.9-12.564,2.042-3.065,3.889-6.262,5.854-9.379a95.662,95.662,0,0,1-8.174,6.28c-3.8,2.7-7.465,5.573-11.124,8.459-6.752,5.14-13,10.891-19.474,16.364-6.794,5.68-14.059,10.871-19.906,17.591-10.334,11.565-17.478,25.469-25.068,38.885-5.736,10.6-11.2,21.367-15.967,32.437-2.779,6.808-5.15,13.792-7.454,20.774,5.486-7.347,9.836-15.46,14.856-23.122M129.755,84.256A140.646,140.646,0,0,0,110.2,93.828a159.986,159.986,0,0,0-30.5,24.406c-7.526,7.632-13.551,16.547-19.907,25.136-3.54,4.868-7.089,9.741-10.25,14.867a282.721,282.721,0,0,0-13.879,26.2,106.481,106.481,0,0,0-5.836,14.953c-1.734,7.125-1.626,14.524-1.5,21.813,2.085-6.072,4.137-12.167,6.581-18.106,3.728-8.72,7.959-17.218,12.321-25.636,4.369-8.381,9.055-16.593,13.841-24.743A131.024,131.024,0,0,1,76,131.575c6.284-7.267,14.169-12.766,21.446-18.961,6.744-5.841,13.436-11.743,20.552-17.136,5.767-4.783,12.243-8.6,17.786-13.663-2.049.717-4.031,1.606-6.031,2.442M1.756,187.6c1.913-2.146,3.678-4.415,5.608-6.546,1.8-2,3.833-3.792,5.48-5.922,2.318-3.47,4.157-7.238,6.324-10.8,2.848-5.068,5.927-10,8.986-14.942,6.128-10.053,13.309-19.4,20.1-29.007,4.356-5.863,8.052-12.2,12.7-17.842,2.8-3.493,5.925-6.7,8.96-9.991A135.04,135.04,0,0,1,83.035,79.723c6.678-5.652,13.592-11.287,21.742-14.668,2.678-1.142,5.4-2.188,8.1-3.258,3.394-1.347,6.851-2.29,10.128-3.967,3.563-1.874,6.9-4.183,10.409-6.224l-.008,0c-8.9,2.646-18.248,3.842-27.177,6.446a87.144,87.144,0,0,0-12.269,4.61,66.625,66.625,0,0,0-12.512,7.091C75.458,74.3,70.666,80.207,65.85,85.955c-6.156,7.464-11.919,15.237-17.527,23.121C34.109,128.764,20.811,149.165,9.735,170.8c-2.806,5.512-6.134,10.877-7.979,16.8M108.426,49.568c-8.152.729-11.053.869-17.756,6.032-4.851,3.571-9.478,7.506-14.23,11.235-4.652,3.7-9.391,7.323-13.769,11.355A206.369,206.369,0,0,0,28.12,120.826,217.414,217.414,0,0,0,8.268,158.939c-3.031,8.191-6.338,16.5-6.674,25.333,2.762-6.574,6.431-12.716,9.649-19.069,11.39-21.536,25.044-41.754,39.349-61.443C55.966,96.3,61.571,89.01,67.51,81.992c4.419-5.163,8.948-10.362,14.572-14.253a89.591,89.591,0,0,1,22.471-10.513c8.821-2.7,17.991-3.928,26.876-6.369l-.235-.076c-7.37-1.971-15.205-1.876-22.767-1.213m48.67,7.843A122.868,122.868,0,0,1,171.54,72.924c5,6.272,9.858,12.738,13.544,19.886,5.519,10.57,9.364,21.925,12.989,33.256,2.47,7.69,3.37,15.743,4.991,23.628,2.988,14.992,8.133,29.433,11.927,44.217,1.021,3.843,2.137,7.655,3.292,11.457a75.3,75.3,0,0,0,4.587,12.55,82.908,82.908,0,0,0,4.092,7.317,10.7,10.7,0,0,0,1.955,2.468,1.447,1.447,0,0,0,.175-.633c-.017-4.153-2.075-7.963-3.022-11.947-1.827-6.666-2.854-13.5-4.129-20.283a220.488,220.488,0,0,0-5.982-24.009c-2.369-7.62-4.466-15.321-6.856-22.937-2.913-9.5-6.843-18.659-9.253-28.315-2.487-9.21-4.1-18.7-7.772-27.548a61.72,61.72,0,0,0-6.593-12.357c-5.175-7.172-11.71-13.188-18.658-18.634-4.483-3.489-9.212-6.578-14.009-9.632a65.056,65.056,0,0,0-9.967-5.576A173.875,173.875,0,0,1,157.1,57.411M142.07,44.059a81.908,81.908,0,0,1,8.349,4.312q4.236,2.7,8.456,5.439c14.379,9.65,28.442,21.675,34.61,38.338,3.692,9.08,5.263,18.813,7.883,28.218,1.473,5.387,3.2,10.7,5.12,15.946,3.56,9.4,6.171,19.116,9.028,28.741,1.686,5.67,3.593,11.277,4.918,17.049,1.381,5.923,2.71,11.862,3.728,17.86.769,4.631,1.686,9.239,2.849,13.788.8,3.37,2.151,6.592,2.947,9.96a50.237,50.237,0,0,0,1.008-8.521c.079-5.378-.952-10.613-1.375-16-.5-5.8-.81-11.586-2.04-17.313a162.125,162.125,0,0,0-4.037-16.709c-2.806-10.438-5.745-20.848-9.211-31.09-3.783-11.348-6.935-22.907-11.284-34.06-2.741-7.2-5.048-14.665-9.428-21.106a108.123,108.123,0,0,0-6.9-9.323,60.415,60.415,0,0,0-10.049-10.337c-4.69-3.709-9.855-6.9-14.864-10.17-5.033-2.99-9.9-6.295-15.333-8.535a9.161,9.161,0,0,0-2.756-.631c-1.228.025-2.415.4-3.634.527a32.473,32.473,0,0,1-4.2.2c2.088,1.1,4.115,2.336,6.216,3.414m8.356,67.4c2.18,3.015,4.777,5.72,6.768,8.879a103.4,103.4,0,0,1,5.734,9.848,134.773,134.773,0,0,1,7.468,15.883,163,163,0,0,1,6.131,22.094c1.659,7.807,3.241,15.65,4.227,23.575.772,7.729,1.514,15.459,2.66,23.145,1.871,11.436,2.5,23.048,4.706,34.431a145.18,145.18,0,0,0,3.727,14.522c2.537,7.047,5.426,14.266,10.556,19.864a157.522,157.522,0,0,1-5.927-24.12c-1.641-9.9-2.218-19.918-3.465-29.862-1.49-10.151-2.309-20.378-3.431-30.572-.713-6.05-1.849-12.037-2.987-18.018-2.635-13.247-4.749-26.754-9.848-39.333-3.253-7.8-8.065-14.831-13.223-21.5-6-7.448-12.955-14.084-19.944-20.6,2.555,3.759,4.489,7.889,6.848,11.765m14.9,9.084c5.188,6.882,10.054,14.139,13.175,22.217,4.7,12.325,6.823,25.435,9.369,38.327,3.468,16.072,4.067,32.533,6.431,48.768,1.233,9.935,1.817,19.945,3.468,29.83a144.507,144.507,0,0,0,5.218,21.585c.016-5.511-.4-11.013-.645-16.516-1.13-17.977-2.184-36.047-3.06-54.058-.861-12.045-2.367-24.128-4.2-36.073-.864-5.863-1.949-11.692-2.847-17.548a81.494,81.494,0,0,0-3.316-14.607c-2.863-8.121-8.082-15.123-13.191-22-3.844-5.167-8.967-9.14-13.685-13.465a46.523,46.523,0,0,0-7.56-5.876,77.015,77.015,0,0,0-10.852-3.126c7.61,7.127,15.262,14.3,21.7,22.538M150.052,167.9c.506,10.814-.955,21.566-1.669,32.334-.558,7.242-.8,14.538-1.59,21.8-.614,5.57-1.514,11.1-2.234,16.658-1.3,10.946-2.62,21.894-4.263,32.795-1.565,10.077-3.358,20.12-4.715,30.228a325.362,325.362,0,0,0,10.743-39.018c1.881-9.22,3.217-18.554,4.692-27.848,3.075-18.415,5.459-37.07,4.652-55.779-.578-14.933-3.741-25.932-11.143-38.914a112.512,112.512,0,0,1,5.527,27.743m-4.137,119.22a79.282,79.282,0,0,0,4.4-11.572,225.978,225.978,0,0,0,6.619-28.123c2.271-13.083,3.6-26.3,4.87-39.506.851-8.767,1.6-17.553,1.6-26.381-.56-22.528-5.961-30.326-20.328-46.8,4.3,8.127,9,16.18,11.212,25.187,2.13,8.218,2.715,16.739,2.8,25.2a252.819,252.819,0,0,1-2.326,33.579c-2.276,14.883-4.371,29.814-7.278,44.59a326.564,326.564,0,0,1-10.625,38.576,161.742,161.742,0,0,0,9.053-14.755" transform="translate(114.699 16.888)" fill="#fff"/><path d="M176.773,126.342a96.083,96.083,0,0,1,19.362-15.27c-6.912,2.889-13.649,6.182-20.492,9.229-3.718,1.619-7.394,3.436-11.352,4.394-2.044.462-6.685,1.24-6.97-1.77.7-3.757,10.963-9.774,14.42-11.555,8.377-4.525,17.44-7.551,26.378-10.756-4.153.626-8.315,1.2-12.422,2.092a125.316,125.316,0,0,1-18.875,2.665c-5.36.3-13.951.669-17.557-4.007-2.706-4.294,5.23-7.782,8.339-9.065a64.628,64.628,0,0,1,12.252-3.379c10.561-1.808,24.865-3.516,34.5,1.944a13.016,13.016,0,0,1,4.439,3.975l.045-.017a.48.48,0,0,1,.228-.307.427.427,0,0,1,.5.04c2.308-.826,4.667-1.526,6.941-2.455a45.865,45.865,0,0,1,8.759-2.7c1.275-.169,3.651-.749,4.779.019,6-3.272,12.046-6.468,18.258-9.325,3.906-1.782,7.881-3.408,11.782-5.2a118.909,118.909,0,0,0,21.644-12.94,120.029,120.029,0,0,0,19.039-17.761c-1.069.241-2.136.533-3.182.86-4.9,1.639-9.531,4.037-14.346,5.911-1.943.759-3.91,1.463-5.812,2.323-3.159,1.464-6.153,3.256-9.256,4.832-1.116.527-6.366,3.319-6.478.927,0-.017.014-.032.018-.048a.364.364,0,0,1-.05-.015c-.8-.52.309-1.325.688-1.8,4.861-4.631,9.349-9.957,15.421-13.044a31.643,31.643,0,0,1,15.181-3.062,64.974,64.974,0,0,1,9.247,1.46,91.358,91.358,0,0,0,9.488-12.421c4.287-7.169,7.344-14.993,10.611-22.658.78-1.911,1.411-3.783,2.159-5.738A3.108,3.108,0,0,1,325.524.141c.4-.217,1.228-.245,1.242.368a.483.483,0,0,1-.493.467c-.378-.1-.538.291-.694.569-.176.371-.343.81-.514,1.25-.252.7-.52,1.466-.8,2.222-.93,2.51-1.952,4.985-3.021,7.438-3.694,8.6-7.359,17.366-13.3,24.7q-2.492,3.081-5.077,6.1a.464.464,0,0,1-.405.6c-.047.007-.093.018-.14.026a137.678,137.678,0,0,1-10.97,11.381,121.842,121.842,0,0,1-26.606,18.414c.244.376-.117.986-.087,1.432a37.679,37.679,0,0,1-.539,5.937,39.677,39.677,0,0,1-4.023,10.369c-2.008,3.685-4.859,6.808-7.627,9.931a85.182,85.182,0,0,1-15.259,13.6c-1.6,1.082-3.379,2.314-5.408,1.777a.19.19,0,0,1-.034-.009c-.746.375-1.557.087-1.254-.931,2.105-5.37,5.416-10.205,8.836-14.824a174.218,174.218,0,0,1,16.636-18.828c2.019-2.049,4.007-4.118,5.9-6.283.332-.383.674-.756.992-1.148a.53.53,0,0,1,.461-.226c.019-.037.04-.074.059-.111q-2,.993-4.037,1.916c-3.913,1.764-7.884,3.4-11.782,5.2-5.778,2.736-11.434,5.718-17.053,8.768.24,1.139-.754,2.413-1.45,3.263A124.432,124.432,0,0,1,219,102.627c.011-.011.025-.022.037-.033-1.792,1.481-3.506,3.063-5.413,4.439a.46.46,0,0,1-.345.091c.035.706.069,1.414.114,2.12a46.272,46.272,0,0,1,.2,5.246,33.951,33.951,0,0,1-.921,5.513,84.022,84.022,0,0,1-3.971,11.611c-2.046,4.863-4.1,9.776-7.113,14.132-3.548,5.094-7.821,9.948-13.337,12.941-1.918.868-4.559,2.078-6.545.853-1.773-1.175-.074-5.537.336-7.3a74.412,74.412,0,0,1,8.018-17.92,120.177,120.177,0,0,1,9.553-14.332q-6.706,7.478-14.059,14.345a61.608,61.608,0,0,1-8.846,7.124c-2.383,1.424-6.978,4.049-9.723,2.923-1.257-.6-1.3-2.2-.868-3.352,1.926-5.873,6.416-10.377,10.654-14.686M267.434,57.41c2.8-1.388,5.481-2.988,8.28-4.372,2.839-1.424,5.863-2.407,8.793-3.623,4.957-2.019,9.743-4.551,14.947-5.9-8.55.7-16.155,1.325-23.669,5.986-2.377,1.424-4.628,3.049-6.865,4.683a69.993,69.993,0,0,0-6.114,4.84,13.416,13.416,0,0,0,4.629-1.615m16.925-14.574a26.191,26.191,0,0,0-10.1,4.595,95.158,95.158,0,0,0-9.328,8.553c.662-.514,1.334-1.019,2-1.524a83.97,83.97,0,0,1,10.359-6.91c5.692-3.091,12.155-4.193,18.546-4.665.7-.062,1.4-.129,2.1-.2-.083-.019-.167-.034-.25-.052a30.107,30.107,0,0,0-13.332.2M249.28,90.463c-2.568,2.821-5,5.762-7.371,8.746-4,5.129-7.826,10.463-10.351,16.5a66.154,66.154,0,0,0,7.35-7.1c-.023.027-.045.051-.069.077,5.068-5.584,10.142-11.209,14.635-17.278,1.26-1.631,2.531-3.26,3.708-4.95a75.018,75.018,0,0,0,4.984-9.484c-4.111,4.631-8.7,8.91-12.885,13.49m13.635-12.807c-1.9,4.019-3.8,8.09-6.573,11.592-2.576,3.342-5.1,6.728-7.815,9.957-3.583,4.171-7.228,8.272-11,12.272-1.51,1.489-2.975,3.058-4.625,4.4a2.513,2.513,0,0,0,.488-.023,12.188,12.188,0,0,0,3.73-2.01c1.67-1.141,3.292-2.359,4.841-3.661A101.341,101.341,0,0,0,253.6,98.618a40.776,40.776,0,0,0,6.25-8.785,36.073,36.073,0,0,0,3.484-9.811,27.378,27.378,0,0,0,.293-3.947q-.366.785-.709,1.582m-51,21.153c.062.116.118.234.177.351,4.6-2.407,9.154-4.918,13.71-7.423-3.339,1.1-6.645,2.3-9.965,3.443-1.642.578-3.278,1.189-4.946,1.694q.514.966,1.023,1.935m1.477.776c-.3.159-.588.329-.861.479l.1.218c.024.018.047.036.069.052.334.19.593.569.329.883.066.165.136.328.2.494,1.094-.655,2.187-1.312,3.261-2,1.7-1.088,3.333-2.387,5-3.541,2.217-1.489,4.492-2.906,6.57-4.595-4.89,2.673-9.76,5.379-14.672,8.006m-.212,5.856a2.644,2.644,0,0,0-.081-1.1c.031.368.057.737.081,1.1m1.743-11.723c-1.588.627-3.233,1.1-4.841,1.658.118.216.234.433.351.648.3-.091.6-.19.948-.3,1.993-.665,3.965-1.392,5.946-2.093,2.875-1.022,5.784-1.945,8.658-2.968.642-.221,1.283-.447,1.935-.639-4.548.287-8.776,2.127-13,3.7m8.618,3.722a43.774,43.774,0,0,0,5.4-5.352,50.252,50.252,0,0,1-5.564,3.963c-1.691,1.1-3.294,2.334-4.938,3.5-1.575,1.1-3.238,2.078-4.88,3.079.01.03.023.06.033.09a6.429,6.429,0,0,1,.552,2.713c1.106-.87,2.155-1.8,3.239-2.7,2.055-1.734,4.14-3.486,6.155-5.292m-50.807,45.071c4.407-1.985,8.128-5.174,11.666-8.415q7.364-6.837,14.1-14.311c.9-1,1.807-2,2.723-2.988a10.071,10.071,0,0,1,2.438-2.23.485.485,0,0,1,.514.115c.672.576-.668,1.843-1.032,2.44a116.514,116.514,0,0,0-11.276,16.015c-3.49,5.86-6.773,11.9-8.651,18.494-.321,1.387-2.149,6.249-.937,7.143,2.488,1.318,7.41-1.859,9.364-3.475a47.694,47.694,0,0,0,10.772-12.639,103.558,103.558,0,0,0,5.964-12.823c2.1-5.568,4.406-11.316,4.246-17.379-.169-2.409-.254-4.823-.434-7.23a.482.482,0,0,1-.351-.413,16.153,16.153,0,0,0-.979-3.711,5.985,5.985,0,0,1-.811-1.929c-1.266-2.888-2.679-5.292-5.434-7.015-3.812-2.509-8.4-3.411-12.885-3.834a69.037,69.037,0,0,0-13.274.325,90.774,90.774,0,0,0-16.46,3.113,34.184,34.184,0,0,0-9.871,4.509c-1.708,1.241-3.574,3.1-1.663,5.083,4.894,4.486,14.613,3.155,20.822,2.682,8.106-.7,15.967-2.888,24.015-3.972.94-.143,1.879-.29,2.821-.424a7.726,7.726,0,0,1,2.474-.148.54.54,0,0,1,.276.639c-.182.446-.7.637-1.106.837-7.052,2.769-14.342,4.934-21.227,8.13a98.953,98.953,0,0,0-12.116,6.452c-2.8,1.9-5.723,3.858-7.781,6.586-.939,1.108.137,1.74,1.137,1.955a12.187,12.187,0,0,0,4.654-.426c4.49-1.207,8.667-3.327,12.908-5.19,7.338-3.318,14.591-6.838,22.086-9.8.4-.12.829-.38,1.256-.245a.482.482,0,0,1,.275.707,5.876,5.876,0,0,1-1.613,1.161,90.1,90.1,0,0,0-14.121,9.609,120.906,120.906,0,0,0-11.222,10.673,35.941,35.941,0,0,0-5.765,7.822,10.883,10.883,0,0,0-1.415,4.218c.427,2.27,4.524.418,5.907-.117" transform="translate(-148.711 0)" fill="#fff"/></g></svg>