<svg xmlns="http://www.w3.org/2000/svg" width="322.117" height="437.604" viewBox="0 0 322.117 437.604"><g transform="translate(341.469 216.239) rotate(133)"><path d="M56.085,123.98a90.856,90.856,0,0,1,4.764-13.974c-.1-.682-.2-1.363-.325-2.042-1.032-5.557-3.108-10.952-3.332-16.642-.022-.434-.033-.87-.033-1.3A59.073,59.073,0,0,1,59.066,77.3a70.661,70.661,0,0,1,7.541-19.679c2.731-5.247,5.3-10.7,8.9-15.494a55.728,55.728,0,0,1,7.252-8.837,32.781,32.781,0,0,1,14.954-7.7,49.3,49.3,0,0,1,7.692-1.029c.55.02,1.314-.136,1.7.289-.138-3.583-.391-7.164-.781-10.733-.482-4.4-1.095-8.775-1.683-13.158a.835.835,0,1,1,1.654-.233c.4,3.039.83,6.077,1.2,9.12a161.536,161.536,0,0,1,1.377,23.4c.235.1.458.231.689.333,5.41-.416,10.027-2.2,15.3.358A58,58,0,0,1,136.2,41.108,45.127,45.127,0,0,1,148.216,55a42.683,42.683,0,0,1,5.167,21.134,95.359,95.359,0,0,1-3.629,26.828c-2.063,7.39-4.876,14.538-6.046,22.161-.391,2.206-.726,4.422-1.117,6.628-.38,1.467-.764,6.541-2.638,6.573-1.469-.042-1.531-2.892-1.942-4.126a73.7,73.7,0,0,1-1.512-9.913,139.994,139.994,0,0,1,.562-27.048c.663-6.463,1.819-12.936,1.45-19.454A51.088,51.088,0,0,0,119.163,41.37a44.16,44.16,0,0,0-6.944-4.561c-1.112-.6-2.239-1.166-3.371-1.726q-.111,5.2-.513,10.384a9.631,9.631,0,0,1,1.118,1.467,52.694,52.694,0,0,1,8.264,9.837c5.526,9.649,7.824,20.8,9.2,31.727a46.453,46.453,0,0,1,.259,8.05c-.4,5.3-2.1,10.425-2.37,15.752-.245,3.5-.188,7-.132,10.5.05,2.967.1,5.935-.039,8.9-.216,5.971-.957,11.907-1.315,17.87a101,101,0,0,0-.051,13.674c.057,1.248.125,2.5.138,3.749,0,.2,0,.4,0,.6a5.313,5.313,0,0,1-.39,2.544,1.055,1.055,0,0,1-1.746.078c-.048-.087-.089-.178-.134-.267a1.159,1.159,0,0,1-.116.15c-.949.754-1.545-.512-2.044-1.2-1.037-1.591-1.847-3.315-2.764-4.975-1.179-2.182-2.4-4.342-3.425-6.6-2.1-4.712-2.971-9.849-4.041-14.865-1.141-6.358-2.241-12.782-1.873-19.265.952-15.326,3.354-30.554,3.836-45.914.1-5.806.249-11.654-.688-17.407a51.36,51.36,0,0,0-2.22-8.553q-.434,4.15-1.022,8.279c-1.914,11.924-5.844,23.4-8.45,35.174C95.375,107.6,92.212,120.5,91.408,133.7c-.2,4.156-.221,8.335-.167,12.512,1.882.229,3.464,2.206,4.177,3.9,1.491,4.024,1.7,8.4,2.249,12.62A159.958,159.958,0,0,1,98.2,183.9c-.17,3.569-.247,7.146-.647,10.7a15.6,15.6,0,0,1-.868,4.056c1.376,0,2.751.055,4.125.17a189.2,189.2,0,0,1,31.489,5.469c8.406,2.376,19.1,4.9,24.087,12.7a29.407,29.407,0,0,1,3.832,11.792c.248,2.478,1.056,5.322-.361,7.576-4.422,6.3-20.256-3.625-25.046-6.895-5.2-3.488-10.155-7.31-15.17-11.055a.865.865,0,0,1-.17.386,26.225,26.225,0,0,1-5,5.263c-.046.027-.094.059-.14.091,5.014,5.068,9.907,10.252,14.459,15.743,5.918,7.1,12.477,13.948,16.532,22.343,2.551,5.737-.13,11.651-3.927,16.108-5.278,6.048-12.023,2.728-16.7-2.086-4.271-4.314-7.4-9.592-10.481-14.785-3.13-5.385-5.8-10.831-8.4-16.534-1.821-4.009-3.674-8.011-5.361-12.081a.8.8,0,0,1-.61.873,11.263,11.263,0,0,1-3.195.283c2.385,9.28,4.807,18.558,6.806,27.929a83.369,83.369,0,0,1,1.75,15.071,24.718,24.718,0,0,1-.178,4.805c-.839,5.315-8.045,8.5-12.894,8.764-11.335.622-14.5-9.882-14.961-19.251-.532-10.27-1.141-20.606-.17-30.867.258-2.9.688-5.77,1.181-8.634a.87.87,0,0,1-.375-.006,7.73,7.73,0,0,1-2.256-.984c-2.088,8.73-4.119,17.482-6.627,26.1-1.14,3.987-2.147,8.018-3.548,11.922a88.547,88.547,0,0,1-4.523,9.224c-2.76,5.079-5.209,6.989-10.862,4.422a36.034,36.034,0,0,1-8.129-5.02,24.837,24.837,0,0,1-3.223-3.4,26.673,26.673,0,0,1-4.757-8.01C31.623,258.13,36.54,250.6,40.8,244.272a88.1,88.1,0,0,1,5.361-7.254c3.964-4.774,8.62-8.909,12.765-13.521.142-.192.553-.629,1.135-1.229a25.1,25.1,0,0,1-3.721-4c-1.6,1.469-3.178,2.968-4.8,4.367-8.9,7.79-19.39,13.389-28.96,20.284-3.078,1.919-7.448,6.315-11.263,5.248-3.123-1.125-5.264-4.038-6.908-6.794a32.883,32.883,0,0,1-4.353-14.49c-.036-.415-.053-.816-.053-1.206C0,217.887,7,215,13.611,212.689c6.381-2.29,12.8-4.53,19.384-6.182a71.693,71.693,0,0,1,10.137-1.7c1.6-.183,3.213-.279,4.83-.359a10.093,10.093,0,0,1-.506-2.5h-.94c-8.107.089-16.134.712-24.225,1.457a83.03,83.03,0,0,1-11.273.146A16.236,16.236,0,0,1,5.649,202.4c-3.425-1.27-4.615-4.746-4.465-8.15.22-4.766.849-9.809,3.456-13.913,7.539-10.583,25.334-2.6,35.02.976,5.72,2.23,11.57,4.064,17.335,6.183,5.429,2.078,10.732,4.467,16.027,6.861l.045.02c.01-.064.018-.127.029-.19a4.388,4.388,0,0,0,.086-.827c.179-1.767.388-3.528.645-5.285.519-3.5,1.091-7,1.8-10.468.851-4.25,1.134-8.6,2.193-12.816a35.664,35.664,0,0,1,2.868-7.565c1.86-3.737,4.438-8.826,8.574-10.4a.831.831,0,0,1,.308-.334q-.028-2.12-.031-4.242c0-4.254.113-8.509.509-12.75,1.69-15.829,5.72-31.306,9.536-46.728q.158-.6.318-1.2L98.578,82.62A49.242,49.242,0,0,0,93.7,90.139c-3.4,5.928-6.093,12.309-10.114,17.942-2.931,4.491-6.787,8.266-9.878,12.638a126.1,126.1,0,0,0-11.882,22.718c-1.958,5.224-3.963,10.477-6.939,15.22q-1.478,2.407-3.11,4.715c-.685.775-1.876,3.165-3.055,1.868a1.308,1.308,0,0,1-.127-.352.772.772,0,0,1-.478-.755,1.54,1.54,0,0,1,.174-.676,19.653,19.653,0,0,0,.571-2.105c1.045-5.21,1.376-10.533,2.324-15.759,1.223-7.29,3.022-14.466,4.9-21.612M133.3,55.154a53.5,53.5,0,0,1,6.944,24.169q.01.5.01,1.006c0,5.94-1.017,11.829-1.607,17.729a127.729,127.729,0,0,0,.041,30.624,89.506,89.506,0,0,1,.432-9.138c.879-6.609,2.5-12.929,3.594-19.537A133.461,133.461,0,0,0,144.352,78.3c.131-6.6-.161-13.5-3.276-19.471a37.526,37.526,0,0,0-10.656-12.1c-2.81-2.078-5.878-3.777-8.878-5.566A55.078,55.078,0,0,1,133.3,55.154m-2.526-10.233c6.3,4.623,11.825,10.907,13.913,18.585a50.451,50.451,0,0,1,1.36,13.037c0,2.318-.064,4.638-.09,6.942-.112,4.444-.547,8.872-1.083,13.281-.814,6.429-2.4,12.723-3.494,19.1a65.7,65.7,0,0,0-1.02,12.419c-.021,2.025-.121,4.047.02,6.069,1.25-6.094,1.9-12.313,3.624-18.308,1.2-4.271,2.746-8.441,3.918-12.721a107.191,107.191,0,0,0,3.564-19.218c1.023-14.054-.655-25.264-10.313-36.161a59.676,59.676,0,0,0-15.94-12c-4.167-2.266-8-1.86-12.487-1.037a106.956,106.956,0,0,1,18.028,10.01M90.513,148.074c0-.006,0-.013.006-.019a.223.223,0,0,1-.02.019h.015m.061,50.9.181,0c0-.007,0-.011-.007-.018.03-2.575.542-5.162.648-7.752.551-7.324.572-14.7,1.026-22.031.363-5.765.513-11.67-.905-17.3a91.375,91.375,0,0,1-.885,12.511c-.4,3.547-.655,7.107-1.007,10.659-.665,6.406-.62,12.866-1.517,19.251-.17,1.472-.418,2.934-.578,4.407,1.016.1,2.034.176,3.044.274m-7.151-.909h0a23.845,23.845,0,0,0,2.437.444c.042-.283.094-.561.1-.794a139.421,139.421,0,0,0,1.447-15.361c.474-8.68,1.575-17.31,2.355-25.963a52.116,52.116,0,0,0,0-6.334,4.174,4.174,0,0,1,.015-1.5c-.035.04-.071.079-.108.117a11.375,11.375,0,0,0-1.522,2.29,42.965,42.965,0,0,0-2.851,9.76c-1.76,9.749-2.222,19.693-2.586,29.579-.04,1.72-.078,3.442.025,5.161.134.861.075,1.925.684,2.6M95.6,196.3a69.987,69.987,0,0,0,.795-9.343c.179-3.551.289-7.1.268-10.66a140.748,140.748,0,0,0-1.175-17.785c-.573-3.191-.563-6.781-2.654-9.449a5.221,5.221,0,0,0-.609-.607,39.8,39.8,0,0,1,2.1,12.885c.084,3.515-.2,7.023-.409,10.529-.309,8.967-.571,17.942-1.531,26.867,0-.036,0-.072-.006-.108s-.013-.06-.019-.094h0a.848.848,0,0,1-.02.5,4.168,4.168,0,0,0,2.5-.53A4.724,4.724,0,0,0,95.6,196.3m18.475,25.942c.933-.827,1.793-1.733,2.651-2.639a19.6,19.6,0,0,0,1.436-1.847.88.88,0,0,1,.287-.239q-1.9-1.407-3.811-2.789a57.975,57.975,0,0,0-9.142-5.8,43.438,43.438,0,0,0-4.411-1.927,4.293,4.293,0,0,0-1.934-.368c-1.609,1.156,4.273,6.643,5.233,7.634,2.926,2.881,5.858,5.759,8.758,8.671a9.883,9.883,0,0,0,.932-.7M96.208,232.294a3.86,3.86,0,0,1,.4.05,9.685,9.685,0,0,0,2.813-.231.791.791,0,0,1,.825.258q-.877-2.136-1.679-4.3c-1.873-4.971-2.654-10.36-5.543-14.918-.961,1.974-.253,4.285.071,6.346.9,4.2,2.007,8.587,3.108,12.8m-20.088-3.05c.4.219.784.454,1.187.661.351.168.813.238,1.14.419.3-1.675.614-3.347.924-5.019.641-3.991,2.084-8.05,1.714-12.117-2.512,3-3.581,9.93-4.618,13.851q-.256,1.056-.509,2.113l.161.091M61.141,221a1.032,1.032,0,0,1,.079.079C65.491,216.7,73.486,208.424,66.656,211a32.93,32.93,0,0,0-9.083,6.147A26.044,26.044,0,0,0,61.141,221M49.632,204.172a.982.982,0,0,1,.051.19,49.318,49.318,0,0,0,9.469-1.108,31.6,31.6,0,0,0-10.023-1.3,7.665,7.665,0,0,0,.5,2.221m7.1-14.987c-5.661-2.1-11.457-3.915-17.1-6.1-9.1-3.3-28.436-12.252-34.4-.446A29.815,29.815,0,0,0,2.9,195.814c.347,6.915,8.856,6.1,13.876,6.18,4.284-.055,8.553-.56,12.826-.913a200.938,200.938,0,0,1,22.619-.7c2.692.219,5.526.385,8,1.538a1.5,1.5,0,0,1,.881,1.795c-.6,1.565-4.223,1.628-5.689,1.887-5.134.535-10.159.493-15.309,1.24a83.745,83.745,0,0,0-13.824,3.3,181.414,181.414,0,0,0-18.007,6.5c-3.357,1.515-6.466,4.42-6.561,8.318a28.957,28.957,0,0,0,2.4,12.069A22.13,22.13,0,0,0,9.7,245.325a4.151,4.151,0,0,0,5.39.6,56.727,56.727,0,0,0,5.476-3.636c3.841-2.7,7.741-5.325,11.663-7.908,7.512-4.8,15.014-9.7,21.444-15.94,3.9-3.521,7.86-7.382,12.9-9.17,1.475-.519,3.957-.819,4.42,1.145.54,3.283-6.971,9.943-9.209,12.475-2.2,2.31-4.329,4.69-6.591,6.94a91.58,91.58,0,0,0-12.908,15.212c-3.182,4.849-6.8,9.939-7.248,15.92a13.748,13.748,0,0,0,2.9,9.38,26.778,26.778,0,0,0,7.163,7.517,35.223,35.223,0,0,0,6.776,3.6c1.826.711,3.984.823,5.292-.862,2.6-3.338,4.308-7.285,6.129-11.079,2.106-5.243,3.295-10.8,4.921-16.206,2.731-9.966,5.034-20.045,7.422-30.1.964-3.647,1.664-7.566,3.815-10.734.6-.884,1.955-1.554,2.8-.614a3.752,3.752,0,0,1,.581,2.426c0,3.284-.911,6.476-1.511,9.682-.7,3.522-1.349,7.1-1.921,10.65-1.416,8.823-1.4,17.794-1.03,26.7.172,4.407.269,8.711.76,13.115.606,5.815,3.009,13.074,9.562,14.226a14.4,14.4,0,0,0,9.356-1.42,11.945,11.945,0,0,0,4.335-3.313,7.217,7.217,0,0,0,1.149-3.8c.083-2.38-.052-4.764-.2-7.14-.671-9.574-3.416-18.829-5.653-28.118-1.561-6.587-3.4-13.1-4.984-19.681-.7-3.582-2.865-9.479-1.17-12.8.927-1.625,2.512-1.179,3.216.357,2.537,4.2,3.434,9.077,5.01,13.661,3.159,8.66,7.163,16.993,11.13,25.307,4.258,8.209,13.165,25.983,22.5,28.093,3.645.819,6.55-1.8,8.35-4.687a15.376,15.376,0,0,0,2.887-7.168c.378-3.9-1.846-7.3-3.888-10.425a144.483,144.483,0,0,0-10.53-13.423A313.166,313.166,0,0,0,107.429,219.6c-2.447-2.445-4.989-4.795-7.328-7.345a15.28,15.28,0,0,1-2.531-3.574c-.906-1.8-.17-3.9,2.087-3.732,2.611.393,5,1.746,7.349,2.881a40.908,40.908,0,0,1,4.016,2.309c5.48,3.725,10.72,7.785,16.035,11.737,7.505,5.4,19.39,14.674,28.795,14.854,2.664-.236,3.351-1.932,3.1-4.381-.456-4.707-1.18-9.557-3.53-13.736-4.458-7.976-15.833-10.527-24.1-12.855a185.082,185.082,0,0,0-31.507-5.34c-.974-.058-1.949-.113-2.923-.106a7.837,7.837,0,0,1-1.745-.051,6.476,6.476,0,0,1-3.05.437,64.261,64.261,0,0,1-8.448-.856,2.33,2.33,0,0,1-1.178-.433.815.815,0,0,1-.394.05,16.922,16.922,0,0,1-4.845-1.371c-2.539-1.117-5.05-2.294-7.585-3.419-4.262-1.932-8.555-3.8-12.917-5.489m23.493-26.669a62.45,62.45,0,0,0-2.318,11.719c-.507,3.477-1.341,6.895-1.848,10.371-.421,2.6-.83,5.208-1.1,7.831-.1.888-.175,1.777-.266,2.663,0,0,0,.007,0,.011a30.839,30.839,0,0,0,6.513,2.527c.057.011.118.021.182.03A12.173,12.173,0,0,1,81.04,195q-.012-.985-.013-1.97c0-8.327.678-16.653,1.495-24.935.344-3.319,1.473-11.532,3.606-16.73a30.369,30.369,0,0,0-3.138,4.966,57.3,57.3,0,0,0-2.765,6.182m-15.1-57.855h0l.018-.038c.318-.671.623-1.348.911-2.033.639-1.522,1.258-3.052,1.809-4.609.06-.17.117-.341.176-.511.068-.2.138-.391.2-.588q.626-1.586,1.228-3.178A106.848,106.848,0,0,0,72.84,81.379c3.945-17.651,6.548-30.346,19.489-44a80.577,80.577,0,0,1,9.226-8.024,47.09,47.09,0,0,0-4.953,2c-2.58,1.31-5.044,2.839-7.539,4.3-4.472,2.755-6.905,7.655-9.3,12.146-4.42,8.36-8.25,17.08-10.406,26.321C67.735,83.011,66.972,92.19,65.3,101.1c-.376,2.042-.663,4.1-1.068,6.139.117-.314.231-.628.34-.944.016-.046.031-.093.046-.139h0c.17-.5.339-1,.5-1.5M91.741,29.3a32.905,32.905,0,0,0-9.531,6.889,91.14,91.14,0,0,0-9,12.486c-1.456,2.547-2.758,5.109-4.1,7.731A106.183,106.183,0,0,0,63.2,68.89,89.417,89.417,0,0,0,59.984,80.9a45.348,45.348,0,0,0-1.152,9.057c-.015,5.955,2.12,11.586,3.269,17.378.055-.112.107-.226.163-.337.036.325.075.65.115.976.267-1.17.456-2.359.663-3.541.595-3.53,1.255-7.049,1.749-10.594.508-3.633,1.059-7.261,1.54-10.9A87.468,87.468,0,0,1,68.082,72.26a110.225,110.225,0,0,1,5.4-15.483c2.3-4.929,4.715-9.822,7.433-14.538a25.5,25.5,0,0,1,5.012-6.331,25.34,25.34,0,0,1,4.589-3.041A54.509,54.509,0,0,1,97.6,29.082c2.081-.974,4.295-1.534,6.45-2.31.371-.1.822-.377,1.255-.535l.012-.011A38.735,38.735,0,0,0,91.741,29.3M121.38,155.878c.123-6.645.848-13.234,1.36-19.865.366-4.232.315-8.482.266-12.73-.045-3.7-.089-7.4.141-11.085.4-7.012,3.058-13.791,2.352-20.876a105.5,105.5,0,0,0-4.53-23.023c-1.918-5.93-4.651-11.7-8.954-16.284a83.983,83.983,0,0,1,5.931,30.843c-.024,8.11-.61,16.208-.478,24.321.11,8.205.241,16.412.02,24.616-.062,5.295-.464,10.592-.121,15.886a78.648,78.648,0,0,0,4.378,19.44c-.06-3.75-.418-7.49-.366-11.242m-9.074-76.006c-.548,10.489-1.747,20.93-2.739,31.385a121.471,121.471,0,0,0-1.017,17.668,129.347,129.347,0,0,0,2.977,18.529,45.136,45.136,0,0,0,3.015,9.682c1.735,3.482,3.641,6.988,5.556,10.4-.6-1.656-1.046-3.382-1.577-5.047a65.833,65.833,0,0,1-2.96-19.9c.156-8.037.467-16.073.374-24.113-.033-5.338-.19-10.68-.138-16.018.042-7.524.659-15.04.426-22.564A80.658,80.658,0,0,0,114.381,65.5a80.96,80.96,0,0,0-3.4-11.552,44.62,44.62,0,0,0-2.075-4.715,65.751,65.751,0,0,1,2.769,10.373c1.08,6.689.8,13.512.63,20.263m-7.164-20.583q.947-6.662,1.489-13.389a.732.732,0,0,1-.012-.111.8.8,0,0,1,.042-.249,180.645,180.645,0,0,0,.506-18.727l-.244.217c-.143.128-.291.249-.434.376a.922.922,0,0,1-.311.269c-1.157,1.013-2.335,2-3.539,2.957-2.4,1.905-4.833,3.765-7.069,5.856a69.624,69.624,0,0,0-8.434,9.917,62.436,62.436,0,0,0-9.1,20.488c-2.491,8.706-3.779,17.74-6.652,26.335,4.808-4.859,11.278-7.7,17.7-9.787A49.032,49.032,0,0,0,97.4,80.095c.8-.517,1.568-1.087,2.314-1.677a.832.832,0,0,1,1.031.042,175.928,175.928,0,0,0,4.4-19.171m-51.927,98.9c.376-.61.755-1.221,1.108-1.844,3.508-5.962,5.334-12.684,8.208-18.94a151.463,151.463,0,0,1,9.3-16.884c3.136-4.69,7.237-8.615,10.347-13.327,4.677-6.649,7.7-14.246,11.97-21.141-4.672,3.587-9.353,7.225-13.279,11.643A87.968,87.968,0,0,0,69.39,114.963c-7.662,14.765-13.235,30.479-18.193,46.329.692-1.02,1.373-2.051,2.018-3.1m-1.631-3.49c2.024-6.224,4.04-12.455,6.477-18.534,4.616-11.434,9.481-22.877,16.514-33.078,4.511-6.847,10.647-12.4,17.185-17.3q1.889-1.468,3.782-2.933c-1.066.448-2.157.845-3.231,1.253-6.847,2.24-13.939,4.7-19.232,9.8a30.085,30.085,0,0,0-3.488,4.045c-2.105,5.31-4.3,10.6-6.5,15.844a.938.938,0,0,1-1.686-.477c-.018-.085-.031-.171-.048-.256a121.734,121.734,0,0,0-4.7,15.4c-1.257,4.951-2.442,9.781-3.36,14.834-.687,3.577-1.192,7.18-1.63,10.8q-.04.3-.079.608" transform="translate(0 26.46)" fill="#2d2d2d"/><path d="M.04,1.259c.055.181.119.361.182.54A21.744,21.744,0,0,0,1.638,4.769C3.6,8.3,5.543,11.863,7.531,15.391c-.007.016-.02.028-.027.046a3.057,3.057,0,0,0-.124,1.094,1.111,1.111,0,0,0-.3.575c-.169,1.06-.255,2.134-.4,3.2a86.175,86.175,0,0,0-.708,9.953c-.489,14.6,6.98,27.9,15.872,38.967,2.836,3.531,5.686,7.052,8.437,10.65C32.3,82.195,39.065,92.6,41.931,91.885a.993.993,0,0,0,1.269.222c.857-.569.464-1.354-.046-2.006a11.515,11.515,0,0,0-1.175-3.872c-1.82-4.068-3.659-8.131-5.1-12.351-1.825-5.163-3.406-10.437-5.82-15.364a67.993,67.993,0,0,0-5.044-8.354c-2.5-3.581-5.022-7.153-7.495-10.757-2.942-4.094-6-8.191-7.553-13.05a27.154,27.154,0,0,1-1.293-7.227c2.261,3.889,4.617,7.72,7.194,11.411A171.066,171.066,0,0,0,38.61,55.45c6.226,6.1,12.313,12.345,18.5,18.485q4.672,4.6,9.428,9.1a4.026,4.026,0,0,0-.76,2.77c.288,3.182,2.557,5.7,4.561,8.021a128.047,128.047,0,0,0,9.041,9.235c1.53,1.443,3.077,2.875,4.72,4.188a10.426,10.426,0,0,0,1.394,1.013c-4.944,8.166-6.686,10.026-6.319,20.671A72.868,72.868,0,0,0,82,148.505c1.081,3.729,2.049,7.583,4.027,10.957,1.77,3.37,6.318,5.766,8.88,1.826,2.086-3.719,1.353-8.475.9-12.543-.981-6.513-3.2-12.754-4.4-19.222-.2-1.286-.446-2.584-.672-3.888.059.034.119.068.175.1.709.39,1.975,1.269,2.826,1.085a32.751,32.751,0,0,0,.789,3.194,104.839,104.839,0,0,0,4.363,12.8,39.07,39.07,0,0,0,5.653,10.028c1.879,1.917,4.43,5.436,7.425,4.993,1.9-.389,2.69-2.464,2.808-4.2.186-5.451-1.845-10.757-3.822-15.753a83.14,83.14,0,0,0-7.42-12.8,7.549,7.549,0,0,0,2.134-1.125c.967,1.249,1.957,2.478,3.006,3.66,4.55,5.044,10.263,11.062,16.691,13.547,4.453,1.656,11.534-.086,10.769-5.955-.778-4.1-4.255-7.008-7.257-9.615-4.479-3.755-9.836-6.222-14.937-9.045a13.444,13.444,0,0,0,2.546-3.806c1.069.611,2.068,1.2,2.958,1.685,6.424,3.661,19.287,11.675,26.583,8.049,3.606-2.013,3.443-6.981,1.33-10.05-2.685-4.347-7.252-7.076-11.86-9.01a50.052,50.052,0,0,0-15.839-3.253,6.79,6.79,0,0,0-.43-2.041c-.183-.465-.34-.957-.526-1.43,4.469-.21,8.936-.4,13.406-.65,6.447-.44,15.874-.731,18.941-7.576a8.973,8.973,0,0,0,.55-3.023c0-6.575-8.233-10.544-14.048-12.148-8.89-2.531-17.232,1.106-24.374,6.27a89.331,89.331,0,0,0-10.168,8.063c-3.041,2.94-5.78,6.17-8.638,9.284-.343.391-.675.791-1.007,1.191-.439-.469-1.068-.869-1.463-1.294-2.051-1.9-4.163-3.715-6.314-5.491-.544-.547-1.042-1.045-1.453-1.479A56.879,56.879,0,0,0,77.295,84.3a17.56,17.56,0,0,0-3.185-1.909,21.973,21.973,0,0,0-2.367-1.277,3.782,3.782,0,0,0-3.826.456q-.892-.842-1.782-1.689-4.807-4.59-9.521-9.274C48.2,61.982,39.447,53.7,31.145,44.972q-2.52-2.729-4.909-5.577c.355.21.709.421,1.068.624a108.517,108.517,0,0,0,11.752,5.762c12.2,5.125,24.974,8.865,36.813,14.841,6.275,2.934,12.329,7.419,19.443,7.906.948.031,2.381.32,2.747-.841.2-.706-.309-1.328-.738-1.851-.687-.82-1.434-1.594-2.14-2.4-2.06-2.36-4.024-4.8-6.088-7.162-3.664-4.081-7.257-8.309-11.6-11.7-11.82-8.94-25.986-11.445-40.486-9.537-1.989.175-3.974.361-5.967.5-2.451.139-5.015-.168-7.4.46-.041.026-.074.054-.11.081Q20.369,32.1,17.485,27.9C13.117,21.435,9.4,14.568,5.593,7.767,4.563,5.922,3.525,4.08,2.578,2.189,2.107,1.393,2.048-.237.765.029A1.013,1.013,0,0,0,.04,1.259M27.223,55.718c4.383,7.139,6.27,15.392,9.342,23.109C32.7,72.441,27.919,66.7,23.388,60.8c-6.121-8.06-9.652-17.773-11.565-27.642,4.863,7.693,10.584,14.833,15.4,22.563m-2.179,10.51a131.3,131.3,0,0,1,10.278,14.45c1.467,2.458,2.736,5.029,4.223,7.477-3.311-3.5-6.036-7.5-9.016-11.274-2.7-3.519-5.565-6.913-8.281-10.42-5.844-7.566-10.935-16-13.182-25.372A55.02,55.02,0,0,1,8.27,24.5c2.334,16.089,6,29.1,16.773,41.732M72.87,83.939a13.026,13.026,0,0,1,1.291.641,11.844,11.844,0,0,1,1.179.742c.354.256.7.527,1.045.791l.041.031h0c.355.266.707.533,1.063.8.744.558,1.488,1.119,2.214,1.709h0l.014.011.023.02-.018-.013c.011.007.02.015.031.023h0l.007.006-.006,0c.491.4.976.8,1.451,1.218l0,0q.4.346.779.707c.077.073.154.148.231.221.175.166.35.332.522.5l-.007-.007c.347.329.684.672,1.024,1,.1.1.2.192.3.286.025.026.05.048.075.074l.078.071.012.012,0,0c.176.161.353.322.529.485.334.308.66.623.99.936.314.3.639.582.958.873.413.377.826.755,1.246,1.123.2.177.413.347.611.531s.417.387.623.581l-.006-.007c.012.012.023.023.035.033l-.012-.012c.389.364.785.716,1.179,1.076.215.2.425.4.645.591l.012.011h0l0,0h0l0,0c.056.042.114.081.174.118.1.055.2.108.3.174a.677.677,0,0,1,.1.087c.013.014.026.028.038.042a.713.713,0,0,1,.062.086c.009.014.018.027.025.041a.653.653,0,0,1,.046.114c0,.01.008.02.011.03a.573.573,0,0,1,.007.28c0,.022-.013.043-.02.065a.732.732,0,0,1-.084.187c-.007.01-.015.018-.022.028a.587.587,0,0,1-.149.145l-.011.009a.785.785,0,0,1-.17.077c-.016,0-.033.006-.049.01a.7.7,0,0,1-.134.023c-.023,0-.045,0-.068,0a.614.614,0,0,1-.116-.014.508.508,0,0,1-.07-.024.491.491,0,0,1-.133-.065c-.076-.055-.156-.1-.237-.154a2.36,2.36,0,0,1-.273-.207c-.205-.163-.4-.34-.595-.515.029.056.051.109.077.165-.405-.385-.81-.77-1.225-1.143-3.326-3.1-6.856-5.975-10.469-8.737q-3.8-2.863-7.492-5.872c-.15-.106-.3-.223-.442-.342a5.679,5.679,0,0,1,.833,0,.352.352,0,0,1,.145-.112.715.715,0,0,1,.477.009c.219.057.436.124.652.192s.427.138.632.223l0,0m17.168,18.794c-.1.262-.227.52-.342.773A115.146,115.146,0,0,1,75.479,91.591c-1.262-1.336-3.491-3.19-4.974-5.065,4.551,3.679,9.416,7.081,13.8,10.948,1.457,1.272,2.9,2.608,4.319,3.937.412.341.9.969,1.416,1.321m-9.561-1.409C77.134,98.034,68.829,90.5,67.868,86.27c1.808,2.839,4.381,4.918,6.729,7.275a120.377,120.377,0,0,0,13.2,11.093c-.032.012-.064.02-.1.036a.553.553,0,0,1,.075.28.577.577,0,0,1-.034.193.631.631,0,0,1-.112.187c-.059.075-.114.156-.169.235a3.525,3.525,0,0,1-.238.312l.028-.033-.133.16c-.032.04-.065.081-.1.121a.823.823,0,0,1-.139.148.6.6,0,0,1-.338.126.454.454,0,0,1-.058,0c-.013.032-.027.063-.041.095a.954.954,0,0,1-.112-.08,63.472,63.472,0,0,1-5.855-5.09M92.33,124.229c-.665-.247-1.261-1.029-1.968-1.009a21.7,21.7,0,0,1-.1-5.785,1.407,1.407,0,0,1,.131.067.675.675,0,0,1-.07-.035c-.015-.007-.029-.016-.046-.023,1.524,1.232,2.357,4.317,3.012,7.3-.334-.142-.645-.345-.963-.514m11.27-1.348a13.035,13.035,0,0,0-1.217.509q-.748-1.1-1.5-2.192a38.946,38.946,0,0,1-4.055-7.45,14.215,14.215,0,0,1,3.728,3.521c1.328,1.665,2.592,3.38,3.876,5.08a4.638,4.638,0,0,1-.835.532m8.551-7.344a39.308,39.308,0,0,1-8.588-6.438c3.329-1.087,7.489.681,11.142,2.655a12.559,12.559,0,0,1-2.553,3.783m5.132-16.872a9.588,9.588,0,0,1,.357,1.4q-.636-.026-1.27-.042c-2.161,0-4.328.107-6.488-.011a6.088,6.088,0,0,1-3.138-.99c2-1.89,7.07-1.975,9.793-2.223.25.623.538,1.232.747,1.87M110.8,83.8c5.382-3.981,11.058-8.161,17.877-9.1,6.321-.85,12.943,1.385,17.952,5.218,3.256,2.632,4.179,7.366.757,10.259-4.671,3.632-11.023,3.5-16.665,3.918-6.384.417-12.819.365-19.173,1.144-2.064.365-4.333.693-5.988,2.077-1.758,1.621-.556,3.48,1.385,4.094,3.057,1.144,6.415.487,9.6.631a67.125,67.125,0,0,1,11.415,1.223c5.662,1.181,11.34,3.448,15.546,7.54,4.483,4.159,5.212,11.376-2.747,10.515-11.661-1.377-20.418-10.364-31.264-13.979-2.339-.634-5.2-1.153-7.341.272a1.745,1.745,0,0,0-.575,2.143,13.68,13.68,0,0,0,2.783,2.85c4.167,3.579,9.129,6.015,13.955,8.561,4.933,2.671,9.768,5.75,13.475,10.019,5.984,6.656-.563,10.483-7.047,7.565-7.034-3.783-12.538-9.88-17.494-16.035-2.832-3.477-5.121-7.535-8.715-10.3-1.446-1.186-4.2-1.244-3.847,1.243,1.583,4.947,4.893,9.092,7.727,13.375,3.223,4.8,6.368,10.032,8.2,15.595a38.927,38.927,0,0,1,2.16,9.4c.135,2.969-.657,5.338-3.617,2.641a26.1,26.1,0,0,1-5.837-7.218,90.8,90.8,0,0,1-8.1-23.253c-.675-2.575-1.152-5.361-2.812-7.517-1.613-2.086-4.13-1.563-4.269,1.2a41.175,41.175,0,0,0,.86,9.6,124.719,124.719,0,0,0,2.852,12.609c1.472,6.027,3.394,12.925,1.847,19.077-.893,2.825-3.279,2.615-4.97.612a20.762,20.762,0,0,1-3.3-6.828,77.661,77.661,0,0,1-4.223-23.239c0-.623-.009-1.251-.016-1.879a27.812,27.812,0,0,1,.848-8.934c1.13-3.467,3.339-6.372,5.151-9.49l0-.006a.842.842,0,0,1,.2-.34c.1-.183.2-.369.3-.553.018-.008.036-.013.054-.021l.145-.075.189-.268c.035-.047.068-.1.1-.146l.344-.482c.2-.277.4-.552.6-.826.084-.112.17-.222.258-.333.163-.214.326-.426.487-.641.28-.376.561-.751.847-1.12.192-.251.389-.5.578-.751s.4-.526.61-.777c.014-.017.028-.033.042-.049.139-.163.279-.324.428-.479,1.081-1.351,2.139-2.718,3.27-4.029,4.707-5.25,9.33-10.66,15.157-14.717M87.9,64.45c-4.15-1.881-8.1-4.187-12.2-6.16-3.959-1.975-8.041-3.683-12.157-5.3-10.812-4.249-21.986-7.7-32.3-13.116C35.892,41,40.458,42.468,45.071,43.75c5.966,1.752,11.829,3.4,17.619,5.741A95,95,0,0,1,74.3,55.605C79.68,58.625,84.856,62,90.05,65.318c-.724-.273-1.448-.547-2.153-.868M74.209,44.719a45.953,45.953,0,0,1,8.169,7.169c4.033,4.185,7.691,8.7,11.486,13.1-4.042-1.791-7.5-4.634-11.324-6.834-5.548-3.321-11.058-6.761-16.89-9.563a115.183,115.183,0,0,0-15.181-5.363c-6.715-1.914-13.375-4.05-20.176-5.641,4.451-.181,8.869-.844,13.317-1.077a50.134,50.134,0,0,1,30.6,8.208" transform="translate(151.08 0)" fill="#2d2d2d"/></g></svg>