<svg xmlns="http://www.w3.org/2000/svg" xmlns:xlink="http://www.w3.org/1999/xlink" width="200.102" height="227" viewBox="0 0 200.102 227"><defs><clipPath id="a"><rect width="200.102" height="227" fill="rgba(0,0,0,0)"/></clipPath><clipPath id="c"><rect width="161.502" height="196.357" fill="rgba(0,0,0,0)"/></clipPath></defs><g style="isolation:isolate"><g clip-path="url(#a)"><g clip-path="url(#a)"><g transform="translate(0 30.643)" style="mix-blend-mode:multiply;isolation:isolate"><g clip-path="url(#c)"><path d="M.056,137.735V89.711c2.047-1.374,4.656-.049,6.731-1.4.408-.267.967.064,1.394.36,2.066,1.431,3.84,1.237,5.784-.626,4.408-4.223,4.408-4.223,6.311,1.448a26.506,26.506,0,0,1,.861,3.455c-.963,3.292-3.846,5.734-3.215,9.9.312,2.052-1.438,5.563-5.35,3.49-1.554-2.066.91-4.131.269-5.474,1.2,1.325-4.211,3.162-.447,5.281,1.772,1.511,3.172,1.21,4.76-.509,3.141-3.4,3.633-3.2,5.268,1.282.944,2.59,1.715,5.114,5.693,4.017,1.025-.283,3.176-.832,4.866.305-2.789-2.523-5.348-5.542-2.393-8.925,2.039-2.335,3.2-5.039,4.908-7.477,1.847-1.575,3.9-1.433,6.191-1.168,2.719.315,5.751,3.045,8.261-1.18.811-1.364,3.045.066,4.147,2.714-.567-2.655-1.164-4.4-1.587-6.257-.639,2.066-2.114,4.153-3.987,2.91-3.158-2.094-.518-4.7.507-7.011-2.384,1.266-4.325.616-5.9-1.376-1.384-1.748-.124-3.061.718-4.552,1.614-2.855,4.463-3.5,7.216-4.135,1.327-.306,2.908.166,1.736,2.258-.477.031-.666,1.073-1.359.4.646.822,1.136-.583,1.764-.121.495.191.912.864,1.2.838.626-.056.124-.689.033-.892-2.249-4.93.652-9.146,1.9-13.564.643-2.281,3.5-3.3,4.023-1.512,1.04,3.566,3.532,2.066,5.36,2.646,4.175,1.322,5.041,2.774,3.524,7.074-.858,2.429-.529,5.053-1.585,7.453-.7,1.585.76,2.364,1.8,3.257,1.264,1.087,3.136,1.379,3.755,2.483-1.449-1.3-3.666-3.04-1.689-5.884,1.442-2.075,2.43-4.614,4.547-6.032,1.382-.925,2.527.169,2.834,1.8-1.692,1.748.6,3.541-.05,5.3.149,3.009.6,5.911,4.594,5.628,2.057-.146,3.061,1.109,4.322,2.231-.72-1.231-1.022-3.707-2.752-3.008-4.845,1.958-5.3-1.533-6.4-4.475-.324-.911,3.617-.472.69-2.29a1.951,1.951,0,0,1-.57-3.037,2.529,2.529,0,0,1,2.34-1.677c2.709-.047,9.037,5.356,9.45,8.092.128.851.1,1.847.746,2.379,4.32,3.535,1.817,8.654,3,12.915.424,1.529-1.021,2.771-2.375,3.624-1.544.971-2.593.061-3.478-1.039-1.71-2.125-4.769-2.834-5.9-5.476-.478-1.122-.8-1.369-1.587-.454-.5.579-2.4.418-1.127,2.005,1.15,1.43.508,3.45,1.362,4.822,1.191,1.912,1.954,6.115,5.537,1.888,1.15-1.357,2.61-.4,3.433.735.994,1.378,1.095,3.306-.491,4.022-3.249,1.465-3.027,4.742-4.258,7.2-.92,1.837,1.148.759,1.744,1.194a4.19,4.19,0,0,1,1.2.536c2.137-.944,3.4-4.45,6.684-2.009,2.045,1.52,2.94,3.9,1.1,5.051-4.155,2.608-2.87,6-2.461,9.442.221,1.863.11,3.744.319,5.932a5.351,5.351,0,0,1,6.671-.679c1.439.811,3.523,1.264,3.537,3.266.012,1.828-2.069,1.285-3.161,1.905-3.894,2.214-4.085,4.032-1.461,7.87a15.919,15.919,0,0,1,3.081,10c-.09,1.5-.262,2.972,1.938,2.375,3.764-1.022,3.706,1.526,3.22,3.725a31.463,31.463,0,0,0,.87,16.063,7.026,7.026,0,0,0-.921,1.718c.379-.381.3-1.037.823-1.349,3.7.562,2.48,5.672,5.97,6.426-.984,3.648-1.984,3.852-6.933,1.327.661,2.125.121,4.463,1.644,6.293,7.373-4.28,7.373-4.28,4.83-8.075-1.044-4.787-2.377-9.48-1.7-14.536.491-3.651-2.451-6.984-1.482-10.916.241-.978-1.247.145-1.932-.216-1.525-.8-3.393-1.594-3.046-3.583.433-2.49,2.715-2.07,4.553-2.061a4.644,4.644,0,0,1,3.208,1.41c3.632,3.683,6.6,1.487,9.652-.841,2.527-1.926,1.54-4.949-2.7-8-1.233,1.861-1.366,4.288-2.673,5.976s-3.178,4.865-5.233.547c-.74-1.556-1.562-.768-2.426-.562a16.392,16.392,0,0,1-5.013.816c-1.544-.117-3.246-.409-3.508-2.3-.224-1.62,1.021-2.349,2.419-2.817.467-.157,1.083-.1,1.362-.673a2.382,2.382,0,0,1-1.454.395c-1.783-.16-1.556-1.558-1.433-2.686.238-2.188.187-4.467,1.265-6.469.637-1.184.886-2.328-.176-3.239-4.215-3.614-1.321-6.808.742-9.772,1.341-1.927,3.154-3.551,4.355-5.626.184-.425.391-.84.6-1.253a8.9,8.9,0,0,0,.661-4.049c.214-4.01,2.1-7.714,5.527-8.952,4.267-1.543,6.814,2.494,9.405,5.315.841,1.386.944,3.46,3.258,3.49a1.931,1.931,0,0,1,.989.887,2.343,2.343,0,0,1,.175.986c-.146,1.972-1.3,2.559-3.107,2.249.275.829,1.187,1.188,1.44,2.076.41,1.44,1.374,2.7,1.445,4.258a2.032,2.032,0,0,1-.237.962,1.766,1.766,0,0,1-1.191.618,4.512,4.512,0,0,1-1.8-.944c-.365-.251-.719-.521-1.079-.777-.59-.324-1.2-.606-1.821-.873a13.156,13.156,0,0,1-1.759-1.007c-1.763-1.091-3.159-3.582-5.7-2.074-2.211,1.312-2.776,3.755-3.135,6.121-.3,1.986.7,3.912.166,6.018-.409,1.62,1.219,1.043,2.1,1.1,3.016.194,3.458,1.485,1.848,3.934-.824,1.254-3.331,2.415-1.54,4.131,2.056,1.969,3.015-1.088,4.528-1.761,1.6-1.1,3.177-2.274,5.309-1.733a4,4,0,0,1,1.262.616c1.341,2.229,1.747,5.156,4.605,6.229.07,1.054.41.425.73.063,4.023-1.132,3.229,2.3,3.355,4a97.222,97.222,0,0,0,1.277,12.579c.465-1.623,1.19-3.4,3.189-3.2,1.884.185,1.792,2.209,2.151,3.63,1.059,4.2,1.533,4.38,8.637,3.037.242.017.482.04.725.061a3.007,3.007,0,0,1,1.181.818c.763,1.172,1.928,2.218,1.271,3.86a3.379,3.379,0,0,1-1.207.62c-3.494,6.858-3.446,7.51.889,11.892,2.1,2.32,3.3,4.782,1.15,7.732-.3.378-.467.968-1.151.828.26.292.527.261.805-.092a2.313,2.313,0,0,1,1.9,1.443,2.976,2.976,0,0,1-.074,1.326,8.923,8.923,0,0,1-1.914,2.844c-1.755,1.582-2.054,3.812-2.768,5.9-.6,1.768-1.734,3.7-4.007,2.979a3.393,3.393,0,0,1-2.234-4.561c2.134-4.716-.784-8.435-1.63-11.8,1.932,3.633-.432,7.887-.9,12.087-.269,2.4-3.325,2.932-6.17,1.927.713,2.107.89,4.315-1.208,5.686-1.831,1.2-3.845.908-5.853.076-.611-.253-.151-1.892-1.166-.969-.368.334-.889,1.916,1.033,2.021,3.065.168,5.222,1.581,5.1,5.066-.064,1.806-.4,3.488-2.843,3.329q-29.789-.025-59.531,0c-1.488.269-2.489-.747-3.673-1.376-5.53-2.936-5.687-3.756-.756-7.818,1.568-1.292,1.206-3.066,1.959-4.525-.95,1.981-.2,5.943-4.574,3.8-1.53-.747-2.553.045-3.58,1.043-.949.922-2.066,2.4-3.4,1.283-1.513-1.268-3.62-3.933-2.554-5.04,2.449-2.541.117-4.178-.167-6-1.67,7.114.228,10.876,6.771,13.605,2.111.879,3.191,2.475,1.761,4.817a19.248,19.248,0,0,1-4.211.2c-1.061-.224-2.12-.766-3.2-.055a3.437,3.437,0,0,1-1.914-.229c-.772-1.489-1.357-.256-2.011.163a9.49,9.49,0,0,1-2.069.126c-1.217,0-2.429,0-3.642,0a11.258,11.258,0,0,1-2.163-.119c-2.242-.767-3.121-2.861-4.442-4.537-.684-.867-1.231-2.29-2.654-1.747-1.276.487-.993,1.94-1.229,3.043-.231,1.081.875,2.266-.268,3.265a13.744,13.744,0,0,1-3.578-.02c-1.489-2.895-.679-6.025-.408-8.915.307-3.277,6.877-4.068,10.572-1.534,1.778-2.465-2.981-5.88.76-7.695,2.589-1.255,3.54,1.818,4.659,3.321.469-3.811,1.206-7.856-2.655-10.868-.812-.634-.442-1.9.492-2.652,2.589-.657.64-5.556,4.018-4.837,2.252.479,1.86,3.745,3.062,5.538,1.175,1.755,7.52,2.175,8.816.585.708-.867.977-2.206.19-2.813-3.246-2.506-5.017-6.88-9.616-7.653a8.56,8.56,0,0,1-5.681-1.751c-.861.717-.583,1.846-1,2.725-.8,1.691-1.615,3.886-3.756,3.365-2.067-.5-1.326-2.692-1.109-4.316.177-1.329.589-2.936-1.228-3.305-1.291-.262-1.4,1.144-1.661,2.074-.282,1-.561,2.14-1.852,1.951-2.507-.366-2.924-2.437-3.3-4.467a3.22,3.22,0,0,1,.556-1.93c.343-.555.712-1.1,1.053-1.662a6.6,6.6,0,0,1,.756-1.086,2.648,2.648,0,0,1,1.771-.875,1.725,1.725,0,0,1,1.123.7c2.8.763,5.774,2.714,7.7-1.1-5.341,2.175-7.213,1.7-8.112-2.153.28-6.146,3.4-11.686,3.775-17.781a.414.414,0,0,0-.313-.6,10.056,10.056,0,0,0-.5,4.352c.1,2.035-.674,3.538-3.167,3.091-2.055-2.448-3.258-.367-4.617.884a4.33,4.33,0,0,1-1.268.61c-5.139.03-7.693-4.391-11.367-6.821-1.613-1.067-.893-3.442-.22-5.25.9-2.419,2.567-4.383,3.922-6.588.462-.431-.657-.73-.108-.327.165.122.037.227-.122.481a3.027,3.027,0,0,1-5.183.407c-1.994-2.369-4.275-3.006-7.087-3.172a3.944,3.944,0,0,1-3.228-2.254c-.911-1.858-.91-.456-1.6.175-1.676,1.528-3.673,2.43-5.959,1.044" transform="translate(0.007 -23.195)" fill="#e9d6ac"/><path d="M33.764,167.777,32.741,168.8c-2.225.353-4.262.472-6.22,2.364-2.138,2.064-3.707.84-3.112-2.241a18.978,18.978,0,0,0,1.644-2.53c4.2-5.815,3.544-7.921-3.722-10.453,3.029,4.17,6.728,7.98,2.216,12.857-3.856,2.069-7,10.506-5.223,14,.316.622.778,1.365,1.424,1.307,5.73-.525,7.209,5.2,11.058,7.422a4.566,4.566,0,0,1,.7,1.257,7.8,7.8,0,0,1-.137,3.99c-1.05,4.458-1.818,4.648-5.669,1.889-1.909-1.368-3.916-2.622-5.88-3.923-.643-.425-1.154-.612-1.624.216-.722,1.275.126,1.349,1.027,1.4a4.831,4.831,0,0,1,1,.1c2.439.666,5.372,1.2,5.734,4.114.342,2.751-1.691,4.579-4.273,5.558a2.551,2.551,0,0,1-1.367-.378c-.541-3.039-.888-5.846-5.39-5.48-2.59.211-3.966-1.9-3.809-4.892.176-3.333-.056-3.346-4.058-3.682-.581-.354-.239,1.137-.2.458.01-.183.159-.182.45,0,6.267,3.974,6.2,15.178-.123,19.033-2.375-.242-4.817.543-7.13-.5V129.97l5.393-1.383c-.183-1.161-.352-2.243-.538-3.422a4.116,4.116,0,0,1,3.358,2.248c1.6,2.733,3.423,3.383,6.64,2.311.924-.307,1.131-.184,1.358.485.218.634.1,1.466.477,1.946,2.234,2.882,5.046,2.461,6.623-.931.274-.589.491-1.2.726-1.783,1.782.256,1.522,1.33,1.078,2.253-1.243,2.587-2.55,5.131-4.05,7.6-2.356,3.891-1.819,4.967,2.279,7.281a10.721,10.721,0,0,1,3.485,2.862,4.812,4.812,0,0,0,4.836,1.987c1.914,2.932,1.863,6.183,1.508,9.471-.116,1.065-.972,2.25.639,2.924a4.176,4.176,0,0,1,1.12.728.945.945,0,0,1-.2,1.182v1.022c-.386.295-.654.709-1.021,1.022" transform="translate(0.007 -15.43)" fill="#ebd9b3"/><path d="M19.348,29.657c5.417,2.4,11.547,1.906,16.978,4.027,4.833,1.888,10.3,1.086,14.848,3.877,1.173,1.977,3.325,1.33,5.029,1.894,1.572.52,3.3,1.455,1.439,3.137-3.838,3.472-1.379,6.873-.176,10.211.742,2.057,1.936,3.971,2.776,6.018.446,1.09,1.086,2.327-.049,3.294-1.341,1.143-2.489.034-3.684-.576-2.534-1.291-2.518-4.9-5.642-5.88.646,1.931,3.923,2.931,2.309,5.282-1.09,1.588-.609,4.774-3.226,4.688-3.286-.109-5.48-2.355-6.615-5.471-.036-.361.395-.73.172-1.039-.151-.209-.5.007-.644.359a2.42,2.42,0,0,1-1.214.119c-1.784-3.531-5.281-6.182-5.507-10.4-.345.663-1.228,1.065-1.847,1.7-4.431,4.527-4.8,4.519-9.276-.9-1.144-2.484-2.79-2.011-4.505-.716-1.143.864-1.587,2.507-3.215,2.887,1.736-.332,3.351-1.5,5.169-.45,1.459,2.161,3.669,3.9,3.156,7.066-.256,1.585,1.273,2.277,2.652,2.556,3.682.746,3.655,2.585,1.3,4.786-2.584,2.417-4.467,4.011-.117,7.095C32.255,75.2,32.784,79.7,35.15,82.6c1.2.105-1.174,3.064,1.652,1.978,2.766-1.064,3.952,1.164,5.069,2.962,1.15,1.849.783,3.562-1.354,4.568-1.731.815-1.042,4.4-4,3.653A4.228,4.228,0,0,1,33.208,91.3c-.017-1.192-.81-2.185-1.273-3.26-.535-1.188-.562-2.85-2.241-3.078-3.267-.444-5.258-1.208-3.037-5.151.821-1.458-1.331-1.28-2.363-1.574-2.833-.8-6.735,1.1-8.375-2.641-2.177-4.965-2.991-10.541-6.946-14.7-.446-.47-.428-1.775.314-1.792C6.24,62.833,3.31,58.583.056,58.074V27.42C5.677,26.814,10.919,29.2,16.425,29.5a1.875,1.875,0,0,0,2.923.159" transform="translate(0.007 -27.322)" fill="#e9d6ac"/><path d="M19.815,201.036a3.7,3.7,0,0,0,.766-.655c1-1.5,3.61-2.582,2.778-4.467-.969-2.2-3.612-2.833-6.025-3.017a24.207,24.207,0,0,0-3.352.186c-.737-2.836,3.361-3.208,2.268-6.051,3.123,3.769,8.223,4.4,10.915,8.911,1.181-2.989,2-5.469,1.853-8.2,2.711-4.257,1.545-11.763-2.716-12.884-3.076-.81-2.071-5.212-5.98-4.661.71,1.366,1.949,2.37,2.056,3.776.206,2.72,1.513,3.435,4,2.521,1.018-.375,2.545-.159,2.565.833.068,3.467,2.3,6.947.076,10.415-2.156-.128-2.807-3.546-5.668-2.443-1.1.426-.546-.589-.423-1.219.465-2.352-.275-3.178-2.633-3.146-5.105.07-5.672-.583-5.017-5.612.105-.813-.093-1.663-.013-2.482.21-2.135-.891-4.664,2.465-5.705,2.088-.648.178-2.648.489-4.066,1.409-.131,2.249,1.454,3.652,1.171h0c.283,1.828.629,3.662,2.832,1.384.877-.906.8-2.781,2.292-3,1.513-.219,2.692,1.1,4.069,1.614,1.129,1.418.6,3.761,2.663,4.767,1.545-.565.29-2.05.959-2.971.8-1.107.555-3.312,2.916-2.485,1.966.69,3.242,2.9,2.675,4.643-.458,1.406-1.539,2.682-.551,4.6,3.549-1.562,2.666-5.186,3.8-8.232,1.756,2.659,4.331,3.257,6.948,3.766,1.484,1.787,1.421,3.261.068,3.135-5.655-.532-4.938,4.053-6.2,7.084-.873.613-1.052,1.582-.246,2.1,5.869,3.745,3.057,8.594,2.071,13.862a20.017,20.017,0,0,0-1.825-3.111c-.834-.926-1.227-3.082-2.86-2.3-2.1,1,0,2.18.463,3.168.729,1.565-.213,3-.067,4.483.1,1.045.418,2.224-.869,2.523-1.377.321-1.694-.968-1.7-1.941-.022-1.774-1.026-1.645-2.32-1.681-1.774-.049-3.237,1.3-5.216.72-.967-.284-1.173,1.18-.961,2.332.465,2.522.606,5.068-.764,7.428-.485.735-1.543.338-2.046,1.036H17.781a.915.915,0,0,1-.279-.822c.058-.288.124-.432.2-.433,3.854-.253,1.434-3.238,2.117-4.871" transform="translate(1.689 -10.879)" fill="#ead7af"/><path d="M.056,54.876a6.124,6.124,0,0,0,1.908-.565c1.2-.86,1.9-1.172,2.436.7.462,1.6,1.512,1.93,3.07.728,1.908-1.473,4.029-1.183,6.221.03-1.027,2.1-2.767.361-4.187,1.211,1.48,2.51,4.146,4.171,5.192,6.972.543,1.457,2.045,2.483.657,4.527-.949,1.4,1.646,2.209,1.935,3.7.407,2.1,1.376,2.028,2.633.618,2.08,2.2,4.74.332,7.029,1,2,.588,2.35,2.445.813,4-.462.469-1.91.44-.968,1.662.4.516,1.24,1.346,1.484,1.227,4.57-2.251,4.077,1.283,4.46,3.822-5.554,4.215-6.95,4.38-10.963,1.291-3.536-4.714-4.624-5.063-9.344-1.781-1.947,1.354-3.935.557-5.757,1.095,2.11,2.063,4.11,1.3,6.359-.064,3.155-1.909,6.379-2.452,8.977,1.115.675,2.366.723,4.371-2.549,4.475-1.726-.905-.293-3.429-2.618-4.467-.31,6.158-6.938,4.717-9.373,8.851-1.012-1.956.85-2.54.631-3.739-.135-.732-.93-1.585-1.156-1.21-2.107,3.475-4.615.435-6.891.565V87.573c-.133-5.608,3.882-10.208,7.172-12.547,4.122-2.929,3.71-6.014,4.315-9.5a4.624,4.624,0,0,0-.853-.969C6.8,62.09,3.838,58.492.056,55.9Z" transform="translate(0.006 -24.124)" fill="#ebd9b3"/><path d="M.056,55.652c3.292,1.364,7.129,1.877,8.467,6.082.53,1.667,2.968.56,3.791,2.093a7.713,7.713,0,0,0-.648.679c.213-.23.425-.46.648-.679,1.164,3.635-.025,7.1-.791,10.59-.15.683-.93,1.428-1.45,1.074-3.15-2.138-2.593.395-2.979,2.131s-.68,3.949-3.524,2.941c-.232-.083-.589.188-.888.295,1.358,1.716-1.021,3.434-.626,4.152,1.778,3.229-.978,1.913-2,2.318Z" transform="translate(0.007 -23.879)" fill="#e9d6ac"/><path d="M138.975,180.333v-1.022c1.388-2.685,2.53-5.614,6.1-6.133.536,7.253-1.572,14.239-2.161,21.379a.856.856,0,0,1-.161.472c-2.864,3.254-1.815,7.127-1.732,10.849h-6.128c-.135-.177-.269-.354-.4-.528a1.707,1.707,0,0,1,.685-1.057c1.348-.576,2.72-1.135,2.46-3.034.006-2.446-.059-4.882-.017-7.32.7-4.512-.108-9.174,1.364-13.607" transform="translate(16.345 -9.594)" fill="#f1e5cb"/><path d="M145.847,201.633l0,1.017H44.723q-.506-.345-.332-.681c.114-.222.229-.334.343-.334l2.029-.02a1.387,1.387,0,0,1,2.046.013h2.043a1.377,1.377,0,0,1,2.042-.006l5.105,0c2.043-1.611,4.088-1.339,6.131,0l63.322-.006a23.444,23.444,0,0,1,18.393.02" transform="translate(5.39 -6.365)" fill="#eee0c0"/><path d="M19.432,201.632c.017.324.03.647.038.971-5.979,0-11.958.012-17.937-.017-.635,0-1.818.543-1.47-1l8.179-.011c2.428-1.683,5.166-1.532,7.912-1.338a4.174,4.174,0,0,1,3.277,1.4" transform="translate(0 -6.32)" fill="#efdfc0"/><path d="M26.467,202.6a2.154,2.154,0,0,1,2.046-1.036l4.081.01c2.721-2.207,5.445-1.528,8.172-.01l2.033.021q.513.333.347.673c-.11.228-.222.342-.335.342Z" transform="translate(3.217 -6.315)" fill="#eee0c0"/><path d="M41.04,202.444c0-.339,0-.676-.011-1.015h4.108c-.01.339-.013.676-.011,1.015Z" transform="translate(4.987 -6.161)" fill="#ead7af"/><path d="M17.359,92.728c2.379-1.024,2.03-3.139,2.043-5.109h0c3.965,2.078,7.526-.282,11.234-1.022.7,1.079,2.5,1.7,1.951,3.283-.88,2.54,1.2,2.966,2.526,4.043,1.376-.988.665-3.6,3.239-3.846,1.461-.139,1.43-1.566.76-2.815-1.216-2.27-2.414-2.673-4.7-1.6-1.148.542-1.978.065-2.054-1.174a17.2,17.2,0,0,1,.32-3c.148-.188.3-.377.441-.57,3.393-1.379,6.709-2.886,8.842-5.51-5.2,1.678-6.115,1.41-6.345-2.121-.269-4.133,2.121-5.987,5.963-4.365a26.5,26.5,0,0,0,4.37,1.116c-2.889-.648-5.743-5.395-6.17-10.139a3.956,3.956,0,0,1,1.069-1.913.623.623,0,0,1,1.022,0c.845,3.322,3.514,4.614,6.043,5.877,2.2-1.132-1.355-4.8,2.633-4.871.322-.006-.169-1.363-.766-1.5-2.971-.675-2.849-2.365-1.427-4.5,4.763.233,4.694,6.548,9.456,8.006-.477-3.06-1.917-5.272-2.993-7.55-.719-1.521-1.178-3.172-1.873-4.574-1.957-3.947-.966-6.657,2.6-8.755-2.282-2.107-4.686-1.489-6.976-1.229-.5-1.019.27-1.668.495-2.442,4.813,1.222,9.743,2.031,14.312,4.1v0c6,1.353,11.424,4.284,17.212,6.214-.573,1.375-2.455,1.039-3.1,2.323,4.777,5.583,4.531,8.265-.965,10.822-1.34-.109-2.36-.6-2.531-2.109a3.439,3.439,0,0,1,.39-1.363c.056-3.841-3.679-5.386-4.641-8.564A2.041,2.041,0,0,0,68.523,49.8c-.232,1.478-.126,3.394-2.189,3.442-2.168.052-2.687-1.683-2.763-3.524-.159-3.867-3.508-4.353-6.026-5.746-.831-.46-1.242-.066-1.58.573a1.959,1.959,0,0,0-.158,1.941,5.419,5.419,0,0,0,2.959,2.024c4.439.359,4.984.231,4.881,4-.121,4.444,2.2,4.32,5.212,3.893a5.131,5.131,0,0,1,1.417-.091c.556.681,6.541,3.748,7.91,4.078a2.036,2.036,0,0,1,.813.539,9.035,9.035,0,0,1,1.335,3.8c.461,2.354,1.27,3.866,4.061,2.538,2.028-.963,3.062.353,4.013,1.938a27.124,27.124,0,0,1,2.258,5.653c2.552-3.732,2.552-3.732-1.313-6.351a3.617,3.617,0,0,1,.087-5.967c1.266-.855,3.044-.462,4.16-1.689.684-.905,1.165-1.95,1.935-2.8a1.778,1.778,0,0,1,1.275-.417c3.169,1.514,6.347,3.02,8.02,6.412a5.611,5.611,0,0,1,.339,1.364c.312,2.9-2.233,4.262-3.435,6.351-.5.462.368.923-.145.474-.035-.03.093-.129.3-.369,1.334-1.567,2.631-3.238,4.835-1.2.19.268.384.557.582.814a.844.844,0,0,0,.859.064,8.492,8.492,0,0,1,1.349-.765,2.282,2.282,0,0,1,1.7.114,1.523,1.523,0,0,1,.535,1.021,2.76,2.76,0,0,1-.4,1.1c-.111.155-.231.308-.336.465a2.134,2.134,0,0,0-.382,1.63,4.212,4.212,0,0,1-.44,1.221,9.751,9.751,0,0,1-1.166,1.683c-1.188,1.3-.886,4-3.387,4.008-2.827.006-2.056-2.958-3.542-5.251-.026,5.3-2.217,9.227-3.223,13.812,3.141.269,7.36-1.689,7.218,3.767-.015.56.038.6.232.28,2.7-4.5,4.5,1.065,5.1.778,3.1-1.493,4.476,1.071,6.615,1.808,1.405.483,2.658.793,2.906,2.317.262,1.611-.978,2.407-2.213,3.076a13.618,13.618,0,0,0-2.818,2.17c-3.48,3.285-3.492,3.272-4.769-1.357-.781-2.833-3.508-3.107-7.369-.493,2.11.713,4.64-3.269,5.96.59.841,2.458-1.383,5.64-4.437,6.544-.456-.007-.913-.041-1.35-.072-.012.917-.052.959,1.828,2.71,1.583,1.474,2,3.27.884,4.968-1.506,2.291-2.793.342-4.163-.787,1.578,2.676,4.327,4,5.782,6.49-1.634,3.712-5.385,5.848-6.957,9.773-.712,1.781-.812,2.928.3,3.961,1.82,1.689,1.853,3.538,1.063,5.558-.943,2.412-.065,5.033-1.4,7.288,2.455.745,2.845-2.171,4.741-1.9-.776,2.582-.746,2.643-3.34,3.893-1.089.524-2.584.85-2.032,2.312a2.467,2.467,0,0,0,3.061,1.109c1.751-1.28,4.1.147,5.654-1.685.831-.979,2.154-.694,3.185-.393.9,1.742-1.764,2.23-.581,4.367-.144-.242.142-.159.49-.37,1.611-.977,3.164-1.9,3.042-4.232-.11-2.111,2.693-2.993,2.021-5.6,1.162.775,1.838,1.268,2.554,1.7,4.555,2.73,5.055,4.033,3.332,8.993a2.206,2.206,0,0,1-.887,1.157c-3.824,2.066-3.959,2.145-5.65,4.319-1.621.146-2.516-1.18-3.046-2.2-1.641-3.165-4.45-3.227-7.348-3.27-.662-.01-1.409.017-1.714.783-.4,1,.344,1.616.958,2.137a3.2,3.2,0,0,0,1.777.8c.957.035,1.819-1.014,2.892-.348-1.62,1.549.981,3,.118,4.473-.427.728-1.347,1.613-.532,2.191,3.366,2.388,1.406,5.482,1.409,8.354,0,2.32-.6,4.756,1.143,6.86,1.454,1.756-.653,3.555-.16,5.37-2.156.557-4.191.9-4.077-2.4.057-1.662-.413-3.016-2.052-3.736-2.089-4.459-3.891-8.895-1.838-13.978.711-1.761-.75-3.835.082-5.869-.622.246-1.251.473-1.863.74-.855.373-1.55,1.722-2.609.829-1.023-.862-1.106-1.9-.849-3.494.694-4.3.118-8.515-4.127-11.192-.661-.417-1.909-5.478-1.577-6.057.295-.514.768-.518,1.3-.393a3.028,3.028,0,0,0,1.461.147c1.633-.514-1.522-3.418,1.5-3.2,1.238.09,2.442,1.083,3.738-.1-.862-1.836-2.906-1.657-4.272-2.5-1.588-.976-3.958-1.54-4.364,1.753a1.305,1.305,0,0,1-1.856,1.132,1,1,0,0,1-.7-1.18c.929-4.343-.216-8.6-.6-12.876-.2-2.215-.013-3.689,2.424-4.08,1.858-.3,2.021-1.58,1.713-3.037-.4-1.866-1.447-1.091-2.614-.754-.451.13-1.229-.874-1.871-1.368-.788.713-.348,1.59-.446,2.361-.146,1.142.1,2.677-1.651,2.547-1.665-.126-1.3-1.662-1.414-2.785-1.723-.859-3.2,2.285-4.367.785-1.369-1.751.682-3.318,1.661-4.8.527-.8.124-1.636.232-2.423.23-1.688.68-3.482,2.908-3.467,1.114.008,1.523-.357,1.545-1.4a2.01,2.01,0,0,0-1.729-2.183c-1.6-.292-.544,1.185-.952,1.66-2.027,2.347-3.595,2.292-5.342-.33-1.235-1.851-3.278-3.359-2.251-6.23.782-2.183-2.867-1.613-2.77-3.989,1.181-1.1,3.892.221,4.614-2.418.3-1.089,1.788-.046,1.774.5-.064,2.667,1.959,3.791,3.715,4.577,1.8.8,2.26,2.4,3.484,3.772,2.528-1.055,3.629-2.692,2.475-5.444a2.574,2.574,0,0,1-.315-.959c.09-3.74.364-7.392-3.283-10.088-1.2-.886.084-2.86.407-4.753-2.29-.132-4.45-.485-5.75-2.855-1.207-2.2-3.247-2.113-5.249-.83-.895-1.137-2.02-3.328-2.9-.288-.546,1.894-2.211,2.5-2.958,3.956-.906,1.77-2.375,3.5.815,4.854a3.133,3.133,0,0,1,1.5,4.338,2.1,2.1,0,0,1-1.124.929c-.472.174-1.254-.087-1.174-.572.624-3.82-2.83-4.228-4.856-5.364-2.35-1.316-2.818-2.744-1.517-4.695a3.977,3.977,0,0,0,.91-3.269,4.685,4.685,0,0,1,1.377-5c1.182-1.21.8-2.879-.829-3.182-2.079-.386-4.089-3.749-6.472-.417-.284.4-.958-.157-.986-.659a12.359,12.359,0,0,1,.228-2c.12-1.089-.629-1.556-1.477-1.713-.914-.168-1.824.244-1.824,1.261,0,2.654-.56,4.975-2.622,6.868a2.049,2.049,0,0,0,0,2.817c2.117,2.651.172,6.027,1.846,8.8-2.427-.823-2.172-3.922-4.493-4.625.135-.718.495-2.322-.37-1.811-2.308,1.359-6.032.591-6.885,4.536-.181.833-2.392,1.266-.861,2.886,1.23,1.3,2.609,2.183,4.354.947.425-.3.325-1.558,1.283-.714.305.269.326.919.378,1.4.178,1.7-1.549,2.589-1.806,4.089-.165.959-.477,2.223.9,2.484,1.116.211,1.9-.75,2.261-1.679.532-1.362-.942-2.958.32-4.362,3.2,3.9,3.847,7.822,1.918,11.814-.943-1.544-.312-4.387-3.426-4.048-1.145,1.225.686,2.96-.96,4.456-4.091-2.034-8.6-3.337-13.452-2.631-2.156,2.084-4.318,4.924-6.421,0a1.05,1.05,0,0,1,.186-.815,8.666,8.666,0,0,1-.726.507,10.737,10.737,0,0,1-8.36-1.733c-1.2-.736-.984-1.943-1.021-3.065" transform="translate(2.11 -26.212)" fill="#ead8b0"/><path d="M99.6,119.457c-3.8-.924-5.253-4.871-8.469-6.581-.646-.343-.359-1.193.179-1.737a1.5,1.5,0,0,1,1.829-.37c1.4.668,2.034,2.178,3.178,3.22,1.537-3.2,1.534-3.2-.59-4.565a8.777,8.777,0,0,0-1.653-1.082c-1.054-.366-2.846-.19-2.349-1.864s1.842-2.846,3.787-1.326h0c1.168-.085,2.982.452,3.334-.538.536-1.506.969-3.106,1.43-4.67.09-.306-.4-.915-.763-1.187-.463-.342-.949-.018-1.32.357a1.5,1.5,0,0,0-.3.408c-.539,1.142-.716,3.213-2.574,2.131a4.023,4.023,0,0,1-1.571-4.963c.292-.886,1.027-1.542,1.929-.893,1.155.832,2.231.306,3.387.247,4.715-.242,5.438.72,4.4,5.528a4.719,4.719,0,0,0,.111,1.183c2.584-1.81,3.755-5.322,7.356-5.618.563-.047.818-1.072.5-1.752a1.7,1.7,0,0,0-2.059-1.088c-1.347.395-2.27,2.3-4.034,1.142-.86-1.809,2.784-1.708,1.526-3.643-.873-.467-1.159.31-1.665.67-3.416,2.428-3.4,2.415-4.331-1.934-.091-.425-.573-.766-.879-1.152-1.6.83-1.695,2.6-2.678,3.739a1.024,1.024,0,0,1-1.348.316c-.627-.349-1.082-.824-.428-1.586a3.269,3.269,0,0,0,.838-1.231c.526-2.434-.516-3.353-3-2.949-1.329.215-2.436,1.3-3.964.92-2.314-3.138,1.151-5.538,1.349-8.417.116-1.681,1.184-3.519,1.138-5.533-.036-1.607.164-1.612,2.919-2.447,1.19.637.554,1.79.69,2.709.147.993-.05,2.277,1.29,2.417,1.9.2.606-1.494,1.083-2.138,1.207-1.626,2.506-3.185,3.767-4.77,4.08-3.934,6.375.054,9.117,2.056,5.372,5.364,9.153,11.791,12.436,18.562a8.087,8.087,0,0,1,.939,3.873c3.07,5.8,5.775,11.783,9.178,17.4v0a20.51,20.51,0,0,1,1.442,5.775c-.846,1.834-3.025,2.244-3.432.768-1.244-4.506-5.84-5-8.309-7.929-1.516,1.375-.987,5.779-5.027,3.435h-1.021c-1.741-.3-1.931-2.154-3.062-3.066-.922-1.3-2.922-1.231-3.43-3.349-.553-2.3-3.545-.73-5.127-2.212-.616-.578-1.562,1.386-2.107,2.389-1.08,1.988-3.368,3.479-2.619,6.238-1.148,1.16.079,2.914-1.019,4.087,0,.341,0,.681,0,1.022" transform="translate(10.771 -22.288)" fill="#ecdab5"/><path d="M145.06,177.055c-2.6,1.48-2.831,5.315-6.1,6.133l-2.046-1.024,0,0a8.2,8.2,0,0,1,.017-1.5c.7-3.661.673-3.9-1.036-6.665.07-2.993-1.188-5.779-1.3-8.782-.066-1.782-.174-3.289,1.307-4.5l1.007-.01a20.149,20.149,0,0,0,.079-9.992c-.792-4.04.061-7.406,4.016-9.437,2.639,3.274,2.573,7.467,2.546,11.116a38.278,38.278,0,0,0,.676,7.93c1.151,5.582.759,11.147.825,16.729" transform="translate(16.356 -13.471)" fill="#eddebc"/><path d="M142.3,143.548c.165,2.715-3.545,3.312-3.227,6.465.231,2.282.713,4.614,1.03,6.83a6.873,6.873,0,0,1-1.9,6.134l-2.039-3.066c.262-.227.349-.454.261-.681s-.174-.341-.262-.341c-2.789-1.31-3.808-3.164-1.826-5.94a2.045,2.045,0,0,1,1.245-.476c1.6-2.1.612-3.813-1.091-5.045-1.8-1.3-4.785-1.415-4.216-4.758.52-3.058,1.336-5.951,4.567-7.339.331-.142.443-.478.39-1.131-1.888-.769-2.452.818-3.139,1.981-1.886,3.186-4.365,2.046-6.489.636-2.407-1.6-1.991-3.827.009-5.471,1.588-1.307.852-4.182,3.414-4.658a2.169,2.169,0,0,1,1.228.452c.073.12.151.26.24.393s.19.258.285.386c1.309-1.682,1.18-4.331,3.555-5.3,3.811-.046,2.5,4.416,4.917,5.6,1.372,1.618,1.316,3.976,2.932,5.526.476.458.751,1.925.419,2.287-2.274,2.488-.158,5.031-.305,7.514" transform="translate(15.066 -15.739)" fill="#ebdab5"/><path d="M70.335,57.889c3.874-2.591,4.284-5,1.259-7.8-.7-.646-1.9-.574-2.364-1.669-.58-1.357-.418-2.574,1.18-2.435a35.877,35.877,0,0,0,3.919-.331l6.227,3.028c-.1,3.037,3.24,7.2-2.652,8.4,2.846,2.186,6.385,1.515,9.68,2a3.715,3.715,0,0,1,1.137.855c-.222,2.193-1.876,2.084-3.4,2.041-2.353-.065-2.886,1.274-2.673,3.261.1.968.618,1.827,1.562,1.12,1.835-1.374,2.675.116,3.021,1.2.454,1.42,1.958,2.811.436,4.627a6.645,6.645,0,0,0-1.98,4.985c-3.976-2.452-2.64-7.593-6.035-10.288.1,0-.283-.116-.532.017-4.962,2.632-4.907,2.626-6.308-2.955a17.943,17.943,0,0,1-.437-4.005c-.224-1.138-2.832.109-2.042-2.043" transform="translate(8.377 -25.094)" fill="#e9d5aa"/><path d="M86.994,59.6c-3.106-.059-6.285.7-9.218-1.118a8.137,8.137,0,0,1-2.334-1.875c-.528-.693-.979-1.614-.285-2.29,1.041-1.014,1.236.133,1.658.83.951,1.57,1.625.039,2.336-.336.458-.241,1.443-.787.288-1.3-2.919-1.289-1.148-2.445-.05-3.736a3.993,3.993,0,0,0,.452-1.422l7.149,5.114c.243,1.314,2.518,1.283,2.039,3.078l0-.006c-1.056.768-1.228,2.126-2.038,3.06" transform="translate(9.092 -24.766)" fill="#ebd9b3"/><path d="M138.712,130.05c-.954-.244-2.532.7-2.4-1.52.105-1.816-.581-3.33-2.726-3.575-5.079-3.25-5.793-5.208-4.091-11.236-1.2-1.9-1.065-4.029-1.014-6.14,2.921,3.785,4.626,8.237,6.643,12.491a102.39,102.39,0,0,1,3.593,9.981" transform="translate(15.611 -17.567)" fill="#f0e1c4"/><path d="M87.709,55.991c-.628-1.061-2.217-1.484-2.039-3.078,6.471,2.74,11.708,7.139,16.424,12.236a1.906,1.906,0,0,1-1.815.6,4.586,4.586,0,0,1-1.713-.956,28.566,28.566,0,0,1-2.687-2.678c-1.95-3.073-5.474-4.047-8.17-6.126" transform="translate(10.411 -24.212)" fill="#efe1c3"/><path d="M129.475,109.468c-3.691-2.345-4.208-6.681-6.063-10.12-1.221-2.263-3.6-4.229-3.115-7.282a60.642,60.642,0,0,1,9.178,17.4" transform="translate(14.613 -19.453)" fill="#f0e1c4"/><path d="M109.378,72.957c-.489-.112-1.2-.056-1.434-.362-2.112-2.739-4.866-2.309-7.683-1.694a.7.7,0,0,1-.2-.681c.066-.228.131-.341.2-.341.388-.292.638-.722,1.018-1.022,0-.339,0-.679,0-1.017a2.165,2.165,0,0,1-.46-2.632q.259-.252.519-.5c2.877,2.559,6.208,4.676,8.043,8.251" transform="translate(12.159 -22.778)" fill="#eedfbf"/><path d="M17.574,29.421c-.057.847-.162,1.69-1.258,1.753-1.34.077-1.595-.851-1.664-1.912l2.923.159" transform="translate(1.781 -27.086)" fill="#dcbe75"/><path d="M98.415,63.855l2.129-.031.988.989-.077.089c-1.38.717-2.705,1.275-3.039-1.046" transform="translate(11.962 -22.885)" fill="#eedfbf"/><path d="M74.85,147.556c-.412-.647-1.051-1-1.691-.576-1.487.994-2.547,2.262-4.889,1.818-1.968-.374-2.337-2.147-3.941-3.021-1,2.536-1.442,4.4,1.917,4.956a16.877,16.877,0,0,1,3.3,1.3c3.826,1.529,3.827,1.526,6.328-1.632.662.536.381,1.175.267,1.847-.313,1.848.221,2.765,2.1,1.523,1.3-.862,2.191-2.827,4.265-1.024.2.17,1.972-1.474,3.219-2.434l2.8,4.684c-3.43.874-7.489-.615-9.948,3.106-.315.477-.913.458-1.065-.3-.132-.667-.326-1.576-1.132-1.153-.858.45-.572,1.531-.182,2.24.861,1.565,3.326,1.868,3.351,4.142-.3.171-.7.531-.837.45-4.31-2.485-4.291-2.482-7.224,1.663a16.752,16.752,0,0,1-1.738,1.825h0c-2.779-1.579-5.522-3.169-7.578-5.748-.559-.7-1.23-1.071-.533-2a1.169,1.169,0,0,0-.518-2c-1.166-.467-1.368.539-1.687,1.307-.2.472-.4.959-1.125.775-2.183-2.179-1.277-4.029,1.367-5.668-2.153-1.322-5.852,2.636-5.87-2.259-2.451-2.059-.68-4.11.7-5.95-2.435-.874-2.323,1.8-3.818,1.531a2.785,2.785,0,0,1-1.373-.562c-.6-.569.059-.859.451-1.083,1.847-1.062,1.373-2.44.574-3.879h0c-.685-.081-1.571-.187-1.714-.861-.43-2.03,3.406-6.365,5.3-6.144a2.134,2.134,0,0,1,1.807,1.569c.395,1.107.636,2.267,1,3.384a.883.883,0,0,0,1.22.557c.675-.25,1.209-.717.828-1.525a12.1,12.1,0,0,0-1.087-1.711c-1.218-1.747-1.314-3.842-1.626-5.82-.14-.89-.194-2.123,1.965-1.4,2.612.875,5.688-1.687,5.885-3.985-2.98-1.32.555-4.7-1.951-6.23-.247-.15-.129-.9-.207-1.624,1.748-.1,2.918,2.952,4.865.771.33-.369,1.065.67.912,1.362a6.118,6.118,0,0,1-.874,1.8c-.774,1.249-.149,1.921.978,2.244.911.26,1.917-.118,1.9-1.089-.036-2.185,1.033-4.087,1.258-6.168.059-.55-.685-1.279.33-1.533a1.55,1.55,0,0,1,1.653.933c.718,1.187,1.336,2.408.627,3.824-.663,1.323-.083,2.292.884,3.128,1.1.954,1.88,1.141,2.615-.58a4.961,4.961,0,0,1,5.877-2.753c1.591.538,2.676,2.657,1.808,4.1-.612,1.015-1.034,2.461-3.03,2.811.237-1.994,1.953-4.53-1.768-5.16.895,3.781-2.491,4.18-4.493,5.777.394,1.748,2.586.456,3.337,2.3-1.294,1.788-2.618,3.915-4.25,5.773-1.334,1.52-1.073,2.574.16,3.906,3.535,3.818,3.506,3.845.308,8.479" transform="translate(5.905 -16.667)" fill="#ead8b0"/><path d="M132.117,114.089c.05,4.224.98,8.127,4.091,11.234-1.429,2.508-1.351,5.935-4.435,7.589-.838-1.418.627-2.348.348-3.5.083-.112.181-.214.253-.333-.369.573.122-.236-.253.333-.859.138-1.8.327-1.875,1.36-.12,1.718-.248,3.157-2.392,3.727-.947.251-1.219,1.958-.675,2.691.975,1.31,2.677,1.814,4.234,2.232.975.261,1.53-.554,1.664-1.48a3.653,3.653,0,0,1,1.4-2.558,3.281,3.281,0,0,1,5.4,1.738c.238,1.339-.92,1.706-1.89,1.908-1.033.216-2.2-.575-2.87,1.155-.779,2.025-1.763,3.962-1.84,6.172-.028.809.637.926,1.337,1.155,4.58,1.506,6.051,3.75,5.516,8.313-.1.868-.611,1.828-1.522,1.787-1.348-.062-.25-1.35-.685-1.939a7.2,7.2,0,0,0-.7-.716h0c-1.875,2.414-.321,4.255,1.022,6.131-1.586.594-3.145,1.286-4.767,1.757-1.908.554-3.629-.608-5.419-.967-3.176-.637.69-2.715-.575-3.988-.82-.825-.013-2.355-1.069-3.184-2.712.642-2.2,2.787-2.1,4.851-1.914-2.8-3.538-5.164-3.229-8.868.229-2.732-.372-5.777-.62-8.682-.192-2.253-1.716-.4-2.651-.333a7.944,7.944,0,0,1-5.108-7.153c-2.061-.216-3.865.213-5.109,2.043a2.819,2.819,0,0,1-.628-2.892,5.393,5.393,0,0,1,2.544-2.737c2.594-.957,4.459.4,6.11,1.84-.315-.357.526.334.388.185-3.338-3.624-5.345-7.32-1.262-11.723.34-2.815-1.165-5.783-3.255-6.4A3.5,3.5,0,0,1,109.008,113c1.176-1.478,2.573-.83,3.953-.357,2.6.888,2.806-.776,2.815-2.648,1.641.037,3.032-.184,3.067-2.335.021-1.29-.21-2.954,1.674-3.121,1.542-.137,1.543,2.106,1.81,2.19,2.077.654,3.491,2.623,5.705,2.838,1.6.155,1.833.671,1.339,2.282-.681,2.223-.446,2.295,2.743,2.239" transform="translate(12.984 -17.937)" fill="#ead7af"/><path d="M137.581,204.9l-18.393-.02c-.03-6.419-.321-6.729-6.831-7.1.885-2.6.458-5.677,3.081-7.589,1.663,1.688-.477,3.33.4,5.3,1.64-1.345,3.7,1.438,5.418-.958,1.956-2.73-.936-4.2-1.6-6.13.995-1.027,2.476-1.18,2.8-.407.948,2.252,2.333,1.346,3.855,1.108,1.571-.246,1.973-.933,1.7-2.407-.463-2.473-.575-4.746,1-7.157,1.166-1.78-1.595-4.063-.062-6.675,1.515,3.363,3.1,6.52,4.338,9.807.509,1.351.692,3.191-.452,4.37-1.932,1.992-.52,3.284.785,5.123,1.357-1.076,3.007-1.858,2.842-3.784-.237-2.772,1.392-4.354,3.153-5.96,2.191,1.965,1.6,3.979.538,6.366-.741,1.669-2.156,4.252,1.5,4.874q-.015,4.583-.031,9.166C140.629,204.193,138.672,203.7,137.581,204.9Z" transform="translate(13.656 -9.633)" fill="#ead8b0"/><path d="M28.351,90.563c.919,2.673,2.327,3.518,4.676,1.344.314-.29.958-.223,1.449-.322.349,2,1.383,4.3-2.29,4.2.794,1.374,2.621.508,2.765,1.987-.57,1.126-1.5.858-2.29.961-.959.126-2.379-.339-2.683.788-.362,1.34.369,2.943-1.065,4.07-.22.173.114.674.516.606,4.58-.787,2.52,2.749,2.984,4.61a1.1,1.1,0,0,1-.421,1.334c-1.142.726-1.574-3.744-3.137-.418-.286.608-1,.791-1.516-.071-1.917-3.185-2.612-1.486-3.162.805-.117.489-.264,1-1.391,1.039.018-2.383-.576-4.647-2.96-6.072-.981-.587-.462-1.828-.124-2.8a1.088,1.088,0,0,0-.691-1.589,1.512,1.512,0,0,0-1.744.675c-.518.667-.981,1.377-1.513,2.031-2.107,2.59-2.465,2.517-4.769-.913h0c4.275-.461,5.23-1.978,3.923-6.413-.406-1.379.464-2.193,1.1-3.154.9-1.366,3.145-1.594,3.148-3.717.158-.809.93-2.148,1.309-1.459,1.932,3.512,5.214,1.883,7.883,2.481Z" transform="translate(1.335 -19.96)" fill="#ebd9b3"/><path d="M115.779,120.253c-1.439,4.309-1.257,8.234,2.427,11.514.394.35.054,1.524.054,3.21-2.377-2.832-4.446-4.752-7.588-4.505-1.251.111-1.375,1.348-2.041,2.043l0,3.065c-2.046-.044-2.183,3.153-4.881,2.613-1.29-.258-2.131-.314-2.7-1.5s-.73-2.278.542-3.131a14.254,14.254,0,0,0,3.289-3.812c-1.207-1.654-2.46-.1-3.639-.079-.781.011-1.627.878-2.325.011a2.062,2.062,0,0,1,.114-2.8c.96-.987,1.4-1.921.584-3.126-2.022-2.981.188-5.517,1.36-7.681,2.356-4.357,4.115-4.4,7.915-1.152,1.155.987,2.08,2.3,3.824,2.268.307.375.682.681,1.022,1.022h0a5.43,5.43,0,0,0,2.042,2.043" transform="translate(11.962 -16.954)" fill="#ebdab4"/><path d="M41.091,178.106c-.031-1.432-1.126-2.981.121-4.266,1.224-1.261-.137-2.942.837-4.152,1.531-.569,2.516.951,3.737.9,1.654-.062,3.161-.64,1.432-2.7.247-.975.417-2.341,1.825-1.122,2.573,2.227,4.178,5.36,7.641,6.849,2.246.967,2.2,4.964.526,6.938-.218.257-.388.642-.665.748-2.191.842-4.242-.98-6.78.092-2.439,1.031-3.577-1.425-3.981-3.883a19.787,19.787,0,0,0-1.7-4.161c-1.56,1.22-.636,2.886-.989,4.254-.341,1.32-1.247.667-2,.5" transform="translate(4.937 -10.432)" fill="#e7d2a5"/><path d="M63.811,203.635H57.679c-1.312-3.608-1.312-3.608-6.094-3.285-1.326-1.868-.184-5.335-3.729-5.766.018-3.155-1.461-6.282-.617-9.379.491-1.8,2.733-1.318,4.085-2.067.91,1.437-.218,1.657-.727,2.161-.775.767-.925,1.664.368,1.621,1.689-.056,2.017,1.063,2.355,2.14.331,1.051.172,2.261-1.36,1.883-2.153-.533-2.552.122-1.65,1.965.517,1.058,1.118,2.074,1.6,2.965,1.627.341,1.83-.963,2.469-1.641,2.973-3.158,2.961-3.169,6.327-.308,2.622-1.617.923-4.761,2.3-6.832.667,3.38,2.11,6.865-2.2,9.036-1.162.584-2.362,1.727-1.848,3.292a2.868,2.868,0,0,0,3.257,1.862c2.2-.25,1.363,1.373,1.593,2.353" transform="translate(5.71 -8.384)" fill="#ead7af"/><path d="M31.429,163.035c-4.117.444-4.429.246-2.96-3.069a7.858,7.858,0,0,0,.312-4.8,33.5,33.5,0,0,1-.416-5.416h0c1.706-.323,3.171-1.853,5.108-1.022,2.461-.436,2.739-1.96,2.206-4.092a5.2,5.2,0,0,1,1.125-5.188c1.308-1.262,1.523.163,1.777,1.106.488,3.313-1.465,6.4-.827,9.766.354,1.868-2.8,2.028-2.341,4.426.316,1.66.765,3.738-.919,5.223-.211-.027-.422-.055-.63-.075-3.724-1.217-1.109,2.5-2.434,3.14" transform="translate(3.363 -13.754)" fill="#ead7af"/><path d="M115.571,152.962c2.477,1.89,4.072,3.24,2.448,6.176-.968,1.753-.667,1.727,1.9,1.469,1.589-.16,2.642,1.882,4.562,1.688.495-.049.509,1.494.351,2.291a26.455,26.455,0,0,1-1,3.389c-.453,1.327-1.792,1.6-2.147.495-.837-2.6-3.774-3.186-4.515-5.482-.781-.3-1.078.12-1.424.5-2.526,2.757-2.626,2.894-5.634.8-.894-.624-3.379-.224-2.585-2.124,1.079-2.58,2.352-.116,3.48.369,2.455,1.052,4.7-.393,4.589-3.342a43.72,43.72,0,0,1-.028-6.223" transform="translate(13.051 -12.051)" fill="#ead8b0"/><path d="M79.9,146.389c-.782-3.051-2.309-5.609-3.625-8.253-.388-.778-.821-1.589-.179-2.342.885-1.037,1.753-.544,2.569.229.745.7,1.516.888,1.743-.4.509-2.889,2.1-1.664,3.144-.67a17.989,17.989,0,0,1,2.536,3.761,1.43,1.43,0,0,1-.314,1.793c-1.862,2.277-1.836,2.3-.24,5.217-2.07.01-4.034-.241-5.634.662" transform="translate(9.209 -14.377)" fill="#ead8b0"/><path d="M95.737,170.854c1.1.077,1.21,1.08,1.7,1.7,2.005,2.529,2.936,2.663,5.42.345,1.142-1.064,1.784-1.225,2.516.276,1.249,2.559.841,4.5-1.729,5.17-1.871.486-2.8,1.628-3.893,2.871a2.678,2.678,0,0,1-2.605,1.211c-1.29-.289-1.067-1.451-1.341-2.393-.593-2.03.2-4.265-1.227-6.241-.45-.625-.043-2.277,1.155-2.944" transform="translate(11.474 -9.877)" fill="#ead8b0"/><path d="M71.729,163.159a2.636,2.636,0,0,0,.157.99c2.508,3.921,2.514,3.916-.537,6.885.613,1.707,2.7-.286,3.365,1.351.247.615.784,1.214.358,1.874-.239.37-.922.879-1.137.775-3.728-1.808-4.146,1.871-5.642,3.518-.513.564-.553,1.659-1.6,1.221a1.451,1.451,0,0,1-.609-2.15,4.455,4.455,0,0,1,1.059-1.7c2.924-2.108,2.541-4.808,1.52-7.662-1.362-2.045-1.355-3.814,1.028-5.1Z" transform="translate(8.004 -10.812)" fill="#e6d1a3"/><path d="M70.1,163.38a8.468,8.468,0,0,0-1.027,5.1c-1.015.183-2.526-.5-2.41,1.558.082,1.47-1.071,1.487-2.086,1.4-.943-.083-1.728-.75-1.42-1.653.825-2.415-.961-4.505-.732-6.747,1.695-1.454,4.2.249,5.635-1.7A3.511,3.511,0,0,1,70.1,163.38" transform="translate(7.585 -11.034)" fill="#ead8b0"/><path d="M40.252,202.294l-8.172.01c-2.442-2.289-1.035-4.956-.456-7.356.323-1.336,2.936-.978,4.175.689,1.591,2.14,2.978,4.431,4.453,6.657" transform="translate(3.731 -7.047)" fill="#ead7af"/><path d="M70.469,78.429l2.979,4.382c1.538.306,1.967-.86,2.761-1.393,1.738-1.168,3.116-1.69,3.026,1.36-.04,1.355,1.154,1.981,2.116,2.636.768.524,1.342,1.07.79,2.028a1.991,1.991,0,0,1-2.658.535c-1.609-2.748-3.925-3.5-6.9-3.09-.264.036-.738-.671-.941-1.113a8.6,8.6,0,0,0-3.83-4.392C68.762,78.23,69.659,78.5,70.469,78.429Z" transform="translate(8.243 -21.11)" fill="#ead8b0"/><path d="M136.406,158.672c-1.126,2.627-.351,5.2.358,7.714.548,1.948,1.311,3.807-.365,5.564l-5.9-5.021c4.161-2.1,4.721-5.081,2.289-8.572,1.549-.748,2.482.545,3.623.315" transform="translate(15.861 -11.424)" fill="#ead7af"/><path d="M49.96,144.721c-.437,2.427-.976,4.679-1.172,6.984-.169,1.991-2.165,2.87-4.248,2.37-1.825-.44-1.688-1.854-1.595-3.2.033-.463.342-1.277.581-1.3,2.419-.212,3.119-1.7,3.512-3.857.154-.841,1.535-1.077,2.923-1" transform="translate(5.214 -13.055)" fill="#e4cd9b"/><path d="M33.934,157.766c.31.818-.851,2.4,1.478,2.137,2.632-.3,5.282-.228,7.419-2.815.725,3.421-2.051,4.689-2.608,6.893-.058.231-.773.534-.8.5-1.667-2.132-5.547-.319-6.514-3.651-.756-1.387-1.286-2.7,1.021-3.065Z" transform="translate(3.922 -11.55)" fill="#ead7af"/><path d="M138.908,192.842l-2.546,1.523c-.467-1.957-.944-3.79-1.312-5.644-.085-.43.1-1.271.345-1.351,3.566-1.174,1.863-3.63,1.471-5.768l2.041-2.043c1,4.428.259,8.856,0,13.284" transform="translate(16.412 -8.819)" fill="#eddebc"/><path d="M11.412,102.166a4.08,4.08,0,0,1-1.469-.271c-.785-.5-2.258.239-2.451-1.146C7.3,99.4,8.538,99.3,9.473,98.938c1.43-.548,1.7-1.442.692-2.71C9.52,95.42,9.038,94.436,10,93.554c.564-.519,1.235-.1,1.843.191A1.714,1.714,0,0,1,12.9,96.151c-.645,1.962.495,4.371-1.487,6.015Z" transform="translate(0.908 -19.302)" fill="#ebd9b3"/><path d="M104.629,166.938c3.568-1.406,5.03-1.221,6.525.781a2.418,2.418,0,0,1-.175,3.564c-.367.356-1.268.576-1.275.285-.076-3.38-5.213-1.13-5.075-4.63" transform="translate(12.717 -10.464)" fill="#ead8b0"/><path d="M87.03,152.545c2.161-.563,3.2,1.436,5.468.56,1.709-.662,1.033,2.236.53,4.365-1.957-2.027-5.109-1.512-6-4.925" transform="translate(10.578 -12.114)" fill="#ead8b0"/><path d="M71.092,163.548c.048-1.151-.155-2.344.582-3.59,2.8.943,3.95,3.318,5.682,5.988-2.7-.167-4.365-1.628-6.264-2.4" transform="translate(8.641 -11.201)" fill="#ead8b0"/><path d="M127.182,161.166c-1.2.141-2.017-.186-1.763-1.237.294-1.221.625-2.864,2.4-2.532,1.128.211,3.072.1,2.808,2.033-.289,2.124-2.612.806-3.45,1.736" transform="translate(15.238 -11.518)" fill="#ead7af"/><path d="M34.208,157.972c-1.2.737-.986,1.941-1.021,3.065H32.167a.619.619,0,0,1-1.022,0,9.826,9.826,0,0,1-.635-1.383c-.421-1.449-1.077-3.412.426-4.1,1.595-.735,2.483,1.15,3.272,2.423" transform="translate(3.646 -11.757)" fill="#ebd9b3"/><path d="M70.3,78.983c-.716-1.7-1.941-3.406,0-5.109.129,1.437.412,2.587,2.323,2.592a1.915,1.915,0,0,1,2.073,2.248c-.43,1.581-1.789,1.007-2.923.547A7.368,7.368,0,0,0,70.3,78.983Z" transform="translate(8.417 -21.664)" fill="#ead8b0"/><path d="M33.4,147.986c-1.648.616-3.088,2.264-5.106,1.022.454-.877.853-1.788,1.377-2.621a2.216,2.216,0,0,1,2.456-1.251c1.552.391,1.152,1.761,1.273,2.85" transform="translate(3.438 -13.011)" fill="#ebd9b3"/><path d="M41.388,194.381a12.592,12.592,0,0,0,5.258.262c-.867,1.77-1.994,3.215-3.893,3-.948-.105-.777-1.692-1.365-3.266" transform="translate(5.03 -7.017)" fill="#ead7af"/><path d="M111.167,106.672c2.006.036,2.323,1.763,3.063,3.065-2.426.908-2.76.575-3.063-3.065" transform="translate(13.511 -17.678)" fill="#ead7af"/><path d="M48.547,201.782l-2.046-.013c.239-1.187-.546-3.3,1.03-3.291s.782,2.114,1.016,3.3" transform="translate(5.652 -6.519)" fill="#ead7af"/><path d="M88.543,142.576c.865.228.987.837.8,1.535a1.2,1.2,0,0,1-1.522.9c-.51-.091-.985-.356-.887-.97a1.512,1.512,0,0,1,1.612-1.461" transform="translate(10.564 -13.314)" fill="#ead8b0"/><path d="M40.729,198.317c-.117.56-.443.967-1.026.859-.191-.035-.4-.541-.4-.833s.186-.8.379-.846c.581-.136.915.265,1.051.82" transform="translate(4.776 -6.642)" fill="#ead7af"/><path d="M98.416,113.493c.141-1.412-.47-3.011,1.019-4.087-.141,1.412.471,3.011-1.019,4.087" transform="translate(11.961 -17.345)" fill="#ead8b0"/><path d="M52.189,201.589l-2.043,0c.149-.742.131-1.746,1.247-1.549.667.117.725.92.8,1.544" transform="translate(6.095 -6.332)" fill="#ead7af"/><path d="M45.38,192.655c-.287.112-.644.377-.842.289s-.244-.53-.357-.818c.287-.111.643-.377.842-.288s.244.528.357.816" transform="translate(5.37 -7.328)" fill="#ead7af"/><path d="M96.691,167.954c-.092.238-.252.653-.412,1.068-.168-.232-.456-.453-.479-.7a1.575,1.575,0,0,1,.891-1.521Z" transform="translate(11.643 -10.369)" fill="#ead8b0"/><path d="M106.891,164.338c-.036-.416.144-.627.528-.555a.776.776,0,0,1,.4.275c.284.341.228.712-.176.767-.223.031-.5-.312-.75-.487" transform="translate(12.991 -10.738)" fill="#ead8b0"/><path d="M114.119,119.648a1.867,1.867,0,0,1-2.042-2.043,3.522,3.522,0,0,1,2.042,2.043" transform="translate(13.622 -16.349)" fill="#ead7af"/><path d="M116.742,138.162c-.1.509-.22,1.082-.923.79a.907.907,0,0,1-.384-.8c.111-.232.534-.329.836-.455.513-.216.674-.049.471.47" transform="translate(14.028 -13.919)" fill="#ead7af"/><path d="M46.624,75.7c-.225.44-.912.962-1,.735C45.143,75.269,46.278,75.965,46.624,75.7Z" transform="translate(5.531 -21.442)" fill="#ead8b0"/><path d="M112.187,117.716q-.511-.511-1.022-1.022.51.511,1.022,1.022" transform="translate(13.511 -16.46)" fill="#ead7af"/><path d="M72.05,144.026l-.233.423-.19-.19Z" transform="translate(8.706 -13.138)" fill="#ead8b0"/><path d="M79.336,144.937l-.233.423-.19-.19Z" transform="translate(9.591 -13.027)" fill="#ead8b0"/><path d="M134.845,154.959q1.04.51,0,1.022c0-.341,0-.681,0-1.022" transform="translate(16.389 -11.809)" fill="#ead7af"/><path d="M31.021,160.425h1.022l-1.021,1.022c0-.341,0-.681,0-1.022" transform="translate(3.77 -11.144)" fill="#ead7af"/><path d="M30.111,163.27q.508-.511,1.021-1.022-.513.511-1.021,1.022" transform="translate(3.66 -10.923)" fill="#ead7af"/><path d="M136.711,177.733c-.076.141-.182.412-.225.4-.336-.074-.255-.231.23-.4l0,0" transform="translate(16.564 -9.041)" fill="#eddebc"/><path d="M15.837,203.686l-8.172,0a37.233,37.233,0,0,1,2.122-5.151c1.247-2.113.74-3.911-.469-5.676-.969-1.413-2.043-2.642-1.172-4.6.709-1.6-.6-2.028-1.827-2.286-.552-.117-1.7,1.558-1.569-.4.068-1.025.673-3.148,1.735-2.442,1.945,1.294,3.129-.8,4.963-.4-.153,2.269,1.868,4.116.158,6.745-.947,1.454,1.122,2.491,2.617,2.88,1.671.436,3.3-.311,4.75-.627,2.082,2.253,1.578,4.547.943,6.855.681,2.419-3.794-3.589-1.8,1.109.925,2.176-1.422,2.71-2.282,3.989" transform="translate(0.576 -8.439)" fill="#ead7af"/><path d="M21.385,165.772c1.575-4.007,1.039-7.538-2.133-10.649-.646-.634-.736-1.837-1.077-2.78-.287-.792-.67-1.737.334-2.171,1.069-.462,1.438.556,1.733,1.309.375.957.666,2.2,1.963,1.152,1.959-1.582,2.491-.273,3.243,1.233C28.138,159.247,27.63,160.818,21.385,165.772Z" transform="translate(2.171 -12.405)" fill="#ead7af"/><path d="M6.335,165.234a7.3,7.3,0,0,1,4.7-1.653,14.916,14.916,0,0,0,2.372,5.407c1.225,1.482,1.289,3.09-.419,4.437-.654.516-1.184,1.461-2.091,1.244-1.163-.279-1.319-1.4-1.373-2.445-.131-2.572.83-5.536-3.187-6.989" transform="translate(0.77 -10.761)" fill="#ead7af"/><path d="M14.688,202.342c-.111-.316-.384-.686-.3-.939a23.229,23.229,0,0,0,.293-4.882c-.216-.894-1.081-1.957.192-2.635.962-.513,1.482.48,2.019,1.051.677.72,1.255,1.533,1.875,2.306q.506.007,1.012.009c.8,1.55,1.6,3.1,2.409,4.668-1.577.759-3.061.295-4.481.486q-1.511-.03-3.019-.064" transform="translate(1.725 -7.095)" fill="#e6d0a0"/><path d="M40.52,57.054V59.1a3.458,3.458,0,0,0-1.03,2.741c-.064,1.458.233,3.392-1.9,3.4a3.1,3.1,0,0,1-3.018-2.95c0-2.585-3.051-4.278-1.745-7.2-1.8.87-2.63,2.494-.995,3.45,2.966,1.735,2.181,3.955,1.41,6.119-1.624,4.551-2.9,9-.22,13.613a2,2,0,0,1-.67,2.287c-3.589.037-3.626-3.7-4.244-5.376A9.277,9.277,0,0,0,21.921,69.3c.7-3.8,3.857-5.406,6.407-7.908-1.748-.49-3.086-.929-4.456-1.231-1.145-.252-1.484-1.275-2.2-1.934-1.606-1.467,1.563-3.2-.262-4.27s-1.1-2.639-1.316-4.051c.124-.168.25-.335.37-.507a13.985,13.985,0,0,1,2.1-1.358c.2-.063.4-.121.6-.179,1.447,1.857,5.3.688,4.892,5.1,1.743-2.463.372-6.31,4.465-5.593,0-.476,0-.952-.013-1.429-.035-1.124.081-2.176,1.624-1.688,1.24.393,1.81.8,1.107,2.532-1,2.469-.637,2.8,2.319,3.879,1.194.437.809,1.228.926,1.962.267,1.671-.864,3.984,2.043,4.438" transform="translate(2.442 -25.28)" fill="#ebd8b2"/><path d="M20.885,49.837c-2.3.409-4.5,1.584-7.316.711,1.222-1.134,2.956-1.5,3.446-3.168.705-2.4,2.6-2.611,4.814-2.723,2.836-.144,2.443,1.4,2.12,3.137h0c-.8,1.014-2.15,1.2-3.064,2.043Z" transform="translate(1.649 -25.216)" fill="#ebd8b2"/><path d="M39.329,55.929H38.307a3.959,3.959,0,0,1,.01-.5c.109-.778-.181-1.769.932-2.045a.921.921,0,0,1,.784.4,1.608,1.608,0,0,1-.7,2.147" transform="translate(4.656 -24.156)" fill="#ebd8b2"/><path d="M18.333,68.185c-.077.543-.3,1.03-.91.995-.408-.022-.554-.424-.324-.786a11.7,11.7,0,0,1,.892-1.1q.17.447.342.895" transform="translate(2.065 -22.464)" fill="#ebd9b3"/><path d="M28.7,187.074a8.917,8.917,0,0,0,.655-1.822c-2.685-1.633-1.747-3.654-.982-5.917.728-2.153-.024-2.6-2.492-2.128a4.447,4.447,0,0,0-2.329.648c-1.676,1.34-2.521.5-2.287-1.305.453-3.513-.911-5.739-4.8-6.522,2.946-2.955,5.982-1.362,8.646-1.874.543,1.762-1.632,2.425-.907,4.313,1.639.174,4.067-.723,4.944,2.023a14.764,14.764,0,0,1,1.135,1.558c1.334,2.578-.753,5.24.709,7.818A2.406,2.406,0,0,1,28.7,187.074Z" transform="translate(2.002 -10.205)" fill="#ebd9b3"/><path d="M32.013,185.508a7.86,7.86,0,0,0-.277-1.475c-.434-1.125-1.013-2.251.551-2.955a1.046,1.046,0,0,1,.889.206c1.259,1.086.345,2.134-.163,3.136A5.421,5.421,0,0,1,32.013,185.508Z" transform="translate(3.8 -8.639)" fill="#ebd9b3"/><path d="M31.978,185.024c-.077.14-.184.412-.229.4C31.412,185.351,31.492,185.193,31.978,185.024Z" transform="translate(3.834 -8.155)" fill="#ebd9b3"/><path d="M21.069,82.63c-3.517-1.288-6.67-1.246-9.4,1.9a3.116,3.116,0,0,1-4.61-.186c-.853-1.148-1.939-.811-3.412-1.28,2.163-1.273,3.01-3.678,5.634-1.983,1.146.74,1.661-.806,2.241-1.538,2.411-3.045,5.74-1.935,8.536-1.418C21.992,78.479,20.773,81.063,21.069,82.63Z" transform="translate(0.443 -21.224)" fill="#e9d6ac"/><path d="M11.2,62.941a6.184,6.184,0,0,1-.3,1.417c-.255.547-.676,1.3-1.373.664a1.044,1.044,0,0,1,.307-1.652A5.084,5.084,0,0,1,11.2,62.941Z" transform="translate(1.122 -22.993)" fill="#ebd9b3"/><path d="M134.847,201.653c.754-1.86,2.319-2.132,4.052-2.077-.277,2.789-2.458,1.86-4.052,2.077" transform="translate(16.39 -6.387)" fill="#eee0c0"/><path d="M31.3,79.478a4.748,4.748,0,0,0-.847-3.35C28.018,73.3,28.6,69.883,29.7,67.049c.712-1.838.768-3.84,1.719-5.525.551-.974.973-1.816.022-2.674-1.032-.931-1.715.77-2.7.447-.1-6.847.62-7.466,5.782-4.963-.476,1.091-2.014.156-2.609,1.611,1.319,1.017,4.017,1.473,2.32,4.417-.468.811.95,2.383,2.527,3.121,1.769-1.331-.839-5.1,2.706-5.464-.064,1.9-.154,3.848,2.13,4.639,2.67.924.942,2.66.728,4.064,1.124.847,2.356.344,3.486.544.919.164,1.587.541,1.642,1.578a1.911,1.911,0,0,1-.892,1.731c-.889.594-1.511.238-1.973-.7-1.475-3-4.813-1.119-7.06-2.6-1.138-.749-2.592,2.18-2.092,5.129.284,1.667,1.017,2.364,1.934.358.871-1.91,2.078.708,2.946-.35.617-.753.982-1.846,2.738-1.736-.581,1.314,1.471,3.31-1.646,3.737-.477.065-1.239.258-1.334.561-1.417,4.506-5.522,3.664-8.778,4.5" transform="translate(3.492 -24.203)" fill="#e9d6ac"/><path d="M72.634,58.513c.054,1.309,2.52.2,2.042,2.043-2.621.108-5.775-1.236-7.124,2.936-.285-2.257-1.311-4.049-.535-6.156.215-.585-.877-.786-1.533-.867-.487.906-.969,1.925-2.259,1.22-.852-.467-1.4-1.127-2.664-.533-1.954.916-2.952-.767-2.152-2.065,1.351-2.193-.415-3.913-.161-5.863a1.411,1.411,0,0,0-1.883-1.669c-1.091.32-.671,1.313-.482,2.134.063.278-.126.613-.2.943-1.321.437-1.27-.629-1.434-1.371-.276-1.24-.781-1.892-2.048-.976s-1.77.3-1.987-.962c-.615-3.574-.008-4.575,4.161-6.808.816.442.523,1.1.358,1.752-.268,1.046.082,1.96,1.152,1.175,2.232-1.637,3.121-.539,3.4,1.493.264,1.911,2.636,3.168,1.492,5.551-.3.631.646,1.514,1.644,1.417.874-.086.954-.885.968-1.54a9.032,9.032,0,0,0-.216-2.511c-.327-1.215.037-2.049,1.173-2.384,1.162-.343,2.541-.479,2.991,1a12.609,12.609,0,0,0,5.416,7.477c1.688,1.108-.627,2.251-2.157,2.522a1.866,1.866,0,0,0,2.042,2.043" transform="translate(6.078 -25.718)" fill="#e9d6ac"/><path d="M99.323,64.091c.722,1.2,1.929.981,3.041,1.046q.008,1.522.018,3.046h-2.034c-.19-.021-.379-.043-.565-.057a1.643,1.643,0,0,0-.828.7,2.129,2.129,0,0,1-.76.779.842.842,0,0,1-.913-.4c-.193-1.429-.673-2.222-2.255-1.238-1.381.858-1.612,2.989-4.084,3.325.329-2.038.742-3.676,2.162-5.045,1.174-1.132,2.5-2.258,2.135-4.2,1.323-.559,2.1.518,3.062,1.027l1.022,1.022" transform="translate(11.053 -23.121)" fill="#ecdab5"/><path d="M73.34,93.2c.858,1.842.892,2.938.154,4.282-1.9-1.2-1.582-2.386-.154-4.282" transform="translate(8.771 -19.315)" fill="#e9d6ac"/><path d="M106.661,145.462c-.131.264-.239.9-.543,1.011-.751.283-1.143-.265-1.182-.968a.939.939,0,0,1,.742-1.032c.584-.116.822.3.982.989" transform="translate(12.754 -13.086)" fill="#e9d6ac"/><path d="M85.674,58.712c-.028-1.492-.033-2.966,2.038-3.06a7.056,7.056,0,0,1-1.025,3.066q-.506-.005-1.013-.007" transform="translate(10.412 -23.879)" fill="#efe1c3"/><path d="M63.313,76.876a4.67,4.67,0,0,1-1.294,1.065c-.673.257-.79-.36-.585-.836a1.681,1.681,0,0,1,1.494-1.137c.389-.011.543.277.386.907" transform="translate(7.456 -21.409)" fill="#e9d6ac"/><path d="M83.346,75.706a1.156,1.156,0,0,1-1.182.721.667.667,0,0,1-.543-1.055,1.1,1.1,0,0,1,1.34-.428.516.516,0,0,1,.385.763" transform="translate(9.906 -21.542)" fill="#e9d5aa"/><path d="M56.422,52.049a.934.934,0,0,1-1.021.91,2.828,2.828,0,0,1-.908-.316,12.419,12.419,0,0,1,1.115-.913c.366-.239.666-.089.814.32" transform="translate(6.623 -24.369)" fill="#e9d6ac"/><path d="M97.836,63.162a6.857,6.857,0,0,1-3.062-1.027q0-.508,0-1.016a3.091,3.091,0,0,1,3.064,2.043" transform="translate(11.519 -23.214)" fill="#eedfbf"/><path d="M26.466,90.418c.155-.565-.2-1.512.968-1.314a.533.533,0,0,1,.347.345c.2,1.165-.746.814-1.312.969Z" transform="translate(3.217 -19.816)" fill="#ebd9b3"/><path d="M98.64,68.451c-.207,1.293-.424,2.571-2.045,1.015a13.437,13.437,0,0,1,1.021-1.017h0l.513-.389.513.391" transform="translate(11.74 -22.371)" fill="#ecdab5"/><path d="M99.453,67.511,98.432,68.53h0c-.366-1.046.1-1.265,1.021-1.022Z" transform="translate(11.948 -22.449)" fill="#ecdab5"/><path d="M97.616,68.407q-.511.508-1.021,1.017c0-.339,0-.679,0-1.017Z" transform="translate(11.74 -22.328)" fill="#eedfbf"/><path d="M58.443,40.113l-.431.43c.028-.085.029-.2.087-.249a1.62,1.62,0,0,1,.341-.182h0" transform="translate(7.051 -25.767)" fill="#e9d6ac"/><path d="M101.255,68.407l-1.019,1.022,1.019-1.022" transform="translate(12.183 -22.328)" fill="#ecdab5"/><path d="M100.293,69.318V70.34q-1.041-.51,0-1.022" transform="translate(12.127 -22.218)" fill="#ecdab5"/><path d="M78.379,110.362l.233-.423.19.19Z" transform="translate(9.526 -17.28)" fill="#e9d6ac"/><path d="M93.672,80.9a.9.9,0,0,1,.735,1.089c-.149.606-.28,1.358-1.136,1.36-.1,0-.289-.58-.285-.889.009-.6-.214-1.355.686-1.56" transform="translate(11.3 -20.81)" fill="#ead8b0"/><path d="M94.82,101.206c-.077.141-.183.412-.229.4-.341-.073-.26-.231.227-.4Z" transform="translate(11.472 -18.342)" fill="#ead8b0"/><path d="M70.5,123.439c-.044.124-.085.353-.133.354a1.272,1.272,0,0,1-.428-.131c.044-.124.085-.353.133-.354a1.3,1.3,0,0,1,.428.131" transform="translate(8.5 -15.656)" fill="#e9d6ac"/><path d="M50.145,138.6c.077-.141.183-.413.229-.4.341.073.26.231-.225.4Z" transform="translate(6.095 -13.846)" fill="#e9d6ac"/><path d="M121.2,123.9c1.473,2.009,3.194,3.14,3.1,5.4a2.065,2.065,0,0,1-1.076,2.068c-1.048.442-1.479-.427-1.857-1.122-.967-1.774-1.674-3.6-.17-6.342" transform="translate(14.626 -15.584)" fill="#ebdab5"/><path d="M123.9,119.705c-1.032-.671-1.9-1.171-2.694-1.768-1.252-.939-.978-2.043-.146-3.081.631-.79,1.31-1.6,2.54-1.129,1.4.541,1.683,1.421,1.083,2.8a20.3,20.3,0,0,0-.784,3.174" transform="translate(14.628 -16.837)" fill="#ebdab5"/><path d="M107.524,130.627c.317-1.044-.714-3.436,2.041-2.043a3.52,3.52,0,0,1-2.041,2.043" transform="translate(13.069 -15.066)" fill="#e9d6ac"/><path d="M129.419,127c-.033-.325-.085-.65-.094-.977-.016-.564-.7-1.446.193-1.6.84-.147.9.819.736,1.447C130.139,126.286,129.708,126.623,129.419,127Z" transform="translate(15.686 -15.523)" fill="#ebdab5"/><path d="M124.232,122.871c-.283-.123-.721-.184-.8-.387s.2-.547.319-.83c.283.122.723.182.8.384s-.2.55-.319.833" transform="translate(15 -15.857)" fill="#ebdab5"/><path d="M125.885,124.272c.2.218.535.425.554.657.033.409-.292.541-.665.323a.8.8,0,0,1-.314-.367c-.153-.378.008-.59.425-.613" transform="translate(15.242 -15.538)" fill="#ebdab5"/><path d="M112.076,131.315c.077-.141.184-.413.229-.4C112.644,130.986,112.563,131.144,112.076,131.315Z" transform="translate(13.622 -14.731)" fill="#e9d6ac"/><path d="M133.977,149.539c-.141-.077-.412-.184-.4-.229.075-.339.233-.257.4.229Z" transform="translate(16.235 -12.52)" fill="#ebdab5"/><path d="M107.083,123.237c1.335-.01,1.587.919,1.563,1.947-.008.393-.407,1.132-.548,1.113a2.126,2.126,0,0,1-2.015-2.244c-.007-.538.47-.781,1-.815" transform="translate(12.894 -15.664)" fill="#e9d6ac"/><path d="M109.756,120.524c.064.388-.14.646-.514.51-.231-.084-.385-.44-.514-.7-.029-.061.251-.358.268-.348.266.16.51.353.759.539" transform="translate(13.215 -16.06)" fill="#e9d6ac"/><path d="M37.443,140.382c-.077.141-.184.412-.229.4C36.876,140.711,36.957,140.551,37.443,140.382Z" transform="translate(4.498 -13.58)" fill="#e9d6ac"/><path d="M20.093,49.5a3.085,3.085,0,0,1,3.064-2.043c-.1,2.07-1.579,2.058-3.064,2.043" transform="translate(2.442 -24.875)" fill="#e9d6ac"/><path d="M30.72,69.413c.23-.509.385-1.508,1.42-1.461.855.039.968.843.786,1.5-.215.79-.536,1.689-1.655,1.369-.477-.137-.732-.621-.551-1.411" transform="translate(3.727 -22.384)" fill="#ebd8b2"/><path d="M63.893,54.862c-.44-.225-.961-.912-.735-1C64.319,53.382,63.623,54.515,63.893,54.862Z" transform="translate(7.67 -24.111)" fill="#ead8b0"/><path d="M68.407,54.787l-.423-.233.19-.19Z" transform="translate(8.263 -24.035)" fill="#ead8b0"/><path d="M99.546,67.665l-1.021,1.022H97.5c.1-.895-.307-2.119.777-2.5,1.134-.4,1.07.771,1.266,1.476" transform="translate(11.851 -22.608)" fill="#eedfbf"/></g></g><path d="M37.373,169.166c.059-.188.124-.377.191-.564a22.744,22.744,0,0,1,1.478-3.1c2.052-3.69,4.077-7.4,6.152-11.088-.008-.017-.021-.029-.029-.047a3.215,3.215,0,0,1-.129-1.142,1.169,1.169,0,0,1-.312-.6c-.176-1.106-.266-2.227-.413-3.34a89.911,89.911,0,0,1-.739-10.388c-.51-15.234,7.286-29.124,16.566-40.672,2.96-3.687,5.935-7.361,8.805-11.117,2.1-2.421,9.164-13.281,12.155-12.537a1.039,1.039,0,0,1,.517-.336,1.053,1.053,0,0,1,.808.1c.893.593.483,1.413-.049,2.093a12,12,0,0,1-1.226,4.042c-1.9,4.245-3.819,8.487-5.326,12.892-1.9,5.388-3.555,10.892-6.075,16.036a71.127,71.127,0,0,1-5.263,8.72c-2.614,3.737-5.242,7.465-7.824,11.227-3.07,4.273-6.259,8.55-7.883,13.622a28.333,28.333,0,0,0-1.349,7.542c2.36-4.059,4.819-8.057,7.509-11.911a178.624,178.624,0,0,1,22.7-26c6.5-6.369,12.852-12.885,19.313-19.294q4.875-4.8,9.84-9.5a4.207,4.207,0,0,1-.794-2.891c.3-3.322,2.669-5.954,4.762-8.372a133.546,133.546,0,0,1,9.436-9.64c1.6-1.505,3.212-3,4.927-4.372a10.8,10.8,0,0,1,1.456-1.058c-5.161-8.523-6.978-10.465-6.6-21.576a76.057,76.057,0,0,1,2.947-20.422c1.128-3.892,2.138-7.915,4.2-11.437,1.848-3.517,6.595-6.018,9.268-1.905,2.177,3.881,1.412,8.846.936,13.091-1.024,6.8-3.34,13.313-4.59,20.063-.207,1.342-.465,2.7-.7,4.059.062-.036.124-.072.184-.109.739-.406,2.06-1.323,2.949-1.132A34.311,34.311,0,0,1,136,34.771a109.263,109.263,0,0,1,4.555-13.362,40.744,40.744,0,0,1,5.9-10.466c1.96-2,4.624-5.674,7.75-5.212,1.983.406,2.808,2.572,2.931,4.389.194,5.688-1.926,11.227-3.989,16.442A86.884,86.884,0,0,1,145.4,39.92a7.886,7.886,0,0,1,2.227,1.173c1.008-1.3,2.042-2.586,3.137-3.82,4.749-5.265,10.712-11.546,17.421-14.139,4.648-1.729,12.04.09,11.24,6.216-.812,4.274-4.441,7.315-7.575,10.036-4.675,3.92-10.267,6.494-15.591,9.441a14.041,14.041,0,0,1,2.657,3.973c1.116-.637,2.16-1.251,3.088-1.757,6.706-3.821,20.132-12.187,27.747-8.4,3.764,2.1,3.593,7.287,1.387,10.49-2.8,4.538-7.568,7.386-12.38,9.405a52.211,52.211,0,0,1-16.532,3.4,7.109,7.109,0,0,1-.449,2.13c-.192.486-.354,1-.548,1.493,4.665.22,9.327.422,13.993.679,6.729.46,16.569.763,19.769,7.908a9.364,9.364,0,0,1,.574,3.155c0,6.863-8.593,11.006-14.663,12.68-9.279,2.641-17.985-1.155-25.441-6.545a93.183,93.183,0,0,1-10.613-8.416c-3.173-3.069-6.032-6.44-9.015-9.69-.358-.409-.7-.827-1.051-1.245-.459.49-1.115.907-1.526,1.351-2.14,1.98-4.345,3.878-6.591,5.731-.568.571-1.087,1.09-1.516,1.544A59.51,59.51,0,0,1,118.01,82.5a18.253,18.253,0,0,1-3.324,1.992,22.844,22.844,0,0,1-2.47,1.332,3.948,3.948,0,0,1-3.994-.474q-.93.878-1.858,1.763-5.018,4.791-9.938,9.68c-8.781,9-17.92,17.644-26.585,26.751q-2.631,2.848-5.123,5.821c.37-.219.739-.439,1.114-.65A113.065,113.065,0,0,1,78.1,122.695c12.733-5.35,26.067-9.253,38.424-15.49,6.55-3.063,12.869-7.744,20.293-8.253.99-.031,2.486-.333,2.869.878.21.737-.323,1.387-.771,1.932-.717.856-1.5,1.663-2.233,2.5-2.151,2.463-4.2,5.012-6.355,7.475-3.826,4.261-7.576,8.673-12.106,12.209C105.883,133.28,91.1,135.894,75.964,133.9c-2.077-.182-4.149-.377-6.229-.519-2.558-.145-5.235.175-7.724-.48a1.321,1.321,0,0,1-.114-.085q-3.3,4.162-6.312,8.543c-4.56,6.747-8.437,13.915-12.413,21.012-1.076,1.927-2.159,3.849-3.147,5.823-.492.831-.554,2.534-1.892,2.255a1.059,1.059,0,0,1-.758-1.284m28.374-56.843c4.574-7.452,6.544-16.066,9.75-24.12-4.032,6.665-9.024,12.654-13.752,18.818-6.389,8.413-10.075,18.551-12.07,28.852,5.075-8.029,11.047-15.482,16.073-23.55m-2.276-10.97A136.97,136.97,0,0,0,74.2,86.27c1.531-2.566,2.857-5.25,4.409-7.8-3.457,3.653-6.3,7.827-9.412,11.767-2.822,3.673-5.807,7.215-8.643,10.876-6.1,7.9-11.413,16.7-13.758,26.483a57.409,57.409,0,0,0-.83,17.319c2.436-16.793,6.265-30.374,17.506-43.558m49.92-18.485a13.454,13.454,0,0,0,1.348-.67,12.478,12.478,0,0,0,1.231-.775c.369-.267.728-.551,1.09-.825l.043-.031h0c.369-.278.737-.556,1.108-.834.777-.583,1.554-1.168,2.31-1.784h0l.015-.012.025-.02a.117.117,0,0,1-.019.013c.011-.007.021-.016.033-.024h0l.007-.006-.006.006c.513-.415,1.018-.837,1.515-1.271v0q.414-.362.813-.738l.241-.23c.183-.174.365-.347.545-.522l-.007.006c.361-.343.713-.7,1.068-1.048.1-.1.21-.2.316-.3l.078-.077.081-.074.013-.012.006,0c.183-.169.368-.336.551-.506.35-.322.69-.652,1.034-.977.327-.312.667-.608,1-.911.432-.394.861-.788,1.3-1.173.212-.185.432-.362.638-.554s.435-.4.649-.607l-.006.007c.012-.012.024-.024.037-.035l-.013.012c.406-.38.82-.748,1.231-1.123.224-.205.443-.418.672-.617l.013-.011,0,0,0,0h0l0,0c.058-.044.119-.084.182-.122.1-.059.21-.114.308-.182a.736.736,0,0,0,.105-.092l.04-.043a.834.834,0,0,0,.064-.091.4.4,0,0,0,.026-.043.725.725,0,0,0,.049-.118c0-.011.009-.021.011-.033a.612.612,0,0,0,.022-.163.631.631,0,0,0-.015-.129c0-.022-.013-.045-.02-.068a.806.806,0,0,0-.087-.2c-.007-.01-.016-.019-.022-.029a.631.631,0,0,0-.157-.151l-.011-.009a.827.827,0,0,0-.178-.081.365.365,0,0,0-.05-.01.667.667,0,0,0-.14-.024c-.024,0-.046,0-.07,0a.729.729,0,0,0-.121.015c-.025.007-.049.017-.073.026a.518.518,0,0,0-.139.068c-.079.058-.163.108-.247.16a2.517,2.517,0,0,0-.286.216c-.214.17-.416.354-.62.537.029-.058.052-.114.08-.172-.423.4-.846.8-1.279,1.193-3.471,3.231-7.155,6.237-10.927,9.119q-3.97,2.988-7.819,6.129c-.158.11-.311.232-.462.357a5.916,5.916,0,0,0,.869,0,.39.39,0,0,0,.151.117.745.745,0,0,0,.5-.01c.229-.059.455-.129.681-.2s.445-.144.659-.233h0m17.921-19.617c-.11-.274-.238-.543-.358-.806A119.969,119.969,0,0,0,116.116,74.88c-1.318,1.394-3.644,3.329-5.193,5.287,4.75-3.84,9.829-7.392,14.4-11.427,1.521-1.329,3.032-2.723,4.509-4.11.431-.356.936-1.011,1.478-1.378m-9.981,1.47c-3.49,3.433-12.159,11.3-13.161,15.713,1.888-2.964,4.574-5.133,7.024-7.593a125.646,125.646,0,0,1,13.778-11.579c-.034-.012-.066-.021-.1-.037a.57.57,0,0,0,.08-.292.59.59,0,0,0-.037-.2.636.636,0,0,0-.117-.2c-.063-.079-.119-.163-.176-.246a3.612,3.612,0,0,0-.249-.325l.03.035-.139-.167-.1-.126a.86.86,0,0,0-.146-.154.616.616,0,0,0-.353-.131.519.519,0,0,0-.059,0c-.015-.033-.029-.065-.043-.1a1.092,1.092,0,0,0-.118.084,66.215,66.215,0,0,0-6.111,5.312M133.7,40.813c-.694.257-1.317,1.073-2.055,1.053a22.646,22.646,0,0,0-.1,6.038c.047-.022.093-.045.137-.07-.05.024-.062.029-.073.036s-.031.017-.047.024c1.59-1.285,2.46-4.505,3.144-7.619-.349.149-.673.36-1,.537m11.763,1.408a13.613,13.613,0,0,1-1.27-.533q-.781,1.146-1.562,2.289a40.642,40.642,0,0,0-4.233,7.776,14.832,14.832,0,0,0,3.891-3.674c1.386-1.738,2.706-3.528,4.047-5.3a4.783,4.783,0,0,0-.873-.555m8.925,7.665a40.991,40.991,0,0,0-8.964,6.72c3.476,1.134,7.817-.712,11.629-2.771a13.089,13.089,0,0,0-2.665-3.949m5.356,17.61a10.1,10.1,0,0,0,.373-1.457q-.665.025-1.327.044c-2.255,0-4.516-.112-6.771.011a6.347,6.347,0,0,0-3.276,1.033c2.087,1.973,7.379,2.061,10.221,2.32.261-.649.562-1.286.779-1.951m-6.766,15.515c5.618,4.155,11.542,8.518,18.659,9.5,6.6.887,13.51-1.446,18.738-5.447,3.4-2.748,4.363-7.688.791-10.708-4.875-3.79-11.506-3.653-17.394-4.09-6.663-.435-13.38-.38-20.012-1.193-2.156-.381-4.524-.723-6.25-2.168-1.835-1.692-.58-3.633,1.447-4.273,3.19-1.194,6.694-.508,10.022-.658A70.13,70.13,0,0,0,170.9,62.693c5.911-1.234,11.837-3.6,16.226-7.871,4.679-4.34,5.441-11.874-2.868-10.975-12.171,1.438-21.312,10.818-32.632,14.591-2.442.662-5.423,1.2-7.662-.284a1.821,1.821,0,0,1-.6-2.236,14.275,14.275,0,0,1,2.9-2.974c4.35-3.736,9.529-6.278,14.565-8.935,5.149-2.788,10.2-6,14.065-10.457,6.246-6.947-.588-10.942-7.355-7.9C160.2,29.6,154.452,35.967,149.28,42.391c-2.955,3.629-5.344,7.865-9.1,10.753-1.51,1.238-4.381,1.3-4.015-1.3,1.651-5.164,5.106-9.489,8.064-13.96,3.365-5.014,6.647-10.472,8.557-16.278a40.633,40.633,0,0,0,2.255-9.808c.14-3.1-.686-5.572-3.775-2.757a27.247,27.247,0,0,0-6.093,7.535,94.809,94.809,0,0,0-8.456,24.271c-.7,2.687-1.2,5.6-2.935,7.845-1.683,2.177-4.31,1.632-4.456-1.257a42.945,42.945,0,0,1,.9-10.023,129.959,129.959,0,0,1,2.975-13.16c1.537-6.291,3.543-13.491,1.928-19.913-.933-2.949-3.422-2.729-5.187-.638-1.725,2.047-2.582,4.633-3.443,7.126a81.086,81.086,0,0,0-4.408,24.257c0,.65-.009,1.305-.017,1.96a29.054,29.054,0,0,0,.885,9.326c1.18,3.617,3.485,6.651,5.377,9.9v.006a.872.872,0,0,0,.207.354c.108.191.206.386.312.579.018.008.036.012.055.021.052.026.1.05.151.079l.2.28c.036.049.071.1.105.151.119.168.238.334.359.5.206.289.415.576.629.862q.131.175.269.347c.169.223.34.445.508.67.293.391.585.783.884,1.169.2.262.406.52.6.784s.414.548.636.812l.045.05c.145.169.292.339.446.5,1.128,1.41,2.233,2.836,3.413,4.2,4.913,5.481,9.738,11.127,15.82,15.362m-23.906,20.2c-4.331,1.963-8.452,4.371-12.738,6.43-4.132,2.06-8.393,3.844-12.689,5.53-11.285,4.437-22.948,8.043-33.715,13.691,4.861-1.17,9.627-2.707,14.442-4.045,6.226-1.829,12.347-3.545,18.39-5.992a99.106,99.106,0,0,0,12.116-6.382c5.619-3.153,11.019-6.67,16.442-10.138-.756.285-1.512.571-2.248.906M114.789,123.8a47.991,47.991,0,0,0,8.527-7.482c4.21-4.368,8.028-9.086,11.988-13.675-4.219,1.87-7.833,4.837-11.82,7.134-5.791,3.467-11.542,7.057-17.63,9.982a120.4,120.4,0,0,1-15.845,5.6c-7.009,2-13.961,4.227-21.059,5.888,4.647.188,9.257.88,13.9,1.124a52.328,52.328,0,0,0,31.939-8.567" transform="translate(4.537 0)" fill="#fff"/></g></g></g></svg>