<svg xmlns="http://www.w3.org/2000/svg" width="273.004" height="295.725" viewBox="0 0 273.004 295.725"><g transform="translate(0)"><path d="M100.163,19.257c-1.661,7.5-5.5,14.2-8.373,21.266A67.4,67.4,0,0,1,80.3,59.1a39.152,39.152,0,0,1-5.472,5.465,19.778,19.778,0,0,1-4.061,2.471,28.088,28.088,0,0,1-.577,2.789,78.247,78.247,0,0,1-2.071,8.143,111.024,111.024,0,0,1-5.487,14.371c-1.855,3.517-5.321,9.135-9.561,9.729A4.258,4.258,0,0,1,52.43,102a10.937,10.937,0,0,0-.934,1.481l-.036.068c-.05.174-.1.349-.15.522l-.009-.005-.078-.054h0c-5.318,10.271-9.926,20.935-16.277,30.639-4.17,6.7-8.819,13.151-13.45,19.555.472-.481.937-.967,1.405-1.449q3.452-3.6,7.029-7.079C35.663,140.063,41.482,134.7,47.44,129.3c5.661-5.138,11.614-9.94,17.6-14.692,1.507-1.191,3.032-2.358,4.606-3.459.759-.533,1.532-1.045,2.325-1.527a2.386,2.386,0,0,1,1.416-.462c2.75.734-.585,4.426-1.391,5.8q-2.47,3.547-4.872,7.137c-5.437,7.77-10.6,16.058-18.176,21.947a85.611,85.611,0,0,1-11.863,7.15c-5.635,2.788-11.392,5.966-17.5,7.742a4.065,4.065,0,0,1-1.791.44c-3.639,5.086-7.322,10.14-11.274,14.99-1.437,1.807-2.853,3.587-4.345,5.357-.452.562-1.005,1.45-1.815.91-1.083-.979.576-1.971,1.131-2.844.186-.221.365-.448.548-.672,0-.014,0-.028,0-.042a26.3,26.3,0,0,0,.63-5.13c.242-7.141.234-14.3.937-21.415a66.936,66.936,0,0,1,3.87-16.666,80.824,80.824,0,0,1,14.446-22.749c2.6-2.875,5.386-5.586,8.23-8.225,1.292-1.193,2.608-2.379,3.945-3.525a3.433,3.433,0,0,1,1.519-.959.955.955,0,0,1,1.05.694,1.671,1.671,0,0,1-.35,1.282c-.5.819-.991,1.646-1.453,2.491-3.26,6.242-5.362,13.006-7.769,19.605-2.588,7.135-4.8,14.4-7.291,21.564-2.562,7.15-6.639,13.593-9.925,20.4-1.023,2.225-2.068,4.435-3.033,6.687,4.39-5.539,8.464-11.312,12.569-17.064,5.573-7.674,11.091-15.372,15.982-23.508,4.214-6.693,7.474-13.908,11.039-20.95,1.18-2.227,2.146-4.6,3.4-6.791q.279-.97.549-1.94c-1.521-1.6-1.974-4.467-2.158-6.548-.278-9.592,1.877-19.04,3.82-28.38-.59-.244-1.17-.5-1.724-.785C38.642,59.323,27.634,50.436,22.734,38c-2.163-5.485-5.009-13.412-2.263-19.051a4.92,4.92,0,0,1,.552-.684c3.3-3.377,7.519,4.394,9.216,6.893,2,3.281,3.923,6.612,5.818,9.957C38.5,39.4,40.943,43.68,43.5,47.892a4.842,4.842,0,0,1,.623-.364c.481-.179,1-.573,1.512-.756q-.982-1.63-1.92-3.286c-3.836-6.625-6.055-13.974-8.19-21.3-1.271-4.579-2.951-9.511-1.43-14.227a10.207,10.207,0,0,1,4.979-6.088A4.668,4.668,0,0,1,45.56,4.155,29.2,29.2,0,0,1,47.806,12.2c.935,5.655,1.378,11.378,2.36,17.023.823,4.546,1.81,9.066,3.02,13.526a10.929,10.929,0,0,1,2.295-.524h0c-1.786-6.267-3.495-12.6-3.693-19.14A33.5,33.5,0,0,1,52.84,11.574C54.325,6.667,59.991-5.9,65.007,3.253c2.554,5.462,1.853,11.8,1.877,17.669-.128,5.157-.228,10.179-.615,15.349-.138,1.8-.313,3.6-.506,5.4a1.334,1.334,0,0,1,.85-.136q.235-1.357.452-2.715a.859.859,0,0,1,.238-.477.787.787,0,0,1,.1-.083c.539-2.868,1.158-5.721,1.583-8.608C69.6,25.014,70.423,20.4,71.2,15.792c.987-4.845,1.452-10.36,5.074-14.064,5.3-4.567,6.943,4.934,6.828,8.624A72.107,72.107,0,0,1,81.958,21.8c-1.114,7.48-3.538,14.617-5.912,21.765a3.588,3.588,0,0,1,1.25.419,1.658,1.658,0,0,1,.4.242c1.225-2.675,2.385-5.412,3.447-8.136,2.056-5.362,3.95-10.789,6.319-16.024,2-4.345,3.842-8.879,6.84-12.648,2.849-3.529,6.369-2.512,6.781,2a28.894,28.894,0,0,1-.919,9.842M71.9,111.927l.037-.059c.05-.083.1-.166.149-.249-.195.126-.387.256-.58.386a.9.9,0,0,1,.394-.078m-.649.252c-15.841,11.568-30.223,25-44.15,38.787,8.389-6.167,16.852-12.237,24.931-18.812,3.062-2.424,5.847-5.165,8.661-7.864a71.546,71.546,0,0,0,10.559-12.112M25.782,154.754c1.711-.772,3.39-1.614,5.079-2.434,18.039-8.693,21.8-12.231,33.083-28.7-12.1,12.246-26.511,21.8-40.272,32.043.709-.288,1.412-.594,2.11-.908m-2.97-41.989c-6.366,7.429-11.91,15.837-14.9,25.212-2.853,9.2-3.109,18.873-3.323,28.441,1.686-5.858,3.66-11.608,5.261-17.513a171.326,171.326,0,0,1,6.791-19.948C19.8,120.9,24.854,113.8,29.1,106.306c-2.162,2.086-4.3,4.2-6.288,6.458m-13.8,49.361c2.281-4.506,4.888-8.846,6.95-13.466,2.629-5.6,4.235-11.574,6.226-17.407,2.986-8.564,5.8-17.209,9.327-25.571-2.939,5.1-6.062,10.095-9.015,15.187a76.491,76.491,0,0,0-5.1,10.97,178.583,178.583,0,0,0-6.6,20.174c-1.662,5.927-3.733,11.674-5.269,17.658,1.155-2.561,2.283-4.943,3.483-7.546M61.183,91.281a115.893,115.893,0,0,0,6.072-16.6c.564-2.272,1.064-4.559,1.567-6.844-.366.133-.734.262-1.105.381-.178.059-.358.115-.537.173-.042.323-.194.638-.267.954A154.975,154.975,0,0,1,57.656,94.15a30.772,30.772,0,0,1-2.6,5.158c2.738-2.023,4.569-5.051,6.125-8.027m.86-22.083q-.549,2.035-1.095,4.071c-1.07,3.8-2.356,7.532-3.736,11.23-1.776,4.812-3.17,9.875-4.575,14.894,1.824-1.754,2.671-4.364,3.691-6.644,1.922-4.274,3.884-8.542,5.387-12.99,1.365-3.533,2.458-7.143,3.481-10.783-.07.017-.138.04-.207.058a5.056,5.056,0,0,1-2.948.163m-4.2-1.247c-.673,2.633-1.395,5.256-1.93,7.924-1.142,5.452-2.453,10.869-3.5,16.34-.184,1.056-.36,2.114-.49,3.178.8-2.827,1.629-5.644,2.567-8.43,1.264-3.75,2.729-7.418,3.878-11.211q1.01-3.483,1.972-6.98-1.249-.407-2.5-.822m-5.158,3.575c-.813,4.132-1.615,8.282-2.159,12.476a63.046,63.046,0,0,0-.507,10.606c.02.259.051.548.095.854.34-3.23,1.266-6.777,1.471-8.039,1.515-6.676,2.794-13.408,4.575-20.02-.8-.258-1.631-.527-2.453-.821-.377,1.64-.707,3.292-1.022,4.943M45.487,48.82a8.542,8.542,0,0,0-1.055.59c1.147,1.861,2.317,3.707,3.525,5.53a56.7,56.7,0,0,0,3.409,4.613c.735.744,1.419,1.743,2.471,2.031.775-1.494-1.512-4.023-2.271-5.374-1.672-2.649-3.377-5.279-5.022-7.948a9.2,9.2,0,0,1-1.056.558m9.547-4.735c-.415.042-.931.267-1.384.311.638,2.239,1.328,4.463,2.092,6.662,1.008,2.719,1.625,5.653,3.1,8.168A49.982,49.982,0,0,0,56.332,45.19l-.36-1.261c-.306.071-.631.082-.938.155m11.248-.8a.924.924,0,0,1-.669-.274c-.328,2.928-.692,5.852-1.023,8.779q.933-4.234,1.712-8.5l-.02,0M64.745,58l0,0L64.74,58h.005m-.005,0h0M76.033,45.362a1.251,1.251,0,0,1-.5-.237c-1.183,3.589-2.327,7.188-3.263,10.842,1.546-2.358,2.2-5.152,3.479-7.649.406-.819.806-1.652,1.2-2.49a5.342,5.342,0,0,0-.915-.466m6.121-7.038c-1.481,3.705-3.124,7.342-4.895,10.917-1.077,2.167-1.8,4.791-3.041,6.938A13.739,13.739,0,0,1,72.5,58.55a1.2,1.2,0,0,1-2.1-.523,4.8,4.8,0,0,1,.013-1.718,52.566,52.566,0,0,1,2.06-7.465c1.562-4.856,3.3-9.747,4.763-14.663a97.254,97.254,0,0,0,4.054-21.776A19.728,19.728,0,0,0,80.414,4.5a5.03,5.03,0,0,0-1.2-2.143c-2.27-.261-3.771,3.705-4.44,5.478a68.617,68.617,0,0,0-1.852,8.391c-.778,4.586-1.611,9.348-2.226,13.994-.746,4.7-1.874,9.347-2.475,14.076-.42,2.717-1.021,5.4-1.52,8.1-.173.977-.333,1.935-.494,2.887q-.217.632-.485,1.243a11.044,11.044,0,0,1-.515.983l.008-.009-.063.1c-.036.041-.072.082-.109.121h0c-.012.014-.025.028-.037.041l.012-.012L65,57.761h0c-.07.07-.142.138-.22.2-.013.008-.025.018-.038.028L64.742,58h0L64.734,58l-.014.011.011-.008c-.075.049-.15.1-.227.14s-.133.066-.2.095a2.725,2.725,0,0,1-.263.078h-.017l-.012,0h.008l-.026,0-.068.012h-.128c-.045,0-.087-.008-.13-.012l-.1-.025-.1-.04c-.041-.021-.082-.041-.119-.063-.02-.013-.04-.026-.058-.041l-.034-.034c-.025-.029-.05-.059-.074-.09l-.026-.045c-.012-.018-.024-.038-.034-.057-.042-.09-.079-.179-.115-.273-.068-.207-.126-.416-.177-.63q-.087-.441-.134-.888v-.011h0v0h0v-.014c-.057-.909-.061-1.82-.063-2.731.551-5.045,1.233-10.077,1.7-15.129.483-5.427.636-10.895.764-16.348.032-4.949.425-9.971-.62-14.842-.5-1.945-1.205-4.414-3.2-5.277-1.449-.063-2.3,1.478-3.078,2.491a27.491,27.491,0,0,0-4.689,14.343,58.879,58.879,0,0,0,1.2,13.535c1.355,6.167,3.342,12.087,4.841,18.065a42,42,0,0,1,.793,5.406,22.092,22.092,0,0,1,.2,4.407,1.5,1.5,0,0,1-2.163,1.116,5.159,5.159,0,0,1-1.863-2.566c-.572-1.379-1.043-2.8-1.516-4.211a154.311,154.311,0,0,1-6.055-22.105C47.4,24.8,47.063,17.148,45.53,9.681c-.584-2.088-.972-4.717-2.688-6.187-1.834-1.023-3.969.227-5.182,1.661a10.289,10.289,0,0,0-2.4,6.993A36.121,36.121,0,0,0,37.026,21c1.043,3.605,2.1,7.21,3.344,10.751C43.6,41.6,49.947,49.929,55.189,58.73c1.851,3.638-.921,6.4-4.02,3.189a52.821,52.821,0,0,1-6.236-8.369c-4.144-6.524-7.968-13.243-11.784-19.961-2-3.168-7.139-13.418-10.3-14.4a.9.9,0,0,0-.487.2l.094-.063c-1.133,1.105-1.179,2.724-1.309,4.266-.116,4.922,1.569,9.66,3.4,14.16,4.3,10.555,13.176,18.352,22.944,23.9,4.165,2.563,8.709,3.944,13.316,5.42l0-.007.022.014h0l.04.024a1.966,1.966,0,0,0,.506.231,2.088,2.088,0,0,0,.362.169,1.035,1.035,0,0,0,.723-.005l.008,0h0l.025,0v0a1.82,1.82,0,0,0,.489.109,27.252,27.252,0,0,0,8.628-3A29.571,29.571,0,0,0,78.8,58.136,66.822,66.822,0,0,0,90.582,38.845c3.037-7.25,6.938-14.223,8.3-22.052a30.1,30.1,0,0,0,.555-4.6,9.431,9.431,0,0,0-.748-4.647C94.607,2.967,83.575,35.014,82.154,38.324" transform="matrix(0.978, 0.208, -0.208, 0.978, 44.092, 0)" fill="#2d2d2d"/><path d="M6.794,29.343a40.087,40.087,0,0,1,13.89-3.618,107.657,107.657,0,0,1,13.793-.677c9.716.391,19.514.821,29,3.13,4.088,1.006,8.138,2.171,12.213,3.232,12.765,3.615,25.821,6.107,38.736,9.294,10.239,2.5,19.9,6.734,29.614,10.734a177.611,177.611,0,0,0,18.549,6.248c-1.476-3.5-4.509-6.1-7.131-8.754A156.393,156.393,0,0,0,135.9,33.056c-11.15-7.01-24.025-10.55-36.329-14.971C91.417,15.228,83.258,12.1,76.193,7.026c-2.7-1.628-3.766-4.073-.518-5.778a19.807,19.807,0,0,1,6.552-1.2c3.246-.128,6.5.014,9.747.116,2.719.117,5.441.214,8.161.311,5.937.21,11.875.419,17.8.863,9.7.748,18.326,3.7,25.251,10.772,1.354,1.394,2.625,2.863,3.838,4.38,1.517-.049,3.032-.13,4.547-.228,7.106-.529,14.184-2.23,21.339-1.525a43.5,43.5,0,0,1,21.2,8.1,31.972,31.972,0,0,1,7.377,8.411c2.8,4.57,5.439,9.267,7.941,14.009,2.526,5.2,4.608,10.963,3.427,16.808a14.641,14.641,0,0,0,1.374.534c9.53-.855,19.015-2.328,28.538-3.23.647-.046,1.293-.11,1.943-.122a1,1,0,0,1-.081,2c-11.579.939-23.11,2.915-34.706,3.7-1.569,2.05-3.575,3.783-5.054,5.909-6.841,9.927-15.231,19.339-26.258,24.638-5.722,2.691-12.049,3.551-18.207,4.7-8.656,1.845-17.493,1.863-26.3,2.166h.057c-.859.018-2.322.058-3.946-.008-.6-.024-1.226-.064-1.849-.125-3.237,1.643-6.512,3.21-9.841,4.659-6.231,2.706-12.8,4.5-19.229,6.64-6.723,2.2-13.393,4.653-20.3,6.23a5.7,5.7,0,0,1-1.34.175,1.733,1.733,0,0,1-.828-.231,1.346,1.346,0,0,1-.1-2.014,65.541,65.541,0,0,1,7.828-7.1,124.015,124.015,0,0,1,17.1-11.184c6.779-3.645,13.811-6.569,20.793-9.854,8.4-3.964,16.843-7.84,25.53-11.135,6.7-2.7,13.662-4.649,20.386-7.224q.646-.34,1.3-.678a.867.867,0,0,1,.589-.067,73.327,73.327,0,0,0,7.123-3.3,14.779,14.779,0,0,0,3.07-1.984c.487-.4,1.008-.865,1.529-1.346a162.373,162.373,0,0,1-17.7-3.6.963.963,0,0,1-.431.088,1.109,1.109,0,0,1-.811-.411q-5.508-1.479-10.908-3.312c-1.209-.413-2.411-.848-3.61-1.293a1.107,1.107,0,0,1-.812.453,12.1,12.1,0,0,0-1.915.57c-3.281,1.006-5.938,3.266-8.917,4.9a69.61,69.61,0,0,1-15.935,6.958,88.033,88.033,0,0,1-25.085,3.975c-.526-.013-1.048-.028-1.574-.049-14.727-.6-29.088-4.929-42.65-10.529-2.01-.821-4.03-1.632-6-2.551-1.093-.58-2.82-1.093-2.818-2.575-.062-1.058,3.022-2.642,6.228-3.979q-2.994-.632-5.943-1.465c-9.054-2.731-18.2-4.968-27.425-7.061C11.2,42.686,3.016,41.169.408,37.165c-1.969-3.7,3.685-6.378,6.386-7.822M76.944,5.106a68.467,68.467,0,0,0,15.362,8.166c11.238,4.391,23.113,7.716,34.2,12.605,8.059,3.268,15.111,8.446,21.743,13.992,3.329,2.845,6.689,5.7,9.795,8.791-.083-.132-.16-.267-.244-.4-3.713-5.08-7.016-10.48-11.231-15.171a55.906,55.906,0,0,0-17.428-13.363,47.481,47.481,0,0,0-10.669-5.1,101.7,101.7,0,0,0-17.876-4.919c-3.582-.658-7.182-1.23-10.732-2.064C85.7,6.679,81.615,5.4,77.432,4.527a5.076,5.076,0,0,1-1.545-.3,8.485,8.485,0,0,0,1.056.874m55.762,1.878c-6.043-2.909-12.679-3.592-19.329-3.957-5.954-.277-11.913-.491-17.868-.732a145.668,145.668,0,0,0-14.625-.15c-.881.166-2,.209-3.014.433,1.579.316,3.134.73,4.694,1.131,4.131,1.092,8.256,2.2,12.462,2.969,4.256.781,8.616,1.483,12.847,2.526,4.088.994,8.05,2.429,12.017,3.812,4,1.229,7.563,3.408,11.156,5.495a59.639,59.639,0,0,1,21.2,18.382c2.728,4.095,5.79,7.966,8.366,12.153a153.612,153.612,0,0,0-5.474-15.917c-1.288-.716-2.554-1.472-3.787-2.286-3.616-2.3-7.23-4.612-10.81-6.971-1.274-.973-6.761-4.075-6.263-5.709.193-1.092,1.359-1.349,2.287-1.512a44.479,44.479,0,0,1,6.476-.117c.494.009.989.005,1.483,0a36.756,36.756,0,0,0-11.816-9.552m20.956,22.829.015.01a.348.348,0,0,1,.041.024l-.034-.019.482.276c.168.1.339.186.513.269.181.139.361.275.544.409.241.174.482.344.726.512.579.4,1.169.78,1.783,1.127.034.019.067.039.1.057l-.014-.005a6.6,6.6,0,0,0,.763.384.654.654,0,0,0,.2.04.79.79,0,0,0,.166-.013q1.381.688,2.8,1.309c5.669,2.6,11.664,4.331,17.235,7.216,3.913,2.011,7.554,4.5,11.4,6.642,5.8,3.213,11.385,6.774,16.9,10.448a16.745,16.745,0,0,0-1.336-1.7c-2.642-3.028-5.778-5.947-8.737-8.8-2.207-2.236-4.262-4.634-6.653-6.682a98.593,98.593,0,0,0-8.532-6.633,59.967,59.967,0,0,0-11.667-5.616c-6.832-2.1-13.887-3.414-20.717-5.544-2.834-.838-5.447-1.769-8.329-2.733-.964-.313-1.945-.615-2.943-.884,4.088,3.057,8.536,5.62,12.791,8.437q1.232.816,2.493,1.59c-.032-.064-.062-.129-.094-.192.037.024.075.046.112.07h0m49.987,9.107c-4.474-8.269-8.24-14.311-17.165-18.336a41.834,41.834,0,0,0-15.933-4h-.035c-5.232-.146-10.4.8-15.586,1.36-2.054.24-4.114.392-6.178.483l-.309-.01c-.334-.013-.67-.023-1-.021-.311,0-.623-.008-.932,0h.005l-.28,0h0l-.073,0h-.04c-.036,0-.075,0-.111,0,.014,0,.027,0,.041,0l-.206,0h.015l-.17,0c-.152,0-.3.015-.454.024s-.306.012-.459.028c-.2.021-.4.04-.6.062-.061.006-.12.014-.18.024-1.129,0-2.263-.048-3.395-.07,2.341.718,4.64,1.566,6.974,2.318,7.55,2.514,15.4,3.975,23.007,6.252a56.147,56.147,0,0,1,14.732,7.5,88.646,88.646,0,0,1,9.631,8.2c1.45,1.516,2.854,3.079,4.363,4.537,3.658,3.566,7.71,7.015,10.446,11.367.213.5.857,1.282,1.28,2.046,1-7.889-3.692-15.148-7.382-21.774M169.206,72.982c-1.065.558-2.129,1.123-3.205,1.667-6.752,3.342-13.416,7.078-20.219,10.381-3.731,1.768-7.478,3.5-11.161,5.366-.712.369-1.414.759-2.113,1.16,3.77-1.372,7.614-2.456,9.894-3.1a95.831,95.831,0,0,1,10.284-2.286c.866-.574,1.728-1.155,2.575-1.757,5.191-3.623,9.757-8.045,14.888-11.783-.313.119-.629.231-.942.347M153.419,88.1c-.106.013-.213.027-.32.044-.193.028-.4.049-.588.1-.223.018-.442.04-.663.077-.036.005-.073.014-.11.021s-.093.017-.138.028h0a1.641,1.641,0,0,0-.218.068q-.489.072-.98.161c-.411.073-.825.155-1.235.235l-.3.061c-.312.061-.624.12-.933.192-.383.09-.765.18-1.146.277l-.271.062q-.321.075-.636.155c-.1.024-.19.052-.285.077a2.438,2.438,0,0,0-.34.111c-2.09.535-4.167,1.126-6.235,1.73a78.283,78.283,0,0,0-12.4,4.805c4.417-.922,8.815-1.953,13.306-2.47A246.3,246.3,0,0,0,165.58,89.7c12.541-2.288,19.873-4.307,29.493-12.639-2.268,1.187-4.605,2.25-6.954,3.259a79.886,79.886,0,0,1-22.1,6.293c-4.172.587-8.378.87-12.548,1.453l-.053.036m-10.113,11.923a96.357,96.357,0,0,0,17.421-1.934c5.7-1.056,11.543-1.891,16.861-4.328,7.439-3.491,13.642-9.1,18.988-15.327-8.933,7.5-15.062,10.278-27.941,12.719-8.409,1.65-16.8,3.4-25.335,4.28a111.3,111.3,0,0,0-13.774,2.308c-1.769.456-3.66.609-5.407,1.167a7,7,0,0,0,3.663,1.252c.11.031.22.054.329.081a6.3,6.3,0,0,0,.643.1q.259.031.522.054c.2.017.395.03.592.037h.025c.041,0,.083,0,.125,0,.352.009.705.009,1.057,0,.067,0,.135-.006.2-.009.317-.012.634-.028.95-.058,3.692-.006,7.288-.219,11.08-.346M100.868,110.9c6.482-2.071,13.027-4.015,19.211-6.891,1.676-.746,3.348-1.546,5.015-2.374-1.67-.486-2.938-1.283-3.156-2.575-.164.121-.324.248-.489.367-1.649,1.15-3.477,2.006-5.223,2.992-10.6,6.136-22.661,8.987-33.624,14.34,6.152-1.731,12.185-3.879,18.265-5.861m45.415-29.7c-8.989,3.48-17.667,7.687-26.421,11.723C114.14,95.58,108.1,98.159,102.5,101.2A114.008,114.008,0,0,0,83.265,114.23c5.2-2.455,10.687-4.4,16.059-6.4,2.964-1.106,5.918-2.259,8.824-3.515,3.346-1.511,6.534-3.342,9.762-5.085,3.135-1.6,5.65-4.114,8.5-6.138a59.026,59.026,0,0,1,5.156-3.31c5.465-3.031,11.251-5.428,16.824-8.249,2.425-1.273,4.893-2.567,7.369-3.859-3.183,1.1-6.353,2.248-9.473,3.526m38.1-15.944a197.716,197.716,0,0,0-16.451,11.587c-3.565,3.039-7.194,6.032-10.988,8.8,6.865-.713,13.765-1.427,20.4-3.436a106.512,106.512,0,0,0,12.413-4.774A57.157,57.157,0,0,0,200.031,71.7a41.134,41.134,0,0,0,5.142-4.44c.616-.654,1.126-1.471,1.74-2.147-3.454.165-6.913.215-10.384.075l-.1-.005q-5.465-.248-10.9-.913a3.427,3.427,0,0,1-1.146.988m16.464-1.984c2.683,0,5.359-.1,8.031-.264.015-.019.032-.039.046-.059a3.084,3.084,0,0,1,.445-.623c-.861-.567-1.595-1.087-1.98-1.338q-2.636-1.8-5.312-3.533c-7.292-4.739-14.932-8.9-22.366-13.4-5.307-3-11.157-4.782-16.753-7.149-1.711-.727-3.4-1.5-5.063-2.326,1.993,5.053,3.5,10.283,5.117,15.47a72.239,72.239,0,0,0,2.97,8c.09.195.187.385.294.572.008.013.01.027.018.04,1.555.388,3.115.761,4.689,1.1a142.572,142.572,0,0,0,29.863,3.512m-137-32.948C53.18,27.7,42.1,27.179,31.13,27.034c-7.809.331-15.965.583-23.168,3.966a23.211,23.211,0,0,0-4.607,2.8,6.83,6.83,0,0,0-.852.783c4.155-.424,8.549-1.172,12.779-1.456,9.24-.728,18.693.8,27.706,2.878,4.627,1.107,9.187,2.482,13.861,3.393a178.367,178.367,0,0,0,34.025,2.919A85.268,85.268,0,0,0,105.231,41.1q.629-.13,1.261-.241c-6.025-1.363-12.076-2.612-18.072-4.1C80.279,34.774,72,32.437,63.846,30.324m80.993,23.548c-10.469-4.106-20.691-8.9-31.7-11.432a166.548,166.548,0,0,1-23.212,9.1,169.884,169.884,0,0,0,17.756,4.247c6.185,1.2,12.341,2.918,18.7,2.7a52.189,52.189,0,0,0,16.232-3.145c.75-.474,1.487-.97,2.224-1.466M93.62,70.079a83.451,83.451,0,0,0,26.074-3.64,68.46,68.46,0,0,0,15.2-6.427c-7.678,2.514-15.649,4.43-23.769,4.212q-2.193-.017-4.383-.1a88.081,88.081,0,0,1-14.973-1.784c-7.881-1.677-15.524-4.449-23.574-5.3-7.173-1.011-14.365.113-21.555.168C61.447,63.941,77.28,69.1,93.62,70.079M47.86,55.186c2.524-.024,5.045-.183,7.562-.362a67.642,67.642,0,0,1,19.51,1.287c6.4,1.284,12.586,3.458,19.01,4.627a98.616,98.616,0,0,0,22.58,1.358A75.351,75.351,0,0,0,126,60.477a43.879,43.879,0,0,1-6.528-.37c-4.378-.609-8.665-1.724-13.007-2.527A157.5,157.5,0,0,1,88.914,53.3c-.294-.07-.588-.137-.881-.206-.049-.022-.1-.043-.151-.063-.15-.062-.3-.12-.458-.175-.3-.107-.6-.2-.9-.3-.066-.019-.131-.041-.2-.062h0c-.544-.166-1.087-.343-1.632-.516h0l-.01,0-.014-.006-.021-.006-.023-.006h-.006l-.008,0H84.6l.013.005-.028-.009a.272.272,0,0,0-.049-.015l0,0-.017-.005h0l-.006,0c-.334-.106-.667-.209-1-.311-.228-.084-.454-.171-.683-.251-.425-.153-.863-.269-1.3-.4s-.89-.264-1.34-.382c-.355-.094-.713-.17-1.07-.249-.4-.088-.8-.191-1.207-.278-.433-.094-.87-.169-1.31-.237l-.04-.006a10.146,10.146,0,0,0-1.2-.106l-.1,0,.052,0c-.912-.023-1.827-.024-2.74.018l-.108.006a37.2,37.2,0,0,0-5.736.079,65.271,65.271,0,0,0-7.409,1.318.558.558,0,0,0-.26.032l-.1.04c-.055.018-.107.037-.162.054q-.88.219-1.752.463l.244.028c-.325.1-.654.2-.981.3q-.721.219-1.441.441c-.462.144-.914.308-1.367.477-.174.066-.347.141-.518.217-.1-.015-.193-.035-.291-.052q-2.466.909-4.83,2.055M11.409,40.745c6.772,1.894,13.732,3.188,20.533,5.007,6.6,1.7,13.051,3.981,19.77,5.193.272.048.543.093.815.138,1.423-.517,2.6-.9,3.164-1.062a73,73,0,0,1,9.637-2.063,43.553,43.553,0,0,1,12.352.327,3.442,3.442,0,0,1,1.4.171c.465.11.93.227,1.39.356.067.021.134.039.2.058q2.209.5,4.363,1.181c.423.134.847.262,1.271.393a137.8,137.8,0,0,0,21.4-7.732c-3.108.477-6.2,1.061-9.352,1.276a134.445,134.445,0,0,1-13.921.289q-1.408-.033-2.814-.09a184.846,184.846,0,0,1-25.259-2.856c-6.54-1.282-13.116-3.476-19.721-4.644a90.724,90.724,0,0,0-17.582-1.747c-5.576.088-11.073,1.065-16.62,1.668.04.044.077.089.124.134,2.439,2.188,5.78,3.043,8.849,4" transform="matrix(-0.875, 0.485, -0.485, -0.875, 273.004, 176.623)" fill="#2d2d2d"/></g></svg>