<svg xmlns="http://www.w3.org/2000/svg" width="326.641" height="448.39" viewBox="0 0 326.641 448.39"><g transform="translate(-1676.375 -1348.399)"><path d="M82.878,244.344C81.483,230.927,78.6,217.7,77,204.3c-.863-6.148-1.437-12.333-2.3-18.483-.881-6.193-1.805-12.388-2.173-18.64-.334-5.395-.692-10.948-1.1-16.367-.7-7.767-1.46-15.566-1-23.394a99.968,99.968,0,0,1,5.149-23.985c.41-1.273.776-2.56,1.167-3.838a115.521,115.521,0,0,0,2.547,15.626c1.051,4.4,2.3,8.735,3.68,13.032a.561.561,0,0,0-.514.488c0,3.933.395,7.865.64,11.791a91.046,91.046,0,0,0,1.164,10.437c3.071,13.018,9.232,25.025,14.9,37.059,2.035,4.245,4.242,8.406,6.5,12.535A189.785,189.785,0,0,0,116.7,219.168c3.921,5.756,8.031,11.5,13.664,15.71a35.925,35.925,0,0,0,8.385,5.128c.746.328,1.5.633,2.254.94.676.793,1.724,2.146,2.325.956a3.719,3.719,0,0,0-.226-1.716c-.319-1.157-.739-2.286-1.159-3.41-1.362-3.606-2.836-7.166-4.357-10.706-7.766-17.891-17.994-34.571-26.649-52.028q-8.129-16.7-16.715-33.182A31.841,31.841,0,0,0,87.8,131.3c-.974-.992-1.981-1.958-3.048-2.853a.526.526,0,0,0-.61-.026,138.525,138.525,0,0,1-5.262-20.637.4.4,0,0,0,.095-.011c.482.038.767.512,1.151.772.713.6,1.422,1.2,2.119,1.817,3.445,3.011,6.367,6.574,9.864,9.524,6.226,4.7,12.835,8.876,18.262,14.567,4.043,4.325,8.088,8.656,12.007,13.095a161.389,161.389,0,0,1,10.879,14.83c5.716,8.407,11.107,16.991,16.5,25.636,2.335,3.671,4.654,7.354,6.774,11.155,1.086,1.908,2.162,3.831,3.369,5.666a13.958,13.958,0,0,0,3.263,3.85.672.672,0,0,0,.87-.166.8.8,0,0,0,.09-.679.494.494,0,0,0,.252-.375,15.46,15.46,0,0,0,.011-2.258,38.943,38.943,0,0,0-.581-5.387c-1.726-8.313-5.47-15.991-9.123-23.6-2.689-5.777-5.749-11.371-8.966-16.869A152.03,152.03,0,0,0,130.71,137.6c-4.346-5.146-8.669-10.33-13.238-15.32a54.189,54.189,0,0,0-13.5-11.3,49.317,49.317,0,0,0-7.345-2.714,39.843,39.843,0,0,0-9.218-1.873c-2.112-.166-4.224-.353-6.342-.419a7.384,7.384,0,0,0-2.446.168c-.13-.845-.253-1.691-.362-2.54-1.369-10.34-1.234-20.8-.633-31.194q.593-8.368,1.5-16.711c.357.579.717,1.156,1.076,1.734,1.243,2.038,2.524,4.054,3.764,6.094a29.983,29.983,0,0,0,4.545,5.9c3.407,3.694,7.1,7.1,10.737,10.567,5.018,4.9,9.732,9.983,14.547,15.142a240,240,0,0,1,20.486,24.2c7.415,10.246,13.5,21.375,20.357,31.986,3.6,5.633,7.18,11.28,10.657,16.989a97.862,97.862,0,0,0,5.656,8.4c.481.54.878,1.317,1.6,1.55a.608.608,0,0,0,.7-.606,5.692,5.692,0,0,0-.353-1.453c.086-2.093.223-4.183.2-6.279-.093-4.294-.024-8.636-.861-12.867a46.5,46.5,0,0,0-2.924-9.284A203.951,203.951,0,0,0,158.9,126.5c-1.908-3.527-3.93-6.993-6.17-10.321-4.472-6.622-9.317-12.981-14.014-19.442a118.951,118.951,0,0,0-22.02-22.456A122.2,122.2,0,0,0,97.815,61.836c-3.8-1.963-7.755-3.6-11.684-5.275-.781-.252-5.3-2.464-6.846-2.352.857-7.782,1.889-15.546,3.048-23.289a2.108,2.108,0,0,0,.276.178c.778.494,1.568.965,2.363,1.435,2.86,1.693,5.662,3.705,8.786,4.941,4.443,1.7,8.945,3.25,13.312,5.149a55.56,55.56,0,0,1,13.364,8.341c3.011,2.363,5.915,4.858,8.739,7.441,4.284,4.132,8.266,8.573,12.284,12.959,4.439,4.884,7.811,10.566,11.657,15.9,4.987,7.1,10.239,14.022,15.037,21.257,2.668,4.1,5.2,8.284,7.752,12.457,1.877,3.164,3.695,6.365,5.527,9.556a29.337,29.337,0,0,0,3.8,5.864c2.825,2.839,5.449,5.852,8.011,8.929.553.58,1.091,1.385,1.938,1.505a.639.639,0,0,0,.638-.414c.153-.6-.215-1.161-.375-1.732.571-6.238-1.361-12.416-3.384-18.247-4.852-14.315-12.066-27.7-20.3-40.332a174.8,174.8,0,0,0-18.483-24.444c-3.505-3.8-7.09-7.538-10.953-10.979-5.689-4.921-11.724-9.424-17.539-14.192a75.651,75.651,0,0,0-9.19-6.593,17.2,17.2,0,0,0-6.908-1.942A77.079,77.079,0,0,0,90.5,27.54a25.521,25.521,0,0,0-7.245,1.633.946.946,0,0,0-.656-.034q.738-4.843,1.536-9.672A159.266,159.266,0,0,1,88.441.674.533.533,0,1,0,87.415.39c-.6,2.013-1.146,4.044-1.664,6.083-1.143,4.547-2.042,9.147-2.829,13.768a.632.632,0,0,0-.06.019c-.043.02-.085.042-.127.063-.006-.026-.01-.051-.018-.078a.566.566,0,0,0-.87-.271,33.669,33.669,0,0,1-6.96-.6c-1.988-.01-3.8.946-5.548,1.795C66.5,22.578,63.8,24.25,61.1,25.906c-2.873,1.682-5.631,3.543-8.4,5.393a69.366,69.366,0,0,0-8.165,6.029,51.41,51.41,0,0,0-6.927,7.423,91.146,91.146,0,0,0-5.925,8,59.718,59.718,0,0,0-6.339,13.423c-1.755,4.715-3.567,9.413-5.173,14.181-1.984,6.362-3.961,12.727-6.035,19.06-2.65,7.851-4.967,15.813-7.119,23.813a170.227,170.227,0,0,0-4.571,19.184,93.1,93.1,0,0,0-1.07,9.783c-.271,3.527-.69,6.936-1.075,10.492a42.4,42.4,0,0,0,1.048,15.316c.212.571.069,2.072,1.028,1.819a.324.324,0,0,0,.036-.018.637.637,0,0,0,.083.034,1.351,1.351,0,0,0,1.287-.447,49.288,49.288,0,0,0,5.92-10.2,81.221,81.221,0,0,0,3.349-9.827c1.471-4.764,2.727-9.588,3.995-14.409,2.33-8.18,5-16.264,6.948-24.55,1.709-6.537,2.724-13.22,3.975-19.852a141.632,141.632,0,0,1,5.6-18.25A124.373,124.373,0,0,1,41.309,64.4,95.792,95.792,0,0,1,50,51.5a112.078,112.078,0,0,1,13.881-15.34c3.238-2.852,6.521-5.655,9.941-8.289,2.591-1.992,5.4-3.645,8.048-5.576a9.179,9.179,0,0,0,.806-.626c-.51,3.087-.976,6.181-1.432,9.274-1.738,12.339-3.425,24.719-4.369,37.15a1.924,1.924,0,0,0-1.191.065c-1.244.246-2.486.5-3.711.83-6.733,1.783-7.561,1.941-12.8,6.639-3.134,2.872-6.432,5.542-9.392,8.609A69.831,69.831,0,0,0,43.817,91.8a65.044,65.044,0,0,0-7.6,12.95c-3.141,7.867-3.664,16.43-5.241,24.683-1.615,10.022-2.964,20.088-3.873,30.2-.633,6.762-.691,13.562-1.177,20.334-.366,5.122-.585,10.246-.849,15.374-.545,8.785-1.2,17.625-1.462,26.442a27.534,27.534,0,0,0,.227,5.234.782.782,0,0,0,1.139.621,28.772,28.772,0,0,0,6.095-8.453c5.886-11.611,8.041-24.659,9.361-37.49,1.083-9.789,2.846-19.495,3.652-29.315a179,179,0,0,1,3.106-19.671c1.177-5.554,2.333-11.127,4.026-16.551,2.361-8.292,6.359-15.955,10.552-23.452a62.251,62.251,0,0,1,5.282-7.787c.951-1.157,1.964-2.266,2.8-3.515,1.6-2.573,2.92-5.311,4.494-7.9.691-1.163,1.454-2.258,2.191-3.4.071-.122.148-.243.227-.367-.34,4.811-.567,9.63-.633,14.456-.05,4.361.079,8.729.418,13.079a.467.467,0,0,0-.262.321c-.031.146-.07.289-.114.431a1.62,1.62,0,0,0-.633.431c-1.039,1.068-1.974,2.229-2.955,3.346a114.538,114.538,0,0,0-8.57,11.041c-5.354,7.872-6.826,17.562-7.027,26.9-.016,9.382.975,18.735,1.918,28.06.588,6.245,1.213,12.488,2.152,18.692A208.812,208.812,0,0,0,67.8,218.6a62.927,62.927,0,0,0,5.061,12.713c1.459,2.612,3.1,5.111,4.7,7.634a33.214,33.214,0,0,0,4.681,6.256c.635.551,1.28-.457.636-.864m45.915-12.156a50.238,50.238,0,0,1-8.255-9.417,158.493,158.493,0,0,1-11.848-18.9q-6.786-12.094-12.544-24.708a175.547,175.547,0,0,1-8.434-20.159,70.241,70.241,0,0,1-2.3-7.73c-1.014-5.117-1.177-10.363-1.581-15.553-.079-1.89-.28-3.845-.3-5.765,3.531,10.7,7.859,21.141,12.08,31.57,5.848,14.249,12.713,28.05,19.848,41.691,5.916,11.218,12.006,22.512,20.5,32.025,1.116,1.295,2.25,2.574,3.389,3.849-.636-.278-1.266-.566-1.888-.878a40.636,40.636,0,0,1-8.66-6.032M90.434,136.133a48.33,48.33,0,0,1,2.907,5.328c3.95,7.7,8,15.349,11.788,23.133q6.266,13.121,13.207,25.9,7.071,13,13.786,26.2c1.747,3.5,3.394,7.217,4.941,10.843,1.784,4.31,3.682,8.6,5.051,13.06-.032-.035-.062-.071-.095-.105a.529.529,0,0,0-.316-.409l-.079-.033a139,139,0,0,1-12.268-14.991c-7.1-10.475-12.731-21.879-18.514-33.114a491.3,491.3,0,0,1-26.284-62.269,35.581,35.581,0,0,1,5.876,6.458m72.23,70.649c-3.517-4.392-5.839-9.715-8.917-14.448-5.837-9.259-11.57-18.58-17.661-27.676-3.752-5.49-7.363-11.1-11.586-16.246-2.749-3.352-5.761-6.473-8.689-9.666a95.7,95.7,0,0,0-9.165-9.238c-2.434-2.066-4.973-4.006-7.55-5.889a82.891,82.891,0,0,1-7.412-5.5c-3.227-3.022-6.138-6.372-9.516-9.236,5.339,2.41,10.78,4.587,16.1,7.029a47.706,47.706,0,0,1,11.5,7.263c5.751,5.171,10.431,11.39,15.225,17.423a263.625,263.625,0,0,1,27.041,43.148c3.825,7.545,7.742,15.071,10.629,23.041m-78.913-99.6a59.185,59.185,0,0,1,8.288.946,62.774,62.774,0,0,1,11.371,3.763c6.893,3.817,12.214,9.765,17.325,15.642,5.055,5.96,10.34,11.817,14.951,18.148a225.309,225.309,0,0,1,20.567,36.314l0-.01.011.025,0,0,0,0a90.4,90.4,0,0,1,5.007,12.408,38,38,0,0,1,2.079,11.13,208.071,208.071,0,0,0-9.9-21.364A259.8,259.8,0,0,0,114.318,126.1c-5.254-5.822-11.826-9.709-19.018-12.7-5.013-2.043-9.9-4.407-14.938-6.371,1.131,0,2.263.069,3.389.149m75.409,49.261c-7.34-11.189-13.929-22.854-21.369-33.974-7.437-10.91-16.253-20.764-25.332-30.318-5.253-5.613-10.525-11.219-16.176-16.438a98.472,98.472,0,0,1-10.037-10.6c-1.722-2.585-3.28-5.281-4.937-7.91A80.677,80.677,0,0,0,88.2,62.5c3.2,2.275,6.3,4.7,9.382,7.134,5.694,4.335,10.962,9.185,16.424,13.8,5.73,4.79,11.856,9.168,16.787,14.836,8.715,9.753,14.74,21.479,21.141,32.793,4.837,8.936,9.445,18.02,13.466,27.356,2.344,5.741,4.343,11.631,6.286,17.52-4.627-6.2-8.3-13.038-12.529-19.5m-72.738-98.6a118.616,118.616,0,0,1,16.491,8.072,134.924,134.924,0,0,1,25.725,20.583c6.347,6.437,11.428,13.955,16.788,21.2,2.985,4.106,5.979,8.215,8.644,12.538a238.428,238.428,0,0,1,11.7,22.1,89.8,89.8,0,0,1,4.922,12.611c1.462,6.009,1.371,12.249,1.262,18.4-1.758-5.121-3.489-10.261-5.55-15.27-3.144-7.354-6.712-14.521-10.391-21.62-3.684-7.068-7.637-13.994-11.672-20.867a110.5,110.5,0,0,0-12.592-17.835c-5.3-6.128-11.949-10.766-18.086-15.991-5.688-4.926-11.331-9.9-17.332-14.452-4.863-4.034-10.325-7.256-15-11.523,1.728.6,3.4,1.354,5.086,2.059M194.37,145c-1.614-1.81-3.1-3.724-4.729-5.52-1.515-1.687-3.232-3.2-4.622-4.994-1.955-2.927-3.506-6.1-5.333-9.112-2.4-4.274-5-8.434-7.578-12.6C166.94,104.289,160.884,96.4,155.156,88.3c-3.674-4.945-6.791-10.287-10.71-15.047-2.362-2.946-5-5.654-7.556-8.426a113.887,113.887,0,0,0-11.065-10.817c-5.632-4.766-11.463-9.519-18.336-12.371-2.258-.963-4.55-1.845-6.833-2.748-2.863-1.136-5.778-1.932-8.542-3.345-3.005-1.58-5.818-3.528-8.778-5.249l.007,0c7.508,2.231,15.389,3.24,22.92,5.436a73.492,73.492,0,0,1,10.347,3.888A56.188,56.188,0,0,1,127.16,45.6c5.054,3.838,9.1,8.819,13.157,13.667,5.192,6.295,10.052,12.85,14.781,19.5,11.988,16.6,23.2,33.81,32.544,52.056,2.366,4.649,5.173,9.173,6.729,14.171M104.41,28.582c6.875.615,9.321.733,14.975,5.087,4.091,3.012,7.993,6.33,12,9.475,3.924,3.124,7.92,6.176,11.612,9.576a174.041,174.041,0,0,1,29.139,35.957,183.354,183.354,0,0,1,16.742,32.143c2.556,6.908,5.345,13.912,5.628,21.364-2.329-5.544-5.423-10.724-8.138-16.082-9.606-18.163-21.121-35.214-33.185-51.818-4.532-6.29-9.259-12.44-14.268-18.358-3.726-4.355-7.547-8.739-12.289-12.02a75.555,75.555,0,0,0-18.951-8.866c-7.439-2.277-15.173-3.313-22.666-5.372l.2-.064c6.215-1.663,12.824-1.582,19.2-1.023M63.364,35.2A103.621,103.621,0,0,0,51.183,48.28,103.288,103.288,0,0,0,39.761,65.052c-4.654,8.914-7.9,18.49-10.954,28.046-2.083,6.486-2.842,13.277-4.209,19.927-2.52,12.644-6.859,24.823-10.059,37.291-.861,3.241-1.8,6.456-2.776,9.662a63.5,63.5,0,0,1-3.868,10.584,69.928,69.928,0,0,1-3.451,6.17,9.021,9.021,0,0,1-1.649,2.081,1.221,1.221,0,0,1-.147-.533c.014-3.5,1.75-6.715,2.548-10.076C6.736,162.582,7.6,156.817,8.678,151.1a185.951,185.951,0,0,1,5.045-20.248c2-6.426,3.767-12.921,5.782-19.344,2.456-8.009,5.771-15.736,7.8-23.879,2.1-7.767,3.454-15.772,6.554-23.233a52.052,52.052,0,0,1,5.56-10.422A79.4,79.4,0,0,1,55.158,38.259c3.781-2.942,7.769-5.548,11.814-8.123a54.866,54.866,0,0,1,8.406-4.7A146.639,146.639,0,0,0,63.364,35.2M76.036,23.937A69.077,69.077,0,0,0,69,27.573q-3.573,2.281-7.131,4.587C49.738,40.3,37.878,50.44,32.676,64.493c-3.113,7.658-4.439,15.866-6.648,23.8-1.242,4.543-2.695,9.026-4.318,13.448-3,7.925-5.2,16.122-7.614,24.238-1.422,4.782-3.03,9.511-4.148,14.378-1.165,5-2.285,10-3.144,15.063-.648,3.905-1.422,7.792-2.4,11.628-.678,2.842-1.814,5.559-2.485,8.4a42.366,42.366,0,0,1-.85-7.187c-.067-4.536.8-8.951,1.16-13.494a116.561,116.561,0,0,1,1.72-14.6,136.726,136.726,0,0,1,3.4-14.092c2.366-8.8,4.845-17.582,7.768-26.22,3.19-9.57,5.849-19.319,9.517-28.724,2.312-6.076,4.257-12.368,7.951-17.8A91.188,91.188,0,0,1,38.4,45.467a50.952,50.952,0,0,1,8.475-8.718c3.955-3.128,8.311-5.821,12.535-8.577,4.245-2.522,8.347-5.309,12.931-7.2a7.726,7.726,0,0,1,2.324-.532c1.035.021,2.037.338,3.065.444a27.387,27.387,0,0,0,3.545.172c-1.761.932-3.471,1.97-5.242,2.879M68.99,80.78c-1.839,2.543-4.029,4.824-5.708,7.488a87.2,87.2,0,0,0-4.835,8.305,113.66,113.66,0,0,0-6.3,13.4A137.464,137.464,0,0,0,46.978,128.6c-1.4,6.584-2.733,13.2-3.565,19.882C42.762,155,42.137,161.52,41.17,168c-1.578,9.645-2.108,19.437-3.969,29.037a122.441,122.441,0,0,1-3.143,12.247c-2.139,5.943-4.576,12.032-8.9,16.752a132.845,132.845,0,0,0,5-20.342c1.384-8.346,1.87-16.8,2.922-25.185,1.256-8.561,1.947-17.186,2.893-25.783.6-5.1,1.559-10.152,2.519-15.2,2.222-11.172,4.005-22.563,8.305-33.172,2.744-6.579,6.8-12.508,11.151-18.133a170.559,170.559,0,0,1,16.82-17.372c-2.155,3.17-3.786,6.653-5.775,9.922M56.424,88.44c-4.376,5.8-8.479,11.924-11.111,18.736-3.965,10.394-5.754,21.451-7.9,32.323-2.925,13.554-3.43,27.437-5.423,41.128-1.04,8.379-1.532,16.821-2.925,25.157a121.873,121.873,0,0,1-4.4,18.2c-.013-4.648.337-9.288.544-13.929.953-15.161,1.842-30.4,2.581-45.59.726-10.158,2-20.348,3.543-30.422.729-4.945,1.643-9.86,2.4-14.8a68.728,68.728,0,0,1,2.8-12.319c2.414-6.848,6.816-12.754,11.125-18.55,3.242-4.358,7.562-7.708,11.541-11.355A39.236,39.236,0,0,1,65.57,72.07a64.952,64.952,0,0,1,9.152-2.637C68.3,75.444,61.85,81.5,56.424,88.44M69.3,128.375c-.427,9.12.805,18.188,1.408,27.269.47,6.107.676,12.26,1.341,18.386.518,4.7,1.277,9.363,1.884,14.048,1.1,9.231,2.209,18.464,3.6,27.657,1.32,8.5,2.832,16.968,3.976,25.493a274.394,274.394,0,0,1-9.06-32.906c-1.586-7.776-2.713-15.648-3.957-23.486-2.593-15.53-4.6-31.263-3.924-47.041a66.013,66.013,0,0,1,9.4-32.818,94.888,94.888,0,0,0-4.661,23.4M72.794,228.92a66.864,66.864,0,0,1-3.709-9.759A190.577,190.577,0,0,1,63.5,195.444c-1.915-11.034-3.037-22.176-4.108-33.317-.717-7.393-1.351-14.8-1.35-22.248.472-19,5.027-25.575,17.144-39.467-3.625,6.854-7.589,13.645-9.455,21.242a88.175,88.175,0,0,0-2.364,21.253,213.219,213.219,0,0,0,1.961,28.319c1.919,12.552,3.686,25.143,6.138,37.6a275.408,275.408,0,0,0,8.96,32.533,136.4,136.4,0,0,1-7.635-12.443" transform="translate(1985.163 1668.299) rotate(139)" fill="#2d2d2d"/><g transform="matrix(-0.914, -0.407, 0.407, -0.914, 1947.963, 1548.101)"><path d="M152.193,122.836c-7.91-7.067-13.528-16.256-19.1-25.181,1.492,6.137,2.944,12.293,3.955,18.532.631,4.378,1.492,8.836.945,13.264-.281,2.922-2.326,6.37-5.679,5.854-2.809-.5-4.945-2.643-6.968-4.505-7.212-7.131-13.55-15.739-15.864-25.767-1.9-8.039-1.967-14.023,1.267-21.745a39.768,39.768,0,0,1,6.715-10.956c-.347-.191-.7-.561-.979-.724a23.972,23.972,0,0,1-2.285-1.921,93.531,93.531,0,0,1-8.29-8.091q-.89-1.045-1.759-2.109-.672-.79-1.3-1.614-.561-.715-1.108-1.441a34.747,34.747,0,0,1-3.091-5.874.541.541,0,0,1-.086-.38c-2.136-1.887-4.314-3.725-6.478-5.582C86.652,39.9,80.9,35.57,75.553,30.761c-2.741-2.447-5.458-4.934-8.406-7.136-7.314-5.388-15.606-9.213-24.087-12.419.075.167.142.325.2.444.513,1.24.948,2.507,1.388,3.775a30.9,30.9,0,0,0,6.289,11.265c4.409,4.734,9.74,8.54,14.277,13.159,6.232,6.052,11.918,12.666,18.645,18.2.47.318.668,1.035.012,1.264-.667.107-1.288-.358-1.9-.56C72.314,54.456,61.135,52.6,53,45.362c-3.378-2.855-5.683-6.656-7.846-10.473-2.543-4.482-4.7-9.367-5.012-14.57a19.563,19.563,0,0,1,.242-7.405,10.741,10.741,0,0,1,.693-1.631,3.872,3.872,0,0,1,.4-.666q-1.106-.406-2.211-.8a168.586,168.586,0,0,0-26.056-7.5A67.248,67.248,0,0,0,6.023,1.162a14.229,14.229,0,0,0-4.6.123c-.469.091-1.041.633-1.377.026C-.248.492,1.033.3,1.736.162A27.391,27.391,0,0,1,9.979.646a158.253,158.253,0,0,1,26.4,7.045,163.176,163.176,0,0,1,18.193,7.29,1.212,1.212,0,0,1,.638-.4c1.418-.538,2.794-1.192,4.221-1.7A60.625,60.625,0,0,1,69.35,11.4a31.088,31.088,0,0,1,10.171.73c4.385,1.187,8.661,2.75,12.922,4.314a26.981,26.981,0,0,1,13.268,10.11c1.043,1.489,2.013,3.019,3.157,4.439.693.743.225,1.59-.73,1.237-2.182-.582-4.356-1.194-6.5-1.9A99.152,99.152,0,0,1,89.124,25.01a107.141,107.141,0,0,0-10.087-4.122A79.324,79.324,0,0,0,65.2,16.879a56.279,56.279,0,0,0-6.48-.627c-.6-.037-1.2-.065-1.8-.106,2.013,1.034,3.994,2.131,5.933,3.31C70.4,23.971,76.4,30.527,83.26,35.955c5.6,4.474,11.07,9.11,16.452,13.842a3.375,3.375,0,0,1,.645-.367,5.637,5.637,0,0,1,4.243-.117,59.259,59.259,0,0,1,8.268,4.105c1.926,1.083,3.84,2.191,5.679,3.421,1.885,1.247,3.789,2.47,5.572,3.861a7.745,7.745,0,0,1,1.854,1.8,16.3,16.3,0,0,1,8.909-5.38c9.056-2.457,18.5-1.766,27.736-.958,7.025.714,19.456,1.834,23.605,8.193,2.047,3.218-.809,6.148-3.536,7.677a24.538,24.538,0,0,1-8.656,2.335c-7.8.9-15.6-.671-23.358-1.4,10.554,3.884,20.911,8.613,30.169,15.054,2.191,1.731,4.716,3.466,5.79,6.146,1.222,2.784-1.121,5.261-3.8,5.726-6.083,1.016-14.952-2.207-20.588-4.589-6.007-2.665-12.037-5.294-17.912-8.237a150.615,150.615,0,0,1,10.311,12.28c4.551,5.895,8.982,12.152,11.231,19.325.553,2.04,1.08,4.238.4,6.311a4.3,4.3,0,0,1-4.8,2.958c-3.536-.617-6.588-2.846-9.281-5.108M65.563,41.654c-4.373-4.5-9.353-8.342-13.881-12.672a29.941,29.941,0,0,1-5.607-7.445,41.965,41.965,0,0,0,3.112,7.793A51.368,51.368,0,0,0,61.464,43.594a126.519,126.519,0,0,0,11.016,7.473c2.99,2.113,6.064,4.1,8.991,6.3-5.683-4.844-10.585-10.49-15.907-15.709M41.054,18.967c.256,7.646,4.156,14.469,8.269,20.735l0,0c3.371,4.943,8.459,8.385,13.863,10.836,4.717,2.112,9.765,3.512,14.577,5.4-1.459-.99-2.958-1.919-4.377-2.968-5.34-3.7-11.162-6.821-15.852-11.409A48.609,48.609,0,0,1,47.21,27.692a91.986,91.986,0,0,1-3.719-11.177,28.766,28.766,0,0,0-1.546-4.66C40.821,14,40.837,16.6,41.054,18.967m44.606,3.36c3.831,1.59,7.458,3.53,11.29,5.151a76.723,76.723,0,0,0,9.637,3.255c-.155-.149-.314-.293-.473-.439-2.473-2.131-5.172-3.988-7.714-6.039a48.381,48.381,0,0,0-9.372-5.437C81,15.433,70.9,15.082,62.271,15.45c8.14.81,15.835,3.907,23.389,6.877m2.616-4.958a56.624,56.624,0,0,1,8.967,4.75c2.976,2.147,5.833,4.467,8.756,6.688-4.708-7.4-9.815-10.2-17.941-12.848-4.641-1.548-9.286-3.476-14.239-3.608a56.156,56.156,0,0,0-10.118.741,18.5,18.5,0,0,0-5.906,1.562c10.181-.649,20.757-.773,30.481,2.715m35.6,48.455s-.012-.007-.018-.012c-.532-.447-1.062-.9-1.606-1.327-2.856-2.346-5.787-4.577-8.735-6.811-3.576-2.523-7.328-5.675-11.743-6.381q.8.665,1.627,1.3c6.5,4.607,12.88,9.375,19.024,14.447a.534.534,0,0,1,.156.231c.458-.479.9-.969,1.295-1.446M104.851,58.7c2.749,3.278,6,6.1,9.015,9.141,1.359,1.206,2.653,2.71,4.488,3.168a.727.727,0,0,0,.281.01c.181-.2.357-.4.542-.59-1.821-1.557-3.608-3.151-5.4-4.739-2.462-2.251-4.834-4.6-7.255-6.893-1.733-1.684-3.565-3.314-5.158-5.14a37.813,37.813,0,0,0,2.792,4.184l.7.859m17.089,9.229a.552.552,0,0,1-.194-.106c-1.427-1.114-2.815-2.275-4.215-3.422-3.917-3.1-7.963-6.1-12.03-9.026-1.163-.809-2.322-1.63-3.438-2.5,1.9,2.2,4.129,4.12,6.2,6.151q5.709,5.6,11.8,10.8c.481-.511,1.166-1.172,1.878-1.891m.992-6.835c-1.112-.83-2.317-1.64-3.528-2.441-2.578-1.761-5.185-3.314-7.933-4.826-1.976-1.089-3.96-2.175-6.027-3.083a6.164,6.164,0,0,0-4.063-.595,13.329,13.329,0,0,1,1.512.3c4.386,1.151,8.012,4.039,11.605,6.673,3.364,2.544,6.765,5.16,10,7.877a2.542,2.542,0,0,0,.627-1.859,8.841,8.841,0,0,0-2.2-2.041m42.552,62.741c.3-2.463-.57-4.9-1.4-7.189a64.39,64.39,0,0,0-8.455-14.286c-3.262-4.3-6.573-8.572-10.2-12.576-.937-1.04-1.9-2.051-2.868-3.066-.316-.412-.955-.8-.852-1.38.385-1.022,1.646.169,2.276.387,6.594,3.33,13.355,6.318,20.134,9.248,5.158,2.057,10.586,3.858,16.173,4.11,3.247.169,7.16-1.641,4.978-5.373a15.093,15.093,0,0,0-3.384-3.55,52.656,52.656,0,0,0-6.8-4.622,127.488,127.488,0,0,0-17.942-8.922c-2.12-.886-4.323-1.779-6.5-2.555-1.536-.563-3.1-1.049-4.636-1.615a.567.567,0,0,1-.085-1.109c3.9.447,7.808.975,11.727,1.365,6.934.848,14.044,1.58,20.906-.2,2.8-.707,5.769-2.111,7.128-4.8.836-2.39-1.443-4.46-3.3-5.6-6.188-3.788-14.141-4.311-21.221-5.016-7.448-.583-15.02-1.205-22.406.256a34.38,34.38,0,0,0-6.347,1.665,13.782,13.782,0,0,0-6.225,4.975.523.523,0,0,1-.241.688c-.021.009-.041.012-.06.02-.784,1.743-2.907,3.481-3.876,4.615a19.573,19.573,0,0,1-2.655,2.575,1.579,1.579,0,0,1-.19.079,37.887,37.887,0,0,0-9.909,21.169,34.056,34.056,0,0,0,.7,9.105,42.828,42.828,0,0,0,2.387,8.438,56.252,56.252,0,0,0,9.846,15.3c2.393,2.5,8.125,9.591,11.881,8.128,4.861-2.306,2.639-12.144,2.142-16.5-.838-5.614-2.111-11.151-3.4-16.677-.318-1.353-.677-2.7-.972-4.056a3.187,3.187,0,0,1-.108-1.342c.833-1.37,1.737.931,2.207,1.54,5.791,9.231,16.6,27.45,27.63,29.851a3.361,3.361,0,0,0,3.9-3.076" transform="translate(0.001 0)" fill="#2d2d2d"/><path d="M.19,18.267a.622.622,0,0,1-.118-.753c.144-.5.282-1,.455-1.494C1.839,12.3,4.54,9.3,7.1,6.381A27.581,27.581,0,0,1,12.065,1.85c2.84-1.947,7.228-3.2,9.058.672C22.959,6.674,18.539,13.983,16,17.305c-2.64,3.167-6.279,7.011-10.234,8.369C.543,27.449-.4,22.228.19,18.267M7.431,23.8a29.789,29.789,0,0,0,5.375-4.445,30.182,30.182,0,0,0,5.743-8.1c1.13-2.474,2.564-5.313,1.723-8.08-1.965-4.425-7.406-.995-9.813,1.265a58.994,58.994,0,0,0-5.819,6.486A18.761,18.761,0,0,0,1.31,16.973c.273.254.1.644.015.95a11.025,11.025,0,0,0-.14,3.881c.425,4.079,3.439,3.573,6.247,1.993" transform="translate(117.696 63.384)" fill="#2d2d2d"/><path d="M.324,18.427c-.741-2.067-.1-4.3.816-6.2C2.6,9.233,4.965,6.807,7.268,4.454c.72-.661,4.42-4.882,5.166-4.373a2.007,2.007,0,0,1,2,.484c2.836,2.9-3.831,12.7-5.964,15.246-1.216,1.476-4.394,4.905-6.417,4.546a2.784,2.784,0,0,1-1.729-1.93m4.354-.307a20.714,20.714,0,0,0,3.759-3.929c1.759-2.35,6.585-9.738,5.492-12.507-.363-.984-1.294-.606-2-.294A54.63,54.63,0,0,0,7.652,5.54a33.4,33.4,0,0,0-5.071,6.18c-1.2,2.17-2.543,5.487-.494,7.537.827.391,1.909-.713,2.591-1.137" transform="translate(120.306 66.042)" fill="#2d2d2d"/></g></g></svg>