<svg xmlns="http://www.w3.org/2000/svg" xmlns:xlink="http://www.w3.org/1999/xlink" width="257" height="358" viewBox="0 0 257 358"><defs><clipPath id="a"><rect width="103.474" height="95.052" fill="none"/></clipPath><clipPath id="b"><rect width="103.474" height="95.052" transform="translate(0 0)" fill="none"/></clipPath><clipPath id="d"><rect width="197.154" height="356.582" fill="none"/></clipPath><clipPath id="f"><rect width="257" height="358"/></clipPath></defs><g id="e" clip-path="url(#f)"><g transform="translate(0 121.765)" style="isolation:isolate"><g clip-path="url(#a)"><g clip-path="url(#b)"><g style="mix-blend-mode:multiply;isolation:isolate"><g clip-path="url(#b)"><path d="M27.991,1.192a4.15,4.15,0,0,1,3.07,1.352c1.669,1.428,3.779,2.311,5.178,4.1.576,1.042,2.064,1.717,1.328,3.287-.093.2-.15.5-.1.5,3.635.213,2.677,4.8,5.5,5.766a.75.75,0,0,1,.213.579c.367-.3-.223-.572-.034-.875,1.543-1.751,2.2.353,3.068.852.918.531.149,1.314-.4,1.921-.648.719-1.081,1.6-1.665,2.259.2.35.463.465.556.31,1.79-2.944,3.492-2.92,5.175.545a4.207,4.207,0,0,0,4.662,2.756c2.107-.109,3.407,1.2,3.925,3.308.492,2,1.494,3.424,3.916,2.715,1.758.562,3.917.279,4.163,3.245.085,1.023,3.263.874,2.786,3.288.855-.3,1.671-1.041,2.626-.235.284,2.088,1.6,4.364.189,6.2A3.185,3.185,0,0,0,71.48,45.5c-.091,2.341.864,4.135,1.757,6.109a5.722,5.722,0,0,1,.01,5.432c-1.079.448-1.119-.459-1.3-1.06-.279-.927-.078-1.994-.8-2.8-2.3,1.286-4.9,1.086-5.88-.9-.609-1.23-1.221-.882-2.02-.861A2.29,2.29,0,0,0,61,53.413c-.244.98-.242,2.251.592,2.777,2.82,1.778,1.947,4.214,1.476,6.629a4.8,4.8,0,0,1-.2.746,5.888,5.888,0,0,1-.295.678,6.715,6.715,0,0,1-.333.634c-.165.308-.338.614-.51.923a3.519,3.519,0,0,1-.4.591,2.651,2.651,0,0,1-.555.468,1.611,1.611,0,0,1-.725.136c-1.126-.364-.729-1.152-.532-1.89a5.742,5.742,0,0,1,.317-.728c.591-1.182,1.291-2.353,0-4.168.01,1.815.5,3.282-.6,4.4-2,1.143-3.724-.492-4.376-1.484-1.389-2.112-3.55-2.682-5.386-3.89a5.42,5.42,0,0,0-1.1-.39c-1.507-.552-.121-2.453-1.083-2.771-1.055-.348-2.426.243-2.375-1.675.024-.929-.869-.515-1.3-.57-1.17-.151-2.391-.022-2.834-1.532-.149-.5-.744-.942-1.139-.63-1.905,1.5-3.469-.257-5.158-.5-1.625-.231-2.953-1.089-2.821-3.153.077-1.215-.533-1.9-1.833-1.5a1.538,1.538,0,0,1-1.635-.237c-2.1-1.833-1.125,2.258-2.718,1.418a24.12,24.12,0,0,1-5.891-4.186,7.718,7.718,0,0,1-4.387-3.593,1.166,1.166,0,0,1,.346-1.328c1.16-.908,1.723-1.772-.128-2.519-.492-.2-.865-.5-.754-1.088.149-.783.841-.711,1.4-.781A3.839,3.839,0,0,1,20.2,36.457c.712-2.162-.6-3.1-2.218-2.945-6.474.626-7.051.121-5.982-6.159.033-.193.054-.389.079-.584a31.888,31.888,0,0,1,.529-3.221c.212-.668.533-1.476,1.284-1.471.853.006.88.915,1.011,1.576s-.2,1.4.329,2c-.013.4.66.076.267.127-.172.022-.2-.053-.233-.19-.432-1.842,1.778-2.245,2.006-3.722a5.563,5.563,0,0,1,.407-.7,1.669,1.669,0,0,0,.223-1.118c-.137-.91-1.009-2.107.079-2.646,1.12-.555,1.889.68,2.573,1.464,1.062,1.218,1.651,2.789,2.851,3.943-.535-1.177-1.428-2.23-.91-3.641.292-.665,1.479-.281,1.483-1.247-.009.028.02-.192.02-.192s-.169.113-.186.132A3.909,3.909,0,0,1,22.14,19.18c-1.047-1.629-4.067-1.414-3.9-4.177.7-.748,1.745.034,2.588-.635-.949-2.118-3.447-3.815-2.6-6.435a3.689,3.689,0,0,1,3.187-2.555,2.682,2.682,0,0,1,.566.024c2.544.338,2.7-1.635,3.174-3.29.74-.93,1.917-.524,2.834-.92" fill="#e8d3a7"/><path d="M79.073,37.523c2.7,1.574,5.494,3.007,7.586,5.453a73.241,73.241,0,0,1,6.828,8.7,7.308,7.308,0,0,1,.708,2.536c.369,1.711-.613,2.792-2.454,3.125-1.5.272-3.206.264-3.748,2.2-1.216.158-1.6-.823-1.66-1.6-.159-2.051-1.311-3.607-2.257-5.277-.111-.266-.117-.716-.289-.8-3.554-1.679-2.579-5.325-3.569-8.11-.751-1.7-2.292-2.593-3.609-3.765-3.029-2.7-5.888-5.585-8.986-8.21a4.865,4.865,0,0,1-.611-.536c-.352-.4-.657-.846-1.046-1.219-3.811-1.948-6.712-5.162-10.324-7.388a2.249,2.249,0,0,1-.584-.6.981.981,0,0,1,.222-1.149c2.083-.027,3.383,1.385,4.723,2.649,3.009,2.84,6.607,4.8,10.087,6.948a34.968,34.968,0,0,1,6.6,5.26c.568.9,1.89.784,2.381,1.784" fill="#f3e8d0"/><path d="M25.486,47.694c.57-1.153.194-2.92,2.222-3.24.278.442.559.95.9,1.414.263.358.621.486.951.053.3-.393.772-1.515,1.012-.774.379,1.175,3.23.768,1.751,2.934-.567.832.276,1.974.771,1.893,1.309-.214,2.118,1.663,3.468.661a.759.759,0,0,1,.542-.179c1.784.537,1.859.541,3.343-.195a1.582,1.582,0,0,1,1,1.362c.214,1.037.182,1.809,1.735,1.129.644-.282,1.831,1.007,2.7-.257a5.006,5.006,0,0,1,.381.726c.234.851-1.355,1.073-.748,2.011s1.319-.5,2.092.028c.374.259,1.074.045,1.624.045-.015.313.054.568-.044.692-1.422,1.807-1.386,1.658.73,2.268.868.25,1.45,1.287,2.427,1.73,1.164.527,2.889.686,2.757,2.657-.011.164.168.353.286.51.727.96,1.391-.555,2.071-.069.511.365-.2,1.788,1.206,1.421.078-.02.129-.144.193-.22.654-.318.959.063,1.189.6v.6c-1.645.841.086,1.837-.123,2.747A1.832,1.832,0,0,1,57.823,70c-4.668-2.275-8.347-5.987-12.668-8.776-.8-.517-1.507-1.216-2.366-1.683h0c-1.172-1.292-3.028-1.629-4.154-2.985-.989-.423-1.976-.848-2.967-1.267-.811-.343-1.8-.556-2.243-1.327-1.721-2.989-4.637-4.39-7.5-5.889a2.556,2.556,0,0,1-.443-.382" fill="#ead8b1"/><path d="M17.755,21.385c-.014.914.382,2.028-.643,2.421-1.827.7-1.523,1.875-.706,3.331-2.314-.922-2.017-2.9-2.324-4.595-1.744,1.094-.322,3.161-1.613,4.274a1.335,1.335,0,0,1-1.322.916,1.194,1.194,0,0,1-.7-.421A19.084,19.084,0,0,1,9.5,20.337c.071-1.148.5-2.641-.941-3.489-.951-1.106-2.716-1.766-2.069-3.75A2.918,2.918,0,0,1,7.7,11.93C9,9.045,9.731,8.666,12.506,10.06c2.158,1.084,4.584,1.851,6.04,4.025a.77.77,0,0,1-.133.836c.04.6.209,1.409.752,1.439,1.853.1,2.447,1.611,3.413,2.723.815.773-.035,2.638,1.96,2.768.52.034.241,1.394-.163,1.778a1.285,1.285,0,0,1-1.846-.292,18.98,18.98,0,0,1-1.76-2.986c-.574-1.195-1.571-1.9-2.789-3.09a5.4,5.4,0,0,0,.9,2.9c1.226,1.717-.438,1.083-1.121,1.224-1.263.123-.377-3.785-3.155-1.669,1.248.615,2.51.688,3.155,1.669" fill="#e6d0a1"/><path d="M84.425,52.4c1.339,1.487,2.726,2.907,2.48,5.208a2.283,2.283,0,0,0,1.089,1.931c0,.4,0,.793,0,1.189a1.641,1.641,0,0,0-.377.638c-.041.12-.084.238-.125.357a2.785,2.785,0,0,0,.792,2.814c2.44,3.3,2.319,4.678-.621,7.093-1.553-.221-2.9-1.192-4.56-1.134-1.012.035-1.389-.963-1.86-1.719-1.435-2.308-3.951-3.549-5.612-5.649-.419-.529-1.211-.445-1.958-.519.539.8,1.508,1.484.575,2.536a2.2,2.2,0,0,1-3.06-.85,21.281,21.281,0,0,0-2.4-2.578c-1.023-1.734-2.992-2.628-3.952-4.422-.582-1.071-1.094-2.277.068-3.153.956-.721,1.811.209,2.577.767,1.424,1.039,3.119,1.578,4.58,2.539a1.952,1.952,0,0,0,.807.087c.132-.041.263-.079.395-.119a1.931,1.931,0,0,1,.822-.008,2.2,2.2,0,0,1,.7.429c1.478,1.451,3.512,2.167,4.331,4.525.615,1.768,2.6,1.45,3.535-.274.562-1.042.569-2.264,2.106-2.906.956-.4.076-2.128-.218-3.223-.32-1.189-1.258-2.328-.124-3.559" fill="#f0e3c8"/><path d="M11.28,27.411l1.189-.595c.623,1.1-.112,2.079-.287,3.111-.362,2.143-.139,2.515,2.139,3.451,1.334.549,2.626.97,3.07-1.13.137-.643.738-.509,1.149-.12.352.334.591.909.992,1.044.806.272,1.842,1.017,1.739,1.375a7.391,7.391,0,0,0-.135,3.246c.037.25-.274.539-.608.53a.813.813,0,0,1-.8-.721c-.371-2.268-1.836-3.068-3.957-3a.652.652,0,0,0-.645.5c.112.133.224.382.338.384.865.009,2.129-.179,2.04.954-.065.825.455,2.592-1.549,2.513-.4-.016-.477.547-.519.942a1.555,1.555,0,0,1-2.325.142c-1.472-1.711-3.783-1.8-5.435-3.092-1.348-.857-2.475-2.088-4.12-2.443-.585-.4-1.229-.708-1.78-1.159l-.007,0a6.15,6.15,0,0,0-.645-.549C-.672,30.942.1,28.871.62,26.821c1.885.6.332,1.807.795,2.432.805-1.164-.624-4.078,2.393-4.43.484.532.71.654,1.4-.037.943-.945,2.271-1.383,1.829.955a19.565,19.565,0,0,1-1.491,2.887A2.057,2.057,0,0,0,6.2,31.5c.959.737,1.652-.09,2.307-.649a20.742,20.742,0,0,0,2.774-3.444" fill="#e6d1a1"/><path d="M62.421,30.98c-.966-.269-1.287,1.476-2.306.805a6.343,6.343,0,0,1-2.349-3.315c-1.154-3.294-1.642-3.633-4.929-2.835a1.758,1.758,0,0,1-.818.077,1.646,1.646,0,0,0-1.8.56c-.126-3.239-1.173-5.655-4.019-7.093.112,3.608.112,3.608-3.843,2.5,1.144-1.512,2.7-2.555,3.7-4.307-.367-.521-1.372-.29-1.754-1.3-.338-.889-.757.114-.916.628-.991.055-1.337-1.119-2.273-1.184-.991-.069-1.226-.714-1.305-1.6-.138-1.563-.38-3.075-2.646-2.471-.352.094-.693-.713-.551-.871,1.337-1.485-.16-2.644-.378-3.938l4.18,3.519c.545.466,1.221.739,1.767,1.2l-.005.025c.814,1.011,1.446,2.249,2.97,2.366l.008,0a14.179,14.179,0,0,0,5.355,4.5,15.445,15.445,0,0,1,4.771,3.8h0c1.267,1.573,3.2,2.473,4.282,4.23a1.018,1.018,0,0,1-.275.686c.189-.027.139-.261.283-.328a.887.887,0,0,1,.687.163,2.483,2.483,0,0,1,.663,1.626c-.117.645.357.591.762.627.688.474,1.141,1.034.733,1.919" fill="#e9d6ad"/><path d="M98.669,83.656c-4.363,0-4.28.536-2.736,1.383.435.239,3-.1,3.166-.483.229-.546.346-1.467-.319-1.493-1.382-.056-.834-.721-.892-1.5-.094-1.252-.433-2.429-2.272-2.484a4.265,4.265,0,0,1-3.3-2.213,1.146,1.146,0,0,1,.122-1.395c.473-.459.918-.124,1.229.284.955,1.251,2.343.268,3.487.931-.5-1.393-2.825-1.56-1.783-3.52a7.519,7.519,0,0,1,4.788,8.51c.619.7,1.507-.409,2.165.311.506.554.523,1.269.808,1.891a3.018,3.018,0,0,1-1.009,3.93c-1.335,1.05-2.7,1.964-4.509.691a25.983,25.983,0,0,0-3.444-1.647c-2.229-1.108-3.212-3.1-3.712-5.4a1.715,1.715,0,0,1,.557-1.879c.615-.463,1.071-.016,1.586.29.843.5,1.734.924,6.072,3.8,3.51,2.718,3.911,2.919,4.188,3.243a26.739,26.739,0,0,0-4.188-3.243" fill="#fbf8f2"/><path d="M85.611,75l2.379,2.976a.826.826,0,0,1,0,1.191v0a7.9,7.9,0,0,0-.144,4.266c.394,3.264.027,3.827-3.429,4.659h0a1.01,1.01,0,0,0-1.053-.29,5.341,5.341,0,0,1-6.458-1.628c-.755.084-.874-1.467-1.887-.724a1.556,1.556,0,0,1-.678-.106,2.767,2.767,0,0,1-.684-.747c-.143-.163-.284-.33-.435-.486-.25-.2-.507-.4-.742-.62a1.016,1.016,0,0,1-.153-.594c.1-.333.008-.543-.391-.552a1.381,1.381,0,0,1-.926-.991,1.75,1.75,0,0,1,.079-.771,1.64,1.64,0,0,1,.563-.572c1.787-.684,3.115.449,4.331,1.341,2.327,1.706,4.56.255,6.5-.368,2.175-.7,2.358-3.085.9-5.017a2.414,2.414,0,0,1-.52-2.458.694.694,0,0,1,.983-.331,4.678,4.678,0,0,1,.838.739A5.911,5.911,0,0,1,85.611,75" fill="#f0e4c9"/><path d="M6.49,13.1c.375,1.489,1.819,2.263,2.409,3.608,1.4,2.89-.957,4.6-2.263,6.473-.827,1.186-2.428,1.14-3.686.065.728-1.055-.314-1.506-.69-2.237-.72-1.4-2.29-2.4-1.8-4.427.315-1.3.7-2.128,2.093-2.4,1.331-.266,2.626-.711,3.937-1.078" fill="#efe1c4"/><path d="M71.337,80.955c0,.2,0,.393,0,.59.2.192.392.4.594.6.477.257.267.858.6,1.19.314.362.864.254,1.189.6.341.325.233.874.594,1.19.793.2,1.46.9,2.38.594,1-.552,2.056-.71,2.26.686.261,1.8,1.064,1.679,2.44,1.252a2.7,2.7,0,0,1,3.029.445,8.071,8.071,0,0,0-3.18.552c-2.226.713-4.023.076-5.938-1.353-2.678-2-4.451-4.984-7.476-6.545a2.592,2.592,0,0,1-.946-.7c-2.752-3.941-7.027-6.1-10.57-9.116-.738-.628-1.846-.821-2.222-1.874,1.219-.833,2.071.14,3.024.611a5.359,5.359,0,0,0,.617.351c.315.154.659.24.984.374a5.664,5.664,0,0,1,.635.313,9.206,9.206,0,0,1,1.5,1c.366.319.7.669,1.063.99.275.214.555.422.841.621a3.117,3.117,0,0,1,.52.447c.154.167.3.343.446.517.243.243.5.477.747.711.342.316.69.625,1.061.907a8.935,8.935,0,0,1,.815.676c.423.394.826.808,1.243,1.207.169.142.332.3.5.442.181.123.357.253.54.374s.374.227.555.35.357.255.528.392c.09.063.175.133.264.2.276.185.549.375.808.585a3.453,3.453,0,0,1,.556.833" fill="#f5ecd8"/><path d="M2.95,23.244c2.45.559,3.833-.723,4.608-2.817.458-1.234,1.763-2.173,1.341-3.721.693-.163,1.66-1.311,1.48.759-.229,2.642-.834,5.372.465,7.953.345.685-.212,1.319-.158,1.993-2.971,1.028-3.9.632-4.165-1.785-.023-.349.7-1.009-.234-.951-.466.029-.866.7-1.351.985-.719.426-.726-.178-.8-.637-.692-.7-1.753.046-2.451-.628A1.209,1.209,0,0,1,2.95,23.244" fill="#e9d6ad"/><path d="M18.409,14.339A35.537,35.537,0,0,0,13.4,11.327a17.729,17.729,0,0,0-3.243-1.276c-1.8-.472-1.143,1.931-2.455,1.879-.008-1.34.009-2.671,1.258-3.568.856-.724,1.734-1.337,2.894-.606-.083.36-.349.806.007,1.056.284.2.815.046,1.108.241,1.095.729,2.238.171,3.353.225a7.818,7.818,0,0,0,1.5-2.091,16.717,16.717,0,0,0,1.794,5.151c.556,1.091,1.009,2.44-1.21,2" fill="#f7f0e1"/><path d="M57.67,70.237l-3.58-1.181c-2.633-2.6-5.761-4.566-8.7-6.773a9.472,9.472,0,0,1-2.6-2.74c.389.026.942-.1,1.144.1,2.043,2.116,4.966,2.936,7.1,4.949a38.94,38.94,0,0,0,4.892,3.57c.641.438,1.426.673,1.746,1.479.147.133.2.265.145.4s-.1.2-.15.2" fill="#f1e5cc"/><path d="M85.611,75l-1.184-.6c-.188-.206-.394-.4-.594-.59l-.6-.592a1.239,1.239,0,0,1-.245-.955c1.11-2.185,2.825-1.173,4.412-.834,1.576-.824,1.363-2.651,2.164-3.916.261-.412-.167-.9-.512-1.248A2.8,2.8,0,0,1,87.976,64.3l-.214-.309L88,63.7c.642.744,1.293,1.481,1.926,2.233,1.951,2.318,1.284,4.869-1.533,5.865a6.957,6.957,0,0,1-.859.214c-2.414.523-2.414.522-1.918,2.994" fill="#f6eedd"/><path d="M84.421,88.092a8.741,8.741,0,0,1,1.469-.974c1.5-.618,1.6-1.72,1.359-3.119-.282-1.664-.875-3.437.745-4.833.391,1.824.913,3.631,1.141,5.475.344,2.777-1.818,4.3-4.714,3.451" fill="#f5ecd8"/><path d="M18.409,14.339c1.632-.27,1.289-1.325.68-2.154a6.78,6.78,0,0,1-1.264-5c.716-.605,1.435-1.207,2.146-1.818.49-.421.967-.576,1.446.009-3.652,2.877-3.752,3.986-.662,7.415a6.506,6.506,0,0,1,1.691,2.165c-1.384,1.01-2.706.546-4.032-.037,0-.194,0-.388,0-.582" fill="#ebd9b4"/><path d="M7.681,36.948c2.063.6,4.467.363,5.817,2.658.331.562,1.273.257,1.943.291.272.08.711.082.791.251.718,1.538,2.143,2.342,3.364,3.359a3.593,3.593,0,0,1-2.472-.7c-1.373-1.157-3.066-1.612-4.638-2.337a3.613,3.613,0,0,0-2.409-1.744,3,3,0,0,1-2.4-1.779" fill="#ecdbb7"/><path d="M98.685,72.033c-1.964-.958-2.046-1.19-.763-2.482a6.358,6.358,0,0,1,1.36-1.065c.749-.422,1.6-.962,2.385-.171a1.564,1.564,0,0,1-.009,2.518c-1.287-.334-2.033.673-2.973,1.2" fill="#fbf7ef"/><path d="M13.662,3.618C14.168.985,15.041.111,17.4.066A6.078,6.078,0,0,1,20.42.329c-.735,1.579-2.535.257-3.5,1.413-.752.9-2.154,1.266-3.267,1.87Z" fill="#f7f0e1"/><path d="M1.685,24.4c.921-.2,2.09-1.361,2.451.629-2.4.757-1.707,3.246-2.7,4.813-.657-.909.215-2.224-.814-3.016a1.039,1.039,0,0,1-.08-.545A.4.4,0,0,1,.6,25.668l.013-.027c.175-.224.373-.43.526-.671l.543-.575" fill="#e1c58a"/><path d="M25.567,1.811c-.006.585.023,1.173-.024,1.755C25.364,5.8,24.411,6.283,21.983,5.4c1.252-.7,1.736-1.994,2.315-3.172.286-.583.578-.958,1.219-1.021a.382.382,0,0,1,.167.391c-.034.141-.073.212-.117.212" fill="#eddebd"/><path d="M50.527,18.488a6.619,6.619,0,0,1-5.368-4.732,38.53,38.53,0,0,1,5.373,4.129c.179.135.238.27.177.4s-.121.2-.182.2" fill="#edddbc"/><path d="M11.855,7.755c-1.013-.028-1.847.8-2.894.607q-.021-.578-.044-1.154c.348-.328.227-.888.6-1.205l-.008.008a3.008,3.008,0,0,1,.651-.577,2.164,2.164,0,0,0,.528-.108c.754-.234,1.572-.574,1.972.473a1.461,1.461,0,0,1-.8,1.962Z" fill="#e0c588"/><path d="M86.888,95.052a1.081,1.081,0,0,1-.976-.639c-.2-.449.033-.706.424-.9.6-.305,1.183-.648,1.784-.953.562-.286,1.149-.391,1.483.292a1.064,1.064,0,0,1-.366,1.3,6.894,6.894,0,0,1-2.349.9" fill="#f6eedc"/><path d="M50.527,18.488c0-.2,0-.4.005-.6,1.707.8,3.487,1.488,4.748,3q0,.588.005,1.174c-1.941-.715-3.171-2.381-4.758-3.569" fill="#efe1c4"/><path d="M92.579,90.717a3.7,3.7,0,0,1-1.227-2.083c-.162-.592.282-.888.765-1.011a.818.818,0,0,1,1.116.6,2.185,2.185,0,0,1-.654,2.494" fill="#f8f2e5"/><path d="M11.855,7.762c.888-1.981.862-2.036-1.17-2.435a3.528,3.528,0,0,1,2.382-1.112l-.007-.007A12.438,12.438,0,0,0,13.227,6.2c.3,1.24-.369,1.524-1.372,1.567" fill="#f7f0e1"/><path d="M38.638,56.559c1.477.865,3.327,1.211,4.154,2.985-1.584-.718-3.408-1.1-4.154-2.985" fill="#f1e5cc"/><path d="M79.073,37.523c-.271-.093-.575-.316-.805-.256-1.4.362-1.669-.383-1.576-1.528,1.272-.042,2.558-.107,2.381,1.784" fill="#faf4ea"/><path d="M45.151,13.754c-.6.186-1.236.805-1.763-.1-.43-.74-1.214-1.293-1.207-2.266l2.97,2.366" fill="#edddbc"/><path d="M98.685,72.033c.929-1.745,1.327-1.906,2.973-1.2-.934.542-1.7,1.493-2.973,1.2" fill="#f4ead5"/><path d="M25.567,1.811c-.016-.2-.033-.4-.049-.6l.034.028a2.235,2.235,0,0,1,.631-.478,1.715,1.715,0,0,1,.535-.013c.384.236.872.179,1.245.445h.027c-.55,1.215-1.389,1.3-2.423.62" fill="#dbba75"/><path d="M10.077,38.727c1.287-.086,2.281.231,2.409,1.745l-2.409-1.745" fill="#f3e8d0"/><path d="M1.781,33.346a1.88,1.88,0,0,1,1.779,1.16,1.681,1.681,0,0,1-1.779-1.16" fill="#efe0c0"/><path d="M42.186,11.362a1.819,1.819,0,0,1-1.768-1.2,1.757,1.757,0,0,1,1.768,1.2" fill="#f0e4c7"/><path d="M88,61.322q0,1.187,0,2.374l-.017.011c-1.558-.464-.817-1.487-.58-2.388a.393.393,0,0,1,.6,0" fill="#f6eedd"/><path d="M87.993,79.168l0-1.191c.606.4.6.792,0,1.191" fill="#f5ecd8"/><path d="M27.963,1.19A1.273,1.273,0,0,1,26.718.744a1.047,1.047,0,0,1,1.245.446" fill="#e8d3a7"/><path d="M9.514,6a1.352,1.352,0,0,1-.6,1.205A1.118,1.118,0,0,1,9.514,6" fill="#f7f0e1"/><path d="M88,61.322l-.6,0,.6-.6c0,.2,0,.4,0,.6" fill="#f3e8d0"/><path d="M1.129,32.794l.646.549-.646-.549" fill="#efe0c0"/><path d="M.6,25.667c-.022.2-.041.405-.063.607a2.939,2.939,0,0,1-.165-.463c-.007-.031.147-.1.228-.144" fill="#e6d1a1"/><path d="M1.142,24.969c-.176.224-.351.448-.527.671.176-.223.351-.447.527-.671" fill="#e6d1a1"/><path d="M10.157,5.435l-.651.576a.822.822,0,0,1,.651-.576" fill="#f7f0e1"/><path d="M13.067,4.214l.595-.6-.006-.007-.6.6.007.007" fill="#f7f0e1"/><path d="M26.184.759l-.632.478a.556.556,0,0,1,.632-.478" fill="#e8d3a7"/><path d="M72.53,58.345C70.477,57.3,68.164,56.73,66.491,55c-.337-.349-.744-.772-1.256-.509-.489.252-.487.826-.367,1.3a10.94,10.94,0,0,0,.529,1.359c.9,1.181-1.222,2.193-.179,3.374.471.9,1.156.545,1.823.307a1.946,1.946,0,0,1,1.921.489c1.032.507,2.149.918,2.554,2.16.463,1.416,1.593,1.482,2.8,1.407a6.025,6.025,0,0,1,3.274,2.668,11.039,11.039,0,0,1,.969,1.573c-.185.573.245.5.576.543a2.016,2.016,0,0,1,.562,1.045c.4,2.164.851,4.337-1.025,6.116a7.87,7.87,0,0,1-5.3-6.527,18.7,18.7,0,0,0-.159-2.94c-.321.89-.641,1.917-1.914,1.777a1.71,1.71,0,0,1-1.586-1.517c-.4-2.432-1.914-3.283-4.228-3.016-1.183.247-1.663-1.873-3.063-.909a10.084,10.084,0,0,1,.444-3.484,2.041,2.041,0,0,0-1.246-2.882c-.55-.21-1.225-.477-1.316-1.083a7.476,7.476,0,0,1-.129-3.454,2.711,2.711,0,0,1,3.2-1.918c1.2.233,1.082-1.579,2.392-1.613.014.981-.908,2.168-.037,2.932A7.549,7.549,0,0,0,68.555,53.5c1.125.333,1.577-.153,2.089-1.908a3.54,3.54,0,0,1,1.9,3.681,1.831,1.831,0,0,0,.578,1.876l.23.3-.222.3h0a7.072,7.072,0,0,0-.6.591" fill="#e9d6ad"/><path d="M74.314,57.747h-.593a3.7,3.7,0,0,1-.6-.591l0,0c0-.984.009-1.968,0-2.953a5.26,5.26,0,0,0-1.249-3.825c-1.245-1.2-1.592-2.343-.869-3.867.457-.964-.2-1.445-.861-1.919a1.27,1.27,0,0,1-.453-1.577c.34-.836.872-.273,1.422-.138,1.316.324,1.191-.742.969-1.4a5.941,5.941,0,0,1-.146-4.539l.4-.123a17.9,17.9,0,0,1,6.23,5.854c1.038,1.349,1.943,2.719,1.234,4.561-.173.451-.163,1.171.239,1.379,2.608,1.346,1.152,3.842,1.7,5.758a1.691,1.691,0,0,1-1,2.187c-.831.366-1.866.742-2.469-.035-.913-1.176-1.352-1.227-1.99.17a1.881,1.881,0,0,1-1.954,1.058" fill="#e9d6ad"/><path d="M60.637,28.6a4.038,4.038,0,0,1-.6-1.785,16.667,16.667,0,0,1,6.692,4.269,9.768,9.768,0,0,0,1.71,1.616c.953.785,1.612,1.876,2.822,2.409.676.3,1.348.882.671,1.817l0,.011a2.4,2.4,0,0,0-1.926.526c-.451.465-.636,1.295-1.563,1.144-.621-.661.29-.968.366-1.472.212-1.423-.327-2.054-1.841-1.739-.983.2-1.342-.25-1.467-.927a22,22,0,0,1-.184-2.89c-1-.375-.977.959-1.686.891-.858-.083-.487-1.248-1.211-1.49-.353-.625-.522-1.371-1.19-1.785a.7.7,0,0,1-.594-.595" fill="#ebd9b4"/><path d="M62.421,63.7c.841-.43.345-1.5,1.2-2.25.342,1.166.5,2.43,1.772,2.845.767,1.37,1.323,2.677-.92,3.18-.108.025-.193.106-.039.483a2.2,2.2,0,0,1-.4,2.4c-2.777,1.742-2.743-1.429-4.026-2.3-.336-.711.167-1.038.632-1.383.2-.192.4-.391.594-.594.371-.311.235-.874.6-1.19,0-.2,0-.4,0-.6A6.178,6.178,0,0,0,62.421,63.7Z" fill="#ead8b1"/><path d="M60.042,64.888l-1.189-.6a2.175,2.175,0,0,1,.477-1.355c.175-.214.408-.422.225-.751-.869-1.567-.87-1.57.549-2.659a5.94,5.94,0,0,1,.724-.374c.548,2.084,1.227,4.043-.786,5.734" fill="#e9d6ad"/><path d="M24.362,17.3c.194,1.733.194,1.733-1.784,1.785A1.674,1.674,0,0,1,24.362,17.3Z" fill="#e6d0a1"/><path d="M60.637,66.673l-.6,1.19a.359.359,0,0,1-.594,0c-.365-.934-1.316-2.014.594-2.38-.3.647-.455,1.22.6,1.19" fill="#e9d6ad"/><path d="M24.362,17.3c.231-.375.507-.616.932-.258a.3.3,0,0,1,.076.27C25.036,17.846,24.7,17.305,24.362,17.3Z" fill="#e6d0a1"/><path d="M61.826,64.888a1.227,1.227,0,0,1-.6,1.19,1.23,1.23,0,0,1,.6-1.19" fill="#e9d6ad"/><path d="M61.231,66.078l-.594.595.594-.595" fill="#e9d6ad"/><path d="M62.421,63.7l-.594.595.594-.595" fill="#e9d6ad"/><path d="M43.391,16.7c.082.045.24.107.234.133C43.582,17.033,43.49,16.986,43.391,16.7Z" fill="#e9d6ad"/><path d="M74.314,57.747c1.7-.667,1.593-2.863,2.964-3.719.682.136.563.6.625.945.227,1.269.853,1.582,2.118,1.177,1.119-.359,1.316-.762.995-1.915-.263-.944-.845-2.044.05-3.1.375-.44.125-1.008-.513-1.049a1.68,1.68,0,0,1-1.65-2.259c.852-2.026.139-3.474-1.022-4.95,1.216-.928,2.15-.447,2.972.6a6.144,6.144,0,0,1,.708,3.615c-.321,1.923-.164,1.9,2.074,2.765,1.224.472.646,1.654.789,2.543-.4,1.982,1.495,3.406,1.3,5.357-.046.458.274.943.285,1.42.037,1.475-.237,1.594-2.14.837.511,2.335-1.682,3.364-2.131,5.273-1.09-.3-1.079-1.812-2.4-1.621-1.184.17-1.5-.7-1.447-1.722a1.765,1.765,0,0,0-1.846-2.132c-1.141-.1-1.637-.964-1.727-2.061" fill="#eddebd"/><path d="M80.853,43.473a4.88,4.88,0,0,0-2.972-.6c-1.515-2.451-3.961-3.97-5.944-5.952a16.628,16.628,0,0,0-4.164-3.569,2.054,2.054,0,0,1,0-2.374c1.5,1.146,2.588,2.773,4.476,3.491,1.233.469,1.3,2.049,2.493,2.947,1.97,1.479,4.194,2.866,5.656,4.992a5.807,5.807,0,0,1,.455,1.06" fill="#efe2c5"/><path d="M67.773,30.983v2.374A7.706,7.706,0,0,1,66,30.756c-.145-.362-.321-.939-.685-.807-2.148.778-2.727-1.139-3.857-2.124a16.977,16.977,0,0,0-1.414-1.009c-.2,0-.392-.007-.588-.007v0c-.375-1.052-1.561-1.167-2.2-1.907-.76-.874-1.94-1.46-1.964-2.843,2.177.241,3.5,1.963,5.085,3.128,1.862,1.371,3.442,3.116,5.709,3.908.222.078.339.456.5.694.356.319.229.88.6,1.193.2,0,.395,0,.593,0" fill="#efe1c4"/><path d="M67.179,30.98a1.229,1.229,0,0,1-.6-1.193,1.246,1.246,0,0,1,.6,1.193" fill="#efe2c5"/><path d="M59.447,67.863h.594c1.132.037,1.628.691,1.852,1.746.214,1.006.907,1.058,1.715.634,3.1,1.187,4.5,4.3,6.864,5.7-.5-1.447-.141-2.492,1.335-2.874,1.648-.426,1.791.694,1.859,1.867.023.388.078,1.052.514.846,2.625-1.238,3.215,1.7,5.127,2.374-.2-.606-.817-.843-.831-1.368,1.173-2.093.673-4.339.6-6.546a.925.925,0,0,1,.723-.3c1.234.779,2.62,1.365,3.424,2.691,0,.194,0,.388.013.582.071.933-.114,1.78,1.01,2.5,1.582,1.017,1.619,2.149.745,3.8-.5.933-1.971,1.14-1.754,2.7.07.5-.954.141-1.509.126-.812-.022-2-1.49-2.485.594-.108.464-1.429.177-2.087-.113a12.227,12.227,0,0,1-2.78-1.635,4.135,4.135,0,0,0-3.03-.832c-.118-.048-.236-.095-.355-.141q-.324-.2-.628-.438c-.091-.089-.181-.181-.272-.27a4.324,4.324,0,0,0-2.061-1.64,3.138,3.138,0,0,1-.636-.449A7.569,7.569,0,0,0,65.6,76a2.942,2.942,0,0,1-.862-.642c-.139-.179-.285-.356-.438-.523-.089-.064-.179-.132-.269-.2a5.186,5.186,0,0,1-1.014-.832l0,0c-.276-.249-.646-.384-.858-.709a4.764,4.764,0,0,0-1.623-1.514c-.449-.5-1.191-.345-1.682-.752-.314-.36-.865-.254-1.186-.6h0c0-.2,0-.395.006-.592a1.667,1.667,0,0,0,1.772-1.782" fill="#ebdab6"/><path d="M6.521,25.626c.056.7.174,1.381,1.037,1.487,1.04.128,2.085.2,3.128.3h.594a2.709,2.709,0,0,1-1.18,2.8A12.9,12.9,0,0,0,7.686,32.6c-.273.314-.448.63-.9.515-1.8-.454-3-3.579-1.766-5,.676-.776.681-1.868,1.506-2.489" fill="#e8d3a7"/><path d="M17.772,21.5c-1.446-.375-2.863-1.062-4.429-.924-.17-.969.438-1.349.995-1.729.284-.193.884.067.922-.448.042-.557-.308-1.293.535-1.424,1.074-.166.8.92,1.085,1.443a4.478,4.478,0,0,1,.892,3.082" fill="#e8d3a7"/><path d="M83.219,72.635c-1.327-.584-2.76-1.013-3.545-2.4a3.986,3.986,0,0,0-2.394-2.365c-.815-1.168-2.376-1.593-2.964-2.986.251-1.6-2.195-1.688-1.911-3.335,2.308.138,4.348.631,5.474,2.949.228.469.914.705,1.367,1.075,1.135.927,2.359,1.761,2.839,3.279.3.959.758,1.627,1.9.712.371-.3,1.635.493,3.417,1.862-1.446.219-3.21-.66-4.18,1.208" fill="#f3e9d3"/><path d="M64.8,60.724c-.9-.791-1.372-1.593-.027-2.4a1.4,1.4,0,0,0,.626-1.173c.746.7,1.252,1.62,2.252,2.107a2.24,2.24,0,0,1,1.312,2.063H66.584c-.635-.078-1.158-.492-1.785-.6" fill="#ead8b1"/><path d="M87.4,61.319c.079.824-.267,1.751.58,2.388.006.2.005.4,0,.594-1.458-.836-1.533-1.223-.579-2.982" fill="#f3e8d0"/><path d="M72.53,58.345l.6-.591-.6.591" fill="#eddebd"/><path d="M73.126,57.156l.6.591-.592.006c0-.2,0-.4,0-.6" fill="#eddebd"/><path d="M3.4,26.835l-.169.205c-.043-.079-.124-.161-.117-.235s.1-.138.158-.207c.042.079.085.158.128.237" fill="#e9d6ad"/><path d="M60.637,28.6l.594.595c-.09.467-.194,1.188-.8.834-.648-.38-.328-1.009.2-1.429" fill="#e8d3a7"/><path d="M59.454,26.809l-.225.775c-.547-.439,0-.562.225-.777v0" fill="#e8d3a7"/><path d="M53.943,23.943c-.074.02-.193.078-.213.054a.715.715,0,0,1-.084-.246c.074-.02.194-.078.214-.054a.722.722,0,0,1,.083.246" fill="#e8d3a7"/><path d="M102.857,86.9c-.388-.011-.776-.013-1.163-.034a1.077,1.077,0,0,1-1.136-1.339.966.966,0,0,1,.935-.932,1.073,1.073,0,0,1,1.332,1.141c.02.388.022.776.032,1.164" fill="#f8f1e2"/><path d="M76.693,85.709c-1.091,1-1.688.011-2.38-.6,1.071.121,1.185-1.126,1.967-1.4.975.51-.375,1.466.413,2" fill="#f1e5cc"/><path d="M72.53,83.33a1.23,1.23,0,0,1-.6-1.19c.508-.074.674-1.224,1.232-.652.748.768-.58,1.155-.637,1.842" fill="#f1e5cc"/><path d="M73.719,83.925a1.229,1.229,0,0,1-1.189-.6,1.228,1.228,0,0,1,1.189.6" fill="#f1e5cc"/><path d="M74.313,85.114a1.229,1.229,0,0,1-.594-1.19,1.228,1.228,0,0,1,.594,1.19" fill="#f1e5cc"/><path d="M71.935,82.14l-.593-.6.593.6" fill="#f1e5cc"/><path d="M71.337,80.955l-.594-.6.3-.229.3.226v0c0,.2,0,.4-.005.6" fill="#f1e5cc"/><path d="M83.832,73.809l.6.59-.6-.59" fill="#f3e9d3"/><path d="M67.773,77.381c1.833-.259,2.387,1.081,2.974,2.38a.832.832,0,0,1-1.191,0c-.187-.21-.406-.388-.6-.6-.2,0-.395,0-.593,0-.18-.216-.4-.4-.595-.592a.8.8,0,0,1,0-1.19" fill="#f0e4c9"/><path d="M60.637,71.432a1.683,1.683,0,0,1,1.789,1.782.351.351,0,0,1-.6.006,2.081,2.081,0,0,1-1.189-1.187q-.269-.2-.178-.4c.061-.132.121-.2.182-.2" fill="#f0e4c9"/><path d="M67.773,77.381c0,.4,0,.793,0,1.19a3.755,3.755,0,0,1-1.783-1.785l.273-.257c.765-.179,1.132.346,1.511.852" fill="#f1e5cc"/><path d="M64.8,75l.6.586c.075.1.15.2.226.3l-.231.3A1.091,1.091,0,0,1,64.2,75l.3-.248.3.245" fill="#f1e5cc"/><path d="M60.637,71.432c0,.2,0,.4,0,.6-.618-.361-1.37-.523-1.779-1.2.655.016,1.356-.1,1.783.6" fill="#f1e5cc"/><path d="M69.556,79.761h1.191a.377.377,0,0,1,.133.4c-.045.132-.089.2-.134.2l0,0a1.229,1.229,0,0,1-1.187-.6" fill="#f1e5cc"/><path d="M64.2,75a1.232,1.232,0,0,1-1.186-.6.813.813,0,0,1,1.189,0,.377.377,0,0,1,.133.4c-.045.132-.089.2-.133.2Z" fill="#f1e5cc"/><path d="M64.205,74.407H63.016c0-.2,0-.4,0-.6a1.228,1.228,0,0,1,1.187.6" fill="#f0e4c9"/><path d="M61.822,73.22l.6-.006.591.6a1.242,1.242,0,0,1-1.195-.592" fill="#f1e5cc"/><path d="M57.667,70.237a1.223,1.223,0,0,1,1.186.6,1.213,1.213,0,0,1-1.186-.6" fill="#f1e5cc"/><path d="M68.96,79.166l.6.6-.6-.6" fill="#f1e5cc"/><path d="M67.772,78.571l.595.592-.595-.592" fill="#f1e5cc"/><path d="M65.989,76.786c-.2-.2-.4-.4-.6-.6l0,0c.593-.2.753.04.593.595Z" fill="#f1e5cc"/><path d="M78.477,76.786a10.8,10.8,0,0,1,1.9.8c.594.389.5,1.008.09,1.537-.348.447-.836.63-1.224.143-.444-.555-1.461-.881-1.537-1.1-.882-2.617-2.337-2.26-4.163-1.077-.54.35-.946-.146-.906-.714.062-.935.884-1.82.148-2.846-1.045-.247-1.475.731-2.237,1.132.316,1.194,1.539,2.064,1.293,3.324l-8.227-7.737c.351-.8.921-1.572.009-2.407a1.969,1.969,0,0,1-.284-2.6c1.246.058.518,1.5,1.664,1.714.691-.73.286-1.754.4-2.652,2.448-.931,4.78.173,4.9,2.507.046.9.007,1.594.941,1.821,1.178.286,1.129-.745,1.4-1.443a1.625,1.625,0,0,1,1.082-1.246c.12,4.291,1,8.246,4.761,10.854" fill="#e9d6ac"/><path d="M64.8,60.724c.986-.975,1.545-.668,1.785.6-.088.463-.12,1.07-.779.946-.786-.148-.958-.836-1.006-1.541" fill="#e9d6ac"/><path d="M77.281,67.871c2.06-.49,2.228.936,2.394,2.365l-.6,0-.592-.594c-.363-.617-1.285-.855-1.2-1.774" fill="#eedfc0"/><path d="M78.48,69.645c-.046.083-.108.241-.135.235-.2-.043-.15-.135.135-.235" fill="#e9d6ac"/><path d="M65.991,76.783c-.2-.2-.4-.4-.594-.595,0-.2,0-.4,0-.6,1.067.234,2.211.363,2.375,1.793a4.107,4.107,0,0,0-1.782-.6" fill="#f0e4c9"/><path d="M70.746,80.355v-.6l.6.6Z" fill="#f0e4c9"/><path d="M64.205,75v-.6l.6.6Z" fill="#f0e4c9"/></g></g></g></g></g><g transform="translate(20.654 70.654) rotate(-21)"><g clip-path="url(#d)"><path d="M68.818,204.456A111.481,111.481,0,0,0,74.664,221.6c-.123.837-.247,1.673-.4,2.505-1.266,6.818-3.813,13.438-4.088,20.42-.027.533-.04,1.067-.04,1.6,0,5.274,1.2,10.478,2.339,15.611a86.7,86.7,0,0,0,9.253,24.147c3.351,6.438,6.506,13.127,10.92,19.012,2.748,3.779,5.419,7.688,8.9,10.843a40.223,40.223,0,0,0,18.349,9.453,60.494,60.494,0,0,0,9.438,1.262c.675-.025,1.612.167,2.085-.355-.169,4.4-.48,8.79-.958,13.17-.592,5.393-1.343,10.767-2.065,16.145a1.025,1.025,0,1,0,2.029.286c.5-3.729,1.019-7.457,1.476-11.191a198.208,198.208,0,0,0,1.69-28.715c.288-.12.562-.284.846-.409,6.638.51,12.3,2.7,18.773-.439a71.168,71.168,0,0,0,13.916-8.8,55.372,55.372,0,0,0,14.738-17.048,52.373,52.373,0,0,0,6.34-25.932c.3-11.144-1.616-22.177-4.453-32.919-2.531-9.068-5.983-17.838-7.418-27.192-.48-2.707-.891-5.426-1.371-8.133-.466-1.8-.937-8.026-3.237-8.065-1.8.051-1.878,3.549-2.383,5.063a90.428,90.428,0,0,0-1.855,12.163,171.776,171.776,0,0,0,.69,33.189c.813,7.93,2.232,15.873,1.779,23.87a62.686,62.686,0,0,1-23.741,44.682,54.186,54.186,0,0,1-8.52,5.6c-1.365.732-2.747,1.431-4.136,2.118q-.137-6.377-.629-12.741a11.818,11.818,0,0,0,1.372-1.8,64.657,64.657,0,0,0,10.14-12.07c6.78-11.839,9.6-25.517,11.292-38.93a57,57,0,0,0,.318-9.878c-.495-6.507-2.573-12.792-2.908-19.328-.3-4.289-.231-8.584-.162-12.881.061-3.64.119-7.283-.048-10.921-.265-7.326-1.174-14.61-1.614-21.927a123.932,123.932,0,0,1-.063-16.778c.07-1.531.153-3.067.169-4.6,0-.242,0-.489,0-.735a6.52,6.52,0,0,0-.478-3.121,1.3,1.3,0,0,0-2.142-.1c-.059.107-.109.219-.165.328a1.422,1.422,0,0,0-.142-.184c-1.164-.925-1.9.628-2.508,1.471-1.273,1.952-2.266,4.067-3.392,6.105-1.447,2.677-2.946,5.328-4.2,8.1-2.582,5.782-3.646,12.085-4.958,18.24-1.4,7.8-2.75,15.684-2.3,23.639,1.168,18.8,4.115,37.491,4.707,56.338.12,7.124.306,14.3-.844,21.359a63.021,63.021,0,0,1-2.724,10.495q-.533-5.092-1.254-10.158c-2.349-14.631-7.171-28.711-10.368-43.159-3.634-15.757-7.514-31.582-8.5-47.776-.249-5.1-.271-10.227-.205-15.352,2.309-.281,4.251-2.707,5.125-4.78,1.829-4.937,2.09-10.3,2.759-15.485a196.271,196.271,0,0,0,.66-25.981c-.209-4.379-.3-8.768-.794-13.125a19.14,19.14,0,0,0-1.065-4.977c1.689,0,3.376-.067,5.061-.209a232.154,232.154,0,0,0,38.638-6.71c10.314-2.916,23.433-6.018,29.555-15.581,2.763-4.335,3.985-9.433,4.7-14.469.3-3.039,1.3-6.53-.443-9.3-5.426-7.726-24.854,4.448-30.732,8.46-6.378,4.28-12.461,8.97-18.614,13.565a1.062,1.062,0,0,0-.208-.474,32.179,32.179,0,0,0-6.132-6.458c-.057-.033-.115-.072-.172-.112,6.152-6.219,12.156-12.579,17.742-19.317,7.262-8.712,15.309-17.114,20.285-27.415,3.13-7.04-.16-14.3-4.819-19.765-6.476-7.421-14.753-3.347-20.493,2.559-5.241,5.3-9.085,11.77-12.86,18.142-3.84,6.607-7.111,13.29-10.312,20.288-2.234,4.919-4.508,9.83-6.578,14.824a.975.975,0,0,0-.748-1.07,13.784,13.784,0,0,0-3.92-.348c2.927-11.387,5.9-22.771,8.351-34.27a102.3,102.3,0,0,0,2.147-18.492,30.33,30.33,0,0,0-.219-5.9C127.841,4.266,119,.362,113.05.033,99.142-.73,95.258,12.158,94.693,23.654c-.653,12.6-1.4,25.284-.208,37.874.316,3.553.844,7.08,1.449,10.594a1.067,1.067,0,0,0-.46.007,9.485,9.485,0,0,0-2.768,1.208c-2.562-10.712-5.054-21.451-8.131-32.027-1.4-4.892-2.634-9.838-4.354-14.629a108.647,108.647,0,0,0-5.55-11.318c-3.386-6.232-6.392-8.576-13.328-5.426a44.215,44.215,0,0,0-9.975,6.16,30.476,30.476,0,0,0-3.955,4.171A32.729,32.729,0,0,0,41.576,30.1c-2.774,9.753,3.26,18.992,8.485,26.757a108.094,108.094,0,0,0,6.578,8.9C61.5,71.613,67.216,76.687,72.3,82.346c.174.236.679.772,1.393,1.508a30.8,30.8,0,0,0-4.566,4.91c-1.967-1.8-3.9-3.642-5.892-5.358C52.318,73.847,39.445,66.977,27.7,58.517c-3.777-2.355-9.139-7.749-13.82-6.44-3.832,1.38-6.459,4.955-8.476,8.336A40.348,40.348,0,0,0,.065,78.192c-.044.509-.065,1-.065,1.48,0,9.557,8.593,13.1,16.7,15.936,7.83,2.81,15.709,5.558,23.785,7.585a87.969,87.969,0,0,0,12.438,2.088c1.963.224,3.943.342,5.926.441a12.384,12.384,0,0,0-.621,3.069H57.075c-9.947-.109-19.8-.874-29.725-1.788a101.879,101.879,0,0,0-13.832-.179,19.921,19.921,0,0,0-6.586,1.4c-4.2,1.558-5.663,5.824-5.479,10,.27,5.848,1.042,12.036,4.241,17.071,9.25,12.985,31.085,3.194,42.971-1.2,7.019-2.736,14.2-4.987,21.27-7.587C76.6,123.964,83.1,121.033,89.6,118.1l.055-.024c.012.078.022.156.035.233a5.385,5.385,0,0,1,.1,1.015c.22,2.168.476,4.329.791,6.485.637,4.3,1.339,8.588,2.214,12.845,1.044,5.215,1.391,10.553,2.691,15.725a43.76,43.76,0,0,0,3.519,9.282c2.282,4.586,5.445,10.83,10.52,12.756a1.02,1.02,0,0,0,.378.41q-.034,2.6-.038,5.205c0,5.22.139,10.441.624,15.644,2.074,19.423,7.018,38.413,11.7,57.337q.193.735.39,1.469l-1.628-1.273a60.42,60.42,0,0,1-5.985-9.226c-4.177-7.274-7.476-15.1-12.41-22.015-3.6-5.51-8.328-10.143-12.12-15.507a154.727,154.727,0,0,1-14.579-27.875c-2.4-6.41-4.863-12.855-8.514-18.675q-1.813-2.953-3.816-5.786c-.84-.951-2.3-3.884-3.749-2.292a1.605,1.605,0,0,0-.156.432.947.947,0,0,0-.587.927,1.89,1.89,0,0,0,.213.83,24.114,24.114,0,0,1,.7,2.583c1.282,6.393,1.689,12.924,2.852,19.337,1.5,8.945,3.708,17.75,6.01,26.518m94.749,84.451a65.647,65.647,0,0,0,8.52-29.656q.012-.617.012-1.234c0-7.289-1.248-14.515-1.972-21.754-1.3-12.458-1.659-25.136.05-37.577a109.826,109.826,0,0,0,.53,11.213c1.078,8.11,3.073,15.864,4.41,23.972a163.76,163.76,0,0,1,2.007,26.634c.161,8.1-.2,16.563-4.02,23.892a46.046,46.046,0,0,1-13.075,14.843c-3.448,2.55-7.213,4.634-10.893,6.829a67.582,67.582,0,0,0,14.431-17.162m-3.1,12.556c7.736-5.672,14.51-13.383,17.071-22.8a61.9,61.9,0,0,0,1.669-16c0-2.844-.078-5.691-.111-8.518-.137-5.453-.671-10.886-1.329-16.3-1-7.889-2.941-15.612-4.287-23.442a80.618,80.618,0,0,1-1.251-15.239c-.026-2.485-.149-4.966.024-7.447,1.534,7.477,2.336,15.108,4.447,22.464,1.468,5.241,3.369,10.357,4.808,15.609a131.527,131.527,0,0,1,4.373,23.581c1.255,17.245-.8,31-12.654,44.37a73.223,73.223,0,0,1-19.559,14.729c-5.113,2.781-9.821,2.282-15.322,1.272a131.237,131.237,0,0,0,22.121-12.282m-49.4-126.571c0,.007,0,.016.007.023a.274.274,0,0,0-.025-.023h.018m.075-62.453.222,0c0,.008-.006.014-.008.022.037,3.16.665,6.334.8,9.512.676,8.987.7,18.032,1.259,27.033.445,7.074.629,14.319-1.111,21.229a112.122,112.122,0,0,0-1.086-15.351c-.5-4.352-.8-8.72-1.235-13.079-.816-7.86-.761-15.787-1.862-23.621-.208-1.806-.513-3.6-.709-5.407,1.247-.12,2.5-.216,3.735-.336m-8.775,1.115h0a29.266,29.266,0,0,1,2.99-.545c.052.347.115.688.127.974a171.071,171.071,0,0,1,1.775,18.848c.581,10.651,1.933,21.24,2.89,31.857a63.948,63.948,0,0,1,0,7.772,5.121,5.121,0,0,0,.019,1.846c-.043-.049-.087-.1-.132-.143a13.957,13.957,0,0,1-1.868-2.81c-1.819-3.752-2.618-7.916-3.5-11.976-2.159-11.962-2.726-24.164-3.173-36.294-.049-2.111-.1-4.224.031-6.333.165-1.057.092-2.362.839-3.2m14.944,2.159a85.876,85.876,0,0,1,.975,11.464c.22,4.357.355,8.718.329,13.08a172.7,172.7,0,0,1-1.442,21.823c-.7,3.915-.691,8.32-3.257,11.594a6.407,6.407,0,0,1-.747.745,48.838,48.838,0,0,0,2.582-15.81c.1-4.313-.251-8.618-.5-12.919-.379-11-.7-22.015-1.878-32.966,0,.044,0,.088-.007.133-.007.028-.016.073-.023.115h-.006a1.04,1.04,0,0,0-.025-.619,5.114,5.114,0,0,1,3.067.65c.68.715.694,1.8.934,2.711m22.669-31.832c1.145,1.015,2.2,2.127,3.253,3.238a24.054,24.054,0,0,1,1.762,2.266,1.093,1.093,0,0,0,.352.293q-2.328,1.727-4.676,3.422a71.134,71.134,0,0,1-11.217,7.111,53.3,53.3,0,0,1-5.412,2.365,5.268,5.268,0,0,1-2.373.452c-1.974-1.419,5.243-8.151,6.421-9.367,3.59-3.535,7.188-7.067,10.746-10.639a12.127,12.127,0,0,1,1.144.859M118.05,71.552a4.732,4.732,0,0,0,.5-.061,11.883,11.883,0,0,1,3.452.284.971.971,0,0,0,1.012-.316q-1.076,2.621-2.06,5.278c-2.3,6.1-3.257,12.712-6.8,18.305-1.179-2.422-.31-5.258.087-7.787,1.11-5.15,2.463-10.536,3.814-15.7M93.4,75.295c.485-.269.962-.557,1.456-.811.431-.206,1-.292,1.4-.514.368,2.055.754,4.107,1.134,6.158.786,4.9,2.557,9.878,2.1,14.868-3.082-3.683-4.394-12.184-5.666-17q-.313-1.3-.624-2.593l.2-.112M75.021,85.411a1.27,1.27,0,0,0,.1-.1c5.241,5.368,15.051,15.527,6.67,12.36a40.381,40.381,0,0,1-11.145-7.541,31.956,31.956,0,0,1,4.378-4.722M60.9,106.058a1.205,1.205,0,0,0,.062-.233,60.513,60.513,0,0,1,11.619,1.359,38.776,38.776,0,0,1-12.3,1.6,9.4,9.4,0,0,1,.617-2.725m8.711,18.389c-6.946,2.581-14.058,4.8-20.983,7.479-11.165,4.054-34.892,15.033-42.207.547a36.583,36.583,0,0,1-2.857-16.159c.426-8.485,10.866-7.48,17.026-7.583,5.256.068,10.495.687,15.738,1.12,9.23.625,18.5,1.274,27.754.856,3.3-.269,6.78-.473,9.821-1.887a1.835,1.835,0,0,0,1.081-2.2c-.736-1.92-5.182-2-6.98-2.315-6.3-.656-12.465-.605-18.784-1.521a102.758,102.758,0,0,1-16.963-4.051c-7.437-2.431-14.941-4.77-22.1-7.978C6.043,88.894,2.228,85.33,2.111,80.546A35.53,35.53,0,0,1,5.05,65.737c1.626-3.765,3.689-7.48,6.849-10.174a5.094,5.094,0,0,1,6.614-.742,69.607,69.607,0,0,1,6.719,4.461c4.713,3.315,9.5,6.534,14.311,9.7,9.218,5.886,18.423,11.9,26.312,19.559C70.643,92.864,75.5,97.6,81.689,99.8c1.81.637,4.855,1.005,5.424-1.4.662-4.028-8.554-12.2-11.3-15.307-2.7-2.835-5.312-5.755-8.087-8.515A112.371,112.371,0,0,1,51.887,55.9c-3.905-5.95-8.348-12.195-8.894-19.534-.462-4.181,1.167-8.133,3.561-11.51a32.857,32.857,0,0,1,8.789-9.223,43.218,43.218,0,0,1,8.314-4.423c2.241-.872,4.889-1.01,6.493,1.058,3.189,4.1,5.286,8.939,7.521,13.594,2.584,6.433,4.043,13.255,6.038,19.885,3.351,12.229,6.177,24.6,9.107,36.931C94,87.157,94.858,91.966,97.5,95.853c.738,1.085,2.4,1.907,3.436.753a4.6,4.6,0,0,0,.713-2.977c0-4.029-1.118-7.946-1.854-11.88-.856-4.322-1.655-8.713-2.357-13.068C95.7,57.855,95.723,46.847,96.171,35.92c.211-5.407.33-10.689.933-16.093.744-7.135,3.692-16.042,11.733-17.456a17.671,17.671,0,0,1,11.48,1.742,14.657,14.657,0,0,1,5.319,4.065,8.855,8.855,0,0,1,1.41,4.661c.1,2.92-.064,5.846-.249,8.761-.823,11.747-4.192,23.1-6.936,34.5-1.915,8.083-4.167,16.077-6.116,24.149-.855,4.4-3.516,11.631-1.435,15.711,1.138,1.994,3.082,1.447,3.946-.438,3.113-5.15,4.214-11.138,6.148-16.763,3.876-10.626,8.789-20.851,13.657-31.052,5.225-10.073,16.154-31.882,27.614-34.471,4.473-1.005,8.037,2.212,10.246,5.751,1.744,2.65,3.309,5.576,3.542,8.8.464,4.78-2.265,8.963-4.771,12.792a177.277,177.277,0,0,1-12.921,16.47,384.259,384.259,0,0,1-27.953,30.077c-3,3-6.122,5.883-8.992,9.013a18.77,18.77,0,0,0-3.1,4.386c-1.112,2.207-.208,4.784,2.561,4.579,3.2-.482,6.13-2.143,9.018-3.535a50.205,50.205,0,0,0,4.928-2.833c6.724-4.571,13.154-9.552,19.675-14.4,9.209-6.623,23.792-18.005,35.332-18.226,3.269.29,4.112,2.371,3.8,5.375-.559,5.776-1.448,11.727-4.331,16.854-5.47,9.787-19.427,12.917-29.568,15.773a227.1,227.1,0,0,1-38.66,6.552c-1.195.071-2.392.139-3.587.13a9.616,9.616,0,0,0-2.141.062,7.946,7.946,0,0,0-3.742-.536,78.851,78.851,0,0,0-10.366,1.05,2.859,2.859,0,0,0-1.446.531,1,1,0,0,0-.484-.061,20.764,20.764,0,0,0-5.945,1.682c-3.115,1.371-6.2,2.815-9.307,4.195-5.229,2.371-10.5,4.663-15.85,6.735m28.826,32.724a76.627,76.627,0,0,1-2.844-14.379c-.622-4.266-1.646-8.46-2.267-12.726-.516-3.194-1.019-6.39-1.352-9.609-.119-1.089-.215-2.181-.327-3.267,0-.005,0-.009,0-.014a37.84,37.84,0,0,1,7.992-3.1c.07-.014.145-.026.223-.037a14.936,14.936,0,0,0-.424,3.27q-.015,1.209-.016,2.417c0,10.217.832,20.434,1.834,30.6.422,4.072,1.807,14.15,4.425,20.528a37.262,37.262,0,0,1-3.851-6.093,70.309,70.309,0,0,1-3.393-7.585m-18.531,70.99h0c.008.016.014.031.022.047.39.823.765,1.654,1.118,2.494.784,1.867,1.544,3.745,2.22,5.655.074.208.144.418.216.627.083.24.169.48.248.722q.768,1.945,1.507,3.9a131.108,131.108,0,0,1,4.14,15.122c4.841,21.658,8.035,37.235,23.913,53.993a98.87,98.87,0,0,0,11.321,9.846,57.785,57.785,0,0,1-6.077-2.452c-3.166-1.608-6.189-3.484-9.251-5.277-5.487-3.381-8.473-9.393-11.414-14.9-5.423-10.258-10.123-20.957-12.768-32.3-1.988-10.912-2.925-22.175-4.972-33.107-.461-2.505-.813-5.033-1.31-7.533.143.385.284.77.417,1.158.02.057.038.114.057.171h0c.209.61.416,1.222.613,1.835m32.662,92.475a40.376,40.376,0,0,1-11.695-8.453,111.833,111.833,0,0,1-11.041-15.321c-1.786-3.125-3.384-6.269-5.029-9.486-2.586-5.019-5.33-9.993-7.249-15.323A109.717,109.717,0,0,1,73.6,257.316,55.643,55.643,0,0,1,72.188,246.2c-.018-7.307,2.6-14.216,4.011-21.323.068.138.131.277.2.414.044-.4.092-.8.141-1.2.328,1.436.559,2.9.813,4.345.73,4.331,1.54,8.649,2.146,13,.623,4.458,1.3,8.91,1.89,13.374a107.327,107.327,0,0,0,2.149,13.1,135.25,135.25,0,0,0,6.625,19c2.826,6.048,5.785,12.052,9.121,17.838a31.294,31.294,0,0,0,6.15,7.768,31.093,31.093,0,0,0,5.631,3.731,66.892,66.892,0,0,0,8.689,4.645c2.554,1.195,5.27,1.882,7.914,2.835.455.126,1.009.462,1.54.657l.015.013a47.528,47.528,0,0,1-16.655-3.767m36.368-155.32c.151,8.154,1.04,16.239,1.669,24.375.449,5.193.386,10.408.326,15.62-.055,4.539-.109,9.076.173,13.6.49,8.6,3.752,16.922,2.886,25.615a129.451,129.451,0,0,1-5.558,28.25c-2.354,7.276-5.707,14.352-10.987,19.981a103.05,103.05,0,0,0,7.278-37.845c-.029-9.951-.748-19.888-.586-29.842.135-10.068.3-20.138.025-30.205-.076-6.5-.569-13-.149-19.492a96.5,96.5,0,0,1,5.372-23.853c-.074,4.6-.513,9.191-.449,13.794M137.8,258.577c-.672-12.87-2.144-25.682-3.361-38.51-.733-7.205-1.57-14.427-1.248-21.679a158.713,158.713,0,0,1,3.653-22.736,55.382,55.382,0,0,1,3.7-11.88c2.129-4.272,4.467-8.575,6.817-12.759-.734,2.032-1.283,4.15-1.935,6.193a80.78,80.78,0,0,0-3.632,24.417c.192,9.861.573,19.721.459,29.586-.041,6.55-.233,13.1-.169,19.655.052,9.232.809,18.455.523,27.687a98.969,98.969,0,0,1-2.26,17.658,99.342,99.342,0,0,1-4.171,14.174,54.747,54.747,0,0,1-2.546,5.785c1.3-4.2,2.786-8.329,3.4-12.728,1.325-8.207.98-16.58.773-24.863m-8.79,25.256q1.163,8.175,1.827,16.429a.9.9,0,0,0-.015.136.985.985,0,0,0,.051.3,221.655,221.655,0,0,1,.621,22.979l-.3-.266c-.175-.157-.357-.306-.533-.462a1.13,1.13,0,0,0-.381-.33c-1.42-1.243-2.865-2.457-4.343-3.628-2.94-2.338-5.93-4.62-8.674-7.186a85.431,85.431,0,0,1-10.349-12.168C101.55,292.1,98.1,283.412,95.754,274.5c-3.057-10.683-4.637-21.768-8.162-32.314,5.9,5.962,13.838,9.443,21.724,12.009A60.164,60.164,0,0,1,119.51,258.3c.982.634,1.924,1.334,2.839,2.058a1.021,1.021,0,0,0,1.265-.052,215.868,215.868,0,0,1,5.4,23.523M65.3,162.479c.461.749.927,1.5,1.359,2.263,4.305,7.316,6.545,15.564,10.071,23.24A185.848,185.848,0,0,0,88.135,208.7c3.848,5.755,8.88,10.571,12.7,16.353,5.739,8.158,9.447,17.48,14.688,25.94-5.733-4.4-11.476-8.865-16.294-14.286A107.938,107.938,0,0,1,85.143,215.52c-9.4-18.117-16.24-37.4-22.323-56.847.849,1.252,1.685,2.517,2.476,3.806m-2,4.282c2.484,7.637,4.957,15.283,7.947,22.742,5.664,14.03,11.634,28.071,20.263,40.587,5.535,8.4,13.064,15.217,21.087,21.226q2.317,1.8,4.641,3.6c-1.308-.55-2.647-1.037-3.965-1.537-8.4-2.748-17.1-5.767-23.6-12.021a36.914,36.914,0,0,1-4.28-4.963c-2.583-6.515-5.274-13-7.98-19.441a1.151,1.151,0,0,0-2.069.585c-.022.1-.038.21-.059.314a149.368,149.368,0,0,1-5.767-18.9c-1.542-6.075-3-12-4.123-18.2-.843-4.389-1.463-8.81-2-13.246q-.049-.372-.1-.746" fill="#fff"/></g></g></g></svg>