<svg xmlns="http://www.w3.org/2000/svg" xmlns:xlink="http://www.w3.org/1999/xlink" width="458" height="165" viewBox="0 0 458 165"><defs><clipPath id="a"><rect width="450" height="66" fill="none"/></clipPath><clipPath id="d"><rect width="216.286" height="270.967" fill="none"/></clipPath><clipPath id="f"><rect width="458" height="165"/></clipPath></defs><g id="e" clip-path="url(#f)"><g style="isolation:isolate"><g clip-path="url(#a)"><g transform="translate(0 0)"><g clip-path="url(#a)"><g style="mix-blend-mode:multiply;isolation:isolate"><g clip-path="url(#a)"><path d="M1,2C.2,1.727.04.735,0,0H450c-.025.324.025.678,0,1a6.483,6.483,0,0,1-4,1c-.533.027-1.467-.045-2,0-15.3.082-30.705.257-46,0-2.931-.081-6.066.139-9,0-1.595-.143-2.4.01-4,0-6.482.186-13.516.153-20,0-6.531.131-12.47-.214-19,0-6.682-.1-14.32.192-21,0-.79-.052-1.208-.013-2,0-.524.006-.476.009-1,0-7.326.157-14.673.137-22,0-.793-.007-2.205,0-3,0-1.082.045-1.918-.065-3,0-26.105.175-51.9.248-78,0-47.757.337-96.242-.088-144,0a35.872,35.872,0,0,1-5,0c-19.663.189-39.344.071-59,0-.5-.052-.5.019-1,0-1.911.168-4.093,0-6,0" transform="translate(0 0)" fill="#f8f2e5"/><path d="M47.278.736c31.929-.022,64.071.009,96,0,17.611-.006,35.388-.016,53,0,.295,1.25-.762,3.524,2,3,1.28-.243,2.773.081,2,2-.75,1.862,1.1,2.37,2,3,2.233,1.565,3.376,2.709,1,5-1.437,1.385-.461,4.543-4,4a4.2,4.2,0,0,0,1,3c.836.917.6,3.015,1,4-.2-1.183,0-3.032-1-4,.269-3,.8-2.822,3-1,1.5,1.242,2.8,2.494,5,3a1.977,1.977,0,0,1,1,3c-1.146,1.661-1.1,3.629-1,6,.347-3.935,3.762-6.784,7-6,1.138.274,1.023.96,1,2-.042,1.882-.154,3.867-2,5-2.806,1.721-4.027,6.208-3,10-1.29-3.863-1.243-6.425,2-7a5.686,5.686,0,0,0,3-1c1.894-1.554,3.925-.462,5,1,1.193,1.624,1.287,4.051-1,5-4.439,1.842-3.779,5.591-4,9a8.156,8.156,0,0,1-3,6c-1.549,1.341-2.539,1.48-3,4-.324,1.778-3.392,2.593-5,3-1.43.364-1.27-1-1-2,.644-2.4.257-5.539,3-7,.615-.328.559-.435,1-1s1.665-1.291,1-2a4.115,4.115,0,0,0-2-1c-1.053-.087-.879.331-1,1-.225,1.241-.3,2.873-2,3-1.214.092-.945-.9-1-2,.129,6.93-2.234,9.786-6,8-.257.8.587,1.448,1,2,.816,1.091,1.325,2.065,0,3s-2.69,1.274-4,0c-3.721-3.617-2.831-9.012,3-12-1.666.4-3,1.114-5,0,1.458,4.031-1.92,6.586,1,10,.5.587-1.07,1.931-2,2-1.659.123-3.3.958-5,0h-1c-1.268-1.887-3.371-2.051-3-5-.41,1.423.842,3.218-1,4s-2.931-.99-4-2a12.032,12.032,0,0,1-4-7c-.472,2.274-.925,5.058-5,4-1.385-.36-2.513,1.132-4,2-.893.522-2.273,1.094-3,0-.626-.943.379-2.177,1-3,1.075-1.423,2.106-1.5,3-2-.422.847-2.223-1.9-3,1-.277,1.034-1.825-.711-2-2a36.092,36.092,0,0,1,0-5c0-1.618.063-2.976-2-4,1.073,1.391,2.527,2.9,1,4-1.764,1.274-2.263-.854-3-2-.309-.48-.578.379-1,0-.276-.246.1-.4,0,0-1.683,1.41-3.347.826-4-1-1.4-3.908-4.426-7.088-7-11-.341,3.652,4.687,5.5,2,9-1.383,4.63-2.255,5.352-5,3,.393-.727,1.237-2.123,1-3a4.126,4.126,0,0,1,0,2c-1.724,4.335,1.288,6.115,4,8,.477.808.579,1.307,0,2-.3.279-.636.818-1,1-.189.062-.808-.061-1,0-.854.075-1.387-.47-2-1a20.577,20.577,0,0,0-2-2c-1.154-1.02-1.31-4.522-4-1a1.592,1.592,0,0,1-2,0c-1.95-1.89-1.867-6.044,0-8,.7-.731,1.9-1.418,1-2-4.366-2.833-.178-9.427-5-12-.7-.374-1.037-1.687,0-2,2.774-.836,3.085-2.71,3-5-.081-2.144-.114-4.833,2-6,1.013-.559,1.882-.993,2-2,.325-.472-.568-.072,0,0,.185.023.241-.211,0,0a17.513,17.513,0,0,0-5,7c-.3.819-1.184,1.935-2,2-3.76.3-4.1,3.378-5,6-.761,2.209-1.124,3.645-4,2-.565-1.591-4.464-2.347,0-4,.393.105.672-.225,1,0-.033-.266-.954.256-1,0-.81-1.6.544-3.433,1-5-1.822.215-1.179,2.029-2,3-1.413,1.67-3.252,2.316-4,0,.016-.374.806-.7,1-1a6.782,6.782,0,0,0-1,0c.553,3.2,3.119,5.681,5,8,1.083,1.822.463,2.781-1,4-.562.467-1.975.549-2,0-.185-4.182-3.839-3.5-6-5a.9.9,0,0,0-1,0c3.34,1.033,4.315,5.126,8,6,1.573.373,1.273,2.636,1,4-.244,1.222-.57,2.669-2,3-1.93.445-1.886-.633-2-2,.131,2.769-.56,5.275-3,7-1.014.717-1.9,1-3,0-.884-.8-.426-2.032,0-3,.292-.66.62-.408,1-1,2.8-4.361,2.649-7.456-2-10-1.4-.767-2.973-2.558-5-4,.631,2.041,1.529,3.669,1,5-.13.366.217.679,0,1a13.137,13.137,0,0,0-2,3,10.5,10.5,0,0,1-11-1c-.818-.943.728-1.95,0-3-2.283,1.058-2.676,2.847-3,5-.176,1.175-.454,2.319-2,2-1.342-.277-2.077-.782-2-2a12.249,12.249,0,0,1,8-11c-2.739-2.218-4.028-2.144-5,1-.826,2.668-2.687,3.241-5,2-1.885-1.01-1.425,1.265-2,2-.68.873-.6,2.085-2,2-1.51-.092-1.9-1.837-2-3-.033-.393.2-.635,0-1-2.475,5.836-3.784-1.851-6,0a2.46,2.46,0,0,1-1-1c-.354-1.429.347-2.567,0-4-.088-.36-.942-.634-1-1a8.655,8.655,0,0,1,0-2,8.664,8.664,0,0,1,1-2c.7-.887,1.641-1.757,3-1,1.621.9.98,1.038,2-1-2.387.1-3.992.1-5,3-.235.342-.634-.191-1,0a8.576,8.576,0,0,1-3,1c-1.546-1.981-4.367-1.6-5-4,1.424,1.843,1.617,5.443,3,8,.919,1.7.169,2.817-1,4-1.068,1.081-2.755.487-4,0-1.556-.608-1.565-1.534-1-3,.839-2.181-.971-3.509-2-5-1.273-1.846-1.242.4-2,0-.371.163-.606,1.077-1,1-.958-.683-2.126-2.221-3-3-.24-.325.094-.607,0-1-.464-4.978,1.412-7.8,6-8,.326-.013,1.052.082,1,0-1.826-2.882,3.57-4.129,1-7,.048,1.388-.2,2.481-2,3-2.083.6-1.451-.765-2-2-1.037-2.339-2.833-4.483-6-4-1.357.207-3.243.539-4-1-.858-1.745,1.055-2.823,2-4,.263-.328.7-.7,1-1" transform="translate(19.722 0.264)" fill="#ead8b0"/><path d="M142.555,64.723c1.91-.413,3.615-.484,6-1-1.816-2.426-1.644-4.687,0-7a1.905,1.905,0,0,0,0-2c-1.637-1.985.262-2.8,1-5,1.1,2.611,2.123,3.352,4,2a2.1,2.1,0,0,1,2,0,2.126,2.126,0,0,1,1,2,1.525,1.525,0,0,1-2,1c-2.144-.808-2.765-.31-3,2-.039.39-.707.867-1,1-1.284.579-2.558,1.456-2,3,.639,1.764,2.5,2.922,4,4,.542.39,1.506.66,2,0,.517-.692-.438-1.415-1-2-2.2-2.294-1.781-2.786,0-6,1.708.246.3,2.376,2,3,.2.052.8.367,1,0a12.028,12.028,0,0,0,1-10c-.3-.754.151-.9,1-1,.61-.069.8.434,1,1,.426,1.238-.264,2.719,1,4,1.711-1.864-.007-4.271,1-6,1.789-.643,2.931,2.072,5,1,.667-.347,1.029,1.233,1,2-.023.6-.494.645-1,1-1.715,1.206-1.709,3.46-4,4a6.752,6.752,0,0,1-2,6c1.936.569,2.7-1.283,4-1,1.605.348,1.471-.743,1-2a2.164,2.164,0,0,1,1-3c5.027-2.537,5.081-3.049,5-8-.022-1.254-1.115-2.8,2-3,.789-.051-.707-1.275-1-2-.842-2.079-.444-2.194,2-2,1.709.134,1.882-1.272,3-2-.116-1.481-1.347-2.94-2-4-.8-1.3-1.165-.258-2,1-.415.624-.7.883-2,1-4.152.376-4.207.748-4,5a4.452,4.452,0,0,1,0,1c-2.58-1.751-2.732-4.574-1-7,1.871-2.621,1.582-2.452,2-5,.906-.3,1.76,1.682,2,1,.448-1.28,1.318-2.521,1-4-.222-1.043-.993-1.283-2-1-1.487.419-2.408,1.442-4,1-.941,1.3.01,1.9,0,3-.007.73.754,1.643,0,2a3.311,3.311,0,0,1-3,0c-.78-.591-.435-1.383,0-2,1.323-1.871,0-4.207,2-6,.669-.6.105-1.575-1-1-1.385.719-1.948,1.507-2-1-.029-1.358-1.964-3.191-3-4-1.1-.86-1.834.824-2,2-1.505-.053-2.158-1.1-3-2a1.294,1.294,0,0,1,0-2c.779-.838,1.348-.665,2,0a1.949,1.949,0,0,0,2,0c-.435-1.943-.488-3.029,2-4,.813-.318.024-2.584-1-3-1.757-.715-2.17-1.772-4-2-.012-1.455.847-1.765,1-3h-6c-.248-2.457,3.208-1.759,3-4q39.526,0,79,0c.76.5.168,1.582,1,2,4.123,2.066,4.917,3.476,3,7-.279.514-1.5,1.259-2,1-3.872-2.02-2.06,1.678-3,3-.826,1.16-1.362,2.224-3,2-1.822-.25-2.267-1.48-2-3,.165-.933.253-2.085-1-2-1.359.092-3.4-.541-4,1-.74,1.91-3.245,3.793-1,6,2.405,2.363,2.226,4.279,0,6-1.722,1.332-3.077,2.936-3,5,.156-2.349,1.512-3.919,4-3a3.54,3.54,0,0,1,2,5,25.765,25.765,0,0,1-5,6c-1.645,1.5-3.977,2.672,0,4,.376.126,1.029,1.074,1,1a4.783,4.783,0,0,1,2-6c1.684-.914,3.907-2.232,6,0,2.834,3.024,4.97.952,7-1,1.5-1.445,5.239-1.017,6,1,1.016,2.69-.4,7.435-3,9-.514.309-2.1-.176-1,1,.974,1.039-1.1,3.984,1,4,3.431.025,2.289,2.214,2,4,2.056-1.372-1.926-6.974,4-6,.379.069.639-.12,1,0,1.537.445,1.474-.116,2-1,1.646-2.764,3.1-1.848,4,0,.051.036-.1-.042,0,0-.157-.222.081.286,0,0,1.172-2.16,1.768-3.93,4-2a36.643,36.643,0,0,0,3,5c-.012-.891-.68-2.018,0-3,1.175-1.2,2.473-1.955,4-1,1.505.94,1.13,2.654,1,4-.04.42-.884.591-1,1,.546.14-1.5,1.792,1,2a26.068,26.068,0,0,1,8,2,.934.934,0,0,1,0,1,93.645,93.645,0,0,0-13,4c-3.948-1.739-8.121.632-12,1-13.643,1.3-27.29,3.265-41,4-7.114.022-13.888.087-21,0-4.4-.053-8.591,1.22-13,1-2.267-.114-4.772.7-7,0a5.364,5.364,0,0,0-3,0c-5.088.953-10.883.043-16,0-.358,0-.645-.775-1-1" transform="translate(63.445 0.277)" fill="#ecdbb7"/><path d="M272.973.724h4c.334,2.363.924,4.87-3,4-.7-.155-1.572.568-1,1,2.413,1.825.8,4.5,1,6,.338.758-.26.2,0,0,1.071-.808,2.6-2.962,4-2,2.155,1.479.079,4,0,6-.042.253.071.873,0,1,.107-.16-.12-.71,0-1,.756-1,1.81-1.741,3-1,.839.523,1.472,2.333,1,3-1.482,2.095.634,3.982,0,6-.139.172-.981-.038-1,0-.194.357-.039.5,0,1,.107-.4-.279-.691,0-1,.79-3.262,1.135-6.942,3-10,1.014-1.664,2.086-1.552,4,0-1.763-2.257-3.648-1.295-5-1-2.713.592-3.456-.246-3-3,.468-2.833,1.14-6.554,4-7,2.772-.433,4.294,2.613,6,5,.725,1.014.879,2.194,2,3,3.237,3.977,3.541,3.7,7,0,1.715-1.832,2.81-.419,4,1,.133-2.717-1.07-4.274-4-4a19.646,19.646,0,0,1-8-1,7.223,7.223,0,0,1-5-6c15.75,0,31.25,0,47,0,2.19,4.226,1.212,4.972-4,9-2.219,1.715-1.277,2,0,3-2.553,2.216-5.9,3.687-9,5-2.467,1.491-5.688,1.939-7,5h0c-2.674-.263-3.438,2.623-5,4h0c-1.336,1.023-3.255-.007-4,2h0a6.176,6.176,0,0,0-1,1,2.361,2.361,0,0,1-2,1,9.628,9.628,0,0,0-3,2h0a95.034,95.034,0,0,1-16,5c-3.129.852-5.846,1.2-9,2-2.4-1.6-3.149,1.935-5,2-.409-.014-.649-.789-1-1-.639-1.8-1.291-2.569-4-3a6.468,6.468,0,0,1-5-7c.14-1.958.578-4.312-3-4-1.341.117-1.922-1.661-2-3-.2-3.415.449-6.6-1-10a3.182,3.182,0,0,1,2-4c1.9-.639,1.114,2.376,2,3,2.447,1.725,3.858,2.415,2,5,.6-.875.478-1.143,1-2a2.019,2.019,0,0,1,2-1c.748.142.929.23,1,1,.42,4.552,2.432,5.826,7,5,3.313-.6,5.737,5,4,9-2.131-.152-2.667.343-4-2a12.934,12.934,0,0,0,1,4c.2.578.011,2.381,2,2,2.1-.4-.092-1.4,0-2a4.406,4.406,0,0,1,1-2c2.059-2.233,2.45-4.506,4-7-.156-.714-.792.042-1,0a1.751,1.751,0,0,1-2-1c-1.187-2.569-1.643-5.379-5-6-.24-.045.129.259,0,0-1.927-3.873.222-12.647,4-15" transform="translate(112.027 0.276)" fill="#e9d6ac"/><path d="M41.4,37.892c-1.27-.691-2.325-.5-3-2,.468-.331.142.543,0,0-.071-.274-.107-.332,0,0-2.231.153-3.21-2.234-5-3,.874-2.287-1.262-.97-2-1-1.908-1.82-4.736-2.379-6-5-1.047-2.859-2.414-5.535,1-8,1.085-.782.617-2.672,1-4,.15-.321.775-.731,1-1-.532-.354-.549,1.2-1,1a3.5,3.5,0,0,1-2,0c-1.758-1.05-1.727-3.113-1-5,.767-1.047,1.5-2.081,3-2,2.278,2.473,4.129,3.134,7,1,.706-.524,1.37-1.344,2-1,2.041,1.11,4.293,3.669,7,2a10.232,10.232,0,0,0,5,5c-.178-.951-1.705-1.727-2-3-.383-1.654-.051-3.474,2-4,1.979-.507,2.864.053,3,2,.088,1.268-.725,2.668,0,4,1.985-1.328,3.439-2.637,3-5-.256-1.378-1.327-3.591,1-4,2-.35,2.89.9,3,3,.142,2.7,1.265.744,2,0,1.352-1.368,2.367-1.472,3,1,.621,2.421,1.362,5.073-2,7-2.833,1.622-4.6,4.469-2,8h0c.851.867,2.133,1.149,3,2,.446,2.229,1.532,3.691,4,6a5.4,5.4,0,0,1,2,3,3.258,3.258,0,0,1-2,4c-2.047.717-1.565-.961-2-2a5.106,5.106,0,0,0-2-2c-1.118,1.962,2.392,5.266-1,6-2.2.477-3.582-2.23-4-4,.584,1.579-.938,2.8-2,4a9.077,9.077,0,0,1-1,1c-2.038,1.037-3.938-.231-6,0-1.471.085-1.841-1.467-3-2-.835-1.192-2.906-1.324-4-2" transform="translate(10.595 2.108)" fill="#ead8b0"/><path d="M68.127,25.717c-2.767-1.614-2.318-4.3-3-7,1.348-.017,3.918,1.015,4-2,.064-2.314,1.685-1.333,3-2-.308-1.5-.818-2.616-1-4-.084-.633.666-.906,0-1a3.114,3.114,0,0,0-2,1c-.517.555-.173,1.218,0,2,.235,1.065-1.026,1.013-2,1-1.536-.02-.12-.276,0-1,.426-2.595-.355-5.161-3-6-1.622.9-.162,2.715,0,3,2,3.511-1.947,5.576-3,8-.444,1.02-1.871-.333-2-1a10.984,10.984,0,0,1,0-5c.267-1.186-.992-2.017-2-2-1.034.016-.932,1-1,2-.064.933.458,1.315,1,2,1.2,1.52.647,4,0,6-.542-1.953-1.415-3.932-3-4-2.749-.118-2.5-1.224-2-3-2.989,2.258-2.424,2.371-5,0-.725-.666-2.205-1.419-3-2-1.06.865.625,2.36-1,3-.787.311-1.4.8-2,0-1.663-2.2-2.568-.059-4,1-1.281-1.381-.838-3.668-1-5a22.25,22.25,0,0,1-1-2c-.644-1.643-1.993-1.741-3,0-1.043,1.8-2.777,2.581-5,3-1.381.26-1.129,1.817-1,3,.3,2.787-.391,3.5-3,3-1.91-.367-3.95-1.627-6-1-1.018-.828-3.12.108-4-1-.153-1.533.356-3.466-2-2-2.2-1.222-3.407-3.148-5-5,.2-.28-.322-.886,0-1,.312-.084.7.072,1,0,.353-1.976-1.34-1.136-2-2a3.471,3.471,0,0,1-1-1,3.127,3.127,0,0,1,1-3h60c-.039,1.784-.951,2.55-2,4,2.352.366,6.038.537,7,0a1.26,1.26,0,0,1,1,0c.653.163.358.432,0,1-1.774,2.811,2.63,3.519,2,6a3.223,3.223,0,0,0,1,0c.615-.139,1.03-.435,1-1-.084-1.505-.849-2.372,0-4,2.476.163,1.013,2.794,2,4,1.271,1.553.346,1.889-1,3-1,.825-1.567,2.347,0,3a1.506,1.506,0,0,1,1,2c-.4.818-1.242.373-2,0-.972-.477-1.681-2.815-3-1-1.247,1.715-4.573,2.453-3,6,.332.75-.782,1.334-1,2" transform="translate(1.873 0.283)" fill="#ead7ad"/><path d="M40.762,37.43c1.836-1.518,4.087-.013,6-1a8.413,8.413,0,0,0,2,1,16.879,16.879,0,0,1-2-1,4.655,4.655,0,0,1,1-1c1.933-1.5,2.4-3.459,0-5,1.372-.527,1.533.247,2,1,.514.829,1.039,2.411,2,3,.792.485.784,1.526,2,1,1.7-.738.406-1.01,0-2-.433-1.058,1.335-2.734,0-4-.426-.4.377-.782,1-1a2.119,2.119,0,0,1,2,1c1.112,1.776,1.156,2.309,1,5,1.638-.884,2.654-2.11,2-4a6.021,6.021,0,0,0-5-4c-2.011-.085-1.955.592-1-1a8.253,8.253,0,0,0,1-4c1.175-.519,1.906-.75,2-2,.053-.725-.008-2.342,1-2a2.035,2.035,0,0,1,1,2c-.509,1.887-.423,3.207,2,3,.887-.075,1.29.315,1,1-.328.777-1.746,2.21-2,3-.306.952-.263,1.617,1,2,1.083.329,2.964,1.741,4,0,.539-.909,1.315-1.812,0-3-1.154-1.04-.906-2.5-1-4-.1-1.606-1.617-3.052-3-4-.972-.666-.912-1.182,0-2,1.355-1.214,1.266.4,2,1,.653.536.205,1.424,1,2,.855-.312,1.395-3.59,3-1,.652,1.05.552,3.491,2,4,.67-.092.491-.585,1-1h1a.662.662,0,0,1,1,0v1a1.449,1.449,0,0,0,0,2c.205.406.306.7,0,1-3.067,2.982-3.25,2.753-3,7,.78-1.651.015-4.247,3-4,0,.286,0,.714,0,1a6.661,6.661,0,0,1,3,8c-.787,2.476.263,4.535,1,7,.373,1.245.5,1.99,2,2,1.365.007,1.746-1.015,2-2,.353-1.372,1.64-2.273,2-1,.774,2.745,4.376,4.8,4,8-1.528,1.37-3.388-.279-5,0a32.413,32.413,0,0,1-9-2h0c-6.021-1.985-12.317-3-18-6a118.857,118.857,0,0,1-13-5" transform="translate(18.238 6.57)" fill="#ecdbb6"/><path d="M126.71,33.694c-.133-.636-.537-1.14,0-2,1.978.722,3.07,2.852,4,5,2.257-3.474-1.4-4.051-2-6,.183-.34.675-1.14,1-1,3.852,1.66,5.326,4.688,4,9-.413,1.345.425,2.392,0,4,2.212-.513.9-2.278,2-3,.982,1.332,1.807,2.845,3,0,.337-.8.347-.458,1,0,.906.636.7,1.3,0,2a5.48,5.48,0,0,1-3,2c-1.648.38-2.116,2.3-2,4,1.848-2.164,5.661-2.038,7-5,.1-.221.416,1.645,1,3,2.3-2.1.577-5.424,2-8,2.153,2,1.223,4.97,3,7,1.67,1.91,3.37,3.077,5,6,.8-3.028-.343-5.99,2-8,1.452,1.162.853,2.59,1,4,.129,1.241.154,2.527,2,2,1.505-.431.36.452,0,1a2.011,2.011,0,0,0,0,2c-9.444-.019-18.556.019-28,0-3.3-.987-6.631-.036-10,0a36.659,36.659,0,0,1-13-2c-.168-.407-.254-.634,0-1a9.826,9.826,0,0,1,2-2c1.624-.656,3.353-1.932,5,0a1.358,1.358,0,0,0,1,0c.576-.471.637-.412,1-1a2.994,2.994,0,0,1,1-1c.286-.287.743-.685,1-1a2.355,2.355,0,0,0,1-2c-.728-.974-.88-1.451,0-2a2.724,2.724,0,0,1,2,0c1.83,2.793-1.217,4.313-1,7,3.539,1.011,3.1-2.993,6-3-2.151-2.148-4.844-4.2-5-7,.022-.392.873-.629,1-1,.929-1.806,1.639-1.442,3-1,.731.237,2.29,1.554,2-1" transform="translate(47.29 13.306)" fill="#ecdbb7"/><path d="M13.2,14.487c.481-.935,1.38-1.6,2-1,1.854,1.806,4.365.253,6,2a3.053,3.053,0,0,0,0-3c-.4-1.075.72-2.074,1-3,.475-1.567,1.114-1.133,2-1a1.677,1.677,0,0,0,2-1c.462-.887.437-2.181,1-3,1.2-1.748,3.207-1.869,4,0,.5,1.172,2.2,2.418,1,4-.891.523-1.668,2.14-3,2-2.456,0,.193,4.834-3,4,1.487-.351,3.2.792,5,0,.572,0,1.428,0,2,0a12.786,12.786,0,0,1-1,6c-.149.37.118.984,0,1-4.025.52-1.955,1.988-1,4,.208.439-.746,1.341-1,2a4.451,4.451,0,0,1-1,0,13.9,13.9,0,0,1-1-1c-.695-.035-.516.587-1,0a.886.886,0,0,0-1-1c-1.253-.077-2.13-1.445-3-2-.376-1.479-.248-3.361-2-4a28.206,28.206,0,0,1-8-5Z" transform="translate(5.804 1.513)" fill="#e9d4a9"/><path d="M289.5,27.053c-4.58,3.5-9.9,5.655-15,8-3.589,1.648-7.432,1.347-11,3-1.1.509-3.058-.027-4,1a3.153,3.153,0,0,1-2,1c-5.836-.354-10.363,3.688-16,4-.423.023-.58.928-1,1-2.479-2.8.042-3.771,2-5,7.648-2.08,15.518-3.245,23-6,3.339-1.228,6.731-1.563,10-3a32.67,32.67,0,0,0,8-3c1.835-.849,3.807-2.544,6-1" transform="translate(106.497 11.947)" fill="#f9f3e7"/><path d="M184.774,47.015c2.213-1.612,4.629-.8,7-1,7.488-.624,15.577-2,23-3,4.341-.584,8.73-1.067,13-2a53.219,53.219,0,0,1,9-1c1.406-.064,1.227,1.123,1,2-4.957.393-9.968,1.9-15,2-1.666.033-3.261.446-5,0a4.042,4.042,0,0,0-5,2c-.485.819-2.619.043-4,0-7.928-.248-16.064,1.653-24,1" transform="translate(82.226 17.985)" fill="#f9f4ea"/><path d="M110.671,43.33c.337.25.666,1,1,1,5.569-.066,10.337,1.809,16,1a9.012,9.012,0,0,1,6,1,124,124,0,0,0-18,1c-2.42.35-4.824-.627-7-1-3.727-.64-7.411.518-11-1-.042-.234.043-.765,0-1a2.848,2.848,0,0,1,2-2c3.667.118,7.491-1.252,11,1" transform="translate(43.328 18.67)" fill="#f5eddb"/><path d="M69.431,39.719c1.442-1.518,2.564.563,4,0,.227-.048.775.051,1,0,8.073.277,15.94.53,24,1,1.169.068,1.48.83,2,2-.4,2.411-1.287,2.675-3,2a4.487,4.487,0,0,0-4,0,6.1,6.1,0,0,1-3,0c-3.815-1.484-8.086-.645-12-1a3.557,3.557,0,0,0-2-2h0c-.685-.831-2.289-.253-3-1h-2c-.685-.816-1.292.748-2,0h0c-.3-.2-1.1-.8-1-1s.9,0,1,0" transform="translate(30.569 17.281)" fill="#f5eddb"/><path d="M278.329,28.956c-3.115-.09-5.478,2.659-8,4a12.55,12.55,0,0,1-6,1c-.1-2.15,2.025-2.123,3-3,2.041-2.739,6.128-.942,8-4a11.237,11.237,0,0,1,2-1c4.525-.165,7.867-1.495,12-3,.756-.274,2.159.038,3,0-3.084,2.866-7.44,3.122-11,5-.985.52-2.259.071-3,1" transform="translate(117.671 10.044)" fill="#eedebe"/><path d="M49.789,33.922c3.464-.2,6.814,1.117,10,2,2.858.793,5.8,1.465,8,4-2.687.517-5.353-.394-8,0-2.109.315-1.311-2.423-3-2a7.348,7.348,0,0,1-5-1c-1-.678-1.237-1.974-2-3" transform="translate(22.211 15.078)" fill="#f8f2e5"/><path d="M306.521,12.724c-.14,0-.864.026-1,0-1.166-.212-2.678.42-3-1-.373-1.65,1.558-2.692,3-3,2.4-.511,2.728-3.288,5-4,.471-.149-.079-2.6,0-4,.289.009.711-.009,1,0,1.693,2.018,1.091,3.985,0,6-1.222,2.413-2.626,4.594-5,6" transform="translate(134.479 0.276)" fill="#e4cb97"/><path d="M246.4,36.2c-1.491,1.053-2.9,2.977-2,5-1.939.091-4.126-.834-6,0-.475.211-.844.231-1,0-1.669-2.485-4.829-.737-7-1,0-.285,0-.715,0-1,.169-.169.832.172,1,0,3.123-.865,5.852-2.221,9-3,1.917-.475,4.291-1.628,6,0" transform="translate(102.601 15.802)" fill="#f6eedc"/><path d="M8.688,7.795c-.286-.013.285.035,0,0-.5-.506-1.45-.626-2-1h0a2.046,2.046,0,0,0-1-1c-.244-.03-.793.134-1,0a5.6,5.6,0,0,1-1-1c-1.565-.724-1.563-2.156-3-3,1.446-1.664,3.305-.947,5-1,.961.964,0,2.044,1,3h0c1.166.933,3.3,1.241,2,4" transform="translate(0.313 0.205)" fill="#ddc07e"/><path d="M13.194,10.966c3.733,1.468,7.186,4.609,11,6,2.226.813-1.6,1.882-1,3a47.31,47.31,0,0,0-7-6c-1.2-.8-2.782-1.165-3-3" transform="translate(5.806 5.034)" fill="#ead7ad"/><path d="M85.921,43.329c1.258-.964,2.461-2.192,4-1,1.323,1.023,1.785-.155,3,0,.194-.019.806.022,1,0,1.989.124,3.951,1.267,6,1a2.727,2.727,0,0,1,3,2h0c-2.625,1.52-5.466-.83-8-1-3.2-.215-5.813-.554-9-1" transform="translate(38.079 18.671)" fill="#f5eddb"/><path d="M72.236,40.083v1c-3.313,1.42-5.963-1.642-9-2a2.32,2.32,0,0,1-1-1c3.307-.3,6.855,1.406,10,2" transform="translate(27.764 16.917)" fill="#f8f2e5"/><path d="M308.755,6.717c0-2.017,0-3.983,0-6,1.4.017,2.6-.016,4,0-1.085,2.223-1.6,4.7-4,6" transform="translate(137.245 0.283)" fill="#dcbd79"/><path d="M290.69,20.267c-.126-1.461,1.461-2.866,2-4,1.1-2.309,1.808-1.281,3,0-1.656,1.237-2.761,3.621-5,4" transform="translate(129.31 6.733)" fill="#ecdcb9"/><path d="M294.11,17.436c.357-4.356,4.064-4.143,7-5-1.924,2.229-4.911,2.993-7,5" transform="translate(130.889 5.564)" fill="#ecdcb9"/><path d="M9.021,9.771c.055-1.1-.631-2.652,1-2,1.536.613,2.744,2.174,1,4-.29-.267.29-.731,0-1-.345-.641-1.6-.448-2-1Z" transform="translate(3.978 3.229)" fill="#e0c487"/><path d="M29.016,23.97a5.553,5.553,0,0,1,1-1c.949-.686,2.532-1.055,3,0,.732,1.654-.811,1.749-2,2-.5-.36-1.5-.64-2-1" transform="translate(12.984 10.03)" fill="#e4cb97"/><path d="M288.009,20.8c.2-2.92,2.048-2,4-2-.8,1.913-2.642,1.015-4,2" transform="translate(127.991 8.203)" fill="#ecdcb9"/><path d="M35.869,27.567c1.358.149,3.717-.293,4,2a6.5,6.5,0,0,1-4-2" transform="translate(16.131 12.433)" fill="#f1e5ca"/><path d="M283.869,23.479c.685-1.56,1.5-2.155,3-2-.953,1-1.61,1.918-3,2" transform="translate(126.131 9.521)" fill="#eedebe"/><path d="M74.213,40.747c1.25-.027,1.9.266,2,2a4.933,4.933,0,0,1-2-2" transform="translate(32.787 18.253)" fill="#f8f2e5"/><path d="M22.268,18.99c.42-.537.393-1.8,1-1,.368.488.455,1.7,0,2-.3-.292-.7-.707-1-1" transform="translate(9.732 8.01)" fill="#ddbb78"/><path d="M69.328,40.274c.948.02,1.377-1.007,2,0-.951-.013-1.376,1-2,0" transform="translate(30.672 17.726)" fill="#f8f2e5"/><path d="M72.01,40.008c.952.012,2.38-.026,3,1-.948-.029-2.363-.025-3-1" transform="translate(31.99 17.992)" fill="#f8f2e5"/><path d="M9.018,9.045c.717.049,1.733.231,2,1-.678-.111-1.71-.27-2-1" transform="translate(3.982 3.955)" fill="#ead7ad"/><path d="M4.91,4.865a2.174,2.174,0,0,1,2,1h-1c-.287-.276-.714-.723-1-1" transform="translate(2.09 2.135)" fill="#e2c890"/><path d="M23.416,19.272c.274.263.726.737,1,1-.274-.263-.726-.739-1-1" transform="translate(10.584 8.728)" fill="#ead8b0"/><path d="M287.273,21l1-1-1,1" transform="translate(127.727 8.998)" fill="#ecdcb9"/><path d="M4.209,4.123a1.339,1.339,0,0,1,1,1c-.337-.286-.665-.714-1-1" transform="translate(1.791 1.877)" fill="#e2c890"/><path d="M2.669,3.416c.272.235.728.766,1,1-.272-.235-.728-.766-1-1" transform="translate(1.331 1.584)" fill="#e2c890"/><path d="M290.254,29.723c.033-.854-.235-1.207,0-2,.4-1.355.443-2.607-1-3-.383-.1-.788-.692-1-1-1.523-2.219-2.173-2-4-1-1.463.8-2.236.557-3-1a1.674,1.674,0,0,0-1-1c-2.27-.578-2.407-2.171-2-4,.121-.549.468-1.486,0-2-3.407,1-1.7,5.063-3,7-1.754-2.128-1.39-2.147,0-7-1.013-1.043-1.026.695-2,0-.1-1.071-.91-1.9-1-3a.939.939,0,0,0-1-1c-.721-.042-1,.4-1,1,.014,1.936-.207,3.691,2,5a3.438,3.438,0,0,1,1,2c.251,1.372-3.978.843-2,3,1.043,1.138,1.052,1.912,0,3-.328.337-.412.837,0,1,.338.134.782.2,1,0a2.838,2.838,0,0,1,3-1c-.118,1.471-2.094,4.77,2,4-.5,2.363-1.736,4.077,1,6,3.629,2.55,3.2,3.314,6,1,.854,1.351,1.122,1.808,0,3-.644.685-.215,1.338,0,2a4.622,4.622,0,0,1,0,2,6.233,6.233,0,0,1-1,1c-.29.257-.648-.162-1,0-.371.129-.607.974-1,1-1.3.445-2.919-2.043-4,0a6.417,6.417,0,0,1-1,1,10.543,10.543,0,0,0-1,1c-.386.392-1.428,1.116-2,1-.337-.087.313-.857,0-1-.156-.066-.845.062-1,0-.825-.337-1.286-.576-2,0a3.241,3.241,0,0,1-2,1c-2.6-2.044-1.682-4.326-2-7a21.915,21.915,0,0,1,0-5c.443-.26-.491-.3,0,0,.137.082-.939-.17-1,0-.643,1.822-4.494-.584-4,3,.068.484-1.273.4-2,0-.939-.516-1.149-1.057-2,0-.592.735-1.732,1.857-3,1a2.558,2.558,0,0,1-1-3c.225-.982.795-2,1-3-4.029.913-7.038-1.118-7-5,.022-2.229.782-4.759-2-6-2.989-1.332-4.344,1.239-6,3,.954-.449,2.047-1.415,3-2,2.134-1.309,2.969-.939,4,1,1.53,2.873,1.218,8.45-1,11-.731.839-1.752,2.471-3,2s-1-1.862-1-3a8.273,8.273,0,0,1,1-3c-1.761,1.985-2.156,1.809-2,5,.113,2.291.675,4.563-3,4-1.75-1.159-2.823,1.5-4,2-.592.155-1.471-.685-2-1-1.05-1.124-.208-2.732-1-4,.914,1.862.137,4.164,0,6,.111,1.075.462,2.033-1,2a7.7,7.7,0,0,0-4,1v5c-2.252-1.845-3.471-3.161-3-6-2.459-2.616-3.233-6.66-3-10,.147-2.109,1.138-3.766,3-4,2.631-.329,3.248-3.062,5-4-1.661,1.2-3.43-.353-5,0-.4-.064-.672-.76-1-1a2.471,2.471,0,0,1-1-2c.045-2.44-1.459-1.522-3-1-1.371.462-2.99.6-4-1-.93-1.481,0-2.892,1-4,.858-.955,1.217-1.99,2-3a3.5,3.5,0,0,1,2-1c2.424.1,4.668,1.28,7,0-.175-.589-1.668-1.574-2-3a2.547,2.547,0,0,1,1-3c1.443-.875,1.979.025,3,2-1.859-2.934-.463-3.661,1-5,.186-.311,1.087-.5,1-1a2.9,2.9,0,0,1-1,0c-1.131-.264-2.593.815-3-1-.4-1.776.781-2.275,2-3h1a1.408,1.408,0,0,0,2,0c6.868.007,13.132-.007,20,0a4.821,4.821,0,0,1-1,4c-1.251,1.183-3.739.847-5,2,1.677.039,3.629-1.117,5-2,4.559-2.141,8.626-4.8,14-3,2.021.675,2.447,3.384,5,3,.368.036.734,1.218,1,1s-.048-.608,0-1c.022-1.54-.115-2.828,1-4,6.588,0,13.414,0,20,0-.432.563-.5,1.507-1,2-1.813,1.791-3.7,3.327-3,6a7.894,7.894,0,0,1,0,5c-.478,1.209-.329,2.032,1,2,3.022-.074,4.814,1.543,5,4,.169,2.245.726,1.605,2,1,.282.773,2.082,1.672,1,3-1.2,1.476-3,2.758-3,5,0,1.267-1.049.919-2,1" transform="translate(94.746 0.277)" fill="#ead7af"/><path d="M236.465.727a8.694,8.694,0,0,0-1,2c-.621,1.592-.414,1.779,1,1,.836-.461,1.23.717,2,1h0a10.166,10.166,0,0,0,0,2c.428,1.828-2.981.652-2,3,.467,1.117,1.251,1.47,1,3-1.671-.311-1.419-1.247-2-2-.445-.578-1.179-1.445-2-1a1.923,1.923,0,0,0-1,2c.47,1.176,1.471,1.843,2,3,.605,1.323,2.335,2.492,1,4-.936.04-.887-.468-1-1-.169-.784.042-1.753-1-2-1.3-.309-1.7,1.045-2,2a1.532,1.532,0,0,1-2,1c-1.131-.234-.045-1.192,0-2,.03-.536-.4-.533-1-1a1.7,1.7,0,0,0-2,1c-.959,1.556-1.29,2.953-3,4-.675.413-.412,1.359,0,2a1.259,1.259,0,0,0,2,0c1.365-2.259,3.4.132,5-2-1.5,2.507-.039,5.17,1,7-.884,1.024-1.715,1.453-2,3,1.138-.946.879-2.143,2-3,.994-.123,1.667-3.116,3-1,.806,1.28,1.464.478,2,0,.553-.493,1.052-1.914,2-1,.883.851-.021,1.372-1,2-1.593,1.023-3.24,2.665-2,5-1.539.581-2.119-2.229-3-1-.992,1.385-3.082,2.829-3,5a37.953,37.953,0,0,0,2,9c-2.007-.868-3.019-.7-4,1-1.13.235-1.335-.229-2-1a26.691,26.691,0,0,1-2,4c-.975,1.313-1.74.689-2-1h-4c1.167,2.554.705,4.457,1,7-3.249-1.638-3.137-1.491-2-4,.26-.575.4-.494,0-1-.657-.825-1.431-.457-2,0-.624.5-1.019,1.786-2,1-.477-.381-1.348-1.663-1-2,2.218-2.151.2-2.8-1-4-.176-.176.1-.744,0-1,.181-.711.38-1.04,1-1,2.967.194,4.83-1.228,5-4,.052-.836-.429-1.08,0-2,1.008-2.158,1.154-2.793-1-2-2.959,1.092-.18-1.817-2-2-.86,3.5-4.128,3.541-7,5-.613-1.372-1.44-3.395-3-4-.6-.233-.916-.255-1,1-.091,1.384-.945,1.652-2,1-.682-.42-1.452-.782-2,0a18.819,18.819,0,0,0-2,3c-.6,1.3,1.177,2.192,2,3a1.266,1.266,0,0,1,0,2c-.854.545-1.672-.422-2-1-.494-.868-.442-1.934-1-3-1.11-.2-1.8,1.4-3,1-.532-2.992.054-4.281,2-6a26.722,26.722,0,0,0,5-6,1.9,1.9,0,0,0-1-3c-1.541-.474-2.643.524-3,2-.273,1.13.683,2.058-1,3a58.924,58.924,0,0,0,0-6c-.163-1.595,1.386-1.386,2-2,3.526-3.529,3.455-3.561-1-6,.728-1.806,2-4.014,2-6,0-1.771.43-1.928,2-2,1.7-.079,3.476,1.26,5,0,.922,1.336.367,1.915,0,3-.287.849-.967,2.574,0,3,1.383.608,1.6-1.2,2-2,.611-1.231,1.657-2.362,1-4-.563-1.406,1.333-2.257,2-3,1.338.559.838,2.614,2,3,.585-.025,1.127-.562,1-1-.35-1.195-1.184-2.584,1-3,.861-.163.709-.525,0-1-1.2-.806-2.409-1.592-4,0v-4c.858-.007,1.145.009,2,0a1.343,1.343,0,0,0,2,0Z" transform="translate(85.535 0.273)" fill="#ebd9b3"/><path d="M275.014,23.723c-1.118-2.637-2.674-5.288,0-8-1.793-.724-1.948.783-3,1-1.757-1.937.613-3.977,0-6-2.748.059-1.934,2.769-3,4-2.741-2.479-3.349-2.344-2-6,.222-.607,1.235-1.166,0-1-.6.081-2.13.253-2-1,.152-1.466.388-3.136,2-4,.835-.448,1.507-.13,2,1,.107.246.8-.286,1,0,.426-1.2.591-1.844,1-3h9c2.127,1.556,2.953,4.528,6,5,1.354,1.719,1.458,3.281,0,5-.927.351-2.092.721-2-1,.123-2.329-.684-3.5-3-4-1.708-.37-1.853-2.26-3-3-2.456,1.916-2.254,4.322-3,7-.581,2.089.805,3.016,2,3,1.549-.019,2.775-1.217,4-2,1.163.445.419,1.455,1,2,.643.6,2.225.8,1,2-1.029,1.007-2.389-.171-3-1-.246-.335-.382-.192-1,0-.423,1.32.5,2.909-1,4a2.967,2.967,0,0,0-1,3C277.448,22.244,276.587,23.006,275.014,23.723Z" transform="translate(117.986 0.277)" fill="#ead7af"/><path d="M259.239.719c.324,1.8-.734,3.3-1,5h0c-1,.068-2.015-.134-3,0-.665.091-.75.646-1,0-1.257-3.262-4.476-3.607-7-4-1.621-.251-2.875,1.681-4,3-1.2.487-1.128-3.219-3-1a2.025,2.025,0,0,1-2,1h0c-.147-1.7-.6-3.006,1-4,6.586,0,13.414,0,20,0" transform="translate(105.761 0.281)" fill="#e7d2a5"/><path d="M5.151,3.732c-1.263-.887-.867-1.824-1-3a4.451,4.451,0,0,1,1,0v3" transform="translate(1.849 0.268)" fill="#e2c890"/><path d="M207.508.727a1.149,1.149,0,0,1-1,1c-.917.15-.873-.385-1-1,.575.009,1.425-.009,2,0" transform="translate(91.492 0.273)" fill="#ecdbb7"/><path d="M225.572.723a2.528,2.528,0,0,1-1,1c-.8.254-.7-.46-1-1,.571,0,1.429,0,2,0" transform="translate(99.428 0.277)" fill="#ebd9b3"/><path d="M119.961,56.89c-.572.285-.428.715-1,1-3.716-.874-6.165-3.035-6-10-1.183,2.816-2.025,5.327-4,7-.9.761-1.323,1.86-3,1-1.385-.711-1.578-1.321-1-3a4.288,4.288,0,0,0,0-2c-.63.757-.613,3.832-3,4-1.812.127-3.593-.287-5,0-3.971.815-6.359-3.269-10-3-1.482.11-2.757-2.249-3-4-.231-1.677-.909-2.125-2-3-.787-1.777-1.418-3.3,1-3,1.807.224,4.3-.5,6,1-1.2-1.163-1.275-2.525-2-4,.123-1.186-.263-2.1,1-3,.286.312.717.686,1,0-.126-1.339-.08-3.217-2-4-1.484-.6-1.227-1.857,0-2,1.407-.163,3.752-1.066,4,2,.087,1.062,1.088,1.02,2,1a3.4,3.4,0,0,1,3,2c.771,1.453,2.455,2.281,2,4-.513,1.939-.493,4.424-2,6-.2.207-.892-.244-1,0-.376.847-1.163,2.169,0,3,1.485,1.063,1.317-.7,2-1,1.885-.834,1.974-3.125,2-5a16.148,16.148,0,0,1,1-4c.507,1.96.662,3.693,1,5h1c.407-1.921.483-3.557,1-6-2.97.823-4.37-.306-5-3a2.3,2.3,0,0,0-2-2,5.424,5.424,0,0,1-4-2c.693-1.578,3.178.589,4-1,.4-.776.581-.761,1,0,1.179,2.142,1.532,2.337,3,0,1.593.311.024,4.479,3,3,.2-.1,1.12.561,1,1-.2.745-1.633.863-1,2,2.293-.813,1.983-3.2,2-5,1.963.084,3.137.281,3-2-.126-2.063,1.642-4.167,2-6,.205-1.05,1.9-1.316,3-1,2.034.585,1.578-.415,2-2,1.046-3.922,5.444-6.107,8-10,.4,2.735-2.183,4.188-1,6,.228.35-.434.749-1,1-2.436,1.078-4.24,2.7-4,5,.445,4.3.852,4.247-3,5,.63,2.207,4.124,3.333,4,6-.012.225.059-.126,0,0-1.527,3.171.382,5.222,3,7,.92.626-.327,2.369-1,3a18.161,18.161,0,0,1-3,2,5.234,5.234,0,0,1,2,5c.517-.131.883.165,1,0,.718-1.007-.073-3.124,2-3,1.712.1,1.343,2,2,3,.368.559.343,1.575,1,2,.829,1.008,1.014,1.662,0,3-.292.29-.606.884-1,1-2.949-2.482-2.944.869-4,2" transform="translate(36.039 4.11)" fill="#ebd9b3"/><path d="M76.235,48.074c-.955-1.1-.917-3.1-3-3-.712.032-1.227-.406-1-1a3.911,3.911,0,0,0,0-3c-.221-.38-.5-.113-1,0-.461.1-.248-.392,0,0,1.11,1.741-.708,3.32-2,4-1.6.844-1.956-.99-3-2-.969-.939-2.188-1.721-2-3,.418-2.84-1.686-5.271,1-8,.47-.478-.594-1.361-1-2-.688-1.081-1.351-2.893-2-4,1.081.1,1.81-.581,3-1,.9.936.694,2.975,3,3,1.029-1.212-1.647-3.994,1-4,1.9,0,.736,2.567,1,4a22.25,22.25,0,0,0,0,3c1.722-2.222,3.727-4.626,4-7,1.645.418,1.638,2.7,3,3,.517.113.551.237,1,0,.87-.459.591-1.383,0-2-.523-.545-.818-2.045,0-2,2.619.143,2.125-1.733,3-3,1.258-.274,1.521,1.1,3,1,2.307-.163,1.99,2.47,2,4,0,.225.129.773,0,1-2.6-1.676-2.661,1.606-4,2-4.428,1.3-2.837,5.232-4,8-.2.484.36.984,1,1,.666.014.948-.373,1-1,.444-5.292.94-6.192,5-7,1.066,1.615-.077,2.493,0,4,2.287,2.056,4.5,4.225,4,8-.165,1.238.415.126,1,0,3.8.614,2.282,3.444,2,5-.4,2.2-2.91,3.071-5,2-2.611-1.335-5.592.366-8-2-1.177-1.157-.99,3.833-3,2Z" transform="translate(27.765 8.926)" fill="#ebd9b3"/><path d="M84.36,38.054c-.906.379-1.843,1.83-3,2-.906-.826.009-2.1,0-3-.019-2.132.676-4.075-2-5-1.127-.389-.968-2.021-1-3a2.267,2.267,0,0,1,2,1c1.189,1.409,3.406.714,4,0,1.393-1.674,3,1.888,4,0,2.233,1.763,2.435,3.777,1,8,.155-3.2-.524-4.188-3-3-.887.425-1.2-.727-2-1-1.855-.639-.734,1.317-1,2,.475.478,1.54,1.015,1,2" transform="translate(34.64 12.946)" fill="#edddbb"/><path d="M123.883,36.239c1.073,1.277,2.485,2.17,0,2-1.427-.1-3.428-1.442-5,0-2.6-.062-1.112-3.379-3-4-.129-.129.123.133,0,0-.376-.793-.714-2.2,0-3,.656-.74-.428-1.147-1-1-3.662.946-1.477-2.752-2-4a2.773,2.773,0,0,1,0-2c3.567,2.394,4.929,6.488,8,9,.8.656.7,2.077,1,3,.5,1.553.948,1.086,2,0" transform="translate(50.117 10.761)" fill="#ebd9b3"/><path d="M95.359,19.656c.036.718-.679.656,0,1,.982.5,1.606-.545,2-1,1.037-1.193.544-3.025,3-3,.656.006,1.526-.8,2,0,.387.657.643,1.541,0,2a4.034,4.034,0,0,0-2,4c-1.245.123-3.852-.268-2,2a3.254,3.254,0,0,1,1,2c-2.993-.548-4.162-3.251-6-5-.623-.592,1.161-1.4,2-2" transform="translate(41.641 7.344)" fill="#ebd9b3"/><path d="M117.791,39.245a2.361,2.361,0,0,0-1,2c-3.083.15-4.815-1.72-6-4-.815-1.565.509-3.256,2-4,1.029,2.028,2.028,1.32,3,0,.545-.738-.031-1.387,1-2,1.81,2.712,1.6,5.047,1,8" transform="translate(49.209 13.756)" fill="#ebd9b3"/><path d="M62.5,20.439h-1c.092-1.585,1.445-3.563,1-6,2.033,1.593,3.356,3.164,5,1,.248-.326.793.6,1,1,.458.88,1.9,1.107,1,2s-2.227,1.344-2,3c.1.714-1.478,1.146-2,1-1.89-.527-.864-1.89-1-3-1-.147-1.178.841-2,1" transform="translate(27.5 6.561)" fill="#ebd9b3"/><path d="M63.751,24.741a4.6,4.6,0,0,0-2,3,13.63,13.63,0,0,1-1,4,30.892,30.892,0,0,0-2-7c-.511-1.209,1.265-2.954,3-3,1.056-.029,1.608-.174,2-1,1.123,1.432.344,2.568,0,4" transform="translate(26.248 9.259)" fill="#ebd9b3"/><path d="M112.89,41.227c.894-1.146-.017-1.856,0-3,1.117.027.968.885,1,2,.436.5.8.385,1,1,.081,1.474.565,3.351-1,4a3.89,3.89,0,0,1-1-2c-.02.519.456,1.607,0,2-1.021-2.345-3.262-2.242-5-1-.357-1.719,1.67-3.226,1-5-.313-.832.24-1.964,1-2,.919-.045,1.3,1.308,1,2-.927,2.115.242,2.075,2,2Z" transform="translate(48.11 16.773)" fill="#ecdbb6"/><path d="M128.141,36.557a3.494,3.494,0,0,1,1-3c.925-.982,1.435-1.02,2,0,.857,1.546,1.122,2.995,2,5-1.739-.368-1.543-1.185-2-2-1.212-2.16-2.028-1.039-3,0" transform="translate(56.859 14.443)" fill="#ecdbb7"/><path d="M109.543,27.1c1.856,1.335,3.153,1.257,1,4-1.466-1.14-1.347-1.689-1-4" transform="translate(48.456 11.905)" fill="#ebd9b3"/><path d="M152.385,14.387c2.509,1.149,1.2,4.22,2,6a5.376,5.376,0,0,1-2-6Z" transform="translate(67.615 6.613)" fill="#ecdbb7"/><path d="M71.779,22.125c-.714.15-.906.41-1,0-.157-.685-.8-1.662,0-2,.511-.217.895.59,1,1,.181.7.53.6,0,1" transform="translate(31.221 8.875)" fill="#ebd9b3"/><path d="M51.316,20.064c-1.64-.078-2.923-.359-3-2,1.643.075,2.922.359,3,2" transform="translate(21.684 7.936)" fill="#ecdbb6"/><path d="M86.921,27.831c.647.455.35.249,0,1-.087.185.17,1.058,0,1-1.107-.374-.866-1.231-1-2,.285,0,.715,0,1,0" transform="translate(38.079 12.169)" fill="#edddbb"/><path d="M112.254,33.232v-2c.94.056,0,.564,0,1,0,.6.4.743,0,1" transform="translate(49.746 13.768)" fill="#ebd9b3"/><path d="M61.292,18.8c-.449.535.238,2.049-1,1,.371-.691.292-.986,1-1" transform="translate(26.708 8.201)" fill="#ebd9b3"/><path d="M113.023,40.541c-.691-.371-.983-.292-1-1l2,1c-.287.286-.714-.286-1,0" transform="translate(49.977 17.459)" fill="#ebd9b3"/><path d="M128.493,35.393a1.982,1.982,0,0,1-1,0c-.355-.155-.4.1,0,0,.254-.062.737.029,1,0h0" transform="translate(56.507 15.607)" fill="#ecdbb7"/><path d="M62.437,21.271a1.09,1.09,0,0,1,0-2c0,.574,0,1.426,0,2" transform="translate(27.563 8.729)" fill="#ebd9b3"/><path d="M94.956,18.9c.065-.118-.038-1.009,0-1,.285.062.409.857,0,1" transform="translate(42.044 8.096)" fill="#ebd9b3"/><path d="M98.369,20.741c.118.065.009-.038,0,0C98.307,21.026,98.512,21.15,98.369,20.741Z" transform="translate(43.631 9.259)" fill="#ebd9b3"/><path d="M114.494,39.541c-.286.286-.713.714-1,1,.287-.286.714-.714,1-1" transform="translate(50.506 17.459)" fill="#ebd9b3"/><path d="M233.368,33.453c1.656.812,1.754.647,2-1a8.871,8.871,0,0,0-2-7c1.544-.522,1.9.98,3,1,1.071-1.065.928-2.607,2-4,1.491.5,1.654,1.652,1,3-.842,1.732-1.51,3.093-1,5,4.767-3.5,5.539-7.266,2-13-1.927,1.632-4.55,1.108-6,4,.2-5.14,1.676-7.134,6-7,2.658.082,4.822,2.506,4,5-1.044,3.175-.125,5.454,3,7,1.312.65,2.4,1.855,2-1-.059-.428.551-.14,1,0,.354.11.893-.334,1,0,.452,1.4.962,2.737,0,4-.828,1.084-1.507,2.726,0,4,1.331-.77.149-3.954,2-4,1.6-.039,2.066,2.883,4,3,.315-1.644-1.453-3.836,1-5,1.533.163.652,1.694,2,2,.767-.059,1.043-.411,1-1-.055-.76-1.364-1.861,0-2a2.067,2.067,0,0,1,2,2,19.456,19.456,0,0,0,0,6c.47,2.361-1.2,5.027,1,7,.25.679.514,1.2,0,1-2.7-1.024-5.733-.014-8,2-1.836,1.631-3.689-1.383-4-1a4.986,4.986,0,0,1-5,2c-.972-.15-1.915-1.412-3-1-.308.208.3.783,0,1-2.738,2-7.291.924-10,3h0a1.243,1.243,0,0,0-1,0c-2.726,1.6-4.433.319-6-2-1.489.056-1.367,1.49-2,2s-.529,1.454-2,1c.73-1.453.734-3.414,1-5,.253-1.508,1.007-2.405,1-4-1.345-.946-2.765.22-4,0,.51-1.159,1.739-.984,3-1,1.437-.019,1.286-1.181,1-2a3.427,3.427,0,0,0,2-2h2a11.7,11.7,0,0,0,4-2" transform="translate(98.632 6.547)" fill="#ebd9b3"/><path d="M163.04,37.954c.719.056.847,1.435,1,2,.376,1.372.617,2.629,1,4,.244.881,1.469,1.494,0,2a1.529,1.529,0,0,1-2-1,34.807,34.807,0,0,1-1-5c-.194-.87,0-1.786,1-2" transform="translate(71.96 17.046)" fill="#ead8b0"/><path d="M156.945,7.721c1.378.352,1.445,1.4,2,2,.605.649.546,1.177,0,2-.423.637-1.279.127-2,0a2.192,2.192,0,0,1-2-2c-.071-1.053,1.374-1.1,2-2" transform="translate(69.055 3.279)" fill="#ead8b0"/><path d="M170.3,24.89a8.55,8.55,0,0,1,1,5c-.071.634-.386,1.075-1,1-.819-.1-2.292-.359-2-1,.672-1.475.256-4.057,2-5Z" transform="translate(74.695 11.11)" fill="#ead8b0"/><path d="M165.442,34.733c-.754-1.556.645-2.745,1-4,.172-.608.474-1.264,1-1,.68.342,1.386,1.614,1,2-.87.87-1.511,2.546-3,3" transform="translate(73.558 13.267)" fill="#ead8b0"/><path d="M169.64,26.4c.185-1.556-.117-3.353,1-5,1.232,2.745.914,2.847-1,5Z" transform="translate(75.36 9.602)" fill="#ead8b0"/><path d="M169.626,20.661c-.6-.329-.074-.467,0-1,.084-.6.309-1.256,1-1,.449.166.081.581,0,1-.107.562-.3.928-1,1" transform="translate(75.373 8.339)" fill="#ead8b0"/><path d="M216.883,32.451a2.9,2.9,0,0,1,0,4C215.6,35.172,217.135,33.463,216.883,32.451Z" transform="translate(96.117 14.549)" fill="#ebd9b3"/><path d="M279.718,9.148v-5c3.606.624,7.278,2.163,11,1,.6-.188,1.2.793,1,1-2.119,2.19.953,3.886,0,6-2.1.072-1.586-2.262-3-3-1.209.328-1.311,1.192-2,2-2.71,3.177-5.31,3.055-7-1-.105-.254.038-.718,0-1" transform="translate(124.282 1.852)" fill="#ebdab4"/><path d="M270.01,27.534c-2.287-1.755-4.242-.492-5,2-1.735-4.574-1.461-8.618-2-13,2.8,1.234,2,4.6,4,6,1.6,1.12,1.532,3.151,3,5" transform="translate(116.99 7.466)" fill="#ead7af"/><path d="M274.706,25.711c-.079,1.232.24,2.094-1,2-2.585-.2-4.17,1.828-6,3-1.776.136-2.156-.95-2-2,.14-.165.858.165,1,0,.982.448,2.014.429,2-1-.03-2.982,2.188-2.767,3-2,1.58,1.492,1.953.316,3,0" transform="translate(118.294 11.289)" fill="#ead7af"/><path d="M263.181,29.268c1.12-1.147,1.25-2.584,3-3,1.216-.29,1.861,1.158,2,2h0c-1.068,2.017-2,3.331-5,2-.386-.354-.295-.568,0-1" transform="translate(116.819 11.732)" fill="#ead7af"/><path d="M273.606,8.962a3.483,3.483,0,0,1,1-4c.939-.951,1.489.395,2,1,.76.9.312.895-1,1-.974.079-.7,2.029-2,2" transform="translate(121.394 2.038)" fill="#ead7af"/><path d="M272.5,16.593v4C269.847,18.436,269.847,18.34,272.5,16.593Z" transform="translate(120.495 7.407)" fill="#ead7af"/><path d="M270.2,19.387c.565-.11.912.587,1,1,.147.689-.184.675-1,1-.522.208-.88.4-1,0a1.836,1.836,0,0,1,1-2" transform="translate(119.8 8.613)" fill="#ead7af"/><path d="M269.213,14.787c.111-.618.058-1.056,1-1,.1.006-.006-.1,0,0C270.269,14.729,269.831,14.675,269.213,14.787Z" transform="translate(119.787 6.213)" fill="#ead7af"/><path d="M263.65,28.3v1a1.537,1.537,0,0,1-2,1,2.355,2.355,0,0,1,1-2h1" transform="translate(116.35 12.697)" fill="#ebd9b3"/><path d="M270.294,12.709a2,2,0,0,1-1,0c-.355-.156-.4-.9,0-1a9.235,9.235,0,0,1,1,0c-.069.113.068.886,0,1" transform="translate(119.705 5.291)" fill="#ead7af"/><path d="M27.986,12.579c-.631,1.478-1.224,3.758-3,1-.774-1.2-1.922-.851-3-1-1.543-.214-2.3-.632-2-2,1.58-.79,2.43,1.835,4,1,1.091-1.242-1.752-2.9,0-4,.718-.452,1.435.172,2,1a3.949,3.949,0,0,0,2,4" transform="translate(9.014 3.421)" fill="#ead7ad"/><path d="M34.341,27.106c-.075-.117.066-.879,0-1-.332-.617-1.907.069-1-1,.181-.212.754-1.173,1-1a1.883,1.883,0,0,1,0,3h0" transform="translate(14.659 10.894)" fill="#e3ca93"/><path d="M27.1,11.078c.065-.118-.038-.009,0,0C27.385,11.14,27.509,10.935,27.1,11.078Z" transform="translate(11.899 4.922)" fill="#ead7ad"/><path d="M6.883,6.687c.2-1.946-1.168-2.82-2-4a6.057,6.057,0,0,1,4,1c.692.446.377,1.266,0,2-.445.865-1.107,2.039-2,1" transform="translate(2.117 1.313)" fill="#e2c890"/><path d="M44.9,29.776c.409,0,1.594-.038,2,0,.766.072.861-.173,1,1,.026.227.188.876,0,1-1.06.7-1.34-.723-2-1C45.561,30.632,45.184,30.068,44.9,29.776Z" transform="translate(20.097 13.224)" fill="#ead8b0"/><path d="M87.007,35.926l-1-2c2.278-.143,2.763.639,3,3,.211,2.083,3.016,3.949,5,3,.6-.287.815-.832,1,0,.389,1.754,1.987,1.651,3,3,1.084-.706-.612-2.539,1-3,1.543.3,1.155,3.429,4,3,2.343-.353,4.474.3,5-3,.25-1.566,2.568-.944,4-1-3.372,2.982-3.235,3.777,0,6,.754-.709-2.846-3.893,1-3,1.086.251,1.772-1.86,2-3,.354-1.777.743-3.13,3-4-.446,5,.326,9.42,5,12h-1c-3.714-.266-7.286.55-11,0-3.719-.37-8.29-.506-12-1h0c-.535-1.137-.752-2.046-2-2-4.9.178-10.118-.858-15-1-3.47-.1-6.7.2-10-1,.695-.14,1.088,0,1-1-.072-.813-.813-1.814,0-3,1.83,1.52,4.593,1.989,6,4,1.42-.79-1.156-1.409,0-2a1.885,1.885,0,0,1,2,0c.465.3,1.546.674,2,1,1.845,1.328,3.107,1.07,4-1,.623-1.442,2.153-2.565,0-4" transform="translate(31.993 15.074)" fill="#ecdbb6"/><path d="M118.207,34.657c.828,1.858.988,4.006,4,4a.906.906,0,0,1,1,1c.01,1.179.049,3.068-1,3-3.883-.25-1.9,1.636-2,3-1.332.649-2.732-.393-4,1a1.248,1.248,0,0,1-2,0,1.741,1.741,0,0,1,0-2,33.1,33.1,0,0,0,3-7c-.789-1.414-1.285-2.354,1-3" transform="translate(50.793 15.343)" fill="#ebd9b3"/><path d="M117.979,36.409c-1.255.9-.879,1.812-1,3h-1c-1.514-2.742-.754-5.131-1-8,1.131-.467,1.806-1.187,2,1,.1,1.17-.206,2.113,1,3Z" transform="translate(51.021 13.591)" fill="#ead8b0"/><path d="M111.552,43.281c.036-.413-.446-1,0-1a1.254,1.254,0,0,1,1,1Z" transform="translate(49.449 18.719)" fill="#ebd9b3"/><path d="M275.4,30.831l2-1c2.55.809,3.352-1,5-2,.032.94-.008,1.385,1,2-.73,1.4-3.285.576-4,2a1.992,1.992,0,0,1-2,1c-5.332,0-9.96,2.838-15,4-5.491,1.266-10.487,1.873-16,3-2.975-.29-6.352.827-9,2a16.365,16.365,0,0,1-7,1,5.153,5.153,0,0,1,5-3,6.373,6.373,0,0,0,5-1h0c.166-.88-.189-1.68,1-1,.581.332,1.432.621,2,1,1.539,1.027,2.464.868,3-1,.264-.923.242-2.263,1-3,.264.162.9-.209,1,0,1.726,3.739,3.375,4.338,7,0,.269-.322-.263-.669,0-1,.157-.2.72.179,1,0,1.469.63,1.264,3.861,4,2a2.368,2.368,0,0,1,1-2c1.146-.072,2.854-.766,4,0,.266.306.736.692,1,1v-1c.3-.267.731.3,1,0h1c1.033-2.629,3.5-.768,5-2,.286,0,.714,0,1,0C274.666,31.523,275.152,31.156,275.4,30.831Z" transform="translate(102.6 12.169)" fill="#ecdbb7"/><path d="M90.542,42.472c3.866-1.54,8.374-.57,12,1a4,4,0,0,0-2,2c-1.117-.462-2.4-1.493-4-1-2.142.659-4.226-.648-6-2" transform="translate(40.458 18.528)" fill="#f5eddb"/><path d="M226.486,30.8c.194.9.775,1.953,1,3-1.505.647-1.724-1.459-3-1a1.516,1.516,0,0,1,0-2c1.193-.987.728-1.71,0-3-1.445-2.559,1.252-2.372,3-3a20.428,20.428,0,0,0-1,6" transform="translate(99.514 11.203)" fill="#ecdbb7"/><path d="M240.31,3.554c-.462,1.326-2.158,2.049-3,3-1.183,1.336-2.012.766-3,0a1.778,1.778,0,0,1,0-3c1.952-1.182,4.077.056,6,0Z" transform="translate(103.69 1.446)" fill="#e7d2a5"/><path d="M230.988,27.923c-.865,2.629-1.428,2.912-4,2,.185-.384.828-.61,1-1,.956-2.189,1.068-2.625,3-1" transform="translate(101.012 12.077)" fill="#ecdbb7"/><path d="M261.766,30.8c-1.4,1.53-3.528.687-5,2,.3-3.122.223-3.078,3-2,.639.247,1.3-.091,2,0" transform="translate(114.234 13.197)" fill="#ebd9b3"/><path d="M255.882,32c-1.146-.014-2.854.894-4,0a2.646,2.646,0,0,1,4,0" transform="translate(112.118 14.004)" fill="#ebd9b3"/><path d="M251.881,4.148c.118.065,1.009-.038,1,0-.064.285-.858.409-1,0Z" transform="translate(112.119 1.852)" fill="#e7d2a5"/><path d="M224.31,3.517c.065-.118-.038-.009,0,0C224.594,3.581,224.718,3.376,224.31,3.517Z" transform="translate(99.69 1.483)" fill="#ebd9b3"/><path d="M261.916,29.774c-.287.286-.712.715-1,1l1-1" transform="translate(116.084 13.226)" fill="#ebd9b3"/><path d="M256.295,31.979c-.286.286-.714-.286-1,0,.286-.286.714.286,1,0" transform="translate(113.705 14.021)" fill="#ebd9b3"/><path d="M255.824,32.716c-.287-.285-.713-.714-1-1,.287.286.713.715,1,1" transform="translate(113.176 14.284)" fill="#ebd9b3"/><path d="M198.476,12.487c2.866.936,3.78,1.155,3,4-.641,2.343-1.066,4.639,0,7,.578,1.277.276,2.511,0,4-.162.877-.178,1.313-1,1-.6-.228-1.574-.244-1-1,1.166-1.534-.25-2.739-1-4a5.368,5.368,0,0,1,0-5c.705-1.58.582-2.7-1-4-1.622-1.333-.507-4.687,1-6,.767-.667,1.259-.217,2,0,.942.277.326,1.408,0,2-.536.975-1.382,1.057-2,2" transform="translate(87.524 3.513)" fill="#ecdbb7"/><path d="M218.239,30.239c.105,3.632-4.051.239-5,3-.636,1.839-4.2,1.327-5,4-.649-4.5,4.533-6.676,4-11,1.2,1.128,2.613,1.565,3,3,.513,1.907,1.993.627,3,1" transform="translate(92.761 11.761)" fill="#ecdbb7"/><path d="M213.069,26.193c.795-2.076,2.247-3.548,2-6-.282-2.791.845-3.557,4-2-1.19,1.867-2.684,3.608-3,6-.238,1.816-1.537,3.334,0,5,.7.757,1.352,2.247,0,3-.919-1.417-2.03-3.316-2-5-.351-.221-.948-.48-1-1" transform="translate(94.931 7.807)" fill="#ead7af"/><path d="M220.438,19.535c.026,2.374-.885,3.492-3,5-.558-4.418-.574-3.714,3-5Z" transform="translate(96.563 8.465)" fill="#ead7af"/><path d="M213.519,23.419c.286.287.715.713,1,1-1.632,1.008.634,3.992-1,5a19.286,19.286,0,0,0-1-3,2.153,2.153,0,0,1,1-3" transform="translate(94.481 10.581)" fill="#ecdbb7"/><path d="M212.6,34.338c.053-.524-.581-.75,0-1a2.781,2.781,0,0,1,1,0C213.486,33.926,213.1,34.126,212.6,34.338Z" transform="translate(94.401 14.662)" fill="#ecdbb7"/><path d="M220.831,20.105c.062.113.009-.107,0,0a4.723,4.723,0,0,1,0,1c-.267-.243-.3-.819,0-1" transform="translate(98.169 8.895)" fill="#ead7af"/><path d="M104.482,22.729c2.278,2.989,1.174,5.663,2,8,.248.7-1.088,1.863-2,2-1.741.264-2.763-.541-4-2,.727-.8,1.354.121,2,0,.5-.094,1.312.633,1,0-1.416-2.866,1.487-4.827,1-8" transform="translate(44.518 10.271)" fill="#ead8b0"/><path d="M103.34,19.644c-.16.192.2-.055,0,0-.322.088-1.105.316-1,0a8.382,8.382,0,0,1,1-1c.319-.23-.087.624,0,1" transform="translate(45.66 8.356)" fill="#ead8b0"/><path d="M102.576,21.575c-.241.048.241-.046,0,0,.048-.231-.094.211,0,0,.038-.085-.1-.035,0,0,.331.113.2-.313,0,0" transform="translate(45.424 9.425)" fill="#ead8b0"/><path d="M111.552,40.012c.118.065.009.961,0,1a3.086,3.086,0,0,0,0-1Z" transform="translate(49.448 17.988)" fill="#ebd9b3"/><path d="M237.493,35.393c.118.065.007-.038,0,0C237.429,35.677,237.634,35.8,237.493,35.393Z" transform="translate(105.508 15.607)" fill="#ebd9b3"/></g></g></g></g></g></g><g transform="matrix(-0.839, -0.545, 0.545, -0.839, 246.003, 270.521)"><g transform="translate(66.379 61.821)" clip-path="url(#d)"><path d="M91.525,1.132C89.984,15.949,86.8,30.559,85.035,45.358c-.953,6.79-1.586,13.62-2.535,20.411-.973,6.84-1.994,13.68-2.4,20.584-.369,5.958-.765,12.091-1.217,18.075-.773,8.577-1.612,17.19-1.107,25.834a110.4,110.4,0,0,0,5.686,26.487c.453,1.406.857,2.827,1.289,4.239a127.571,127.571,0,0,1,2.813-17.256c1.16-4.855,2.54-9.646,4.064-14.392a.62.62,0,0,1-.568-.539c0-4.344.436-8.685.706-13.021a100.543,100.543,0,0,1,1.285-11.526c3.392-14.376,10.2-27.635,16.45-40.925,2.247-4.688,4.684-9.283,7.181-13.843a209.576,209.576,0,0,1,12.2-20.55c4.33-6.356,8.869-12.7,15.09-17.349a39.672,39.672,0,0,1,9.259-5.663c.824-.363,1.657-.7,2.49-1.039.747-.876,1.9-2.37,2.568-1.055a4.108,4.108,0,0,1-.25,1.9c-.352,1.278-.816,2.525-1.28,3.766-1.5,3.982-3.132,7.913-4.811,11.823-8.576,19.757-19.871,38.178-29.429,57.456q-8.978,18.442-18.458,36.644a35.163,35.163,0,0,1-7.094,10.56c-1.076,1.1-2.187,2.163-3.366,3.151a.58.58,0,0,1-.674.029,152.98,152.98,0,0,0-5.811,22.79.442.442,0,0,1,.1.013c.532-.042.847-.566,1.271-.852.787-.661,1.571-1.325,2.34-2.006,3.8-3.325,7.031-7.259,10.893-10.518,6.876-5.191,14.174-9.8,20.168-16.086,4.465-4.776,8.932-9.559,13.259-14.461a178.223,178.223,0,0,0,12.014-16.377c6.313-9.284,12.266-18.763,18.227-28.31,2.578-4.054,5.14-8.121,7.48-12.319,1.2-2.107,2.387-4.23,3.721-6.257a15.414,15.414,0,0,1,3.6-4.252.742.742,0,0,1,.96.183.879.879,0,0,1,.1.75.545.545,0,0,1,.278.415,17.068,17.068,0,0,1,.012,2.494,43,43,0,0,1-.642,5.949c-1.906,9.18-6.041,17.659-10.075,26.057-2.97,6.38-6.349,12.557-9.9,18.629a167.889,167.889,0,0,1-16.58,24.015c-4.8,5.683-9.573,11.407-14.619,16.919a59.842,59.842,0,0,1-14.91,12.483,54.462,54.462,0,0,1-8.111,3,44,44,0,0,1-10.179,2.069c-2.332.183-4.665.39-7,.462a8.155,8.155,0,0,1-2.7-.185c-.144.933-.279,1.868-.4,2.8-1.511,11.419-1.362,22.972-.7,34.448q.655,9.241,1.653,18.454c.394-.64.792-1.277,1.189-1.915,1.373-2.251,2.788-4.477,4.156-6.73a33.111,33.111,0,0,1,5.019-6.511c3.763-4.079,7.842-7.844,11.857-11.67,5.542-5.413,10.747-11.025,16.065-16.722a265.037,265.037,0,0,0,22.623-26.728c8.189-11.315,14.9-23.6,22.481-35.323C174.746,97.641,178.7,91.4,182.537,85.1a108.065,108.065,0,0,1,6.246-9.282c.531-.6.97-1.454,1.765-1.712a.671.671,0,0,1,.77.669,6.284,6.284,0,0,1-.39,1.6c.1,2.311.246,4.62.225,6.934-.1,4.742-.026,9.536-.951,14.209a51.346,51.346,0,0,1-3.229,10.252,225.225,225.225,0,0,1-11.5,23.5c-2.107,3.9-4.34,7.723-6.814,11.4-4.939,7.313-10.29,14.335-15.476,21.471a131.36,131.36,0,0,1-24.318,24.8,134.954,134.954,0,0,1-20.846,13.74c-4.193,2.168-8.565,3.972-12.9,5.825-.863.278-5.85,2.721-7.56,2.6.947,8.594,2.086,17.168,3.366,25.719a2.323,2.323,0,0,1,.3-.2c.859-.546,1.731-1.066,2.609-1.584,3.158-1.87,6.253-4.092,9.7-5.456,4.906-1.877,9.878-3.59,14.7-5.686A61.356,61.356,0,0,0,133,214.688c3.325-2.609,6.532-5.365,9.651-8.218,4.731-4.564,9.128-9.468,13.566-14.311,4.9-5.394,8.626-11.669,12.873-17.557,5.507-7.845,11.307-15.484,16.606-23.475,2.946-4.528,5.742-9.148,8.56-13.756,2.073-3.494,4.08-7.029,6.1-10.553a32.4,32.4,0,0,1,4.195-6.476c3.12-3.135,6.018-6.463,8.847-9.86.61-.641,1.2-1.529,2.141-1.663a.705.705,0,0,1,.7.457c.169.664-.238,1.282-.415,1.913.63,6.889-1.5,13.711-3.737,20.151-5.358,15.808-13.325,30.585-22.414,44.539a193.032,193.032,0,0,1-20.411,26.994c-3.871,4.2-7.829,8.324-12.1,12.124-6.282,5.434-12.947,10.407-19.369,15.673a83.545,83.545,0,0,1-10.149,7.281,18.993,18.993,0,0,1-7.629,2.145,85.121,85.121,0,0,1-20.081.457,28.184,28.184,0,0,1-8-1.8,1.045,1.045,0,0,1-.724.038q.815,5.348,1.7,10.681a175.881,175.881,0,0,0,4.752,20.752.588.588,0,1,1-1.134.314c-.667-2.223-1.266-4.466-1.837-6.718-1.263-5.022-2.255-10.1-3.124-15.2-.022-.008-.045-.011-.067-.021-.048-.022-.094-.047-.141-.07-.006.029-.011.056-.02.086a.625.625,0,0,1-.96.3,37.18,37.18,0,0,0-7.686.658c-2.2.011-4.2-1.045-6.127-1.982-3.139-1.55-6.114-3.4-9.094-5.226-3.173-1.857-6.219-3.913-9.274-5.955a76.6,76.6,0,0,1-9.017-6.658,56.772,56.772,0,0,1-7.65-8.2,100.656,100.656,0,0,1-6.543-8.84,65.949,65.949,0,0,1-7-14.823c-1.939-5.207-3.94-10.4-5.713-15.66-2.191-7.026-4.374-14.055-6.665-21.049-2.926-8.67-5.485-17.462-7.861-26.3a187.987,187.987,0,0,1-5.048-21.185,102.814,102.814,0,0,1-1.181-10.8C1.226,99,.764,95.231.338,91.3A46.818,46.818,0,0,1,1.495,74.39c.234-.63.076-2.289,1.135-2.008a.353.353,0,0,1,.04.02.7.7,0,0,1,.092-.038,1.492,1.492,0,0,1,1.421.494,54.431,54.431,0,0,1,6.537,11.265,89.692,89.692,0,0,1,3.7,10.852c1.624,5.261,3.011,10.589,4.411,15.912C21.4,119.919,24.352,128.846,26.5,138c1.887,7.219,3.008,14.6,4.39,21.923a156.409,156.409,0,0,0,6.18,20.154A137.35,137.35,0,0,0,45.62,199.85a105.788,105.788,0,0,0,9.6,14.247A123.769,123.769,0,0,0,70.55,231.038c3.576,3.15,7.2,6.245,10.978,9.154,2.861,2.2,5.968,4.025,8.887,6.157a10.136,10.136,0,0,1,.891.692c-.564-3.409-1.078-6.826-1.581-10.242-1.92-13.626-3.782-27.3-4.825-41.026a2.125,2.125,0,0,1-1.316-.072c-1.374-.272-2.746-.551-4.1-.917-7.435-1.969-8.35-2.144-14.14-7.331-3.46-3.172-7.1-6.12-10.372-9.507a77.12,77.12,0,0,1-6.585-8.361,71.83,71.83,0,0,1-8.4-14.3c-3.469-8.687-4.046-18.144-5.788-27.258-1.783-11.068-3.273-22.183-4.277-33.351-.7-7.468-.764-14.977-1.3-22.455-.4-5.656-.646-11.315-.937-16.978-.6-9.7-1.326-19.464-1.615-29.2a30.406,30.406,0,0,1,.251-5.78.864.864,0,0,1,1.257-.685c2.9,2.534,4.947,5.951,6.731,9.334,6.5,12.822,8.88,27.231,10.338,41.4,1.2,10.81,3.143,21.529,4.033,32.373a197.674,197.674,0,0,0,3.43,21.723c1.3,6.133,2.576,12.287,4.446,18.278,2.607,9.157,7.023,17.62,11.653,25.9a68.746,68.746,0,0,0,5.833,8.6c1.05,1.278,2.169,2.5,3.089,3.881,1.768,2.842,3.225,5.866,4.962,8.726.764,1.284,1.605,2.494,2.42,3.753.078.134.164.269.251.405-.375-5.313-.626-10.634-.7-15.965-.055-4.816.087-9.64.461-14.444a.516.516,0,0,1-.29-.354c-.034-.161-.077-.319-.126-.476a1.789,1.789,0,0,1-.7-.476c-1.147-1.179-2.18-2.461-3.264-3.7a126.487,126.487,0,0,1-9.465-12.193c-5.912-8.694-7.538-19.394-7.76-29.705-.018-10.36,1.077-20.69,2.118-30.987.649-6.9,1.34-13.791,2.376-20.642a230.6,230.6,0,0,1,7.449-35.457,69.493,69.493,0,0,1,5.589-14.04c1.611-2.884,3.425-5.644,5.193-8.43C87.234,4.7,88.731,2.11,90.823.178c.7-.608,1.414.5.7.954M142.23,14.556a55.476,55.476,0,0,0-9.117,10.4A175.022,175.022,0,0,0,120.03,45.822q-7.494,13.356-13.853,27.285a193.861,193.861,0,0,0-9.314,22.262,77.566,77.566,0,0,0-2.545,8.536c-1.12,5.651-1.3,11.444-1.746,17.176-.088,2.087-.309,4.246-.334,6.367,3.9-11.811,8.679-23.347,13.341-34.864,6.458-15.735,14.04-30.976,21.919-46.041,6.533-12.388,13.258-24.86,22.637-35.366,1.232-1.43,2.484-2.843,3.743-4.251-.7.307-1.4.625-2.085.97a44.876,44.876,0,0,0-9.563,6.661M99.87,120.632a53.372,53.372,0,0,0,3.21-5.883c4.362-8.5,8.84-16.95,13.018-25.547q6.92-14.49,14.584-28.605,7.808-14.359,15.224-28.929c1.929-3.862,3.748-7.97,5.456-11.974,1.97-4.759,4.067-9.492,5.578-14.423-.035.039-.069.078-.1.116a.584.584,0,0,1-.349.452l-.087.036c-4.757,5.3-9.56,10.619-13.548,16.555C135.008,34,128.793,46.591,122.406,59A542.561,542.561,0,0,0,93.38,127.763a39.294,39.294,0,0,0,6.49-7.131m79.766-78.02c-3.884,4.85-6.448,10.728-9.847,15.955-6.446,10.225-12.777,20.519-19.5,30.564-4.144,6.063-8.131,12.258-12.795,17.941-3.035,3.7-6.362,7.148-9.6,10.674a105.69,105.69,0,0,1-10.121,10.2c-2.687,2.281-5.492,4.424-8.338,6.5a91.537,91.537,0,0,0-8.185,6.079c-3.564,3.337-6.778,7.036-10.508,10.2,5.9-2.661,11.9-5.066,17.784-7.762a52.683,52.683,0,0,0,12.7-8.021c6.351-5.71,11.52-12.578,16.814-19.241A291.127,291.127,0,0,0,167.9,68.057c4.224-8.332,8.55-16.644,11.738-25.445m-87.146,110a65.368,65.368,0,0,0,9.153-1.045,69.326,69.326,0,0,0,12.557-4.155c7.612-4.216,13.488-10.783,19.132-17.274,5.582-6.581,11.419-13.05,16.51-20.042a248.814,248.814,0,0,0,22.712-40.1l0,.011.013-.027,0-.005,0,.005a99.831,99.831,0,0,0,5.529-13.7,41.966,41.966,0,0,0,2.3-12.292,229.768,229.768,0,0,1-10.929,23.593c-11.574,23.1-25.861,44.949-43.213,64.137-5.8,6.429-13.059,10.722-21,14.029-5.536,2.256-10.929,4.867-16.5,7.035,1.249,0,2.5-.076,3.743-.165m83.276-54.4c-8.106,12.356-15.382,25.239-23.6,37.519-8.213,12.048-17.949,22.93-27.975,33.481-5.8,6.2-11.623,12.39-17.864,18.153a108.748,108.748,0,0,0-11.084,11.7c-1.9,2.854-3.622,5.832-5.452,8.735a89.1,89.1,0,0,1,7.613-5.849c3.538-2.512,6.953-5.191,10.36-7.878,6.289-4.787,12.105-10.144,18.137-15.24,6.328-5.29,13.093-10.124,18.539-16.383,9.624-10.771,16.278-23.72,23.347-36.215,5.342-9.869,10.43-19.9,14.871-30.21,2.588-6.34,4.8-12.845,6.942-19.348-5.109,6.843-9.161,14.4-13.836,21.534M95.439,207.1a130.986,130.986,0,0,0,18.211-8.915,149,149,0,0,0,28.409-22.73c7.009-7.108,12.62-15.41,18.54-23.41,3.3-4.534,6.6-9.072,9.546-13.846a263.306,263.306,0,0,0,12.926-24.4,99.166,99.166,0,0,0,5.435-13.927c1.615-6.635,1.515-13.527,1.394-20.316-1.942,5.655-3.853,11.331-6.129,16.863-3.472,8.121-7.413,16.035-11.475,23.876-4.069,7.805-8.433,15.454-12.89,23.044a122.028,122.028,0,0,1-13.905,19.7c-5.853,6.768-13.2,11.89-19.973,17.659-6.281,5.44-12.514,10.937-19.141,15.959-5.371,4.455-11.4,8.014-16.564,12.725,1.908-.667,3.755-1.5,5.617-2.274m119.21-96.251c-1.782,2-3.426,4.112-5.222,6.1-1.673,1.862-3.569,3.531-5.1,5.515-2.159,3.232-3.872,6.741-5.89,10.062-2.652,4.72-5.52,9.314-8.369,13.916-5.707,9.363-12.4,18.071-18.721,27.016-4.057,5.46-7.5,11.36-11.827,16.617-2.608,3.253-5.519,6.244-8.345,9.3a125.771,125.771,0,0,1-12.22,11.946c-6.22,5.264-12.659,10.512-20.249,13.661-2.494,1.064-5.025,2.038-7.546,3.034-3.161,1.254-6.381,2.133-9.433,3.694-3.319,1.745-6.425,3.9-9.694,5.8l.007,0c8.292-2.464,16.995-3.578,25.311-6a81.164,81.164,0,0,0,11.426-4.294,62.053,62.053,0,0,0,11.653-6.6c5.581-4.239,10.044-9.74,14.529-15.093,5.733-6.952,11.1-14.191,16.323-21.533,13.238-18.337,25.623-37.337,35.939-57.486,2.613-5.134,5.713-10.13,7.431-15.649M115.3,239.4c7.593-.679,10.294-.809,16.537-5.618,4.518-3.326,8.827-6.991,13.253-10.464,4.333-3.45,8.746-6.821,12.824-10.575A192.2,192.2,0,0,0,190.1,173.038a202.484,202.484,0,0,0,18.489-35.5c2.823-7.629,5.9-15.364,6.216-23.593-2.572,6.122-5.989,11.843-8.987,17.759-10.608,20.058-23.325,38.887-36.647,57.224-5,6.946-10.225,13.737-15.756,20.273-4.115,4.809-8.334,9.651-13.571,13.274a83.439,83.439,0,0,1-20.928,9.791c-8.216,2.515-16.756,3.658-25.03,5.932l.219.071c6.864,1.836,14.161,1.747,21.2,1.13m-45.328-7.3A114.432,114.432,0,0,1,56.524,217.65c-4.657-5.841-9.181-11.863-12.614-18.521-5.14-9.844-8.721-20.419-12.1-30.972-2.3-7.162-3.139-14.662-4.648-22.006-2.783-13.963-7.575-27.412-11.108-41.181-.951-3.579-1.99-7.129-3.066-10.67A70.128,70.128,0,0,0,8.718,82.611,77.222,77.222,0,0,0,4.908,75.8a9.962,9.962,0,0,0-1.821-2.3,1.348,1.348,0,0,0-.163.589C2.94,77.955,4.856,81.5,5.738,85.215,7.44,91.423,8.4,97.79,9.584,104.1a205.352,205.352,0,0,0,5.571,22.36c2.206,7.1,4.16,14.269,6.385,21.362,2.713,8.845,6.373,17.378,8.617,26.37,2.316,8.577,3.815,17.418,7.238,25.657a57.484,57.484,0,0,0,6.14,11.509,87.686,87.686,0,0,0,17.377,17.354c4.175,3.249,8.579,6.127,13.047,8.971a60.588,60.588,0,0,0,9.283,5.193A161.934,161.934,0,0,1,69.975,232.1M83.97,244.533a76.285,76.285,0,0,1-7.776-4.016q-3.945-2.519-7.875-5.066c-13.391-8.988-26.489-20.187-32.234-35.706-3.438-8.457-4.9-17.521-7.342-26.281-1.372-5.017-2.976-9.968-4.769-14.851-3.316-8.752-5.747-17.8-8.408-26.767-1.571-5.281-3.346-10.5-4.581-15.878C9.7,110.452,8.463,104.921,7.514,99.335,6.8,95.022,5.943,90.73,4.86,86.493c-.749-3.139-2-6.139-2.744-9.276a46.786,46.786,0,0,0-.939,7.936c-.074,5.009.886,9.884,1.281,14.9a128.722,128.722,0,0,0,1.9,16.124,150.992,150.992,0,0,0,3.76,15.562c2.613,9.722,5.35,19.417,8.578,28.955,3.523,10.569,6.459,21.334,10.509,31.721,2.553,6.709,4.7,13.658,8.78,19.657a100.7,100.7,0,0,0,6.426,8.683,56.267,56.267,0,0,0,9.359,9.627c4.368,3.454,9.178,6.428,13.843,9.472,4.687,2.785,9.218,5.862,14.28,7.949a8.532,8.532,0,0,0,2.567.588c1.143-.023,2.25-.373,3.384-.491a30.243,30.243,0,0,1,3.915-.19c-1.945-1.029-3.833-2.176-5.789-3.179M76.188,181.76c-2.031-2.808-4.449-5.327-6.3-8.269a96.294,96.294,0,0,1-5.34-9.172,125.521,125.521,0,0,1-6.955-14.793,151.8,151.8,0,0,1-5.71-20.577c-1.545-7.271-3.018-14.575-3.936-21.956-.719-7.2-1.41-14.4-2.477-21.556-1.743-10.651-2.328-21.465-4.383-32.067a135.217,135.217,0,0,0-3.471-13.525c-2.363-6.564-5.053-13.287-9.832-18.5A146.7,146.7,0,0,1,33.3,43.809c1.528,9.217,2.066,18.55,3.227,27.812,1.388,9.454,2.15,18.979,3.2,28.473.664,5.635,1.722,11.211,2.782,16.781,2.454,12.337,4.423,24.917,9.172,36.632,3.03,7.266,7.511,13.812,12.315,20.025,5.593,6.937,12.065,13.116,18.575,19.184-2.38-3.5-4.181-7.347-6.377-10.957M62.311,173.3c-4.832-6.409-9.364-13.168-12.27-20.691-4.379-11.478-6.354-23.688-8.725-35.7-3.23-14.968-3.787-30.3-5.989-45.419-1.149-9.253-1.692-18.576-3.23-27.781a134.588,134.588,0,0,0-4.86-20.1c-.015,5.133.372,10.257.6,15.382,1.052,16.743,2.034,33.572,2.85,50.346.8,11.218,2.2,22.471,3.913,33.6.8,5.46,1.815,10.889,2.651,16.343a75.9,75.9,0,0,0,3.088,13.6c2.666,7.563,7.527,14.084,12.285,20.485,3.58,4.812,8.351,8.513,12.745,12.54a43.328,43.328,0,0,0,7.041,5.472,71.732,71.732,0,0,0,10.107,2.912C75.43,187.653,68.3,180.969,62.311,173.3m14.225-44.1c-.472-10.072.889-20.085,1.555-30.113.519-6.744.747-13.54,1.481-20.3.572-5.188,1.41-10.34,2.08-15.514,1.214-10.194,2.44-20.391,3.97-30.543,1.457-9.385,3.127-18.739,4.391-28.153a303.022,303.022,0,0,0-10,36.338c-1.751,8.587-3,17.28-4.37,25.936C72.774,84,70.554,101.371,71.3,118.795c.538,13.908,3.484,24.152,10.378,36.242A104.786,104.786,0,0,1,76.536,129.2M80.388,18.164a73.84,73.84,0,0,0-4.1,10.777,210.457,210.457,0,0,0-6.165,26.192c-2.115,12.185-3.354,24.49-4.536,36.793C64.8,100.091,64.1,108.274,64.1,116.5c.521,20.981,5.551,28.243,18.932,43.584-4-7.569-8.381-15.069-10.442-23.458a97.375,97.375,0,0,1-2.61-23.47,235.465,235.465,0,0,1,2.166-31.274c2.119-13.861,4.071-27.766,6.778-41.528A304.143,304.143,0,0,1,88.82,4.423a150.632,150.632,0,0,0-8.431,13.742" transform="translate(-0.001 0)" fill="#fff"/></g></g></g></svg>