<svg xmlns="http://www.w3.org/2000/svg" width="116.773" height="139.575" viewBox="0 0 116.773 139.575">
  <g id="Grupo_94" data-name="Grupo 94" transform="translate(0.02)">
    <path id="Trazado_3579" data-name="Trazado 3579" d="M79.17,39.527c-.758.436-1.3.767-1.865,1.076-7.436,4.069-14.886,8.106-22.3,12.228a5.761,5.761,0,0,0-2.133,2.133C48.75,62.369,44.708,69.819,40.64,77.255c-.291.529-.586,1.054-1.031,1.847-.388-.652-.7-1.124-.965-1.618C34.548,70,30.479,62.5,26.327,55.048a6.1,6.1,0,0,0-2.235-2.257c-7.353-4.1-14.758-8.115-22.146-12.157C1.377,40.32.813,40-.02,39.531c.732-.419,1.274-.741,1.825-1.04C9.241,34.422,16.7,30.385,24.1,26.254a6.1,6.1,0,0,0,2.23-2.261c4.152-7.454,8.217-14.952,12.316-22.437.256-.467.547-.917.93-1.556.4.657.714,1.142.992,1.649,4.1,7.485,8.164,14.983,12.312,22.437a5.772,5.772,0,0,0,2.138,2.133c7.405,4.122,14.859,8.164,22.3,12.228.56.3,1.106.639,1.86,1.076Z" fill="#C18FD2"/>
    <path id="Trazado_3580" data-name="Trazado 3580" d="M197.909,166.258c-4.593,2.521-8.8,5.016-13.18,7.172a12.592,12.592,0,0,0-6.105,6.07c-2.142,4.386-4.642,8.6-7.128,13.123-.419-.692-.732-1.173-1.005-1.675-2.565-4.681-5.091-9.385-7.718-14.031a5.588,5.588,0,0,0-2.032-2.01c-4.6-2.6-9.252-5.1-13.885-7.635-.516-.282-1.014-.6-1.746-1.027,1.856-1.031,3.513-1.962,5.179-2.874,3.522-1.931,7.075-3.809,10.562-5.8a5.316,5.316,0,0,0,1.9-1.913c2.878-5.131,5.678-10.31,8.644-15.737.379.6.67,1.014.912,1.459,2.57,4.681,5.087,9.385,7.727,14.026a6.265,6.265,0,0,0,2.226,2.253c5.069,2.87,10.2,5.629,15.644,8.6Z" transform="translate(-81.156 -78.243)" fill="#C18FD2"/>
    <path id="Trazado_3581" data-name="Trazado 3581" d="M59.88,269.956c2.64-1.446,5.016-2.68,7.317-4.038A5.331,5.331,0,0,0,69,264.125c1.366-2.31,2.61-4.695,4.073-7.375,1.331,2.424,2.592,4.576,3.707,6.8a5.835,5.835,0,0,0,2.724,2.707c2.2,1.111,4.329,2.341,6.793,3.69-2.539,1.4-4.866,2.583-7.084,3.945a7.054,7.054,0,0,0-2.235,2.244c-1.34,2.182-2.508,4.474-3.906,7.013-1.428-2.605-2.654-4.972-4.02-7.264a5.727,5.727,0,0,0-1.9-1.913c-2.266-1.349-4.611-2.561-7.273-4.016Z" transform="translate(-33.496 -143.574)" fill="#C18FD2"/>
  </g>
</svg>
