<svg id="mariposas" xmlns="http://www.w3.org/2000/svg" width="277.771" height="385.194" viewBox="0 0 277.771 385.194">
  <path id="Trazado_7446" data-name="Trazado 7446" d="M.892,176.1a1.519,1.519,0,0,1,1.483.845,5.383,5.383,0,0,1,.083,4.52.474.474,0,0,1-.407.325q.73,1.761,1.574,3.479a61.341,61.341,0,0,0,7.932,11.932c.836,1.015,1.714,2.005,2.647,2.931.87.865,1.87,1.611,2.713,2.5a3.105,3.105,0,0,1,.994-.365c-.461-.66-.887-1.346-1.316-2.024-.678-1.071-1.319-2.167-1.906-3.29a49.425,49.425,0,0,1-2.99-6.969,54.43,54.43,0,0,1-1.993-7.334c-.238-1.251-.461-2.5-.627-3.765-.081-.618-.158-1.238-.21-1.859a4.211,4.211,0,0,1,.044-1.718,1.35,1.35,0,0,1,2.483-.053c.651,1.29-.473,2.429-1.416,3.166a1.233,1.233,0,0,1-.128.476l-.04.052a41.3,41.3,0,0,0,.758,5.319,48.421,48.421,0,0,0,4.493,12.467c.577,1.1,1.184,2.188,1.837,3.247.469.763.994,1.489,1.5,2.227a5.032,5.032,0,0,1,2.709.846c-.013-.148-.027-.3-.039-.444-.068-.818-.126-1.636-.167-2.455-.017-.352-.025-.7-.039-1.056-.318-3.226-.533-6.467-.628-9.7a105.347,105.347,0,0,1,.507-14.582,73.206,73.206,0,0,1,7.135-25.242,54.134,54.134,0,0,1,14.65-18.269A45.376,45.376,0,0,1,47.362,128a23.337,23.337,0,0,1,5.448-2.528,8.009,8.009,0,0,1,5.755.223,6.306,6.306,0,0,1,3.116,4.186,41.161,41.161,0,0,1,.721,5.482,22.864,22.864,0,0,0,2.057,6.289A40.479,40.479,0,0,1,67.3,155.393c.067,1.07.116,2.141.165,3.212q1.659-.622,3.341-1.18a49.918,49.918,0,0,1,12.063-3.185c.113-.016.226-.025.339-.04q4.133-.793,8.319-1.261c2.933-.33,6.242-.755,8.969.671a5.783,5.783,0,0,1,2.828,3.418,13.376,13.376,0,0,1,.27,5.11,99.528,99.528,0,0,1-1.614,11.492,98.255,98.255,0,0,1-2.917,11.129,76.681,76.681,0,0,1-4.076,10.349,18.3,18.3,0,0,1-6.458,7.7,20.677,20.677,0,0,1-7.991,2.651c2.065.314,4.117.7,6.141,1.137,2.25.491,4.974.992,6.5,2.9a5.331,5.331,0,0,1,1,3.68,13.534,13.534,0,0,0,.057,4.181c.684,2.615,2.552,4.688,3.907,6.963s2.484,5.178,1.474,7.8c-.92,2.388-3.452,3.8-3.99,6.36-.55,2.617.714,5.262,2.359,7.219,1.784,2.124,4.028,3.8,5.832,5.911a13.907,13.907,0,0,1,2.209,3.352c.451,1.017,1.14,2.635.486,3.7-.723,1.176-2.189.636-3.051-.041a14.431,14.431,0,0,1-1.384-1.359c-.491-.508-.984-1.014-1.485-1.512a20.925,20.925,0,0,0-6.571-4.807,23.3,23.3,0,0,0-8.443-1.4c-3.064-.062-6.126.024-9.189-.108-5.8-.25-11.707-1.167-16.864-3.988a22.532,22.532,0,0,1-6.333-5.14c-1.841-2.158-3.346-4.568-4.988-6.875a43.738,43.738,0,0,0-5.711-6.531c.195,1.175.307,2.364.445,3.547.176,1.506.338,3.014.5,4.523.747,1.272,1.124,3.229-.352,4.155-1.351.849-2.69-.4-3.218-1.59a31.167,31.167,0,0,1-1.3-5.108,15.63,15.63,0,0,0-1.43-3.624,30.6,30.6,0,0,0-4.664-6.043c-1.8-1.94-3.706-3.788-5.438-5.793a24.183,24.183,0,0,1-4.549-7.246,7.785,7.785,0,0,1-3.7,0,4.5,4.5,0,0,1-3.531-3.824,3.453,3.453,0,0,1,1.268-3.007,22.416,22.416,0,0,1-2.4-2.4c-.913-.98-1.845-1.939-2.738-2.938a51.608,51.608,0,0,1-4.758-6.354,63.066,63.066,0,0,1-3.99-7.048c-.565-1.182-1.089-2.391-1.591-3.6q-.385-.93-.733-1.874a3.547,3.547,0,0,1-.308-1.508A1.147,1.147,0,0,1,.892,176.1m56.569-48.064a3.182,3.182,0,0,0-1.1-1.094,4.481,4.481,0,0,0-1.248-.56c-.02,0-.04,0-.06,0a13.87,13.87,0,0,0-5.365,1.819,43.328,43.328,0,0,0-4.844,3.012c-.932.668-1.833,1.377-2.708,2.115-.091.114-.174.235-.253.357a3.955,3.955,0,0,0-.623,1.649,3.814,3.814,0,0,0-.015.847,2.274,2.274,0,0,1,.883,1.075,2.517,2.517,0,0,1,.517,1.772,2.356,2.356,0,0,0,.756-.2,3.857,3.857,0,0,0,.818-.509c.077-.076.154-.152.233-.228.032-.037.071-.071.1-.11a.217.217,0,0,1,.083-.068c.583-.556,1.177-1.1,1.8-1.618a23.735,23.735,0,0,1,11.209-5.483,3.093,3.093,0,0,0-.181-2.775m3.262,8.232a6.985,6.985,0,0,0-.472-1.016l-.087-.077a4.4,4.4,0,0,0-3.087-1.658,8.155,8.155,0,0,0-4.029.749,31.373,31.373,0,0,0-4.042,2.074,18.8,18.8,0,0,0-3.5,2.574c-.124.119-.24.244-.358.367-.136.248-.267.5-.388.752a4.817,4.817,0,0,0-.6,1.667.817.817,0,0,0,.094.463,2.456,2.456,0,0,1,2.652.865,2.882,2.882,0,0,1,.312,1.645c-.01.22-.034.439-.054.659a3.175,3.175,0,0,0,.339.851,1.816,1.816,0,0,0,.769.729,1.566,1.566,0,0,0,1.015.163.255.255,0,0,1,.169.009,53.07,53.07,0,0,1,6.9-3.641c1.2-.519,2.408-1,3.636-1.439l.273-.1a.438.438,0,0,1,.008-.2,10.573,10.573,0,0,0,.451-5.438m-7.982,27.893a2.16,2.16,0,0,0,.661.059h0c.71-.205,1.415-.426,2.117-.658.8-.265,1.6-.53,2.394-.816.183-.066.369-.124.554-.185l.093-.046a.391.391,0,0,1,.207-.122l.056-.009c.064-.033.128-.063.191-.1a6.143,6.143,0,0,1,.618-.322c.393-.194.794-.371,1.185-.573a9.7,9.7,0,0,0,2.2-1.478,5.342,5.342,0,0,0,1.505-2.39,3.781,3.781,0,0,0-.261-1.7c-.038-.1-.1-.173-.14-.261a6.724,6.724,0,0,0-2.057-1.531,27.2,27.2,0,0,0-4.059.253,21.287,21.287,0,0,0-8.449,2.651,3.751,3.751,0,0,1,.935.648,3.974,3.974,0,0,1,1,1.584,6.545,6.545,0,0,1,.7,1.994,9.16,9.16,0,0,1,.13,1.8c-.009.426-.09,1.042.42,1.19m-3.272-5.959c-.026-.021-.049-.047-.076-.068l-.127.035a9.194,9.194,0,0,0-1.7.044c-.3.021-.551.051-.8.083-.224.029-.519.1-.787.142-.045.031-.091.058-.136.09a57.17,57.17,0,0,0-4.572,3.841l-.132.054c-.118.712-.274,1.42-.421,2.12a68.654,68.654,0,0,1-1.846,6.922c-.295.911-.618,1.812-.955,2.708q-.059.326-.092.655c-.021.226-.038.454-.039.681,0,.081-.017.4.068.449l.05-.019a1.046,1.046,0,0,0,.295-.169c.194-.128.383-.265.572-.4.788-.557,1.568-1.132,2.335-1.718.538-.412,1.086-.815,1.627-1.226l.437-.34c.514-.4,1.03-.811,1.519-1.247a24.55,24.55,0,0,0,2.77-2.834,10.845,10.845,0,0,0,2.712-6.636,7.583,7.583,0,0,0-.707-3.168m-10.285,8.547q.414-1.666.746-3.352a11.346,11.346,0,0,0,.361-2.93,2.106,2.106,0,0,0-.317-1,2.128,2.128,0,0,1-.188-.239,1.548,1.548,0,0,0-1.028-.473,2.658,2.658,0,0,0-1.392.308c-.133.187-.263.376-.388.563a17.2,17.2,0,0,0-.96,1.559,19.174,19.174,0,0,0-1.223,2.9c-.146.626-.275,1.257-.4,1.888-.262,1.324-.542,2.649-.87,3.958-.158.63-.339,1.253-.534,1.871-.187.59-.329,1.2-.565,1.774l-.067.152a13.771,13.771,0,0,1,1.372-1.325,29.117,29.117,0,0,1,4.781-3.179c.237-.82.465-1.642.672-2.471m.935-8.966a1.874,1.874,0,0,0,1.143.844,2.209,2.209,0,0,0,1.113-.039c.14-.04.282-.079.419-.13,1.186-1.1,2.371-2.2,3.494-3.352a3.019,3.019,0,0,0,1.141-2.377,1.841,1.841,0,0,0-.36-.82,3.667,3.667,0,0,0-3.2.558,10.183,10.183,0,0,0-1.369,1.162c-.387.364-.788.71-1.154,1.1a3.871,3.871,0,0,0-1.281,2.548,2.574,2.574,0,0,0,.053.51m23.793-10.621a7.086,7.086,0,0,0-1.067-1.659l-.227-.05c-.091-.021-.183-.034-.274-.053a.506.506,0,0,1-.265,0c-.236-.067-.472-.12-.708-.165-.253-.034-.506-.069-.762-.089a32.236,32.236,0,0,0-3.275-.014l-.232.017-.1-.011-.124,0c-.932.178-1.867.352-2.775.608q-.756.37-1.5.764c-.236.14-.474.278-.7.437a12.861,12.861,0,0,0-2.12,1.789,4.423,4.423,0,0,0-.734,1.065c-.171.354-.184.753-.374,1.082.042.031.088.057.129.09a3.041,3.041,0,0,1,.432,4.2l.075-.04a28.092,28.092,0,0,1,10.543-2.924,26.249,26.249,0,0,1,3.047-.049c.433.018.881.043,1.329.084a9.336,9.336,0,0,0,.308-2.283,7.008,7.008,0,0,0-.622-2.8M97.668,173.2a3.055,3.055,0,0,0,1.339-1.207,4.985,4.985,0,0,0,.481-4.338,3.84,3.84,0,0,0-.632-1.063,3.458,3.458,0,0,0-2.193.094,5.092,5.092,0,0,0-1.677,1.194,5.613,5.613,0,0,1-.779.887c-.148.194-.3.383-.462.565a11.346,11.346,0,0,0-1.126,1.217.767.767,0,0,0-.021.912,18.92,18.92,0,0,0,2.948,1.663,2.92,2.92,0,0,0,2.122.076m-5.623,7.5v.026a3.261,3.261,0,0,0,1.181,1.939,1.89,1.89,0,0,0,2.777-.3c.741-1.141.274-2.53-.362-3.6a17.65,17.65,0,0,0-2.663-3.268,10.652,10.652,0,0,0-.934,5.2m.253-13.428a8.172,8.172,0,0,0,1.833-1.513c.463-.529.96-1.371.55-2.066a2.629,2.629,0,0,0-1.781-.945,31.778,31.778,0,0,0-5.938-.674,37.984,37.984,0,0,0-6.847.412c-1.111.169-2.211.388-3.306.64-.846.195-1.68.442-2.524.642a2.377,2.377,0,0,1-.12.4,8.228,8.228,0,0,1-2.813,2.963,81.1,81.1,0,0,1-7.345,5.223c-1.263.795-2.557,1.564-3.871,2.3.486-.057.972-.114,1.459-.165q1.6-.168,3.2-.372,3.228-.413,6.434-.98c4.229-.744,8.437-1.662,12.586-2.769,1.415-.378,2.839-.764,4.234-1.227a39.89,39.89,0,0,1,4.249-1.87m-4.081,6.791a3.516,3.516,0,0,0-1.705-2.428,3.344,3.344,0,0,0-1.122-.4c-3.85,1.09-7.739,2.041-11.668,2.793q-3.8.728-7.632,1.247c-1.119.152-2.239.286-3.361.413a3.908,3.908,0,0,1,.712.514c1.673,1.549,1.815,4.211,1.739,6.432,4.751-.453,9.511-.846,14.257-1.347a13.2,13.2,0,0,0,6.324-1.995,5.417,5.417,0,0,0,2.456-5.227m-8.889,16.608a3.936,3.936,0,0,0-1.012-1.567c-.939.206-1.881.4-2.822.593q-3.045.636-6.088,1.284c-1.118.237-2.237.469-3.367.639-.558.084-1.117.159-1.679.209a6.274,6.274,0,0,1-1.19.033,26.769,26.769,0,0,1-3.127,5.476,15.754,15.754,0,0,1,4.758-.146c2.194.193,4.367.624,6.574.657,3.209.05,7.507-1.1,8.152-4.8a4.892,4.892,0,0,0-.2-2.373m2.791-5.126a4.167,4.167,0,0,0,.27-2.013,4.895,4.895,0,0,0-.455-1.484,62.722,62.722,0,0,1-8.132.814c-2.886.211-5.773.4-8.66.6a25.153,25.153,0,0,1-1.549,7.371c.583-.089,1.191-.11,1.756-.194.915-.135,1.824-.306,2.732-.483,1.839-.359,3.675-.743,5.51-1.124,1.753-.363,3.533-.665,5.266-1.113a4.4,4.4,0,0,0,3.262-2.376m-8.8,14.391a4.539,4.539,0,0,0-.374-.648c-.087-.131-.195-.261-.272-.4a33.549,33.549,0,0,1-6.108-.392,30.284,30.284,0,0,0-3.733-.292,16.522,16.522,0,0,0-3.787.523l-.1,0a25.639,25.639,0,0,1-3.454,3.385,3.125,3.125,0,0,0,1.7,1.242c1.263.089,2.526.2,3.789.318q2.036.057,4.073.116c1.665.05,3.352.182,5.016.077a5.371,5.371,0,0,0,3.141-1.1l0-.008a3.105,3.105,0,0,0,.391-1.4,3.292,3.292,0,0,0-.285-1.417M59.554,193.2a33.058,33.058,0,0,0,3-6c.193-.511.379-1.041.54-1.581.03-.252.057-.505.074-.759a13.836,13.836,0,0,0-.074-2.661l-.058-.021a1.631,1.631,0,0,1-.342-.125A8.69,8.69,0,0,0,55.7,183.1a10.622,10.622,0,0,0-.94.668l-.179.039a30.529,30.529,0,0,0-2.642,2.09c-1.152,1-2.337,1.963-3.462,2.99-2.3,2.1-4.536,4.269-6.73,6.484.177-.082.353-.167.535-.239a12.851,12.851,0,0,1,3.685-.784,38.1,38.1,0,0,1,4.275-.033l4.365.13q2.006.06,4.011.138c.323-.454.636-.914.934-1.385m22.156,9.758.362-.036a10.524,10.524,0,0,0,2.82-.9,1.661,1.661,0,0,0,.608-1.292,3.011,3.011,0,0,0-1.1-2.2,6.111,6.111,0,0,0-2.748-.571,11.1,11.1,0,0,0-3.813.745,2.7,2.7,0,0,0-1.965,2.2c-.062,1.183,1.1,1.606,2.054,1.851a10.084,10.084,0,0,0,1.919.295c.622-.011,1.245-.036,1.865-.092m-14.9,29.561c-.146-.167-.3-.323-.452-.487a11.67,11.67,0,0,0-4.9-2.021,12.6,12.6,0,0,1-3,.53c.019.252,0,.514.014.742a6.327,6.327,0,0,0,.241,1.37,12.192,12.192,0,0,0,.443,1.3,6.62,6.62,0,0,1,.25.634c.061.214.108.431.166.646.1.185.2.372.3.559.439.468.77,1.04,1.179,1.536a17.844,17.844,0,0,0,1.482,1.64,6.752,6.752,0,0,0,3.489,1.892,3.916,3.916,0,0,0,3.436-1.021,3.237,3.237,0,0,0,.789-1.515,3.288,3.288,0,0,0,.031-1.192,41.612,41.612,0,0,0-3.47-4.612m.709-8.509c-.826-.39-1.6-.893-2.427-1.289q-1.5-.725-3.06-1.334a52.022,52.022,0,0,0-6.24-1.99,63.777,63.777,0,0,0-6.524-1.3c-.161-.023-.322-.04-.482-.061a28.372,28.372,0,0,1,5.554,2.034,27.509,27.509,0,0,1,5.4,3.314c.9.728,1.81,1.451,2.66,2.241.231.215.422.459.635.691.184.2.4.354.6.538.22.2.442.418.658.639.154-.062.308-.124.461-.193a8.127,8.127,0,0,0,2.684-3.075c.035-.072.055-.145.085-.218m.784,5.756a10.737,10.737,0,0,0,.319,1.268,13.711,13.711,0,0,0,.87,1.8A8.25,8.25,0,0,0,72,235.6a5.657,5.657,0,0,0,6.155.168,3.148,3.148,0,0,0,.335-.663,4.422,4.422,0,0,0-.084-2.995,51.308,51.308,0,0,0-4.724-4.3c-.354-.285-.721-.553-1.08-.832a.226.226,0,0,1-.094-.031,12.185,12.185,0,0,0-2.156-1.194,2.189,2.189,0,0,0-1.94.191c-.067.05-.135.1-.205.153a10.7,10.7,0,0,0-.078,1.808,11.654,11.654,0,0,0,.169,1.856m15.325-4.645a7.676,7.676,0,0,0-.308-.749,79.359,79.359,0,0,0-8.784-4.407,12.156,12.156,0,0,1-2.046-.381,24.566,24.566,0,0,1-3-1.035.973.973,0,0,0-.839.371,1.587,1.587,0,0,0-.245,1.038,5.929,5.929,0,0,1,.424,2.924c-.009.078-.026.154-.038.232a22.446,22.446,0,0,1,2.3,1.53q1.362.993,2.685,2.038c.493.391.971.8,1.453,1.206l.013.005a7.087,7.087,0,0,1,1.121.858,7.38,7.38,0,0,0,1.116.754,8.242,8.242,0,0,0,1.185.555c.178.064.355.135.531.2a5.072,5.072,0,0,0,1.894-.241,4.149,4.149,0,0,0,1.966-1.349,3.926,3.926,0,0,0,.755-2.295,4.225,4.225,0,0,0-.189-1.258m.8-6.3a6.441,6.441,0,0,0-.288-1.627,6.7,6.7,0,0,0-1.566-2.6,8.671,8.671,0,0,0-1.155-1.028l-.089-.06c-.078-.009-.156-.016-.232-.031a7.739,7.739,0,0,1-2.426,5.346,4.728,4.728,0,0,1-1.078.686c.124.093.246.189.376.283a11.916,11.916,0,0,0,1.174.751,6.868,6.868,0,0,0,2.619.906c1.657.159,2.344-1.227,2.665-2.626m-15.414-1.906a16.883,16.883,0,0,0,6.148,1.775,3.8,3.8,0,0,0,2.57-.809,4.585,4.585,0,0,0,.611-.627,11.522,11.522,0,0,0-2.591-3.837,24.015,24.015,0,0,0-2.192-1.291c-1.212-.658-2.44-1.273-3.67-1.9-.59-.3-1.191-.584-1.805-.828-.642-.255-1.311-.433-1.962-.661a.246.246,0,0,1-.113-.091c-2.213-.208-4.429-.4-6.651-.549a66.356,66.356,0,0,0-9.975-.278,18.407,18.407,0,0,0-4.685,1.006c-1.355.486-2.655,1.107-3.954,1.722a34.576,34.576,0,0,1-4.907,2.038c.09,0,.182,0,.272-.008a8.525,8.525,0,0,1,1.446-.036c.256-.052.514-.107.769-.156a45.91,45.91,0,0,1,6.25-.758,46.99,46.99,0,0,1,12.471,1.022,46.239,46.239,0,0,1,6,1.685c2.039.746,3.98,1.706,5.966,2.577m1.154-7.419c.156.071.315.133.47.206a37.608,37.608,0,0,1,3.4,2.017q.48.294.951.6a17,17,0,0,1,3.142,2.328,7.561,7.561,0,0,1,.715.849l.361.325c.021-.048.047-.1.066-.144a7.721,7.721,0,0,0,.414-4.268c-.664-.326-1.326-.648-2.011-.923a.538.538,0,0,1-.25-.1c-.279-.106-.56-.208-.851-.294a16,16,0,0,0-2-.484c-.344-.055-.69-.1-1.037-.127a2.523,2.523,0,0,1-.9-.138l0-.005c-1.2-.139-2.4-.276-3.594-.4.386.171.763.359,1.124.55M92.5,210.535a26.389,26.389,0,0,0-6.852-2.883,27.723,27.723,0,0,0-3.684-.765c-.394-.053-.791-.092-1.188-.127a1.827,1.827,0,0,0-.2.025l-.021.011-.056.038-.012.013h0a4.687,4.687,0,0,1,.663,1.08c.284.612.457,1.265.744,1.876a7.142,7.142,0,0,0,2.74,3.005,18.128,18.128,0,0,0,4.375,1.847c1.284.395,2.8.608,3.807-.393,0-.036,0-.07.008-.106a5.594,5.594,0,0,0-.327-3.622m3.265,21.18a2.045,2.045,0,0,0,2.056-.523,5.212,5.212,0,0,0,.841-1.2,5.961,5.961,0,0,0-.117-1.253c-.532-2.655-2.272-4.775-3.69-7a18.142,18.142,0,0,1-1.311-2.4,23.157,23.157,0,0,0-3.264-2.486c-.272-.127-.547-.245-.832-.348a3.836,3.836,0,0,0-1.236-.285,3.055,3.055,0,0,0-1.045.134,1.731,1.731,0,0,0-.456.245l-.043.033a6.842,6.842,0,0,0-.608,5.3,6.783,6.783,0,0,0,.38,1.022,3.538,3.538,0,0,1,.393.971A13.948,13.948,0,0,0,88.42,225.6c1.634,1.486,3.569,2.707,4.946,4.452.06.066.121.133.182.2a4.925,4.925,0,0,0,2.222,1.465m-9.727,10.2a22.942,22.942,0,0,1,.883,2.872c.038.064.071.131.11.194a9.417,9.417,0,0,0,.833,1.139,5.212,5.212,0,0,0,5.114,1.21.25.25,0,0,0,.009-.025,5.231,5.231,0,0,0-.052-1.824,16.812,16.812,0,0,1-.014-3.616,14.933,14.933,0,0,1,2.12-6.486,19.577,19.577,0,0,0-2.892-4.449,26.222,26.222,0,0,0-4.929-4.119c-.57-.385-1.156-.748-1.738-1.114.383,1.653-.542,3.449-1.439,4.789a11.81,11.81,0,0,0-1.474,2.517,3.415,3.415,0,0,0,.137,2.738.146.146,0,0,1,.011.067,28.013,28.013,0,0,1,3.321,6.107m-9.4,3.066c.116.1.216.218.325.324.184.18.372.356.566.526a9.176,9.176,0,0,0,1.336.984,5.035,5.035,0,0,0,3.228.679,4.341,4.341,0,0,0,1.069-.288c.124-.122.249-.24.351-.358a7.327,7.327,0,0,0,.9-1.331,8.368,8.368,0,0,0,.6-1.458c.074-.238.143-.479.2-.722-.053-.22-.094-.443-.149-.663-.1-.422-.229-.842-.373-1.252a8.608,8.608,0,0,0-1.25-2.4,14.94,14.94,0,0,0-1.776-1.944,13.52,13.52,0,0,0-1.9-1.385,1.788,1.788,0,0,0-.332.057.342.342,0,0,1-.055.006,4.44,4.44,0,0,1-1.813,2.069,4.782,4.782,0,0,1-3.622.436,4.5,4.5,0,0,0-.279,1.218c0,.047,0,.094,0,.142.033.109.063.218.1.327a11.813,11.813,0,0,0,.76,1.918,14.51,14.51,0,0,0,2.122,3.12m-14.653-3.9c.128.43.241.864.347,1.3.031.089.059.179.094.264a7.758,7.758,0,0,0,1.03,1.782,7.124,7.124,0,0,0,1.514,1.412,9.026,9.026,0,0,0,.859.532c.162.088.328.165.492.249a1.844,1.844,0,0,1,.266.173,38.417,38.417,0,0,0,4.506.88c.4.055.808.091,1.213.135a.46.46,0,0,1,.14-.07,3.345,3.345,0,0,0,1.428-.832,3.3,3.3,0,0,0,.525-.652,1.842,1.842,0,0,0,.183-.356c.021-.06.048-.132.068-.2a47.068,47.068,0,0,0-3.474-7.129,3.67,3.67,0,0,1-.183.75,4.081,4.081,0,0,1-2.457,2.4c-2.464.945-5.1-.239-6.86-2-.072-.073-.135-.155-.206-.229q.275.789.515,1.593m-5.615.592a20.856,20.856,0,0,0,3.42,2.4l.1.02.062.01a2.779,2.779,0,0,0,.408.016,1.41,1.41,0,0,1,.538-.158l.086-.052.01,0,.015-.015.061-.055.131-.126a1.034,1.034,0,0,0,.11-.138l.024-.035.04-.065a.368.368,0,0,0,.022-.256.255.255,0,0,1,.051-.216c-.086-.4-.17-.806-.276-1.2a21.294,21.294,0,0,0-.68-2.113,1.876,1.876,0,0,1-.505.6c-1.01.754-2.446.537-3.579.226a9.556,9.556,0,0,1-1.987-.8,21.373,21.373,0,0,0,1.949,1.964M46.233,228.841a66.132,66.132,0,0,1,4.89,6.5q.349.509.706,1.014c.531.475.987,1.05,1.532,1.509a8.512,8.512,0,0,0,2.461,1.454,5.75,5.75,0,0,0,2.78.435,1.585,1.585,0,0,0,1.392-1.25,35.631,35.631,0,0,0-3.406-5.8c-.386-.532-.8-1.041-1.236-1.536-.293-.334-.557-.687-.818-1.042q-.624-.155-1.235-.352a44.582,44.582,0,0,1-9.028-4.476l-.333-.2a1.036,1.036,0,0,0-.991.418,43.988,43.988,0,0,1,3.286,3.32m-9.405-8.794c.473.1.943.219,1.406.336,1.062.267,2.116.578,3.148.944a46.491,46.491,0,0,1,5.885,2.65,65.157,65.157,0,0,0,5.9,2.988,18.333,18.333,0,0,0,6.011,1.416,12.2,12.2,0,0,0,4.769-.752,11.992,11.992,0,0,0-1.457-1.525c-.815-.68-1.574-1.407-2.424-2.049a34.405,34.405,0,0,0-5.233-3.234,33.54,33.54,0,0,0-10-3.193c-.887-.069-1.776-.131-2.662-.189-2.4-.159-4.816-.213-7.225-.258q.985,1.407,1.889,2.866m-2.625-3.9c.519.1,1.037.208,1.561.268.649.074,1.3.125,1.951.18q1.953.163,3.905.345c.327.031.653.066.979.1,1.932.147,3.858.35,5.776.633a64.655,64.655,0,0,1,13.042,3.113q1.68.619,3.31,1.363a22.067,22.067,0,0,1,2.942,1.462,4.667,4.667,0,0,0,.14-.6l0-.017a5.785,5.785,0,0,0-.727-3.626,13.478,13.478,0,0,0-2.379-2.966c-1.514-.665-3.046-1.28-4.619-1.8a42.088,42.088,0,0,0-13.013-2.055,44.627,44.627,0,0,0-7.328.576q-1.812.3-3.594.741c-1.017.254-2.015.565-3.018.86q.546.7,1.069,1.418m-.238-3.629a14.631,14.631,0,0,0,2.2-.516,34.743,34.743,0,0,0,3.941-1.614,28.7,28.7,0,0,1,8.106-2.812,50.6,50.6,0,0,1,9.921.04c2.675.169,5.343.4,8.01.663.018,0,.028-.019.049-.02a4.807,4.807,0,0,1,1.113.1,1.218,1.218,0,0,1,.308.065c.255.026.51.047.764.073q2.3.242,4.59.526a4.334,4.334,0,0,1,.714.076c.1.012.193.032.29.046q2.633.339,5.253.76a6.192,6.192,0,0,0-.3-.6,6.677,6.677,0,0,0-1.028-1.327,23.612,23.612,0,0,0-3.293-1.461,19.427,19.427,0,0,0-1.9-.56c-.146-.035-.3-.064-.455-.094-5.045-.142-10.076-.833-15.117-1.183l-.653-.022c-.247-.008-.5-.014-.742-.028a1.619,1.619,0,0,1-.295-.05c-.544-.028-1.089-.06-1.634-.076-7.01-.212-14.436.764-20.164,5.149a18.184,18.184,0,0,0-2.189,2.009,6.21,6.21,0,0,0,2.509.864m-2.551-2.713h.013c4.073-3.772,9.635-5.714,15.106-6.364.819-.1,1.638-.165,2.456-.212a.465.465,0,0,1,.161-.134c.74-.343,1.456-.729,2.16-1.135a32.755,32.755,0,0,0,7.022-7c-2.367-.041-4.734-.1-7.1-.163-2.658-.066-5.372-.217-7.936.622a9.605,9.605,0,0,0-1.877.827,7.017,7.017,0,0,0-.818.547,4.532,4.532,0,0,1-.783.615l-.09.028c-.7.727-1.4,1.463-2.092,2.2a.191.191,0,0,1-.03.163c-1.251,1.868-2.752,3.564-4.18,5.3-.706.86-1.42,1.715-2.118,2.583-.366.456-.737.907-1.109,1.358-.2.246-.4.517-.611.775a5.187,5.187,0,0,0,1.827-.013m-4.323-2.448.6-.539c.6-.544,1.216-1.079,1.83-1.611q1.783-1.545,3.611-3.035c1.216-.995,2.419-2.007,3.628-3.011.884-.734,1.767-1.487,2.693-2.174a3.509,3.509,0,0,1,1.216-1.042c.161-.158.321-.318.483-.476,2.277-2.217,4.6-4.381,6.946-6.526a54.737,54.737,0,0,1,6.552-5.609,9.3,9.3,0,0,1,8.124-2.613,5.8,5.8,0,0,0-.823-1.719,6.928,6.928,0,0,0-3.4-1.779,9.16,9.16,0,0,0-2.066.1,12.736,12.736,0,0,1-2.157.34c-.3.1-.605.207-.9.324a26.075,26.075,0,0,0-2.981,1.372,21.2,21.2,0,0,0-2.727,1.77q-.627.48-1.213,1.013c-.2.184-.4.367-.609.54-.1.083-.2.169-.3.249a.71.71,0,0,1-.206.113c-.711.584-1.416,1.176-2.132,1.755q-1.5,1.209-2.943,2.477-1.416,1.248-2.768,2.566c-.476.464-.936.953-1.407,1.43a102.794,102.794,0,0,0-8.457,10.678c-.045.1-.091.189-.13.282a8.157,8.157,0,0,0-.487,1.64,9.2,9.2,0,0,0,.033,3.484M24.882,201.4a.689.689,0,0,0,.361-.17c.376-.277.733-.585,1.1-.871.705-.547,1.367-1.169,2.015-1.78.621-.587,1.26-1.155,1.864-1.761q2.16-2.941,4.565-5.7a89.946,89.946,0,0,1,6.338-6.556,49.876,49.876,0,0,1,6.689-5.358,27.145,27.145,0,0,1,6.937-3.326c2.387-1.181,4.768-2.349,7.069-3.7a79.945,79.945,0,0,0,6.958-4.581c.625-.46,1.257-.923,1.874-1.4a.535.535,0,0,1,.118-.167,2.123,2.123,0,0,0,.426-2.525l-.141-.1c-.063-.027-.126-.051-.188-.071a10.915,10.915,0,0,0-1.735-.4c-1.055-.013-2.113.025-3.149.03-1.053,0-2.105.022-3.157.064-.867.159-1.73.337-2.587.541-.307.087-.615.165-.919.266-.464.153-.92.324-1.374.5a76.749,76.749,0,0,0-10.585,6.745A69.691,69.691,0,0,0,33.916,184.6,64.5,64.5,0,0,0,24.88,201c-.012.088-.015.177-.024.265a.442.442,0,0,1,.026.134m-.91-7.168a12.144,12.144,0,0,0,1.566-1.495c.552-.552,1.09-1.117,1.637-1.673.88-.892,1.736-1.808,2.587-2.728.143-.229.281-.463.427-.69.5-.779,1.023-1.545,1.558-2.3.906-1.95,1.986-3.823,2.9-5.771q1.431-3.056,2.552-6.244.633-1.8,1.176-3.627a38.428,38.428,0,0,0-3.921,2.637,15.6,15.6,0,0,0-2.97,3.177,8.566,8.566,0,0,1-.805,1.267l-.065.1c-1.005,1.79-1.829,3.7-2.718,5.553-.957,2-1.75,4.037-2.56,6.1-.447,1.136-.9,2.266-1.323,3.414-.282.776-.533,1.573-.825,2.351.2.154.454.161.785-.067m-1.633-5.242q.078,1.015.189,2.03c.109-.178.222-.353.342-.52.261-.364.471-.766.7-1.149.257-.426.553-.823.813-1.248l.1-.08c.347-.682.684-1.367,1.021-2.047a.136.136,0,0,1,.151-.077c.523-1.04,1.055-2.077,1.545-3.132a64.673,64.673,0,0,1,3.059-6.17c.17-.449.475-.879.674-1.3.269-.563.55-1.12.822-1.682.3-.614.632-1.2.891-1.832.247-.6.455-1.219.644-1.84.777-2.561.852-5.275,1.672-7.828a14.543,14.543,0,0,1,.707-1.814,41.449,41.449,0,0,0-4,3.962,42.179,42.179,0,0,0-6.573,10.083,41.391,41.391,0,0,0-2.342,6.335c-.152.543-.287,1.087-.411,1.633-.014.175-.028.35-.039.524-.04.672-.074,1.345-.089,2.018a41.258,41.258,0,0,0,.128,4.13m1.316-14.18A42.667,42.667,0,0,1,30.4,164.031a39.6,39.6,0,0,1,3.737-3.805,3.939,3.939,0,0,1,.89-1.3,16.124,16.124,0,0,1,1.278-1.323c.931-.884,1.937-1.683,2.9-2.528a28.505,28.505,0,0,0,4.97-5.663c.392-.588.766-1.2,1.126-1.812a8.9,8.9,0,0,0,.208-1.423,4.744,4.744,0,0,0-.051-1.03,2.594,2.594,0,0,0-.723-.609,3.3,3.3,0,0,0-2.052-.248,8.561,8.561,0,0,0-1.971.517,7.757,7.757,0,0,0-.916.436c-.077.043-.149.088-.221.132-.2.25-.4.5-.6.75a96.378,96.378,0,0,0-13.322,21.8c-.942,2.209-1.794,4.458-2.514,6.749-.515,1.643-.916,3.334-1.267,5.028a43.472,43.472,0,0,1,1.78-4.894m-1.374.36a57.968,57.968,0,0,1,1.828-6.213A70.918,70.918,0,0,1,29.8,157.227a109.911,109.911,0,0,1,7.546-10.936c.824-1.061,1.661-2.12,2.518-3.164.052-.407.07-.816.087-1.229a3.448,3.448,0,0,0-.158-1.285,1.765,1.765,0,0,0-1.392-1.269,2.424,2.424,0,0,0-.773.073l-.241.149q-.735.455-1.43.968c-.427.317-.836.657-1.236,1.008-.026.024-.055.046-.084.069l-.033.027c-.269.24-.538.552-.831.808a58,58,0,0,0-3.8,5.993A70.438,70.438,0,0,0,22.321,172.2c-.283,1.941-.494,3.893-.659,5.849q.264-1.447.619-2.884" transform="translate(170.988 7)" fill="#fff"/>
  <path id="Trazado_7447" data-name="Trazado 7447" d="M123,24.532a3.869,3.869,0,0,1,4.217-3.169c2.058.134,3.992,1.14,5.848,1.959q2.864,1.265,5.654,2.691a113.576,113.576,0,0,1,20.869,13.83,114.933,114.933,0,0,1,17.311,17.9,144.249,144.249,0,0,1,13.85,22.427c4.181,8.08,8.144,16.314,13.213,23.891,1.067,1.594,2.193,3.146,3.362,4.666-.083-.653-.148-1.31-.189-1.966-.159-.1-.306-.208-.426-.3a4.818,4.818,0,0,1-1.271-1.472,5.7,5.7,0,0,1-.672-3.77,4.67,4.67,0,0,1,.683-1.721,2.13,2.13,0,0,1,.114-.29c-1.592-3.627-2.975-7.321-4.317-11.051a104.535,104.535,0,0,1-3.677-12.846c-.275-1.249-.485-2.516-.7-3.776-.119-.677-.256-1.349-.4-2.021a3.35,3.35,0,0,1-.249-1.268c-.03-.156-.065-.311-.093-.468a.6.6,0,0,1,.265-.631.643.643,0,0,1,1.194.076,4.784,4.784,0,0,1,.335,1,1.992,1.992,0,0,1-.181,1.746l-.082.076c.61,3.5,1.412,6.952,2.3,10.392a121.516,121.516,0,0,0,3.859,12.543c.707,1.876,1.457,3.737,2.236,5.586a1.616,1.616,0,0,1,.614-.326,3.412,3.412,0,0,1,.3-.186,3.178,3.178,0,0,1,2.247-.269c-.022-1.345.083-2.7.156-4.033.1-1.768.178-3.537.291-5.3a87.331,87.331,0,0,1,1.468-10.587q.494-2.616,1.106-5.206c.334-1.414.527-3.134,1.365-4.358a1.876,1.876,0,0,1,3.01-.428,1.739,1.739,0,0,1-.9,2.852,2.08,2.08,0,0,1-1.509-.264q-.894,3.38-1.58,6.813c-.932,4.611-1.589,9.279-2.151,13.948-.274,2.283-.232,4.6-.428,6.881a3.6,3.6,0,0,1,.808.6,4.212,4.212,0,0,1,1.1,2.089,5.229,5.229,0,0,1,.014,1.767c.041.112.085.22.122.335a5.267,5.267,0,0,1,.451,1.945,63.58,63.58,0,0,1,3.054-7.388c2.365-4.9,5.058-9.642,7.659-14.416,5.327-9.776,10.77-19.5,16.779-28.877a203.548,203.548,0,0,1,18.961-25.426A134.088,134.088,0,0,1,281.149,8.54q3.064-2.191,6.282-4.15a53.338,53.338,0,0,1,6.71-3.681c2.081-.883,4.511-1.142,6.339.409a6.128,6.128,0,0,1,2.061,4.737,4.258,4.258,0,0,1-.076.723,48.833,48.833,0,0,1,1.924,11.251,107.387,107.387,0,0,1-.294,17.369,122.392,122.392,0,0,1-8.183,33.625,122.778,122.778,0,0,1-16.824,29.934,65.046,65.046,0,0,1-10.417,10.764,17.24,17.24,0,0,1,12.118,4.408c3.694,3.286,5.669,8.022,6.481,12.815a49.581,49.581,0,0,1-.08,15.581,56.631,56.631,0,0,1-4.632,15.363,43.057,43.057,0,0,1-3.706,6.654,13.057,13.057,0,0,1-5.063,4.626c-5.063,2.285-10.405-.858-14.78-3.295a112.163,112.163,0,0,1-41.246-39.881c-.33-.549-.642-1.107-.963-1.661.081.285.168.568.246.854l2.224,6.663L220.725,136l.053.151.175.113a3.925,3.925,0,0,1,.948.937,2.573,2.573,0,0,1,.348,2.222,2.322,2.322,0,0,1-.17.369,1.757,1.757,0,0,1-2.686,1.677,2.08,2.08,0,0,1-.5-.368l-.254-.058a1.809,1.809,0,0,1-1.034-1.629,3.469,3.469,0,0,1-.628-3.006c-.759-1.228-1.463-2.487-2.139-3.761-.075,1.092-.213,2.187-.267,3.273-.076,1.55-.094,3.1-.076,4.653.04,3.2.218,6.392.3,9.589.169,6.237.441,12.5-.691,18.671-.134.73-.28,1.49-.448,2.256a20.982,20.982,0,0,1-1.4,5.867,3.115,3.115,0,0,1-4.546,1.429A11.591,11.591,0,0,1,205.4,176.6q-1.124-1.025-2.205-2.1-2.136-2.1-4.124-4.344a85.585,85.585,0,0,1-7.339-9.587,71.261,71.261,0,0,1-9.708-21.787c-1.051-4.184-2.069-8.836-.944-13.1.951-3.61,3.589-6.787,7.383-7.287q-1.53-.451-3.036-.977a61.6,61.6,0,0,1-16.648-8.966l-.042.009a2.022,2.022,0,0,1-1.134-.6,9.218,9.218,0,0,1-1.037-.963c-.183-.2-.361-.413-.533-.628-1.022-.862-2.027-1.745-3-2.672-6.441-6.149-11.648-13.467-16.359-20.985a191.467,191.467,0,0,1-13.256-25.154,199.58,199.58,0,0,1-9.454-26.718c-.546-1.98-1.319-4.125-.967-6.2m163.477-8.888a.925.925,0,0,0-.174-.6l-.034-.025a.578.578,0,0,1-.384.051q-.739.478-1.457.979c-1.636,1.145-3.248,2.326-4.859,3.506-3.3,2.414-6.565,4.865-9.832,7.318-3.5,2.626-7,5.238-10.459,7.92-1.605,1.247-3.161,2.553-4.638,3.95s-2.766,2.94-4.231,4.329l-.129.077a10.68,10.68,0,0,0-.763.834,24.9,24.9,0,0,0-2.03,3.052c-1.314,2.23-2.526,4.521-3.708,6.823q-.513,1-1.021,2l-.015.1-.016.164-.011.2a1.6,1.6,0,0,0,.016.443l.012.063.042.174.046.141,0,.005.007.015.129.23.055.062.107.1.039.026.1.056.064.022.162.051.031.014.035-.005.205-.005c-.142,0,.058-.013.081-.018l.2-.057.119-.045.139-.069c.119-.058.235-.116.348-.184a5.6,5.6,0,0,0,.665-.455.5.5,0,0,1,.339-.115,51.813,51.813,0,0,1,4.888-3.519,43.129,43.129,0,0,1,6.165-3.214c1.8-.76,4.547-2.081,6.2-.356a85.2,85.2,0,0,1,4.393-8.034q2.785-4.712,5.826-9.26c3.564-5.327,7.3-10.685,12.08-15.01.282-.255.581-.488.87-.735a2.878,2.878,0,0,0,.4-.91Zm-57.033,86.362c1.838-1.42,3.607-2.915,5.525-4.231a60.257,60.257,0,0,1,6.029-3.562,46.342,46.342,0,0,1,5.3-2.392c2.342-3.517,4.547-7.137,6.568-10.845a77.236,77.236,0,0,0,8.26-21.434,64.943,64.943,0,0,0-9.607,6.5,53.737,53.737,0,0,0-8.715,9.93c-.389.557-.75,1.131-1.121,1.7-.078.17-.148.342-.232.509a.245.245,0,0,1-.2.139c-4.364,6.879-7.463,14.5-11.282,21.685-.5.943-1,1.883-1.506,2.819.321-.28.641-.561.979-.823m-3.238,5.244c-.808.951-1.522,1.965-2.24,2.984-.361.512-.728,1.018-1.079,1.536a34.692,34.692,0,0,0,13.456-7.788,61.866,61.866,0,0,0,9.041-10.792c.087-.128.17-.258.256-.386a42.807,42.807,0,0,0-9.431,5.142,45.168,45.168,0,0,0-5.369,4.313c-1.579,1.625-3.169,3.261-4.635,4.991m23.862-40.868a57.907,57.907,0,0,1,11.169-7.472c.176-.929.34-1.86.466-2.8-.03-.246-.065-.494-.105-.738a4.778,4.778,0,0,0-2.439-3.542c-.219-.009-.426-.013-.6-.011a7.733,7.733,0,0,0-2.261.38l-.116.048c-1,.479-1.983,1-2.942,1.55a49.55,49.55,0,0,0-6.88,4.795c-.121,1.214-.325,2.432-.44,3.628a41.7,41.7,0,0,1-.863,5.435c-.424,1.833-1.095,3.542-1.665,5.328-.149.469-.3.934-.449,1.4a48.265,48.265,0,0,1,7.125-8M286,19.435c-.578.49-1.165.979-1.717,1.5a8.244,8.244,0,0,1-1.74,1.435l-.139.023c-.605.682-1.2,1.373-1.772,2.083a162.41,162.41,0,0,0-11.518,16.856c-1.042,1.686-2.056,3.391-3.075,5.092l-.1.164v0a6.013,6.013,0,0,1-.336.88,9.079,9.079,0,0,0-.644,1.644,3.763,3.763,0,0,0,.276,2.726,4.325,4.325,0,0,0,1.1.758,5.532,5.532,0,0,0,2.424.43.724.724,0,0,1,.257-.244,23.112,23.112,0,0,0,6.394-5.711c.924-1.152,1.767-2.369,2.579-3.6.847-1.287,1.57-2.654,2.425-3.934a38.7,38.7,0,0,1,4.789-5.926l.013-.082a14.493,14.493,0,0,0,1.378-3.268c0-.277-.014-.553-.006-.831a22.93,22.93,0,0,1,.276-2.871c.183-1.176.433-2.34.71-3.5.031-.8.053-1.6.072-2.382.021-.885.044-1.76.088-2.633-.594.439-1.167.908-1.735,1.39m13.716,5.441c-.127-1.833-.289-3.676-.576-5.492a13.758,13.758,0,0,0-.778-3.06,4.545,4.545,0,0,0-.664-.76,10.252,10.252,0,0,0-6.707.612q-.892,2.58-1.608,5.214c-.314,1.157-.575,2.326-.816,3.5a24.991,24.991,0,0,1-.462,2.978c-.129.576-.273,1.147-.436,1.712-.089.437-.187.872-.28,1.309-.066.308-.093.639-.17.948a26.738,26.738,0,0,1,5.877-3.519,23.505,23.505,0,0,1,6.687-1.94c-.023-.5-.033-1-.067-1.5m-.33,8.992a17.435,17.435,0,0,0,.5-2.387c.014-1.492-.015-2.984-.072-4.475a27.6,27.6,0,0,0-5.727,1.577,24.057,24.057,0,0,0-7.123,4.68,35.936,35.936,0,0,0-5.471,7.028c-.817,1.265-1.706,2.483-2.524,3.749-.773,1.2-1.559,2.383-2.4,3.531a27.379,27.379,0,0,1-4.358,4.791c.99-.306,2-.556,2.974-.9a65.612,65.612,0,0,0,11.111-5.28c2.012-1.171,3.968-2.436,5.974-3.617l.059-.008c.51-.42,1.02-.841,1.507-1.288a27.207,27.207,0,0,0,3.624-4,17.663,17.663,0,0,0,1.929-3.4M294.3,59.8a26.676,26.676,0,0,0,1.643-4.918A40.608,40.608,0,0,0,297,49.3a9.487,9.487,0,0,0-.834-3.1l-.122-.209c-.357-.1-.72-.185-1.071-.264a7.83,7.83,0,0,0-2.362-.143,8.33,8.33,0,0,0-2.23.5l-.121.052c-.892.569-1.791,1.131-2.7,1.668a85.5,85.5,0,0,1-14.742,6.937c-.863.307-1.731.6-2.6.875a18.237,18.237,0,0,0-5.049,4.038,17.912,17.912,0,0,0-2.411,3.641c-.213.427-.4.866-.579,1.31a.522.522,0,0,1,.1.281A6.065,6.065,0,0,1,261.824,67c-.228.719-.469,1.434-.675,2.16a32.713,32.713,0,0,0-.952,4.433c-.156,1.137-.262,2.452,1.149,2.673a7.043,7.043,0,0,0,1.894-.081,6.8,6.8,0,0,1,1.135-.036c2.242-.73,4.474-1.492,6.682-2.316,4.393-1.64,8.709-3.491,12.939-5.518l0-.009a8.791,8.791,0,0,1,2.442-1.682c.855-.5,1.675-1.042,2.481-1.613a22.974,22.974,0,0,0,4.466-4c.323-.389.627-.794.912-1.21m-8.477,20.205c1.266-.956,2.483-1.972,3.726-2.957.326-.333.64-.68.936-1.047.125-.156.228-.324.344-.484.568-1.194,1.125-2.394,1.654-3.607.079-.183.152-.37.23-.553.031-.142.077-.279.1-.423a10.176,10.176,0,0,0,.081-2.776,9.571,9.571,0,0,0-.367-1.667,3.373,3.373,0,0,0-.331-.264,2.268,2.268,0,0,0-.62-.29l-.153.124a.735.735,0,0,1-.336.145q-1.064.618-2.144,1.211c-2.644,1.449-5.333,2.825-8.067,4.1a147.828,147.828,0,0,1-16.61,6.591q-1.037.337-2.08.662c-.652.322-1.292.7-1.944,1.016a21.917,21.917,0,0,0-2.276,1.292,20.456,20.456,0,0,0-3.838,3.259c-.335.362-.649.741-.954,1.128-.212.373-.428.745-.623,1.127a23.107,23.107,0,0,0-1.38,3.344c-.319.982-.874,2.638.372,3.2a.657.657,0,0,1,.352.353,10.477,10.477,0,0,0,1.618.021,38.088,38.088,0,0,0,7.506-1.24A64.5,64.5,0,0,0,275.3,86.3c1.271-.693,2.516-1.433,3.78-2.137.614-.342,1.216-.716,1.838-1.042.35-.183.72-.337,1.089-.494.317-.6,1.213-1.015,1.73-1.33.7-.424,1.4-.839,2.081-1.283ZM275.163,100.43a97.233,97.233,0,0,0,9.449-13.3c.324-.536.63-1.082.945-1.623l.04-.2.029-.214a.846.846,0,0,1,0-.247l0-.2a.544.544,0,0,0-.293-.361,1.568,1.568,0,0,0-1.3.069,12.357,12.357,0,0,0-1.457.684,17.276,17.276,0,0,1-1.555.853,1.244,1.244,0,0,1-.487.11c-1.983,1.219-4.015,2.355-6.1,3.39a79.8,79.8,0,0,1-19.3,6.641l-.26.047c-2.4.861-4.862,1.591-7.284,2.383a20.061,20.061,0,0,0-5.3,2.392c-1.136,1.06-2.249,2.145-3.3,3.286-.434.469-.843.952-1.241,1.444a13.748,13.748,0,0,0-.839,1.508,3.229,3.229,0,0,0-.217,1.7,2.412,2.412,0,0,0,1.977,2.017.411.411,0,0,1,.371.241,13.253,13.253,0,0,0,1.327.364,28.853,28.853,0,0,0,7.058.434,94.613,94.613,0,0,0,15.849-2.163,18.893,18.893,0,0,0,3.006-.825,58.469,58.469,0,0,0,8.887-8.423m-4.269,10.721a17.866,17.866,0,0,0-3.3-.321.6.6,0,0,1-.41-.153,50.9,50.9,0,0,1-12.9,6.938c.7-.04,1.4-.06,2.1-.042,1.707.041,3.406.225,5.1.425.106.009.215.01.321.019a79.435,79.435,0,0,0,10.082.419c.1-.013.208-.016.31-.031l.054-.008.169-.119c1.417-.444,2.828-.943,4.2-1.525.974-.414,1.9-.922,2.852-1.383a17.921,17.921,0,0,0-8.569-4.217m11.084,7.087a15.375,15.375,0,0,0-.962-1.273,17.322,17.322,0,0,1-4.976,1.718c-.3.064-.6.118-.9.175a18.173,18.173,0,0,1-2.59.416l-.044,0a26.9,26.9,0,0,1-2.685.193c-2.156.036-4.31-.087-6.46-.243-2.368-.171-4.718-.5-7.093-.595-1.316-.05-2.636-.048-3.951.022-.535.028-1.064.086-1.591.156a72.911,72.911,0,0,1-12.7,2.533,24.69,24.69,0,0,1,4,1.443c.174.081.341.174.512.26.321.134.643.264.959.41.694.318,1.372.675,2.034,1.059.99.128,1.99.434,2.95.6q2.04.358,4.1.61c2.619.321,5.263.574,7.9.694q1.645-.019,3.289-.032,4.177-.036,8.352-.066c1.011-.007,2.03-.028,3.049-.038.575-.031,1.15-.054,1.725-.09q2.283-.142,4.565-.3c1.2-.084,2.391-.193,3.587-.187a21.7,21.7,0,0,0-3.063-7.462m3.161,24.291a52.748,52.748,0,0,0,.656-11.054c-.016-.324-.045-.648-.068-.972a14.8,14.8,0,0,0-2.375-1.766,11.51,11.51,0,0,0-3.358-1.043,50.57,50.57,0,0,0-8.377-.239h-.728c-.365.012-.729.03-1.095.04-3.212.08-6.441.085-9.662-.031-1.781,0-3.563,0-5.343.006a42.263,42.263,0,0,1-4.324-.052,6.923,6.923,0,0,1-1.042-.177,24.172,24.172,0,0,1,5.276,6.221c.053.091.1.186.146.282a75.422,75.422,0,0,1,26.762,7.036c1.184.548,2.393,1.092,3.523,1.743Zm-5.987,13.042a34.212,34.212,0,0,0,5.032-9.368c.06-.173.1-.352.16-.525-.65-.4-1.276-.853-1.913-1.264-.881-.569-1.774-1.125-2.687-1.644-.328-.187-.669-.35-1-.529-1.015-.453-2.033-.9-3.059-1.32-2.6-1.073-5.227-2.074-7.847-3.092-1.9-.532-3.816-.98-5.746-1.348-2.054-.392-4.133-.615-6.212-.824.322.476.647.949,1,1.4a4.659,4.659,0,0,1,1.76.963c.811.644,1.6,1.318,2.379,2,1.565,1.37,3.083,2.794,4.593,4.224,3,2.842,5.96,5.776,9.212,8.332,1.384,1.087,2.865,2.028,4.326,3m-19.674,5.292c.747.266,1.5.515,2.256.738,3.309.975,6.944,1.423,10.219.074a13.554,13.554,0,0,0,3.176-1.891c-.232-.6-.425-1.214-.7-1.787a19.334,19.334,0,0,0-1.444-2.472,35.364,35.364,0,0,0-3.833-4.539,113.979,113.979,0,0,0-8.731-8.486q-1.313-1.1-2.719-2.074c-.646-.447-1.382-.824-2.052-1.265a2.838,2.838,0,0,1-.8.363,29.842,29.842,0,0,1-8.725.97c-.433-.009-.864-.044-1.3-.071l.239.205a24.089,24.089,0,0,1,1.816,1.691,33.128,33.128,0,0,1,3.142,3.8,36.117,36.117,0,0,1,2.228,3.635c.2.278.414.547.612.827,2.347,3.324,4.607,6.74,6.617,10.284M244.252,152.4a64.362,64.362,0,0,0,10.648,6.547,37.4,37.4,0,0,0-4.316-9.719,39.438,39.438,0,0,0-3.73-4.923c-.659-.74-1.354-1.452-2.053-2.154a8.719,8.719,0,0,1-1.8-1.9,34.746,34.746,0,0,1-13.4-4.538,34.22,34.22,0,0,1-3.873-2.668A90.274,90.274,0,0,0,244.252,152.4M224.2,121.969a13.547,13.547,0,0,0,.181,1.56,19,19,0,0,0,.888,3.22,18.743,18.743,0,0,0,1.4,2.935l.01.017a26.424,26.424,0,0,0,1.815,2.85.507.507,0,0,1,.106.3,32.642,32.642,0,0,0,14.232,5.569,35.435,35.435,0,0,0,4.529.332,6.189,6.189,0,0,0,3.427-2.278c.165-.267.309-.546.452-.826l.072-.239a3.629,3.629,0,0,0,.053-.472.225.225,0,0,1-.121-.133,21.226,21.226,0,0,0-1.8-4.447,14.976,14.976,0,0,0-3.251-3.6c-2.745-2.266-6.346-3.438-9.77-4.192-1.011-.222-2.026-.41-3.045-.591-.308-.055-.613-.114-.92-.173-2.751.151-5.508.2-8.254.165Zm-2.98-4.037a19.376,19.376,0,0,0,2.5.943,31.618,31.618,0,0,0,4.726,1.068c.1.009.209.017.313.022a83.215,83.215,0,0,0,19.8-2.61,53.529,53.529,0,0,0,12.9-5.263,68.736,68.736,0,0,1-10.629,2.287,86.341,86.341,0,0,1-15.983.737c-1.461-.07-2.922-.171-4.375-.334-.912-.1-1.84-.2-2.759-.335-.4,0-.8-.018-1.2-.019-.78,0-1.561-.022-2.34-.038a8.259,8.259,0,0,0-2.07.573,5.438,5.438,0,0,0-1.433.925,3.538,3.538,0,0,0-.461.529,2.691,2.691,0,0,0,1.011,1.514m-3.681-6.808a6.653,6.653,0,0,0,2.553,1.015l.086-.147a103.7,103.7,0,0,0,7.793-11.6c2.383-4.071,4.443-8.336,6.687-12.483,2.011-3.718,4.155-7.37,6.472-10.907.378-1.444.851-2.856,1.238-4.3.479-1.8.765-3.646,1.2-5.457.067-.278.139-.554.209-.831.014-1.116.027-2.232.017-3.348-.006-.75-.006-1.5.008-2.248-.4.371-.811.73-1.2,1.112a79.76,79.76,0,0,0-9.175,10.936c-1.463,2.063-2.857,4.18-4.236,6.3s-2.648,4.326-4.057,6.43c-.568.848-1.108,1.713-1.646,2.58-1.753,4.019-3.717,7.946-5.463,11.972-.949,2.186-1.853,4.39-2.694,6.621-.114.3-.219.605-.329.908a6.511,6.511,0,0,0,2.537,3.447M133.3,27.257a2.7,2.7,0,0,0-1.054.173,1.338,1.338,0,0,0-.687.642c.5.823.994,1.656,1.491,2.482.532.379,1.065.754,1.609,1.1,1.752,1.117,3.563,2.131,5.37,3.154q3.269,1.852,6.5,3.749c-.246-.377-.478-.765-.733-1.14a22.282,22.282,0,0,0-1.707-2.169,22.14,22.14,0,0,0-4.118-3.825c-1.486-1.006-2.967-2.024-4.5-2.955-.71-.43-1.437-.827-2.172-1.212M134.46,32.8c.571.9,1.136,1.8,1.727,2.679q2.745,4.1,5.739,8.031c.248.327.507.646.759.971,1.323,1.159,2.464,2.553,3.662,3.832,1.308,1.4,2.6,2.812,3.916,4.2,2.67,2.805,5.488,5.438,8.3,8.1.563.533,1.136,1.056,1.707,1.58a32.921,32.921,0,0,0,4.989,2.63c.317.133.639.253.96.375q.734.1,1.457.219a34.129,34.129,0,0,1,5.575,1.442c.3.105.6.228.894.342-.554-.852-1.087-1.72-1.641-2.566-1.117-1.708-2.24-3.415-3.421-5.079a70.519,70.519,0,0,0-7.9-9.573,59.191,59.191,0,0,0-9.686-7.729c-3.475-2.224-7.237-3.961-10.869-5.906-2.053-1.1-4.074-2.252-6.054-3.479Zm48.508,36.8c-.974-1.618-1.983-3.215-3.041-4.783a110.469,110.469,0,0,0-15.725-18.5,112.7,112.7,0,0,0-19.339-14.672q-3.048-1.831-6.209-3.465a.471.471,0,0,1-.467.027,8.851,8.851,0,0,0-1.589-.533,22.842,22.842,0,0,1,3.808,3.189c1.28,1.364,2.627,2.664,3.848,4.083.608.708,1.194,1.439,1.776,2.168a11.853,11.853,0,0,1,1.42,1.993c1.119.659,2.24,1.313,3.352,1.989a54.38,54.38,0,0,1,9.725,7.432,74.349,74.349,0,0,1,7.864,9.2q2.072,2.809,4.006,5.718c.9,1.351,1.838,2.7,2.676,4.109a36.826,36.826,0,0,1,5.027,2.576q.525.175,1.057.331c.411.121,1.208.413,1.593.1a.916.916,0,0,0,.218-.966M194.287,90.74c-.27-.374-.509-.777-.761-1.15-.437-.648-.881-1.29-1.315-1.941-.889-1.333-1.739-2.69-2.588-4.049-.827-1.322-1.638-2.654-2.462-3.979q-.65-1.046-1.276-2.106c-.076-.13-.14-.265-.212-.4a33.576,33.576,0,0,0-17.647-9.629,39.738,39.738,0,0,0-4.643-.565.373.373,0,0,1-.44-.008l-.04-.03-.013,0a42.47,42.47,0,0,0,1.317,5.989c.069.25.158.495.23.745,4.286,3.081,7.7,7.158,11.287,10.994a.383.383,0,0,1,.345.1,28.851,28.851,0,0,0,4.986,3.826c1.744,1.053,3.556,1.986,5.376,2.9,2.272,1.14,4.581,2.257,6.782,3.545a16.181,16.181,0,0,1,5.414,3.9c.091.082.183.165.272.249-1.607-2.754-3.134-5.558-4.61-8.385M165.055,75.618q.579,1.758,1.256,3.483c.676.452,1.31,1.021,1.937,1.485.907.671,1.859,1.283,2.82,1.873,1.224.752,2.5,1.415,3.766,2.083-1.6-1.47-3.216-2.926-4.786-4.433-1.613-1.549-3.256-3.079-4.993-4.49m35.338,26c-.476-.522-.936-1.06-1.44-1.558a25.628,25.628,0,0,0-2.138-1.885,38.229,38.229,0,0,0-5-3.291c-.331-.184-.669-.354-1-.533-2.66-1.144-5.4-2.117-7.954-3.489a29.425,29.425,0,0,1-5.9-4.381c-.123-.1-.243-.194-.363-.291a45,45,0,0,1-5.911-3.067c-.973-.567-1.93-1.16-2.9-1.738-.212-.127-.436-.255-.662-.387a60.8,60.8,0,0,0,6.255,11.021,58.914,58.914,0,0,0,12.5,12.729,18.416,18.416,0,0,1,2.361,1.271q1.276.729,2.581,1.407a50.431,50.431,0,0,0,5.512,2.465,43.655,43.655,0,0,0,5.715,1.721,7.647,7.647,0,0,0,2.973.18c.118-.032.236-.063.354-.092l.2-.071.122-.137a2.4,2.4,0,0,1,.754-.488,2.056,2.056,0,0,0,.22-.273,93.8,93.8,0,0,1-6.276-9.113m11.4,5.37a2.268,2.268,0,0,1-.344.333l-.169.134.27.7c.112-.44.227-.88.352-1.316Zm2,23.924.068-.123a67.265,67.265,0,0,1-3.039-7.248,9.258,9.258,0,0,0-.961.008,6.88,6.88,0,0,0-4.944,3.973,21.8,21.8,0,0,0-1.624,8.052,34.661,34.661,0,0,0,.245,7.9c.135.565.279,1.127.445,1.684a29.98,29.98,0,0,0,1.235,3.375,4.545,4.545,0,0,0,1.643,1.9,2.834,2.834,0,0,0,3.394-.76c.09-.092.167-.192.246-.29.264-.428.525-.856.774-1.292.309-.668.563-1.368.912-2.016a53.61,53.61,0,0,1,.81-12.146,24.209,24.209,0,0,1,.8-3.015m-6.753,43.1c.294.784.881,1.391,1.2,2.162l0,.033a2.9,2.9,0,0,0,1.679.425,11.712,11.712,0,0,0,2.166-4.106c.082-.425.161-.85.229-1.277a63.894,63.894,0,0,0,.53-12.417c-.114-3.182-.357-6.4-.523-9.618a6.686,6.686,0,0,1-1.345,1.714,5.251,5.251,0,0,1-2.223,2.223,2.636,2.636,0,0,1-.756.211,12.114,12.114,0,0,1,.37,2.1,27.312,27.312,0,0,1,.145,3.322,33.517,33.517,0,0,1-.655,6.277l0,.005c-.108,1.187-.246,2.371-.437,3.547q-.227,1.384-.542,2.753c-.067.293-.132.639-.213.986a6.858,6.858,0,0,0,.379,1.659m-6.067-4.565a5.546,5.546,0,0,0,1.659.977,2.019,2.019,0,0,0,.28.068,4.346,4.346,0,0,0,2.573-2.805,23.06,23.06,0,0,0,1.072-5.2,53.312,53.312,0,0,0,.013-9.427,4.616,4.616,0,0,1-1.475-1.584,15.93,15.93,0,0,0-4.153,3.592c-.116.137-.227.281-.344.416a14.682,14.682,0,0,0-1.072,1.626,16.364,16.364,0,0,0-2.132,7.822.569.569,0,0,1-.061.246c1.217,1.422,2.413,2.858,3.64,4.269M192.1,155.318a10.856,10.856,0,0,0,.833,1.349,4.411,4.411,0,0,0,1.328.358,5.671,5.671,0,0,0,3.122-.635,20.77,20.77,0,0,0,2.039-1.887c.358-.385.688-.789,1.011-1.2l.049-.14a15.306,15.306,0,0,0,1.655-3.929,16.022,16.022,0,0,0,.5-3.787q-.44-1.489-.746-3.025a16.907,16.907,0,0,1-6.746,4.527c-.21.082-.426.151-.639.225a10.447,10.447,0,0,1-1.166.413l-.076.166-.006.008-.082.238-.1.119,0,0-.029.028c-.164.21-.343.406-.512.609a7.012,7.012,0,0,0-1.068,3.968,6.907,6.907,0,0,0,.622,2.589m-4.86-18.811-.076.108a4.334,4.334,0,0,0-.4.7,6.108,6.108,0,0,0-.457,2.056c-.057.781.049,1.563,0,2.339l-.02.074q.105.554.223,1.106a6.9,6.9,0,0,0,1.07,1.614,6.1,6.1,0,0,0,4.216,1.991c.211-.04.423-.077.632-.126a14.9,14.9,0,0,0,2.712-.992,13.472,13.472,0,0,0,2.932-2,14.267,14.267,0,0,0,3.322-4.605c-.067-.818-.107-1.639-.109-2.458a3.789,3.789,0,0,0-1.266-.3c-.809-.059-1.624-.073-2.435-.1-.868-.032-1.737-.05-2.6-.079-.416-.013-.837-.012-1.259-.02a19.949,19.949,0,0,1-5.021-.482l-.012,0a3.632,3.632,0,0,0-1.452,1.179m.9-12.188a8.034,8.034,0,0,0,1.084,6.421,9.727,9.727,0,0,0,5.058,3.53c.373-.013.747-.028,1.118-.057a27.926,27.926,0,0,0,3.017-.406,12.757,12.757,0,0,1,2.868-.524l.143.034c.081-.792.193-1.58.345-2.357a46.3,46.3,0,0,1,1.158-4.815c.171-.553.367-1.1.56-1.645a20.324,20.324,0,0,0-1.989-1.444,10.339,10.339,0,0,0-3.072-1.194.574.574,0,0,1-.356-.246c-.092-.013-.184-.022-.275-.036a19.2,19.2,0,0,0-3.389-.13,9.516,9.516,0,0,0-4.467,1.291,7.957,7.957,0,0,0-1.8,1.578m-8.126-10.807a61.606,61.606,0,0,0,24.98,5.9c1.49.043,2.982.029,4.474-.016-.234-.816-.442-1.64-.643-2.464a.761.761,0,0,1-.454.04,51.743,51.743,0,0,1-8.008-2.533c-1.958-.106-3.911-.313-5.856-.558a83.163,83.163,0,0,1-8.723-1.624,80.147,80.147,0,0,1-8.3-2.427,69.659,69.659,0,0,1-7.6-3.107q-.889-.44-1.764-.906a58.758,58.758,0,0,0,11.889,7.7m-14.044-10.467.168.116c1.1.715,2.209,1.427,3.335,2.1A52.838,52.838,0,0,0,176.8,109a68.544,68.544,0,0,0,16.588,4.195c1.716.233,3.439.382,5.164.512-1.095-.443-2.182-.9-3.249-1.412a60.051,60.051,0,0,1-8.787-5.182c-3.628-1.323-7.256-2.612-10.969-3.687-2.028-.586-4.073-1.109-6.126-1.6a12.045,12.045,0,0,0-2.891-.555,2.051,2.051,0,0,0-.715.166,4.883,4.883,0,0,0,.148,1.614m-12.683-15.6a8.931,8.931,0,0,0,.706,1.719,26.953,26.953,0,0,0,1.547,2.5,5.682,5.682,0,0,1,.9,1.235c.105.173.237.328.35.5q.954,1.24,2.021,2.4a13,13,0,0,0,1.082.945,13.653,13.653,0,0,0,2.984,1.73c.2.085.41.159.617.232l.046-.006a10.954,10.954,0,0,1,3.086.086,30.963,30.963,0,0,1,6.043,1.762l2.823,1.033.16.029a10.786,10.786,0,0,0,2.23.175c.457-.03,1.4-.539.924-1.1a62.862,62.862,0,0,1-5.332-5.971c-.1-.1-.221-.176-.327-.271a.28.28,0,0,1-.389.031,37.135,37.135,0,0,0-6.506-4.22l-.091-.01c-.418-.218-.844-.429-1.269-.639-.628-.282-1.261-.552-1.907-.794a36.964,36.964,0,0,0-9.716-2.018,3.967,3.967,0,0,0,.023.546Zm-8.29-14.792c.1.489.23.975.38,1.453a16.744,16.744,0,0,0,1.2,2.869,15.663,15.663,0,0,0,1.668,2.536c.551.678,1.146,1.346,1.766,1.969a2.192,2.192,0,0,1,.614.271,2.55,2.55,0,0,1,.334.263c.174.081.34.182.517.254a14.8,14.8,0,0,0,1.577.527c.31.088.611.159.9.255.182.031.364.061.543.1a27.6,27.6,0,0,1,5.837,2.4q3.079,1.491,6.146,3c1.359.671,2.714,1.331,4.034,2.059a61.157,61.157,0,0,1-4.833-8.825c-.27-.607-.516-1.225-.766-1.84a20.666,20.666,0,0,0-3.834-3.691,19.416,19.416,0,0,0-2.191-1.38q-.569-.3-1.145-.575a19.5,19.5,0,0,0-2.041-.824.485.485,0,0,1-.276-.222c-.618-.257-1.239-.5-1.869-.725a23.323,23.323,0,0,0-5.449-1.283,6.727,6.727,0,0,0-2.53-.02,1.212,1.212,0,0,0-.746.638c.07.258.111.528.165.783m-8.628-18.393c.377.942.783,1.879,1.221,2.8a38.572,38.572,0,0,0,4.149,6.483,24.786,24.786,0,0,0,1.745,1.938c.542.443,1.093.878,1.674,1.279A36.967,36.967,0,0,0,149.9,69.5c1.143.264,2.281.552,3.4.908a43.076,43.076,0,0,1,5.884,2.343c.477.233.942.5,1.409.756l.175.026A2.229,2.229,0,0,0,162.5,72.8c-.227-.879-.426-1.762-.621-2.646l-.116-.094c-1.059-1.99-2.187-3.975-3.415-5.867-.25-.386-.531-.751-.794-1.127a9.993,9.993,0,0,0-1.489-.635c-.956-.293-1.943-.474-2.906-.741a20.758,20.758,0,0,1-5.6-2.653c-.928-.6-1.822-1.239-2.69-1.916a6.758,6.758,0,0,1-.868-.206c-.63-.2-1.241-.467-1.851-.722-1.187-.5-2.338-1.069-3.484-1.65a24.446,24.446,0,0,1-2.86-1.753c.188.489.369.982.563,1.469m-1.2-3.118c.175.154.351.308.529.447A36.607,36.607,0,0,0,138.97,53.8a21.447,21.447,0,0,0,3.471,1.705c.3.116.6.221.9.324-.231-.2-.477-.385-.7-.593-1.8-1.664-3.667-3.245-5.58-4.78-1.042-.836-2.064-1.7-3.07-2.584q.583,1.635,1.181,3.263M130.86,36.331q.6,3.568,1.533,7.069c.227.628.45,1.258.674,1.888.365.291.717.6,1.068.909.96.849,1.9,1.713,2.846,2.583,1.843,1.7,3.609,3.479,5.512,5.119,1.141.983,2.3,1.99,3.493,2.935l.08.032.14.144a20.014,20.014,0,0,0,6.994,3.775c1.06.286,2.151.452,3.2.779l.1.033c-.117-.134-.237-.265-.354-.4-.3-.279-.61-.555-.908-.836-1.4-1.319-2.768-2.677-4.111-4.055a15.806,15.806,0,0,1-2.407-2.277.308.308,0,0,1-.048-.3c-.2-.21-.4-.413-.593-.624a141.7,141.7,0,0,1-12.6-15.723c-.538-.787-1.045-1.593-1.568-2.39l-.18-.129c-.353-.554-.763-1.079-1.154-1.608a5.9,5.9,0,0,0-1.232-1.266,1.962,1.962,0,0,0-.705-.327l-.167-.039-.09,0-.152,0-.01,0c.156,1.577.371,3.149.634,4.71" transform="translate(-122.908 0.001)" fill="#fff"/>
  <path id="Trazado_7448" data-name="Trazado 7448" d="M15.772,322.906a23.936,23.936,0,0,1,2.332-20.17,28.831,28.831,0,0,1,15.685-12.129c.611-.2,1.23-.379,1.853-.542-.23-.65-.444-1.307-.626-1.975a51,51,0,0,1-1.493-11.665,161.517,161.517,0,0,1,.553-21.962,80.9,80.9,0,0,1,4.711-20.995,56.966,56.966,0,0,1,4.743-9.6c1.7-2.726,4.044-5.957,7.7-5.31a11.991,11.991,0,0,1,4.874,2.632q2.066,1.557,4.005,3.273a63.789,63.789,0,0,1,7.214,7.547,64.845,64.845,0,0,1,10.481,18.447c2.756,7.5,4.2,15.39,5.462,23.253,1.346,8.392,2.625,16.795,3.928,25.193q.409,2.631.817,5.264c.071-.117.135-.24.212-.35a2.9,2.9,0,0,1,1.87-1.308c.186-.991.549-1.977.813-2.937.335-1.225.644-2.455.944-3.689q.9-3.7,1.627-7.439c.306-1.568.579-3.142.836-4.72a31.21,31.21,0,0,1-.5-4.044c-.072-.709-.142-1.418-.2-2.128a11.767,11.767,0,0,1-.105-1.858c.067-.878.744-1.758,1.709-1.3,1.212.58.85,2.147.712,3.2-.253,1.931-.553,3.856-.874,5.778,0,.186.01.372,0,.557a.336.336,0,0,1-.136.252q-.866,5.034-2.02,10.009-.532,2.275-1.128,4.534c-.206.781-.41,1.562-.622,2.342-.126.459-.24.925-.389,1.378a1.39,1.39,0,0,1,1.217.643c2.3-3.379,4.629-6.75,7.118-9.994,1.367-1.781,2.78-3.528,4.253-5.223a45.511,45.511,0,0,1,4.584-4.786c1.785-1.53,4.035-2.646,6.436-2.153a.464.464,0,0,1,.277.679,8.652,8.652,0,0,1-7.61,3.747.46.46,0,0,1-.174-.046c-.968.981-1.89,2.016-2.8,3.039-2.9,3.257-5.619,6.7-8.212,10.2-1.231,1.661-2.441,3.338-3.658,5.009a1.917,1.917,0,0,1,.076.484,1.889,1.889,0,0,1,0,.522,2.388,2.388,0,0,1-.06.489,5.583,5.583,0,0,1-.259.792q1.915-.744,3.826-1.491c.013-.007.029-.012.045-.018,4.235-1.657,8.456-3.345,12.641-5.137,6.349-2.719,12.667-5.507,19.1-8.021a152.168,152.168,0,0,1,19.333-6.289A96.659,96.659,0,0,1,156.951,283a43.357,43.357,0,0,1,4.707-.465,8.2,8.2,0,0,1,4.033.763c2.8,1.474,3.083,4.992,2.121,7.68a27.586,27.586,0,0,1-2.108,4.25q-1.1,1.941-2.311,3.822a73.8,73.8,0,0,1-11.479,13.933,59.588,59.588,0,0,1-15.109,10.414,52.49,52.49,0,0,1-18.107,4.995,44.393,44.393,0,0,1-17.578-2.029c-.794-.262-1.577-.553-2.354-.86a5.735,5.735,0,0,1,.372,1.636,9.557,9.557,0,0,1-.888,4.324c-.589,1.42-1.288,2.8-2.013,4.151-1.468,2.741-3.1,5.39-4.773,8.01-1.617,2.531-3.3,5.025-5.087,7.437a80.4,80.4,0,0,1-5.683,6.881c-1.526,1.638-3.422,3.645-5.74,3.951a55.142,55.142,0,0,1-6.825,4.062c-.712.386-1.62.676-2.262,0a1.751,1.751,0,0,1-.2-1.916,9.3,9.3,0,0,1,1.655-1.839,7.558,7.558,0,0,0,1.226-1.947,7.887,7.887,0,0,0,.644-2.624,8.545,8.545,0,0,0-.018-1.352c-.011-.121-.022-.237-.031-.352a39.2,39.2,0,0,1-.177-9.321,69.757,69.757,0,0,1,3.308-14.92,1.8,1.8,0,0,1-.958-.266,3.065,3.065,0,0,1-1.224-2.479,6.668,6.668,0,0,1,.606-3.119,21.3,21.3,0,0,1,1.715-3.161c-3.163,1.618-6.427,3.049-9.671,4.493-3.793,1.688-7.575,3.408-11.388,5.054-4.93,2.128-10.347,4.163-15.782,4.343-3.294,1.081-6.005,3.621-9.285,4.773a9.165,9.165,0,0,1-2.989.557,4.771,4.771,0,0,1-2.67-.631,1.775,1.775,0,0,1-.691-2.185,3.3,3.3,0,0,1,2.014-1.62A5.636,5.636,0,0,0,24.4,335.75a4.94,4.94,0,0,0,.841-1.628,21.288,21.288,0,0,1-9.466-11.216m148.614-32.738,0-.008,0-.029-.011,0c0,.013.007.028.012.041M21.7,302.915c-.224.089-.46.162-.671.256a5.812,5.812,0,0,0-1.149.675,6.48,6.48,0,0,0-1.739,2.106,9.32,9.32,0,0,0-.924,3.457.386.386,0,0,1,0,.2l-.019.08a18.673,18.673,0,0,0-.013,2.279,3.248,3.248,0,0,0,.345.772,3.371,3.371,0,0,0,1.835,1.448c.071.012.139.03.21.039a13.671,13.671,0,0,0,3.138-.118q1.672-.189,3.344-.389c4.516-.538,9.027-1.113,13.54-1.672,2.329-.289,4.677-.648,7.024-.754.1-.153.2-.306.31-.45a7.584,7.584,0,0,1,1.523-1.443,11.1,11.1,0,0,0-1.591-1.229,8.178,8.178,0,0,0-2.473-.913l-.012,0c-1.756-.335-3.511-.669-5.265-1.016q-3.492-.689-6.979-1.4c-2.206-.447-4.428-.848-6.623-1.349a7.925,7.925,0,0,1-1.982-.711,7.113,7.113,0,0,0-1.827.131m45.664-31.327c1.113,1.125,2.214,2.257,3.211,3.488a41.959,41.959,0,0,1,2.613,3.658,28.7,28.7,0,0,1,1.85,3.275c.066-.38.136-.758.223-1.127.247-1.043.565-2.068.9-3.084q.241-.725.512-1.438a4.96,4.96,0,0,1,.378-.857,61.632,61.632,0,0,0-5.77-9.075c-1.354-1.76-4.347-6.021-6.913-4.605a.571.571,0,0,1-.381.344l-.111.006a3.634,3.634,0,0,0-.336.33,4.7,4.7,0,0,0-.491.683.4.4,0,0,1,.2.4c-.256,3.229,1.986,5.853,4.111,8m7.788,17.374c-.07-.4-.145-.811-.211-1.222l-.033-.121.008-.048c-.059-.381-.108-.764-.133-1.142a18.8,18.8,0,0,1,.139-3.626c-.631-1.176-1.264-2.349-1.987-3.474A29.431,29.431,0,0,0,70,275.542c-2.022-2.236-4.513-4.119-6.16-6.671-.163-.164-.32-.332-.483-.5-.3-.3-.583-.616-.865-.934a.387.387,0,0,1-.322-.312l-.022-.074-.029-.033c-.092-.1-.188-.21-.284-.314-.018.078-.038.159-.055.236a39.858,39.858,0,0,0-.9,5.817,1.509,1.509,0,0,1-.011.294l-.012.058a40.774,40.774,0,0,0,0,5.683,20.745,20.745,0,0,0,2.334,3.52,21,21,0,0,0,1.752,1.859,16.686,16.686,0,0,1,4.917,4.529,43.2,43.2,0,0,1,3.269,7,59.97,59.97,0,0,0,3.944,7.871c.829,1.391,1.666,2.777,2.525,4.15.673,1.076,1.434,2.12,2.079,3.221.4-.423.8-.852,1.217-1.263.226-.224.472-.465.725-.709-.027-.049-.048-.1-.075-.151,0-.006-.012,0-.016-.013-.219-.4-.412-.808-.6-1.219-.356-.746-.7-1.5-1.046-2.248-.32-.7-.629-1.4-.983-2.078s-.76-1.32-1.066-2.027q-.777-1.791-1.491-3.609a36.5,36.5,0,0,1-2.55-6.045,22.268,22.268,0,0,1-.641-2.622m4.5,19.6c-.749-1.243-1.514-2.477-2.245-3.733-1.441-2.477-2.8-5.023-4.01-7.619-1.123-2.4-1.936-4.989-3.383-7.221a18.3,18.3,0,0,0-5.3-4.955c-1.064-.728-2.14-1.438-3.151-2.239-.105-.083-.213-.169-.32-.255a40.771,40.771,0,0,0,2.607,9.314.531.531,0,0,1,.141.336c.444,1.044.928,2.071,1.462,3.075a42.081,42.081,0,0,0,13.977,15.286c.532.35,1.05.723,1.574,1.084.107-.115.219-.225.326-.339-.606-.88-1.135-1.822-1.684-2.733M64.8,302.852a80.962,80.962,0,0,0-15.089-6.245c-1.828-.554-3.684-.963-5.544-1.355a3.648,3.648,0,0,0-.508.007,3.3,3.3,0,0,0-.738.2c.111.113.218.229.33.34a33.694,33.694,0,0,0,2.831,2.485,27.068,27.068,0,0,0,6.7,3.864,36.142,36.142,0,0,0,4.073,1.342l.1.062c1.3.28,2.59.632,3.879.983a62.3,62.3,0,0,1,11.153,4.411q2.627,1.294,5.187,2.72a1.5,1.5,0,0,0,.12-.831A114.064,114.064,0,0,0,64.8,302.852M67.23,307.2a53.105,53.105,0,0,0-5.5-1.969,19.275,19.275,0,0,0-2.835-.695c-1.017-.136-2.04-.272-3.064-.351a27.555,27.555,0,0,0-5.34.056q1.048.667,2.1,1.315c1.555.955,3.157,1.861,4.8,2.685.146.054.289.112.435.164q2.335.844,4.708,1.577c2.867.886,5.765,1.674,8.669,2.427a28.024,28.024,0,0,0,4.108.045c.6-.039,1.313-.039,1.7-.54-3.245-1.611-6.44-3.317-9.789-4.714m-13.172-4.086a38.4,38.4,0,0,1-4.6-1.892,33.122,33.122,0,0,1-6.5-4.21q-.5-.41-.977-.841a2.215,2.215,0,0,0-.218.33,5.47,5.47,0,0,0,.328.814,9.5,9.5,0,0,0,2.886,3.138c1.343,1.016,2.735,1.976,4.147,2.9a18.774,18.774,0,0,1,4.936-.241m-29.475-5.76a3.894,3.894,0,0,0,.277,3.413,3.79,3.79,0,0,0,.356.455,5.335,5.335,0,0,0,.757.615,7.291,7.291,0,0,0,1.447.726q2.7.552,5.407,1.1,6.029,1.225,12.043,2.517h.014a11.165,11.165,0,0,0,2.794,0,1.367,1.367,0,0,0,.625-.29.941.941,0,0,0-.2-.461,35.506,35.506,0,0,1-8.544-8.024,27.669,27.669,0,0,1-3.4-6,29.38,29.38,0,0,0-11.572,5.946m12.662-13.561a11.286,11.286,0,0,0,.976,3.429,13.358,13.358,0,0,0,4.112,4.989,6.653,6.653,0,0,1,1.841.246c1.253.335,2.481.81,3.706,1.238q1.905.665,3.8,1.366A112.765,112.765,0,0,1,63.9,300.383c.319.123.636.248.958.365a2.181,2.181,0,0,0,1.408.208c.362-.13.665-.567.426-.926l-.034-.147c-.447-.642-.882-1.293-1.289-1.961a40.985,40.985,0,0,1-2.739-5.361c-5.648-3.078-11.223-6.3-16.843-9.424-1.4-.782-2.794-1.594-4.216-2.339a5.657,5.657,0,0,0-2.155-.7.4.4,0,0,1-.641.23l-.15-.145a1.821,1.821,0,0,0-.665.335c-.917.751-.84,2.221-.718,3.277m.513-12.275a7.3,7.3,0,0,0,1.778,5.547,14.842,14.842,0,0,0,3.475,3.061c.26.149.516.3.77.441q2.191,1.231,4.384,2.457,1.455.745,2.925,1.455c1.236.6,2.48,1.175,3.721,1.761.974.461,1.985.907,2.924,1.451a2.182,2.182,0,0,0,2.037-.853l.077-.122a2.6,2.6,0,0,0,.118-.261,3.269,3.269,0,0,0,.181-.85l0-.116a19.061,19.061,0,0,0-1.788-4.786A25.545,25.545,0,0,0,55,276.045a29.393,29.393,0,0,0-10.335-6.959c-1.106-.471-2.234-.884-3.366-1.286-.205-.072-.413-.141-.619-.211-.305.2-.628.365-.934.583a4.613,4.613,0,0,0-.935.911,5.464,5.464,0,0,0-1.048,2.433m4.749-20.809a10.936,10.936,0,0,1-1.444.739,3.263,3.263,0,0,0-1.093,1.267,8.915,8.915,0,0,0-.907,3.541,11.826,11.826,0,0,0,.681,4.7c.1.2.2.39.313.58a13.979,13.979,0,0,0,4.189,4.235c1.76,1.221,3.666,2.206,5.51,3.288a31.927,31.927,0,0,1,2.7,1.73c.842.615,1.6,1.321,2.423,1.964a5.054,5.054,0,0,0,2.974,1.274,2.447,2.447,0,0,0,1.051-1.166,11.229,11.229,0,0,0,.772-2.1c.019-.155.031-.31.053-.464a.58.58,0,0,1-.05-.322,14.184,14.184,0,0,0,.053-3.583,11.917,11.917,0,0,0-.434-1.947,14.148,14.148,0,0,0-1.173-2.655c-.59-.834-1.22-1.644-1.85-2.44a27.25,27.25,0,0,0-3.088-3.3,23.534,23.534,0,0,0-7.826-4.807,11.714,11.714,0,0,0-2.781-.639Zm14.52-14.35a22.351,22.351,0,0,0-1.65-2.978,19.05,19.05,0,0,0-2.059-2.72,17.822,17.822,0,0,0-4.417-3.5,12.05,12.05,0,0,0-2.923,2.9q-.154.229-.314.456a14.649,14.649,0,0,0-1.589,3.209,16.978,16.978,0,0,0-.746,3.065c0,.394.005.787.031,1.182a16.172,16.172,0,0,0,.581,3.366,17.952,17.952,0,0,0,3.157,6.139,22.233,22.233,0,0,0,1.907,2.136c.1.076.2.147.295.224.508.406,1,.828,1.494,1.253a46.711,46.711,0,0,1,7.228,6.585,31.186,31.186,0,0,1,2.577,3.411.885.885,0,0,0,1.022.125c.72-.46.624-1.654.632-2.386.011-.907-.02-1.818-.1-2.722-.059-.7-.2-1.412-.237-2.119a142.5,142.5,0,0,0-4.58-17.5.238.238,0,0,1-.315-.128m5-2.257a3.452,3.452,0,0,1-.475-1.27c-.389-.378-.781-.753-1.183-1.116a4.556,4.556,0,0,0-.922-.506,2.4,2.4,0,0,0-1.111-.172,1.1,1.1,0,0,1-.543.183,1,1,0,0,0-.542.95q2.341,6.463,4.052,13.132,1.006,3.94,1.772,7.935a23.473,23.473,0,0,0,1.745,3.327,29.426,29.426,0,0,0,3.621,4.478,25.109,25.109,0,0,1-1.183-3.586,41.226,41.226,0,0,1-1.023-4.984,45.061,45.061,0,0,1-.575-4.99c-.034-1.009-.014-2.014.046-3.017-.548-1.893-1.189-3.762-1.836-5.62q-.545-1.565-1.161-3.1-.331-.824-.681-1.64m3.788,3.542a40.435,40.435,0,0,0-2.995-3.525c.163.4.325.8.481,1.2q.63,1.622,1.189,3.273c.52,1.534.936,3.089,1.311,4.658.028-.28.053-.56.088-.84.113-.917.271-1.83.462-2.734.068-.319.157-.633.242-.949-.256-.362-.511-.724-.777-1.079M78.037,267.7A116.942,116.942,0,0,0,73.158,251.1,59.085,59.085,0,0,0,67.4,239.908c-.119.673-.24,1.345-.332,2.023-.222,1.629-.366,3.271-.425,4.915a34.022,34.022,0,0,0,.047,4.922,34.735,34.735,0,0,0,.926,4.928c.227.873.488,1.736.773,2.591.294.884.659,1.742.9,2.641l.139.144c.166.158.326.32.479.481a44.493,44.493,0,0,1,3.581,4.467q1.7,2.342,3.169,4.836.6,1.02,1.164,2.062a7.728,7.728,0,0,0,.906.739,6.547,6.547,0,0,0,.973.595c-.541-2.52-1.09-5.038-1.665-7.549m3.4,18.228a68.648,68.648,0,0,0-3.571-8.814c-.084.243-.165.486-.251.728-.3.853-.58,1.711-.833,2.58a23.667,23.667,0,0,0-1.1,5.365,15.518,15.518,0,0,0-.005,2.545c.034.3.084.6.131.9.312.853.607,1.714.929,2.563.546,1.438,1.137,2.86,1.7,4.29.577,1.454,1.175,2.9,1.774,4.345.6,1.46,1.04,2.965,1.693,4.409.3.665.618,1.322.933,1.981.331.6.665,1.207.962,1.831a.148.148,0,0,1-.038.177l0,.009a11.544,11.544,0,0,1,1.459-1.2,77.59,77.59,0,0,0-3.787-21.71m5.536,36.23c-.013-.263-.032-.53-.047-.794a6.068,6.068,0,0,0-3.014-3.794c-.194.184-.389.366-.577.556-.428.433-.849.874-1.247,1.336a17.989,17.989,0,0,0-2.194,3.146,22.5,22.5,0,0,0-1.4,3.149c-.1.323-.194.65-.287.977-.045.222-.093.445-.131.668a22.852,22.852,0,0,0-.338,4.917,14.129,14.129,0,0,0,2.747,8,5.363,5.363,0,0,0,.891.941.33.33,0,0,1,.336.218,1.821,1.821,0,0,0,.307.146,1.16,1.16,0,0,0,1.284-.589,8.554,8.554,0,0,0,.889-1.857q.445-1.128.821-2.281a40.538,40.538,0,0,0,1.875-9.328,42.018,42.018,0,0,0,.08-5.407m9.706-16.77c-.844.314-1.685.639-2.535.941-.992.353-1.995.67-3,.972-.1.141-.2.284-.307.418a3.03,3.03,0,0,1-1.665,1.08l-.094.063-.138.051a4.7,4.7,0,0,1-.958,2.63,46.859,46.859,0,0,0,26.9,1.587c.653-.157,1.3-.331,1.953-.516-1.033-.764-2.008-1.6-3.084-2.312a30.468,30.468,0,0,0-3.935-2.161,31.551,31.551,0,0,0-4.362-1.464,30.745,30.745,0,0,0-4.3-.981,35.142,35.142,0,0,0-4.472-.308m-1.259,9.677-.029,0c.008.017.017.034.025.052v0a.254.254,0,0,1,0-.046m.74.126-.1-.016c.03.068.06.137.088.205l0-.095a.319.319,0,0,1,.014-.095m16.179-.133c.011.005.022.005.033.012s.007-.013.01-.02l-.043.008m5.01-2.6a40.556,40.556,0,0,0,10.939-5,19.9,19.9,0,0,0,4.71-4.232,3.856,3.856,0,0,0-.489-1.248c-2.983,2.748-7.079,3.938-11.06,4.2a39.826,39.826,0,0,1-7.351-.3c-2.439-.294-4.878-.606-7.317-.9-1.4-.171-2.79-.218-4.2-.282-.289-.013-.576-.011-.864-.018,1.171.2,2.329.465,3.461.773a17.51,17.51,0,0,1,2.227.744c.7.294,1.351.669,2.03,1a38.029,38.029,0,0,1,4.049,2.25,19.474,19.474,0,0,1,3.86,3.021m-.519-15.324-.293.123c.124-.018.25-.025.374-.042a1,1,0,0,1-.081-.081m-3.8,1.639-.049,0-.027.012c-3.891,1.651-7.788,3.293-11.716,4.854,3.879.113,7.712,1.046,11.554,1.552,4.482.591,9.12.937,13.52-.346a16.876,16.876,0,0,0,6.021-3.142,5.219,5.219,0,0,0-1.061-1.1,9.66,9.66,0,0,0-3.819-1.576,40.406,40.406,0,0,0-6.751-.929c-2.564.138-5.111.415-7.671.684m8.133-3.46-.087.036.088-.011c0-.008,0-.017,0-.025m.962,1.446c-.006.016-.017.029-.023.046l.095,0c-.023-.016-.048-.028-.071-.044m33.661-11.529a21.525,21.525,0,0,0-2.849.143,9.536,9.536,0,0,1-2.872.257,134.733,134.733,0,0,0-18.584,5.579c-2.764,1.026-5.5,2.118-8.227,3.238a6.425,6.425,0,0,0,1.91,1.688,7.558,7.558,0,0,0,1.7.713c1.334.062,2.666.16,3.993.308a12.924,12.924,0,0,1,3.821.7,2.293,2.293,0,0,1,.99.819l.479-.111c.566-.131,1.128-.278,1.693-.418,1.054-.262,2.11-.506,3.155-.8a61.378,61.378,0,0,0,6.242-2.12,60.067,60.067,0,0,0,5.88-2.741,37.6,37.6,0,0,0,5.291-3.256,8.343,8.343,0,0,0,2.735-3.258,25.15,25.15,0,0,0-5.351-.742m-21.023,17.653c.049-.02.1-.033.151-.051-.026-.016-.054-.031-.08-.048-.022.035-.048.065-.071.1m17.649,7.633c-.006-.013-.01-.026-.015-.038l-.005.06.021-.021m3.777-6.8c1.182-1.364,2.46-2.649,3.672-3.992a25.881,25.881,0,0,0,2.257-4.956,13.337,13.337,0,0,0,.614-3.266,11.979,11.979,0,0,0-.022-1.611c-.005-.062-.017-.123-.026-.185a8.609,8.609,0,0,0-3.078.357,25.754,25.754,0,0,1-3.317,2.265,1.142,1.142,0,0,1-.424.245c-.262.151-.523.3-.784.453a57.382,57.382,0,0,1-12.593,5.272c-1.223.347-2.461.645-3.7.906-.625.131-1.255.225-1.887.313-.293.041-.593.09-.894.129a2.623,2.623,0,0,1-.141,1.161,8.144,8.144,0,0,1-.56,1.2l.1.045c.115.039.231.076.347.126l1.432.628c.854.375,1.709.748,2.575,1.1,1,.4,2.013.77,3.041,1.1.524.13,1.053.246,1.589.339a1.5,1.5,0,0,1,.539.08,19.888,19.888,0,0,0,5.4.087,16.619,16.619,0,0,0,5.866-1.786m-19.532.9c.146.009.294.018.437.033.122.012.24.04.361.057a7.208,7.208,0,0,0-.723-.155.429.429,0,0,1-.074.064m6.193,13.723c-.079.012-.16.016-.239.026a.617.617,0,0,1-.029.146c.089-.058.18-.113.268-.171m2.349-1.632c.821-.6,1.631-1.214,2.419-1.856.709-.578,1.4-1.179,2.086-1.787a.4.4,0,0,1-.074-.569,4.1,4.1,0,0,0,.739-2.489l-.013-.123a2.006,2.006,0,0,0-.179-.274c-.894-1.109-2.429-1.365-3.752-1.557a24.9,24.9,0,0,1-4.477-1.084,26.467,26.467,0,0,0-4.386-1.262,10,10,0,0,0-2.338-.077,10.641,10.641,0,0,0-2.371.539.259.259,0,0,1-.089.01,15.12,15.12,0,0,0-1.191,1.091,5.488,5.488,0,0,0-1.779,4.81,10.846,10.846,0,0,0,3.128,2.418.281.281,0,0,1,.139.182,17.989,17.989,0,0,0,8.486,2.459,14.118,14.118,0,0,0,3.652-.43m-5.077,3.32a.36.36,0,0,1-.042-.01c0,.013-.009.027-.012.04l.054-.03M130,323.857c.657.021,1.32.016,1.979.045l.045-.015a53.584,53.584,0,0,0,7.195-3.352.337.337,0,0,1,.033-.175c.4-.812-.178-1.539-.843-1.994-.414-.137-.82-.3-1.218-.473a26.558,26.558,0,0,1-7.941-3.9c-.581-.405-1.149-.831-1.715-1.257a8.5,8.5,0,0,0-3.649-.262q-2.69.871-5.381,1.744l-3.717,1.211c-.094.03-.219.07-.356.115a1.11,1.11,0,0,0-.142.338,2.956,2.956,0,0,0,.206,1.589,6.232,6.232,0,0,0,1.69,2.589.342.342,0,0,1,.1.178c.272.147.542.3.817.434a29.962,29.962,0,0,0,10.012,2.989c.957.11,1.919.168,2.882.2m-5.174,2.15c-.009-.009-.021-.012-.031-.021a.726.726,0,0,1-.2.068c.077-.016.155-.03.231-.047m-1.843-.891a1.462,1.462,0,0,0-.188-.365,2.986,2.986,0,0,0-1-.8,29.9,29.9,0,0,1-9.368-4.486c-.651-.468-1.278-.97-1.889-1.489a18.012,18.012,0,0,0-2.908-1.1c-1.2-.247-2.395-.47-3.6-.634-.495-.037-.99-.061-1.484-.057a.459.459,0,0,1-.336-.137c-.73-.056-1.46-.1-2.193-.1-.169,0-.339,0-.507.011a22.309,22.309,0,0,1,2.7,1.532c1.527.987,2.982,2.078,4.467,3.127a28.2,28.2,0,0,0,4.753,2.845,27.407,27.407,0,0,0,5.758,1.848,26.341,26.341,0,0,0,3.014.406.342.342,0,0,1,.188-.168,9.259,9.259,0,0,1,2.49-.439h.1m-7.926,1.994a46.069,46.069,0,0,0,7.591-.68c0-.009.007-.018.013-.027l-.119,0a1.332,1.332,0,0,1-.441.1,9.646,9.646,0,0,1-1.574-.012,24.93,24.93,0,0,1-8.4-2.024,31.551,31.551,0,0,1-4.877-2.788l-.119-.084c1.3,1.092,2.609,2.17,3.981,3.157a22.589,22.589,0,0,0,2.007,1.288,20.415,20.415,0,0,1,1.942,1.076m-11.909-3.6a20.887,20.887,0,0,0,7.933,3.265,24.416,24.416,0,0,0,3.008.318c-.328-.151-.645-.334-.944-.5-.6-.343-1.177-.729-1.747-1.123-1.142-.789-2.224-1.658-3.291-2.546-1.111-.925-2.2-1.889-3.355-2.756a31,31,0,0,0-3.536-2.279,15.474,15.474,0,0,0-2.108-1,13.742,13.742,0,0,0-1.651-.47,4.936,4.936,0,0,0-.048.739,5.678,5.678,0,0,0,.1.911c.281.343.541.713.817,1.041.473.565.954,1.1,1.477,1.625a22.782,22.782,0,0,0,3.342,2.781m-3.87-.4c.007-.005.012-.013.019-.019-.1.012-.205.016-.309.022.1,0,.194.007.29,0m.013-.774a30.253,30.253,0,0,1-4.023-4.493,15.059,15.059,0,0,1-1.911-3.2,45.633,45.633,0,0,1-5.453-1.6,2.052,2.052,0,0,0-.539.874,2.477,2.477,0,0,0,.019,1.3,5.752,5.752,0,0,0,1.724,2.451,30.883,30.883,0,0,0,4.215,3.25,16.788,16.788,0,0,0,2.752.927c1.061.259,2.145.322,3.216.5m-4.41,11.3a7.823,7.823,0,0,0,1.426-1.921c.259-.434.531-.883.776-1.342v-.021c.048-.277.118-.548.161-.827a9.791,9.791,0,0,0,.106-1.7,11.429,11.429,0,0,0-.564-3.194,41.355,41.355,0,0,1-6.456-3.654,6.477,6.477,0,0,1-.467,1.08,9.6,9.6,0,0,0-.046,6.707,10.058,10.058,0,0,0,1.955,3.176,10.71,10.71,0,0,0,1.368,1.27c.483.376,1.163.918,1.738.422m-8.148,6.246a13.558,13.558,0,0,0,.707,3.229,8.226,8.226,0,0,0,.624,1.5,1.341,1.341,0,0,0,.74.6q1.708-2.558,3.327-5.171a5.325,5.325,0,0,0-.105-3.929,19.415,19.415,0,0,1-1.869-2.6,2.741,2.741,0,0,0-.945-.612l-.175.171c-.16.143-.326.28-.486.422a5.811,5.811,0,0,0-.44.437c-.072.08-.143.163-.212.247l-.093.115v0l-.053.071a7.028,7.028,0,0,0-.643,1.093c-.042.085-.081.17-.12.255-.054.268-.1.537-.143.807a14.361,14.361,0,0,0-.115,3.368m-6.113,15.635.077.076a8.532,8.532,0,0,0,.709-.519c.848-.979,1.669-1.98,2.468-2.991.652-.825,1.283-1.669,1.905-2.519a.481.481,0,0,1,.046-.453,5.577,5.577,0,0,0,.8-2c.013-.08.016-.162.025-.242-.188-1.2-.374-2.394-.553-3.592a2.545,2.545,0,0,0-.345-.569,1.723,1.723,0,0,0-.81-.544,6.032,6.032,0,0,0-.676-.068l-.1.041a2.631,2.631,0,0,1-1.159.8,5.26,5.26,0,0,0-.8.9c-.1.146-.182.3-.27.449-.6,1.692-1.17,3.394-1.61,5.135a19.564,19.564,0,0,0-.549,3.292c-.075.965-.062,2.2.84,2.8M70.028,358.9c-.013.063-.019.128-.034.191s-.041.129-.058.194c.054-.085.1-.172.157-.256-.021-.043-.045-.086-.065-.129m2.286-15.317c-.053.151-.1.3-.148.456-.207.908-.4,1.816-.57,2.731a25.843,25.843,0,0,0-.582,5.056,5.461,5.461,0,0,0,1.475,4,3.2,3.2,0,0,0,3.244.841c1.314-.54,1.773-2.181,2.185-3.4q.974-2.89,1.717-5.85c.408-1.611.752-3.238,1.143-4.852-.073-.049-.146-.1-.217-.153a9.8,9.8,0,0,1-2.752-3.892,17.066,17.066,0,0,1-1.239-4.662,2.262,2.262,0,0,0-.548-.79l-.08.048a2.72,2.72,0,0,0-.47,1c-.319.828-.6,1.671-.857,2.521-.126.415-.222.842-.372,1.25a8.253,8.253,0,0,1-.3.784c-.018.076-.037.151-.055.225-.134.543-.308,1.076-.487,1.606-.347,1.031-.727,2.05-1.081,3.078M67.9,322.521a9.372,9.372,0,0,0,3.717-.886,10.3,10.3,0,0,0,2.881-2.17l.13-.065q.89-1.242,1.836-2.447a4.845,4.845,0,0,0-.5-1.574l-.135-.129c-3.077-.5-6.131-1.168-9.149-1.951A73.516,73.516,0,0,1,55.5,309.525c-.725-.319-1.442-.658-2.153-1.012l-.1.046a.279.279,0,0,1-.287.173l-.071-.005c-.1.043-.211.085-.328.13-.5.2-1,.4-1.486.639a9.584,9.584,0,0,0-2.607,1.738,4.437,4.437,0,0,0-.779,2.847c.226,2.438,2.6,3.888,4.61,4.787a43.7,43.7,0,0,0,7.656,2.467,29.223,29.223,0,0,0,7.938,1.186m-26.609,11.52a8.246,8.246,0,0,0,1.015-.129c.185-.036.366-.076.554-.1h.117a60.175,60.175,0,0,0,5.979-2.134c3.62-1.488,7.178-3.138,10.753-4.73a.523.523,0,0,1,.2-.277,4.279,4.279,0,0,0,1.48-1.51c-.189-.18-.367-.382-.549-.548a14.9,14.9,0,0,0-1.143-.978,8.669,8.669,0,0,0-2.575-1.313,8.218,8.218,0,0,0-3.145-.338,7.994,7.994,0,0,0-1.426.271,130.107,130.107,0,0,0-15.212,9.463.415.415,0,0,1,0,.268c-.4,1.211,1.057,1.806,1.984,1.966a8.439,8.439,0,0,0,1.962.086M21.83,328.634a5.9,5.9,0,0,0,1.147,1.65,9.068,9.068,0,0,0,3.467,2.007,12.04,12.04,0,0,0,4.328.785,8.143,8.143,0,0,0,3.81-1.178,24.079,24.079,0,0,0,3.6-2.656.2.2,0,0,1,.306.046c.447-.31.894-.623,1.346-.925a93.478,93.478,0,0,1,8.083-4.847l.132-.105c.289-.213.589-.414.882-.621a5.1,5.1,0,0,0,1.267-1.054c.034-.089.071-.2.1-.3a3.283,3.283,0,0,0,.071-.352,3.165,3.165,0,0,0,.016-.32,1.676,1.676,0,0,0-.371-.663,6.466,6.466,0,0,0-.556-.517,7.491,7.491,0,0,1-2.939-2.057c-7.592,1.925-15.158,4.015-22.574,6.539-.1.033-.2.065-.295.1a10.9,10.9,0,0,0-.841.821,4.756,4.756,0,0,0-.744,1.32,4.978,4.978,0,0,0-.237,2.329m5.551-7.082c4.109-1.276,8.252-2.427,12.439-3.42,1.213-.289,2.43-.542,3.651-.785l.013-.013a5.9,5.9,0,0,1,.742-.439,4.27,4.27,0,0,0,1.158-1.076,3.139,3.139,0,0,0,.221-.393,5.108,5.108,0,0,1-.045-1.138,7.81,7.81,0,0,0-3.255-.678c-.231-.019-.461-.023-.691-.034l-.121.065c-.482-.03-.967-.059-1.452-.085-.891.021-1.779.074-2.68.126a.3.3,0,0,1-.268-.126c-.432.022-.865.042-1.3.078-.14.012-.28.027-.421.04q-1.254.167-2.506.333c-2.366.314-4.729.659-7.091,1-1.429.2-2.918.515-4.4.611a.294.294,0,0,1-.2.055,3.313,3.313,0,0,0-2.586.863,4.558,4.558,0,0,0-1.219,2.856,6.56,6.56,0,0,0,.2,2.238l.03.088A4.865,4.865,0,0,0,18.66,323.4a2.923,2.923,0,0,0,1.615.832,5.528,5.528,0,0,1,1.229-.721c1.89-.8,3.919-1.347,5.877-1.956" transform="translate(93.266 18.841)" fill="#fff"/>
</svg>
