<svg xmlns="http://www.w3.org/2000/svg" width="317.859" height="440.787" viewBox="0 0 317.859 440.787">
  <g id="mariposas" transform="translate(-1 5)">
    <path id="Trazado_7446" data-name="Trazado 7446" d="M121.174,183.473a1.738,1.738,0,0,0-1.7.967,6.16,6.16,0,0,0-.095,5.172.542.542,0,0,0,.466.372q-.836,2.015-1.8,3.981a70.194,70.194,0,0,1-9.077,13.654c-.957,1.161-1.961,2.294-3.029,3.354-1,.99-2.14,1.844-3.1,2.865a3.553,3.553,0,0,0-1.137-.418c.528-.755,1.015-1.54,1.506-2.316.776-1.226,1.509-2.48,2.181-3.765a56.561,56.561,0,0,0,3.422-7.975,62.286,62.286,0,0,0,2.281-8.392c.272-1.432.528-2.863.717-4.308.093-.707.181-1.417.24-2.127a4.818,4.818,0,0,0-.05-1.966,1.544,1.544,0,0,0-2.841-.061c-.745,1.476.541,2.78,1.62,3.623a1.411,1.411,0,0,0,.146.545l.046.059a47.264,47.264,0,0,1-.867,6.087,55.41,55.41,0,0,1-5.141,14.266c-.66,1.261-1.355,2.5-2.1,3.716-.537.873-1.137,1.7-1.716,2.548a5.759,5.759,0,0,0-3.1.968c.015-.169.031-.339.045-.508.078-.936.144-1.872.191-2.809.019-.4.029-.806.045-1.208.364-3.692.61-7.4.719-11.1a120.55,120.55,0,0,0-.58-16.687,83.771,83.771,0,0,0-8.165-28.885,61.947,61.947,0,0,0-16.764-20.906,51.928,51.928,0,0,0-5.531-3.8,26.7,26.7,0,0,0-6.234-2.893,9.165,9.165,0,0,0-6.586.255,7.216,7.216,0,0,0-3.566,4.79,47.1,47.1,0,0,0-.825,6.273,26.164,26.164,0,0,1-2.354,7.2c-2.157,4.958-2.925,10.36-3.257,15.722-.077,1.224-.133,2.45-.189,3.676q-1.9-.712-3.823-1.35a57.122,57.122,0,0,0-13.8-3.645c-.129-.018-.259-.029-.388-.046q-4.729-.908-9.52-1.443c-3.356-.378-7.143-.864-10.263.768a6.618,6.618,0,0,0-3.236,3.911,15.307,15.307,0,0,0-.309,5.848,113.892,113.892,0,0,0,1.847,13.151A112.435,112.435,0,0,0,8.83,193.376a87.748,87.748,0,0,0,4.664,11.843,20.945,20.945,0,0,0,7.39,8.816,23.66,23.66,0,0,0,9.144,3.034c-2.363.359-4.711.8-7.027,1.3-2.575.562-5.692,1.135-7.432,3.324a6.1,6.1,0,0,0-1.147,4.211,15.487,15.487,0,0,1-.065,4.784c-.783,2.992-2.92,5.365-4.471,7.968s-2.843,5.925-1.687,8.928c1.053,2.733,3.95,4.344,4.566,7.278.629,2.995-.817,6.021-2.7,8.261-2.041,2.431-4.609,4.354-6.674,6.764a15.913,15.913,0,0,0-2.528,3.836c-.516,1.164-1.3,3.015-.556,4.233.827,1.346,2.5.728,3.491-.047a16.513,16.513,0,0,0,1.584-1.555c.562-.581,1.126-1.16,1.7-1.73a23.945,23.945,0,0,1,7.519-5.5,26.667,26.667,0,0,1,9.662-1.6c3.506-.071,7.01.027,10.515-.124,6.642-.286,13.4-1.335,19.3-4.564a25.784,25.784,0,0,0,7.247-5.882c2.107-2.469,3.829-5.227,5.708-7.867a50.049,50.049,0,0,1,6.535-7.474c-.223,1.345-.351,2.705-.509,4.059-.2,1.723-.387,3.449-.566,5.176-.855,1.456-1.286,3.7.4,4.755,1.546.972,3.078-.458,3.682-1.819a35.664,35.664,0,0,0,1.486-5.845,17.886,17.886,0,0,1,1.636-4.147,35.013,35.013,0,0,1,5.337-6.915c2.063-2.22,4.241-4.335,6.223-6.629a27.674,27.674,0,0,0,5.206-8.292,8.908,8.908,0,0,0,4.232,0,5.152,5.152,0,0,0,4.041-4.376,3.951,3.951,0,0,0-1.451-3.441,25.655,25.655,0,0,0,2.745-2.741c1.045-1.121,2.111-2.219,3.133-3.362a59.056,59.056,0,0,0,5.445-7.271,72.168,72.168,0,0,0,4.566-8.065c.647-1.353,1.246-2.736,1.821-4.12q.441-1.064.839-2.144a4.059,4.059,0,0,0,.352-1.726,1.313,1.313,0,0,0-1.013-1.239m-64.733-55a3.641,3.641,0,0,1,1.255-1.252,5.127,5.127,0,0,1,1.428-.641c.023,0,.046,0,.069,0a15.872,15.872,0,0,1,6.139,2.082,49.583,49.583,0,0,1,5.543,3.447c1.067.764,2.1,1.576,3.1,2.42.1.13.2.269.29.409a4.526,4.526,0,0,1,.713,1.887,4.364,4.364,0,0,1,.017.969,2.6,2.6,0,0,0-1.01,1.23,2.881,2.881,0,0,0-.592,2.028,2.7,2.7,0,0,1-.865-.232,4.413,4.413,0,0,1-.936-.582c-.088-.087-.176-.174-.267-.261-.037-.042-.081-.081-.113-.126a.248.248,0,0,0-.095-.078c-.667-.636-1.347-1.259-2.055-1.852a27.16,27.16,0,0,0-12.827-6.274,3.54,3.54,0,0,1,.207-3.175m-3.733,9.42a7.994,7.994,0,0,1,.54-1.163l.1-.088a5.04,5.04,0,0,1,3.533-1.9,9.332,9.332,0,0,1,4.61.857,35.9,35.9,0,0,1,4.625,2.373,21.511,21.511,0,0,1,4,2.945c.142.136.275.279.41.42.156.284.306.571.444.861a5.512,5.512,0,0,1,.689,1.908.935.935,0,0,1-.108.53,2.811,2.811,0,0,0-3.035.99,3.3,3.3,0,0,0-.357,1.882c.011.252.039.5.062.754a3.633,3.633,0,0,1-.388.974,2.078,2.078,0,0,1-.88.834,1.791,1.791,0,0,1-1.161.187.292.292,0,0,0-.193.01,60.728,60.728,0,0,0-7.891-4.166c-1.369-.594-2.756-1.147-4.161-1.647l-.312-.113a.5.5,0,0,0-.009-.228,12.1,12.1,0,0,1-.516-6.223m9.134,31.919a2.472,2.472,0,0,1-.756.068h0c-.812-.235-1.619-.487-2.423-.753-.915-.3-1.832-.606-2.74-.934-.209-.076-.422-.142-.634-.212l-.106-.053a.448.448,0,0,0-.237-.14c-.022,0-.043-.007-.064-.01-.073-.038-.146-.072-.219-.109a7.033,7.033,0,0,0-.707-.368c-.45-.222-.909-.425-1.356-.656a11.1,11.1,0,0,1-2.513-1.691,6.113,6.113,0,0,1-1.722-2.735,4.327,4.327,0,0,1,.3-1.942c.043-.109.109-.2.16-.3a7.694,7.694,0,0,1,2.354-1.752,31.123,31.123,0,0,1,4.645.289,24.359,24.359,0,0,1,9.668,3.034,4.292,4.292,0,0,0-1.07.742,4.548,4.548,0,0,0-1.145,1.813,7.49,7.49,0,0,0-.8,2.282,10.482,10.482,0,0,0-.149,2.064c.01.487.1,1.192-.481,1.362m3.744-6.819c.03-.024.056-.054.087-.078l.145.04a10.52,10.52,0,0,1,1.944.05c.347.024.631.058.911.095.256.033.594.112.9.162.051.035.1.066.156.1a65.419,65.419,0,0,1,5.232,4.4l.151.062c.135.815.314,1.625.482,2.426a78.564,78.564,0,0,0,2.112,7.921c.338,1.042.707,2.074,1.093,3.1q.067.372.105.75c.024.259.043.52.045.779,0,.093.019.454-.078.514l-.057-.022a1.2,1.2,0,0,1-.338-.193c-.222-.146-.438-.3-.655-.457-.9-.637-1.794-1.3-2.672-1.966-.616-.471-1.243-.933-1.862-1.4-.167-.13-.335-.26-.5-.389-.588-.463-1.179-.928-1.738-1.427a28.093,28.093,0,0,1-3.17-3.243,12.41,12.41,0,0,1-3.1-7.594,8.678,8.678,0,0,1,.809-3.625m11.769,9.781q-.474-1.907-.854-3.836a12.983,12.983,0,0,1-.413-3.353,2.411,2.411,0,0,1,.363-1.145,2.434,2.434,0,0,0,.215-.273,1.772,1.772,0,0,1,1.176-.541,3.041,3.041,0,0,1,1.593.352c.152.214.3.43.444.644a19.687,19.687,0,0,1,1.1,1.784,21.942,21.942,0,0,1,1.4,3.315c.167.716.315,1.438.458,2.16.3,1.515.62,3.031,1,4.529.181.721.388,1.434.611,2.141.214.675.376,1.375.647,2.03l.077.174a15.757,15.757,0,0,0-1.57-1.516,33.318,33.318,0,0,0-5.471-3.638c-.271-.938-.532-1.879-.769-2.828m-1.07-10.26a2.144,2.144,0,0,1-1.308.966,2.528,2.528,0,0,1-1.274-.045c-.16-.046-.323-.09-.479-.149-1.357-1.254-2.713-2.518-4-3.836a3.455,3.455,0,0,1-1.306-2.72,2.107,2.107,0,0,1,.412-.938,4.2,4.2,0,0,1,3.661.639,11.653,11.653,0,0,1,1.567,1.33c.443.417.9.812,1.321,1.254a4.43,4.43,0,0,1,1.466,2.916,2.946,2.946,0,0,1-.061.584M49.058,150.359a8.108,8.108,0,0,1,1.221-1.9l.26-.057c.1-.024.209-.039.314-.061a.579.579,0,0,0,.3,0c.27-.077.54-.137.81-.189.29-.039.579-.079.872-.1a36.888,36.888,0,0,1,3.748-.016l.265.019.118-.013.142,0c1.067.2,2.136.4,3.175.7q.865.424,1.719.874c.27.16.542.318.8.5a14.718,14.718,0,0,1,2.426,2.047,5.062,5.062,0,0,1,.84,1.219c.2.405.211.862.428,1.238-.048.035-.1.065-.148.1a3.48,3.48,0,0,0-.494,4.806l-.086-.046a32.146,32.146,0,0,0-12.065-3.346,30.034,30.034,0,0,0-3.487-.056c-.5.021-1.008.049-1.521.1a10.684,10.684,0,0,1-.352-2.613,8.02,8.02,0,0,1,.712-3.2M10.432,180.148A3.5,3.5,0,0,1,8.9,178.767a5.7,5.7,0,0,1-.55-4.964,4.395,4.395,0,0,1,.723-1.216,3.958,3.958,0,0,1,2.51.108A5.827,5.827,0,0,1,13.5,174.06a6.422,6.422,0,0,0,.891,1.015c.169.222.346.438.529.647a12.981,12.981,0,0,1,1.289,1.393.878.878,0,0,1,.024,1.044,21.651,21.651,0,0,1-3.373,1.9,3.341,3.341,0,0,1-2.428.087m6.435,8.578v.03a3.732,3.732,0,0,1-1.351,2.219,2.163,2.163,0,0,1-3.178-.343c-.848-1.306-.314-2.9.414-4.118a20.2,20.2,0,0,1,3.047-3.74,13.262,13.262,0,0,1,.858,2.641,13.271,13.271,0,0,1,.211,3.312m-.29-15.366a9.351,9.351,0,0,1-2.1-1.731c-.53-.605-1.1-1.569-.629-2.364a3.009,3.009,0,0,1,2.038-1.081,36.364,36.364,0,0,1,6.795-.771,43.465,43.465,0,0,1,7.835.471c1.271.193,2.53.444,3.783.732.968.223,1.922.506,2.888.735a2.718,2.718,0,0,0,.137.459c.6,1.47,2.019,2.434,3.219,3.391a92.811,92.811,0,0,0,8.405,5.977c1.445.91,2.926,1.79,4.43,2.632-.556-.065-1.112-.13-1.67-.189q-1.833-.192-3.662-.426-3.694-.472-7.363-1.121c-4.839-.851-9.655-1.9-14.4-3.169-1.619-.433-3.249-.874-4.845-1.4a45.645,45.645,0,0,0-4.862-2.14m4.67,7.771a4.023,4.023,0,0,1,1.951-2.778,3.826,3.826,0,0,1,1.284-.46c4.406,1.247,8.856,2.336,13.352,3.2q4.346.832,8.733,1.427c1.28.174,2.562.327,3.846.473a4.472,4.472,0,0,0-.815.588c-1.914,1.773-2.077,4.819-1.99,7.36-5.437-.518-10.884-.968-16.315-1.541a15.111,15.111,0,0,1-7.237-2.283,6.2,6.2,0,0,1-2.81-5.981m10.172,19a4.5,4.5,0,0,1,1.158-1.793c1.075.236,2.152.453,3.229.679q3.484.728,6.967,1.469c1.279.271,2.56.537,3.853.731.639.1,1.278.182,1.921.239a7.181,7.181,0,0,0,1.362.038,30.632,30.632,0,0,0,3.578,6.266,18.028,18.028,0,0,0-5.445-.167c-2.511.221-5,.714-7.523.752-3.672.057-8.59-1.264-9.329-5.5a5.6,5.6,0,0,1,.228-2.715m-3.194-5.866a4.768,4.768,0,0,1-.309-2.3,5.6,5.6,0,0,1,.521-1.7,71.774,71.774,0,0,0,9.306.931c3.3.241,6.606.463,9.91.689a28.784,28.784,0,0,0,1.773,8.435c-.667-.1-1.363-.126-2.009-.222-1.047-.154-2.087-.35-3.126-.553-2.1-.411-4.205-.85-6.305-1.286-2.006-.415-4.043-.761-6.026-1.274a5.032,5.032,0,0,1-3.733-2.719M38.3,210.738a5.194,5.194,0,0,1,.428-.742c.1-.15.223-.3.311-.459a38.391,38.391,0,0,0,6.99-.449,34.656,34.656,0,0,1,4.272-.334,18.907,18.907,0,0,1,4.334.6l.113,0A29.338,29.338,0,0,0,58.7,213.23a3.576,3.576,0,0,1-1.942,1.421c-1.445.1-2.891.228-4.336.364q-2.329.065-4.661.133c-1.905.057-3.836.208-5.74.088a6.146,6.146,0,0,1-3.594-1.262l-.006-.009a3.554,3.554,0,0,1-.447-1.605,3.767,3.767,0,0,1,.326-1.622m15.748-7.707a37.828,37.828,0,0,1-3.431-6.866c-.221-.585-.434-1.191-.618-1.809-.034-.288-.065-.578-.085-.869A15.833,15.833,0,0,1,50,190.442l.066-.024a1.867,1.867,0,0,0,.391-.143,9.945,9.945,0,0,1,8,1.2,12.153,12.153,0,0,1,1.076.764l.2.045a34.937,34.937,0,0,1,3.023,2.392c1.318,1.141,2.674,2.246,3.962,3.422,2.63,2.4,5.191,4.885,7.7,7.42-.2-.094-.4-.191-.612-.273a14.706,14.706,0,0,0-4.217-.9,43.6,43.6,0,0,0-4.892-.038l-4.995.149q-2.295.069-4.59.158c-.37-.52-.728-1.046-1.069-1.585M28.693,214.2l-.414-.041a12.043,12.043,0,0,1-3.227-1.033,1.9,1.9,0,0,1-.7-1.478,3.445,3.445,0,0,1,1.261-2.519,6.993,6.993,0,0,1,3.145-.653,12.7,12.7,0,0,1,4.363.853,3.1,3.1,0,0,1,2.249,2.522c.071,1.354-1.255,1.838-2.35,2.118a11.538,11.538,0,0,1-2.2.338c-.712-.013-1.425-.041-2.134-.105m17.052,33.827c.167-.191.347-.37.517-.557a13.354,13.354,0,0,1,5.6-2.313,14.423,14.423,0,0,0,3.436.606c-.022.288,0,.588-.016.849a7.241,7.241,0,0,1-.276,1.568,13.951,13.951,0,0,1-.507,1.486,7.577,7.577,0,0,0-.286.726c-.07.245-.124.493-.19.739-.117.212-.232.426-.346.64-.5.536-.881,1.19-1.349,1.758a20.419,20.419,0,0,1-1.7,1.877,7.727,7.727,0,0,1-3.993,2.165,4.481,4.481,0,0,1-3.932-1.168,3.7,3.7,0,0,1-.9-1.734,3.762,3.762,0,0,1-.035-1.364,47.618,47.618,0,0,1,3.971-5.278m-.811-9.737c.945-.446,1.834-1.022,2.777-1.475q1.72-.829,3.5-1.527a59.533,59.533,0,0,1,7.141-2.277,72.985,72.985,0,0,1,7.466-1.484c.184-.026.368-.046.552-.07a32.466,32.466,0,0,0-6.356,2.328,31.477,31.477,0,0,0-6.177,3.792c-1.031.833-2.071,1.66-3.044,2.564-.264.246-.483.525-.727.791-.211.229-.457.405-.684.616-.252.233-.506.478-.753.731-.176-.071-.352-.142-.528-.221a9.3,9.3,0,0,1-3.071-3.519c-.04-.082-.063-.166-.1-.249m-.9,6.587a12.29,12.29,0,0,1-.365,1.451,15.69,15.69,0,0,1-1,2.056,9.441,9.441,0,0,1-2.876,3.177,6.473,6.473,0,0,1-7.043.192,3.6,3.6,0,0,1-.383-.759,5.061,5.061,0,0,1,.1-3.427,58.71,58.71,0,0,1,5.406-4.923c.405-.326.825-.633,1.236-.952a.259.259,0,0,0,.108-.035,13.943,13.943,0,0,1,2.467-1.366,2.505,2.505,0,0,1,2.22.219c.077.057.154.118.235.175a12.25,12.25,0,0,1,.089,2.069,13.337,13.337,0,0,1-.193,2.124M26.5,239.559a8.782,8.782,0,0,1,.352-.857A90.817,90.817,0,0,1,36.9,233.659a13.909,13.909,0,0,0,2.341-.436,28.112,28.112,0,0,0,3.431-1.184,1.114,1.114,0,0,1,.96.425,1.816,1.816,0,0,1,.28,1.188A6.785,6.785,0,0,0,43.43,237c.01.089.03.176.043.265a25.685,25.685,0,0,0-2.637,1.751q-1.559,1.136-3.073,2.332c-.564.447-1.111.917-1.663,1.38l-.015.006a8.111,8.111,0,0,0-1.283.982,8.447,8.447,0,0,1-1.277.863,9.433,9.433,0,0,1-1.356.635c-.2.073-.406.154-.608.233a5.8,5.8,0,0,1-2.167-.276,4.748,4.748,0,0,1-2.25-1.544A4.493,4.493,0,0,1,26.283,241a4.835,4.835,0,0,1,.216-1.44m-.92-7.2a7.371,7.371,0,0,1,.33-1.862,7.669,7.669,0,0,1,1.792-2.975,9.924,9.924,0,0,1,1.322-1.176l.1-.069c.089-.01.179-.018.265-.035a8.856,8.856,0,0,0,2.776,6.118,5.411,5.411,0,0,0,1.234.785c-.142.106-.282.216-.43.324a13.638,13.638,0,0,1-1.343.859,7.86,7.86,0,0,1-3,1.037c-1.9.182-2.682-1.4-3.05-3.005m17.639-2.181a19.319,19.319,0,0,1-7.035,2.031,4.353,4.353,0,0,1-2.941-.926,5.246,5.246,0,0,1-.7-.717,13.186,13.186,0,0,1,2.965-4.391,27.477,27.477,0,0,1,2.508-1.477c1.387-.753,2.792-1.457,4.2-2.17.675-.341,1.363-.668,2.066-.948.735-.292,1.5-.5,2.245-.756a.282.282,0,0,0,.129-.1c2.532-.238,5.068-.458,7.611-.628a75.929,75.929,0,0,1,11.415-.318,21.062,21.062,0,0,1,5.361,1.151c1.551.556,3.038,1.267,4.525,1.971a39.568,39.568,0,0,0,5.615,2.332c-.1,0-.208,0-.311-.009a9.757,9.757,0,0,0-1.655-.041c-.293-.059-.588-.122-.88-.178a52.536,52.536,0,0,0-7.152-.867,53.772,53.772,0,0,0-14.271,1.17,52.909,52.909,0,0,0-6.868,1.928c-2.333.854-4.554,1.952-6.827,2.949m-1.321-8.49c-.179.081-.36.152-.538.236a43.033,43.033,0,0,0-3.89,2.308q-.549.336-1.088.691a19.449,19.449,0,0,0-3.6,2.664,8.653,8.653,0,0,0-.818.972c-.137.124-.275.248-.413.372-.024-.055-.054-.109-.076-.165a8.835,8.835,0,0,1-.474-4.884c.76-.373,1.517-.742,2.3-1.056a.616.616,0,0,0,.286-.109c.319-.121.641-.238.974-.336a18.31,18.31,0,0,1,2.285-.554c.394-.063.79-.11,1.187-.145a2.888,2.888,0,0,0,1.026-.158l.006-.006c1.37-.159,2.741-.316,4.113-.459-.442.2-.873.411-1.286.629M16.34,222.872a30.2,30.2,0,0,1,7.841-3.3A31.723,31.723,0,0,1,28.4,218.7c.451-.061.905-.105,1.359-.145a2.094,2.094,0,0,1,.223.029l.024.013.064.043.014.015h0a5.363,5.363,0,0,0-.759,1.236c-.325.7-.523,1.448-.851,2.147a8.173,8.173,0,0,1-3.135,3.439,20.744,20.744,0,0,1-5.006,2.114c-1.469.452-3.2.7-4.356-.45,0-.041,0-.08-.009-.121-.168-1.4-.375-2.887.374-4.145M12.6,247.109a2.34,2.34,0,0,1-2.353-.6,5.963,5.963,0,0,1-.962-1.367,6.822,6.822,0,0,1,.134-1.434c.609-3.038,2.6-5.464,4.223-8.014a20.76,20.76,0,0,0,1.5-2.744,26.5,26.5,0,0,1,3.735-2.845c.311-.145.626-.28.952-.4a4.391,4.391,0,0,1,1.414-.326,3.5,3.5,0,0,1,1.2.153,1.982,1.982,0,0,1,.522.28l.049.038a7.83,7.83,0,0,1,.7,6.065,7.762,7.762,0,0,1-.435,1.169,4.049,4.049,0,0,0-.45,1.111,15.961,15.961,0,0,1-1.81,1.916c-1.87,1.7-4.084,3.1-5.66,5.095-.069.076-.138.152-.208.223a5.636,5.636,0,0,1-2.543,1.676m11.131,11.676a26.253,26.253,0,0,0-1.01,3.286c-.043.073-.081.15-.126.222a10.777,10.777,0,0,1-.953,1.3,5.965,5.965,0,0,1-5.852,1.385.283.283,0,0,1-.01-.029,5.986,5.986,0,0,1,.06-2.087,19.239,19.239,0,0,0,.016-4.138,17.088,17.088,0,0,0-2.426-7.422,22.4,22.4,0,0,1,3.309-5.091,30.007,30.007,0,0,1,5.64-4.713c.652-.441,1.323-.856,1.989-1.275-.438,1.892.62,3.947,1.647,5.48a13.516,13.516,0,0,1,1.687,2.88,3.907,3.907,0,0,1-.157,3.133.167.167,0,0,0-.013.077,32.055,32.055,0,0,0-3.8,6.988m10.758,3.508c-.133.109-.247.249-.372.371-.211.206-.426.407-.648.6a10.5,10.5,0,0,1-1.529,1.126,5.762,5.762,0,0,1-3.694.777,4.969,4.969,0,0,1-1.223-.33c-.142-.14-.285-.275-.4-.41a8.385,8.385,0,0,1-1.031-1.523,9.576,9.576,0,0,1-.681-1.668c-.085-.272-.164-.548-.231-.826.061-.252.108-.507.171-.759.12-.483.262-.964.427-1.433a9.85,9.85,0,0,1,1.43-2.752,17.1,17.1,0,0,1,2.032-2.225,15.472,15.472,0,0,1,2.177-1.585,2.044,2.044,0,0,1,.38.065.389.389,0,0,0,.063.007,5.081,5.081,0,0,0,2.075,2.368,5.472,5.472,0,0,0,4.145.5,5.143,5.143,0,0,1,.319,1.394c0,.054,0,.108,0,.162-.038.125-.072.249-.109.374a13.518,13.518,0,0,1-.87,2.195,16.6,16.6,0,0,1-2.428,3.57M51.26,257.83c-.146.492-.276.989-.4,1.486-.035.1-.068.2-.108.3a8.877,8.877,0,0,1-1.179,2.039,8.152,8.152,0,0,1-1.733,1.616,10.334,10.334,0,0,1-.983.609c-.185.1-.375.189-.563.285a2.112,2.112,0,0,0-.3.2,43.961,43.961,0,0,1-5.156,1.007c-.461.063-.925.1-1.388.154a.526.526,0,0,0-.16-.08,3.827,3.827,0,0,1-1.634-.952,3.778,3.778,0,0,1-.6-.746,2.107,2.107,0,0,1-.209-.407c-.024-.069-.055-.151-.078-.235a53.86,53.86,0,0,1,3.975-8.158,4.2,4.2,0,0,0,.209.858,4.67,4.67,0,0,0,2.812,2.746c2.82,1.081,5.833-.273,7.85-2.284.082-.084.154-.177.236-.262q-.314.9-.589,1.823m6.425.677a23.866,23.866,0,0,1-3.914,2.75l-.114.023-.071.011a3.176,3.176,0,0,1-.467.018,1.614,1.614,0,0,0-.616-.181l-.1-.06-.011-.006-.017-.017-.07-.063-.15-.144a1.182,1.182,0,0,1-.126-.158l-.027-.04-.046-.074a.421.421,0,0,1-.025-.293.292.292,0,0,0-.058-.247c.1-.46.195-.922.316-1.377a24.37,24.37,0,0,1,.778-2.418,2.146,2.146,0,0,0,.578.689c1.156.863,2.8.615,4.1.259a10.936,10.936,0,0,0,2.274-.92,24.46,24.46,0,0,1-2.23,2.247m11.6-14.687a75.675,75.675,0,0,0-5.6,7.442q-.4.582-.808,1.16c-.608.544-1.129,1.2-1.753,1.727a9.741,9.741,0,0,1-2.816,1.664,6.58,6.58,0,0,1-3.181.5,1.813,1.813,0,0,1-1.593-1.43,40.771,40.771,0,0,1,3.9-6.635c.442-.609.919-1.191,1.414-1.758.335-.382.637-.786.936-1.192q.714-.177,1.413-.4a51.014,51.014,0,0,0,10.331-5.122l.381-.228a1.186,1.186,0,0,1,1.134.478,50.333,50.333,0,0,0-3.76,3.8m10.762-10.063c-.541.118-1.079.251-1.609.384-1.215.306-2.421.661-3.6,1.08a53.2,53.2,0,0,0-6.734,3.032,74.562,74.562,0,0,1-6.746,3.419,20.979,20.979,0,0,1-6.879,1.62,13.966,13.966,0,0,1-5.457-.861,13.722,13.722,0,0,1,1.667-1.745c.933-.778,1.8-1.61,2.774-2.345a39.371,39.371,0,0,1,5.988-3.7A38.38,38.38,0,0,1,70.9,230.989c1.015-.079,2.032-.15,3.046-.216,2.751-.182,5.511-.244,8.268-.3q-1.128,1.61-2.162,3.28m3-4.457c-.594.116-1.187.238-1.786.307-.743.085-1.489.143-2.233.206q-2.235.187-4.469.395c-.374.035-.747.076-1.12.114-2.211.168-4.415.4-6.61.724a73.984,73.984,0,0,0-14.924,3.562q-1.922.709-3.788,1.56a25.25,25.25,0,0,0-3.367,1.673,5.341,5.341,0,0,1-.16-.684l0-.019a6.62,6.62,0,0,1,.832-4.149,15.423,15.423,0,0,1,2.722-3.394c1.733-.761,3.486-1.465,5.286-2.056a48.162,48.162,0,0,1,14.891-2.352,51.067,51.067,0,0,1,8.386.659q2.074.338,4.113.848c1.164.291,2.306.647,3.454.984q-.625.8-1.223,1.623m.272-4.153a16.743,16.743,0,0,1-2.515-.59,39.754,39.754,0,0,1-4.51-1.847,32.846,32.846,0,0,0-9.276-3.218,57.9,57.9,0,0,0-11.353.046c-3.061.193-6.114.461-9.166.759-.021,0-.032-.022-.056-.023a5.5,5.5,0,0,0-1.274.111,1.394,1.394,0,0,0-.352.074c-.292.03-.584.054-.874.084q-2.628.276-5.252.6a4.961,4.961,0,0,0-.817.087c-.111.014-.221.037-.332.053q-3.012.388-6.011.87a7.086,7.086,0,0,1,.344-.692,7.642,7.642,0,0,1,1.176-1.519,27.019,27.019,0,0,1,3.768-1.672A22.228,22.228,0,0,1,39,217.63c.167-.04.343-.073.521-.108,5.773-.162,11.53-.953,17.3-1.354l.747-.025c.283-.009.566-.016.849-.032a1.853,1.853,0,0,0,.338-.057c.623-.032,1.246-.069,1.87-.087,8.022-.243,16.519.874,23.074,5.892a20.809,20.809,0,0,1,2.5,2.3,7.106,7.106,0,0,1-2.871.989m2.919-3.1h-.015c-4.661-4.316-11.026-6.539-17.286-7.282-.937-.112-1.874-.189-2.81-.243a.532.532,0,0,0-.184-.153c-.847-.393-1.666-.834-2.472-1.3a37.482,37.482,0,0,1-8.035-8c2.709-.047,5.417-.118,8.126-.187,3.042-.076,6.147-.248,9.081.712a10.992,10.992,0,0,1,2.148.946,8.03,8.03,0,0,1,.936.626,5.187,5.187,0,0,0,.9.7l.1.032c.806.832,1.6,1.674,2.394,2.514a.218.218,0,0,0,.034.187c1.432,2.138,3.149,4.078,4.783,6.067.808.984,1.625,1.963,2.424,2.956.419.522.843,1.038,1.269,1.554.232.282.459.592.7.887a5.936,5.936,0,0,1-2.091-.015m4.947-2.8c-.228-.206-.454-.412-.682-.617-.691-.623-1.392-1.235-2.094-1.844q-2.041-1.768-4.132-3.473c-1.391-1.139-2.768-2.3-4.152-3.446-1.012-.84-2.022-1.7-3.082-2.488a4.015,4.015,0,0,0-1.391-1.192c-.184-.181-.367-.364-.553-.545-2.606-2.537-5.265-5.013-7.948-7.468a62.637,62.637,0,0,0-7.5-6.419,10.644,10.644,0,0,0-9.3-2.99,6.632,6.632,0,0,1,.942-1.967,7.928,7.928,0,0,1,3.891-2.036,10.482,10.482,0,0,1,2.364.116,14.571,14.571,0,0,0,2.468.389c.347.116.692.237,1.033.371a29.839,29.839,0,0,1,3.411,1.57,24.261,24.261,0,0,1,3.121,2.025q.717.549,1.388,1.159c.23.211.455.42.7.618.116.095.229.193.347.285a.813.813,0,0,0,.236.129c.814.668,1.62,1.346,2.44,2.008q1.711,1.383,3.368,2.834,1.62,1.428,3.167,2.936c.545.531,1.071,1.091,1.61,1.636a117.626,117.626,0,0,1,9.678,12.219c.051.109.1.216.149.323a9.334,9.334,0,0,1,.557,1.877,10.524,10.524,0,0,1-.038,3.987m2.527-6.825a.788.788,0,0,1-.413-.195c-.43-.317-.839-.669-1.261-1-.807-.626-1.564-1.338-2.306-2.037-.711-.672-1.442-1.322-2.133-2.015q-2.472-3.366-5.224-6.517a102.922,102.922,0,0,0-7.253-7.5,57.075,57.075,0,0,0-7.654-6.131,31.063,31.063,0,0,0-7.938-3.806c-2.731-1.351-5.456-2.688-8.089-4.231a91.478,91.478,0,0,1-7.962-5.242c-.715-.526-1.438-1.056-2.144-1.607a.612.612,0,0,0-.135-.191,2.43,2.43,0,0,1-.487-2.889l.161-.114c.072-.031.144-.058.215-.081a12.49,12.49,0,0,1,1.985-.46c1.207-.015,2.418.029,3.6.034,1.2,0,2.409.025,3.613.073.992.182,1.98.386,2.96.619.351.1.7.189,1.052.3.531.175,1.053.371,1.572.573A87.824,87.824,0,0,1,68,177.724a79.749,79.749,0,0,1,15.389,15.469A73.809,73.809,0,0,1,93.724,211.96c.014.1.017.2.027.3a.506.506,0,0,0-.03.153m1.041-8.2a13.9,13.9,0,0,1-1.792-1.711c-.632-.632-1.247-1.278-1.873-1.914-1.007-1.021-1.987-2.069-2.96-3.122-.164-.262-.322-.53-.489-.79-.573-.891-1.171-1.768-1.783-2.635-1.037-2.231-2.273-4.375-3.317-6.6q-1.638-3.5-2.92-7.145-.724-2.058-1.346-4.15a43.973,43.973,0,0,1,4.487,3.018,17.849,17.849,0,0,1,3.4,3.636,9.8,9.8,0,0,0,.921,1.45l.074.119c1.15,2.048,2.093,4.236,3.11,6.354,1.1,2.284,2,4.62,2.929,6.975.512,1.3,1.036,2.593,1.514,3.907.323.888.61,1.8.944,2.69-.232.176-.52.184-.9-.077m1.869-6q-.089,1.162-.216,2.323c-.125-.2-.254-.4-.391-.6-.3-.417-.539-.877-.8-1.315-.294-.487-.633-.942-.93-1.428l-.109-.092c-.4-.78-.783-1.564-1.168-2.342a.156.156,0,0,0-.173-.088c-.6-1.19-1.207-2.377-1.768-3.584a74,74,0,0,0-3.5-7.06c-.195-.514-.544-1.006-.771-1.483-.308-.644-.629-1.282-.941-1.925-.34-.7-.723-1.375-1.02-2.1-.283-.688-.521-1.395-.737-2.106-.889-2.931-.975-6.036-1.913-8.958a16.642,16.642,0,0,0-.809-2.076,47.429,47.429,0,0,1,4.578,4.534,48.267,48.267,0,0,1,7.522,11.538,47.363,47.363,0,0,1,2.68,7.249c.174.621.328,1.244.47,1.869.016.2.032.4.045.6.046.769.085,1.539.1,2.309a47.211,47.211,0,0,1-.146,4.726m-1.506-16.227a48.825,48.825,0,0,0-7.72-12.332,45.312,45.312,0,0,0-4.276-4.354,4.507,4.507,0,0,0-1.018-1.492,18.449,18.449,0,0,0-1.462-1.514c-1.065-1.012-2.217-1.926-3.322-2.893a32.62,32.62,0,0,1-5.687-6.48c-.449-.673-.877-1.369-1.289-2.074a10.191,10.191,0,0,1-.238-1.628,5.429,5.429,0,0,1,.058-1.179,2.969,2.969,0,0,1,.827-.7,3.778,3.778,0,0,1,2.348-.284,9.8,9.8,0,0,1,2.255.592,8.877,8.877,0,0,1,1.048.5c.088.049.171.1.253.151.23.286.463.574.688.858a110.289,110.289,0,0,1,15.245,24.951c1.078,2.528,2.053,5.1,2.877,7.723.589,1.88,1.048,3.815,1.45,5.754a49.75,49.75,0,0,0-2.037-5.6m1.572.412a66.335,66.335,0,0,0-2.092-7.11,81.153,81.153,0,0,0-6.516-13.421,125.774,125.774,0,0,0-8.635-12.514c-.943-1.214-1.9-2.426-2.881-3.621-.06-.466-.08-.934-.1-1.406a3.946,3.946,0,0,1,.181-1.47,2.02,2.02,0,0,1,1.593-1.452,2.774,2.774,0,0,1,.885.084l.276.17q.841.52,1.636,1.108c.489.363.957.752,1.414,1.153.03.027.063.053.1.079.013.01.025.019.038.031.308.275.616.632.951.925a66.372,66.372,0,0,1,4.345,6.858,80.605,80.605,0,0,1,8.763,27.194c.324,2.221.565,4.455.754,6.693q-.3-1.656-.708-3.3" transform="translate(1 21.058)" fill="#fff"/>
    <path id="Trazado_7447" data-name="Trazado 7447" d="M330.733,28.072a4.428,4.428,0,0,0-4.826-3.626c-2.355.153-4.569,1.3-6.692,2.242q-3.278,1.448-6.47,3.079a129.968,129.968,0,0,0-23.881,15.826,131.522,131.522,0,0,0-19.81,20.486,165.071,165.071,0,0,0-15.849,25.664c-4.784,9.247-9.32,18.668-15.119,27.339-1.221,1.824-2.509,3.6-3.847,5.34.095-.747.169-1.5.216-2.25.182-.116.35-.238.488-.342a5.514,5.514,0,0,0,1.454-1.685,6.518,6.518,0,0,0,.769-4.315,5.343,5.343,0,0,0-.781-1.97,2.437,2.437,0,0,0-.131-.331c1.822-4.151,3.4-8.378,4.94-12.646a119.619,119.619,0,0,0,4.207-14.7c.315-1.43.555-2.879.806-4.321.136-.775.293-1.544.453-2.313a3.834,3.834,0,0,0,.285-1.451c.034-.178.074-.356.106-.535a.688.688,0,0,0-.3-.723.736.736,0,0,0-1.367.087A5.475,5.475,0,0,0,245,78.072a2.28,2.28,0,0,0,.207,2l.094.087c-.7,4-1.616,7.955-2.631,11.892a139.059,139.059,0,0,1-4.416,14.354c-.809,2.147-1.667,4.276-2.559,6.393a1.849,1.849,0,0,0-.7-.374,3.911,3.911,0,0,0-.34-.213,3.637,3.637,0,0,0-2.571-.308c.025-1.539-.095-3.091-.178-4.615-.111-2.023-.2-4.048-.332-6.07a99.932,99.932,0,0,0-1.68-12.115q-.565-2.993-1.266-5.957c-.382-1.618-.6-3.586-1.562-4.987-.8-1.169-2.4-1.679-3.445-.49a1.989,1.989,0,0,0,1.035,3.264,2.38,2.38,0,0,0,1.727-.3q1.024,3.867,1.808,7.8c1.066,5.277,1.819,10.619,2.462,15.961.314,2.612.266,5.258.49,7.875a4.121,4.121,0,0,0-.924.686,4.82,4.82,0,0,0-1.264,2.391,5.983,5.983,0,0,0-.016,2.022c-.047.128-.1.252-.14.383a6.026,6.026,0,0,0-.516,2.226,72.754,72.754,0,0,0-3.5-8.454c-2.707-5.6-5.788-11.033-8.765-16.5-6.1-11.187-12.324-22.314-19.2-33.044a232.925,232.925,0,0,0-21.7-29.1A153.44,153.44,0,0,0,149.756,9.773q-3.506-2.507-7.189-4.749A61.037,61.037,0,0,0,134.889.811c-2.382-1.011-5.163-1.307-7.254.468A7.013,7.013,0,0,0,125.277,6.7a4.873,4.873,0,0,0,.087.827,55.881,55.881,0,0,0-2.2,12.875,122.884,122.884,0,0,0,.337,19.875,140.055,140.055,0,0,0,9.364,38.478,140.5,140.5,0,0,0,19.252,34.254,74.435,74.435,0,0,0,11.921,12.318,19.728,19.728,0,0,0-13.867,5.044c-4.227,3.76-6.487,9.18-7.417,14.664a56.736,56.736,0,0,0,.092,17.829,64.8,64.8,0,0,0,5.3,17.58,49.274,49.274,0,0,0,4.24,7.614,14.941,14.941,0,0,0,5.794,5.293c5.794,2.614,11.907-.982,16.913-3.77a128.35,128.35,0,0,0,47.2-45.637c.378-.628.735-1.267,1.1-1.9-.093.326-.192.65-.282.977l-2.545,7.624-1.664,4.988-.061.173-.2.13a4.492,4.492,0,0,0-1.085,1.072,2.944,2.944,0,0,0-.4,2.542,2.656,2.656,0,0,0,.195.422,2.011,2.011,0,0,0,3.073,1.92,2.381,2.381,0,0,0,.572-.421l.29-.066a2.07,2.07,0,0,0,1.184-1.864,3.97,3.97,0,0,0,.718-3.44c.869-1.4,1.675-2.846,2.448-4.3.085,1.249.244,2.5.306,3.745.087,1.773.108,3.549.086,5.324-.045,3.659-.249,7.315-.348,10.973-.194,7.138-.5,14.3.79,21.366.153.836.32,1.705.513,2.581a24.009,24.009,0,0,0,1.606,6.714,3.565,3.565,0,0,0,5.2,1.635,13.263,13.263,0,0,0,2.65-2.049q1.286-1.173,2.524-2.4,2.444-2.4,4.719-4.971a97.939,97.939,0,0,0,8.4-10.971,81.548,81.548,0,0,0,11.109-24.931c1.2-4.788,2.367-10.111,1.081-14.995-1.088-4.131-4.107-7.767-8.449-8.339q1.751-.516,3.474-1.118a70.485,70.485,0,0,0,19.051-10.26l.048.01a2.313,2.313,0,0,0,1.3-.692,10.548,10.548,0,0,0,1.187-1.1c.21-.232.413-.472.61-.718,1.169-.986,2.32-2,3.429-3.058,7.37-7.037,13.328-15.411,18.72-24.014a219.105,219.105,0,0,0,15.169-28.784,228.391,228.391,0,0,0,10.818-30.574c.625-2.265,1.509-4.72,1.106-7.1M143.663,17.9a1.058,1.058,0,0,1,.2-.692l.039-.029a.662.662,0,0,0,.439.059q.846.547,1.667,1.12c1.872,1.31,3.717,2.662,5.56,4.012,3.772,2.762,7.512,5.567,11.25,8.374,4,3.005,8.016,5.994,11.968,9.063,1.837,1.427,3.617,2.922,5.308,4.52s3.165,3.365,4.841,4.954l.147.089a12.22,12.22,0,0,1,.873.954,28.489,28.489,0,0,1,2.323,3.492c1.5,2.551,2.891,5.174,4.243,7.808q.587,1.142,1.168,2.289l.018.114.019.187.012.227a1.827,1.827,0,0,1-.019.506l-.013.072-.048.2-.052.162,0,.006-.008.018-.147.263-.063.071-.122.117-.044.03-.116.064-.073.026-.185.059-.035.016-.04-.006-.235-.006c.163.005-.066-.014-.093-.021l-.228-.065-.136-.051-.158-.079c-.136-.066-.269-.133-.4-.211a6.408,6.408,0,0,1-.761-.521.567.567,0,0,0-.388-.132,59.29,59.29,0,0,0-5.594-4.026,49.355,49.355,0,0,0-7.054-3.677c-2.057-.87-5.2-2.382-7.092-.408a97.494,97.494,0,0,0-5.027-9.193q-3.187-5.393-6.667-10.6c-4.078-6.1-8.358-12.227-13.824-17.177-.322-.291-.665-.559-1-.841A3.293,3.293,0,0,1,143.661,18Zm65.264,98.826c-2.1-1.625-4.127-3.336-6.323-4.841a68.954,68.954,0,0,0-6.9-4.076,53.032,53.032,0,0,0-6.06-2.737c-2.68-4.024-5.2-8.167-7.515-12.41a88.383,88.383,0,0,1-9.452-24.527,74.316,74.316,0,0,1,10.993,7.443,61.492,61.492,0,0,1,9.972,11.364c.446.637.858,1.294,1.282,1.944.09.195.169.391.266.583a.28.28,0,0,0,.223.16c4.994,7.872,8.54,16.6,12.911,24.815.573,1.079,1.143,2.155,1.723,3.226-.367-.32-.734-.642-1.121-.942m3.705,6c.924,1.088,1.741,2.249,2.563,3.415.413.586.833,1.165,1.235,1.758a39.7,39.7,0,0,1-15.4-8.912,70.8,70.8,0,0,1-10.346-12.35c-.1-.146-.195-.3-.293-.442a48.985,48.985,0,0,1,10.792,5.884,51.688,51.688,0,0,1,6.143,4.935c1.807,1.86,3.626,3.732,5.3,5.711M185.327,75.962a66.265,66.265,0,0,0-12.781-8.551c-.2-1.063-.389-2.128-.533-3.2.034-.282.074-.565.12-.845a5.467,5.467,0,0,1,2.791-4.053c.25-.01.488-.014.686-.012a8.849,8.849,0,0,1,2.587.434l.133.055c1.147.549,2.269,1.148,3.367,1.773a56.7,56.7,0,0,1,7.873,5.487c.139,1.389.372,2.783.5,4.152a47.716,47.716,0,0,0,.988,6.22c.485,2.1,1.253,4.053,1.905,6.1.171.536.341,1.068.514,1.6a55.231,55.231,0,0,0-8.154-9.153M144.2,22.24c.662.561,1.333,1.12,1.965,1.714a9.433,9.433,0,0,0,1.992,1.642l.159.027c.693.78,1.372,1.572,2.028,2.384a185.851,185.851,0,0,1,13.18,19.289c1.192,1.93,2.353,3.88,3.519,5.826l.112.187v.005a6.882,6.882,0,0,0,.385,1.007,10.389,10.389,0,0,1,.737,1.881,4.306,4.306,0,0,1-.316,3.12,4.95,4.95,0,0,1-1.261.868,6.33,6.33,0,0,1-2.774.492.829.829,0,0,0-.294-.279,26.447,26.447,0,0,1-7.317-6.536c-1.057-1.318-2.022-2.711-2.951-4.122-.97-1.473-1.8-3.037-2.775-4.5a44.283,44.283,0,0,0-5.48-6.782l-.014-.094a16.586,16.586,0,0,1-1.577-3.74c.005-.317.016-.633.007-.951a26.232,26.232,0,0,0-.316-3.285c-.209-1.346-.5-2.678-.812-4-.035-.916-.061-1.829-.082-2.725-.024-1.013-.05-2.014-.1-3.013.679.5,1.336,1.038,1.985,1.59m-15.7,6.226c.145-2.1.33-4.206.659-6.284a15.742,15.742,0,0,1,.89-3.5,5.2,5.2,0,0,1,.76-.87,11.732,11.732,0,0,1,7.675.7q1.02,2.952,1.84,5.966c.359,1.324.658,2.662.934,4a28.6,28.6,0,0,0,.529,3.408c.147.659.312,1.312.5,1.959.1.5.214,1,.32,1.5.075.353.106.731.195,1.085a30.6,30.6,0,0,0-6.725-4.027,26.9,26.9,0,0,0-7.652-2.22c.027-.572.038-1.144.077-1.717m.378,10.29a19.952,19.952,0,0,1-.569-2.732c-.016-1.707.018-3.415.082-5.12a31.582,31.582,0,0,1,6.553,1.8,27.528,27.528,0,0,1,8.151,5.355,41.121,41.121,0,0,1,6.261,8.042c.935,1.448,1.952,2.842,2.888,4.29.884,1.369,1.784,2.726,2.748,4.041a31.331,31.331,0,0,0,4.987,5.483c-1.133-.35-2.284-.636-3.4-1.03a75.084,75.084,0,0,1-12.714-6.043c-2.3-1.34-4.541-2.787-6.836-4.14l-.068-.009c-.584-.481-1.167-.962-1.725-1.474a31.134,31.134,0,0,1-4.147-4.578,20.213,20.213,0,0,1-2.208-3.889m5.82,29.676a30.527,30.527,0,0,1-1.88-5.628,46.47,46.47,0,0,1-1.211-6.394,10.857,10.857,0,0,1,.954-3.552l.14-.239c.409-.116.823-.212,1.226-.3a8.96,8.96,0,0,1,2.7-.164,9.531,9.531,0,0,1,2.551.577l.138.06c1.021.652,2.049,1.294,3.094,1.909a97.842,97.842,0,0,0,16.87,7.938c.987.351,1.981.681,2.979,1a20.869,20.869,0,0,1,5.778,4.621,20.5,20.5,0,0,1,2.759,4.166c.244.489.46.991.663,1.5a.6.6,0,0,0-.116.321,6.941,6.941,0,0,0,.518,2.418c.261.822.537,1.641.773,2.471a37.433,37.433,0,0,1,1.09,5.073c.178,1.3.3,2.806-1.315,3.059a8.059,8.059,0,0,1-2.168-.093,7.783,7.783,0,0,0-1.3-.041c-2.566-.836-5.119-1.707-7.646-2.65-5.027-1.876-9.966-3.994-14.806-6.314l-.005-.01a10.06,10.06,0,0,0-2.794-1.925c-.979-.567-1.916-1.192-2.84-1.845a26.291,26.291,0,0,1-5.11-4.574c-.369-.446-.717-.909-1.044-1.384m9.7,23.122c-1.449-1.094-2.842-2.257-4.264-3.384-.374-.381-.733-.778-1.071-1.2-.143-.178-.26-.371-.394-.554-.65-1.367-1.288-2.74-1.893-4.127-.091-.21-.174-.423-.263-.633-.035-.163-.089-.319-.117-.484A11.645,11.645,0,0,1,136.311,78a10.955,10.955,0,0,1,.42-1.907,3.864,3.864,0,0,1,.379-.3,2.6,2.6,0,0,1,.709-.331l.175.142a.84.84,0,0,0,.384.166q1.218.707,2.454,1.385c3.026,1.658,6.1,3.233,9.231,4.69a169.162,169.162,0,0,0,19.007,7.542q1.187.386,2.381.758c.746.368,1.478.8,2.224,1.163a25.081,25.081,0,0,1,2.6,1.479,23.409,23.409,0,0,1,4.392,3.73c.383.415.743.848,1.092,1.291.243.427.49.852.713,1.29a26.443,26.443,0,0,1,1.579,3.827c.365,1.124,1,3.019-.426,3.663a.752.752,0,0,0-.4.4,11.988,11.988,0,0,1-1.852.024,43.585,43.585,0,0,1-8.589-1.419,73.808,73.808,0,0,1-16.331-6.836c-1.454-.794-2.879-1.64-4.326-2.445-.7-.391-1.392-.819-2.1-1.192-.4-.21-.824-.386-1.246-.565-.362-.683-1.388-1.162-1.979-1.522-.8-.485-1.6-.96-2.382-1.468Zm12.2,23.372A111.262,111.262,0,0,1,145.794,99.7c-.371-.613-.721-1.238-1.082-1.858l-.046-.233-.033-.245a.969.969,0,0,0,0-.283l0-.23a.623.623,0,0,1,.336-.413,1.794,1.794,0,0,1,1.491.079,14.142,14.142,0,0,1,1.667.783,19.765,19.765,0,0,0,1.78.976,1.423,1.423,0,0,0,.558.126c2.269,1.395,4.594,2.695,6.982,3.879a91.311,91.311,0,0,0,22.084,7.6l.3.054c2.751.985,5.564,1.821,8.336,2.726a22.956,22.956,0,0,1,6.066,2.737c1.3,1.213,2.573,2.455,3.78,3.761.5.536.964,1.09,1.42,1.652a15.736,15.736,0,0,1,.96,1.726,3.7,3.7,0,0,1,.248,1.944,2.76,2.76,0,0,1-2.262,2.308.47.47,0,0,0-.425.276,15.163,15.163,0,0,1-1.518.417,33.017,33.017,0,0,1-8.076.5,108.267,108.267,0,0,1-18.136-2.475,21.619,21.619,0,0,1-3.44-.944,66.909,66.909,0,0,1-10.17-9.639m4.885,12.268a20.444,20.444,0,0,1,3.773-.367.682.682,0,0,0,.469-.175A58.241,58.241,0,0,0,180.5,134.59c-.8-.046-1.6-.069-2.4-.048-1.953.047-3.9.257-5.837.486-.121.01-.246.011-.367.022a90.9,90.9,0,0,1-11.537.48c-.118-.015-.238-.019-.355-.036l-.062-.009-.193-.136c-1.622-.508-3.236-1.08-4.8-1.746-1.115-.473-2.177-1.055-3.264-1.583a20.507,20.507,0,0,1,9.805-4.826M148.808,135.3a17.6,17.6,0,0,1,1.1-1.456,19.821,19.821,0,0,0,5.694,1.966c.344.073.687.135,1.03.2a20.8,20.8,0,0,0,2.964.477l.05-.005a30.774,30.774,0,0,0,3.072.221c2.467.041,4.932-.1,7.392-.278,2.71-.2,5.4-.575,8.116-.68,1.506-.058,3.017-.055,4.521.026.612.032,1.218.1,1.821.178a83.434,83.434,0,0,0,14.536,2.9,28.253,28.253,0,0,0-4.576,1.651c-.2.093-.39.2-.586.3-.367.153-.736.3-1.1.469-.795.364-1.57.773-2.328,1.211-1.133.146-2.278.5-3.376.69q-2.334.409-4.687.7c-3,.367-6.022.657-9.041.795q-1.882-.022-3.764-.037-4.78-.042-9.557-.075c-1.157-.008-2.323-.032-3.489-.043-.658-.035-1.316-.062-1.974-.1q-2.612-.162-5.223-.346c-1.371-.1-2.736-.221-4.1-.214a24.831,24.831,0,0,1,3.5-8.539m-3.618,27.8a60.364,60.364,0,0,1-.75-12.649c.019-.371.051-.741.078-1.113a16.935,16.935,0,0,1,2.718-2.02,13.17,13.17,0,0,1,3.842-1.194,57.868,57.868,0,0,1,9.586-.274c.278,0,.555,0,.833,0,.418.013.835.034,1.253.045,3.675.092,7.37.1,11.057-.035,2.038,0,4.077,0,6.115.007a48.364,48.364,0,0,0,4.948-.06,7.921,7.921,0,0,0,1.193-.2,27.661,27.661,0,0,0-6.037,7.119c-.061.1-.112.213-.167.322a86.307,86.307,0,0,0-30.625,8.052c-1.354.627-2.739,1.249-4.031,1.995Zm6.851,14.925a39.151,39.151,0,0,1-5.759-10.72c-.069-.2-.117-.4-.183-.6.744-.458,1.46-.976,2.189-1.446,1.009-.652,2.03-1.288,3.074-1.881.376-.214.766-.4,1.147-.605,1.161-.519,2.326-1.027,3.5-1.511,2.974-1.228,5.981-2.373,8.98-3.538,2.17-.609,4.367-1.122,6.576-1.543,2.351-.449,4.729-.7,7.109-.943-.368.544-.74,1.086-1.149,1.6a5.332,5.332,0,0,0-2.014,1.1c-.928.737-1.831,1.508-2.722,2.289-1.791,1.568-3.528,3.2-5.256,4.833-3.432,3.252-6.82,6.61-10.541,9.535-1.584,1.244-3.278,2.321-4.951,3.43m22.513,6.056c-.854.3-1.714.59-2.581.845-3.787,1.116-7.946,1.628-11.694.084a15.511,15.511,0,0,1-3.634-2.163c.266-.681.487-1.389.8-2.045a22.127,22.127,0,0,1,1.652-2.828,40.465,40.465,0,0,1,4.387-5.194,130.422,130.422,0,0,1,9.991-9.711q1.5-1.257,3.111-2.373c.739-.512,1.581-.943,2.348-1.448a3.248,3.248,0,0,0,.918.416,34.149,34.149,0,0,0,9.985,1.111c.5-.01.989-.05,1.484-.081l-.274.235a27.561,27.561,0,0,0-2.078,1.935,37.907,37.907,0,0,0-3.6,4.345,41.332,41.332,0,0,0-2.549,4.159c-.232.318-.473.626-.7.947-2.686,3.8-5.272,7.713-7.572,11.768m17.424-9.683a73.651,73.651,0,0,1-12.185,7.492,42.8,42.8,0,0,1,4.939-11.122A45.13,45.13,0,0,1,189,165.133c.754-.847,1.549-1.661,2.349-2.465a9.978,9.978,0,0,0,2.064-2.169,39.76,39.76,0,0,0,15.339-5.192,39.158,39.158,0,0,0,4.432-3.053A103.3,103.3,0,0,1,191.978,174.4m22.946-34.824a15.5,15.5,0,0,1-.207,1.786,21.733,21.733,0,0,1-1.016,3.685,21.449,21.449,0,0,1-1.6,3.358l-.011.02a30.244,30.244,0,0,1-2.077,3.262.58.58,0,0,0-.121.342,37.353,37.353,0,0,1-16.285,6.373,40.545,40.545,0,0,1-5.182.38,7.082,7.082,0,0,1-3.921-2.607c-.188-.306-.353-.625-.517-.945l-.082-.274a4.153,4.153,0,0,1-.061-.54.258.258,0,0,0,.138-.152,24.291,24.291,0,0,1,2.061-5.088,17.138,17.138,0,0,1,3.72-4.118c3.141-2.593,7.262-3.934,11.18-4.8,1.157-.254,2.319-.469,3.484-.676.352-.063.7-.131,1.053-.2,3.148.173,6.3.23,9.445.188Zm3.41-4.62a22.176,22.176,0,0,1-2.864,1.08,36.181,36.181,0,0,1-5.409,1.223c-.119.01-.239.02-.358.026a95.225,95.225,0,0,1-22.661-2.987,61.254,61.254,0,0,1-14.756-6.023,78.658,78.658,0,0,0,12.163,2.617,98.8,98.8,0,0,0,18.289.843c1.671-.08,3.344-.2,5.006-.382,1.044-.117,2.106-.228,3.158-.383.458,0,.916-.021,1.374-.022.892,0,1.786-.025,2.678-.043a9.452,9.452,0,0,1,2.368.656,6.222,6.222,0,0,1,1.64,1.058,4.05,4.05,0,0,1,.528.605,3.079,3.079,0,0,1-1.157,1.732m4.213-7.79a7.614,7.614,0,0,1-2.922,1.162l-.1-.168a118.667,118.667,0,0,1-8.918-13.273c-2.726-4.658-5.084-9.539-7.652-14.285-2.3-4.255-4.755-8.433-7.406-12.481-.432-1.653-.974-3.268-1.416-4.923-.549-2.055-.875-4.172-1.373-6.244-.076-.318-.16-.634-.239-.951-.016-1.277-.031-2.555-.02-3.831.007-.858.007-1.713-.009-2.572.458.425.928.836,1.374,1.272a91.27,91.27,0,0,1,10.5,12.514c1.675,2.361,3.269,4.783,4.848,7.21s3.03,4.951,4.643,7.358c.65.971,1.268,1.961,1.883,2.953,2.006,4.6,4.254,9.093,6.251,13.7,1.086,2.5,2.12,5.024,3.083,7.576.131.344.25.693.377,1.038a7.45,7.45,0,0,1-2.9,3.944m96.4-95.971a3.084,3.084,0,0,1,1.206.2,1.531,1.531,0,0,1,.786.735c-.577.942-1.137,1.895-1.707,2.841-.609.433-1.219.862-1.841,1.259-2,1.278-4.077,2.438-6.145,3.609q-3.741,2.12-7.442,4.29c.281-.431.548-.875.839-1.3a25.5,25.5,0,0,1,1.953-2.482,25.336,25.336,0,0,1,4.712-4.377c1.7-1.152,3.4-2.316,5.152-3.381.812-.492,1.645-.947,2.486-1.386m-1.331,6.342c-.654,1.025-1.3,2.055-1.976,3.066q-3.142,4.7-6.567,9.19c-.284.375-.581.739-.869,1.112-1.514,1.327-2.82,2.921-4.19,4.384-1.5,1.6-2.971,3.218-4.481,4.8-3.056,3.21-6.28,6.223-9.5,9.268-.644.61-1.3,1.208-1.953,1.808a37.671,37.671,0,0,1-5.709,3.009c-.362.152-.731.289-1.1.429q-.84.11-1.667.25a39.054,39.054,0,0,0-6.379,1.65c-.346.12-.682.26-1.023.391.634-.975,1.244-1.968,1.878-2.936C275.363,72,276.648,70.05,278,68.146a80.7,80.7,0,0,1,9.043-10.954,67.735,67.735,0,0,1,11.084-8.844c3.977-2.545,8.281-4.533,12.438-6.758,2.35-1.258,4.662-2.577,6.928-3.981ZM262.108,79.646c1.115-1.852,2.269-3.678,3.48-5.473A126.412,126.412,0,0,1,283.582,53a128.958,128.958,0,0,1,22.129-16.79q3.487-2.095,7.1-3.965a.539.539,0,0,0,.534.031,10.128,10.128,0,0,1,1.819-.61,26.139,26.139,0,0,0-4.358,3.65c-1.465,1.56-3.006,3.049-4.4,4.673-.7.81-1.367,1.647-2.033,2.481a13.565,13.565,0,0,0-1.625,2.281c-1.28.754-2.564,1.5-3.836,2.276a62.229,62.229,0,0,0-11.129,8.5,85.08,85.08,0,0,0-9,10.532q-2.371,3.214-4.584,6.544c-1.026,1.546-2.1,3.095-3.062,4.7a42.139,42.139,0,0,0-5.752,2.948q-.6.2-1.209.379c-.47.138-1.382.472-1.823.119a1.048,1.048,0,0,1-.249-1.105m-12.953,24.19c.309-.428.583-.889.871-1.316.5-.741,1.009-1.476,1.5-2.221,1.017-1.525,1.99-3.078,2.961-4.634.946-1.513,1.874-3.037,2.817-4.553q.744-1.2,1.46-2.409c.088-.149.161-.3.243-.456a38.421,38.421,0,0,1,20.193-11.019,45.474,45.474,0,0,1,5.313-.646.426.426,0,0,0,.5-.009l.046-.034.015,0a48.606,48.606,0,0,1-1.507,6.854c-.079.286-.181.566-.264.852-4.9,3.525-8.806,8.191-12.916,12.58a.439.439,0,0,0-.4.112,33.016,33.016,0,0,1-5.7,4.378c-2,1.205-4.07,2.273-6.152,3.317-2.6,1.3-5.242,2.582-7.76,4.056a18.516,18.516,0,0,0-6.195,4.461c-.1.094-.209.188-.311.285,1.839-3.151,3.586-6.361,5.276-9.6m33.45-17.3q-.662,2.012-1.437,3.985c-.774.517-1.5,1.168-2.217,1.7-1.037.768-2.127,1.469-3.227,2.143-1.4.86-2.856,1.619-4.309,2.384,1.834-1.682,3.681-3.348,5.477-5.073,1.845-1.772,3.726-3.523,5.713-5.138m-40.438,29.751c.544-.6,1.071-1.213,1.648-1.783a29.324,29.324,0,0,1,2.446-2.157,43.746,43.746,0,0,1,5.72-3.766c.379-.211.766-.406,1.148-.61,3.043-1.309,6.179-2.423,9.1-3.992a33.672,33.672,0,0,0,6.757-5.013c.141-.109.278-.222.416-.333a51.492,51.492,0,0,0,6.764-3.51c1.114-.648,2.209-1.328,3.316-1.988.243-.145.5-.292.758-.443a69.575,69.575,0,0,1-7.158,12.611,67.418,67.418,0,0,1-14.309,14.566,21.074,21.074,0,0,0-2.7,1.454q-1.461.834-2.954,1.61a57.712,57.712,0,0,1-6.307,2.821,49.958,49.958,0,0,1-6.54,1.97,8.751,8.751,0,0,1-3.4.206c-.135-.037-.27-.072-.406-.1l-.225-.081-.14-.156a2.745,2.745,0,0,0-.862-.559,2.352,2.352,0,0,1-.252-.312,107.339,107.339,0,0,0,7.182-10.428m-13.044,6.145a2.6,2.6,0,0,0,.393.381l.193.153-.309.8c-.129-.5-.259-1.007-.4-1.506ZM226.828,149.8l-.078-.141a76.971,76.971,0,0,0,3.478-8.295,10.593,10.593,0,0,1,1.1.009,7.873,7.873,0,0,1,5.658,4.546c1.358,2.816,1.663,6.134,1.859,9.214a39.663,39.663,0,0,1-.28,9.041c-.154.646-.319,1.29-.509,1.927a34.306,34.306,0,0,1-1.413,3.862,5.2,5.2,0,0,1-1.88,2.174,3.243,3.243,0,0,1-3.884-.87c-.1-.1-.191-.219-.282-.331-.3-.49-.6-.98-.886-1.479-.353-.765-.644-1.565-1.044-2.308a61.347,61.347,0,0,0-.927-13.9,27.707,27.707,0,0,0-.91-3.45m7.727,49.324c-.337.9-1.008,1.591-1.37,2.474l0,.038a3.318,3.318,0,0,1-1.922.486,13.4,13.4,0,0,1-2.478-4.7c-.094-.486-.184-.973-.262-1.462a73.116,73.116,0,0,1-.606-14.209c.131-3.641.409-7.322.6-11.007a7.65,7.65,0,0,0,1.539,1.962,6.008,6.008,0,0,0,2.544,2.544,3.016,3.016,0,0,0,.865.242,13.862,13.862,0,0,0-.423,2.4,31.253,31.253,0,0,0-.166,3.8,38.353,38.353,0,0,0,.749,7.183l0,.006c.124,1.359.281,2.713.5,4.059q.259,1.584.621,3.15c.076.336.151.732.244,1.128a7.849,7.849,0,0,1-.433,1.9M241.5,193.9a6.346,6.346,0,0,1-1.9,1.118,2.311,2.311,0,0,1-.32.078,4.974,4.974,0,0,1-2.945-3.21,26.389,26.389,0,0,1-1.227-5.951,61.007,61.007,0,0,1-.014-10.787,5.282,5.282,0,0,0,1.688-1.812,18.229,18.229,0,0,1,4.752,4.111c.133.156.259.321.394.475a16.8,16.8,0,0,1,1.227,1.861,18.726,18.726,0,0,1,2.439,8.951.652.652,0,0,0,.07.282c-1.393,1.627-2.761,3.271-4.165,4.885m10.163-16.17a12.421,12.421,0,0,1-.953,1.544,5.048,5.048,0,0,1-1.52.41,6.489,6.489,0,0,1-3.572-.727,23.765,23.765,0,0,1-2.333-2.159c-.41-.441-.787-.9-1.157-1.37l-.057-.161a17.514,17.514,0,0,1-1.894-4.5,18.336,18.336,0,0,1-.576-4.334q.5-1.7.853-3.461a19.347,19.347,0,0,0,7.719,5.18c.241.094.488.173.732.257a11.952,11.952,0,0,0,1.334.472l.087.19.007.009.094.273.111.136,0,0,.033.032c.187.24.392.464.586.7a8.024,8.024,0,0,1,1.222,4.541,7.9,7.9,0,0,1-.712,2.962m5.562-21.526.086.123a4.957,4.957,0,0,1,.457.8,6.989,6.989,0,0,1,.523,2.353c.065.893-.057,1.789,0,2.677l.023.084q-.12.635-.255,1.266a7.9,7.9,0,0,1-1.225,1.847A6.984,6.984,0,0,1,252,167.635c-.242-.045-.484-.089-.724-.144a17.046,17.046,0,0,1-3.1-1.135,15.417,15.417,0,0,1-3.355-2.289,16.326,16.326,0,0,1-3.8-5.27c.077-.937.122-1.875.125-2.813a4.337,4.337,0,0,1,1.449-.34c.925-.068,1.859-.083,2.786-.118.993-.037,1.987-.058,2.981-.091.476-.015.958-.013,1.441-.023a22.828,22.828,0,0,0,5.745-.552l.013,0a4.156,4.156,0,0,1,1.661,1.349M256.2,142.261a9.194,9.194,0,0,1-1.24,7.348,11.131,11.131,0,0,1-5.788,4.04c-.427-.015-.855-.032-1.279-.065a31.957,31.957,0,0,1-3.452-.464,14.6,14.6,0,0,0-3.282-.6l-.164.039c-.093-.907-.221-1.808-.4-2.7a52.993,52.993,0,0,0-1.325-5.51c-.2-.633-.42-1.258-.641-1.882a23.26,23.26,0,0,1,2.276-1.652,11.832,11.832,0,0,1,3.516-1.367.657.657,0,0,0,.408-.282c.1-.014.21-.026.315-.041a21.965,21.965,0,0,1,3.878-.148,10.889,10.889,0,0,1,5.112,1.477,9.106,9.106,0,0,1,2.063,1.806m9.3-12.367a70.5,70.5,0,0,1-28.585,6.749c-1.705.049-3.413.033-5.119-.019.268-.934.505-1.876.736-2.82a.87.87,0,0,0,.52.046,59.211,59.211,0,0,0,9.164-2.9c2.241-.121,4.475-.358,6.7-.638a95.168,95.168,0,0,0,9.981-1.859,91.716,91.716,0,0,0,9.5-2.777,79.715,79.715,0,0,0,8.692-3.555q1.017-.5,2.018-1.036a67.24,67.24,0,0,1-13.6,8.807m16.07-11.978-.192.133c-1.26.818-2.528,1.633-3.816,2.406a60.467,60.467,0,0,1-8.392,4.274,78.437,78.437,0,0,1-18.982,4.8c-1.964.267-3.936.437-5.909.586,1.253-.507,2.5-1.035,3.718-1.616a68.716,68.716,0,0,0,10.056-5.93c4.152-1.514,8.3-2.989,12.552-4.219,2.321-.671,4.661-1.269,7.01-1.836a13.783,13.783,0,0,1,3.308-.635,2.347,2.347,0,0,1,.818.19,5.587,5.587,0,0,1-.17,1.846m14.513-17.856a10.222,10.222,0,0,1-.808,1.967,30.851,30.851,0,0,1-1.77,2.866,6.5,6.5,0,0,0-1.035,1.413c-.12.2-.271.376-.4.567q-1.092,1.419-2.313,2.741a14.882,14.882,0,0,1-1.238,1.082,15.621,15.621,0,0,1-3.415,1.98c-.233.1-.469.182-.706.266l-.052-.007a12.536,12.536,0,0,0-3.531.1,35.432,35.432,0,0,0-6.915,2.016l-3.231,1.182-.183.033a12.342,12.342,0,0,1-2.551.2c-.523-.034-1.6-.617-1.057-1.255a71.935,71.935,0,0,0,6.1-6.833c.118-.11.253-.2.374-.31a.321.321,0,0,0,.445.035,42.5,42.5,0,0,1,7.444-4.829l.1-.011c.479-.249.965-.491,1.452-.732.718-.323,1.443-.632,2.182-.909a42.3,42.3,0,0,1,11.119-2.31,4.548,4.548,0,0,1-.027.625Zm9.486-16.927c-.118.56-.263,1.116-.434,1.662a19.161,19.161,0,0,1-1.368,3.283,17.924,17.924,0,0,1-1.908,2.9c-.631.776-1.311,1.54-2.021,2.253a2.508,2.508,0,0,0-.7.31,2.916,2.916,0,0,0-.382.3c-.2.093-.389.208-.592.29a16.94,16.94,0,0,1-1.8.6c-.355.1-.7.182-1.034.291-.208.035-.417.07-.622.116a31.585,31.585,0,0,0-6.68,2.749q-3.523,1.706-7.033,3.439c-1.555.768-3.106,1.523-4.616,2.356a69.982,69.982,0,0,0,5.53-10.1c.309-.695.591-1.4.877-2.106a23.648,23.648,0,0,1,4.388-4.224,22.214,22.214,0,0,1,2.507-1.579q.652-.338,1.31-.658a22.323,22.323,0,0,1,2.335-.943.556.556,0,0,0,.316-.254c.707-.294,1.418-.576,2.139-.83A26.689,26.689,0,0,1,302,81.529a7.7,7.7,0,0,1,2.9-.023,1.387,1.387,0,0,1,.853.73c-.08.3-.127.6-.188.9m9.873-21.048c-.431,1.078-.9,2.15-1.4,3.208a44.14,44.14,0,0,1-4.748,7.419,28.362,28.362,0,0,1-2,2.218c-.621.507-1.25,1-1.915,1.464a42.3,42.3,0,0,1-5.435,3.138c-1.308.3-2.61.632-3.889,1.038a49.291,49.291,0,0,0-6.733,2.681c-.546.267-1.078.568-1.612.865l-.2.03a2.55,2.55,0,0,1-1.981-.842c.259-1.006.488-2.016.71-3.028l.133-.108c1.211-2.278,2.5-4.548,3.908-6.714.286-.442.607-.859.909-1.29a11.435,11.435,0,0,1,1.7-.727c1.094-.336,2.223-.542,3.325-.848a23.754,23.754,0,0,0,6.413-3.036c1.062-.682,2.085-1.418,3.078-2.192a7.733,7.733,0,0,0,.993-.236c.72-.234,1.42-.534,2.118-.826,1.359-.569,2.676-1.223,3.987-1.889a27.977,27.977,0,0,0,3.273-2.006c-.215.56-.422,1.124-.644,1.681m1.369-3.568c-.2.176-.4.352-.605.512a41.9,41.9,0,0,1-3.746,2.537,24.541,24.541,0,0,1-3.972,1.951c-.34.133-.682.253-1.027.371.264-.231.546-.441.8-.678,2.062-1.9,4.2-3.713,6.385-5.469,1.193-.957,2.362-1.948,3.513-2.957q-.667,1.871-1.351,3.734m4.928-16.942q-.687,4.083-1.754,8.09c-.259.718-.515,1.44-.771,2.16-.418.333-.82.685-1.222,1.041-1.1.972-2.18,1.961-3.256,2.956-2.109,1.949-4.13,3.981-6.307,5.857-1.306,1.125-2.627,2.278-4,3.358l-.092.037-.161.165a22.9,22.9,0,0,1-8,4.32c-1.213.327-2.462.518-3.664.891l-.118.038c.134-.153.271-.3.406-.457.347-.319.7-.635,1.039-.957,1.6-1.509,3.167-3.063,4.7-4.64a18.09,18.09,0,0,0,2.754-2.606.352.352,0,0,0,.055-.349c.223-.241.456-.472.678-.714a162.149,162.149,0,0,0,14.417-17.992c.615-.9,1.2-1.823,1.794-2.735l.206-.147c.4-.634.873-1.235,1.32-1.84a6.75,6.75,0,0,1,1.41-1.449,2.245,2.245,0,0,1,.807-.375l.191-.044.1-.005.174.005.011,0c-.178,1.8-.425,3.6-.726,5.39" transform="translate(-11.975 -4.999)" fill="#fff"/>
    <path id="Trazado_7448" data-name="Trazado 7448" d="M189.059,337.978c2.75-7.555,1.436-16.271-2.669-23.081a32.992,32.992,0,0,0-17.948-13.879c-.7-.232-1.407-.433-2.12-.62.264-.744.508-1.5.716-2.26a58.363,58.363,0,0,0,1.708-13.349,184.828,184.828,0,0,0-.633-25.132,92.577,92.577,0,0,0-5.391-24.025,65.19,65.19,0,0,0-5.427-10.985c-1.942-3.119-4.627-6.816-8.816-6.076-2.111.372-3.909,1.754-5.578,3.012q-2.364,1.782-4.583,3.745a72.994,72.994,0,0,0-8.255,8.636,74.2,74.2,0,0,0-11.993,21.11c-3.153,8.58-4.807,17.611-6.25,26.609-1.54,9.6-3,19.219-4.5,28.829q-.468,3.011-.935,6.023c-.081-.134-.154-.275-.242-.4a3.317,3.317,0,0,0-2.14-1.5c-.213-1.134-.629-2.262-.93-3.361-.383-1.4-.737-2.81-1.08-4.221q-1.027-4.233-1.861-8.512c-.351-1.794-.662-3.6-.957-5.4a35.717,35.717,0,0,0,.573-4.627c.083-.812.163-1.622.231-2.436a13.467,13.467,0,0,0,.121-2.126c-.077-1-.851-2.011-1.955-1.483-1.387.663-.973,2.457-.815,3.664.289,2.21.633,4.412,1,6.612,0,.213-.011.426,0,.638a.384.384,0,0,0,.155.288q.99,5.76,2.312,11.454.609,2.6,1.291,5.188c.236.893.469,1.788.711,2.68.144.525.275,1.059.446,1.577a1.591,1.591,0,0,0-1.392.736c-2.636-3.867-5.3-7.724-8.145-11.436-1.565-2.038-3.181-4.037-4.866-5.977a52.083,52.083,0,0,0-5.245-5.476c-2.042-1.751-4.617-3.027-7.364-2.463a.531.531,0,0,0-.317.777,9.9,9.9,0,0,0,8.708,4.288.526.526,0,0,0,.2-.053c1.108,1.122,2.163,2.307,3.2,3.477,3.314,3.728,6.43,7.668,9.4,11.675,1.408,1.9,2.793,3.82,4.186,5.732a2.194,2.194,0,0,0-.087.554,2.162,2.162,0,0,0,0,.6,2.733,2.733,0,0,0,.068.559,6.391,6.391,0,0,0,.3.907q-2.191-.851-4.378-1.706c-.015-.008-.034-.013-.051-.02-4.846-1.9-9.676-3.828-14.465-5.878-7.265-3.111-14.5-6.3-21.858-9.179a174.127,174.127,0,0,0-22.124-7.2,110.617,110.617,0,0,0-11.511-2.18,49.637,49.637,0,0,0-5.387-.533,9.384,9.384,0,0,0-4.615.873c-3.2,1.686-3.528,5.712-2.428,8.788a31.567,31.567,0,0,0,2.412,4.863q1.263,2.222,2.644,4.374a84.444,84.444,0,0,0,13.135,15.944,68.186,68.186,0,0,0,17.29,11.917,60.067,60.067,0,0,0,20.72,5.716,50.8,50.8,0,0,0,20.115-2.322c.909-.3,1.805-.633,2.694-.984a6.564,6.564,0,0,0-.425,1.873,10.937,10.937,0,0,0,1.016,4.948c.674,1.625,1.474,3.2,2.3,4.75,1.679,3.137,3.549,6.168,5.462,9.166,1.85,2.9,3.772,5.75,5.821,8.51a92.013,92.013,0,0,0,6.5,7.874c1.747,1.875,3.916,4.171,6.568,4.521a63.1,63.1,0,0,0,7.81,4.649c.815.442,1.854.774,2.588-.005a2,2,0,0,0,.23-2.192,10.647,10.647,0,0,0-1.894-2.1,8.648,8.648,0,0,1-1.4-2.228,9.025,9.025,0,0,1-.737-3,9.78,9.78,0,0,1,.02-1.547c.012-.138.026-.271.036-.4a44.863,44.863,0,0,0,.2-10.666A79.826,79.826,0,0,0,124.4,348.01a2.058,2.058,0,0,0,1.1-.3,3.507,3.507,0,0,0,1.4-2.836,7.63,7.63,0,0,0-.693-3.569,24.374,24.374,0,0,0-1.962-3.617c3.619,1.852,7.355,3.489,11.066,5.141,4.341,1.932,8.668,3.9,13.032,5.783,5.642,2.435,11.84,4.764,18.06,4.97,3.77,1.237,6.872,4.144,10.625,5.462a10.488,10.488,0,0,0,3.42.638,5.46,5.46,0,0,0,3.055-.722,2.031,2.031,0,0,0,.791-2.5,3.771,3.771,0,0,0-2.3-1.854,6.449,6.449,0,0,1-2.8-1.925,5.653,5.653,0,0,1-.962-1.863,24.36,24.36,0,0,0,10.832-12.835M19,300.515l0-.009,0-.034.012,0c-.005.015-.008.032-.013.047M182.271,315.1c.257.1.526.185.768.293a6.647,6.647,0,0,1,1.314.773,7.415,7.415,0,0,1,1.99,2.41,10.665,10.665,0,0,1,1.057,3.956.441.441,0,0,0,0,.233l.021.091a21.367,21.367,0,0,1,.015,2.607,3.717,3.717,0,0,1-.395.883,3.857,3.857,0,0,1-2.1,1.657c-.081.013-.159.035-.24.045a15.643,15.643,0,0,1-3.591-.135q-1.913-.216-3.827-.445c-5.168-.615-10.329-1.274-15.494-1.913-2.665-.33-5.352-.742-8.038-.863-.114-.175-.228-.351-.355-.515a8.677,8.677,0,0,0-1.743-1.652,12.689,12.689,0,0,1,1.82-1.406,9.357,9.357,0,0,1,2.83-1.045l.013-.005c2.009-.383,4.018-.766,6.024-1.162q4-.788,7.986-1.6c2.525-.512,5.068-.97,7.579-1.543a9.067,9.067,0,0,0,2.268-.814,8.138,8.138,0,0,1,2.09.15m-52.254-35.848c-1.274,1.288-2.534,2.583-3.674,3.991a48.023,48.023,0,0,0-2.99,4.186,32.851,32.851,0,0,0-2.117,3.748c-.076-.434-.155-.868-.256-1.29-.282-1.194-.646-2.366-1.035-3.529q-.276-.83-.586-1.646a5.674,5.674,0,0,0-.432-.98,70.526,70.526,0,0,1,6.6-10.385c1.55-2.015,4.975-6.89,7.911-5.27a.653.653,0,0,0,.436.393l.127.007a4.159,4.159,0,0,1,.384.378,5.375,5.375,0,0,1,.562.782.461.461,0,0,0-.229.458c.293,3.695-2.273,6.7-4.7,9.156M121.1,299.136c.08-.46.166-.928.241-1.4l.038-.139-.009-.055c.067-.436.124-.874.152-1.306a21.515,21.515,0,0,0-.159-4.15c.722-1.346,1.446-2.688,2.274-3.975A33.68,33.68,0,0,1,127,283.777c2.314-2.558,5.165-4.714,7.049-7.634.186-.188.366-.38.553-.567.343-.342.667-.705.989-1.069a.442.442,0,0,0,.368-.357l.026-.085.034-.038c.105-.118.216-.24.325-.36.02.089.043.182.063.27a45.61,45.61,0,0,1,1.034,6.656,1.726,1.726,0,0,0,.012.336l.013.066a46.657,46.657,0,0,1,0,6.5,23.74,23.74,0,0,1-2.671,4.028,24.027,24.027,0,0,1-2.005,2.127,19.094,19.094,0,0,0-5.627,5.183,49.436,49.436,0,0,0-3.741,8.013,68.625,68.625,0,0,1-4.514,9.007c-.949,1.591-1.906,3.178-2.89,4.749-.771,1.232-1.64,2.426-2.379,3.686-.461-.484-.917-.975-1.392-1.445-.259-.257-.54-.533-.83-.812.031-.056.055-.115.086-.173.005-.007.013-.005.018-.014.25-.457.471-.925.684-1.4.408-.853.8-1.715,1.2-2.573.366-.8.72-1.6,1.124-2.378s.87-1.511,1.22-2.319q.889-2.05,1.706-4.129a41.769,41.769,0,0,0,2.918-6.918,25.481,25.481,0,0,0,.734-3m-5.152,22.431c.858-1.423,1.732-2.834,2.569-4.271,1.649-2.834,3.2-5.748,4.588-8.719,1.285-2.744,2.216-5.709,3.871-8.264a20.943,20.943,0,0,1,6.06-5.671c1.217-.833,2.449-1.646,3.606-2.562.121-.1.243-.193.366-.292a46.655,46.655,0,0,1-2.984,10.659.608.608,0,0,0-.161.384c-.508,1.195-1.062,2.37-1.673,3.519A48.154,48.154,0,0,1,116.2,323.842c-.609.4-1.2.827-1.8,1.241-.123-.132-.25-.258-.373-.388.694-1.007,1.3-2.085,1.927-3.128m17.008-6.537a92.651,92.651,0,0,1,17.266-7.147c2.092-.634,4.215-1.1,6.344-1.55a4.17,4.17,0,0,1,.582.008,3.773,3.773,0,0,1,.844.227c-.127.129-.249.262-.378.389a38.558,38.558,0,0,1-3.24,2.844,30.975,30.975,0,0,1-7.668,4.422,41.353,41.353,0,0,1-4.661,1.536l-.111.071c-1.491.32-2.964.724-4.439,1.124A71.291,71.291,0,0,0,124.736,322q-3.007,1.481-5.935,3.112a1.716,1.716,0,0,1-.137-.951,130.533,130.533,0,0,1,14.3-9.133M130.174,320a60.781,60.781,0,0,1,6.3-2.253,22.057,22.057,0,0,1,3.244-.8c1.164-.155,2.335-.312,3.506-.4a31.531,31.531,0,0,1,6.11.064q-1.2.764-2.407,1.5c-1.779,1.093-3.612,2.129-5.493,3.072-.167.061-.331.128-.5.188q-2.672.966-5.388,1.805c-3.281,1.014-6.6,1.915-9.921,2.777a32.066,32.066,0,0,1-4.7.051c-.682-.045-1.5-.045-1.95-.618,3.713-1.844,7.369-3.8,11.2-5.395m15.073-4.676a43.938,43.938,0,0,0,5.269-2.165,37.9,37.9,0,0,0,7.435-4.817q.57-.469,1.118-.963a2.537,2.537,0,0,1,.249.377,6.26,6.26,0,0,1-.375.931,10.873,10.873,0,0,1-3.3,3.591c-1.537,1.162-3.13,2.261-4.746,3.322a21.48,21.48,0,0,0-5.648-.276m33.729-6.592a4.455,4.455,0,0,1-.317,3.905,4.34,4.34,0,0,1-.408.52,6.1,6.1,0,0,1-.867.7,8.338,8.338,0,0,1-1.656.831q-3.092.632-6.187,1.256-6.9,1.4-13.781,2.88h-.016a12.777,12.777,0,0,1-3.2,0,1.565,1.565,0,0,1-.715-.332,1.077,1.077,0,0,1,.23-.527,40.63,40.63,0,0,0,9.777-9.182,31.662,31.662,0,0,0,3.894-6.862,33.619,33.619,0,0,1,13.242,6.8m-14.489-15.518a12.916,12.916,0,0,1-1.117,3.924,15.286,15.286,0,0,1-4.706,5.708,7.616,7.616,0,0,0-2.107.281c-1.434.383-2.839.927-4.241,1.417q-2.18.76-4.347,1.563a129.032,129.032,0,0,0-13.99,6.093c-.365.141-.728.284-1.1.418a2.5,2.5,0,0,1-1.611.238c-.414-.148-.76-.649-.488-1.06l.039-.169c.511-.735,1.01-1.48,1.475-2.245a46.9,46.9,0,0,0,3.134-6.135c6.463-3.522,12.843-7.2,19.274-10.784,1.606-.894,3.2-1.824,4.824-2.677a6.473,6.473,0,0,1,2.466-.8.453.453,0,0,0,.734.264l.172-.166a2.084,2.084,0,0,1,.761.383c1.05.86.961,2.542.822,3.75m-.587-14.047a8.358,8.358,0,0,1-2.035,6.347,16.984,16.984,0,0,1-3.977,3.5c-.3.171-.591.342-.881.5q-2.507,1.409-5.016,2.812-1.665.852-3.347,1.665c-1.415.682-2.838,1.345-4.258,2.016-1.115.527-2.271,1.038-3.346,1.661a2.5,2.5,0,0,1-2.331-.976l-.088-.14a2.964,2.964,0,0,1-.135-.3,3.742,3.742,0,0,1-.208-.973l0-.133a21.813,21.813,0,0,1,2.046-5.477,29.23,29.23,0,0,1,3.853-5.329A33.635,33.635,0,0,1,156,276.391c1.265-.539,2.556-1.012,3.852-1.472.235-.083.472-.161.708-.241.35.234.719.418,1.069.667a5.278,5.278,0,0,1,1.07,1.043,6.253,6.253,0,0,1,1.2,2.784m-5.435-23.812a12.513,12.513,0,0,0,1.653.845,3.734,3.734,0,0,1,1.251,1.45,10.2,10.2,0,0,1,1.037,4.052,13.533,13.533,0,0,1-.779,5.373c-.112.225-.23.447-.358.663a16,16,0,0,1-4.794,4.846c-2.014,1.4-4.195,2.525-6.305,3.762a36.517,36.517,0,0,0-3.087,1.98c-.964.7-1.836,1.512-2.773,2.248a5.784,5.784,0,0,1-3.4,1.458,2.8,2.8,0,0,1-1.2-1.334,12.848,12.848,0,0,1-.883-2.4c-.021-.177-.036-.355-.06-.53a.664.664,0,0,0,.057-.369,16.231,16.231,0,0,1-.06-4.1,13.638,13.638,0,0,1,.5-2.228,16.19,16.19,0,0,1,1.342-3.038c.675-.955,1.4-1.882,2.117-2.792a31.175,31.175,0,0,1,3.533-3.776,26.929,26.929,0,0,1,8.956-5.5,13.4,13.4,0,0,1,3.182-.731ZM141.85,238.939a25.578,25.578,0,0,1,1.888-3.408,21.8,21.8,0,0,1,2.356-3.112,20.394,20.394,0,0,1,5.054-4,13.789,13.789,0,0,1,3.345,3.314q.176.262.359.521a16.765,16.765,0,0,1,1.818,3.672,19.43,19.43,0,0,1,.853,3.508c0,.451-.006.9-.036,1.352a18.507,18.507,0,0,1-.665,3.852,20.543,20.543,0,0,1-3.613,7.025,25.441,25.441,0,0,1-2.182,2.444c-.111.087-.227.169-.337.257-.582.464-1.148.947-1.71,1.434a53.453,53.453,0,0,0-8.271,7.535,35.692,35.692,0,0,0-2.949,3.9,1.012,1.012,0,0,1-1.169.143c-.824-.526-.714-1.893-.724-2.73-.012-1.037.022-2.08.109-3.114.067-.8.227-1.616.271-2.424a163.063,163.063,0,0,1,5.241-20.023.272.272,0,0,0,.361-.146m-5.717-2.583a3.95,3.95,0,0,0,.544-1.453c.446-.432.893-.862,1.354-1.277a5.215,5.215,0,0,1,1.055-.579,2.745,2.745,0,0,1,1.271-.2,1.253,1.253,0,0,0,.621.21,1.14,1.14,0,0,1,.62,1.088q-2.678,7.4-4.637,15.027-1.151,4.509-2.028,9.08a26.858,26.858,0,0,1-2,3.807,33.674,33.674,0,0,1-4.144,5.124,28.733,28.733,0,0,0,1.354-4.1,47.172,47.172,0,0,0,1.17-5.7,51.567,51.567,0,0,0,.658-5.711c.039-1.155.016-2.3-.052-3.453.628-2.166,1.36-4.305,2.1-6.431q.624-1.791,1.329-3.553.379-.943.779-1.877m-4.335,4.053a46.28,46.28,0,0,1,3.427-4.033c-.186.455-.372.911-.55,1.369q-.721,1.857-1.36,3.745c-.595,1.755-1.071,3.534-1.5,5.33-.032-.321-.06-.641-.1-.962-.129-1.05-.31-2.094-.528-3.129-.078-.365-.18-.725-.277-1.085.293-.414.585-.829.889-1.235m-13.991,34.4a133.818,133.818,0,0,1,5.583-19,67.611,67.611,0,0,1,6.586-12.8c.136.77.275,1.539.38,2.315.253,1.864.419,3.743.487,5.625a38.932,38.932,0,0,1-.054,5.632,39.75,39.75,0,0,1-1.06,5.639c-.26,1-.558,1.986-.884,2.965-.336,1.012-.754,1.993-1.03,3.022l-.159.165c-.19.181-.373.366-.548.551a50.907,50.907,0,0,0-4.1,5.112q-1.943,2.68-3.626,5.534-.688,1.167-1.332,2.36a8.848,8.848,0,0,1-1.036.845,7.493,7.493,0,0,1-1.113.681c.619-2.883,1.247-5.765,1.905-8.639m-3.887,20.858a78.554,78.554,0,0,1,4.086-10.086c.1.278.189.556.287.833.342.976.663,1.958.954,2.952a27.084,27.084,0,0,1,1.262,6.139,17.758,17.758,0,0,1,.006,2.912c-.039.345-.1.69-.15,1.034-.357.976-.7,1.961-1.063,2.932-.625,1.646-1.3,3.273-1.95,4.909-.66,1.664-1.344,3.319-2.03,4.973-.692,1.671-1.19,3.392-1.937,5.045-.344.76-.707,1.513-1.068,2.267-.379.691-.76,1.381-1.1,2.1a.17.17,0,0,0,.043.2l0,.01a13.212,13.212,0,0,0-1.669-1.375,88.789,88.789,0,0,1,4.334-24.843m-6.335,41.459c.014-.3.037-.606.054-.909a6.943,6.943,0,0,1,3.449-4.342c.222.211.446.419.66.636.49.5.972,1,1.427,1.529a20.584,20.584,0,0,1,2.51,3.6,25.744,25.744,0,0,1,1.6,3.6c.118.37.222.744.328,1.118.051.254.106.509.15.765a26.15,26.15,0,0,1,.386,5.627A16.168,16.168,0,0,1,115,357.9a6.137,6.137,0,0,1-1.02,1.076.378.378,0,0,0-.384.249,2.086,2.086,0,0,1-.352.167,1.327,1.327,0,0,1-1.469-.674,9.79,9.79,0,0,1-1.017-2.125q-.509-1.291-.939-2.611a46.387,46.387,0,0,1-2.145-10.674,48.083,48.083,0,0,1-.092-6.188m-11.106-19.19c.966.36,1.929.731,2.9,1.076,1.136.4,2.282.767,3.434,1.112.114.161.229.325.352.478a3.467,3.467,0,0,0,1.905,1.236l.107.072.158.058a5.383,5.383,0,0,0,1.1,3.01,53.621,53.621,0,0,1-30.785,1.816c-.747-.18-1.492-.379-2.235-.591,1.183-.874,2.3-1.834,3.529-2.646a34.86,34.86,0,0,1,4.5-2.472,36.1,36.1,0,0,1,4.992-1.675,35.185,35.185,0,0,1,4.925-1.122,40.212,40.212,0,0,1,5.118-.353m1.441,11.074.033-.005c-.009.019-.019.039-.029.059v0a.291.291,0,0,0,0-.052m-.847.144.112-.018c-.035.078-.068.156-.1.235l.005-.108a.365.365,0,0,0-.016-.108M78.559,329c-.012.006-.026.006-.038.013,0-.008-.008-.014-.011-.022l.049.009m-5.733-2.972A46.409,46.409,0,0,1,60.308,320.3a22.767,22.767,0,0,1-5.39-4.843,4.412,4.412,0,0,1,.559-1.428c3.414,3.145,8.1,4.506,12.656,4.8a45.573,45.573,0,0,0,8.412-.344c2.791-.336,5.582-.693,8.373-1.033,1.6-.2,3.193-.249,4.8-.323.33-.014.659-.012.988-.02-1.34.23-2.666.533-3.961.884a20.031,20.031,0,0,0-2.548.851c-.8.336-1.545.766-2.323,1.147a43.518,43.518,0,0,0-4.633,2.575,22.289,22.289,0,0,0-4.418,3.457m.594-17.535.335.141c-.142-.02-.286-.029-.428-.048a1.136,1.136,0,0,0,.093-.093m4.351,1.876.056-.005.031.013c4.452,1.889,8.912,3.769,13.407,5.554-4.439.13-8.825,1.2-13.221,1.776-5.129.677-10.437,1.072-15.471-.4a19.311,19.311,0,0,1-6.89-3.6,5.973,5.973,0,0,1,1.214-1.264,11.053,11.053,0,0,1,4.371-1.8,46.232,46.232,0,0,1,7.725-1.063c2.934.157,5.849.475,8.778.783m-9.306-3.96.1.041-.1-.012c0-.009,0-.019,0-.029m-1.1,1.655c.007.018.019.034.027.052l-.108,0c.027-.018.055-.032.082-.05M28.844,294.869a24.641,24.641,0,0,1,3.261.164,10.912,10.912,0,0,0,3.286.294,154.171,154.171,0,0,1,21.266,6.384c3.162,1.174,6.3,2.423,9.415,3.705a7.353,7.353,0,0,1-2.185,1.932,8.648,8.648,0,0,1-1.94.816c-1.526.07-3.051.183-4.57.353a14.789,14.789,0,0,0-4.373.8,2.624,2.624,0,0,0-1.132.937q-.271-.064-.548-.127c-.648-.15-1.291-.318-1.937-.478-1.206-.3-2.414-.578-3.61-.917a70.238,70.238,0,0,1-7.142-2.426,68.728,68.728,0,0,1-6.729-3.137,43.037,43.037,0,0,1-6.055-3.726,9.547,9.547,0,0,1-3.13-3.728,28.78,28.78,0,0,1,6.123-.849M52.9,315.07c-.056-.022-.115-.038-.173-.058.03-.018.062-.036.092-.055.026.04.055.075.081.113m-20.2,8.735c.007-.014.011-.03.017-.044l.006.068-.024-.025m-4.322-7.786c-1.352-1.561-2.815-3.032-4.2-4.568a29.616,29.616,0,0,1-2.583-5.672,15.262,15.262,0,0,1-.7-3.738,13.7,13.7,0,0,1,.026-1.844c.006-.07.019-.141.03-.212a9.852,9.852,0,0,1,3.522.409,29.471,29.471,0,0,0,3.8,2.592,1.306,1.306,0,0,0,.486.28c.3.173.6.349.9.518a65.664,65.664,0,0,0,14.411,6.032c1.4.4,2.816.738,4.239,1.036.715.15,1.436.258,2.16.358.335.047.679.1,1.023.147a3,3,0,0,0,.161,1.329,9.317,9.317,0,0,0,.641,1.377l-.109.051c-.132.045-.265.087-.4.144l-1.638.719c-.977.429-1.955.855-2.947,1.253-1.143.458-2.3.881-3.48,1.253-.6.148-1.205.281-1.818.387a1.721,1.721,0,0,0-.617.092,22.757,22.757,0,0,1-6.185.1,19.017,19.017,0,0,1-6.712-2.044m22.35,1.026c-.168.01-.336.02-.5.038-.14.014-.275.046-.413.065a8.256,8.256,0,0,1,.828-.177.492.492,0,0,0,.085.074m-7.086,15.7c.091.014.183.018.274.03a.707.707,0,0,0,.033.167c-.1-.066-.205-.13-.307-.2m-2.688-1.867c-.939-.687-1.866-1.389-2.768-2.124-.812-.661-1.6-1.349-2.387-2.045a.457.457,0,0,0,.085-.651,4.686,4.686,0,0,1-.845-2.849l.014-.141a2.3,2.3,0,0,1,.2-.314c1.023-1.269,2.779-1.562,4.294-1.782a28.494,28.494,0,0,0,5.123-1.241,30.279,30.279,0,0,1,5.019-1.444,11.441,11.441,0,0,1,2.676-.088,12.175,12.175,0,0,1,2.714.617.3.3,0,0,0,.1.011,17.313,17.313,0,0,1,1.362,1.248,6.28,6.28,0,0,1,2.036,5.5,12.41,12.41,0,0,1-3.579,2.767.321.321,0,0,0-.159.209,20.585,20.585,0,0,1-9.711,2.814,16.155,16.155,0,0,1-4.179-.492m5.81,3.8a.407.407,0,0,0,.048-.011c0,.015.01.031.013.046l-.061-.035m11.576,4.386c-.752.024-1.511.018-2.265.051l-.051-.017a61.319,61.319,0,0,1-8.233-3.836.386.386,0,0,0-.038-.2c-.457-.929.2-1.761.965-2.281.474-.156.938-.338,1.394-.541a30.392,30.392,0,0,0,9.087-4.466c.665-.464,1.314-.951,1.962-1.438a9.729,9.729,0,0,1,4.175-.3q3.079,1,6.157,2l4.253,1.386c.107.035.25.08.408.132a1.27,1.27,0,0,1,.163.386,3.383,3.383,0,0,1-.236,1.818,7.131,7.131,0,0,1-1.934,2.963.392.392,0,0,0-.117.2c-.311.169-.62.338-.935.5a34.284,34.284,0,0,1-11.457,3.42c-1.095.126-2.2.192-3.3.226m5.921,2.46c.01-.01.025-.013.036-.023a.828.828,0,0,0,.229.078c-.088-.018-.177-.035-.265-.054m2.109-1.02a1.673,1.673,0,0,1,.216-.418,3.417,3.417,0,0,1,1.142-.911,34.209,34.209,0,0,0,10.72-5.133c.745-.536,1.463-1.11,2.162-1.7a20.61,20.61,0,0,1,3.328-1.254c1.368-.282,2.74-.538,4.122-.726.566-.042,1.132-.07,1.7-.065a.525.525,0,0,0,.384-.156c.835-.064,1.671-.109,2.509-.115.193,0,.387.005.581.012a25.528,25.528,0,0,0-3.093,1.753c-1.748,1.129-3.413,2.378-5.112,3.578a32.266,32.266,0,0,1-5.439,3.255A31.36,31.36,0,0,1,73,340.738a30.13,30.13,0,0,1-3.449.464.391.391,0,0,0-.215-.192,10.6,10.6,0,0,0-2.85-.5c-.039,0-.078,0-.117,0m9.07,2.281a52.717,52.717,0,0,1-8.687-.778c-.005-.01-.008-.02-.014-.031l.136-.005a1.523,1.523,0,0,0,.5.111,11.041,11.041,0,0,0,1.8-.014,28.531,28.531,0,0,0,9.617-2.316,36.107,36.107,0,0,0,5.581-3.19l.136-.1c-1.486,1.25-2.986,2.483-4.556,3.613a25.848,25.848,0,0,1-2.3,1.474,23.357,23.357,0,0,0-2.222,1.232m13.628-4.115A23.9,23.9,0,0,1,80,342.409a27.94,27.94,0,0,1-3.442.364c.375-.173.738-.382,1.08-.577.69-.393,1.347-.834,2-1.285,1.306-.9,2.545-1.9,3.765-2.913,1.272-1.059,2.513-2.162,3.839-3.154a35.48,35.48,0,0,1,4.047-2.608A17.709,17.709,0,0,1,93.7,331.09a15.744,15.744,0,0,1,1.889-.538,5.65,5.65,0,0,1,.055.845,6.5,6.5,0,0,1-.117,1.043c-.322.392-.619.816-.935,1.192-.541.647-1.092,1.264-1.691,1.859a26.071,26.071,0,0,1-3.825,3.182m4.429-.453c-.008-.006-.013-.014-.021-.021.117.013.235.018.354.026-.11,0-.222.008-.332,0m-.014-.885a34.62,34.62,0,0,0,4.6-5.141,17.232,17.232,0,0,0,2.186-3.663,52.217,52.217,0,0,0,6.24-1.836,2.347,2.347,0,0,1,.617,1,2.835,2.835,0,0,1-.021,1.487,6.583,6.583,0,0,1-1.973,2.8,35.346,35.346,0,0,1-4.823,3.719,19.212,19.212,0,0,1-3.149,1.061c-1.214.3-2.455.369-3.681.568m5.046,12.932a8.953,8.953,0,0,1-1.632-2.2c-.3-.5-.608-1.011-.888-1.536v-.023c-.055-.317-.135-.628-.184-.946a11.206,11.206,0,0,1-.122-1.941,13.079,13.079,0,0,1,.645-3.655,47.325,47.325,0,0,0,7.388-4.181,7.411,7.411,0,0,0,.535,1.236,10.988,10.988,0,0,1,.052,7.675,11.509,11.509,0,0,1-2.237,3.635,12.255,12.255,0,0,1-1.566,1.453c-.553.43-1.331,1.051-1.989.483m9.324,7.148a15.515,15.515,0,0,1-.81,3.695,9.413,9.413,0,0,1-.714,1.719,1.534,1.534,0,0,1-.846.686q-1.955-2.927-3.807-5.917a6.093,6.093,0,0,1,.121-4.5,22.212,22.212,0,0,0,2.138-2.979,3.138,3.138,0,0,1,1.081-.7l.2.2c.183.164.373.321.556.483a6.666,6.666,0,0,1,.5.5c.083.092.164.187.242.283l.106.132v0l.06.081a8.045,8.045,0,0,1,.736,1.251c.048.1.093.194.137.292.061.307.117.614.164.923a16.435,16.435,0,0,1,.132,3.854m7,17.892-.088.087a9.765,9.765,0,0,1-.812-.594c-.97-1.12-1.91-2.266-2.824-3.423-.746-.944-1.468-1.91-2.18-2.882a.55.55,0,0,0-.053-.518,6.382,6.382,0,0,1-.92-2.292c-.015-.092-.018-.185-.029-.277.215-1.37.428-2.739.633-4.111a2.912,2.912,0,0,1,.395-.651,1.972,1.972,0,0,1,.927-.622,6.911,6.911,0,0,1,.774-.078l.117.047a3.011,3.011,0,0,0,1.327.919,6.018,6.018,0,0,1,.916,1.032c.113.167.209.341.309.514.688,1.936,1.339,3.884,1.843,5.876a22.388,22.388,0,0,1,.629,3.768c.086,1.1.071,2.517-.962,3.205m12.12,3.863c.015.072.021.146.039.219s.047.147.066.222c-.062-.1-.117-.2-.18-.293.025-.049.051-.1.075-.147m-2.616-17.527c.06.173.111.348.17.521.237,1.038.462,2.078.652,3.125a29.574,29.574,0,0,1,.666,5.786,6.25,6.25,0,0,1-1.688,4.581,3.662,3.662,0,0,1-3.712.962c-1.5-.618-2.029-2.5-2.5-3.89q-1.115-3.307-1.964-6.694c-.467-1.844-.861-3.705-1.308-5.552.084-.056.168-.113.248-.175a11.21,11.21,0,0,0,3.149-4.453,19.529,19.529,0,0,0,1.418-5.334,2.588,2.588,0,0,1,.627-.9l.092.055a3.112,3.112,0,0,1,.538,1.143c.365.948.688,1.912.981,2.884.144.475.255.964.426,1.43a9.447,9.447,0,0,0,.349.9c.02.087.042.173.063.258.153.621.353,1.232.557,1.838.4,1.179.832,2.346,1.237,3.522m5.055-24.1a10.725,10.725,0,0,1-4.253-1.014,11.791,11.791,0,0,1-3.3-2.484l-.149-.075q-1.018-1.421-2.1-2.8a5.544,5.544,0,0,1,.576-1.8l.154-.147c3.521-.574,7.016-1.337,10.469-2.232a84.133,84.133,0,0,0,12.786-4.318c.83-.365,1.65-.753,2.463-1.158l.109.053a.319.319,0,0,0,.328.2l.081-.006c.12.049.241.1.375.149.575.225,1.145.463,1.7.731a10.967,10.967,0,0,1,2.984,1.989,5.078,5.078,0,0,1,.891,3.258c-.259,2.789-2.975,4.449-5.275,5.477a50,50,0,0,1-8.76,2.823,33.44,33.44,0,0,1-9.083,1.357m30.45,13.182a9.445,9.445,0,0,1-1.161-.147c-.212-.041-.419-.087-.634-.111h-.134a68.856,68.856,0,0,1-6.842-2.442c-4.143-1.7-8.214-3.591-12.305-5.413a.6.6,0,0,0-.231-.317,4.9,4.9,0,0,1-1.694-1.728c.217-.206.42-.437.629-.627a17.032,17.032,0,0,1,1.308-1.119,9.92,9.92,0,0,1,2.947-1.5,9.4,9.4,0,0,1,3.6-.386,9.153,9.153,0,0,1,1.631.31,148.883,148.883,0,0,1,17.408,10.829.475.475,0,0,0-.005.307c.458,1.386-1.209,2.067-2.27,2.25a9.658,9.658,0,0,1-2.246.1m22.264-6.187a6.746,6.746,0,0,1-1.312,1.888,10.376,10.376,0,0,1-3.967,2.3,13.777,13.777,0,0,1-4.952.9,9.318,9.318,0,0,1-4.36-1.348,27.558,27.558,0,0,1-4.125-3.04.23.23,0,0,0-.351.052c-.512-.355-1.023-.712-1.54-1.059a106.962,106.962,0,0,0-9.249-5.547l-.151-.121c-.331-.243-.674-.473-1.01-.71a5.831,5.831,0,0,1-1.449-1.206c-.039-.1-.082-.233-.11-.341a3.758,3.758,0,0,1-.082-.4,3.615,3.615,0,0,1-.018-.366,1.917,1.917,0,0,1,.424-.758,7.4,7.4,0,0,1,.637-.592,8.572,8.572,0,0,0,3.363-2.354c8.688,2.2,17.345,4.594,25.832,7.483.11.038.225.075.337.111a12.47,12.47,0,0,1,.963.939,5.443,5.443,0,0,1,.851,1.511,5.7,5.7,0,0,1,.271,2.666m-6.352-8.1c-4.7-1.461-9.443-2.777-14.234-3.914-1.388-.33-2.781-.62-4.178-.9l-.015-.015a6.757,6.757,0,0,0-.849-.5,4.886,4.886,0,0,1-1.326-1.232,3.589,3.589,0,0,1-.252-.45,5.845,5.845,0,0,0,.051-1.3,8.936,8.936,0,0,1,3.725-.776c.265-.021.527-.027.791-.039l.138.075c.552-.034,1.107-.067,1.662-.1,1.019.024,2.036.085,3.066.144a.341.341,0,0,0,.307-.144c.495.026.989.048,1.484.089.16.013.321.031.481.046q1.435.192,2.868.381c2.708.359,5.411.754,8.115,1.139,1.635.232,3.339.59,5.032.7a.337.337,0,0,0,.228.063,3.79,3.79,0,0,1,2.959.987,5.215,5.215,0,0,1,1.4,3.268,7.507,7.507,0,0,1-.229,2.561l-.035.1a5.567,5.567,0,0,1-1.2,1.928,3.345,3.345,0,0,1-1.848.953,6.327,6.327,0,0,0-1.406-.825c-2.163-.916-4.485-1.541-6.725-2.238" transform="translate(5.027 48.091)" fill="#fff"/>
  </g>
</svg>
