<svg id="Grupo_96" data-name="Grupo 96" xmlns="http://www.w3.org/2000/svg" xmlns:xlink="http://www.w3.org/1999/xlink" width="108" height="108.691" viewBox="0 0 108 108.691">
  <defs>
    <clipPath id="clip-path">
      <rect id="Rectángulo_104" data-name="Rectángulo 104" width="108" height="108.691" fill="#fff"/>
    </clipPath>
  </defs>
  <g id="Grupo_95" data-name="Grupo 95" clip-path="url(#clip-path)">
    <path id="Trazado_3582" data-name="Trazado 3582" d="M82.647,0H25.353A25.264,25.264,0,0,0,0,25.174V83.518a25.234,25.234,0,0,0,21.671,24.906V52.8h.039A32.015,32.015,0,1,1,34.546,79.881v28.809h48.1A25.264,25.264,0,0,0,108,83.518V25.174A25.264,25.264,0,0,0,82.647,0m5.484,27.143a6.572,6.572,0,1,1,6.619-6.572,6.6,6.6,0,0,1-6.619,6.572" fill="#fff"/>
    <path id="Trazado_3583" data-name="Trazado 3583" d="M92.128,109.33A15.968,15.968,0,1,0,76.047,93.363,16.025,16.025,0,0,0,92.128,109.33" transform="translate(-38.337 -39.017)" fill="#fff"/>
    <path id="Trazado_3584" data-name="Trazado 3584" d="M92.128,109.33A15.968,15.968,0,1,0,76.047,93.363,16.025,16.025,0,0,0,92.128,109.33" transform="translate(-38.337 -39.017)" fill="#fff"/>
  </g>
</svg>
