<svg width="208" height="838" viewBox="0 0 208 838" fill="none" xmlns="http://www.w3.org/2000/svg">
<mask id="mask0_1_203" style="mask-type:luminance" maskUnits="userSpaceOnUse" x="-31" y="0" width="239" height="839">
<path d="M-30.731 -0.000244141L-30.731 838.01H207.626L207.626 -0.000244141H-30.731Z" fill="white"/>
</mask>
<g mask="url(#mask0_1_203)">
<path d="M35.459 538.138C56.374 558.501 78.332 579.026 105.359 590.806C125.574 599.591 148.081 604.349 165.641 618.451C171.565 623.084 176.48 628.879 180.085 635.479C180.16 635.627 180.176 635.798 180.129 635.957C180.083 636.116 179.977 636.252 179.835 636.336C179.692 636.42 179.522 636.447 179.36 636.411C179.199 636.375 179.057 636.279 178.963 636.142C174.898 630.136 169.823 624.881 163.963 620.61C146.284 607.257 124.251 602.21 104.395 592.943C77.382 580.343 55.846 559.343 34.554 539.079C34.4897 539.02 34.4377 538.949 34.4013 538.87C34.3648 538.791 34.3446 538.705 34.3418 538.618C34.339 538.531 34.3536 538.444 34.3849 538.362C34.4161 538.281 34.4634 538.207 34.5238 538.144C34.5842 538.081 34.6566 538.031 34.7367 537.997C34.8168 537.962 34.9029 537.944 34.9901 537.944C35.0773 537.943 35.1637 537.96 35.2442 537.993C35.3247 538.027 35.3978 538.076 35.459 538.138Z" fill="white"/>
<path d="M38.5771 540.935C44.8211 547.43 48.2521 555.784 52.4771 563.585C56.3291 571.559 59.7771 579.874 61.1211 588.685C61.1351 588.802 61.1065 588.921 61.0405 589.019C60.9745 589.117 60.8755 589.188 60.7615 589.22C60.6475 589.251 60.526 589.24 60.4191 589.19C60.3122 589.139 60.2271 589.052 60.1791 588.944C55.2691 576.696 51.6161 564.004 45.3301 552.344C43.2301 548.504 41.1601 544.544 37.9201 541.649C37.4351 541.24 38.1201 540.464 38.5831 540.931" fill="white"/>
<path d="M68.911 569.269C76.644 585.7 84.111 602.339 89.604 619.669C91.4696 625.443 92.9396 631.338 94.0041 637.313C94.0259 637.434 94.0012 637.559 93.935 637.663C93.8688 637.767 93.7659 637.843 93.6467 637.874C93.5275 637.906 93.4008 637.891 93.2918 637.834C93.1827 637.776 93.0993 637.68 93.0581 637.564C90.9771 631.864 89.2011 626.112 87.4181 620.352C85.6351 614.592 83.797 608.852 81.8691 603.135C78.0196 591.686 73.3969 580.513 68.0331 569.691C67.7441 569.139 68.6421 568.665 68.9131 569.264" fill="white"/>
<path d="M86.2 581.151C105.363 600.604 124.55 621.251 135.851 646.433C135.896 646.546 135.897 646.671 135.855 646.785C135.813 646.9 135.73 646.994 135.622 647.05C135.514 647.107 135.389 647.121 135.272 647.091C135.154 647.061 135.051 646.988 134.984 646.887C124.498 630.01 112.874 611.48 99.684 596.687C95.139 591.58 90.475 586.568 85.518 581.855C85.06 581.434 85.742 580.681 86.201 581.155" fill="white"/>
<path d="M57.087 558.666C83.187 568.136 111.092 569.287 138.581 569.107C138.702 569.112 138.817 569.162 138.904 569.246C138.991 569.331 139.044 569.444 139.052 569.565C139.06 569.686 139.023 569.806 138.949 569.902C138.874 569.997 138.766 570.062 138.647 570.083C117.976 572.97 96.904 570.09 76.737 565.309C69.99 563.737 63.355 561.738 56.773 559.593C56.6554 559.547 56.56 559.458 56.5067 559.343C56.4534 559.229 56.4463 559.098 56.4869 558.979C56.5275 558.859 56.6127 558.76 56.7247 558.702C56.8367 558.643 56.9658 558.631 57.087 558.666Z" fill="white"/>
<path d="M89.834 582.837C115.205 590.244 142.134 594.986 168.372 589.615C168.491 589.595 168.614 589.62 168.716 589.685C168.819 589.749 168.894 589.85 168.927 589.966C168.96 590.082 168.949 590.207 168.897 590.316C168.844 590.425 168.753 590.511 168.641 590.557C149.358 597.488 128.319 593.29 108.975 588.805C102.46 587.305 96.029 585.483 89.575 583.779C89.4527 583.742 89.3497 583.659 89.2881 583.547C89.2265 583.435 89.2112 583.303 89.2454 583.18C89.2797 583.057 89.3608 582.952 89.4713 582.888C89.5819 582.824 89.7132 582.806 89.837 582.837" fill="white"/>
<path d="M52 566.929C48.5994 573.335 47.5517 580.73 49.039 587.829C50.314 593.811 53.33 599.246 55.907 604.792C58.6765 610.752 60.9703 616.922 62.767 623.244C65.118 613.564 67.0671 603.604 66.0671 593.694C65.0671 583.784 60.75 573.807 52.667 567.98" fill="white"/>
<path d="M52.4311 567.16C44.1211 583.044 51.7871 594.593 58.4801 608.928C60.4696 613.513 62.1833 618.213 63.6121 623.003L61.9121 623.037C63.0652 618.229 63.9638 613.363 64.6041 608.46C66.6041 594.228 64.0401 577.942 52.3881 568.375C52.338 568.334 52.2964 568.285 52.2657 568.228C52.235 568.172 52.2158 568.11 52.2092 568.046C52.2026 567.982 52.2087 567.917 52.2272 567.855C52.2458 567.794 52.2763 567.737 52.3171 567.687C52.3931 567.594 52.5003 567.532 52.6186 567.513C52.7369 567.493 52.8583 567.517 52.9601 567.581C57.241 570.425 60.7 574.344 62.9911 578.945C67.7211 588.07 68.1911 598.771 66.7281 608.745C65.9498 613.705 64.9107 618.622 63.6151 623.473C63.5632 623.657 63.453 623.819 63.3009 623.935C63.1489 624.05 62.9634 624.114 62.7723 624.115C62.5812 624.116 62.395 624.055 62.2416 623.941C62.0882 623.827 61.9761 623.666 61.9221 623.483C60.6337 618.717 59.0623 614.033 57.2161 609.455C53.6451 600.295 47.6161 591.486 47.9081 581.231C47.9798 576.168 49.2331 571.192 51.5681 566.7C51.5983 566.643 51.6395 566.593 51.6891 566.552C51.7388 566.511 51.796 566.481 51.8574 566.462C51.9189 566.444 51.9834 566.437 52.0474 566.443C52.1113 566.45 52.1734 566.469 52.2301 566.499C52.2867 566.529 52.3369 566.57 52.3776 566.62C52.4184 566.67 52.449 566.727 52.4677 566.788C52.4863 566.85 52.4927 566.914 52.4864 566.978C52.4801 567.042 52.4613 567.103 52.4311 567.16Z" fill="white"/>
<path d="M82.689 603.438C78.849 615.267 79.548 628.22 82.771 640.23C85.994 652.24 91.631 663.459 97.621 674.356C97.104 665.749 98.371 657.156 99.177 648.568C99.983 639.98 100.304 631.18 97.962 622.883C95.62 614.586 90.227 606.774 82.304 603.375" fill="white"/>
<path d="M83.1541 603.59C75.2811 627.902 86.329 652.99 98.382 673.94L96.7621 674.408C95.8451 661.268 98.9621 648.432 98.6101 635.698C98.4921 623.29 93.8601 609.636 82.1151 603.826C82.0058 603.768 81.9221 603.672 81.8808 603.556C81.8394 603.439 81.8435 603.312 81.892 603.198C81.9406 603.085 82.0301 602.994 82.1428 602.943C82.2555 602.893 82.383 602.887 82.5001 602.926C95.3621 607.92 100.868 622.784 100.9 635.641C101.215 648.811 97.863 661.521 98.49 674.304C98.4988 674.498 98.442 674.69 98.3286 674.848C98.2153 675.006 98.052 675.122 97.8652 675.176C97.6783 675.23 97.4787 675.22 97.2983 675.147C97.118 675.073 96.9675 674.942 96.871 674.773C93.925 669.286 91.0711 663.73 88.5571 658.012C81.0121 641.048 76.432 621.474 82.227 603.286C82.2707 603.167 82.3584 603.07 82.4719 603.015C82.5854 602.96 82.7159 602.951 82.8361 602.989C82.9562 603.028 83.0567 603.112 83.1165 603.223C83.1764 603.334 83.1909 603.464 83.1571 603.586" fill="white"/>
<path d="M101.599 598.068C106.654 614.724 113.606 634.916 125.191 647.904C134.77 658.639 147.891 665.629 158.016 675.851C151.178 667.291 148.804 656.141 145.316 645.757C141.909 635.611 137.216 625.784 130.437 617.501C123.658 609.218 111.925 600.742 101.654 597.744" fill="white"/>
<path d="M102.066 597.926C106.808 613.546 112.192 629.386 121.741 642.768C126.462 649.468 132.867 654.705 139.37 659.668C145.9 664.625 152.7 669.368 158.634 675.234L157.334 676.393C146.799 662.839 145.995 644.911 137.55 630.382C129.991 615.523 117.13 604.042 101.512 598.212C101.388 598.175 101.283 598.091 101.22 597.977C101.158 597.864 101.143 597.73 101.18 597.605C101.216 597.481 101.3 597.376 101.414 597.313C101.528 597.251 101.662 597.236 101.786 597.273C110.009 599.489 117.359 604.064 123.877 609.433C130.357 614.967 135.691 621.717 139.577 629.301C143.404 636.821 146.457 644.712 148.687 652.851C151.087 660.806 153.62 668.851 158.702 675.314C158.834 675.49 158.895 675.709 158.873 675.928C158.85 676.147 158.746 676.35 158.58 676.495C158.414 676.64 158.2 676.717 157.98 676.711C157.76 676.705 157.55 676.616 157.393 676.462C145.938 664.793 130.513 657.011 120.907 643.372C111.296 629.829 106.043 613.892 101.126 598.21C101.095 598.087 101.112 597.958 101.174 597.847C101.236 597.737 101.338 597.655 101.459 597.619C101.579 597.582 101.71 597.594 101.822 597.651C101.935 597.708 102.021 597.806 102.063 597.926" fill="white"/>
<path d="M142.298 606.703C150.05 610.169 155.454 617.339 159.876 624.588C164.298 631.837 168.195 639.588 174.328 645.464C181.728 652.551 192.004 656.509 198.128 664.723C198.278 658.551 196.681 652.47 194.728 646.613C190.24 633.181 183.116 619.689 170.836 612.631C161.629 607.341 150.651 606.309 140.051 605.668" fill="white"/>
<path d="M142.499 606.257C158.799 613.879 162.517 633.489 174.794 645.132C182.319 652.132 192.305 655.815 198.794 664.232L197.3 664.706C197.391 657.126 194.892 649.706 192.178 642.571C186.841 628.551 177.541 614.771 162.603 610.179C155.418 607.712 147.697 606.938 140.019 606.159C139.891 606.149 139.772 606.089 139.687 605.992C139.603 605.895 139.56 605.769 139.568 605.641C139.576 605.513 139.635 605.393 139.73 605.307C139.826 605.221 139.952 605.177 140.08 605.183C147.81 605.348 155.67 605.871 163.253 608.183C178.874 612.659 188.903 627.247 194.111 641.834C195.484 645.493 196.648 649.228 197.596 653.02C198.573 656.854 199.032 660.802 198.961 664.758C198.953 664.929 198.892 665.094 198.787 665.23C198.682 665.365 198.538 665.465 198.374 665.516C198.21 665.567 198.034 665.566 197.871 665.513C197.708 665.46 197.565 665.359 197.461 665.222C191.451 657.088 181.283 652.986 174.019 645.944C161.862 634.285 158.211 614.61 142.098 607.153C141.528 606.919 141.906 605.977 142.498 606.26" fill="white"/>
<path d="M142.01 593.017C151.532 597.817 166.558 601.117 177.078 599.379C187.598 597.641 197.545 593.311 206.761 587.951C199.16 584.276 190.842 582.324 182.4 582.232C173.958 582.14 165.6 583.912 157.921 587.421C152.774 589.821 147.687 593.07 142.01 593.021" fill="white"/>
<path d="M142.231 592.581C152.386 597.588 163.675 599.85 174.975 599.14C186.161 597.716 196.691 592.916 206.331 587.209L206.383 588.72C201.375 586.357 196.041 584.76 190.558 583.982C179.575 582.363 168.357 583.905 158.218 588.427C153.118 590.66 147.851 593.857 142.008 593.509C141.882 593.502 141.763 593.447 141.677 593.355C141.59 593.263 141.543 593.142 141.544 593.016C141.545 592.889 141.595 592.768 141.682 592.678C141.77 592.587 141.89 592.534 142.016 592.53C147.644 592.23 152.364 588.998 157.34 586.552C167.781 581.603 179.489 579.978 190.883 581.896C196.537 582.833 202.017 584.614 207.141 587.181C207.243 587.229 207.335 587.297 207.41 587.381C207.486 587.465 207.544 587.564 207.581 587.67C207.618 587.777 207.634 587.89 207.627 588.002C207.62 588.115 207.591 588.225 207.541 588.327C197.669 594.5 186.609 598.53 175.08 600.156C163.635 600.989 152.132 598.28 141.793 593.456C141.679 593.396 141.594 593.294 141.555 593.172C141.515 593.049 141.526 592.916 141.584 592.802C141.641 592.687 141.742 592.6 141.864 592.558C141.985 592.517 142.118 592.525 142.234 592.581" fill="white"/>
<path d="M98.548 567.764C111.112 574.823 125.767 577.216 139.924 574.521C149.838 572.596 159.207 568.206 169.224 566.956C161.644 559.656 150.816 556.349 140.29 556.408C129.764 556.467 119.471 559.617 109.811 563.798C105.805 565.531 101.811 567.469 97.486 568.098" fill="white"/>
<path d="M98.79 567.339C109.392 573.325 121.563 575.947 133.69 574.859C145.941 573.897 156.927 567.77 169.119 566.103L168.626 567.579C164.031 563.381 158.444 560.422 152.39 558.979C140.196 555.814 127.373 558.279 115.7 562.528C109.664 564.515 104 567.875 97.558 568.585C97.494 568.591 97.4295 568.585 97.3679 568.566C97.3064 568.548 97.2492 568.517 97.1995 568.476C97.1498 568.436 97.1086 568.386 97.0784 568.329C97.0481 568.272 97.0293 568.21 97.023 568.146C97.0136 568.025 97.0483 567.905 97.1208 567.808C97.1932 567.711 97.2985 567.643 97.417 567.618C100.468 566.927 103.423 565.867 106.217 564.461C120.502 557.492 137.093 552.568 152.933 556.931C159.271 558.582 165.085 561.819 169.827 566.337C169.91 566.416 169.976 566.51 170.022 566.614C170.068 566.718 170.092 566.831 170.095 566.945C170.097 567.058 170.076 567.172 170.035 567.278C169.993 567.384 169.93 567.48 169.851 567.562C163.723 568.677 157.672 570.18 151.734 572.062C134.339 578.15 114.486 577.462 98.307 568.189C98.2016 568.121 98.1262 568.016 98.0962 567.894C98.0662 567.773 98.084 567.644 98.1458 567.535C98.2077 567.426 98.3089 567.345 98.4287 567.308C98.5485 567.272 98.6778 567.283 98.79 567.339Z" fill="white"/>
<path d="M-2.82295 558.54C18.467 538.276 40.0051 517.274 67.0181 504.676C86.8731 495.411 108.909 490.36 126.586 477.009C132.446 472.737 137.521 467.482 141.586 461.477C141.677 461.335 141.82 461.234 141.984 461.195C142.148 461.156 142.321 461.182 142.467 461.268C142.612 461.354 142.718 461.492 142.764 461.655C142.809 461.817 142.79 461.991 142.71 462.14C139.104 468.739 134.189 474.533 128.266 479.166C110.704 493.266 88.199 498.028 67.984 506.813C40.956 518.593 19.001 539.113 -1.91595 559.481C-1.9772 559.543 -2.05025 559.592 -2.13079 559.625C-2.21133 559.658 -2.29773 559.675 -2.3849 559.675C-2.47206 559.674 -2.55823 559.656 -2.63832 559.622C-2.71841 559.587 -2.7908 559.537 -2.85122 559.474C-2.91165 559.412 -2.95888 559.337 -2.99014 559.256C-3.0214 559.175 -3.03605 559.088 -3.03323 559.001C-3.03041 558.914 -3.01017 558.828 -2.97371 558.749C-2.93726 558.67 -2.88532 558.598 -2.82095 558.54" fill="white"/>
<path d="M0.534048 555.963C3.77505 553.074 5.84105 549.108 7.94605 545.268C14.231 533.612 17.884 520.922 22.793 508.668C22.8455 508.565 22.9316 508.484 23.037 508.438C23.1424 508.391 23.2605 508.383 23.3714 508.414C23.4823 508.444 23.5793 508.512 23.6459 508.606C23.7125 508.7 23.7447 508.814 23.737 508.929C21.619 522.138 15.284 534.197 8.85305 545.76C6.71405 549.608 4.46605 553.527 1.19705 556.677C0.743048 557.121 0.0380483 556.391 0.534048 555.958" fill="white"/>
<path d="M30.646 527.919C41.78 506.371 47.876 482.889 55.672 460.047C55.7168 459.935 55.8009 459.844 55.9085 459.79C56.0161 459.736 56.1397 459.723 56.2561 459.754C56.3725 459.785 56.4736 459.857 56.5402 459.957C56.6069 460.057 56.6346 460.179 56.618 460.298C53.392 478.24 46.305 495.198 39.092 511.837C36.706 517.403 34.092 522.867 31.527 528.347C31.27 528.916 30.344 528.503 30.647 527.92" fill="white"/>
<path d="M48.138 515.766C67.895 497.298 83.564 473.737 97.604 450.729C97.6717 450.628 97.7744 450.555 97.8924 450.525C98.0104 450.495 98.1353 450.51 98.2431 450.567C98.3509 450.623 98.4339 450.718 98.4762 450.832C98.5184 450.946 98.517 451.072 98.472 451.185C90.167 470.143 76.813 486.357 63.072 501.622C58.492 506.735 53.672 511.622 48.817 516.468C48.383 516.911 47.651 516.216 48.134 515.768" fill="white"/>
<path d="M19.3961 538.025C45.6351 529.598 73.6711 523.877 101.271 527.534C101.391 527.555 101.498 527.62 101.573 527.716C101.648 527.812 101.685 527.932 101.677 528.053C101.668 528.174 101.615 528.288 101.528 528.373C101.441 528.458 101.326 528.507 101.204 528.512C80.5631 528.574 59.8151 528.712 39.5931 533.318C32.8634 534.817 26.2246 536.698 19.7091 538.953C19.1281 539.17 18.7651 538.219 19.3941 538.026" fill="white"/>
<path d="M52.199 513.839C77.583 507.448 105.415 498.162 131.267 507.063C131.38 507.108 131.472 507.194 131.525 507.303C131.579 507.412 131.59 507.538 131.557 507.654C131.523 507.771 131.448 507.872 131.344 507.936C131.241 508.001 131.118 508.025 130.998 508.004C111.417 504.05 91.241 505.549 71.834 509.823C65.339 511.3 58.866 512.917 52.462 514.782C52.3382 514.813 52.2069 514.795 52.0963 514.731C51.9858 514.667 51.9047 514.562 51.8704 514.439C51.8362 514.316 51.8515 514.184 51.9131 514.072C51.9747 513.96 52.0777 513.877 52.2 513.84" fill="white"/>
<path d="M14.623 530.687C11.2223 524.281 10.1746 516.886 11.662 509.787C12.937 503.805 15.953 498.37 18.53 492.824C21.2994 486.864 23.5933 480.694 25.39 474.372C27.741 484.052 29.69 494.012 28.69 503.922C27.69 513.832 23.373 523.809 15.29 529.636" fill="white"/>
<path d="M14.19 530.92C9.36604 521.943 9.50204 510.89 13.776 501.76C17.917 492.711 22.088 483.786 24.545 474.135C24.5988 473.949 24.7126 473.785 24.8686 473.67C25.0247 473.556 25.2143 473.495 25.4081 473.499C25.6019 473.503 25.789 473.571 25.9403 473.692C26.0916 473.813 26.1988 473.981 26.245 474.169C27.5382 479.014 28.5757 483.923 29.353 488.877C30.1108 493.891 30.2729 498.977 29.836 504.029C28.828 514.049 24.287 524.454 15.586 530.037C15.4805 530.105 15.353 530.129 15.2298 530.106C15.1067 530.082 14.9972 530.013 14.9239 529.911C14.8506 529.809 14.8191 529.683 14.8358 529.559C14.8526 529.435 14.9164 529.322 15.014 529.243C22.64 523.019 26.582 513.406 27.556 503.8C28.556 494 26.711 484.154 24.539 474.583L26.239 474.615C24.8098 479.406 23.0961 484.107 21.107 488.694C14.407 503.015 6.74904 514.601 15.058 530.46C15.376 531 14.483 531.503 14.195 530.921" fill="white"/>
<path d="M45.312 494.179C41.472 482.35 42.171 469.397 45.394 457.387C48.617 445.377 54.251 434.158 60.247 423.262C59.73 431.869 60.997 440.462 61.802 449.05C62.607 457.638 62.931 466.438 60.589 474.735C58.247 483.032 52.858 490.847 44.93 494.247" fill="white"/>
<path d="M44.8461 494.331C37.1041 469.731 47.7791 444.331 59.4901 422.846C59.5859 422.676 59.7363 422.544 59.9167 422.47C60.0972 422.396 60.2973 422.386 60.4846 422.44C60.6718 422.494 60.8354 422.61 60.9487 422.768C61.062 422.927 61.1185 423.119 61.1091 423.314C60.4811 436.097 63.8331 448.807 63.5191 461.977C63.3911 471.761 60.5831 482.187 53.4081 489.277C51.0481 491.632 48.2277 493.476 45.1231 494.692C45.0037 494.743 44.869 494.745 44.7485 494.696C44.628 494.648 44.5316 494.554 44.4806 494.434C44.4295 494.315 44.4279 494.18 44.4762 494.06C44.5245 493.939 44.6187 493.843 44.7381 493.792C56.4841 487.977 61.1131 474.329 61.2331 461.918C61.5901 449.184 58.4681 436.347 59.3851 423.209L61.0051 423.677C48.9541 444.619 37.9051 469.72 45.7771 494.026C45.9891 494.612 45.0281 494.953 44.8471 494.326" fill="white"/>
<path d="M64.2211 499.549C69.2791 482.898 76.2281 462.701 87.8131 449.715C97.3921 438.978 110.513 431.989 120.638 421.768C113.8 430.326 111.427 441.477 107.938 451.862C104.531 462.008 99.8381 471.833 93.0591 480.118C86.2801 488.403 74.5471 496.877 64.2711 499.875" fill="white"/>
<path d="M63.754 499.406C68.669 483.726 73.922 467.788 83.533 454.244C88.345 447.444 94.694 441.944 101.17 436.881C107.651 431.798 114.323 426.969 120.019 421.154C120.176 420.997 120.388 420.906 120.61 420.899C120.833 420.893 121.049 420.972 121.215 421.12C121.381 421.268 121.484 421.474 121.504 421.695C121.523 421.917 121.457 422.137 121.319 422.312C116.244 428.777 113.709 436.812 111.312 444.765C106.712 460.795 99.725 477.285 86.498 488.182C79.981 493.553 72.63 498.128 64.409 500.344C64.2845 500.38 64.1506 500.365 64.0369 500.303C63.9232 500.241 63.8388 500.136 63.8025 500.011C63.7662 499.887 63.7808 499.753 63.8432 499.639C63.9055 499.525 64.0105 499.441 64.135 499.405C89.315 490.178 102.263 468.905 109.265 444.129C111.797 436.209 114.513 427.942 119.958 421.223L121.258 422.382C115.323 428.246 108.524 432.991 101.994 437.948C95.489 442.912 89.087 448.148 84.363 454.848C74.815 468.229 69.432 484.07 64.689 499.69C64.531 500.282 63.548 500.027 63.754 499.406Z" fill="white"/>
<path d="M104.921 490.916C112.673 487.45 118.077 480.28 122.499 473.031C126.921 465.782 130.818 458.031 136.951 452.155C144.351 445.068 154.627 441.11 160.751 432.896C160.901 439.068 159.304 445.149 157.351 451.006C152.863 464.438 145.739 477.931 133.459 484.988C124.252 490.278 113.274 491.31 102.674 491.951" fill="white"/>
<path d="M104.722 490.468C120.84 483.007 124.484 463.339 136.645 451.677C143.907 444.634 154.077 440.531 160.087 432.399C160.189 432.259 160.333 432.155 160.498 432.101C160.662 432.047 160.84 432.047 161.005 432.099C161.17 432.152 161.314 432.255 161.418 432.394C161.521 432.533 161.578 432.7 161.581 432.874C161.652 436.826 161.193 440.771 160.218 444.602C157.272 455.973 152.918 467.112 145.345 476.302C135.175 489.402 118.293 492.432 102.701 492.437C102.573 492.442 102.448 492.396 102.353 492.31C102.258 492.224 102.201 492.104 102.193 491.977C102.185 491.849 102.228 491.723 102.312 491.626C102.396 491.529 102.514 491.469 102.642 491.459C117.816 490.242 133.7 487.446 143.602 474.838C148.502 469.055 151.997 462.158 154.802 455.049C157.516 447.91 160.015 440.494 159.924 432.914L161.424 433.388C154.932 441.803 144.948 445.478 137.424 452.488C125.151 464.128 121.424 483.744 105.129 491.363C105.011 491.416 104.876 491.42 104.755 491.373C104.634 491.327 104.536 491.235 104.483 491.116C104.43 490.998 104.426 490.863 104.472 490.742C104.518 490.621 104.611 490.523 104.729 490.47" fill="white"/>
<path d="M104.634 504.6C114.156 499.8 129.182 496.5 139.702 498.24C150.222 499.98 160.169 504.308 169.385 509.668C161.784 513.342 153.466 515.295 145.024 515.387C136.582 515.478 128.224 513.707 120.545 510.198C115.398 507.798 110.311 504.549 104.634 504.598" fill="white"/>
<path d="M104.414 504.162C114.752 499.338 126.256 496.631 137.701 497.462C149.121 498.874 159.901 503.309 169.816 508.926C169.95 509.004 170.061 509.117 170.136 509.253C170.211 509.389 170.248 509.543 170.243 509.698C170.237 509.853 170.19 510.004 170.106 510.134C170.021 510.265 169.903 510.37 169.764 510.439C164.64 513.004 159.16 514.785 153.507 515.722C142.113 517.641 130.404 516.016 119.964 511.066C114.988 508.621 110.264 505.385 104.639 505.088C104.515 505.081 104.398 505.027 104.312 504.937C104.226 504.847 104.177 504.727 104.176 504.603C104.175 504.478 104.222 504.358 104.306 504.266C104.391 504.175 104.507 504.119 104.631 504.11C110.476 503.76 115.743 506.957 120.843 509.192C128.427 512.582 136.649 514.309 144.956 514.259C153.264 514.208 161.464 512.38 169.006 508.898L168.954 510.411C164.13 507.493 159.08 504.964 153.854 502.848C148.646 500.701 143.183 499.232 137.6 498.478C126.3 497.768 115.011 500.029 104.856 505.037C104.307 505.337 103.825 504.437 104.415 504.164" fill="white"/>
<path d="M61.172 529.853C73.7363 522.793 88.3907 520.4 102.548 523.096C112.462 525.021 121.829 529.411 131.848 530.661C124.269 537.961 113.442 541.268 102.915 541.209C92.388 541.15 82.096 538 72.436 533.819C68.43 532.086 64.436 530.147 60.111 529.519" fill="white"/>
<path d="M60.934 529.427C71.7391 523.413 84.0835 520.735 96.409 521.732C108.64 522.562 119.93 528.358 131.961 529.804C132.122 529.825 132.274 529.891 132.399 529.994C132.524 530.098 132.618 530.234 132.669 530.388C132.721 530.542 132.728 530.707 132.69 530.865C132.652 531.023 132.57 531.167 132.454 531.281C127.712 535.799 121.898 539.036 115.56 540.687C99.716 545.048 83.129 540.127 68.844 533.157C66.0496 531.751 63.0945 530.691 60.044 530C59.9157 529.981 59.8 529.912 59.7224 529.808C59.6449 529.704 59.6118 529.573 59.6305 529.445C59.6492 529.317 59.7182 529.201 59.8221 529.124C59.9261 529.046 60.0567 529.013 60.185 529.032C66.629 529.74 72.291 533.102 78.327 535.089C89.998 539.338 102.827 541.803 115.017 538.636C121.071 537.194 126.659 534.234 131.253 530.036L131.744 531.512C125.587 530.664 119.744 528.7 113.959 526.839C96.912 520.428 77.306 521.024 61.414 530.275C60.882 530.605 60.352 529.726 60.931 529.424" fill="white"/>
<path d="M34.555 299.291C55.845 279.027 77.383 258.025 104.396 245.427C124.251 236.163 146.285 231.111 163.964 217.76C169.824 213.487 174.899 208.232 178.964 202.228C179.055 202.086 179.198 201.985 179.362 201.946C179.526 201.907 179.699 201.933 179.845 202.019C179.99 202.105 180.096 202.243 180.142 202.406C180.187 202.568 180.168 202.742 180.088 202.891C176.481 209.489 171.565 215.281 165.641 219.914C148.079 234.014 125.574 238.775 105.359 247.56C78.331 259.34 56.376 279.86 35.459 300.228C35.3978 300.29 35.3247 300.339 35.2442 300.372C35.1637 300.406 35.0773 300.422 34.9901 300.422C34.9029 300.421 34.8168 300.403 34.7367 300.369C34.6566 300.334 34.5842 300.284 34.5238 300.222C34.4634 300.159 34.4161 300.084 34.3849 300.003C34.3536 299.922 34.339 299.835 34.3418 299.748C34.3446 299.661 34.3648 299.575 34.4013 299.496C34.4377 299.417 34.4897 299.345 34.554 299.287" fill="white"/>
<path d="M37.912 296.715C41.153 293.826 43.219 289.862 45.324 286.02C51.609 274.364 55.262 261.674 60.171 249.42C60.2235 249.317 60.3096 249.236 60.415 249.19C60.5204 249.143 60.6385 249.135 60.7494 249.165C60.8603 249.196 60.9573 249.264 61.0239 249.358C61.0905 249.452 61.1227 249.566 61.115 249.681C58.997 262.891 52.662 274.949 46.231 286.512C44.092 290.36 41.844 294.279 38.575 297.429C38.121 297.873 37.416 297.143 37.912 296.711" fill="white"/>
<path d="M68.027 268.669C79.161 247.121 85.257 223.639 93.051 200.797C93.0965 200.686 93.1808 200.595 93.2882 200.542C93.3956 200.488 93.5188 200.476 93.6347 200.507C93.7506 200.537 93.8515 200.609 93.9183 200.709C93.9852 200.808 94.0135 200.929 93.998 201.048C90.771 218.991 83.685 235.948 76.472 252.587C74.086 258.153 71.472 263.617 68.907 269.097C68.65 269.666 67.724 269.252 68.027 268.669Z" fill="white"/>
<path d="M85.5161 256.516C105.272 238.048 120.942 214.487 134.982 191.479C135.05 191.379 135.153 191.307 135.27 191.278C135.388 191.249 135.512 191.264 135.619 191.32C135.726 191.377 135.809 191.47 135.851 191.584C135.894 191.697 135.893 191.822 135.849 191.935C127.549 210.893 114.192 227.107 100.455 242.373C95.8751 247.485 91.0551 252.368 86.2001 257.217C85.7661 257.66 85.0361 256.965 85.5171 256.517" fill="white"/>
<path d="M56.772 278.777C83.011 270.35 111.048 264.63 138.647 268.286C138.767 268.307 138.874 268.372 138.949 268.467C139.024 268.563 139.061 268.683 139.053 268.804C139.045 268.926 138.992 269.04 138.905 269.124C138.818 269.209 138.702 269.259 138.581 269.264C117.94 269.326 97.192 269.464 76.97 274.07C70.2403 275.569 63.6015 277.45 57.086 279.705C56.505 279.922 56.142 278.971 56.771 278.778" fill="white"/>
<path d="M89.575 254.589C114.917 248.202 142.843 238.912 168.643 247.813C168.756 247.858 168.848 247.944 168.901 248.053C168.955 248.162 168.966 248.288 168.932 248.405C168.899 248.521 168.823 248.622 168.72 248.686C168.617 248.751 168.494 248.775 168.374 248.754C148.793 244.8 128.617 246.299 109.21 250.573C102.715 252.05 96.242 253.667 89.838 255.532C89.7141 255.563 89.5829 255.545 89.4723 255.481C89.3617 255.417 89.2806 255.312 89.2464 255.189C89.2122 255.066 89.2275 254.934 89.2891 254.822C89.3507 254.71 89.4537 254.627 89.576 254.59" fill="white"/>
<path d="M52 271.439C48.5993 265.033 47.5516 257.638 49.039 250.539C50.314 244.557 53.33 239.122 55.907 233.576C58.6765 227.616 60.9703 221.446 62.767 215.124C65.118 224.802 67.067 234.764 66.067 244.674C65.067 254.584 60.75 264.561 52.667 270.388" fill="white"/>
<path d="M51.5671 271.67C46.7431 262.693 46.8791 251.64 51.1531 242.51C55.2941 233.461 59.4651 224.536 61.9221 214.885C61.9758 214.699 62.0896 214.535 62.2456 214.42C62.4017 214.306 62.5913 214.245 62.7851 214.249C62.9789 214.253 63.166 214.321 63.3173 214.442C63.4686 214.563 63.5758 214.731 63.6221 214.919C64.9152 219.764 65.9527 224.673 66.7301 229.627C67.4878 234.641 67.6499 239.727 67.2131 244.779C66.2051 254.799 61.6641 265.204 52.9631 270.787C52.8575 270.855 52.73 270.879 52.6069 270.856C52.4837 270.832 52.3742 270.763 52.3009 270.661C52.2276 270.559 52.1961 270.433 52.2129 270.309C52.2296 270.185 52.2934 270.072 52.3911 269.993C60.0171 263.769 63.9591 254.156 64.9331 244.55C65.9331 234.75 64.0881 224.904 61.9161 215.333L63.6161 215.365C62.1869 220.156 60.4731 224.857 58.4841 229.444C51.7841 243.765 44.1241 255.351 52.4351 271.21C52.7531 271.75 51.8601 272.253 51.5721 271.671" fill="white"/>
<path d="M82.689 234.929C78.849 223.1 79.548 210.147 82.771 198.137C85.994 186.127 91.631 174.908 97.621 164.012C97.104 172.619 98.371 181.212 99.177 189.8C99.983 198.388 100.304 207.188 97.962 215.485C95.62 223.782 90.227 231.596 82.304 234.993" fill="white"/>
<path d="M82.225 235.08C74.483 210.48 85.158 185.08 96.869 163.595C96.9649 163.425 97.1152 163.293 97.2957 163.219C97.4762 163.146 97.6763 163.135 97.8635 163.189C98.0508 163.243 98.2143 163.359 98.3277 163.517C98.441 163.676 98.4975 163.868 98.488 164.063C97.86 176.846 101.212 189.563 100.898 202.726C100.77 212.51 97.962 222.936 90.787 230.026C88.4275 232.382 85.607 234.226 82.502 235.441C82.3827 235.492 82.2479 235.494 82.1274 235.445C82.0069 235.397 81.9106 235.303 81.8595 235.184C81.8085 235.064 81.8069 234.929 81.8552 234.809C81.9035 234.688 81.9977 234.592 82.117 234.541C93.863 228.728 98.492 215.078 98.612 202.667C98.969 189.935 95.847 177.098 96.764 163.958L98.384 164.426C86.333 185.368 75.284 210.469 83.156 234.776C83.1899 234.898 83.1753 235.028 83.1155 235.139C83.0557 235.25 82.9552 235.334 82.835 235.372C82.7149 235.411 82.5844 235.402 82.4709 235.347C82.3574 235.291 82.2696 235.194 82.226 235.076" fill="white"/>
<path d="M101.599 240.299C106.657 223.648 113.606 203.451 125.191 190.465C134.77 179.728 147.891 172.739 158.016 162.518C151.178 171.076 148.804 182.227 145.316 192.612C141.909 202.758 137.216 212.583 130.437 220.868C123.658 229.153 111.925 237.627 101.654 240.625" fill="white"/>
<path d="M101.132 240.154C106.047 224.474 111.302 208.536 120.911 194.992C125.723 188.192 132.072 182.692 138.548 177.629C145.029 172.547 151.701 167.717 157.397 161.901C157.554 161.744 157.766 161.653 157.988 161.647C158.211 161.64 158.427 161.719 158.593 161.867C158.759 162.015 158.862 162.221 158.882 162.442C158.901 162.664 158.835 162.884 158.697 163.059C153.622 169.524 151.087 177.559 148.69 185.512C144.09 201.542 137.103 218.032 123.876 228.93C117.359 234.299 110.008 238.874 101.787 241.09C101.663 241.126 101.529 241.112 101.415 241.049C101.301 240.987 101.217 240.882 101.181 240.757C101.144 240.633 101.159 240.499 101.221 240.385C101.284 240.271 101.389 240.187 101.513 240.151C126.693 230.925 139.641 209.651 146.641 184.877C149.175 176.955 151.891 168.688 157.336 161.97L158.636 163.129C152.7 168.991 145.902 173.738 139.372 178.695C132.867 183.659 126.465 188.895 121.741 195.595C112.192 208.977 106.809 224.815 102.066 240.437C101.908 241.029 100.924 240.773 101.13 240.153" fill="white"/>
<path d="M142.298 231.665C150.05 228.199 155.454 221.029 159.876 213.78C164.298 206.531 168.195 198.78 174.328 192.904C181.728 185.817 192.004 181.859 198.128 173.645C198.278 179.817 196.681 185.898 194.728 191.755C190.24 205.187 183.116 218.679 170.836 225.736C161.629 231.028 150.651 232.059 140.051 232.7" fill="white"/>
<path d="M142.098 231.218C158.216 223.757 161.86 204.089 174.021 192.427C181.283 185.385 191.453 181.281 197.463 173.149C197.566 173.01 197.709 172.906 197.874 172.853C198.038 172.8 198.215 172.799 198.38 172.851C198.544 172.903 198.689 173.006 198.792 173.144C198.896 173.283 198.953 173.45 198.957 173.623C199.028 177.575 198.569 181.518 197.594 185.349C194.648 196.72 190.294 207.861 182.721 217.049C172.551 230.149 155.669 233.179 140.077 233.184C139.949 233.189 139.824 233.143 139.729 233.057C139.634 232.971 139.577 232.852 139.569 232.724C139.561 232.596 139.604 232.47 139.688 232.373C139.772 232.276 139.89 232.216 140.018 232.206C155.138 231.006 171.133 228.161 180.978 215.585C185.878 209.802 189.373 202.906 192.178 195.796C194.892 188.657 197.391 181.241 197.3 173.659L198.8 174.135C192.308 182.55 182.322 186.226 174.8 193.235C162.527 204.875 158.8 224.491 142.505 232.11C142.387 232.163 142.252 232.167 142.131 232.12C142.009 232.074 141.912 231.982 141.859 231.863C141.805 231.745 141.802 231.61 141.848 231.489C141.894 231.368 141.987 231.27 142.105 231.217" fill="white"/>
<path d="M142.01 245.352C151.532 240.552 166.558 237.252 177.078 238.992C187.598 240.732 197.545 245.06 206.761 250.422C199.16 254.096 190.842 256.048 182.4 256.14C173.958 256.231 165.6 254.459 157.921 250.95C152.774 248.55 147.687 245.301 142.01 245.35" fill="white"/>
<path d="M141.792 244.914C152.13 240.092 163.634 237.383 175.078 238.214C186.5 239.626 197.278 244.061 207.194 249.678C207.328 249.756 207.438 249.869 207.513 250.005C207.588 250.141 207.625 250.295 207.62 250.45C207.614 250.605 207.567 250.756 207.483 250.886C207.399 251.017 207.281 251.122 207.142 251.191C202.018 253.756 196.537 255.537 190.883 256.474C179.49 258.393 167.782 256.768 157.342 251.818C152.366 249.371 147.642 246.139 142.017 245.841C141.891 245.836 141.771 245.783 141.683 245.693C141.596 245.602 141.546 245.481 141.545 245.355C141.544 245.229 141.591 245.107 141.678 245.015C141.764 244.924 141.883 244.869 142.009 244.862C147.854 244.514 153.121 247.709 158.221 249.944C165.805 253.333 174.027 255.061 182.334 255.01C190.641 254.96 198.842 253.132 206.384 249.651L206.332 251.162C201.508 248.244 196.458 245.715 191.232 243.599C186.024 241.452 180.561 239.983 174.978 239.229C163.678 238.519 152.389 240.78 142.234 245.788C141.684 246.088 141.203 245.188 141.793 244.915" fill="white"/>
<path d="M98.548 270.603C111.112 263.544 125.767 261.15 139.924 263.846C149.838 265.773 159.207 270.163 169.224 271.411C161.644 278.711 150.816 282.02 140.29 281.961C129.764 281.902 119.471 278.751 109.811 274.571C105.805 272.838 101.811 270.901 97.486 270.271" fill="white"/>
<path d="M98.3081 270.183C109.113 264.169 121.458 261.492 133.783 262.488C146.016 263.318 157.304 269.114 169.335 270.56C169.496 270.581 169.648 270.647 169.773 270.751C169.898 270.854 169.992 270.99 170.043 271.144C170.095 271.298 170.102 271.464 170.064 271.622C170.026 271.779 169.944 271.923 169.828 272.037C165.086 276.555 159.272 279.792 152.934 281.443C137.092 285.804 120.503 280.883 106.218 273.913C103.424 272.508 100.469 271.448 97.4181 270.756C97.2939 270.733 97.1835 270.662 97.11 270.56C97.0365 270.457 97.0057 270.33 97.0239 270.205C97.0421 270.08 97.108 269.967 97.2078 269.889C97.3075 269.812 97.4334 269.776 97.5591 269.789C104.003 270.497 109.665 273.859 115.701 275.846C127.372 280.096 140.201 282.56 152.391 279.393C158.445 277.951 164.033 274.992 168.627 270.793L169.118 272.269C162.961 271.423 157.118 269.457 151.333 267.596C134.286 261.185 114.68 261.781 98.7881 271.032C98.2561 271.362 97.7261 270.483 98.3051 270.181" fill="white"/>
<path d="M0.536027 278.569C20.901 298.395 42.28 318.38 68.595 329.849C88.277 338.404 110.195 343.036 127.288 356.768C133.056 361.279 137.841 366.921 141.351 373.347C141.424 373.491 141.44 373.658 141.394 373.813C141.349 373.968 141.246 374.101 141.106 374.183C140.967 374.265 140.802 374.291 140.644 374.255C140.486 374.219 140.348 374.125 140.257 373.991C136.3 368.145 131.36 363.028 125.657 358.868C108.445 345.868 86.992 340.951 67.657 331.931C41.357 319.665 20.387 299.216 -0.342973 279.485C-0.40579 279.428 -0.45652 279.359 -0.492162 279.282C-0.527804 279.205 -0.547637 279.121 -0.550485 279.036C-0.553333 278.952 -0.53914 278.867 -0.508744 278.788C-0.478349 278.709 -0.432369 278.636 -0.373523 278.575C-0.314677 278.514 -0.24416 278.465 -0.166141 278.432C-0.0881217 278.398 -0.00418434 278.381 0.0807065 278.38C0.165597 278.38 0.249719 278.396 0.328097 278.429C0.406475 278.461 0.477518 278.509 0.537026 278.57" fill="white"/>
<path d="M3.57106 281.292C9.65006 287.615 12.9921 295.749 17.0991 303.344C20.8501 311.108 24.2061 319.204 25.5171 327.782C25.5311 327.896 25.5034 328.012 25.4392 328.108C25.3749 328.204 25.2784 328.274 25.167 328.305C25.0557 328.336 24.937 328.325 24.8326 328.276C24.7281 328.227 24.6449 328.141 24.5981 328.036C19.8181 316.11 16.2591 303.752 10.1391 292.405C8.09106 288.666 6.08106 284.805 2.92406 281.991C2.45106 281.591 3.11606 280.838 3.57006 281.291" fill="white"/>
<path d="M33.103 308.883C42.956 330.23 53.16 351.883 57.533 375.14C57.5501 375.256 57.5237 375.375 57.459 375.473C57.3942 375.571 57.2956 375.642 57.1819 375.672C57.0682 375.703 56.9474 375.69 56.8425 375.637C56.7376 375.584 56.6559 375.494 56.613 375.384C50.734 358.748 46.413 341.631 39.543 325.355C37.243 319.945 34.891 314.555 32.243 309.303C31.96 308.763 32.835 308.303 33.099 308.884" fill="white"/>
<path d="M49.939 320.451C68.597 339.392 87.278 359.498 98.28 384.013C98.3232 384.122 98.3244 384.244 98.2832 384.355C98.2421 384.466 98.1616 384.557 98.0571 384.612C97.9526 384.667 97.8316 384.681 97.7172 384.652C97.6027 384.624 97.503 384.554 97.437 384.456C87.227 368.023 75.91 349.981 63.066 335.576C58.641 330.604 54.099 325.723 49.274 321.134C48.828 320.725 49.493 319.991 49.939 320.451Z" fill="white"/>
<path d="M21.595 298.558C47.003 307.778 74.177 308.899 100.945 308.725C101.064 308.729 101.177 308.777 101.262 308.859C101.347 308.942 101.399 309.053 101.407 309.171C101.415 309.29 101.379 309.407 101.305 309.5C101.232 309.593 101.126 309.656 101.009 309.676C80.883 312.488 60.367 309.683 40.729 305.029C34.16 303.499 27.7 301.553 21.291 299.463C21.178 299.418 21.0867 299.331 21.0359 299.22C20.9851 299.109 20.9786 298.983 21.0178 298.868C21.057 298.753 21.1389 298.657 21.2467 298.6C21.3544 298.543 21.4798 298.53 21.597 298.563" fill="white"/>
<path d="M53.48 322.091C78.18 329.303 104.401 333.92 129.948 328.691C130.064 328.671 130.183 328.696 130.283 328.759C130.383 328.822 130.455 328.919 130.488 329.032C130.52 329.146 130.51 329.267 130.458 329.373C130.407 329.479 130.319 329.563 130.21 329.608C111.435 336.357 90.951 332.27 72.117 327.908C65.772 326.442 59.511 324.672 53.225 323.015C53.107 322.978 53.0079 322.896 52.9487 322.788C52.8895 322.679 52.8748 322.552 52.9078 322.432C52.9408 322.313 53.0188 322.211 53.1253 322.149C53.2319 322.086 53.3587 322.067 53.479 322.096" fill="white"/>
<path d="M16.6421 306.604C13.3308 312.841 12.311 320.042 13.7601 326.954C15.0021 332.778 17.9361 338.069 20.4471 343.469C23.1441 349.272 25.3777 355.28 27.1271 361.436C29.4151 352.01 31.3131 342.313 30.3421 332.663C29.3711 323.013 25.1661 313.301 17.3001 307.626" fill="white"/>
<path d="M17.06 306.83C8.97003 322.239 16.437 333.579 22.951 347.496C24.8891 351.961 26.5588 356.539 27.951 361.203L26.297 361.235C27.4202 356.553 28.2954 351.816 28.919 347.042C30.86 333.185 28.367 317.328 17.02 308.013C16.9283 307.935 16.8693 307.825 16.8549 307.706C16.8405 307.586 16.8717 307.466 16.9423 307.368C17.0129 307.271 17.1177 307.204 17.2357 307.18C17.3538 307.156 17.4764 307.178 17.579 307.241C30.525 315.699 33.266 333.051 30.979 347.316C30.2226 352.147 29.2112 356.935 27.949 361.659C27.8986 361.838 27.7913 361.996 27.6432 362.109C27.4952 362.222 27.3144 362.284 27.1283 362.285C26.9421 362.286 26.7607 362.226 26.6113 362.115C26.4618 362.004 26.3526 361.848 26.3 361.669C25.0465 357.03 23.5171 352.47 21.72 348.013C18.244 339.092 12.373 330.519 12.657 320.531C12.7266 315.602 13.947 310.758 16.221 306.384C16.2505 306.329 16.2906 306.28 16.3389 306.24C16.3873 306.201 16.4429 306.171 16.5028 306.153C16.5626 306.135 16.6255 306.128 16.6877 306.135C16.75 306.141 16.8104 306.159 16.8655 306.189C16.9207 306.218 16.9695 306.258 17.0092 306.306C17.0488 306.355 17.0786 306.41 17.0968 306.47C17.1149 306.53 17.1211 306.593 17.115 306.655C17.1088 306.717 17.0905 306.778 17.061 306.833" fill="white"/>
<path d="M46.521 342.151C42.782 353.669 43.462 366.28 46.602 377.974C49.742 389.668 55.227 400.59 61.062 411.199C60.562 402.821 61.794 394.448 62.576 386.091C63.358 377.734 63.676 369.162 61.393 361.082C59.11 353.002 53.863 345.397 46.148 342.089" fill="white"/>
<path d="M46.975 342.297C39.311 365.97 50.066 390.397 61.801 410.797L60.224 411.253C59.331 398.46 62.369 385.961 62.024 373.564C61.91 361.481 57.4 348.188 45.963 342.53C45.855 342.475 45.772 342.381 45.7307 342.267C45.6894 342.153 45.693 342.028 45.7407 341.917C45.7884 341.805 45.8767 341.716 45.9876 341.668C46.0985 341.619 46.2238 341.615 46.338 341.655C58.862 346.518 64.223 360.988 64.25 373.507C64.556 386.33 61.292 398.707 61.904 411.152C61.9128 411.341 61.8576 411.528 61.7472 411.683C61.6367 411.837 61.4776 411.949 61.2954 412.002C61.1132 412.055 60.9185 412.044 60.7429 411.973C60.5672 411.901 60.4207 411.773 60.327 411.608C57.458 406.266 54.682 400.858 52.234 395.29C44.886 378.772 40.427 359.714 46.069 342.006C46.1102 341.888 46.1958 341.791 46.3076 341.736C46.4193 341.681 46.5482 341.671 46.6668 341.71C46.7854 341.748 46.8841 341.832 46.9419 341.942C46.9997 342.053 47.012 342.182 46.976 342.301" fill="white"/>
<path d="M64.933 336.924C69.858 353.136 76.624 372.8 87.904 385.448C97.231 395.902 110.004 402.708 119.864 412.658C113.204 404.327 110.894 393.468 107.5 383.358C104.182 373.479 99.61 363.915 93.013 355.847C86.416 347.779 74.987 339.525 64.979 336.606" fill="white"/>
<path d="M65.385 336.784C70.002 351.993 75.243 367.416 84.542 380.445C89.142 386.965 95.375 392.067 101.706 396.899C108.065 401.726 114.684 406.347 120.464 412.056L119.197 413.185C113.897 406.643 111.252 398.595 108.785 390.885C101.992 366.785 89.322 346.013 64.845 337.066C64.7276 337.027 64.6298 336.944 64.5723 336.835C64.5149 336.725 64.5022 336.598 64.5369 336.479C64.5717 336.36 64.6512 336.26 64.7587 336.198C64.8662 336.137 64.9932 336.12 65.113 336.151C73.113 338.308 80.275 342.764 86.62 347.992C99.499 358.604 106.3 374.657 110.781 390.266C113.115 398.008 115.581 405.834 120.523 412.127C120.659 412.297 120.724 412.512 120.706 412.728C120.688 412.945 120.588 413.146 120.425 413.291C120.263 413.435 120.052 413.512 119.835 413.506C119.618 413.499 119.411 413.41 119.258 413.256C113.71 407.592 107.215 402.891 100.904 397.942C94.604 393.01 88.419 387.653 83.733 381.037C74.374 367.849 69.259 352.337 64.474 337.065C64.4421 336.945 64.4578 336.818 64.5178 336.71C64.5778 336.602 64.6775 336.521 64.7957 336.485C64.914 336.449 65.0417 336.461 65.1518 336.517C65.2619 336.573 65.3459 336.67 65.386 336.787" fill="white"/>
<path d="M104.561 345.33C112.109 348.705 117.371 355.687 121.677 362.743C125.983 369.799 129.777 377.352 135.747 383.069C142.947 389.969 152.959 393.823 158.922 401.822C159.067 395.812 157.514 389.891 155.609 384.19C151.238 371.109 144.302 357.973 132.345 351.103C123.38 345.951 112.692 344.946 102.371 344.322" fill="white"/>
<path d="M104.755 344.895C117.355 350.766 122.545 364.495 129.892 375.228C133.584 380.68 138.4 385.279 144.016 388.716C149.468 392.367 155.367 395.864 159.568 401.339L158.113 401.802C158.2 394.422 155.769 387.202 153.126 380.251C150.397 373.327 146.989 366.613 142.226 360.982C132.64 348.737 117.069 345.965 102.344 344.798C102.222 344.784 102.111 344.724 102.032 344.63C101.953 344.537 101.914 344.416 101.921 344.294C101.929 344.172 101.983 344.057 102.073 343.974C102.162 343.891 102.281 343.845 102.403 343.847C117.53 343.835 134.08 346.835 143.922 359.558C148.725 365.538 152.475 372.292 155.011 379.532C157.562 386.632 159.951 394.056 159.732 401.842C159.725 402.008 159.668 402.169 159.567 402.302C159.465 402.434 159.326 402.533 159.167 402.583C159.008 402.634 158.837 402.634 158.678 402.584C158.519 402.535 158.379 402.437 158.277 402.305C154.434 397.087 148.743 393.528 143.308 389.759C137.661 386.122 132.818 381.369 129.075 375.792C121.801 365.121 116.794 351.428 104.375 345.766C103.818 345.537 104.19 344.62 104.764 344.896" fill="white"/>
<path d="M104.281 332.005C113.552 336.674 128.181 339.888 138.425 338.197C148.669 336.506 158.354 332.289 167.325 327.07C159.924 323.492 151.826 321.591 143.606 321.502C135.386 321.413 127.248 323.138 119.772 326.555C114.761 328.889 109.809 332.055 104.281 332.005Z" fill="white"/>
<path d="M104.494 331.579C114.381 336.454 125.373 338.656 136.375 337.966C147.267 336.58 157.521 331.904 166.905 326.346L166.955 327.818C157.14 323.249 146.211 321.623 135.49 323.135C127.29 324.027 119.99 327.56 112.542 330.917C109.93 332.023 107.111 332.556 104.275 332.48C104.154 332.471 104.041 332.417 103.959 332.327C103.877 332.238 103.832 332.121 103.833 332C103.834 331.879 103.881 331.763 103.964 331.675C104.048 331.587 104.162 331.535 104.283 331.528C109.763 331.237 114.359 328.089 119.205 325.706C124.251 323.29 129.644 321.679 135.188 320.931C146.317 319.42 157.642 321.298 167.688 326.319C167.823 326.386 167.938 326.489 168.019 326.616C168.101 326.742 168.147 326.889 168.152 327.04C168.157 327.191 168.121 327.34 168.048 327.472C167.976 327.605 167.868 327.715 167.738 327.791C153.404 335.985 136.409 341.91 119.854 337.713C114.393 336.602 109.089 334.828 104.059 332.43C103.952 332.37 103.872 332.271 103.837 332.153C103.801 332.036 103.812 331.909 103.867 331.799C103.922 331.69 104.018 331.606 104.133 331.565C104.249 331.524 104.376 331.529 104.488 331.579" fill="white"/>
<path d="M61.963 307.417C74.1959 314.29 88.464 316.621 102.248 313.996C111.901 312.123 121.023 307.848 130.78 306.631C123.4 299.518 112.858 296.303 102.61 296.36C92.362 296.417 82.339 299.485 72.934 303.555C69.034 305.243 65.14 307.129 60.934 307.743" fill="white"/>
<path d="M62.1981 307.002C72.5223 312.83 84.3739 315.383 96.1821 314.323C108.11 313.386 118.807 307.423 130.682 305.797L130.202 307.236C121.267 298.892 108.262 296.346 96.3811 297.881C87.2721 298.973 78.5311 302.128 70.0721 305.69C67.1798 306.946 64.1274 307.795 61.0021 308.212C60.8762 308.224 60.7508 308.186 60.6533 308.105C60.5558 308.025 60.4942 307.909 60.4821 307.783C60.4716 307.665 60.5049 307.547 60.5758 307.452C60.6466 307.357 60.7499 307.292 60.8661 307.268C63.8354 306.596 66.7116 305.565 69.4311 304.196C83.3401 297.41 99.4931 292.618 114.917 296.865C121.092 298.473 126.756 301.628 131.373 306.032C131.484 306.143 131.561 306.284 131.597 306.437C131.632 306.59 131.624 306.75 131.573 306.899C131.522 307.047 131.431 307.179 131.309 307.278C131.188 307.378 131.041 307.442 130.885 307.462C125.085 308.135 119.428 309.897 113.747 311.598C96.8101 317.528 77.4811 316.855 61.7291 307.827C61.6231 307.763 61.5463 307.66 61.515 307.54C61.4837 307.42 61.5003 307.293 61.5614 307.185C61.6224 307.077 61.7231 306.998 61.8419 306.963C61.9608 306.928 62.0886 306.941 62.1981 306.999" fill="white"/>
<path d="M-4.14095 672.136C0.535045 696.192 5.85005 720.86 18.85 741.924C30.148 760.136 46.577 776.836 49.057 799.099C49.3917 802.228 49.3719 805.385 48.9981 808.51C48.9816 808.65 48.9116 808.779 48.8026 808.869C48.6936 808.959 48.5541 809.003 48.4132 808.993C48.2723 808.982 48.1409 808.918 48.0464 808.813C47.9519 808.708 47.9016 808.57 47.906 808.429C48.256 782.855 29.406 763.802 17.163 742.938C4.56305 721.316 -0.236955 696.523 -5.21395 672.354C-5.22807 672.283 -5.22816 672.211 -5.21422 672.14C-5.20027 672.07 -5.17257 672.003 -5.13269 671.943C-5.0928 671.883 -5.04152 671.832 -4.98177 671.791C-4.92202 671.751 -4.85498 671.724 -4.78446 671.709C-4.71394 671.695 -4.64133 671.695 -4.57077 671.709C-4.50022 671.723 -4.4331 671.751 -4.37325 671.791C-4.31341 671.831 -4.262 671.882 -4.22197 671.942C-4.18194 672.001 -4.15407 672.068 -4.13996 672.139" fill="white"/>
<path d="M4.02205 709.622C0.524049 729.593 -2.92395 749.939 -11.249 768.566C-11.295 768.656 -11.3722 768.726 -11.4661 768.762C-11.56 768.799 -11.6641 768.801 -11.7589 768.766C-11.8537 768.732 -11.9326 768.664 -11.9809 768.575C-12.0291 768.486 -12.0434 768.383 -12.0209 768.285C-7.97795 753.619 -2.68595 739.356 0.488049 724.454C1.52305 719.494 2.50505 714.516 3.21605 709.495C3.23276 709.387 3.29151 709.291 3.37937 709.227C3.46723 709.162 3.577 709.136 3.68455 709.152C3.79209 709.169 3.8886 709.228 3.95283 709.316C4.01706 709.404 4.04376 709.513 4.02705 709.621" fill="white"/>
<path d="M10.259 726.096C14.181 748.687 17.501 772.111 13.247 794.888C13.2228 794.986 13.1634 795.072 13.0801 795.13C12.9967 795.187 12.8952 795.212 12.7947 795.2C12.6942 795.188 12.6017 795.139 12.5347 795.063C12.4677 794.987 12.4308 794.889 12.431 794.788C13.338 777.608 14.097 760.4 12.12 743.264C11.432 737.564 10.62 731.876 9.45304 726.253C9.43825 726.149 9.46413 726.043 9.52533 725.957C9.58653 725.871 9.67838 725.812 9.78188 725.792C9.88538 725.772 9.99262 725.792 10.0814 725.849C10.1702 725.906 10.2338 725.994 10.259 726.096Z" fill="white"/>
<path d="M0.948049 696.651C14.418 715.66 33.1061 729.84 52.1511 742.868C52.2306 742.93 52.2847 743.019 52.3032 743.118C52.3216 743.217 52.3032 743.32 52.2514 743.407C52.1995 743.493 52.1178 743.558 52.0216 743.588C51.9255 743.619 51.8214 743.613 51.7291 743.573C36.1131 735.646 22.9071 723.618 11.3181 710.641C7.41805 706.327 3.79805 701.77 0.285049 697.141C-0.0329506 696.729 0.627051 696.202 0.946051 696.653" fill="white"/>
<path d="M11.962 728.999C25.925 746.24 42.214 762.425 62.88 771.274C62.9717 771.317 63.0442 771.393 63.0838 771.486C63.1233 771.579 63.1271 771.684 63.0945 771.78C63.0619 771.876 62.9951 771.957 62.9069 772.007C62.8186 772.056 62.7151 772.072 62.616 772.051C46.016 767.58 33.466 754.659 22.305 742.28C18.533 738.122 14.967 733.789 11.331 729.524C10.988 729.13 11.619 728.565 11.962 728.999Z" fill="white"/>
<path d="M-2.83093 739.785C-11.1429 746.104 -16.8609 755.373 -20.3889 765.204C-23.9169 775.035 -25.3999 785.46 -26.4819 795.845C-22.7199 789.661 -17.7289 784.339 -13.0649 778.804C-8.40093 773.269 -3.96493 767.352 -1.60493 760.504C0.755067 753.656 0.774067 745.69 -3.06593 739.554" fill="#F7F7F7"/>
<path d="M-2.58294 740.114C-19.6509 753.112 -24.0449 775.705 -25.7609 795.921L-27.1039 795.467C-21.4449 785.967 -13.1469 778.61 -7.29594 769.657C-1.43694 761.042 1.90406 749.408 -3.41294 739.777C-3.47049 739.684 -3.48882 739.572 -3.46387 739.466C-3.43893 739.359 -3.37277 739.267 -3.27994 739.21C-3.18712 739.152 -3.07523 739.134 -2.9689 739.159C-2.86257 739.184 -2.7705 739.25 -2.71294 739.343C3.76506 748.943 0.447057 761.831 -5.68994 770.712C-11.7779 779.945 -20.1759 787.112 -25.8609 796.224C-25.9482 796.362 -26.0795 796.468 -26.2338 796.522C-26.388 796.577 -26.5563 796.578 -26.7114 796.526C-26.8665 796.474 -26.9994 796.371 -27.0888 796.233C-27.1781 796.096 -27.2187 795.933 -27.2039 795.77C-26.6099 790.576 -25.9149 785.38 -24.9139 780.233C-21.9949 764.919 -15.7819 749.233 -3.07994 739.46C-2.99308 739.393 -2.88344 739.364 -2.77514 739.379C-2.66684 739.393 -2.56875 739.45 -2.50244 739.537C-2.43614 739.624 -2.40705 739.734 -2.42159 739.842C-2.43612 739.95 -2.49308 740.048 -2.57994 740.115" fill="white"/>
<path d="M12.781 745.136C8.29702 759.041 3.42102 776.296 5.19402 790.799C6.66002 802.791 12.359 813.891 14.452 825.789C13.831 816.612 17.535 807.789 20.101 798.955C22.61 790.327 24.074 781.303 23.367 772.344C22.66 763.385 18.624 751.922 12.967 744.936" fill="#F7F7F7"/>
<path d="M13.1721 745.262C6.66506 765.028 1.46606 785.515 9.33906 805.702C11.4711 812.25 13.8871 818.776 15.1731 825.661L13.7221 825.838C12.9751 811.448 21.0411 798.711 22.1101 784.638C24.0096 770.769 20.6343 756.692 12.6521 745.193C12.3241 744.806 12.9581 744.261 13.2911 744.676C27.6841 762.676 26.3911 784.876 18.9831 805.447C16.8431 812.085 14.7761 818.852 15.1831 825.738C15.1982 825.926 15.14 826.112 15.0207 826.259C14.9015 826.405 14.7303 826.499 14.543 826.522C14.3557 826.545 14.1668 826.494 14.0159 826.381C13.8649 826.268 13.7636 826.101 13.7331 825.915C12.5891 819.176 10.2991 812.653 8.26306 806.043C6.22206 799.45 4.47606 792.616 4.40906 785.625C4.41206 778.678 5.22012 771.756 6.81706 764.996C8.33806 758.239 10.2921 751.596 12.3901 745.01C12.426 744.909 12.4996 744.826 12.5954 744.779C12.6912 744.732 12.8016 744.724 12.9032 744.757C13.0048 744.789 13.0897 744.86 13.1399 744.955C13.1901 745.049 13.2016 745.159 13.1721 745.262Z" fill="white"/>
<path d="M36.716 770.575C40.403 776.675 40.697 784.209 40.276 791.325C39.855 798.441 38.831 805.654 40.247 812.64C41.958 821.072 47.147 828.721 47.442 837.317C50.503 833.129 52.312 828.175 53.766 823.201C57.103 811.786 58.647 799.072 53.557 788.329C49.739 780.271 42.664 774.304 35.657 768.789" fill="#F7F7F7"/>
<path d="M37.067 770.363C43.102 780.71 40.03 792.995 39.956 804.21C39.131 816.085 47.341 825.616 48.141 837.296L46.88 836.91C50.572 831.724 52.397 825.41 53.941 819.19C56.163 809.903 56.981 800.01 53.641 790.95C50.23 781.827 42.69 775.337 35.401 769.108C35.3179 769.04 35.2649 768.942 35.2533 768.835C35.2416 768.728 35.2723 768.621 35.3388 768.536C35.4052 768.452 35.5021 768.397 35.6087 768.383C35.7153 768.369 35.8231 768.397 35.909 768.462C43.747 774.143 51.838 780.885 55.399 790.282C60.799 804.09 56.175 825.682 47.999 837.729C47.9124 837.844 47.7926 837.929 47.6557 837.973C47.5189 838.018 47.3718 838.019 47.2343 837.976C47.0969 837.934 46.9758 837.851 46.8875 837.737C46.7993 837.623 46.7481 837.485 46.741 837.342C46.103 826.026 38.17 815.966 39.093 804.204C39.187 793.068 42.374 780.904 36.359 770.787C36.078 770.353 36.791 769.887 37.059 770.363" fill="white"/>
<path d="M43.069 761C47.339 768.866 56.123 778.336 64.209 782.174C72.295 786.012 81.23 787.789 90.152 788.504C86.6694 782.331 81.8677 777.001 76.0892 772.897C70.3108 768.792 63.6979 766.013 56.722 764.757C52.022 763.946 46.961 763.757 43.069 761Z" fill="#F7F7F7"/>
<path d="M43.4311 760.803C54.3071 779.709 69.0251 786.431 90.2091 787.781L89.5211 788.849C87.1992 784.821 84.2849 781.165 80.8761 778.004C74.0754 771.629 65.5997 767.324 56.4411 765.591C51.8541 764.691 46.6901 764.373 42.8291 761.334C42.7492 761.268 42.6973 761.174 42.6836 761.071C42.67 760.968 42.6957 760.864 42.7556 760.779C42.8154 760.694 42.9051 760.635 43.0066 760.614C43.1081 760.592 43.2139 760.61 43.3031 760.663C47.3331 763.153 52.1351 763.181 56.7411 763.881C66.3091 765.466 75.1603 769.949 82.0991 776.725C85.5493 780.077 88.476 783.929 90.7811 788.152C90.8279 788.234 90.858 788.325 90.8696 788.419C90.8812 788.513 90.874 788.608 90.8485 788.699C90.823 788.791 90.7798 788.876 90.7211 788.95C90.6625 789.025 90.5898 789.087 90.5071 789.133C80.7434 788.665 71.1871 786.15 62.4581 781.751C54.2373 776.686 47.441 769.612 42.7091 761.195C42.6613 761.099 42.6525 760.989 42.6844 760.888C42.7164 760.786 42.7867 760.7 42.8804 760.65C42.9742 760.599 43.084 760.586 43.1867 760.615C43.2895 760.643 43.3771 760.711 43.4311 760.803Z" fill="white"/>
<path d="M25.186 722.775C30.4709 733.659 39.4317 742.325 50.486 747.244C58.245 750.663 66.806 752.12 74.317 756.056C72.587 747.39 66.7 739.928 59.417 734.929C52.134 729.93 43.523 727.175 34.859 725.429C31.265 724.707 27.58 724.129 24.299 722.496" fill="#F7F7F7"/>
<path d="M25.5561 722.598C30.002 731.804 37.1412 739.442 46.0271 744.498C54.9351 749.698 65.4431 750.734 74.6521 755.42L73.6071 756.202C71.3811 745.902 63.4201 737.702 54.2501 732.946C47.2621 729.241 39.5221 727.18 31.7791 725.546C29.1128 725.014 26.5329 724.115 24.1131 722.876C24.0659 722.85 24.0244 722.814 23.9909 722.772C23.9575 722.73 23.9327 722.681 23.918 722.629C23.9033 722.577 23.899 722.523 23.9054 722.469C23.9117 722.416 23.9286 722.364 23.9551 722.317C24.0052 722.228 24.0866 722.16 24.1836 722.128C24.2805 722.095 24.3861 722.099 24.4801 722.14C26.914 723.122 29.4583 723.805 32.0571 724.174C40.0071 725.461 47.9631 727.416 55.1491 731.251C64.7371 736.251 72.9411 745.045 75.0271 755.922C75.0465 756.015 75.0472 756.112 75.029 756.206C75.0108 756.3 74.9741 756.389 74.9211 756.469C74.8681 756.548 74.7997 756.617 74.72 756.669C74.6404 756.722 74.551 756.759 74.4571 756.777C65.2381 752.277 54.6171 750.467 45.5971 745.251C36.6194 740.034 29.3882 732.274 24.8161 722.952C24.7726 722.854 24.7689 722.744 24.8056 722.643C24.8424 722.543 24.9167 722.461 25.013 722.415C25.1092 722.368 25.2197 722.361 25.321 722.395C25.4224 722.428 25.5067 722.5 25.5561 722.595" fill="white"/>
<path d="M12.526 566.77C14.774 614.405 35.489 661.254 69.511 694.744C80.9056 705.991 94.0766 715.282 108.494 722.244C108.7 722.339 108.935 722.352 109.15 722.281C109.366 722.211 109.547 722.061 109.657 721.862C109.767 721.664 109.798 721.431 109.744 721.211C109.689 720.99 109.554 720.798 109.364 720.674C96.1278 712.269 83.7588 702.57 72.439 691.721C50.181 669.941 32.039 642.821 22.551 613.03C17.6912 598.037 14.9218 582.446 14.321 566.697C14.3163 566.579 14.2884 566.463 14.2388 566.355C14.1892 566.248 14.1189 566.151 14.032 566.071C13.9451 565.991 13.8432 565.928 13.7322 565.888C13.6212 565.847 13.5032 565.828 13.385 565.833C13.2669 565.838 13.1508 565.866 13.0434 565.915C12.936 565.965 12.8394 566.035 12.7592 566.122C12.679 566.209 12.6166 566.311 12.5758 566.422C12.5349 566.533 12.5163 566.651 12.521 566.769" fill="white"/>
<path d="M12.526 566.77C14.774 614.405 35.489 661.254 69.511 694.744C80.9056 705.991 94.0766 715.282 108.494 722.244C108.7 722.339 108.935 722.352 109.15 722.281C109.366 722.211 109.547 722.061 109.657 721.862C109.767 721.664 109.798 721.431 109.744 721.211C109.689 720.99 109.554 720.798 109.364 720.674C96.1278 712.269 83.7588 702.57 72.439 691.721C50.181 669.941 32.039 642.821 22.551 613.03C17.6912 598.037 14.9218 582.446 14.321 566.697C14.3163 566.579 14.2884 566.463 14.2388 566.355C14.1892 566.248 14.1189 566.151 14.032 566.071C13.9451 565.991 13.8432 565.928 13.7322 565.888C13.6212 565.847 13.5032 565.828 13.385 565.833C13.2669 565.838 13.1508 565.866 13.0434 565.915C12.936 565.965 12.8394 566.035 12.7592 566.122C12.679 566.209 12.6166 566.311 12.5758 566.422C12.5349 566.533 12.5163 566.651 12.521 566.769L12.526 566.77Z" stroke="white" stroke-width="0.5" stroke-miterlimit="10"/>
<path d="M69.101 690.126C73.301 698.117 77.761 705.951 82.034 713.873C86.306 721.768 89.857 730.139 95.172 737.583L95.443 736.43C84.628 740.323 80.316 726.56 79.082 718.209C77.3 708.488 76.492 697.604 69.87 689.643C69.7937 689.557 69.6878 689.503 69.5736 689.492C69.4593 689.481 69.345 689.513 69.2534 689.582C69.1618 689.651 69.0996 689.752 69.0791 689.865C69.0587 689.978 69.0815 690.095 69.143 690.192C78.87 703.092 72.813 731.411 88.199 738.064C89.4706 738.59 90.8397 738.839 92.2151 738.795C93.5905 738.751 94.9408 738.414 96.176 737.808C96.2662 737.76 96.3461 737.695 96.4111 737.617C96.4762 737.538 96.525 737.448 96.555 737.351C96.5849 737.253 96.5953 737.151 96.5855 737.049C96.5757 736.948 96.546 736.849 96.498 736.76C93.839 733.111 91.4279 729.287 89.281 725.316C83.217 713.703 75.881 701.263 69.911 689.705C69.8557 689.597 69.7601 689.516 69.6451 689.48C69.5302 689.443 69.4053 689.453 69.298 689.509C69.1907 689.564 69.1098 689.66 69.0731 689.775C69.0363 689.889 69.0467 690.014 69.102 690.122" fill="white"/>
<path d="M69.1011 690.126C73.3011 698.117 77.7611 705.951 82.0341 713.873C86.3061 721.768 89.8571 730.139 95.1721 737.583L95.4431 736.43C84.6281 740.323 80.3161 726.56 79.0821 718.209C77.3001 708.488 76.4921 697.604 69.8701 689.643C69.7937 689.557 69.6879 689.503 69.5736 689.492C69.4594 689.481 69.345 689.513 69.2534 689.582C69.1618 689.651 69.0996 689.752 69.0791 689.865C69.0587 689.978 69.0815 690.095 69.1431 690.192C78.8701 703.092 72.8131 731.411 88.1991 738.064C89.4707 738.59 90.8397 738.839 92.2151 738.795C93.5905 738.751 94.9408 738.414 96.1761 737.808C96.2662 737.76 96.3461 737.695 96.4112 737.617C96.4762 737.538 96.5251 737.448 96.555 737.351C96.5849 737.253 96.5953 737.151 96.5855 737.049C96.5758 736.948 96.546 736.849 96.4981 736.76C93.8391 733.111 91.428 729.287 89.2811 725.316C83.2171 713.703 75.8811 701.263 69.9111 689.705C69.8834 689.651 69.8456 689.604 69.7997 689.566C69.7538 689.527 69.7007 689.498 69.6436 689.48C69.5864 689.462 69.5263 689.455 69.4666 689.46C69.4069 689.466 69.3487 689.482 69.2956 689.51C69.2424 689.538 69.1952 689.576 69.1566 689.621C69.118 689.667 69.0889 689.72 69.0708 689.778C69.0528 689.835 69.0461 689.895 69.0513 689.955C69.0565 690.014 69.0734 690.072 69.1011 690.126Z" stroke="white" stroke-width="0.5" stroke-miterlimit="10"/>
<path d="M49.833 670.985C55.7743 674.732 62.1258 677.785 68.763 680.085C72.62 681.376 78.255 682.924 81.798 684.798C88.073 688.052 92.744 693.482 99.723 695.834L99.583 694.012C94.559 696.381 88.547 695.028 83.896 692.292C79.077 689.406 75.224 685.038 71.234 680.813C71.1528 680.735 71.0457 680.689 70.9331 680.685C70.8205 680.681 70.7103 680.719 70.6237 680.791C70.5371 680.863 70.48 680.964 70.4635 681.076C70.4469 681.187 70.472 681.301 70.534 681.395C76.688 690.801 88.387 701.452 100.448 695.778C100.626 695.692 100.774 695.554 100.872 695.383C100.971 695.212 101.015 695.015 101 694.818C100.985 694.621 100.911 694.433 100.788 694.278C100.665 694.124 100.498 694.01 100.309 693.952C93.801 692.015 88.596 686.567 82.379 683.622C75.963 680.736 68.94 679.666 62.579 676.717C58.3123 674.913 54.2122 672.738 50.326 670.217C49.846 669.892 49.311 670.668 49.835 670.984" fill="white"/>
<path d="M49.833 670.985C55.7743 674.732 62.1258 677.785 68.763 680.085C72.62 681.376 78.255 682.924 81.798 684.798C88.073 688.052 92.744 693.482 99.723 695.834L99.583 694.012C94.559 696.381 88.547 695.028 83.896 692.292C79.077 689.406 75.224 685.038 71.234 680.813C71.1528 680.735 71.0457 680.689 70.9331 680.685C70.8205 680.681 70.7103 680.719 70.6237 680.791C70.5371 680.863 70.48 680.964 70.4635 681.076C70.4469 681.187 70.472 681.301 70.534 681.395C76.688 690.801 88.387 701.452 100.448 695.778C100.626 695.692 100.774 695.554 100.872 695.383C100.971 695.212 101.015 695.015 101 694.818C100.985 694.621 100.911 694.433 100.788 694.278C100.665 694.124 100.498 694.01 100.309 693.952C93.801 692.015 88.596 686.567 82.379 683.622C75.963 680.736 68.94 679.666 62.579 676.717C58.3123 674.913 54.2122 672.738 50.326 670.217C49.845 669.893 49.31 670.669 49.833 670.985Z" stroke="white" stroke-width="0.5" stroke-miterlimit="10"/>
<path d="M41.516 654.882C47.1071 662.761 50.5169 671.978 51.4 681.6C53.051 691.172 53.4 700.651 50.91 710.117L52.529 709.696C50.3839 707.027 48.8426 703.924 48.0112 700.603C47.1798 697.281 47.0781 693.818 47.713 690.454C48.935 683.631 52.689 676.219 49.803 669.191C49.7528 669.088 49.6661 669.008 49.5598 668.966C49.4536 668.925 49.3355 668.924 49.229 668.965C49.1224 669.006 49.0349 669.085 48.9839 669.187C48.9328 669.289 48.9218 669.407 48.953 669.517C50.79 676.441 46.939 683.198 45.642 690.047C44.9089 693.712 45.031 697.497 45.999 701.107C46.09 702.707 51.207 714.183 52.731 710.471C54.966 700.971 54.363 690.941 52.415 681.442C51.3496 671.721 47.8674 662.423 42.286 654.394C41.986 653.901 41.185 654.374 41.516 654.882Z" fill="white"/>
<path d="M41.5161 654.882C47.1072 662.761 50.5169 671.978 51.4001 681.6C53.0511 691.172 53.4001 700.651 50.9101 710.117L52.5291 709.696C50.3839 707.027 48.8426 703.924 48.0112 700.603C47.1798 697.281 47.0781 693.818 47.7131 690.454C48.9351 683.631 52.6891 676.219 49.8031 669.191C49.7529 669.088 49.6661 669.008 49.5598 668.966C49.4536 668.925 49.3356 668.924 49.229 668.965C49.1224 669.006 49.035 669.085 48.9839 669.187C48.9328 669.289 48.9218 669.407 48.9531 669.517C50.7901 676.441 46.9391 683.198 45.6421 690.047C44.9089 693.712 45.0311 697.497 45.9991 701.107C46.0901 702.707 51.2071 714.183 52.7311 710.471C54.9661 700.971 54.3631 690.941 52.4151 681.442C51.3497 671.721 47.8674 662.423 42.2861 654.394C41.9821 653.901 41.1811 654.374 41.5161 654.882Z" stroke="white" stroke-width="0.5" stroke-miterlimit="10"/>
<path d="M108.136 721.125C128.869 719.422 149.739 720.668 170.122 724.825C174.422 725.464 177.983 727.436 176.348 732.303C173.582 740.551 163.873 742.276 156.158 742.903C156.032 742.917 155.912 742.963 155.809 743.037C155.707 743.111 155.625 743.21 155.571 743.325C155.518 743.44 155.495 743.567 155.505 743.693C155.515 743.819 155.558 743.941 155.628 744.046C157.869 747.413 160.121 750.815 160.977 754.626C162.431 760.108 159.267 767.064 153.028 766.626C147.036 766.183 142.401 761.788 137.952 757.982C131.893 752.622 126.33 746.728 121.328 740.371C116.315 733.99 111.714 727.297 107.552 720.332C107.498 720.239 107.409 720.172 107.305 720.144C107.201 720.117 107.09 720.132 106.998 720.186C106.905 720.241 106.837 720.329 106.81 720.433C106.783 720.537 106.798 720.648 106.852 720.741C110.682 727.966 115.076 734.877 119.993 741.411C127.669 750.982 135.946 760.521 146.769 766.679C153.038 770.091 160.869 768.299 162.537 760.699C164.164 754.31 160.281 748.137 156.848 743.23L156.32 744.372C164.363 743.645 174.659 741.513 177.449 732.634C178.115 730.534 178.033 727.867 176.31 726.245C174.587 724.623 172.327 724.261 170.318 723.861C166.226 723.052 162.102 722.414 157.978 721.805C141.449 719.455 124.71 718.956 108.071 720.318C107.964 720.327 107.865 720.378 107.795 720.459C107.725 720.541 107.691 720.648 107.7 720.755C107.709 720.862 107.76 720.961 107.842 721.031C107.924 721.1 108.03 721.135 108.137 721.126" fill="white"/>
<path d="M108.136 721.125C128.869 719.422 149.739 720.668 170.122 724.825C174.422 725.464 177.983 727.436 176.348 732.303C173.582 740.551 163.873 742.276 156.158 742.903C156.032 742.917 155.912 742.963 155.809 743.037C155.707 743.111 155.625 743.21 155.571 743.325C155.518 743.44 155.495 743.567 155.505 743.693C155.515 743.819 155.558 743.941 155.628 744.046C157.869 747.413 160.121 750.815 160.977 754.626C162.431 760.108 159.267 767.064 153.028 766.626C147.036 766.183 142.401 761.788 137.952 757.982C131.893 752.622 126.33 746.728 121.328 740.371C116.315 733.99 111.714 727.297 107.552 720.332C107.498 720.239 107.409 720.172 107.305 720.144C107.201 720.117 107.09 720.132 106.998 720.186C106.905 720.241 106.837 720.329 106.81 720.433C106.783 720.537 106.798 720.648 106.852 720.741C110.682 727.966 115.076 734.877 119.993 741.411C127.669 750.982 135.946 760.521 146.769 766.679C153.038 770.091 160.869 768.299 162.537 760.699C164.164 754.31 160.281 748.137 156.848 743.23L156.32 744.372C164.363 743.645 174.659 741.513 177.449 732.634C178.115 730.534 178.033 727.867 176.31 726.245C174.587 724.623 172.327 724.261 170.318 723.861C166.226 723.052 162.102 722.414 157.978 721.805C141.449 719.455 124.71 718.956 108.071 720.318C107.966 720.33 107.871 720.381 107.804 720.463C107.737 720.544 107.704 720.648 107.712 720.753C107.721 720.858 107.77 720.955 107.849 721.025C107.928 721.094 108.031 721.13 108.136 721.125Z" stroke="white" stroke-width="0.5" stroke-miterlimit="10"/>
<path d="M151.867 721.809C156.551 720.009 163.248 716.97 161.998 710.809C161.735 708.931 159.738 707.883 158.722 706.626C158.351 705.93 158.268 705.116 158.49 704.359C158.853 696.489 148.49 696.807 143.065 697.915C132.438 700.143 123.321 706.059 114.693 712.315C111.871 714.571 109.514 717.352 107.752 720.506C107.701 720.599 107.688 720.708 107.716 720.81C107.744 720.912 107.81 720.999 107.902 721.053C107.993 721.106 108.102 721.122 108.204 721.097C108.307 721.071 108.396 721.007 108.452 720.917C112.539 715.171 118.573 711.587 124.511 707.962C131.842 703.471 139.705 699.041 148.463 698.632C152.263 698.2 157.99 699.495 157.625 704.259C157.384 705.219 157.523 706.236 158.015 707.096C158.603 707.794 159.27 708.421 160.002 708.967C163.34 712.336 160.019 717.341 156.344 718.915C154.807 719.734 153.215 720.445 151.579 721.042C151.481 721.082 151.402 721.158 151.359 721.256C151.317 721.353 151.314 721.463 151.352 721.562C151.389 721.661 151.464 721.742 151.561 721.787C151.657 721.831 151.767 721.836 151.867 721.801" fill="white"/>
<path d="M151.867 721.809C156.551 720.009 163.248 716.97 161.998 710.809C161.735 708.931 159.738 707.883 158.722 706.626C158.351 705.93 158.268 705.116 158.49 704.359C158.853 696.489 148.49 696.807 143.065 697.915C132.438 700.143 123.321 706.059 114.693 712.315C111.871 714.571 109.514 717.352 107.752 720.506C107.701 720.598 107.688 720.707 107.716 720.81C107.744 720.912 107.81 720.999 107.902 721.053C107.993 721.106 108.102 721.122 108.204 721.097C108.307 721.071 108.396 721.007 108.452 720.917C112.539 715.171 118.573 711.587 124.511 707.962C131.842 703.471 139.705 699.041 148.463 698.632C152.263 698.2 157.99 699.495 157.625 704.259C157.384 705.219 157.523 706.236 158.015 707.096C158.603 707.794 159.27 708.421 160.002 708.967C163.34 712.336 160.019 717.341 156.344 718.915C154.807 719.734 153.215 720.444 151.579 721.042C151.477 721.08 151.395 721.157 151.35 721.256C151.305 721.355 151.301 721.468 151.34 721.569C151.378 721.671 151.455 721.753 151.554 721.798C151.653 721.843 151.765 721.847 151.867 721.809Z" stroke="white" stroke-width="0.5" stroke-miterlimit="10"/>
<path d="M138.753 759.941C139.535 762.697 139.823 765.921 138.215 768.413C136.798 770.674 132.979 771.841 130.997 769.739C130.961 769.698 130.916 769.665 130.867 769.642C130.818 769.618 130.764 769.605 130.71 769.602C130.655 769.599 130.601 769.607 130.549 769.625C130.498 769.644 130.45 769.672 130.41 769.709C129.562 772.354 126.61 773.609 123.961 773.219C121.334 772.93 119.218 770.959 117.776 768.745C112.432 759.115 111.019 747.663 108.633 737.028C107.724 731.593 106.905 726.077 107.602 720.628C107.61 720.575 107.608 720.521 107.595 720.47C107.583 720.418 107.56 720.369 107.528 720.326C107.497 720.283 107.457 720.246 107.411 720.219C107.366 720.191 107.315 720.173 107.262 720.165C107.163 720.152 107.062 720.175 106.979 720.23C106.895 720.285 106.835 720.369 106.808 720.465C104.851 728.779 106.694 737.421 108.474 745.587C110.707 753.828 113.687 772.936 123.853 774.215C126.766 774.508 130.183 773.168 131.093 770.15L130.386 770.315C132.841 772.827 137.14 771.54 138.866 768.834C140.574 766.106 140.335 762.692 139.536 759.734C139.507 759.63 139.439 759.543 139.345 759.49C139.251 759.437 139.141 759.423 139.037 759.452C138.933 759.481 138.846 759.55 138.793 759.643C138.74 759.737 138.726 759.847 138.755 759.951" fill="white"/>
<path d="M138.753 759.941C139.535 762.697 139.823 765.921 138.215 768.413C136.798 770.674 132.979 771.841 130.997 769.739C130.961 769.698 130.916 769.665 130.867 769.642C130.818 769.618 130.764 769.605 130.71 769.602C130.655 769.599 130.601 769.607 130.549 769.625C130.498 769.644 130.45 769.672 130.41 769.709C129.562 772.354 126.61 773.609 123.961 773.219C121.334 772.93 119.218 770.959 117.776 768.745C112.432 759.115 111.019 747.663 108.633 737.028C107.724 731.593 106.905 726.077 107.602 720.628C107.61 720.575 107.608 720.521 107.595 720.47C107.583 720.418 107.56 720.369 107.528 720.326C107.497 720.283 107.457 720.246 107.411 720.219C107.366 720.191 107.315 720.173 107.262 720.165C107.163 720.152 107.062 720.175 106.979 720.23C106.895 720.285 106.835 720.369 106.808 720.465C104.851 728.779 106.694 737.421 108.474 745.587C110.707 753.828 113.687 772.936 123.853 774.215C126.766 774.508 130.183 773.168 131.093 770.15L130.386 770.315C132.841 772.827 137.14 771.54 138.866 768.834C140.574 766.106 140.335 762.692 139.536 759.734C139.507 759.632 139.439 759.545 139.347 759.492C139.255 759.439 139.145 759.425 139.043 759.452C138.94 759.479 138.852 759.546 138.798 759.637C138.744 759.729 138.727 759.838 138.753 759.941Z" stroke="white" stroke-width="0.5" stroke-miterlimit="10"/>
<path d="M157.592 706.475C155.177 710.096 150.281 710.057 146.33 709.77C142.052 709.423 137.749 709.538 133.495 710.113C125.023 711.313 116.517 714.377 109.984 720.032C109.911 720.099 109.864 720.191 109.853 720.29C109.843 720.389 109.868 720.488 109.926 720.57C109.983 720.651 110.068 720.709 110.165 720.732C110.262 720.755 110.364 720.742 110.452 720.695C121.376 714.468 133.543 709.96 146.285 710.626C150.458 710.9 155.585 710.759 158.27 706.921C158.325 706.831 158.343 706.723 158.32 706.62C158.297 706.518 158.235 706.428 158.147 706.37C158.059 706.312 157.952 706.291 157.848 706.31C157.745 706.33 157.653 706.389 157.592 706.475Z" fill="white"/>
<path d="M157.592 706.475C155.177 710.096 150.281 710.057 146.33 709.77C142.052 709.423 137.749 709.538 133.495 710.113C125.023 711.313 116.517 714.377 109.984 720.032C109.911 720.099 109.864 720.191 109.853 720.29C109.843 720.389 109.868 720.488 109.926 720.57C109.983 720.651 110.068 720.709 110.165 720.732C110.262 720.755 110.364 720.742 110.452 720.695C121.376 714.468 133.543 709.96 146.285 710.626C150.458 710.9 155.585 710.759 158.27 706.921C158.325 706.831 158.343 706.723 158.32 706.62C158.297 706.518 158.235 706.428 158.147 706.37C158.059 706.312 157.952 706.291 157.848 706.31C157.745 706.33 157.653 706.389 157.592 706.475Z" stroke="white" stroke-width="0.5" stroke-miterlimit="10"/>
<path d="M130.464 769.531C129.537 764.948 126.506 761.365 123.969 757.788C116.708 746.906 109.633 735.126 107.929 721.955C107.917 721.856 107.869 721.765 107.795 721.699C107.721 721.633 107.626 721.596 107.527 721.595C107.427 721.595 107.331 721.63 107.256 721.695C107.181 721.759 107.132 721.849 107.118 721.948C106.536 735.771 115.618 747.608 123.268 758.294C125.846 761.88 128.945 765.329 129.668 769.672C129.677 769.724 129.697 769.774 129.725 769.819C129.754 769.864 129.791 769.903 129.835 769.934C129.879 769.964 129.928 769.986 129.98 769.998C130.032 770.009 130.086 770.01 130.139 770.001C130.191 769.992 130.241 769.972 130.286 769.944C130.331 769.915 130.37 769.878 130.401 769.834C130.431 769.79 130.453 769.741 130.465 769.689C130.476 769.637 130.477 769.583 130.468 769.531" fill="white"/>
<path d="M130.464 769.531C129.537 764.948 126.506 761.365 123.969 757.788C116.708 746.906 109.633 735.126 107.929 721.955C107.917 721.856 107.869 721.766 107.795 721.7C107.721 721.633 107.626 721.597 107.527 721.596C107.427 721.595 107.331 721.63 107.256 721.695C107.181 721.76 107.132 721.85 107.118 721.948C106.536 735.771 115.618 747.608 123.268 758.294C125.846 761.88 128.945 765.329 129.668 769.672C129.695 769.769 129.757 769.853 129.843 769.907C129.928 769.961 130.031 769.981 130.13 769.964C130.23 769.946 130.319 769.892 130.381 769.812C130.443 769.732 130.472 769.632 130.464 769.531Z" stroke="white" stroke-width="0.5" stroke-miterlimit="10"/>
<path d="M156.175 743.542C154.641 741.804 152.678 740.498 150.483 739.753C144.373 736.982 137.74 735.218 131.456 733.073C123.149 730.16 114.906 726.497 108.404 720.448C108.327 720.372 108.223 720.33 108.115 720.331C108.008 720.332 107.905 720.376 107.829 720.453C107.761 720.524 107.72 720.617 107.715 720.716C107.71 720.814 107.74 720.912 107.8 720.99C113.573 728.15 122.383 731.961 130.884 734.79C137.318 736.934 143.984 737.751 150.167 740.508C152.228 741.324 154.281 742.258 155.53 744.035C155.83 744.478 156.53 743.968 156.176 743.544" fill="white"/>
<path d="M156.175 743.542C154.641 741.804 152.678 740.498 150.483 739.753C144.373 736.982 137.74 735.218 131.456 733.073C123.149 730.16 114.906 726.497 108.404 720.448C108.327 720.372 108.223 720.331 108.115 720.332C108.008 720.332 107.905 720.376 107.829 720.453C107.761 720.524 107.72 720.618 107.715 720.716C107.71 720.815 107.74 720.912 107.8 720.99C113.573 728.15 122.383 731.961 130.884 734.79C137.318 736.934 143.984 737.751 150.167 740.508C152.228 741.324 154.281 742.258 155.53 744.035C155.827 744.476 156.535 743.966 156.175 743.542Z" stroke="white" stroke-width="0.5" stroke-miterlimit="10"/>
<path d="M-11.684 163.699C-5.85399 139.722 -0.183988 115.11 13.168 93.9479C26.133 73.5329 45.653 55.1479 46.2 29.5809C46.1944 29.435 46.247 29.2929 46.3463 29.1858C46.4455 29.0787 46.5831 29.0154 46.729 29.0099C46.8749 29.0043 47.017 29.0569 47.1241 29.1561C47.2312 29.2553 47.2944 29.393 47.3 29.5389C47.5641 32.6751 47.4725 35.8312 47.027 38.9469C43.759 61.1109 26.758 77.2149 14.827 95.0189C1.09001 115.611 -5.09599 140.073 -10.618 163.951C-10.6345 164.021 -10.6647 164.087 -10.7067 164.145C-10.7488 164.203 -10.8019 164.253 -10.863 164.29C-10.9242 164.328 -10.9922 164.354 -11.0631 164.365C-11.1341 164.377 -11.2066 164.374 -11.2765 164.357C-11.3464 164.341 -11.4124 164.311 -11.4707 164.269C-11.529 164.227 -11.5784 164.173 -11.6161 164.112C-11.6539 164.051 -11.6792 163.983 -11.6907 163.912C-11.7021 163.841 -11.7005 163.769 -11.684 163.699Z" fill="white"/>
<path d="M4.87502 110.351C10.444 87.989 10.816 64.876 10.268 41.962C10.2714 41.8608 10.3117 41.7644 10.3814 41.691C10.451 41.6175 10.5452 41.5721 10.646 41.5633C10.7469 41.5546 10.8475 41.5831 10.9287 41.6435C11.01 41.7039 11.0663 41.792 11.087 41.891C13.803 59.044 11.807 76.568 8.99902 93.58C8.08902 99.271 6.89902 104.907 5.67602 110.536C5.64745 110.638 5.58077 110.725 5.48984 110.779C5.3989 110.832 5.2907 110.849 5.18772 110.825C5.08475 110.802 4.9949 110.739 4.93685 110.651C4.8788 110.562 4.85602 110.455 4.87502 110.351Z" fill="white"/>
<path d="M-5.31096 139.122C9.37804 121.241 26.589 104.49 47.737 94.5308C47.8312 94.4904 47.937 94.4865 48.034 94.5196C48.1309 94.5528 48.2121 94.6207 48.2619 94.7103C48.3117 94.7998 48.3264 94.9047 48.3034 95.0045C48.2803 95.1044 48.221 95.1921 48.137 95.2508C33.572 104.651 19.037 114.221 6.81504 126.625C2.74302 130.739 -1.0912 135.083 -4.66896 139.634C-4.97996 140.051 -5.66796 139.545 -5.31096 139.122Z" fill="white"/>
<path d="M6.86603 107.147C21.932 91.0467 37.247 71.9677 59.618 66.4537C59.7183 66.4343 59.8222 66.4527 59.9096 66.5054C59.9971 66.5581 60.0619 66.6413 60.0916 66.739C60.1213 66.8367 60.1138 66.9419 60.0705 67.0344C60.0271 67.1269 59.9511 67.2 59.857 67.2397C44.215 73.3187 30.701 83.5897 18.905 95.3937C14.99 99.3867 11.155 103.467 7.47803 107.694C7.14503 108.094 6.48503 107.549 6.86603 107.147Z" fill="white"/>
<path d="M8.86605 91.5947C4.87505 77.5417 0.609052 60.1247 2.89305 45.6947C4.78105 33.7637 10.8671 22.8697 13.3791 11.0547C12.4351 20.2017 15.8261 29.1547 18.0791 38.0707C20.2791 46.7837 21.4261 55.8527 20.4041 64.7807C19.3821 73.7087 14.9441 85.0227 9.05005 91.8057" fill="#F7F7F7"/>
<path d="M8.47104 91.7079C2.69304 71.3739 -1.80596 50.9259 6.49604 30.5669C8.76404 24.0349 11.281 17.5938 12.663 10.8998C12.7001 10.7147 12.8073 10.551 12.9622 10.4431C13.1172 10.3351 13.3078 10.2911 13.4944 10.3204C13.6809 10.3497 13.849 10.45 13.9633 10.6003C14.0777 10.7506 14.1295 10.9393 14.108 11.1269C13.46 17.9939 15.286 24.8268 17.192 31.5388C21.245 44.9388 23.84 59.7459 19.435 73.4529C17.285 80.2119 14.135 86.7609 9.35904 92.0729C9.28588 92.1538 9.18365 92.2023 9.07474 92.2079C8.96583 92.2136 8.85913 92.1758 8.77804 92.1029C21.923 72.1249 22.223 54.8259 15.55 31.9949C13.728 25.2579 11.857 18.1949 12.65 10.9769L14.094 11.2039C12.566 18.0399 9.92104 24.4778 7.56204 30.9438C-1.01796 50.8438 3.45504 71.5038 9.26204 91.4828C9.41804 91.9728 8.60704 92.2388 8.47104 91.7068" fill="white"/>
<path d="M33.6831 67.0159C37.5831 61.0479 38.1441 53.5319 37.9741 46.4039C37.8041 39.2759 37.0331 32.0329 38.6961 25.1039C40.7031 16.7399 46.1631 9.27689 46.7561 0.695892C49.6651 4.98689 51.3011 10.0059 52.5781 15.0289C55.5091 26.5529 56.6061 39.3139 51.1391 49.8739C47.0391 57.7919 39.7591 63.5069 32.5651 68.7739" fill="#F7F7F7"/>
<path d="M33.3391 66.7916C41.3311 54.2036 34.9731 38.6596 38.2621 24.9026C40.1921 16.6326 45.5111 9.11662 46.0621 0.644615C46.0738 0.500975 46.1296 0.364477 46.2219 0.253746C46.3141 0.143015 46.4383 0.0634855 46.5775 0.0259628C46.7166 -0.0115598 46.864 -0.00525191 46.9994 0.0440903C47.1348 0.0934325 47.2517 0.183409 47.3341 0.301659C51.1251 5.84566 52.8551 12.3446 54.3171 18.6826C57.2631 31.3456 56.8071 46.2056 47.8091 56.4596C43.5091 61.5366 38.1931 65.4756 32.8091 69.1016C32.7211 69.1661 32.6112 69.193 32.5035 69.1764C32.3957 69.1598 32.299 69.1011 32.2346 69.0131C32.1701 68.9252 32.1432 68.8153 32.1598 68.7075C32.1764 68.5998 32.2351 68.5031 32.3231 68.4386C37.3911 64.4036 42.4911 60.3486 46.4451 55.3466C54.9071 45.3186 55.2151 31.3656 52.6151 19.0466C51.2891 12.7716 49.6871 6.40162 46.1811 1.08962L47.4511 0.746605C46.2511 12.3886 37.7021 21.6276 38.1091 33.5236C37.7881 44.7336 40.4241 57.1176 34.0291 67.2466C33.7501 67.6836 33.0351 67.2516 33.3411 66.7976" fill="white"/>
<path d="M39.6951 76.8096C44.2401 69.0986 53.3511 59.9446 61.5671 56.3926C69.7831 52.8406 78.7751 51.3816 87.7171 50.9826C84.0187 57.0288 79.0322 62.1849 73.1129 66.0834C67.1937 69.9818 60.4874 72.5267 53.4721 73.5366C48.7491 74.1816 43.6811 74.1966 39.6951 76.8096Z" fill="#F7F7F7"/>
<path d="M39.3421 76.6007C51.0041 58.0417 66.3421 51.3747 87.6851 50.2627C87.8152 50.2571 87.9445 50.2868 88.0591 50.3488C88.1738 50.4108 88.2695 50.5026 88.336 50.6147C88.4026 50.7267 88.4376 50.8546 88.4372 50.985C88.4369 51.1153 88.4012 51.243 88.3341 51.3547C83.3911 59.6828 76.0526 66.3275 67.2761 70.4217C60.8231 73.6857 53.4941 74.4837 46.4331 75.1217C44.1505 75.3668 41.9379 76.0561 39.9201 77.1507C39.8292 77.2041 39.7212 77.2206 39.6185 77.1967C39.5158 77.1728 39.4262 77.1103 39.3683 77.0222C39.3104 76.9341 39.2885 76.8271 39.3073 76.7233C39.326 76.6195 39.3839 76.527 39.4691 76.4647C43.4381 73.5647 48.6091 73.4297 53.2241 72.6907C60.1168 71.6332 66.7043 69.1165 72.5463 65.3087C78.3883 61.501 83.3501 56.49 87.1001 50.6107L87.7491 51.7027C66.5211 52.3027 51.5781 58.5177 40.0491 77.0177C39.7981 77.4807 39.0501 77.0627 39.3421 76.6007Z" fill="white"/>
<path d="M20.477 114.38C26.1424 103.689 35.4027 95.3443 46.623 90.8181C54.498 87.6751 63.106 86.5181 70.75 82.8511C68.716 91.4511 62.569 98.7011 55.112 103.44C47.655 108.179 38.954 110.63 30.234 112.063C26.616 112.663 22.915 113.106 19.576 114.622" fill="#F7F7F7"/>
<path d="M20.111 114.189C27.326 100.296 41.028 90.7887 56.077 87.1887C60.9989 85.9474 65.8031 84.2791 70.435 82.2027C70.52 82.161 70.6123 82.1365 70.7067 82.1305C70.8012 82.1245 70.8959 82.1372 70.9854 82.1679C71.0749 82.1985 71.1576 82.2465 71.2285 82.3091C71.2995 82.3717 71.3574 82.4477 71.399 82.5327C69.59 93.5147 60.425 102.261 50.718 106.973C45.8189 109.28 40.6499 110.964 35.332 111.986C30.144 113.105 24.703 113.103 19.744 114.998C19.6453 115.041 19.5336 115.043 19.4331 115.004C19.3326 114.966 19.2514 114.889 19.207 114.791C19.1626 114.693 19.1586 114.581 19.1958 114.48C19.2331 114.379 19.3086 114.297 19.406 114.251C21.8676 113.097 24.477 112.289 27.16 111.851C34.96 110.49 42.766 108.701 49.88 105.245C59.212 100.818 67.457 92.9027 70.043 82.6857L71.061 83.5047C61.694 87.8627 51.152 88.5277 42.069 93.4107C37.5705 95.7734 33.4503 98.7951 29.845 102.376C26.2324 105.954 23.1943 110.07 20.838 114.576C20.613 115.049 19.838 114.67 20.111 114.194" fill="white"/>
<path d="M8.92204 270.397C11.17 222.762 31.885 175.913 65.907 142.423C77.3017 131.176 90.4726 121.885 104.89 114.923C105.096 114.828 105.331 114.815 105.546 114.885C105.762 114.956 105.943 115.106 106.053 115.304C106.163 115.503 106.194 115.736 106.14 115.956C106.085 116.176 105.95 116.368 105.76 116.493C92.5238 124.898 80.1548 134.596 68.835 145.445C46.577 167.225 28.435 194.345 18.947 224.136C14.0872 239.128 11.3178 254.72 10.717 270.469C10.7123 270.587 10.6844 270.703 10.6348 270.81C10.5852 270.918 10.5149 271.014 10.428 271.095C10.3411 271.175 10.2392 271.237 10.1282 271.278C10.0172 271.319 9.89923 271.338 9.78104 271.333C9.66285 271.328 9.54675 271.3 9.43937 271.251C9.33198 271.201 9.23542 271.131 9.15519 271.044C9.07496 270.957 9.01263 270.855 8.97177 270.744C8.93091 270.633 8.91231 270.515 8.91704 270.397" fill="white"/>
<path d="M8.92204 270.397C11.17 222.762 31.885 175.913 65.907 142.423C77.3017 131.176 90.4726 121.885 104.89 114.923C105.096 114.828 105.331 114.815 105.546 114.885C105.762 114.956 105.943 115.106 106.053 115.304C106.163 115.503 106.194 115.736 106.14 115.956C106.085 116.176 105.95 116.368 105.76 116.493C92.5238 124.898 80.1548 134.596 68.835 145.445C46.577 167.225 28.435 194.345 18.947 224.136C14.0872 239.128 11.3178 254.72 10.717 270.469C10.7123 270.587 10.6844 270.703 10.6348 270.81C10.5852 270.918 10.5149 271.014 10.428 271.095C10.3411 271.175 10.2392 271.237 10.1282 271.278C10.0172 271.319 9.89923 271.338 9.78104 271.333C9.66285 271.328 9.54675 271.3 9.43937 271.251C9.33198 271.201 9.23542 271.131 9.15519 271.044C9.07496 270.957 9.01263 270.855 8.97177 270.744C8.93091 270.633 8.91231 270.515 8.91704 270.397H8.92204Z" stroke="white" stroke-width="0.5" stroke-miterlimit="10"/>
<path d="M65.496 147.04C69.696 139.049 74.1561 131.215 78.4291 123.293C82.7011 115.398 86.252 107.027 91.567 99.583L91.838 100.736C81.024 96.842 76.711 110.606 75.478 118.957C73.696 128.677 72.888 139.562 66.266 147.523C66.1897 147.609 66.0838 147.663 65.9696 147.674C65.8553 147.685 65.741 147.653 65.6494 147.584C65.5578 147.515 65.4956 147.413 65.4751 147.3C65.4547 147.187 65.4775 147.071 65.539 146.974C75.266 134.074 69.209 105.755 84.595 99.102C85.8666 98.5759 87.2357 98.3267 88.6111 98.3708C89.9865 98.4149 91.3368 98.7515 92.572 99.358C92.6617 99.4056 92.7412 99.4703 92.8059 99.5485C92.8705 99.6268 92.9192 99.717 92.949 99.814C92.9788 99.9111 92.9892 100.013 92.9796 100.114C92.97 100.215 92.9406 100.313 92.893 100.403C90.234 104.052 87.823 107.875 85.676 111.847C79.612 123.46 72.276 135.9 66.306 147.458C66.2507 147.565 66.1551 147.646 66.0401 147.683C65.9252 147.72 65.8003 147.709 65.693 147.654C65.5858 147.599 65.5048 147.503 65.4681 147.388C65.4313 147.273 65.4417 147.148 65.497 147.041" fill="white"/>
<path d="M65.4961 147.04C69.6961 139.049 74.1561 131.215 78.4291 123.293C82.7011 115.398 86.2521 107.027 91.5671 99.5828L91.8381 100.736C81.0241 96.8419 76.7111 110.606 75.4781 118.957C73.6961 128.677 72.8881 139.562 66.2661 147.523C66.1897 147.609 66.0839 147.662 65.9696 147.674C65.8553 147.685 65.7411 147.653 65.6494 147.584C65.5578 147.514 65.4956 147.413 65.4751 147.3C65.4547 147.187 65.4775 147.071 65.5391 146.974C75.2661 134.074 69.2091 105.755 84.5951 99.1019C85.8667 98.5758 87.2357 98.3265 88.6111 98.3706C89.9866 98.4148 91.3368 98.7513 92.5721 99.3578C92.6618 99.4054 92.7412 99.4701 92.8059 99.5484C92.8706 99.6266 92.9192 99.7168 92.949 99.8139C92.9788 99.9109 92.9892 100.013 92.9796 100.114C92.97 100.215 92.9406 100.313 92.8931 100.403C90.2341 104.052 87.823 107.875 85.6761 111.847C79.6121 123.46 72.2761 135.9 66.3061 147.458C66.2506 147.565 66.1548 147.646 66.0397 147.683C65.9245 147.72 65.7995 147.709 65.6921 147.654C65.5846 147.598 65.5037 147.503 65.4669 147.387C65.4301 147.272 65.4406 147.147 65.4961 147.04Z" stroke="white" stroke-width="0.5" stroke-miterlimit="10"/>
<path d="M46.227 166.181C52.1687 162.434 58.5201 159.381 65.157 157.081C69.014 155.792 74.649 154.244 78.192 152.37C84.466 149.117 89.137 143.684 96.117 141.332L95.977 143.154C90.953 140.785 84.941 142.138 80.29 144.874C75.471 147.76 71.618 152.128 67.628 156.353C67.5468 156.431 67.4397 156.477 67.3271 156.481C67.2145 156.485 67.1043 156.447 67.0177 156.375C66.9311 156.303 66.874 156.202 66.8575 156.09C66.8409 155.979 66.866 155.865 66.928 155.771C73.085 146.365 84.784 135.716 96.845 141.388C97.0215 141.475 97.168 141.612 97.2654 141.783C97.3629 141.954 97.407 142.15 97.3919 142.346C97.3768 142.542 97.3033 142.73 97.1809 142.884C97.0585 143.037 96.8927 143.151 96.705 143.21C90.197 145.147 84.992 150.595 78.775 153.54C72.359 156.426 65.336 157.496 58.975 160.445C54.7083 162.249 50.6082 164.424 46.722 166.945C46.242 167.27 45.707 166.494 46.231 166.178" fill="white"/>
<path d="M46.2271 166.181C52.1687 162.435 58.5202 159.381 65.1571 157.081C69.0141 155.792 74.6491 154.244 78.1921 152.37C84.4661 149.117 89.1371 143.684 96.1171 141.332L95.9771 143.154C90.9531 140.785 84.9411 142.138 80.2901 144.874C75.4711 147.76 71.6181 152.128 67.6281 156.353C67.5469 156.431 67.4397 156.477 67.3271 156.481C67.2145 156.485 67.1044 156.447 67.0178 156.375C66.9311 156.303 66.8741 156.202 66.8575 156.09C66.841 155.979 66.8661 155.865 66.9281 155.771C73.0851 146.365 84.7841 135.716 96.8451 141.388C97.0216 141.475 97.168 141.613 97.2655 141.783C97.363 141.954 97.407 142.15 97.392 142.346C97.3769 142.543 97.3034 142.73 97.181 142.884C97.0585 143.037 96.8928 143.151 96.7051 143.21C90.1971 145.147 84.9921 150.595 78.7751 153.54C72.3591 156.426 65.3361 157.496 58.9751 160.445C54.7083 162.249 50.6082 164.424 46.7221 166.945C46.2391 167.273 45.7031 166.499 46.2271 166.181Z" stroke="white" stroke-width="0.5" stroke-miterlimit="10"/>
<path d="M37.911 182.286C43.5014 174.408 46.9112 165.192 47.795 155.572C49.446 146 49.795 136.521 47.305 127.055L48.924 127.472C46.7788 130.141 45.2375 133.243 44.4061 136.565C43.5747 139.887 43.473 143.349 44.108 146.714C45.33 153.537 49.084 160.949 46.198 167.977C46.1478 168.08 46.061 168.16 45.9548 168.201C45.8485 168.243 45.7305 168.244 45.6239 168.203C45.5173 168.162 45.4299 168.083 45.3788 167.98C45.3278 167.878 45.3168 167.761 45.348 167.651C47.185 160.727 43.334 153.97 42.037 147.121C41.3038 143.456 41.426 139.671 42.394 136.061C42.485 134.461 47.602 122.985 49.126 126.697C51.361 136.197 50.758 146.227 48.81 155.726C47.7452 165.445 44.264 174.743 38.684 182.772C38.6193 182.874 38.5167 182.946 38.3989 182.972C38.281 182.999 38.1575 182.977 38.0555 182.913C37.9535 182.848 37.8814 182.745 37.8551 182.627C37.8287 182.509 37.8503 182.386 37.915 182.284" fill="white"/>
<path d="M37.911 182.286C43.5015 174.407 46.9112 165.192 47.795 155.572C49.446 146 49.795 136.521 47.305 127.055L48.924 127.472C46.7789 130.141 45.2376 133.243 44.4062 136.565C43.5748 139.887 43.4731 143.349 44.108 146.714C45.33 153.537 49.084 160.949 46.198 167.977C46.1478 168.079 46.0611 168.159 45.9548 168.201C45.8486 168.243 45.7306 168.243 45.624 168.203C45.5174 168.162 45.4299 168.082 45.3789 167.98C45.3278 167.878 45.3168 167.761 45.348 167.651C47.185 160.727 43.334 153.97 42.037 147.121C41.3039 143.456 41.426 139.671 42.3941 136.061C42.4851 134.461 47.602 122.985 49.126 126.697C51.361 136.197 50.758 146.227 48.8101 155.726C47.7452 165.445 44.264 174.743 38.684 182.772C38.6196 182.874 38.5171 182.947 38.399 182.974C38.281 183.001 38.1571 182.98 38.0545 182.915C37.952 182.851 37.8793 182.748 37.8524 182.63C37.8255 182.512 37.8466 182.388 37.911 182.286Z" stroke="white" stroke-width="0.5" stroke-miterlimit="10"/>
<path d="M104.53 116.046C125.263 117.749 146.133 116.503 166.516 112.346C170.816 111.707 174.377 109.735 172.742 104.868C169.976 96.62 160.267 94.895 152.552 94.268C152.426 94.2539 152.306 94.2076 152.203 94.1337C152.101 94.0597 152.019 93.9605 151.965 93.8456C151.912 93.7308 151.889 93.6041 151.899 93.4779C151.909 93.3517 151.952 93.2301 152.022 93.125C154.263 89.758 156.515 86.356 157.371 82.545C158.825 77.063 155.661 70.107 149.422 70.545C143.43 70.988 138.795 75.383 134.346 79.189C128.288 84.5472 122.724 90.44 117.722 96.796C112.709 103.176 108.108 109.869 103.946 116.834C103.892 116.927 103.803 116.994 103.699 117.022C103.595 117.049 103.484 117.034 103.392 116.979C103.299 116.925 103.231 116.836 103.204 116.732C103.177 116.628 103.192 116.518 103.246 116.425C107.076 109.2 111.47 102.289 116.387 95.756C124.063 86.185 132.34 76.646 143.163 70.488C149.432 67.076 157.263 68.868 158.931 76.468C160.558 82.857 156.675 89.03 153.242 93.937L152.712 92.794C160.757 93.521 171.053 95.653 173.842 104.532C174.508 106.632 174.426 109.299 172.703 110.921C170.98 112.543 168.72 112.905 166.711 113.305C162.619 114.114 158.495 114.752 154.371 115.361C137.842 117.71 121.103 118.208 104.464 116.846C104.357 116.837 104.258 116.786 104.188 116.704C104.118 116.622 104.084 116.516 104.093 116.409C104.102 116.302 104.153 116.203 104.235 116.133C104.317 116.063 104.423 116.029 104.53 116.038" fill="white"/>
<path d="M104.53 116.046C125.263 117.749 146.133 116.503 166.516 112.346C170.816 111.707 174.377 109.735 172.742 104.868C169.976 96.62 160.267 94.895 152.552 94.268C152.426 94.2539 152.306 94.2076 152.203 94.1337C152.101 94.0597 152.019 93.9605 151.965 93.8456C151.912 93.7308 151.889 93.6041 151.899 93.4779C151.909 93.3517 151.952 93.2301 152.022 93.125C154.263 89.758 156.515 86.356 157.371 82.545C158.825 77.063 155.661 70.107 149.422 70.545C143.43 70.988 138.795 75.383 134.346 79.189C128.288 84.5472 122.724 90.44 117.722 96.796C112.709 103.176 108.108 109.869 103.946 116.834C103.892 116.927 103.803 116.994 103.699 117.022C103.595 117.049 103.484 117.034 103.392 116.979C103.299 116.925 103.231 116.836 103.204 116.732C103.177 116.628 103.192 116.518 103.246 116.425C107.076 109.2 111.47 102.289 116.387 95.756C124.063 86.185 132.34 76.646 143.163 70.488C149.432 67.076 157.263 68.868 158.931 76.468C160.558 82.857 156.675 89.03 153.242 93.937L152.712 92.794C160.757 93.521 171.053 95.653 173.842 104.532C174.508 106.632 174.426 109.299 172.703 110.921C170.98 112.543 168.72 112.905 166.711 113.305C162.619 114.114 158.495 114.752 154.371 115.361C137.842 117.71 121.103 118.208 104.464 116.846C104.368 116.825 104.283 116.77 104.225 116.691C104.167 116.612 104.139 116.515 104.147 116.417C104.155 116.319 104.199 116.228 104.269 116.16C104.339 116.092 104.432 116.051 104.53 116.046Z" stroke="white" stroke-width="0.5" stroke-miterlimit="10"/>
<path d="M148.261 115.357C152.945 117.157 159.642 120.196 158.392 126.357C158.13 128.235 156.132 129.283 155.116 130.54C154.745 131.236 154.662 132.049 154.884 132.806C155.247 140.676 144.884 140.358 139.459 139.25C128.832 137.022 119.715 131.106 111.087 124.85C108.265 122.594 105.908 119.812 104.146 116.659C104.095 116.566 104.082 116.457 104.11 116.355C104.138 116.253 104.204 116.165 104.296 116.112C104.387 116.058 104.496 116.042 104.598 116.068C104.701 116.093 104.79 116.158 104.846 116.248C108.934 121.987 114.968 125.566 120.905 129.195C128.236 133.686 136.099 138.116 144.857 138.525C148.657 138.957 154.384 137.662 154.019 132.898C153.778 131.937 153.917 130.92 154.409 130.061C154.997 129.363 155.664 128.735 156.396 128.19C159.734 124.821 156.413 119.816 152.738 118.242C151.201 117.423 149.609 116.712 147.973 116.115C147.875 116.075 147.796 115.998 147.753 115.901C147.711 115.803 147.708 115.693 147.746 115.594C147.783 115.495 147.858 115.414 147.955 115.37C148.051 115.325 148.161 115.32 148.261 115.356" fill="white"/>
<path d="M148.261 115.357C152.945 117.157 159.642 120.196 158.392 126.357C158.13 128.235 156.132 129.283 155.116 130.54C154.745 131.236 154.662 132.049 154.884 132.806C155.247 140.676 144.884 140.358 139.459 139.25C128.832 137.022 119.715 131.106 111.087 124.85C108.265 122.594 105.908 119.812 104.146 116.659C104.095 116.566 104.082 116.457 104.11 116.355C104.138 116.253 104.204 116.165 104.296 116.112C104.387 116.058 104.496 116.042 104.598 116.068C104.701 116.093 104.79 116.158 104.846 116.248C108.934 121.987 114.968 125.566 120.905 129.195C128.236 133.686 136.099 138.116 144.857 138.525C148.657 138.957 154.384 137.662 154.019 132.898C153.778 131.937 153.917 130.92 154.409 130.061C154.997 129.363 155.664 128.735 156.396 128.19C159.734 124.821 156.413 119.816 152.738 118.242C151.201 117.423 149.609 116.712 147.973 116.115C147.878 116.073 147.803 115.996 147.762 115.9C147.722 115.804 147.721 115.696 147.758 115.599C147.794 115.502 147.867 115.422 147.961 115.377C148.055 115.332 148.162 115.325 148.261 115.357Z" stroke="white" stroke-width="0.5" stroke-miterlimit="10"/>
<path d="M135.147 77.2311C135.929 74.4751 136.217 71.2511 134.609 68.7591C133.192 66.4981 129.373 65.3321 127.391 67.4331C127.355 67.4738 127.31 67.5068 127.261 67.5304C127.212 67.5539 127.158 67.5675 127.104 67.5703C127.049 67.5731 126.995 67.5651 126.943 67.5467C126.892 67.5283 126.844 67.4998 126.804 67.4631C125.956 64.8181 123.004 63.5631 120.355 63.9531C117.728 64.2421 115.612 66.2131 114.17 68.4271C108.826 78.0571 107.413 89.5091 105.027 100.144C104.118 105.579 103.299 111.095 103.996 116.544C104.004 116.597 104.002 116.651 103.989 116.703C103.977 116.754 103.954 116.803 103.922 116.846C103.891 116.889 103.851 116.926 103.805 116.953C103.76 116.981 103.709 116.999 103.656 117.007C103.557 117.02 103.456 116.997 103.373 116.942C103.289 116.887 103.229 116.803 103.202 116.707C101.245 108.393 103.088 99.7511 104.868 91.5851C107.101 83.3441 110.081 64.2361 120.247 62.9571C123.16 62.6641 126.577 64.0041 127.487 67.0221L126.78 66.8571C129.235 64.3451 133.534 65.6321 135.26 68.3381C136.968 71.0661 136.729 74.4801 135.93 77.4381C135.901 77.5416 135.833 77.6295 135.739 77.6824C135.645 77.7353 135.535 77.7488 135.431 77.7201C135.328 77.6913 135.24 77.6225 135.187 77.529C135.134 77.4354 135.12 77.3246 135.149 77.2211" fill="white"/>
<path d="M135.147 77.2311C135.929 74.4751 136.217 71.2511 134.609 68.7591C133.192 66.4981 129.373 65.3321 127.391 67.4331C127.355 67.4738 127.31 67.5068 127.261 67.5304C127.212 67.5539 127.158 67.5675 127.104 67.5703C127.049 67.5731 126.995 67.5651 126.943 67.5467C126.892 67.5283 126.844 67.4998 126.804 67.4631C125.956 64.8181 123.004 63.5631 120.355 63.9531C117.728 64.2421 115.612 66.2131 114.17 68.4271C108.826 78.0571 107.413 89.5091 105.027 100.144C104.118 105.579 103.299 111.095 103.996 116.544C104.004 116.597 104.002 116.651 103.989 116.703C103.977 116.754 103.954 116.803 103.922 116.846C103.891 116.889 103.851 116.926 103.805 116.953C103.76 116.981 103.709 116.999 103.656 117.007C103.557 117.02 103.456 116.997 103.373 116.942C103.289 116.887 103.229 116.803 103.202 116.707C101.245 108.393 103.088 99.7511 104.868 91.5851C107.101 83.3441 110.081 64.2361 120.247 62.9571C123.16 62.6641 126.577 64.0041 127.487 67.0221L126.78 66.8571C129.235 64.3451 133.534 65.6321 135.26 68.3381C136.968 71.0661 136.729 74.4801 135.93 77.4381C135.901 77.5404 135.833 77.6273 135.741 77.68C135.649 77.7328 135.539 77.7471 135.437 77.72C135.334 77.6928 135.246 77.6263 135.192 77.5348C135.138 77.4434 135.122 77.3343 135.147 77.2311Z" stroke="white" stroke-width="0.5" stroke-miterlimit="10"/>
<path d="M153.986 130.693C151.571 127.072 146.675 127.111 142.724 127.398C138.446 127.744 134.143 127.629 129.889 127.055C121.417 125.855 112.911 122.791 106.378 117.136C106.305 117.068 106.258 116.977 106.247 116.878C106.237 116.779 106.262 116.679 106.32 116.598C106.377 116.517 106.462 116.459 106.559 116.436C106.656 116.413 106.758 116.426 106.846 116.473C117.77 122.7 129.937 127.208 142.679 126.542C146.852 126.268 151.979 126.409 154.664 130.247C154.719 130.337 154.737 130.444 154.714 130.547C154.691 130.65 154.629 130.74 154.541 130.797C154.453 130.855 154.346 130.877 154.242 130.857C154.139 130.838 154.047 130.779 153.986 130.693Z" fill="white"/>
<path d="M153.986 130.693C151.571 127.072 146.675 127.111 142.724 127.398C138.446 127.744 134.143 127.629 129.889 127.055C121.417 125.855 112.911 122.791 106.378 117.136C106.305 117.068 106.258 116.977 106.247 116.878C106.237 116.779 106.262 116.679 106.32 116.598C106.377 116.517 106.462 116.459 106.559 116.436C106.656 116.413 106.758 116.426 106.846 116.473C117.77 122.7 129.937 127.208 142.679 126.542C146.852 126.268 151.979 126.409 154.664 130.247C154.719 130.337 154.737 130.444 154.714 130.547C154.691 130.65 154.629 130.74 154.541 130.797C154.453 130.855 154.346 130.877 154.242 130.857C154.139 130.838 154.047 130.779 153.986 130.693Z" stroke="white" stroke-width="0.5" stroke-miterlimit="10"/>
<path d="M126.86 67.6346C125.933 72.2176 122.902 75.8006 120.365 79.3776C113.104 90.2596 106.029 102.04 104.325 115.211C104.313 115.309 104.265 115.4 104.191 115.466C104.117 115.532 104.022 115.569 103.923 115.57C103.823 115.571 103.727 115.535 103.652 115.471C103.577 115.406 103.528 115.316 103.514 115.218C102.932 101.395 112.014 89.5576 119.664 78.8716C122.242 75.2856 125.341 71.8366 126.064 67.4936C126.083 67.3875 126.143 67.2932 126.231 67.2314C126.319 67.1696 126.428 67.1454 126.535 67.1641C126.641 67.1828 126.735 67.2429 126.797 67.3311C126.859 67.4193 126.883 67.5285 126.864 67.6346" fill="white"/>
<path d="M126.86 67.6346C125.933 72.2176 122.902 75.8006 120.365 79.3776C113.104 90.2596 106.029 102.04 104.325 115.211C104.313 115.309 104.265 115.4 104.191 115.466C104.117 115.532 104.022 115.569 103.923 115.57C103.823 115.571 103.727 115.535 103.652 115.471C103.577 115.406 103.528 115.316 103.514 115.218C102.932 101.395 112.014 89.5576 119.664 78.8716C122.242 75.2856 125.341 71.8366 126.064 67.4936C126.091 67.3962 126.153 67.3123 126.239 67.2584C126.324 67.2045 126.427 67.1844 126.526 67.202C126.626 67.2196 126.715 67.2737 126.777 67.3537C126.839 67.4337 126.868 67.5339 126.86 67.6346Z" stroke="white" stroke-width="0.5" stroke-miterlimit="10"/>
<path d="M152.572 93.6231C151.038 95.3608 149.075 96.667 146.88 97.4121C140.77 100.183 134.137 101.947 127.853 104.092C119.546 107.005 111.303 110.668 104.801 116.717C104.724 116.793 104.62 116.834 104.512 116.833C104.405 116.833 104.302 116.789 104.226 116.712C104.158 116.641 104.117 116.547 104.112 116.449C104.106 116.35 104.137 116.253 104.197 116.175C109.97 109.015 118.78 105.204 127.281 102.375C133.715 100.231 140.381 99.4141 146.564 96.6571C148.625 95.8411 150.678 94.9071 151.927 93.1301C152.227 92.6871 152.927 93.197 152.573 93.621" fill="white"/>
<path d="M152.572 93.6231C151.038 95.3608 149.075 96.667 146.88 97.4121C140.77 100.183 134.137 101.947 127.853 104.092C119.546 107.005 111.303 110.668 104.801 116.717C104.724 116.793 104.62 116.834 104.512 116.833C104.405 116.833 104.302 116.789 104.226 116.712C104.158 116.641 104.117 116.547 104.112 116.449C104.106 116.35 104.137 116.253 104.197 116.175C109.97 109.015 118.78 105.204 127.281 102.375C133.715 100.231 140.381 99.4141 146.564 96.6571C148.625 95.8411 150.678 94.9071 151.927 93.1301C152.222 92.6891 152.929 93.1991 152.572 93.6231Z" stroke="white" stroke-width="0.5" stroke-miterlimit="10"/>
</g>
</svg>
