<svg width="219" height="436" viewBox="0 0 219 436" fill="none" xmlns="http://www.w3.org/2000/svg">
<mask id="mask0_1_578" style="mask-type:luminance" maskUnits="userSpaceOnUse" x="-37" y="0" width="256" height="436">
<path d="M218.183 0.238281H-36.626V435.038H218.183V0.238281Z" fill="white"/>
</mask>
<g mask="url(#mask0_1_578)">
<path d="M-28.036 198.972C1.96401 226.795 32.915 255.072 52.564 291.589C67.042 318.5 75.877 348.823 96.094 372.249C102.603 380.046 110.448 386.621 119.261 391.669C119.412 391.749 119.525 391.885 119.576 392.047C119.628 392.21 119.613 392.386 119.536 392.538C119.458 392.69 119.324 392.805 119.162 392.859C119 392.913 118.824 392.901 118.671 392.825C109.235 388.452 101.017 381.72 94.056 374.046C73.1 350.778 64.529 319.974 50.503 292.675C31.663 256.089 1.16801 227.375 -28.914 199.927C-28.98 199.871 -29.034 199.801 -29.0726 199.723C-29.1112 199.645 -29.1338 199.56 -29.1389 199.473C-29.144 199.386 -29.1316 199.299 -29.1024 199.217C-29.0731 199.135 -29.0277 199.06 -28.9688 198.996C-28.9099 198.932 -28.8386 198.88 -28.7594 198.844C-28.6801 198.808 -28.5944 198.789 -28.5074 198.786C-28.4203 198.784 -28.3338 198.799 -28.2528 198.831C-28.1718 198.863 -28.0981 198.911 -28.036 198.972Z" fill="white"/>
<path d="M-24.128 203.374C-19.78 207.64 -14.098 210.217 -8.57596 212.824C8.15004 220.607 26.003 225.16 43.631 230.386C43.7443 230.425 43.8395 230.504 43.8988 230.608C43.958 230.712 43.9771 230.834 43.9525 230.951C43.9279 231.068 43.8613 231.172 43.7652 231.243C43.6691 231.315 43.5503 231.349 43.431 231.338C25.016 228.932 7.63105 221.693 -9.01495 213.756C-14.543 211.114 -20.192 208.356 -24.801 204.077C-25.256 203.654 -24.589 202.911 -24.127 203.377" fill="white"/>
<path d="M17.495 242.93C48.477 256.363 81.443 263.774 114.06 272.007C114.175 272.044 114.272 272.122 114.334 272.226C114.395 272.329 114.416 272.452 114.392 272.571C114.368 272.689 114.301 272.794 114.205 272.867C114.108 272.939 113.988 272.973 113.868 272.962C88.768 269.385 64.48 261.581 40.724 252.942C32.783 250.099 24.95 246.969 17.124 243.828C16.555 243.607 16.893 242.667 17.495 242.928" fill="white"/>
<path d="M35.822 266.194C63.799 292.234 96.549 312.326 130.522 329.533C130.632 329.591 130.715 329.689 130.755 329.806C130.795 329.923 130.789 330.051 130.738 330.164C130.687 330.277 130.595 330.366 130.481 330.414C130.366 330.461 130.238 330.463 130.122 330.419C103.338 319.919 79.405 303.294 57.015 285.468C49.515 279.538 42.294 273.276 35.164 266.913C34.709 266.513 35.338 265.742 35.818 266.194" fill="white"/>
<path d="M2.37703 228.028C16.544 263.767 25.932 302.302 23.884 340.954C23.8775 341.08 23.823 341.197 23.7317 341.283C23.6405 341.369 23.5196 341.417 23.3942 341.416C23.2688 341.415 23.1486 341.366 23.0586 341.279C22.9686 341.191 22.9157 341.073 22.911 340.947C21.699 312.181 19.111 283.332 11.011 255.591C8.33265 246.357 5.14884 237.276 1.47403 228.391C1.44986 228.332 1.43758 228.269 1.43787 228.205C1.43816 228.141 1.45102 228.078 1.47572 228.019C1.50042 227.96 1.53648 227.907 1.58183 227.862C1.62718 227.817 1.68093 227.782 1.74003 227.757C1.79912 227.733 1.8624 227.721 1.92624 227.721C1.99009 227.721 2.05325 227.734 2.11212 227.759C2.17099 227.784 2.22442 227.82 2.26936 227.865C2.3143 227.911 2.34987 227.964 2.37403 228.023" fill="white"/>
<path d="M38.7931 271.597C50.0241 306.176 64.3931 344.344 54.9031 380.903C54.8707 381.025 54.7927 381.129 54.6853 381.194C54.578 381.259 54.4495 381.28 54.3269 381.253C54.2042 381.226 54.0969 381.152 54.0272 381.048C53.9575 380.943 53.931 380.816 53.9531 380.692C58.4301 353.125 54.0011 325.08 46.4251 298.446C43.8144 289.533 40.9637 280.689 37.8731 271.913C37.8312 271.791 37.8394 271.658 37.8961 271.542C37.9527 271.426 38.0531 271.337 38.1751 271.295C38.2971 271.253 38.4307 271.262 38.5466 271.318C38.6625 271.375 38.7512 271.475 38.7931 271.597Z" fill="white"/>
<path d="M12.361 220.69C20.9842 215.417 31.1834 213.333 41.184 214.802C49.61 216.07 57.428 219.802 65.36 222.921C73.885 226.269 82.6614 228.938 91.607 230.903C78.341 234.992 64.652 238.547 50.781 238.003C36.91 237.459 22.668 232.286 13.878 221.541" fill="white"/>
<path d="M12.104 220.276C21.1758 214.785 31.9194 212.737 42.375 214.507C52.675 216.355 62.03 221.433 71.865 224.607C78.3926 226.817 85.0465 228.636 91.791 230.052C91.9808 230.092 92.1519 230.193 92.2774 230.341C92.4028 230.489 92.4752 230.674 92.4833 230.868C92.4913 231.062 92.4345 231.252 92.3217 231.41C92.209 231.568 92.0469 231.683 91.861 231.738C78.597 235.974 64.841 239.668 50.751 239.138C36.815 238.584 22.119 233.26 13.499 221.85C13.4243 221.75 13.3912 221.624 13.4067 221.5C13.4221 221.375 13.485 221.262 13.5821 221.182C13.6793 221.103 13.8032 221.064 13.9282 221.074C14.0531 221.084 14.1695 221.142 14.253 221.235C28.4 236.979 51.569 239.186 71.276 235.135C78.0503 233.802 84.7496 232.112 91.346 230.073L91.416 231.759C84.6384 230.206 77.9598 228.248 71.416 225.896C64.844 223.612 58.58 220.583 52.116 218.234C39.335 213.122 24.36 213.66 12.616 221.109C12.104 221.457 11.542 220.601 12.106 220.281" fill="white"/>
<path d="M65.7411 260.289C81.8701 253.946 99.9471 253.822 116.928 257.289C133.909 260.756 149.986 267.645 165.652 275.062C153.637 275.07 141.784 277.562 129.911 279.408C118.038 281.254 105.821 282.448 94.0801 279.891C82.3391 277.334 71.0171 270.496 65.6201 259.761" fill="white"/>
<path d="M65.564 259.838C99.064 246.965 135.248 259.738 166.02 274.288C166.192 274.374 166.33 274.514 166.413 274.687C166.496 274.86 166.519 275.056 166.479 275.244C166.438 275.431 166.336 275.6 166.188 275.723C166.041 275.846 165.857 275.917 165.665 275.923C156.729 275.993 147.851 277.455 138.986 278.993C121.357 282.035 102.286 285.414 85.123 278.159C76.723 274.539 69.098 268.391 65.187 259.983C65.1594 259.926 65.1435 259.863 65.1402 259.799C65.1369 259.735 65.1462 259.671 65.1677 259.611C65.1891 259.55 65.2223 259.495 65.2653 259.448C65.3082 259.4 65.3601 259.362 65.418 259.334C65.5312 259.282 65.6598 259.275 65.7781 259.314C65.8963 259.353 65.9953 259.436 66.055 259.545C70.319 267.381 77.755 273.013 85.911 276.262C102.711 283.021 121.252 279.712 138.642 276.914C147.535 275.503 156.542 274.146 165.652 274.205L165.284 275.839C135.034 260.925 99.123 247.756 65.92 260.743C65.361 260.99 64.952 260.057 65.564 259.843" fill="white"/>
<path d="M59.8741 287.048C83.4641 292.675 112.146 300.632 131.19 315.648C146.936 328.064 157.77 345.716 172.842 358.942C160.36 350.153 144.642 347.797 129.907 343.825C115.504 339.943 101.442 334.243 89.3441 325.518C77.2461 316.793 64.4641 301.185 59.4241 287.143" fill="white"/>
<path d="M59.986 286.575C82.22 291.969 104.807 298.023 124.419 310.244C134.25 316.359 142.396 324.729 149.967 333.318C157.561 341.918 164.828 350.813 173.412 358.291C173.574 358.439 173.674 358.643 173.692 358.861C173.71 359.079 173.644 359.296 173.509 359.469C173.374 359.641 173.178 359.756 172.962 359.79C172.745 359.824 172.524 359.775 172.342 359.652C157.934 349.706 139.66 348.189 123.212 342.995C106.431 337.843 90.021 329.761 77.858 316.795C69.82 308.253 62.858 298.461 58.967 287.31C58.946 287.25 58.9371 287.186 58.9408 287.122C58.9445 287.058 58.9608 286.996 58.9886 286.938C59.0165 286.881 59.0554 286.829 59.1032 286.787C59.151 286.744 59.2066 286.711 59.267 286.69C59.3876 286.652 59.5184 286.66 59.6329 286.714C59.7474 286.768 59.8372 286.864 59.884 286.981C62.0317 292.349 64.8267 297.434 68.207 302.123C81.266 321.616 101.657 334.223 123.852 340.946C140.41 346.29 158.752 347.946 173.342 358.234L172.272 359.595C163.625 351.883 156.433 342.853 148.961 334.195C141.484 325.58 133.608 317.12 123.861 311.113C104.398 298.961 81.883 292.906 59.761 287.513C59.6415 287.478 59.5401 287.398 59.4777 287.29C59.4152 287.182 59.3966 287.054 59.4256 286.933C59.4545 286.812 59.5289 286.706 59.6334 286.638C59.7378 286.57 59.8644 286.545 59.987 286.567" fill="white"/>
<path d="M75.327 342.931C80.806 353.417 91.235 360.332 101.694 365.869C112.153 371.406 123.267 376.17 131.957 384.205C142.44 393.897 148.815 407.859 160.757 415.682C152.185 416.413 143.59 414.709 135.279 412.482C116.214 407.374 96.844 398.608 85.99 382.117C77.851 369.757 75.49 354.575 73.697 339.885" fill="white"/>
<path d="M75.761 342.705C85.018 360.035 104.961 365.976 120.872 375.473C129.137 380.328 136.316 386.831 141.961 394.578C147.792 402.019 153.361 409.884 161.208 414.991C161.348 415.087 161.456 415.224 161.516 415.383C161.576 415.542 161.586 415.716 161.544 415.881C161.502 416.046 161.411 416.194 161.282 416.305C161.154 416.416 160.994 416.485 160.825 416.503C149.872 417.454 139.089 414.712 128.695 411.633C108.081 405.593 87.105 393.011 79.546 371.797C75.661 361.526 74.22 350.667 73.215 339.946C73.1995 339.818 73.2355 339.689 73.315 339.588C73.3945 339.486 73.5111 339.421 73.639 339.405C73.767 339.39 73.8959 339.426 73.9973 339.505C74.0988 339.585 74.1645 339.701 74.18 339.829C75.79 350.459 77.473 361.167 81.48 371.029C89.123 391.565 109.247 403.466 129.314 409.672C139.505 412.822 150.07 415.66 160.69 414.859L160.307 416.371C148.116 408.146 142.071 394.536 131.683 384.714C128.217 381.526 124.417 378.72 120.349 376.346C104.413 366.819 84.279 360.558 74.896 343.155C74.8635 343.098 74.8428 343.035 74.8352 342.97C74.8275 342.905 74.8331 342.839 74.8516 342.776C74.87 342.713 74.901 342.655 74.9426 342.604C74.9842 342.554 75.0356 342.512 75.0937 342.482C75.1518 342.451 75.2154 342.433 75.2807 342.428C75.3461 342.423 75.4118 342.431 75.4739 342.452C75.536 342.473 75.5933 342.506 75.6423 342.549C75.6913 342.593 75.731 342.646 75.759 342.705" fill="white"/>
<path d="M56.266 343.689C63.743 356.528 69.605 377.15 68.08 391.93C66.555 406.71 61.372 420.915 54.695 434.187C48.9407 423.925 45.521 412.52 44.6796 400.785C43.8381 389.05 45.5957 377.274 49.827 366.296C52.727 358.933 56.816 351.582 56.266 343.689Z" fill="white"/>
<path d="M56.6871 343.444C64.2741 357.359 68.9871 373.144 68.7871 389.073C67.7971 405.021 62.4511 420.332 55.4561 434.573C55.3861 434.71 55.2806 434.825 55.1507 434.907C55.0208 434.989 54.8714 435.034 54.7179 435.038C54.5645 435.042 54.4128 435.005 54.2787 434.93C54.1447 434.855 54.0332 434.746 53.9561 434.613C48.0013 424.242 44.4596 412.662 43.594 400.734C42.7283 388.806 44.5611 376.836 48.9561 365.713C51.8941 358.564 55.9811 351.613 55.7851 343.725C55.7832 343.601 55.8291 343.48 55.9132 343.389C55.9973 343.297 56.1134 343.241 56.2375 343.232C56.3616 343.223 56.4843 343.262 56.5806 343.341C56.6768 343.42 56.7393 343.533 56.7551 343.656C57.6061 351.723 53.5881 359.213 50.8691 366.47C45.3566 381.021 44.1509 396.852 47.3961 412.07C48.9753 419.663 51.6866 426.975 55.4391 433.761L53.9391 433.801C61.0391 419.855 66.7571 404.754 67.7821 389.03C68.0381 373.38 63.4531 357.557 55.8541 343.93C55.5201 343.41 56.3861 342.866 56.6931 343.44" fill="white"/>
<path d="M17.461 285.371C28.343 302.251 32.9118 322.432 30.361 342.352C28.523 356.305 23.209 369.708 22.318 383.752C11.518 373.827 6.00501 359.045 5.19601 344.399C4.38701 329.753 7.89601 315.167 12.896 301.376C14.97 295.657 17.324 289.93 17.837 283.868" fill="white"/>
<path d="M17.869 285.105C32.239 307.269 34.713 333.774 27.678 358.924C25.718 367.178 23.663 375.424 23.178 383.809C23.1639 384.034 23.0613 384.245 22.8927 384.395C22.7242 384.545 22.5032 384.622 22.278 384.609C15.109 378.984 10.397 370.318 7.40002 361.801C1.55602 344.639 3.86202 325.865 9.27502 308.947C11.815 300.506 16.205 292.588 17.36 283.825C17.3748 283.7 17.4379 283.585 17.5358 283.505C17.6337 283.425 17.7588 283.387 17.8847 283.397C18.0106 283.408 18.1274 283.467 18.2105 283.562C18.2936 283.657 18.3365 283.781 18.33 283.907C17.77 292.894 13.539 301.012 11.238 309.552C6.23802 326.197 3.89502 344.37 9.40002 361.141C11.9629 369.494 16.6086 377.057 22.9 383.119L21.465 383.696C22.714 366.627 30.236 350.77 30.508 333.658C30.7327 325.207 29.6922 316.77 27.421 308.626C25.1587 300.478 21.6622 292.725 17.053 285.635C16.697 285.135 17.533 284.546 17.869 285.105Z" fill="white"/>
<path d="M-27.94 142.853C-6.69098 121.761 14.933 100.007 42.235 86.7732C62.477 76.9642 84.785 71.5052 102.556 57.4032C108.456 52.8723 113.498 47.3234 117.446 41.0182C117.506 40.921 117.602 40.8509 117.712 40.8225C117.823 40.7941 117.941 40.8096 118.04 40.8658C118.14 40.9219 118.214 41.0145 118.247 41.1239C118.28 41.2334 118.269 41.3514 118.217 41.4532C114.59 48.1563 109.662 54.0684 103.722 58.8432C86.097 73.4272 63.182 78.8262 42.922 88.2072C29.38 94.5212 16.932 103.046 5.43502 112.638C-6.04498 122.278 -16.752 132.815 -27.311 143.477C-27.3518 143.519 -27.4005 143.553 -27.4545 143.576C-27.5084 143.599 -27.5663 143.611 -27.625 143.612C-27.6836 143.612 -27.7418 143.601 -27.796 143.579C-27.8503 143.557 -27.8996 143.524 -27.9411 143.482C-27.9826 143.441 -28.0154 143.392 -28.0376 143.337C-28.0598 143.283 -28.071 143.225 -28.0705 143.166C-28.0701 143.108 -28.0579 143.05 -28.0348 142.996C-28.0117 142.942 -27.9781 142.893 -27.936 142.852" fill="white"/>
<path d="M5.58704 110.89C16.328 88.6383 22.86 64.7903 29.787 41.1663C29.8151 41.0887 29.8709 41.0242 29.9436 40.9853C30.0164 40.9464 30.101 40.9358 30.1811 40.9555C30.2612 40.9753 30.3312 41.024 30.3775 41.0922C30.4238 41.1605 30.4433 41.2435 30.432 41.3253C28.0184 53.4494 24.6274 65.3583 20.292 76.9353C16.068 88.5443 11.299 99.9353 6.18504 111.169C6.01804 111.547 5.38504 111.293 5.58504 110.89" fill="white"/>
<path d="M23.15 98.2044C43.023 78.5274 58.807 55.2484 72.35 30.8834C72.532 30.5454 73.123 30.7984 72.944 31.1834C64.389 50.4124 51.563 67.4294 37.852 83.2614C33.288 88.5614 28.494 93.6564 23.621 98.6724C23.337 98.9724 22.828 98.5204 23.149 98.2054" fill="white"/>
<path d="M-5.78594 121.502C20.7591 112.214 49.2371 106.629 77.4281 109.219C77.5098 109.231 77.5841 109.273 77.6367 109.337C77.6892 109.4 77.7163 109.481 77.7125 109.564C77.7088 109.646 77.6746 109.724 77.6164 109.783C77.5583 109.842 77.4805 109.877 77.3981 109.881C56.3231 109.819 35.1461 110.894 14.6171 115.981C7.78454 117.66 1.04912 119.712 -5.55894 122.128C-5.93994 122.28 -6.21294 121.646 -5.78594 121.504" fill="white"/>
<path d="M27.1801 96.2024C53.0031 89.0024 80.88 79.7964 107.58 87.7524C107.657 87.7818 107.721 87.8388 107.758 87.9123C107.796 87.9858 107.805 88.0706 107.784 88.1504C107.762 88.2302 107.712 88.2993 107.643 88.3443C107.574 88.3894 107.491 88.4072 107.409 88.3944C87.3941 84.2084 66.7351 86.6554 47.0331 91.3944C40.4331 93.033 33.8791 94.8487 27.3711 96.8414C26.9811 96.9704 26.7471 96.3234 27.1821 96.2064" fill="white"/>
<path d="M-10.851 113.955C-14.4435 107.49 -15.6558 99.9699 -14.277 92.7032C-13.093 86.5792 -10.125 80.9772 -7.60499 75.2732C-4.89664 69.1422 -2.67804 62.8064 -0.969991 56.3252C1.61501 66.1492 3.798 76.2662 2.975 86.3922C2.152 96.5182 -2.058 106.773 -10.182 112.872" fill="white"/>
<path d="M-11.1409 114.117C-16.2329 105.105 -16.2829 93.8952 -12.1129 84.5422C-8.04793 75.2532 -3.90095 66.0592 -1.54595 56.1742C-1.5096 56.0496 -1.4338 55.9401 -1.32994 55.8622C-1.22608 55.7843 -1.09976 55.7422 -0.969942 55.7422C-0.84012 55.7422 -0.713799 55.7843 -0.609941 55.8622C-0.506084 55.9401 -0.430288 56.0496 -0.393938 56.1742C0.987985 61.0842 2.10426 66.0651 2.95006 71.0952C5.60406 85.9142 3.12906 103.866 -9.98494 113.137C-10.0552 113.19 -10.1437 113.213 -10.2309 113.201C-10.3181 113.189 -10.3969 113.142 -10.4499 113.072C-10.503 113.002 -10.5259 112.913 -10.5138 112.826C-10.5016 112.739 -10.4552 112.66 -10.3849 112.607C-2.53194 106.224 1.37605 96.1922 2.20405 86.3162C3.07205 76.2992 0.953055 66.2572 -1.54795 56.4772H-0.397936C-1.737 61.3852 -3.36825 66.2088 -5.28295 70.9222C-11.7979 85.8222 -19.3599 97.6012 -10.5659 113.793C-10.3439 114.151 -10.9419 114.51 -11.1449 114.117" fill="white"/>
<path d="M19.7281 76.1313C15.5831 64.1443 16.0421 50.9253 19.0941 38.6143C22.1461 26.3033 27.6741 14.7583 33.5761 3.53027C33.2161 12.3143 34.6761 21.0573 35.6631 29.7933C36.6501 38.5293 37.1511 47.5023 34.9261 56.0073C32.7011 64.5123 27.3541 72.5843 19.3411 76.2073" fill="white"/>
<path d="M19.414 76.2403C10.951 51.3753 21.504 25.2972 33.056 3.25924C33.1203 3.14525 33.2208 3.056 33.3416 3.00558C33.4624 2.95517 33.5966 2.94648 33.7228 2.98092C33.8491 3.01536 33.9603 3.09093 34.0387 3.19569C34.1172 3.30044 34.1585 3.42839 34.156 3.55925C33.696 16.6692 37.281 29.5922 37.263 42.9452C37.328 52.8662 34.73 63.4222 27.674 70.7862C25.3494 73.2216 22.5615 75.1677 19.474 76.5102C19.3961 76.5374 19.3108 76.5344 19.235 76.5019C19.1591 76.4694 19.0981 76.4098 19.064 76.3347C19.0298 76.2596 19.0249 76.1745 19.0503 76.0959C19.0756 76.0174 19.1294 75.9512 19.201 75.9102C31.271 69.9022 35.843 55.6612 35.728 42.9382C35.878 29.7722 32.363 16.7563 32.987 3.51326L34.087 3.81324C22.236 25.4952 11.622 51.3352 20.035 76.0322C20.185 76.4182 19.54 76.6713 19.408 76.2493" fill="white"/>
<path d="M39.113 81.2383C43.946 64.1613 50.638 43.4323 62.198 29.9663C71.755 18.8323 84.992 11.4483 95.123 0.831299C88.315 9.6893 86.113 21.1073 82.76 31.7623C79.484 42.1753 74.887 52.2843 68.14 60.8623C61.393 69.4403 49.59 78.3123 39.172 81.5683" fill="white"/>
<path d="M38.795 81.1483C45.947 55.9483 53.803 32.9813 75.711 16.8003C82.229 11.5123 88.9601 6.47226 94.6961 0.422264C94.8039 0.309008 94.9522 0.243099 95.1085 0.238975C95.2648 0.234852 95.4164 0.292847 95.5301 0.400261C95.6349 0.501965 95.699 0.638424 95.7105 0.78405C95.7219 0.929675 95.6798 1.07446 95.5921 1.19126C90.4821 7.92326 87.9921 16.1993 85.6721 24.3483C81.2911 40.7433 74.5651 57.5893 61.378 68.9583C54.896 74.5733 47.532 79.3713 39.269 81.8863C39.185 81.911 39.0946 81.9016 39.0173 81.8603C38.9401 81.819 38.8821 81.7489 38.8561 81.6653C38.8319 81.5819 38.8409 81.4924 38.8811 81.4154C38.9214 81.3385 38.9898 81.28 39.072 81.2523C54.953 75.3993 68.0721 62.9062 75.4951 47.7673C79.242 40.1528 82.2091 32.1789 84.351 23.9673C86.744 15.8353 89.294 7.38527 94.651 0.472267L95.5511 1.24026C83.8991 13.3273 68.225 21.1403 58.6411 35.1713C49.159 49.0363 44.047 65.3153 39.4321 81.3303C39.3321 81.7253 38.659 81.5763 38.795 81.1493" fill="white"/>
<path d="M80.4441 71.6381C88.2801 67.9521 93.6511 60.5382 98.0191 53.0592C102.387 45.5802 106.208 37.5991 112.347 31.4901C119.755 24.1201 130.156 19.8851 136.24 11.3901C136.514 17.6791 135.004 23.9121 133.123 29.9221C128.809 43.7062 121.809 57.6011 109.423 65.0361C100.137 70.6111 88.9651 71.8771 78.1691 72.7361" fill="white"/>
<path d="M80.302 71.3393C96.578 63.3393 99.971 43.2793 112.16 31.1483C119.473 23.8303 129.732 19.5233 135.78 11.0633C135.849 10.9708 135.945 10.9016 136.055 10.8651C136.164 10.8286 136.283 10.8266 136.393 10.8593C136.504 10.8919 136.602 10.9577 136.675 11.0478C136.747 11.1379 136.79 11.248 136.798 11.3633C137.168 19.4423 134.786 27.2243 132.226 34.6773C127.152 49.5423 117.408 64.5103 101.661 69.3773C94.044 71.9193 86.061 72.6193 78.194 73.0613C78.1062 73.0682 78.0193 73.0399 77.9524 72.9827C77.8854 72.9255 77.8439 72.8441 77.837 72.7563C77.8301 72.6685 77.8584 72.5816 77.9156 72.5146C77.9728 72.4477 78.0542 72.4062 78.142 72.3993C85.966 71.5783 93.848 70.6533 101.195 68.0343C116.432 63.0643 125.84 48.7283 130.963 34.2203C133.563 26.8523 135.935 19.2033 135.677 11.4073L136.694 11.7073C132.467 17.4783 126.394 21.2693 120.764 25.2223C114.944 28.9705 109.99 33.916 106.231 39.7293C98.776 51.1053 93.661 65.6243 80.586 71.9403C80.216 72.1143 79.899 71.5293 80.303 71.3403" fill="white"/>
<path d="M80.417 85.6002C90.032 80.5232 105.288 76.8662 116.049 78.4312C126.81 79.9962 137.036 84.2242 146.537 89.5072C138.858 93.4016 130.415 95.5545 121.81 95.8124C113.204 96.0703 104.647 94.4268 96.749 90.9992C91.455 88.6552 86.204 85.4392 80.416 85.5992" fill="white"/>
<path d="M80.263 85.3084C90.663 80.1844 102.343 77.2214 113.98 77.8534C119.772 78.4943 125.468 79.8202 130.948 81.8034C136.422 83.7783 141.729 86.1859 146.821 89.0034C146.955 89.0775 147.055 89.2016 147.098 89.3488C147.141 89.496 147.125 89.6544 147.052 89.7894C139.443 94.1424 130.49 96.1494 121.752 96.5404C113.006 96.8569 104.305 95.1592 96.319 91.5784C91.177 89.2304 86.21 85.9894 80.428 85.9364C80.3402 85.9388 80.2551 85.9062 80.1913 85.8458C80.1276 85.7854 80.0904 85.7021 80.088 85.6144C80.0856 85.5266 80.1182 85.4414 80.1786 85.3777C80.239 85.3139 80.3222 85.2767 80.41 85.2744C86.33 84.9404 91.671 88.0674 96.89 90.2964C107.37 94.7851 118.92 96.1626 130.162 94.2644C135.763 93.3156 141.193 91.5399 146.272 88.9954L146.255 90.0204C141.256 87.1516 136.036 84.6861 130.645 82.6474C125.266 80.5816 119.648 79.204 113.924 78.5474C102.357 78.059 90.8627 80.5925 80.573 85.8984C80.212 86.1104 79.864 85.5074 80.264 85.3134" fill="white"/>
<path d="M36.5941 112.197C49.2665 104.754 64.1613 102.026 78.6491 104.497C88.7961 106.266 98.4331 110.561 108.677 111.639C101.09 119.239 90.1151 122.813 79.3771 122.96C68.6391 123.107 58.0861 120.094 48.1551 116.019C44.0361 114.328 39.9211 112.432 35.5051 111.874" fill="white"/>
<path d="M36.4261 111.912C52.6651 102.078 72.8841 101.099 90.6771 107.001C96.6501 108.688 102.618 110.446 108.739 111.061C108.815 111.069 108.89 111.091 108.957 111.127C109.025 111.163 109.085 111.213 109.133 111.272C109.182 111.331 109.218 111.4 109.24 111.473C109.262 111.547 109.269 111.624 109.261 111.7C100.236 121.578 85.5671 124.7 72.6311 123.419C62.8311 122.473 53.4961 119.119 44.5881 115.153C41.6875 113.783 38.6226 112.793 35.4691 112.205C35.3817 112.194 35.3023 112.149 35.2484 112.079C35.1945 112.009 35.1704 111.921 35.1816 111.834C35.1927 111.746 35.2381 111.667 35.3078 111.613C35.3774 111.559 35.4657 111.535 35.5531 111.546C42.0931 112.27 47.9041 115.574 54.0731 117.538C66.1011 121.699 79.3321 124.011 91.7791 120.49C97.9683 118.845 103.64 115.66 108.266 111.231L108.619 112.224C96.1861 110.801 84.8131 104.816 72.3051 104.109C59.8879 103.282 47.5081 106.199 36.7671 112.484C36.4191 112.71 36.0411 112.128 36.4291 111.914" fill="white"/>
<path d="M-35.788 180.778C10.3691 162.059 63.8241 161.743 110.342 179.494C125.935 185.436 140.509 193.765 153.542 204.185C153.681 204.292 153.772 204.449 153.796 204.622C153.821 204.796 153.776 204.972 153.672 205.113C153.569 205.254 153.414 205.349 153.241 205.377C153.068 205.405 152.891 205.365 152.748 205.264C139.106 196.09 124.505 188.429 109.205 182.414C78.7231 170.732 44.9051 165.561 12.4051 169.606C-3.97964 171.558 -20.0221 175.732 -35.28 182.014C-35.362 182.051 -35.4506 182.072 -35.5407 182.074C-35.6307 182.076 -35.7202 182.06 -35.8039 182.027C-35.8876 181.994 -35.9638 181.944 -36.0278 181.88C-36.0918 181.817 -36.1424 181.742 -36.1766 181.658C-36.2108 181.575 -36.2278 181.486 -36.2266 181.395C-36.2255 181.305 -36.2062 181.217 -36.1699 181.134C-36.1336 181.052 -36.0811 180.977 -36.0155 180.916C-35.9499 180.854 -35.8725 180.806 -35.788 180.775" fill="white"/>
<path d="M38.785 166.007C63.2847 165.978 87.5842 170.418 110.491 179.107C126.129 185.055 140.743 193.408 153.805 203.863C153.918 203.952 154.011 204.062 154.08 204.188C154.149 204.313 154.191 204.452 154.205 204.594C154.221 204.737 154.208 204.881 154.167 205.018C154.127 205.155 154.059 205.283 153.969 205.394C153.798 205.604 153.554 205.743 153.287 205.784C153.019 205.825 152.745 205.765 152.519 205.615C138.899 196.464 124.325 188.82 109.054 182.815C77.098 170.569 43.698 166.143 12.462 170.032C-3.88639 171.977 -19.8934 176.141 -35.117 182.41C-35.2493 182.466 -35.3914 182.496 -35.5352 182.497C-35.679 182.498 -35.8215 182.47 -35.9545 182.416C-36.0875 182.361 -36.2084 182.281 -36.3102 182.179C-36.4119 182.078 -36.4925 181.957 -36.5473 181.824C-36.602 181.691 -36.6299 181.548 -36.6292 181.405C-36.6285 181.261 -36.5993 181.119 -36.5433 180.986C-36.4873 180.854 -36.4056 180.734 -36.3029 180.633C-36.2001 180.533 -36.0785 180.453 -35.945 180.4C-12.1899 170.848 13.1835 165.964 38.787 166.015M153.116 204.956C153.154 204.957 153.192 204.948 153.227 204.932C153.261 204.916 153.292 204.892 153.316 204.862C153.358 204.81 153.378 204.744 153.371 204.678C153.365 204.612 153.332 204.551 153.281 204.508C140.287 194.108 125.749 185.8 110.192 179.884C63.476 162.055 10.326 162.525 -35.632 181.163C-35.6626 181.175 -35.6906 181.194 -35.7141 181.217C-35.7376 181.24 -35.7563 181.268 -35.769 181.298C-35.7822 181.329 -35.789 181.362 -35.789 181.395C-35.789 181.429 -35.7822 181.462 -35.769 181.492C-35.7423 181.554 -35.6924 181.603 -35.63 181.629C-35.57 181.653 -35.5029 181.653 -35.443 181.629C-20.1483 175.332 -4.06712 171.149 12.357 169.193C43.732 165.293 77.27 169.73 109.357 182.026C124.683 188.056 139.309 195.731 152.978 204.917C153.02 204.944 153.068 204.959 153.118 204.959" fill="white"/>
<path d="M105.999 180.666C115.42 181.151 124.808 182.002 134.199 182.612C143.57 183.242 153.069 183.022 162.421 184.851L161.721 185.393C161.833 180.274 156.977 176.41 152.166 175.771C147.156 174.978 141.974 176.231 136.96 177.455C126.948 180.019 116.36 183.977 105.905 181.336C105.862 181.325 105.821 181.306 105.785 181.28C105.75 181.253 105.719 181.22 105.696 181.182C105.673 181.144 105.658 181.101 105.652 181.057C105.645 181.013 105.647 180.968 105.658 180.925C105.68 180.842 105.733 180.77 105.806 180.723C105.879 180.677 105.966 180.659 106.051 180.674C116.513 182.497 126.533 178.396 136.579 175.94C141.679 174.769 146.979 173.505 152.4 174.41C157.756 175.193 163.142 179.616 162.885 185.45C162.882 185.534 162.86 185.617 162.821 185.692C162.782 185.767 162.728 185.832 162.661 185.884C162.594 185.935 162.517 185.972 162.435 185.991C162.353 186.009 162.267 186.01 162.185 185.992C157.587 185.074 152.932 184.471 148.252 184.186C134.566 183.525 119.552 182.002 105.959 181.345C105.871 181.339 105.788 181.298 105.73 181.231C105.671 181.165 105.64 181.079 105.645 180.99C105.649 180.902 105.687 180.818 105.752 180.758C105.817 180.697 105.902 180.664 105.991 180.666" fill="white"/>
<path d="M148.546 173.683C149.861 173.68 151.174 173.785 152.472 173.996C157.743 174.767 163.046 178.896 163.306 184.596L163.406 184.616L163.312 184.69C163.32 184.946 163.32 185.203 163.312 185.466C163.305 185.611 163.267 185.752 163.201 185.88C163.134 186.008 163.041 186.12 162.927 186.209C162.813 186.298 162.681 186.361 162.54 186.393C162.4 186.426 162.254 186.428 162.112 186.399C161.853 186.345 161.589 186.292 161.326 186.24L161.298 186.26V186.233C156.982 185.416 152.62 184.871 148.236 184.599C141.38 184.27 134.067 183.713 126.997 183.174C123.704 182.921 120.36 182.667 117.037 182.433C113.295 182.854 109.508 182.622 105.845 181.747C105.736 181.729 105.634 181.685 105.545 181.62C105.456 181.554 105.383 181.469 105.333 181.371C105.267 181.247 105.236 181.108 105.241 180.967C105.246 180.827 105.288 180.69 105.363 180.571C105.436 180.464 105.536 180.377 105.653 180.32C105.77 180.263 105.899 180.237 106.029 180.245C108.355 180.365 110.696 180.508 113.029 180.665C118.788 180.406 124.465 178.817 130.009 177.265C132.131 176.671 134.327 176.058 136.489 175.528L136.812 175.454C140.646 174.421 144.584 173.825 148.551 173.678M162.462 184.427C162.079 179.32 157.104 175.512 152.348 174.818C147.106 173.947 141.967 175.126 136.999 176.269L136.681 176.341C134.539 176.864 132.35 177.476 130.233 178.07C126.179 179.293 122.056 180.274 117.886 181.01C118.647 181.065 119.408 181.12 120.164 181.177C124.172 180.443 128.139 179.498 132.047 178.346C133.666 177.9 135.271 177.458 136.863 177.052C141.905 175.82 147.11 174.547 152.238 175.36C156.875 175.975 161.609 179.46 162.106 184.367C162.223 184.387 162.342 184.41 162.459 184.434M161.242 184.208C160.637 179.89 156.254 176.736 152.117 176.188C147.145 175.395 142.017 176.65 137.067 177.864C135.485 178.264 133.883 178.71 132.267 179.153C129.332 179.962 126.367 180.78 123.374 181.419C126.993 181.692 130.61 181.962 134.228 182.198C136.979 182.382 139.79 182.498 142.511 182.606C148.782 182.72 155.039 183.254 161.238 184.206M161.307 185.066C155.075 184.095 148.784 183.552 142.478 183.439C142.386 183.439 142.294 183.432 142.202 183.427C144.254 183.556 146.286 183.671 148.277 183.766C152.65 184.038 157.001 184.579 161.307 185.386C161.307 185.279 161.307 185.175 161.307 185.068M162.307 185.59C162.343 185.59 162.378 185.577 162.407 185.555C162.425 185.541 162.44 185.524 162.451 185.503C162.461 185.483 162.468 185.461 162.469 185.438C162.469 185.406 162.469 185.374 162.469 185.344L162.181 185.566L162.271 185.586H162.304" fill="white"/>
<path d="M79.344 170.674C85.4897 174.673 91.1491 179.373 96.208 184.68C99.537 188.195 102.561 192.058 106.35 195.07C112.129 199.629 119.363 201.77 124.557 207.339L123.278 207.811C123.362 201.891 119.408 196.652 114.686 193.386C109.775 190.036 103.898 188.321 98.117 186.486C98.0357 186.458 97.9681 186.4 97.9278 186.324C97.8875 186.248 97.8775 186.159 97.8998 186.076C97.9221 185.993 97.975 185.921 98.0479 185.875C98.1209 185.83 98.2084 185.813 98.293 185.829C109.77 187.814 124.805 194.061 124.744 207.852C124.739 207.998 124.69 208.14 124.605 208.258C124.519 208.376 124.4 208.467 124.263 208.518C124.126 208.568 123.977 208.577 123.835 208.543C123.693 208.509 123.564 208.433 123.465 208.325C118.701 202.944 111.291 200.447 105.736 195.83C100.184 191.03 96.086 184.83 90.51 180.074C86.9236 176.808 83.0635 173.856 78.972 171.25C78.609 171.029 78.96 170.421 79.34 170.678" fill="white"/>
<path d="M79.1511 170.196C79.3011 170.197 79.4474 170.243 79.5711 170.328C85.7442 174.345 91.4291 179.067 96.5111 184.397C96.9011 184.808 97.2851 185.223 97.6701 185.643C97.7586 185.544 97.8726 185.471 97.9997 185.432C98.1267 185.393 98.2621 185.389 98.3911 185.421C104.608 186.496 124.837 191.252 125.159 207.374L125.289 207.516L125.16 207.563C125.16 207.663 125.16 207.757 125.16 207.852C125.154 208.084 125.079 208.309 124.944 208.498C124.808 208.686 124.619 208.83 124.401 208.909C124.183 208.989 123.946 209.001 123.721 208.944C123.496 208.887 123.294 208.763 123.14 208.589C123.078 208.519 123.016 208.449 122.954 208.38L122.851 208.416V208.266C120.172 205.373 116.614 203.279 113.169 201.253C110.47 199.761 107.895 198.054 105.469 196.148C102.771 193.707 100.242 191.086 97.8991 188.302C95.5362 185.486 92.9761 182.842 90.2381 180.389C86.6666 177.138 82.8236 174.198 78.7511 171.601C78.6402 171.534 78.5496 171.439 78.4887 171.324C78.4277 171.21 78.3989 171.082 78.4051 170.952C78.411 170.811 78.454 170.674 78.5296 170.554C78.6052 170.435 78.7109 170.337 78.8361 170.271C78.935 170.221 79.0443 170.196 79.1551 170.196M79.1981 170.896L79.3421 170.677L79.1951 170.893M79.1951 170.893L79.1061 171.022L79.1131 171.027L79.1951 170.893ZM124.278 206.45C123.266 192.612 106.427 187.85 99.4471 186.465L99.5071 186.483C104.821 188.164 110.315 189.901 114.918 193.042C119.786 196.407 122.905 201.047 123.563 205.768C123.806 205.991 124.045 206.218 124.278 206.45ZM122.56 204.89C121.66 200.746 118.772 196.723 114.445 193.731C109.945 190.661 104.512 188.943 99.2561 187.281L99.1071 187.234L99.3381 187.488C101.555 190.105 103.986 192.531 106.607 194.742C109.019 196.542 111.57 198.147 114.236 199.542C117.17 201.064 119.956 202.855 122.56 204.89ZM122.774 206.179C120.022 203.883 117.022 201.902 113.829 200.273C111.123 198.857 108.535 197.227 106.088 195.398C104.778 194.343 103.534 193.207 102.364 191.998C103.53 193.22 104.735 194.408 106.008 195.508C108.398 197.382 110.934 199.062 113.592 200.531C116.937 202.316 120.047 204.509 122.851 207.06C122.838 206.767 122.814 206.475 122.779 206.18M123.817 207.17C123.772 207.127 123.73 207.081 123.685 207.04C123.685 207.099 123.69 207.155 123.693 207.214L123.817 207.17ZM123.996 208.147C124.038 208.147 124.079 208.139 124.118 208.124C124.174 208.107 124.224 208.074 124.261 208.029C124.299 207.984 124.322 207.929 124.329 207.871L123.802 208.071C123.827 208.097 123.858 208.117 123.891 208.131C123.924 208.145 123.96 208.152 123.996 208.151" fill="white"/>
<path d="M60.467 169.813C70.4122 171.687 80.675 170.915 90.228 167.574C100.054 165.014 109.303 161.213 117.238 154.756L117.455 155.983C113.943 155.08 110.275 154.955 106.709 155.615C103.143 156.275 99.7643 157.706 96.808 159.806C90.862 163.948 85.55 170.726 77.691 171.179C77.6049 171.179 77.5222 171.146 77.4596 171.087C77.397 171.028 77.3592 170.947 77.3537 170.861C77.3483 170.775 77.3756 170.69 77.4302 170.624C77.4849 170.557 77.5627 170.514 77.648 170.502C85.113 169.37 89.948 162.731 95.889 158.529C99.0207 156.28 102.618 154.763 106.415 154.092C110.212 153.421 114.112 153.612 117.825 154.651C117.95 154.687 118.063 154.757 118.15 154.854C118.237 154.951 118.295 155.07 118.318 155.198C118.34 155.326 118.327 155.458 118.278 155.579C118.229 155.699 118.147 155.804 118.042 155.88C110.01 162.18 100.305 165.98 90.435 168.311C85.5818 169.81 80.5981 170.848 75.55 171.411C70.45 171.826 65.376 171.135 60.374 170.488C60.2846 170.476 60.2038 170.429 60.1492 170.357C60.0946 170.285 60.0708 170.195 60.083 170.105C60.0952 170.016 60.1424 169.935 60.2143 169.881C60.2861 169.826 60.3766 169.802 60.466 169.814" fill="white"/>
<path d="M110.989 153.283C113.148 153.279 115.299 153.552 117.389 154.094L117.529 153.98L117.557 154.137C117.686 154.172 117.815 154.207 117.943 154.246C118.146 154.301 118.329 154.413 118.469 154.57C118.61 154.726 118.702 154.92 118.734 155.127C118.776 155.335 118.754 155.551 118.673 155.747C118.591 155.943 118.453 156.11 118.276 156.227C118.176 156.307 118.076 156.388 117.97 156.466L117.985 156.553L117.885 156.528C110.763 162.001 101.556 166.108 90.531 168.715L90.37 168.76C87.17 169.636 83.9 170.533 80.57 171.15C79.6656 171.384 78.7412 171.531 77.809 171.59C77.0717 171.687 76.3304 171.766 75.585 171.826C70.6259 172.057 65.6562 171.765 60.758 170.956L60.322 170.901C60.1925 170.886 60.0696 170.836 59.966 170.757C59.8624 170.678 59.7819 170.572 59.733 170.451C59.68 170.323 59.6613 170.183 59.6789 170.045C59.6964 169.907 59.7495 169.776 59.833 169.665C59.9119 169.561 60.0186 169.48 60.1409 169.433C60.2633 169.386 60.3963 169.374 60.525 169.399H60.542C66.5042 170.555 72.6162 170.72 78.632 169.887C83.199 168.839 86.858 165.613 90.401 162.487C92.0713 160.961 93.8207 159.524 95.642 158.181C100.117 154.981 105.484 153.267 110.985 153.281M116.567 154.753C113.063 153.959 109.432 153.915 105.91 154.623C102.388 155.331 99.0553 156.776 96.131 158.862C94.3319 160.187 92.6042 161.607 90.955 163.114C88.537 165.423 85.8564 167.44 82.968 169.124C83.329 169.047 83.694 168.967 84.057 168.882C86.8151 167.29 89.3962 165.41 91.757 163.272C93.319 161.958 94.934 160.6 96.57 159.459C99.3514 157.477 102.506 156.078 105.843 155.349C109.18 154.619 112.63 154.574 115.985 155.215L116.57 154.753M117.801 155.536C117.842 155.507 117.874 155.466 117.893 155.419C117.911 155.372 117.916 155.32 117.906 155.27C117.901 155.221 117.881 155.174 117.849 155.135C117.817 155.097 117.775 155.068 117.727 155.053H117.715L117.801 155.536ZM115.079 155.902C108.747 154.899 102.275 156.421 97.054 160.141C95.444 161.261 93.915 162.551 92.295 163.912C90.565 165.422 88.7565 166.84 86.877 168.159C87.947 167.86 89.02 167.531 90.096 167.171C100.374 164.495 108.377 160.892 115.079 155.902ZM116.857 156.258C116.636 156.206 116.414 156.158 116.195 156.109C109.989 160.86 102.695 164.397 93.555 167.082C102.781 164.567 110.6 160.935 116.855 156.258" fill="white"/>
<path d="M28.6491 167.222C32.7952 168.344 36.7998 169.935 40.5851 171.964C48.0531 176.32 52.4761 184.264 59.5571 189.026C62.997 191.448 66.8068 193.295 70.8381 194.496L70.1561 195.696C67.6791 193.464 67.5061 190.004 66.6561 187.112C65.7561 183.654 62.9051 181.032 59.7631 179.44C54.9441 177.54 49.6791 176.973 44.6441 175.691C44.5562 175.67 44.4802 175.616 44.4328 175.539C44.3853 175.462 44.3703 175.369 44.3911 175.281C44.4123 175.199 44.4627 175.128 44.5328 175.08C44.603 175.033 44.688 175.013 44.7721 175.023C47.7441 175.401 50.742 175.769 53.7181 176.307C56.738 176.845 59.8901 177.431 62.4861 179.225C65.2392 180.914 67.2578 183.575 68.1421 186.681C68.9831 189.656 69.1301 192.798 71.1191 194.668C73.0621 198.668 59.6191 190.788 58.9131 189.919C51.8981 184.939 47.6741 176.897 40.2471 172.543C36.5284 170.497 32.566 168.929 28.454 167.877C28.039 167.768 28.2121 167.083 28.6461 167.225" fill="white"/>
<path d="M28.536 166.786C28.6171 166.786 28.6977 166.799 28.775 166.823C32.9509 167.952 36.9839 169.556 40.795 171.602C42.2844 172.484 43.6929 173.495 45.004 174.625L45.462 174.684C48.194 175.03 51.019 175.39 53.795 175.891C56.71 176.411 60.011 177.001 62.726 178.876C65.5677 180.618 67.6474 183.368 68.549 186.576C68.765 187.339 68.935 188.123 69.102 188.882C69.552 190.931 69.978 192.872 71.219 194.176L71.463 194.25L71.401 194.357L71.49 194.479C71.942 195.405 71.661 195.839 71.348 196.038C69.497 197.227 59.684 191.132 58.657 190.247C55.5144 187.836 52.6486 185.084 50.112 182.041C47.102 178.686 43.99 175.218 40.035 172.899C36.343 170.876 32.4125 169.322 28.335 168.274C28.21 168.241 28.0962 168.176 28.0055 168.084C27.9149 167.991 27.8508 167.877 27.82 167.751C27.7854 167.613 27.7881 167.469 27.8278 167.332C27.8675 167.196 27.9428 167.073 28.046 166.975C28.1779 166.853 28.3512 166.785 28.531 166.786M28.568 167.472L28.643 167.221L28.563 167.47H28.568M28.568 167.47H28.563L28.513 167.619H28.523L28.568 167.47ZM69.84 193.744C69.0658 192.278 68.539 190.693 68.281 189.055C68.115 188.304 67.948 187.54 67.736 186.789C66.887 183.778 64.9304 181.2 62.259 179.572C59.68 177.789 56.471 177.216 53.642 176.711C51.142 176.261 48.594 175.925 46.112 175.611C47.421 175.911 48.746 176.181 50.038 176.44C53.3985 177.02 56.702 177.891 59.911 179.045C62.111 180.159 65.919 182.65 67.053 187C67.253 187.684 67.419 188.411 67.586 189.149C67.858 190.631 68.3167 192.073 68.951 193.44C69.245 193.545 69.54 193.647 69.837 193.746M67.829 193.019C67.3746 191.822 67.021 190.589 66.772 189.333C66.608 188.614 66.448 187.903 66.247 187.223C65.476 184.266 63.047 181.569 59.568 179.807C56.4141 178.68 53.1687 177.828 49.868 177.26C49.019 177.089 48.152 176.914 47.288 176.73C48.596 178.006 49.84 179.339 51.067 180.653C53.6587 183.648 56.5809 186.34 59.778 188.678C62.2792 190.438 64.9805 191.895 67.825 193.019M68.358 194.119C65.1459 192.937 62.1021 191.34 59.304 189.368C56.4155 187.297 53.768 184.909 51.411 182.248C53.7126 184.966 56.3054 187.424 59.143 189.576L59.225 189.655C59.86 190.399 65.695 193.705 68.892 194.939C68.6971 194.677 68.5185 194.404 68.357 194.12M70.201 194.745C70.024 194.69 69.846 194.635 69.669 194.576C69.788 194.728 69.913 194.876 70.047 195.017C70.097 194.927 70.147 194.835 70.201 194.744M70.887 195.336C70.887 195.336 70.887 195.308 70.875 195.249C70.85 195.296 70.825 195.338 70.801 195.376C70.8316 195.368 70.8604 195.355 70.886 195.336" fill="white"/>
<path d="M24.026 167.286C32.237 166.993 40.563 165.651 47.944 162.017C51.626 160.204 54.857 157.637 58.215 155.203C61.556 152.777 65.153 150.419 69.33 149.347L69.011 150.469C64.361 145.897 56.364 147.148 52.519 152.185C50.305 154.662 49.83 158.254 47.397 160.678C44.966 163.231 41.832 164.686 38.797 165.999C38.7171 166.033 38.6272 166.035 38.5459 166.005C38.4645 165.974 38.3979 165.914 38.3595 165.836C38.3211 165.758 38.314 165.669 38.3396 165.586C38.3652 165.503 38.4215 165.433 38.497 165.39C41.368 163.765 44.305 162.158 46.378 159.765C48.565 157.288 49.052 153.735 51.286 151.175C55.602 145.496 64.828 144.155 69.957 149.526C70.02 149.588 70.07 149.662 70.1041 149.744C70.1382 149.825 70.1558 149.913 70.1558 150.001C70.1558 150.09 70.1382 150.177 70.1041 150.259C70.07 150.34 70.02 150.414 69.957 150.476C61.815 152.535 55.805 159.138 48.27 162.687C40.738 166.344 32.329 167.552 24.053 167.966C23.9649 167.967 23.8801 167.933 23.8163 167.872C23.7526 167.811 23.7149 167.728 23.7113 167.64C23.7077 167.552 23.7383 167.466 23.7969 167.4C23.8554 167.335 23.9372 167.294 24.025 167.287" fill="white"/>
<path d="M61.737 145.713C64.7249 145.664 67.6172 146.766 69.814 148.792L69.931 148.762L69.901 148.874C70.025 148.991 70.145 149.115 70.266 149.239C70.4679 149.445 70.5798 149.722 70.5774 150.01C70.575 150.299 70.4583 150.574 70.253 150.776L70.171 150.855L70.062 150.882C69.796 150.949 69.532 151.022 69.269 151.099L69.222 151.263L69.105 151.148C64.739 152.472 60.896 155.133 57.172 157.712C54.4167 159.733 51.4999 161.524 48.451 163.066C41.946 166.225 34.428 167.866 24.075 168.385C23.9453 168.392 23.8161 168.365 23.7003 168.306C23.5846 168.247 23.4865 168.158 23.416 168.049C23.3411 167.932 23.2981 167.797 23.2914 167.657C23.2848 167.518 23.3146 167.379 23.378 167.255C23.4397 167.14 23.5311 167.044 23.6428 166.976C23.7546 166.908 23.8824 166.872 24.013 166.87C28.8218 166.744 33.6052 166.128 38.289 165.031L38.633 164.837C41.333 163.314 44.121 161.737 46.066 159.496C47.0624 158.242 47.8601 156.842 48.431 155.345C49.0492 153.745 49.9063 152.248 50.973 150.904C52.1739 149.381 53.6865 148.132 55.4094 147.241C57.1324 146.35 59.0259 145.838 60.963 145.738C61.221 145.723 61.48 145.716 61.736 145.716M68.836 149.049C66.6423 147.248 63.8388 146.361 61.008 146.572C59.1872 146.665 57.4073 147.147 55.788 147.985C54.1687 148.823 52.7475 149.997 51.62 151.43C50.603 152.719 49.7852 154.153 49.194 155.684C48.5887 157.257 47.7456 158.728 46.694 160.045C45.1952 161.666 43.453 163.043 41.53 164.127C41.818 164.037 42.104 163.945 42.386 163.848C44.1296 162.957 45.7186 161.791 47.092 160.395C48.2334 159.116 49.1381 157.644 49.764 156.047C50.3666 154.554 51.1891 153.159 52.204 151.908C53.2673 150.562 54.6003 149.452 56.1174 148.651C57.6345 147.849 59.3024 147.374 61.014 147.254C63.5702 147.037 66.1199 147.74 68.203 149.237C68.414 149.172 68.626 149.11 68.838 149.05M67.211 149.57C65.381 148.42 63.2252 147.9 61.072 148.088C59.4734 148.2 57.9158 148.645 56.4994 149.395C55.083 150.144 53.8393 151.182 52.848 152.441C51.8806 153.637 51.0976 154.971 50.525 156.398C49.8634 158.083 48.9034 159.634 47.691 160.978C47.2098 161.485 46.6953 161.958 46.151 162.396C46.6964 162.156 47.2327 161.906 47.76 161.647C50.7485 160.06 53.5912 158.212 56.255 156.125C56.8237 155.705 57.395 155.287 57.969 154.869C60.7866 152.679 63.8976 150.896 67.211 149.57ZM69.716 150.109C69.7378 150.063 69.7448 150.011 69.7363 149.96C69.7277 149.91 69.7039 149.863 69.668 149.826L69.64 149.796L69.54 150.157C69.6 150.14 69.66 150.124 69.721 150.109M68.421 150.489C68.299 150.377 68.172 150.27 68.043 150.166C64.5933 151.459 61.3619 153.273 58.461 155.544C57.889 155.959 57.321 156.378 56.752 156.797C55.22 157.926 53.662 159.078 52.038 160.136C53.632 159.149 55.178 158.077 56.697 157.026C60.353 154.496 64.118 151.889 68.421 150.489ZM24.036 167.547L24.026 167.286L24.034 167.547H24.036Z" fill="white"/>
<path d="M-6.95894 171.988C2.41406 171.782 11.4641 175.552 18.8951 181.07C22.4847 183.932 26.2729 186.534 30.2311 188.859C34.1181 191.178 38.5202 192.495 43.0421 192.692L42.5591 193.992C40.1741 192.047 39.0341 189.261 37.7431 186.88C34.1141 178.562 24.2611 178.674 16.5841 180.08C16.4971 180.094 16.4082 180.073 16.3361 180.023C16.264 179.972 16.2143 179.896 16.1975 179.809C16.1806 179.723 16.198 179.633 16.2458 179.56C16.2937 179.486 16.3683 179.433 16.4541 179.413C23.0841 177.528 31.6601 176.801 36.7541 182.503C39.4901 185.613 40.4411 190.269 43.4911 192.864C43.6075 192.962 43.6909 193.093 43.7298 193.24C43.7687 193.387 43.7611 193.542 43.7082 193.685C43.6553 193.827 43.5596 193.95 43.4342 194.036C43.3089 194.121 43.16 194.166 43.0081 194.164C33.3511 193.764 25.5951 187.4 18.4081 181.711C11.2311 176.181 2.22606 172.378 -6.93794 172.674C-7.36294 172.706 -7.41994 171.997 -6.96094 171.995" fill="white"/>
<path d="M-6.20798 171.56C3.00902 171.56 10.927 175.229 16.576 178.936C23.038 177.136 31.765 176.282 37.066 182.215C38.2725 183.715 39.287 185.359 40.086 187.11C40.9091 189.013 42.0527 190.761 43.467 192.277H43.641L43.598 192.394C43.652 192.442 43.705 192.494 43.762 192.536C43.9451 192.691 44.0754 192.899 44.1348 193.131C44.1943 193.363 44.1799 193.608 44.0936 193.832C44.0074 194.056 43.8536 194.247 43.6537 194.379C43.4537 194.511 43.2176 194.578 42.978 194.569C42.916 194.569 42.854 194.564 42.791 194.561L42.748 194.678L42.591 194.551C33.258 194.008 25.564 187.906 18.763 182.513L18.151 182.028C10.317 175.991 1.46202 172.784 -6.92098 173.082C-7.04915 173.094 -7.17805 173.069 -7.29286 173.011C-7.40767 172.953 -7.50372 172.864 -7.56998 172.753C-7.64683 172.633 -7.69037 172.495 -7.69617 172.352C-7.70197 172.21 -7.66981 172.068 -7.60298 171.942C-7.54054 171.828 -7.44807 171.732 -7.3355 171.666C-7.22293 171.6 -7.0945 171.566 -6.96398 171.567C-6.71098 171.562 -6.45698 171.559 -6.20598 171.559M-6.95198 172.246L-6.95898 171.985V172.248H-6.95198M-6.95198 172.248H-6.95898V172.404H-6.95098L-6.95198 172.248ZM42.285 192.248C41.1074 190.792 40.1185 189.193 39.342 187.489C38.573 185.803 37.599 184.218 36.442 182.77C31.792 177.57 24.235 177.914 18.183 179.382C28.616 177.827 35.327 180.282 38.128 186.71C38.342 187.1 38.568 187.538 38.795 187.981C39.4976 189.467 40.354 190.874 41.35 192.181C41.664 192.213 41.974 192.236 42.285 192.25M40.185 192.034C39.3853 190.865 38.6727 189.638 38.053 188.363C37.829 187.927 37.607 187.495 37.379 187.077C34.74 181.035 28.357 178.734 18.411 180.194C18.664 180.375 18.911 180.554 19.15 180.732L19.491 180.991C22.9579 183.746 26.6154 186.253 30.436 188.491C33.4506 190.239 36.7514 191.44 40.185 192.034ZM40.927 192.976C37.0821 192.456 33.3779 191.18 30.027 189.224C26.5121 187.186 23.1448 184.902 19.95 182.391C26.48 187.565 33.258 192.75 41.532 193.628C41.32 193.417 41.116 193.2 40.923 192.976M42.445 193.093C42.355 193.093 42.261 193.085 42.169 193.08C42.238 193.147 42.306 193.212 42.376 193.28L42.445 193.093ZM43.099 193.733C43.1483 193.72 43.1936 193.695 43.231 193.66C43.2683 193.625 43.2964 193.582 43.313 193.533C43.3326 193.485 43.3403 193.432 43.3354 193.38C43.3305 193.328 43.3132 193.277 43.285 193.233L43.099 193.733Z" fill="white"/>
<path d="M-21.956 176.096C-4.76397 171.272 1.55104 150.66 18.209 144.703C23.6714 142.555 29.5783 141.784 35.409 142.457L35.178 143.828C29.66 143.328 28.478 150.198 25.686 153.711C22.193 158.157 15.999 157.826 10.947 158.524C7.55203 158.899 4.14704 159.195 0.747038 159.487C0.659945 159.494 0.573642 159.467 0.506025 159.411C0.438409 159.356 0.394666 159.277 0.383863 159.19C0.373061 159.104 0.396034 159.016 0.448011 158.946C0.499989 158.876 0.576983 158.828 0.663038 158.813C4.03304 158.249 7.40403 157.691 10.785 157.213C15.576 156.258 21.171 156.753 24.447 152.725C27.275 148.857 29.253 141.489 35.47 142.466C35.6367 142.513 35.7802 142.619 35.873 142.765C35.9658 142.911 36.0012 143.086 35.9725 143.257C35.9438 143.427 35.853 143.581 35.7176 143.689C35.5821 143.796 35.4117 143.85 35.239 143.839C29.6223 143.134 23.9183 143.791 18.609 145.755C1.90903 151.409 -4.62996 171.955 -21.819 176.762C-21.9073 176.781 -21.9993 176.763 -22.0748 176.714C-22.1503 176.664 -22.203 176.587 -22.2215 176.499C-22.2399 176.41 -22.2225 176.318 -22.1731 176.243C-22.1237 176.167 -22.0463 176.115 -21.958 176.096" fill="white"/>
<path d="M31.309 141.805C32.4844 141.805 33.66 141.862 34.836 141.976C35.036 141.989 35.236 142.011 35.443 142.04H35.461L35.897 142.092L35.882 142.184C36.0855 142.301 36.247 142.479 36.3436 142.693C36.4402 142.906 36.4669 143.145 36.42 143.375C36.3728 143.59 36.2642 143.786 36.1074 143.94C35.9506 144.093 35.7524 144.198 35.537 144.241L35.53 144.279L35.33 144.262C35.266 144.254 35.241 144.262 35.195 144.254L35.08 144.239C31.525 143.97 29.914 147.015 28.239 150.249C27.6163 151.556 26.8734 152.801 26.02 153.97C23.062 157.738 18.182 158.207 13.876 158.622C12.899 158.722 11.936 158.811 11.013 158.938C7.46505 159.329 3.76203 159.649 0.787033 159.903C0.745033 159.903 0.707045 159.903 0.668045 159.903C0.223045 160.388 -0.216959 160.873 -0.657959 161.358C-6.61296 167.898 -12.772 174.658 -21.701 177.158C-21.8316 177.19 -21.9684 177.187 -22.0971 177.148C-22.2259 177.109 -22.3419 177.036 -22.433 176.937C-22.5257 176.833 -22.5898 176.707 -22.619 176.571C-22.6481 176.435 -22.6412 176.294 -22.599 176.161C-22.5587 176.04 -22.4867 175.932 -22.3905 175.848C-22.2943 175.764 -22.1774 175.708 -22.052 175.684C-13.306 173.224 -7.26596 166.46 -1.42696 159.918C4.14504 153.676 9.90704 147.218 18.073 144.303C22.29 142.643 26.7821 141.793 31.314 141.796M31.514 142.632H31.314C26.5995 142.638 21.933 143.58 17.5854 145.403C13.2378 147.227 9.29577 149.896 5.98804 153.255C9.54074 149.765 13.7981 147.074 18.475 145.362C22.3824 143.917 26.5122 143.167 30.678 143.144C30.9417 142.956 31.2188 142.787 31.507 142.639M34.719 142.805C33.9102 142.748 33.0989 142.874 32.346 143.175C33.1754 143.212 34.0044 143.277 34.833 143.369L34.923 142.824C34.854 142.817 34.788 142.811 34.723 142.806M32.079 144.006C31.7044 143.994 31.3287 143.987 30.952 143.986C29.23 145.302 27.987 147.531 26.768 149.713C26.1719 150.839 25.5097 151.929 24.785 152.977C22.185 156.177 18.245 156.648 14.432 157.107C13.245 157.249 12.017 157.398 10.868 157.627C8.17904 158.008 5.59504 158.427 2.68604 158.905C5.23804 158.684 8.12404 158.42 10.905 158.114C11.83 157.987 12.805 157.892 13.791 157.796C18.13 157.378 22.62 156.947 25.361 153.458C26.1799 152.33 26.8929 151.128 27.491 149.869C28.663 147.606 29.946 145.128 32.078 144.004M2.32404 158.116C5.33104 157.616 7.98104 157.191 10.724 156.803C11.883 156.571 13.124 156.42 14.329 156.275C18.143 155.817 21.745 155.382 24.117 152.464C24.8173 151.449 25.4577 150.395 26.035 149.305C26.9914 147.379 28.2111 145.595 29.659 144.005C25.931 144.134 22.2476 144.86 18.749 146.154C12.124 148.395 7.03304 153.099 2.32104 158.117M-21.911 176.358L-21.959 176.102L-21.88 176.513L-21.911 176.358Z" fill="white"/>
<path d="M152.367 204.155C159.796 224.611 170.075 243.916 182.9 261.498C184.158 263.227 185.494 265.043 187.4 265.777C189.306 266.531 191.443 265.586 192.955 264.197C196.119 261.381 197.373 256.904 197.234 252.71C197.095 248.434 195.712 244.294 194.328 240.187C194.305 240.119 194.296 240.048 194.301 239.976C194.305 239.904 194.324 239.834 194.356 239.77C194.388 239.706 194.432 239.649 194.486 239.601C194.54 239.554 194.603 239.518 194.671 239.495C202.363 240.834 213.295 241.614 216.228 232.572C217.895 223.56 207.357 219.258 200.628 216.126C192.877 212.698 184.829 209.984 176.585 208.017C168.321 206.054 159.936 204.64 151.485 203.785C151.405 203.777 151.332 203.738 151.282 203.677C151.231 203.615 151.207 203.535 151.215 203.456C151.222 203.376 151.261 203.303 151.323 203.252C151.385 203.202 151.464 203.177 151.544 203.185C155.786 203.561 160.044 203.876 164.27 204.485C177.002 206.201 189.432 209.688 201.198 214.845C206.91 217.516 213.532 220.31 216.685 226.255C220.285 232.929 214.344 240.043 207.648 241.126C203.295 242.001 198.929 241.271 194.757 240.564L195.367 239.85C198.175 247.76 200.656 258.372 193.518 264.85C191.851 266.367 189.356 267.434 187.118 266.532C184.88 265.63 183.559 263.674 182.304 261.938C179.747 258.408 177.332 254.779 174.961 251.124C165.523 236.447 157.754 220.762 151.796 204.361C151.769 204.286 151.772 204.203 151.807 204.13C151.841 204.057 151.902 204.001 151.978 203.974C152.053 203.946 152.136 203.95 152.209 203.984C152.282 204.018 152.338 204.08 152.365 204.155" fill="white"/>
<path d="M151.518 202.762C151.538 202.762 151.558 202.762 151.575 202.762L153.784 202.953C157.242 203.253 160.819 203.56 164.327 204.062C177.097 205.784 189.564 209.283 201.365 214.456L202.392 214.934C207.843 217.464 214.021 220.334 217.052 226.053C217.775 227.367 218.163 228.839 218.183 230.339C218.203 231.838 217.854 233.32 217.167 234.653C216.23 236.453 214.889 238.011 213.248 239.206C211.608 240.4 209.713 241.198 207.712 241.536C203.917 242.122 200.047 242.021 196.287 241.236C198.802 248.795 200.767 258.823 193.795 265.151C192.129 266.661 189.462 267.919 186.957 266.909C184.728 266.009 183.352 264.103 182.139 262.422L181.962 262.175C179.209 258.375 176.699 254.566 174.608 251.342C165.155 236.642 157.372 220.932 151.404 204.505C151.367 204.404 151.352 204.296 151.362 204.189C151.189 204.15 151.037 204.048 150.934 203.904C150.831 203.76 150.785 203.583 150.804 203.407C150.824 203.231 150.907 203.068 151.039 202.949C151.17 202.83 151.341 202.763 151.518 202.762ZM203.369 241.106C204.779 241.113 206.186 240.979 207.569 240.706C209.441 240.393 211.215 239.649 212.751 238.534C214.288 237.419 215.545 235.963 216.423 234.28C217.056 233.068 217.379 231.718 217.361 230.351C217.344 228.983 216.987 227.642 216.323 226.446C213.423 220.973 207.38 218.167 202.047 215.69L201.027 215.215C189.298 210.077 176.909 206.601 164.218 204.889C162.3 204.615 160.357 204.399 158.425 204.21C164.569 205.016 170.666 206.151 176.688 207.61C184.954 209.585 193.023 212.308 200.795 215.744L201.909 216.257C208.817 219.441 218.275 223.797 216.641 232.648C213.516 242.285 201.441 241.023 195.914 240.13C195.937 240.2 195.961 240.27 195.986 240.341C198.423 240.798 200.893 241.053 203.372 241.105M202.872 239.905C208.538 239.905 213.929 238.323 215.834 232.447C217.341 224.29 208.22 220.089 201.563 217.021L200.453 216.509C192.727 213.095 184.706 210.39 176.49 208.429C168.719 206.569 160.836 205.212 152.89 204.367C160.289 224.657 170.504 243.806 183.235 261.252C184.407 262.864 185.735 264.69 187.548 265.387C189.348 266.099 191.372 265.081 192.67 263.887C195.458 261.402 196.97 257.335 196.814 252.721C196.68 248.654 195.404 244.699 194.114 240.868L193.96 240.841L194.06 240.719L193.923 240.319C193.842 240.076 193.86 239.811 193.974 239.582C194.088 239.353 194.288 239.178 194.53 239.095L194.63 239.063L194.735 239.081C194.942 239.116 195.153 239.153 195.365 239.186L195.512 239.015L195.586 239.224C197.989 239.64 200.421 239.865 202.86 239.896M195.348 241.078C195.248 241.06 195.148 241.043 195.048 241.026C196.476 244.769 197.352 248.699 197.648 252.693C197.809 257.554 196.198 261.86 193.227 264.504C192.826 264.876 192.391 265.209 191.927 265.499C192.394 265.218 192.832 264.892 193.236 264.526C199.982 258.406 197.858 248.454 195.355 241.078" fill="white"/>
<path d="M172.069 245.387C172.193 249.061 172.499 253.001 170.649 256.36C169.211 258.776 166.049 260.611 163.249 259.392C162.461 258.968 161.63 258.63 160.769 258.384C159.916 258.328 159.075 258.609 158.426 259.165C153.66 262.058 149.073 256.887 147.632 252.687C143.864 244.06 144.348 234.281 145.425 225.209C146.283 217.933 147.318 210.164 151.825 204.089C151.848 204.056 151.876 204.028 151.91 204.007C151.943 203.985 151.981 203.97 152.02 203.963C152.059 203.956 152.099 203.956 152.138 203.964C152.177 203.973 152.214 203.989 152.247 204.011C152.28 204.034 152.308 204.063 152.33 204.096C152.351 204.129 152.366 204.167 152.373 204.206C152.381 204.245 152.38 204.285 152.372 204.324C152.364 204.363 152.348 204.4 152.325 204.433C148.504 210.772 147.686 218.149 146.83 225.379C145.959 232.595 145.338 239.989 146.899 247.135C148.026 252.227 151.32 261.755 158.093 258.61C158.874 257.977 159.87 257.671 160.871 257.757C161.781 258.011 162.659 258.368 163.488 258.821C168.264 260.567 171.588 255.154 171.511 250.901C171.621 249.078 171.605 247.249 171.463 245.428C171.46 245.389 171.466 245.349 171.478 245.312C171.491 245.274 171.511 245.24 171.537 245.21C171.563 245.181 171.594 245.156 171.63 245.139C171.665 245.121 171.704 245.111 171.743 245.108C171.782 245.106 171.822 245.111 171.859 245.123C171.897 245.136 171.931 245.156 171.961 245.182C171.991 245.208 172.015 245.24 172.033 245.275C172.05 245.31 172.06 245.349 172.063 245.388" fill="white"/>
<path d="M152.079 203.545C152.23 203.545 152.378 203.593 152.5 203.682C152.648 203.793 152.749 203.955 152.782 204.137C152.815 204.319 152.777 204.507 152.677 204.662C148.977 210.801 148.122 218.047 147.292 225.053L147.247 225.428C146.447 232.078 145.722 239.782 147.309 247.043C147.924 249.822 149.759 256.483 153.516 258.343C154.207 258.67 154.965 258.83 155.729 258.811C156.493 258.792 157.242 258.594 157.916 258.233C158.775 257.547 159.87 257.228 160.963 257.347C161.639 257.495 162.289 257.74 162.894 258.074C163.15 258.203 163.401 258.328 163.655 258.432C164.351 258.705 165.104 258.797 165.845 258.7C166.586 258.603 167.291 258.319 167.892 257.875C168.915 257.029 169.734 255.963 170.29 254.757C170.845 253.551 171.121 252.236 171.099 250.908C171.211 249.091 171.196 247.268 171.054 245.453C171.04 245.332 171.06 245.209 171.111 245.098C171.162 244.987 171.242 244.892 171.343 244.823C171.455 244.748 171.585 244.703 171.72 244.694C171.855 244.685 171.99 244.711 172.111 244.77C172.223 244.826 172.318 244.912 172.385 245.017C172.452 245.123 172.489 245.245 172.491 245.37L172.521 246.193C172.651 249.711 172.787 253.349 171.021 256.559C169.469 259.168 166.083 261.076 163.091 259.773C162.798 259.651 162.509 259.51 162.228 259.373C161.753 259.109 161.242 258.913 160.711 258.793C160.067 258.663 159.48 258.993 158.659 259.514C157.917 259.996 157.073 260.297 156.193 260.392C155.314 260.487 154.425 260.374 153.597 260.061C150.545 258.954 148.209 255.626 147.246 252.819C143.44 244.107 143.925 234.373 145.019 225.159C145.807 218.488 146.787 210.189 151.501 203.836C151.557 203.76 151.627 203.696 151.708 203.647C151.788 203.598 151.878 203.566 151.971 203.552C152.009 203.546 152.047 203.544 152.085 203.544M150.283 256.536C148.112 253.596 146.96 249.336 146.494 247.223C144.879 239.832 145.609 232.046 146.419 225.323L146.462 224.95C147.196 218.741 147.954 212.343 150.679 206.616C147.358 212.43 146.529 219.465 145.843 225.253C144.764 234.353 144.281 243.953 148.02 252.514C148.537 253.974 149.303 255.333 150.283 256.532" fill="white"/>
<path d="M202.73 216.417C207.068 215.925 212.487 212.89 211.344 207.817C211.226 207.085 210.918 206.397 210.45 205.822C209.983 205.247 209.372 204.804 208.68 204.539C208.602 204.514 208.537 204.458 208.5 204.385C208.462 204.312 208.455 204.227 208.48 204.149C210.667 202.171 210.528 198.749 209.012 196.376C207.564 193.939 204.723 192.758 201.964 192.339C196.275 191.639 190.402 192.704 184.764 193.665C173.564 196.106 161.624 197.7 151.692 203.73C151.404 203.949 151.021 203.474 151.336 203.243C158.445 197.897 167.41 195.929 175.925 194.054C184.502 192.579 204.233 187.066 209.647 195.994C211.177 198.574 211.406 202.338 208.985 204.476L208.878 203.944C212.249 205.144 212.886 209.718 211.109 212.467C209.286 215.251 205.962 216.494 202.826 217.015C202.787 217.022 202.746 217.02 202.707 217.011C202.669 217.002 202.632 216.986 202.599 216.963C202.567 216.939 202.539 216.91 202.518 216.876C202.497 216.842 202.483 216.805 202.476 216.765C202.469 216.726 202.471 216.685 202.48 216.647C202.489 216.608 202.505 216.571 202.529 216.538C202.552 216.506 202.581 216.478 202.615 216.457C202.649 216.436 202.687 216.422 202.726 216.415" fill="white"/>
<path d="M197.021 190.575C202.643 190.575 207.605 191.816 210.006 195.775C211.454 198.222 211.815 201.663 209.986 204.017C211.008 204.678 211.768 205.674 212.138 206.833C212.457 207.8 212.561 208.825 212.444 209.837C212.327 210.849 211.991 211.823 211.459 212.691C209.845 215.156 206.964 216.748 202.894 217.427C202.77 217.448 202.643 217.435 202.526 217.391C202.409 217.347 202.305 217.273 202.225 217.176C202.144 217.074 202.092 216.952 202.072 216.822C202.052 216.693 202.066 216.561 202.113 216.439C202.159 216.324 202.234 216.223 202.332 216.147C202.429 216.07 202.545 216.021 202.668 216.004H202.683C205.034 215.735 208.383 214.569 210.094 212.165C210.537 211.56 210.841 210.865 210.986 210.129C211.131 209.393 211.113 208.634 210.933 207.906C210.837 207.313 210.606 206.751 210.258 206.261C209.91 205.772 209.454 205.369 208.926 205.083L208.717 205.267L208.657 204.967C208.622 204.954 208.588 204.942 208.552 204.93C208.461 204.902 208.377 204.856 208.304 204.795C208.231 204.734 208.171 204.659 208.127 204.574C208.037 204.404 208.018 204.205 208.075 204.021L208.11 203.911L208.195 203.834C208.262 203.774 208.327 203.712 208.389 203.648L208.319 203.299L208.613 203.399C210.238 201.473 209.896 198.536 208.655 196.593C207.055 193.893 203.737 193.024 201.899 192.744C196.486 192.078 190.857 193.044 185.417 193.97L184.832 194.07C182.937 194.483 181.004 194.876 179.063 195.27C169.732 197.161 160.083 199.118 151.908 204.083C151.815 204.148 151.706 204.188 151.592 204.199C151.479 204.209 151.365 204.19 151.261 204.143C151.139 204.09 151.032 204.007 150.952 203.9C150.872 203.794 150.82 203.668 150.803 203.536C150.789 203.415 150.808 203.292 150.858 203.18C150.908 203.068 150.987 202.972 151.086 202.901C158.25 197.513 167.161 195.55 175.786 193.652C177.01 193.438 178.366 193.167 179.861 192.868C184.936 191.851 191.321 190.574 197.025 190.574M203.667 192.261C196.96 190.298 186.814 192.328 180.027 193.689C178.522 193.989 177.159 194.263 175.999 194.462C168.28 196.162 160.354 197.907 153.725 202.099C161.525 197.974 170.347 196.186 178.902 194.452C180.84 194.059 182.772 193.668 184.678 193.252L185.283 193.152C190.783 192.212 196.469 191.244 202.019 191.923C202.575 192.007 203.125 192.121 203.668 192.266" fill="white"/>
<path d="M160.215 257.567C162.615 253.642 160.456 248.967 158.447 245.304C156.282 241.388 154.547 237.249 153.275 232.958C150.775 224.386 150.108 215.067 152.365 206.371C152.38 206.293 152.425 206.223 152.491 206.177C152.557 206.132 152.638 206.115 152.717 206.129C152.796 206.144 152.866 206.189 152.911 206.255C152.956 206.321 152.974 206.403 152.959 206.481C151.838 215.222 152.301 224.093 154.324 232.67C155.415 236.947 156.989 241.087 159.015 245.008C161.084 248.821 163.192 253.708 160.727 257.888C160.685 257.956 160.617 258.004 160.539 258.022C160.46 258.04 160.378 258.026 160.311 257.984C160.243 257.941 160.194 257.873 160.177 257.795C160.159 257.717 160.173 257.635 160.215 257.567Z" fill="white"/>
<path d="M152.653 205.734C152.702 205.734 152.752 205.738 152.8 205.747C152.978 205.778 153.138 205.877 153.245 206.023C153.352 206.169 153.398 206.351 153.374 206.53C152.307 216.284 152.754 224.801 154.732 232.567C155.814 236.813 157.376 240.921 159.388 244.813C161.513 248.733 163.629 253.791 161.088 258.099C161.02 258.204 160.928 258.291 160.818 258.351C160.709 258.412 160.586 258.444 160.461 258.445C160.329 258.44 160.201 258.4 160.09 258.33C159.978 258.259 159.886 258.161 159.824 258.045C159.769 257.935 159.743 257.813 159.75 257.69C159.757 257.567 159.796 257.448 159.864 257.345C162.05 253.77 160.299 249.545 158.085 245.506C155.903 241.564 154.157 237.395 152.876 233.075C150.154 223.731 149.836 214.46 151.961 206.267C152.001 206.114 152.092 205.979 152.217 205.883C152.343 205.787 152.497 205.736 152.655 205.737M156.026 239.37C155.2 237.212 154.498 235.008 153.921 232.77C151.992 224.718 151.468 216.394 152.371 208.163C150.764 216.369 151.214 224.845 153.68 232.834C154.333 235.056 155.117 237.237 156.026 239.366" fill="white"/>
<path d="M208.186 204.119C203.47 205.249 198.76 203.913 194.251 203.055C180.751 200.838 166.343 198.97 153.126 203.446C153.053 203.48 152.971 203.484 152.895 203.456C152.82 203.429 152.759 203.373 152.725 203.3C152.691 203.228 152.688 203.145 152.715 203.069C152.742 202.994 152.798 202.933 152.871 202.899C168.122 195.693 185.506 201.024 201.214 203.755C203.479 204.142 205.8 204.067 208.035 203.534C208.113 203.514 208.195 203.525 208.264 203.566C208.333 203.607 208.383 203.673 208.404 203.751C208.424 203.828 208.412 203.911 208.372 203.98C208.331 204.049 208.265 204.099 208.187 204.119" fill="white"/>
<path d="M170.477 198.854C178.177 198.854 186.032 200.399 193.746 201.916C196.234 202.406 198.808 202.911 201.283 203.342C203.489 203.721 205.748 203.65 207.925 203.131C208.042 203.094 208.168 203.09 208.287 203.12C208.406 203.149 208.515 203.211 208.602 203.298C208.699 203.393 208.768 203.512 208.803 203.643C208.838 203.774 208.838 203.912 208.802 204.042C208.767 204.163 208.7 204.271 208.608 204.357C208.516 204.442 208.403 204.5 208.28 204.525C204.18 205.503 200.133 204.675 196.216 203.874C195.53 203.734 194.848 203.593 194.171 203.464C180.613 201.238 166.276 199.436 153.26 203.839C153.092 203.906 152.905 203.904 152.738 203.834C152.571 203.763 152.439 203.63 152.37 203.463C152.287 203.298 152.273 203.106 152.331 202.931C152.388 202.755 152.513 202.609 152.678 202.525C158.261 199.983 164.345 198.728 170.478 198.853M188.125 201.681C176.898 199.596 165.525 198.231 155.033 202.413C165.694 199.343 177.063 200.097 188.125 201.681Z" fill="white"/>
<path d="M194.751 239.882C192.351 239.344 190.422 237.727 188.724 236.151C183.424 231.542 178.987 225.944 174.199 220.887C167.811 214.232 160.684 207.924 151.99 204.549C151.914 204.525 151.85 204.472 151.813 204.401C151.775 204.33 151.768 204.247 151.792 204.17C151.816 204.094 151.869 204.03 151.941 203.993C152.012 203.956 152.095 203.948 152.171 203.972C161.388 206.507 168.793 213.153 175.184 219.965C180.018 225.124 183.824 231.037 189.137 235.702C190.814 237.302 192.622 238.858 194.883 239.291C195.271 239.355 195.149 239.992 194.751 239.882Z" fill="white"/>
<path d="M152.083 203.54C152.151 203.541 152.218 203.551 152.283 203.57C161.89 206.212 169.405 213.195 175.483 219.679C177.399 221.724 179.175 223.915 180.896 226.03C183.466 229.384 186.314 232.515 189.409 235.39C191.028 236.933 192.779 238.464 194.956 238.882C195.079 238.902 195.194 238.955 195.289 239.036C195.383 239.116 195.454 239.221 195.493 239.339C195.537 239.468 195.545 239.605 195.518 239.738C195.491 239.871 195.429 239.994 195.338 240.094C195.252 240.185 195.143 240.251 195.022 240.284C194.902 240.318 194.775 240.318 194.654 240.285C192.114 239.711 190.116 238.006 188.443 236.454C184.908 233.245 181.576 229.818 178.467 226.194C176.979 224.528 175.44 222.808 173.895 221.176C168.43 215.48 160.982 208.487 151.838 204.938C151.682 204.878 151.552 204.765 151.47 204.619C151.388 204.474 151.359 204.304 151.387 204.14C151.416 203.975 151.5 203.825 151.627 203.715C151.753 203.606 151.913 203.543 152.08 203.538M183.465 230.448C182.365 229.159 181.298 227.848 180.248 226.557C178.539 224.45 176.771 222.273 174.875 220.249C169.38 214.391 162.711 208.12 154.398 205.117C162.671 208.931 169.428 215.317 174.498 220.595C176.052 222.237 177.598 223.963 179.087 225.633C180.515 227.233 181.968 228.857 183.465 230.447" fill="white"/>
</g>
</svg>
