<svg width="219" height="435" viewBox="0 0 219 435" fill="none" xmlns="http://www.w3.org/2000/svg">
<mask id="mask0_1_509" style="mask-type:luminance" maskUnits="userSpaceOnUse" x="0" y="0" width="256" height="435">
<path d="M255.627 0.000244141H0.817993V434.8H255.627V0.000244141Z" fill="white"/>
</mask>
<g mask="url(#mask0_1_509)">
<path d="M247.036 236.066C217.036 208.243 186.085 179.966 166.436 143.449C151.958 116.538 143.123 86.2151 122.906 62.7891C116.397 54.9931 108.553 48.4173 99.741 43.3691C99.5903 43.2894 99.477 43.1536 99.4257 42.9911C99.3743 42.8285 99.389 42.6523 99.4664 42.5005C99.5439 42.3486 99.6781 42.2334 99.8398 42.1796C100.002 42.1258 100.178 42.1379 100.331 42.2131C109.767 46.5871 117.985 53.3191 124.951 60.9931C145.907 84.2611 154.478 115.065 168.504 142.364C187.342 178.951 217.837 207.664 247.919 235.111C247.985 235.168 248.039 235.237 248.078 235.315C248.116 235.393 248.139 235.478 248.144 235.565C248.149 235.652 248.137 235.739 248.107 235.821C248.078 235.903 248.033 235.979 247.974 236.043C247.915 236.107 247.844 236.158 247.764 236.194C247.685 236.23 247.599 236.25 247.512 236.252C247.425 236.254 247.339 236.239 247.258 236.207C247.177 236.175 247.103 236.127 247.041 236.066" fill="white"/>
<path d="M243.128 231.664C238.78 227.398 233.098 224.821 227.576 222.214C210.85 214.431 192.997 209.878 175.369 204.652C175.256 204.613 175.161 204.535 175.101 204.431C175.042 204.327 175.023 204.205 175.048 204.087C175.072 203.97 175.139 203.866 175.235 203.795C175.331 203.724 175.45 203.69 175.569 203.7C193.984 206.106 211.369 213.345 228.015 221.282C233.543 223.924 239.192 226.682 243.801 230.961C244.256 231.384 243.589 232.127 243.127 231.661" fill="white"/>
<path d="M201.507 192.109C170.525 178.675 137.559 171.264 104.938 163.032C104.823 162.996 104.726 162.918 104.664 162.814C104.603 162.71 104.582 162.587 104.606 162.469C104.63 162.35 104.697 162.245 104.793 162.173C104.89 162.1 105.01 162.066 105.13 162.077C130.23 165.654 154.518 173.458 178.274 182.097C186.215 184.94 194.048 188.07 201.874 191.211C202.443 191.432 202.105 192.372 201.503 192.111" fill="white"/>
<path d="M183.179 168.844C155.202 142.804 122.452 122.712 88.479 105.505C88.3694 105.447 88.2861 105.35 88.2459 105.233C88.2057 105.115 88.2118 104.987 88.2627 104.874C88.3137 104.761 88.4058 104.672 88.5203 104.625C88.6348 104.577 88.7631 104.575 88.879 104.619C115.663 115.119 139.596 131.744 161.986 149.57C169.486 155.5 176.707 161.762 183.837 168.125C184.292 168.525 183.663 169.296 183.183 168.844" fill="white"/>
<path d="M216.623 207.013C202.456 171.274 193.068 132.74 195.113 94.0872C195.119 93.962 195.174 93.8441 195.265 93.7581C195.357 93.6721 195.477 93.6246 195.603 93.6255C195.728 93.6264 195.848 93.6756 195.938 93.7629C196.028 93.8502 196.081 93.9689 196.086 94.0942C197.298 122.86 199.886 151.709 207.986 179.45C210.664 188.685 213.848 197.765 217.523 206.65C217.547 206.709 217.559 206.773 217.559 206.836C217.559 206.9 217.546 206.963 217.521 207.022C217.497 207.081 217.461 207.135 217.415 207.18C217.37 207.224 217.316 207.26 217.257 207.284C217.198 207.308 217.135 207.321 217.071 207.32C217.007 207.32 216.944 207.307 216.885 207.283C216.826 207.258 216.773 207.222 216.728 207.176C216.683 207.131 216.647 207.077 216.623 207.018" fill="white"/>
<path d="M180.207 163.441C168.976 128.862 154.607 90.6941 164.097 54.1351C164.129 54.0137 164.207 53.9095 164.315 53.8442C164.422 53.779 164.551 53.7578 164.673 53.785C164.796 53.8123 164.903 53.8859 164.973 53.9904C165.043 54.095 165.069 54.2224 165.047 54.3461C160.57 81.9131 164.999 109.958 172.575 136.592C175.186 145.505 178.036 154.35 181.127 163.125C181.169 163.247 181.161 163.381 181.104 163.497C181.047 163.613 180.947 163.701 180.825 163.743C180.703 163.785 180.569 163.777 180.453 163.72C180.338 163.663 180.249 163.563 180.207 163.441Z" fill="white"/>
<path d="M206.641 214.347C198.018 219.621 187.819 221.704 177.818 220.235C169.392 218.967 161.574 215.235 153.642 212.116C145.117 208.768 136.341 206.099 127.395 204.134C140.661 200.045 154.35 196.49 168.221 197.034C182.092 197.578 196.333 202.746 205.121 213.489" fill="white"/>
<path d="M206.895 214.762C197.823 220.254 187.08 222.301 176.624 220.531C166.324 218.683 156.969 213.605 147.134 210.431C140.606 208.221 133.953 206.403 127.208 204.986C127.018 204.947 126.847 204.845 126.722 204.697C126.596 204.55 126.524 204.364 126.516 204.17C126.508 203.977 126.565 203.786 126.677 203.628C126.79 203.471 126.952 203.355 127.138 203.3C140.402 199.064 154.158 195.37 168.248 195.9C182.184 196.454 196.88 201.778 205.5 213.188C205.575 213.289 205.608 213.414 205.592 213.539C205.577 213.663 205.514 213.777 205.417 213.856C205.32 213.935 205.196 213.974 205.071 213.964C204.946 213.954 204.83 213.897 204.746 213.803C190.599 198.059 167.43 195.852 147.723 199.903C140.949 201.237 134.249 202.926 127.653 204.965L127.583 203.279C134.361 204.833 141.039 206.791 147.583 209.142C154.155 211.426 160.419 214.455 166.883 216.804C179.664 221.916 194.639 221.378 206.383 213.929C206.895 213.581 207.457 214.437 206.893 214.757" fill="white"/>
<path d="M153.259 174.749C137.13 181.092 119.053 181.216 102.072 177.749C85.091 174.282 69.014 167.391 53.348 159.979C65.363 159.971 77.216 157.479 89.089 155.633C100.962 153.787 113.179 152.593 124.92 155.15C136.661 157.707 147.983 164.545 153.38 175.28" fill="white"/>
<path d="M153.436 175.2C119.936 188.073 83.752 175.3 52.98 160.75C52.8082 160.665 52.6697 160.524 52.5867 160.351C52.5036 160.178 52.4806 159.982 52.5214 159.795C52.5621 159.607 52.6642 159.438 52.8116 159.315C52.959 159.192 53.1431 159.122 53.335 159.115C62.271 159.045 71.149 157.583 80.014 156.045C97.643 153.003 116.714 149.624 133.877 156.879C142.277 160.499 149.902 166.647 153.813 175.055C153.841 175.113 153.857 175.176 153.86 175.239C153.863 175.303 153.854 175.367 153.832 175.428C153.811 175.488 153.778 175.543 153.735 175.591C153.692 175.638 153.64 175.677 153.582 175.704C153.469 175.756 153.34 175.763 153.222 175.724C153.104 175.685 153.005 175.602 152.945 175.493C148.681 167.657 141.245 162.025 133.089 158.776C116.294 152.016 97.747 155.322 80.358 158.122C71.465 159.533 62.458 160.89 53.348 160.831L53.716 159.197C83.968 174.112 119.878 187.281 153.08 174.297C153.639 174.05 154.048 174.983 153.436 175.197" fill="white"/>
<path d="M159.127 147.99C135.537 142.363 106.855 134.406 87.811 119.39C72.065 106.973 61.231 89.3212 46.159 76.0952C58.645 84.8842 74.355 87.2402 89.094 91.2122C103.494 95.0932 117.559 100.796 129.657 109.52C141.755 118.244 154.537 133.853 159.577 147.893" fill="white"/>
<path d="M159.015 148.463C136.781 143.068 114.194 137.015 94.582 124.794C84.75 118.679 76.6 110.31 69.033 101.721C61.439 93.1211 54.172 84.2261 45.588 76.7481C45.4262 76.6003 45.3263 76.3968 45.3083 76.1785C45.2904 75.9601 45.3556 75.743 45.4911 75.5708C45.6265 75.3986 45.822 75.2839 46.0384 75.2498C46.2549 75.2157 46.4762 75.2648 46.658 75.3871C61.067 85.3361 79.341 86.8501 95.789 92.0441C112.57 97.1961 128.98 105.278 141.143 118.244C149.181 126.786 156.143 136.578 160.034 147.729C160.055 147.789 160.064 147.853 160.06 147.917C160.056 147.981 160.04 148.044 160.012 148.101C159.985 148.159 159.946 148.21 159.898 148.253C159.85 148.295 159.794 148.328 159.734 148.349C159.613 148.388 159.483 148.379 159.368 148.325C159.254 148.271 159.164 148.176 159.117 148.058C156.969 142.691 154.174 137.606 150.794 132.916C137.735 113.423 117.344 100.816 95.149 94.0931C78.591 88.7491 60.249 87.0931 45.659 76.8051L46.729 75.4441C55.378 83.1561 62.57 92.1861 70.041 100.836C77.518 109.451 85.394 117.911 95.141 123.918C114.604 136.07 137.119 142.125 159.241 147.518C159.361 147.553 159.462 147.633 159.524 147.741C159.587 147.849 159.605 147.977 159.576 148.098C159.547 148.219 159.473 148.325 159.369 148.393C159.264 148.461 159.138 148.486 159.015 148.463Z" fill="white"/>
<path d="M143.674 92.107C138.196 81.617 127.766 74.707 117.308 69.169C106.85 63.631 95.734 58.869 87.046 50.833C76.563 41.141 70.188 27.179 58.246 19.356C66.818 18.625 75.413 20.329 83.724 22.556C102.788 27.664 122.158 36.43 133.012 52.912C141.151 65.272 143.512 80.454 145.305 95.144" fill="white"/>
<path d="M143.243 92.3331C133.984 75.0041 114.043 69.0621 98.129 59.5661C89.8625 54.7112 82.6831 48.2078 77.037 40.4601C71.206 33.0191 65.637 25.1541 57.79 20.0471C57.6497 19.951 57.5423 19.8142 57.4822 19.6551C57.4222 19.496 57.4123 19.3224 57.4541 19.1575C57.4958 18.9927 57.5872 18.8446 57.7157 18.7333C57.8443 18.622 58.0039 18.5529 58.173 18.5351C69.126 17.5831 79.909 20.3261 90.303 23.4051C110.92 29.4451 131.897 42.0271 139.455 63.2411C143.341 73.5121 144.781 84.3711 145.786 95.0921C145.794 95.1555 145.789 95.2197 145.772 95.2812C145.754 95.3427 145.725 95.4002 145.686 95.4504C145.647 95.5007 145.598 95.5427 145.542 95.574C145.487 95.6053 145.425 95.6254 145.362 95.6331C145.299 95.6408 145.234 95.6359 145.173 95.6188C145.111 95.6016 145.054 95.5725 145.004 95.5332C144.953 95.4938 144.911 95.4449 144.88 95.3893C144.849 95.3337 144.829 95.2725 144.821 95.2091C143.211 84.5791 141.528 73.8711 137.521 64.0091C129.875 43.4741 109.755 31.5741 89.688 25.3661C79.497 22.2161 68.932 19.3741 58.312 20.1741L58.695 18.6621C70.885 26.8911 76.93 40.5021 87.318 50.3241C90.7842 53.5127 94.5842 56.3183 98.652 58.6921C114.588 68.2191 134.722 74.4801 144.105 91.8831C144.137 91.94 144.158 92.0029 144.166 92.068C144.173 92.1331 144.168 92.199 144.149 92.2619C144.131 92.3248 144.1 92.3833 144.058 92.4339C144.017 92.4846 143.965 92.5263 143.907 92.5566C143.849 92.5869 143.786 92.6051 143.72 92.6103C143.655 92.6154 143.589 92.6073 143.527 92.5864C143.465 92.5655 143.408 92.5324 143.359 92.4888C143.31 92.4453 143.271 92.3923 143.243 92.3331Z" fill="white"/>
<path d="M162.734 91.3491C155.261 78.5101 149.395 57.8881 150.92 43.1081C152.445 28.3281 157.629 14.1241 164.306 0.851074C170.06 11.113 173.48 22.5179 174.321 34.253C175.163 45.988 173.405 57.7641 169.174 68.7421C166.274 76.1051 162.184 83.4561 162.734 91.3491Z" fill="white"/>
<path d="M162.314 91.5931C154.727 77.6781 150.014 61.8931 150.214 45.9641C151.204 30.0161 156.55 14.7051 163.545 0.464139C163.615 0.327543 163.72 0.212305 163.85 0.13052C163.98 0.048735 164.13 0.00341877 164.283 -0.000672654C164.437 -0.00476407 164.588 0.0325202 164.722 0.107267C164.856 0.182014 164.968 0.291467 165.045 0.424139C169.006 7.31408 171.909 14.7603 173.657 22.5131C177.226 38.1214 175.967 54.4457 170.047 69.3221C167.109 76.4711 163.022 83.4221 163.218 91.3101C163.22 91.4345 163.174 91.5549 163.09 91.6466C163.006 91.7382 162.89 91.7942 162.766 91.803C162.642 91.8119 162.519 91.7729 162.422 91.694C162.326 91.6152 162.264 91.5025 162.248 91.3791C161.397 83.3121 165.415 75.8221 168.134 68.5651C173.646 54.014 174.852 38.1833 171.607 22.9651C170.028 15.3727 167.317 8.06072 163.564 1.27414L165.064 1.23414C157.967 15.1811 152.251 30.2811 151.226 46.0001C150.97 61.6501 155.555 77.4731 163.154 91.1001C163.488 91.6201 162.622 92.1641 162.315 91.5901" fill="white"/>
<path d="M201.539 149.666C190.657 132.787 186.088 112.606 188.639 92.6852C190.477 78.7322 195.791 65.3292 196.682 51.2852C207.482 61.2102 212.995 75.9922 213.804 90.6382C214.613 105.284 211.104 119.87 206.104 133.661C204.03 139.38 201.676 145.107 201.163 151.169" fill="white"/>
<path d="M201.132 149.933C186.762 127.769 184.288 101.264 191.323 76.1143C193.283 67.8603 195.338 59.6143 195.823 51.2293C195.837 51.0042 195.94 50.7938 196.108 50.6439C196.277 50.4941 196.498 50.4169 196.723 50.4293C203.892 56.0543 208.604 64.7203 211.601 73.2373C217.445 90.3993 215.139 109.173 209.726 126.091C207.186 134.532 202.796 142.45 201.641 151.213C201.626 151.339 201.563 151.454 201.465 151.533C201.367 151.613 201.242 151.652 201.116 151.641C200.99 151.631 200.874 151.572 200.79 151.476C200.707 151.381 200.665 151.257 200.671 151.131C201.231 142.144 205.462 134.026 207.763 125.486C212.763 108.841 215.106 90.6683 209.601 73.8973C207.038 65.5447 202.392 57.9815 196.101 51.9193L197.536 51.3423C196.287 68.4113 188.765 84.2683 188.493 101.38C188.268 109.831 189.309 118.269 191.58 126.412C193.842 134.562 197.338 142.316 201.948 149.407C202.304 149.907 201.468 150.496 201.132 149.937" fill="white"/>
<path d="M246.942 292.185C225.693 313.277 204.069 335.031 176.767 348.265C156.525 358.074 134.217 363.533 116.446 377.635C110.546 382.166 105.504 387.715 101.556 394.02C101.496 394.117 101.4 394.187 101.29 394.216C101.179 394.244 101.061 394.229 100.962 394.173C100.862 394.116 100.788 394.024 100.755 393.914C100.722 393.805 100.733 393.687 100.785 393.585C104.412 386.882 109.34 380.97 115.28 376.195C132.905 361.611 155.82 356.212 176.08 346.831C189.622 340.517 202.07 331.992 213.567 322.4C225.047 312.76 235.754 302.223 246.313 291.561C246.354 291.519 246.403 291.485 246.456 291.462C246.51 291.439 246.568 291.427 246.627 291.427C246.686 291.426 246.744 291.437 246.798 291.459C246.852 291.482 246.902 291.514 246.943 291.556C246.985 291.597 247.017 291.647 247.04 291.701C247.062 291.755 247.073 291.813 247.073 291.872C247.072 291.931 247.06 291.989 247.037 292.043C247.014 292.097 246.98 292.145 246.938 292.186" fill="white"/>
<path d="M213.415 324.148C202.674 346.4 196.142 370.248 189.215 393.872C189.187 393.95 189.131 394.014 189.058 394.053C188.986 394.092 188.901 394.103 188.821 394.083C188.741 394.063 188.671 394.015 188.625 393.946C188.578 393.878 188.559 393.795 188.57 393.713C190.984 381.589 194.375 369.68 198.71 358.103C202.934 346.494 207.703 335.103 212.817 323.869C212.984 323.491 213.617 323.745 213.417 324.148" fill="white"/>
<path d="M195.851 336.833C175.978 356.511 160.19 379.79 146.65 404.154C146.468 404.492 145.877 404.239 146.056 403.854C154.611 384.625 167.437 367.608 181.148 351.776C185.712 346.476 190.506 341.381 195.379 336.365C195.663 336.065 196.172 336.517 195.851 336.832" fill="white"/>
<path d="M224.786 313.536C198.241 322.824 169.763 328.409 141.572 325.819C141.49 325.807 141.416 325.765 141.363 325.702C141.311 325.638 141.284 325.557 141.288 325.475C141.291 325.392 141.326 325.314 141.384 325.255C141.442 325.197 141.52 325.162 141.602 325.157C162.677 325.219 183.854 324.144 204.383 319.057C211.216 317.378 217.951 315.326 224.559 312.91C224.94 312.758 225.213 313.392 224.786 313.534" fill="white"/>
<path d="M191.821 338.835C165.998 346.035 138.121 355.241 111.421 347.285C111.344 347.256 111.28 347.199 111.243 347.125C111.205 347.052 111.196 346.967 111.217 346.887C111.239 346.807 111.289 346.738 111.358 346.693C111.427 346.648 111.51 346.63 111.592 346.643C131.607 350.829 152.266 348.382 171.968 343.643C178.568 342.004 185.122 340.189 191.63 338.196C192.02 338.067 192.254 338.714 191.819 338.831" fill="white"/>
<path d="M229.853 321.083C233.445 327.549 234.658 335.069 233.279 342.335C232.095 348.459 229.127 354.061 226.607 359.765C223.899 365.896 221.68 372.232 219.972 378.713C217.387 368.889 215.204 358.772 216.027 348.646C216.85 338.52 221.06 328.265 229.184 322.166" fill="white"/>
<path d="M230.142 320.921C235.234 329.933 235.284 341.143 231.114 350.496C227.049 359.785 222.902 368.979 220.547 378.864C220.511 378.989 220.435 379.098 220.331 379.176C220.227 379.254 220.101 379.296 219.971 379.296C219.841 379.296 219.715 379.254 219.611 379.176C219.507 379.098 219.431 378.989 219.395 378.864C218.013 373.954 216.896 368.972 216.05 363.941C213.396 349.122 215.871 331.17 228.985 321.899C229.02 321.873 229.059 321.854 229.102 321.843C229.144 321.832 229.188 321.829 229.231 321.835C229.274 321.841 229.316 321.856 229.353 321.878C229.391 321.9 229.424 321.929 229.45 321.964C229.476 321.999 229.495 322.039 229.506 322.081C229.517 322.123 229.52 322.167 229.514 322.21C229.508 322.253 229.493 322.295 229.471 322.332C229.449 322.37 229.42 322.403 229.385 322.429C221.532 328.812 217.624 338.844 216.796 348.72C215.928 358.737 218.047 368.779 220.548 378.559H219.398C220.737 373.651 222.368 368.828 224.283 364.114C230.798 349.214 238.36 337.435 229.566 321.243C229.344 320.885 229.942 320.526 230.145 320.919" fill="white"/>
<path d="M199.273 358.907C203.418 370.894 202.959 384.113 199.907 396.424C196.855 408.735 191.327 420.28 185.425 431.508C185.785 422.724 184.325 413.981 183.338 405.245C182.351 396.509 181.85 387.536 184.075 379.031C186.3 370.526 191.647 362.454 199.66 358.831" fill="white"/>
<path d="M199.587 358.799C208.05 383.664 197.497 409.742 185.945 431.78C185.881 431.894 185.78 431.983 185.659 432.034C185.539 432.084 185.404 432.093 185.278 432.058C185.152 432.024 185.041 431.948 184.962 431.844C184.884 431.739 184.843 431.611 184.845 431.48C185.305 418.37 181.72 405.447 181.738 392.094C181.673 382.173 184.271 371.617 191.327 364.253C193.652 361.818 196.44 359.872 199.527 358.529C199.605 358.502 199.69 358.505 199.766 358.537C199.842 358.57 199.903 358.63 199.937 358.705C199.971 358.78 199.976 358.865 199.951 358.943C199.925 359.022 199.872 359.088 199.8 359.129C187.73 365.137 183.158 379.378 183.273 392.1C183.123 405.266 186.638 418.282 186.014 431.525L184.914 431.225C196.765 409.543 207.379 383.703 198.966 359.006C198.816 358.62 199.461 358.367 199.593 358.789" fill="white"/>
<path d="M179.888 353.8C175.055 370.877 168.363 391.606 156.803 405.072C147.246 416.206 134.008 423.594 123.878 434.208C130.686 425.35 132.888 413.932 136.241 403.277C139.517 392.864 144.114 382.755 150.861 374.177C157.608 365.599 169.411 356.727 179.829 353.471" fill="white"/>
<path d="M180.206 353.891C173.054 379.091 165.198 402.058 143.29 418.239C136.772 423.527 130.041 428.567 124.305 434.617C124.197 434.73 124.049 434.796 123.893 434.8C123.736 434.805 123.585 434.747 123.471 434.639C123.366 434.537 123.302 434.401 123.291 434.255C123.279 434.11 123.321 433.965 123.409 433.848C128.519 427.116 131.009 418.84 133.329 410.691C137.71 394.296 144.436 377.45 157.623 366.081C164.105 360.466 171.469 355.668 179.732 353.153C179.816 353.128 179.906 353.138 179.984 353.179C180.061 353.221 180.119 353.291 180.145 353.374C180.169 353.458 180.16 353.547 180.12 353.624C180.08 353.701 180.011 353.759 179.929 353.787C164.048 359.64 150.929 372.133 143.506 387.272C139.759 394.887 136.792 402.861 134.65 411.072C132.257 419.204 129.707 427.654 124.35 434.567L123.45 433.799C135.102 421.712 150.776 413.899 160.36 399.868C169.842 386.003 174.954 369.724 179.569 353.709C179.669 353.314 180.342 353.464 180.206 353.891Z" fill="white"/>
<path d="M138.557 363.398C130.721 367.084 125.35 374.498 120.982 381.977C116.614 389.456 112.793 397.437 106.654 403.546C99.246 410.914 88.846 415.15 82.761 423.644C82.487 417.355 83.997 411.122 85.878 405.112C90.192 391.328 97.192 377.433 109.578 369.998C118.864 364.423 130.036 363.157 140.832 362.298" fill="white"/>
<path d="M138.697 363.698C122.421 371.698 119.028 391.758 106.839 403.889C99.526 411.21 89.267 415.51 83.218 423.974C83.1488 424.067 83.053 424.136 82.9433 424.172C82.8337 424.209 82.7155 424.211 82.6047 424.178C82.4938 424.145 82.3956 424.08 82.3233 423.99C82.251 423.899 82.2079 423.789 82.2 423.674C81.83 415.595 84.212 407.813 86.772 400.36C91.846 385.495 101.59 370.527 117.337 365.66C124.954 363.118 132.937 362.418 140.804 361.976C140.892 361.969 140.979 361.997 141.046 362.055C141.113 362.112 141.154 362.193 141.161 362.281C141.168 362.369 141.14 362.456 141.082 362.523C141.025 362.59 140.944 362.631 140.856 362.638C133.032 363.459 125.15 364.384 117.803 367.003C102.566 371.973 93.158 386.309 88.035 400.817C85.435 408.185 83.063 415.834 83.321 423.63L82.304 423.33C86.531 417.559 92.604 413.768 98.234 409.815C104.055 406.068 109.01 401.123 112.769 395.31C120.224 383.934 125.339 369.415 138.414 363.099C138.784 362.925 139.101 363.509 138.697 363.698Z" fill="white"/>
<path d="M138.583 349.438C128.968 354.515 113.712 358.172 102.951 356.607C92.19 355.042 81.964 350.819 72.463 345.532C80.1416 341.638 88.5846 339.485 97.1904 339.227C105.796 338.969 114.353 340.613 122.251 344.04C127.545 346.384 132.796 349.6 138.584 349.44" fill="white"/>
<path d="M138.737 349.73C128.337 354.854 116.657 357.817 105.02 357.185C99.2277 356.544 93.5319 355.218 88.052 353.235C82.5783 351.26 77.2706 348.853 72.179 346.035C72.0447 345.961 71.945 345.837 71.9018 345.69C71.8585 345.542 71.8751 345.384 71.948 345.249C79.557 340.896 88.51 338.889 97.248 338.498C105.995 338.182 114.698 339.881 122.684 343.464C127.826 345.812 132.793 349.053 138.575 349.106C138.618 349.105 138.662 349.112 138.702 349.128C138.743 349.143 138.78 349.167 138.812 349.197C138.843 349.227 138.869 349.262 138.886 349.302C138.904 349.342 138.914 349.385 138.915 349.428C138.916 349.472 138.909 349.515 138.893 349.555C138.878 349.596 138.854 349.633 138.824 349.665C138.795 349.696 138.759 349.722 138.719 349.739C138.679 349.757 138.636 349.767 138.593 349.768C132.673 350.102 127.332 346.975 122.113 344.746C111.633 340.257 100.083 338.88 88.841 340.778C83.2397 341.727 77.8104 343.503 72.731 346.047L72.748 345.022C77.7471 347.891 82.9669 350.356 88.358 352.395C93.7366 354.461 99.3548 355.838 105.079 356.495C116.646 356.984 128.14 354.45 138.43 349.144C138.791 348.932 139.139 349.535 138.739 349.729" fill="white"/>
<path d="M182.406 322.841C169.734 330.285 154.839 333.012 140.351 330.541C130.204 328.772 120.567 324.477 110.323 323.399C117.91 315.799 128.885 312.225 139.623 312.078C150.361 311.931 160.914 314.944 170.845 319.019C174.964 320.71 179.079 322.606 183.495 323.164" fill="white"/>
<path d="M182.576 323.126C166.337 332.96 146.118 333.939 128.325 328.037C122.352 326.35 116.384 324.592 110.263 323.977C110.187 323.97 110.112 323.947 110.045 323.911C109.977 323.875 109.917 323.826 109.869 323.766C109.82 323.707 109.784 323.639 109.762 323.565C109.74 323.492 109.733 323.414 109.741 323.338C118.766 313.46 133.435 310.338 146.371 311.619C156.171 312.565 165.506 315.919 174.414 319.885C177.315 321.255 180.379 322.246 183.533 322.833C183.62 322.844 183.7 322.89 183.754 322.959C183.808 323.029 183.832 323.117 183.82 323.205C183.809 323.292 183.764 323.371 183.694 323.425C183.625 323.479 183.536 323.503 183.449 323.492C176.909 322.768 171.098 319.464 164.929 317.5C152.901 313.339 139.67 311.027 127.223 314.548C121.034 316.193 115.362 319.378 110.736 323.807L110.383 322.814C122.816 324.237 134.189 330.222 146.697 330.929C159.114 331.757 171.494 328.839 182.235 322.554C182.583 322.328 182.961 322.91 182.573 323.124" fill="white"/>
<path d="M254.789 254.26C208.632 272.979 155.177 273.295 108.659 255.544C93.0663 249.603 78.4922 241.273 65.459 230.853C65.3204 230.746 65.2291 230.589 65.2048 230.416C65.1804 230.243 65.2248 230.066 65.3286 229.925C65.4324 229.784 65.5872 229.69 65.76 229.661C65.9327 229.633 66.1097 229.674 66.253 229.774C79.8954 238.948 94.4957 246.61 109.796 252.624C140.278 264.306 174.096 269.477 206.596 265.432C222.98 263.481 239.022 259.306 254.28 253.024C254.362 252.987 254.451 252.967 254.541 252.964C254.631 252.962 254.72 252.978 254.804 253.012C254.888 253.045 254.964 253.095 255.028 253.158C255.092 253.221 255.142 253.297 255.177 253.38C255.211 253.463 255.228 253.553 255.227 253.643C255.226 253.733 255.206 253.822 255.17 253.904C255.134 253.987 255.081 254.061 255.016 254.123C254.95 254.184 254.873 254.232 254.788 254.263" fill="white"/>
<path d="M180.216 269.031C155.716 269.06 131.417 264.621 108.51 255.931C92.8721 249.984 78.2583 241.633 65.196 231.179C65.0835 231.091 64.99 230.98 64.9212 230.854C64.8525 230.729 64.8099 230.591 64.796 230.448C64.7803 230.306 64.7931 230.162 64.8336 230.024C64.8741 229.887 64.9416 229.759 65.032 229.648C65.2034 229.438 65.4466 229.299 65.7145 229.259C65.9824 229.218 66.2559 229.278 66.482 229.427C80.1024 238.578 94.6762 246.223 109.947 252.227C141.903 264.473 175.303 268.899 206.539 265.01C222.887 263.065 238.894 258.901 254.118 252.632C254.25 252.576 254.392 252.546 254.536 252.545C254.68 252.545 254.823 252.572 254.956 252.627C255.089 252.681 255.209 252.762 255.311 252.863C255.413 252.965 255.494 253.085 255.548 253.218C255.603 253.351 255.631 253.494 255.63 253.638C255.63 253.781 255.6 253.924 255.544 254.056C255.488 254.188 255.407 254.308 255.304 254.409C255.201 254.51 255.08 254.589 254.946 254.642C231.191 264.194 205.818 269.078 180.214 269.027M65.882 230.082C65.8437 230.082 65.8058 230.09 65.7712 230.106C65.7366 230.122 65.7061 230.146 65.682 230.176C65.6401 230.228 65.6202 230.294 65.6268 230.36C65.6333 230.427 65.6658 230.488 65.717 230.53C78.7123 240.931 93.2517 249.24 108.81 255.157C155.526 272.986 208.676 272.516 254.634 253.878C254.665 253.866 254.693 253.848 254.716 253.824C254.74 253.801 254.758 253.774 254.771 253.743C254.784 253.712 254.791 253.679 254.791 253.646C254.791 253.613 254.784 253.58 254.771 253.549C254.744 253.487 254.694 253.438 254.632 253.412C254.572 253.388 254.505 253.388 254.445 253.412C239.15 259.709 223.069 263.893 206.645 265.848C175.27 269.748 141.732 265.311 109.645 253.015C94.3181 246.986 79.6908 239.312 66.02 230.127C65.9782 230.1 65.9297 230.086 65.88 230.085" fill="white"/>
<path d="M113.002 254.372C103.581 253.887 94.193 253.036 84.802 252.426C75.431 251.796 65.932 252.016 56.58 250.187L57.28 249.645C57.168 254.764 62.024 258.628 66.835 259.267C71.845 260.06 77.027 258.807 82.041 257.583C92.053 255.019 102.641 251.061 113.096 253.702C113.183 253.724 113.257 253.779 113.303 253.856C113.349 253.933 113.363 254.024 113.342 254.111C113.32 254.194 113.267 254.266 113.194 254.313C113.121 254.359 113.034 254.377 112.949 254.362C102.487 252.539 92.467 256.64 82.421 259.096C77.321 260.267 72.021 261.531 66.6 260.626C61.244 259.843 55.858 255.42 56.115 249.586C56.1185 249.502 56.1404 249.419 56.1791 249.345C56.2178 249.27 56.2723 249.204 56.339 249.152C56.4057 249.101 56.4828 249.064 56.565 249.046C56.6472 249.027 56.7325 249.026 56.815 249.044C61.4109 249.962 66.064 250.566 70.742 250.852C84.428 251.513 99.442 253.036 113.035 253.693C113.123 253.7 113.206 253.74 113.264 253.807C113.323 253.873 113.354 253.96 113.349 254.048C113.345 254.137 113.307 254.22 113.242 254.281C113.177 254.341 113.091 254.374 113.002 254.372Z" fill="white"/>
<path d="M70.455 261.355C69.14 261.358 67.8269 261.253 66.529 261.042C61.258 260.271 55.955 256.142 55.695 250.442L55.595 250.422L55.689 250.348C55.681 250.092 55.681 249.835 55.689 249.572C55.6957 249.428 55.7336 249.287 55.8001 249.158C55.8666 249.03 55.96 248.918 56.0741 248.829C56.1881 248.741 56.32 248.678 56.4607 248.645C56.6014 248.612 56.7475 248.61 56.889 248.639C57.148 248.693 57.412 248.746 57.675 248.798L57.703 248.778V248.805C62.0186 249.622 66.3811 250.168 70.765 250.439C77.621 250.768 84.934 251.325 92.004 251.864C95.297 252.117 98.641 252.371 101.964 252.605C105.706 252.184 109.493 252.417 113.156 253.291C113.265 253.31 113.367 253.353 113.456 253.419C113.545 253.484 113.618 253.569 113.668 253.667C113.734 253.791 113.766 253.931 113.76 254.071C113.755 254.212 113.713 254.348 113.638 254.467C113.565 254.575 113.465 254.661 113.348 254.718C113.231 254.775 113.102 254.801 112.972 254.793C110.646 254.673 108.305 254.53 105.972 254.373C100.213 254.632 94.536 256.221 88.992 257.773C86.87 258.367 84.674 258.98 82.512 259.51L82.189 259.584C78.3555 260.617 74.4174 261.213 70.45 261.36M56.543 250.606C56.926 255.713 61.901 259.521 66.657 260.215C71.899 261.086 77.038 259.907 82.006 258.764L82.324 258.692C84.466 258.169 86.655 257.557 88.772 256.963C92.8249 255.743 96.9464 254.764 101.115 254.03C100.354 253.975 99.593 253.92 98.837 253.863C94.829 254.597 90.8625 255.542 86.954 256.694C85.335 257.14 83.73 257.582 82.138 257.988C77.096 259.22 71.891 260.493 66.763 259.68C62.126 259.065 57.392 255.58 56.895 250.673C56.778 250.653 56.659 250.63 56.542 250.606M57.759 250.832C58.364 255.15 62.747 258.304 66.884 258.852C71.856 259.645 76.984 258.39 81.934 257.176C83.516 256.776 85.118 256.33 86.734 255.887C89.669 255.078 92.634 254.26 95.627 253.621C92.008 253.348 88.391 253.078 84.773 252.842C82.022 252.658 79.211 252.542 76.49 252.434C70.2189 252.32 63.9625 251.786 57.763 250.834M57.694 249.974C63.9259 250.945 70.2169 251.489 76.523 251.601C76.615 251.601 76.707 251.608 76.799 251.613C74.747 251.484 72.715 251.369 70.724 251.274C66.3515 251.002 61.9999 250.461 57.694 249.654C57.694 249.761 57.694 249.865 57.694 249.972M56.694 249.45C56.6578 249.451 56.6227 249.463 56.594 249.485C56.5759 249.499 56.561 249.517 56.5503 249.537C56.5396 249.557 56.5334 249.579 56.532 249.602C56.532 249.634 56.532 249.666 56.532 249.696L56.82 249.474L56.73 249.454H56.697" fill="white"/>
<path d="M139.661 264.364C133.514 260.366 127.853 255.665 122.793 250.357C119.464 246.842 116.44 242.979 112.651 239.967C106.872 235.408 99.638 233.267 94.444 227.698L95.723 227.226C95.639 233.146 99.593 238.385 104.315 241.651C109.226 245.001 115.103 246.716 120.884 248.551C120.965 248.58 121.033 248.638 121.073 248.714C121.113 248.79 121.123 248.878 121.101 248.961C121.079 249.045 121.026 249.116 120.953 249.162C120.88 249.208 120.793 249.224 120.708 249.208C109.231 247.223 94.196 240.976 94.257 227.185C94.2621 227.039 94.3106 226.898 94.3962 226.779C94.4818 226.661 94.6008 226.571 94.7379 226.52C94.875 226.469 95.0241 226.46 95.1662 226.495C95.3083 226.529 95.437 226.605 95.536 226.712C100.3 232.093 107.71 234.59 113.265 239.207C118.817 244.007 122.915 250.207 128.491 254.963C132.077 258.229 135.938 261.181 140.029 263.787C140.392 264.008 140.041 264.616 139.661 264.359" fill="white"/>
<path d="M139.848 264.842C139.698 264.841 139.552 264.795 139.428 264.71C133.255 260.693 127.57 255.972 122.488 250.641C122.098 250.23 121.714 249.815 121.329 249.395C121.24 249.494 121.126 249.567 120.999 249.606C120.872 249.646 120.737 249.649 120.608 249.617C114.392 248.543 94.161 243.787 93.841 227.665L93.711 227.523L93.84 227.476C93.84 227.376 93.84 227.282 93.84 227.187C93.8456 226.955 93.921 226.73 94.0564 226.542C94.1917 226.353 94.3807 226.21 94.5988 226.13C94.8168 226.05 95.0538 226.038 95.2787 226.096C95.5037 226.153 95.7063 226.276 95.86 226.45C95.922 226.52 95.984 226.59 96.046 226.659L96.151 226.621V226.771C98.83 229.664 102.388 231.758 105.833 233.784C108.532 235.276 111.107 236.984 113.533 238.889C116.231 241.331 118.76 243.952 121.103 246.735C123.466 249.551 126.026 252.195 128.764 254.648C132.337 257.9 136.182 260.84 140.256 263.437C140.367 263.504 140.457 263.6 140.518 263.714C140.579 263.828 140.608 263.957 140.602 264.086C140.596 264.227 140.553 264.365 140.477 264.484C140.402 264.604 140.296 264.701 140.171 264.767C140.072 264.817 139.963 264.843 139.852 264.842M139.809 264.142L139.665 264.361L139.812 264.145M139.812 264.145L139.901 264.016L139.894 264.011L139.812 264.145ZM94.721 228.586C95.733 242.424 112.572 247.186 119.552 248.571L119.492 248.553C114.178 246.872 108.684 245.135 104.081 241.994C99.213 238.629 96.094 233.989 95.436 229.268C95.1933 229.045 94.9543 228.818 94.721 228.586ZM96.439 230.146C97.339 234.29 100.227 238.313 104.554 241.305C109.054 244.375 114.487 246.093 119.743 247.755L119.892 247.802L119.661 247.548C117.444 244.932 115.013 242.505 112.392 240.294C109.98 238.495 107.429 236.89 104.763 235.494C101.829 233.972 99.0428 232.182 96.439 230.146ZM96.225 228.857C98.9769 231.153 101.977 233.134 105.17 234.763C107.876 236.18 110.464 237.81 112.911 239.638C114.221 240.694 115.465 241.829 116.635 243.038C115.469 241.816 114.264 240.628 112.991 239.528C110.601 237.654 108.065 235.975 105.407 234.505C102.064 232.721 98.9557 230.528 96.153 227.978C96.166 228.271 96.19 228.563 96.225 228.858M95.187 227.868C95.232 227.911 95.274 227.957 95.319 227.998C95.319 227.939 95.314 227.883 95.311 227.824L95.187 227.868ZM95.008 226.891C94.9663 226.891 94.9249 226.899 94.886 226.914C94.83 226.931 94.7802 226.964 94.7427 227.009C94.7052 227.054 94.6817 227.109 94.675 227.167L95.202 226.967C95.1767 226.941 95.1464 226.921 95.1131 226.907C95.0798 226.894 95.044 226.887 95.008 226.887" fill="white"/>
<path d="M158.534 265.229C148.589 263.356 138.326 264.128 128.773 267.468C118.947 270.028 109.698 273.829 101.763 280.286L101.546 279.059C105.058 279.962 108.726 280.088 112.292 279.427C115.858 278.767 119.237 277.337 122.193 275.236C128.139 271.094 133.451 264.316 141.31 263.863C141.396 263.864 141.479 263.897 141.541 263.956C141.604 264.015 141.642 264.096 141.647 264.182C141.653 264.268 141.625 264.352 141.571 264.419C141.516 264.485 141.438 264.529 141.353 264.54C133.888 265.672 129.053 272.311 123.112 276.513C119.98 278.763 116.383 280.279 112.586 280.951C108.789 281.622 104.889 281.431 101.176 280.391C101.051 280.355 100.938 280.285 100.851 280.189C100.764 280.092 100.706 279.973 100.683 279.845C100.661 279.716 100.674 279.584 100.723 279.464C100.772 279.343 100.854 279.239 100.959 279.162C108.991 272.862 118.696 269.062 128.566 266.731C133.419 265.232 138.403 264.194 143.451 263.631C148.551 263.216 153.625 263.907 158.627 264.554C158.716 264.566 158.797 264.614 158.852 264.685C158.906 264.757 158.93 264.848 158.918 264.937C158.906 265.027 158.859 265.107 158.787 265.162C158.715 265.217 158.624 265.24 158.535 265.228" fill="white"/>
<path d="M108.012 281.755C105.853 281.76 103.702 281.487 101.612 280.944L101.472 281.058L101.444 280.901C101.315 280.866 101.186 280.831 101.058 280.792C100.855 280.738 100.672 280.625 100.532 280.469C100.391 280.313 100.299 280.119 100.267 279.911C100.225 279.703 100.247 279.487 100.328 279.291C100.41 279.096 100.548 278.928 100.725 278.811C100.825 278.731 100.925 278.65 101.031 278.572L101.016 278.485L101.116 278.51C108.238 273.037 117.445 268.93 128.47 266.323L128.631 266.278C131.831 265.402 135.101 264.505 138.431 263.888C139.335 263.655 140.26 263.508 141.192 263.448C141.929 263.352 142.671 263.273 143.416 263.212C148.374 262.982 153.343 263.274 158.24 264.083L158.676 264.138C158.805 264.154 158.928 264.204 159.032 264.283C159.136 264.362 159.216 264.467 159.265 264.588C159.318 264.717 159.337 264.857 159.319 264.994C159.302 265.132 159.248 265.263 159.165 265.374C159.086 265.479 158.979 265.559 158.857 265.606C158.735 265.653 158.602 265.665 158.473 265.64H158.456C152.494 264.484 146.382 264.32 140.366 265.152C135.799 266.2 132.14 269.426 128.597 272.552C126.927 274.079 125.177 275.516 123.356 276.858C118.881 280.059 113.514 281.773 108.013 281.758M102.431 280.286C105.935 281.08 109.566 281.125 113.088 280.417C116.61 279.709 119.943 278.264 122.867 276.177C124.666 274.852 126.394 273.433 128.043 271.925C130.461 269.616 133.142 267.599 136.03 265.915C135.669 265.992 135.304 266.072 134.941 266.157C132.183 267.749 129.602 269.63 127.241 271.767C125.679 273.081 124.064 274.439 122.428 275.58C119.647 277.563 116.492 278.961 113.155 279.691C109.818 280.42 106.368 280.466 103.013 279.824L102.428 280.286M101.197 279.503C101.156 279.533 101.124 279.574 101.105 279.621C101.087 279.668 101.082 279.719 101.092 279.769C101.097 279.819 101.117 279.866 101.149 279.904C101.181 279.943 101.223 279.971 101.271 279.986H101.283L101.197 279.503ZM103.919 279.137C110.251 280.14 116.723 278.618 121.944 274.898C123.554 273.778 125.083 272.488 126.703 271.127C128.433 269.617 130.242 268.2 132.121 266.88C131.051 267.18 129.978 267.509 128.902 267.868C118.624 270.544 110.621 274.147 103.919 279.137ZM102.141 278.781C102.362 278.833 102.584 278.881 102.803 278.93C109.009 274.179 116.303 270.642 125.443 267.957C116.217 270.472 108.398 274.104 102.143 278.781" fill="white"/>
<path d="M190.351 267.816C186.205 266.695 182.2 265.104 178.415 263.074C170.947 258.718 166.524 250.774 159.443 246.012C156.003 243.591 152.193 241.744 148.162 240.542L148.844 239.342C151.321 241.574 151.494 245.034 152.344 247.926C153.244 251.384 156.095 254.006 159.237 255.598C164.056 257.498 169.321 258.065 174.356 259.347C174.444 259.368 174.52 259.423 174.567 259.5C174.615 259.577 174.63 259.669 174.609 259.757C174.588 259.839 174.537 259.911 174.467 259.958C174.397 260.006 174.312 260.026 174.228 260.015C171.256 259.637 168.258 259.269 165.282 258.731C162.262 258.193 159.11 257.607 156.514 255.813C153.762 254.125 151.743 251.465 150.859 248.359C150.018 245.384 149.871 242.242 147.882 240.372C145.939 236.372 159.382 244.252 160.088 245.121C167.103 250.101 171.327 258.143 178.754 262.497C182.473 264.543 186.435 266.111 190.547 267.163C190.962 267.272 190.789 267.957 190.355 267.815" fill="white"/>
<path d="M190.465 268.252C190.384 268.252 190.303 268.239 190.226 268.215C186.05 267.086 182.017 265.483 178.206 263.436C176.715 262.556 175.305 261.545 173.992 260.416L173.534 260.357C170.802 260.011 167.977 259.651 165.201 259.15C162.286 258.63 158.985 258.04 156.27 256.165C153.428 254.424 151.349 251.674 150.447 248.465C150.231 247.702 150.061 246.918 149.893 246.159C149.443 244.11 149.017 242.169 147.776 240.865L147.532 240.791L147.594 240.684L147.505 240.562C147.053 239.636 147.334 239.202 147.647 239.003C149.498 237.814 159.311 243.909 160.338 244.794C163.481 247.205 166.346 249.958 168.883 253C171.893 256.355 175.005 259.823 178.96 262.142C182.652 264.165 186.582 265.719 190.66 266.767C190.785 266.8 190.899 266.866 190.989 266.958C191.08 267.05 191.144 267.165 191.175 267.29C191.21 267.428 191.207 267.572 191.167 267.709C191.127 267.845 191.052 267.968 190.949 268.066C190.817 268.188 190.644 268.256 190.464 268.255M190.427 267.569L190.352 267.82L190.432 267.571H190.427M190.427 267.571H190.432L190.482 267.422H190.472L190.427 267.571ZM149.156 241.291C149.93 242.758 150.457 244.342 150.715 245.98C150.881 246.731 151.048 247.495 151.26 248.246C152.109 251.257 154.066 253.835 156.737 255.463C159.316 257.246 162.525 257.819 165.354 258.324C167.854 258.774 170.402 259.11 172.884 259.424C171.575 259.124 170.25 258.854 168.958 258.595C165.597 258.015 162.294 257.144 159.085 255.99C156.885 254.876 153.077 252.385 151.943 248.035C151.743 247.351 151.577 246.624 151.41 245.886C151.138 244.404 150.679 242.962 150.045 241.595C149.751 241.49 149.456 241.388 149.159 241.289M151.167 242.016C151.621 243.213 151.975 244.446 152.224 245.702C152.388 246.421 152.548 247.132 152.749 247.812C153.52 250.769 155.949 253.466 159.428 255.228C162.582 256.355 165.827 257.207 169.128 257.775C169.977 257.946 170.844 258.121 171.708 258.305C170.4 257.029 169.156 255.696 167.929 254.382C165.337 251.387 162.415 248.695 159.218 246.357C156.715 244.596 154.011 243.139 151.164 242.016M150.631 240.916C153.843 242.099 156.886 243.696 159.684 245.667C162.572 247.738 165.22 250.127 167.577 252.787C165.275 250.069 162.683 247.612 159.845 245.459L159.763 245.38C159.128 244.636 153.293 241.33 150.096 240.096C150.291 240.358 150.47 240.632 150.631 240.916ZM148.787 240.29C148.964 240.345 149.142 240.4 149.319 240.459C149.2 240.307 149.075 240.159 148.941 240.018C148.891 240.108 148.841 240.199 148.787 240.29ZM148.101 239.699C148.101 239.699 148.101 239.727 148.113 239.786C148.138 239.739 148.163 239.697 148.187 239.659C148.156 239.667 148.128 239.68 148.102 239.699" fill="white"/>
<path d="M194.975 267.752C186.764 268.045 178.438 269.387 171.057 273.021C167.375 274.834 164.144 277.401 160.786 279.835C157.445 282.261 153.848 284.619 149.671 285.691L149.99 284.569C154.64 289.141 162.637 287.89 166.482 282.853C168.696 280.376 169.171 276.784 171.604 274.36C174.035 271.807 177.169 270.352 180.204 269.039C180.284 269.005 180.374 269.003 180.455 269.034C180.536 269.064 180.603 269.124 180.641 269.202C180.68 269.28 180.687 269.37 180.661 269.453C180.636 269.535 180.579 269.606 180.504 269.648C177.633 271.273 174.696 272.88 172.623 275.273C170.436 277.75 169.949 281.303 167.715 283.863C163.399 289.542 154.173 290.883 149.044 285.512C148.981 285.45 148.931 285.376 148.897 285.295C148.863 285.213 148.845 285.126 148.845 285.037C148.845 284.949 148.863 284.861 148.897 284.78C148.931 284.698 148.981 284.624 149.044 284.562C157.186 282.503 163.196 275.9 170.731 272.351C178.263 268.694 186.672 267.486 194.948 267.072C195.036 267.072 195.121 267.105 195.185 267.166C195.248 267.227 195.286 267.31 195.29 267.398C195.293 267.486 195.263 267.572 195.204 267.638C195.146 267.704 195.064 267.745 194.976 267.751" fill="white"/>
<path d="M157.264 289.325C154.276 289.375 151.384 288.272 149.187 286.246L149.07 286.276L149.1 286.164C148.976 286.047 148.856 285.923 148.735 285.799C148.533 285.593 148.421 285.316 148.424 285.028C148.426 284.74 148.543 284.464 148.748 284.262L148.83 284.183L148.939 284.156C149.205 284.089 149.469 284.016 149.732 283.939L149.779 283.775L149.896 283.89C154.262 282.566 158.105 279.905 161.829 277.326C164.584 275.305 167.501 273.515 170.55 271.972C177.055 268.813 184.573 267.172 194.926 266.653C195.056 266.646 195.185 266.674 195.301 266.733C195.416 266.792 195.514 266.88 195.585 266.989C195.66 267.107 195.703 267.242 195.71 267.381C195.716 267.52 195.686 267.659 195.623 267.783C195.561 267.898 195.47 267.995 195.358 268.063C195.246 268.13 195.119 268.167 194.988 268.168C190.179 268.295 185.396 268.911 180.712 270.007L180.368 270.201C177.668 271.724 174.88 273.301 172.935 275.542C171.939 276.796 171.141 278.196 170.57 279.693C169.952 281.293 169.095 282.791 168.028 284.134C166.827 285.657 165.315 286.906 163.592 287.797C161.869 288.688 159.975 289.201 158.038 289.3C157.78 289.315 157.521 289.322 157.265 289.322M150.165 285.989C152.359 287.791 155.162 288.678 157.993 288.466C159.814 288.373 161.594 287.892 163.213 287.054C164.832 286.216 166.253 285.041 167.381 283.608C168.398 282.32 169.216 280.886 169.807 279.354C170.412 277.781 171.255 276.31 172.307 274.993C173.806 273.373 175.548 271.995 177.471 270.911C177.183 271.001 176.897 271.093 176.615 271.19C174.871 272.082 173.282 273.247 171.909 274.643C170.768 275.923 169.863 277.395 169.237 278.991C168.634 280.485 167.812 281.88 166.797 283.13C165.734 284.477 164.402 285.587 162.885 286.389C161.368 287.19 159.7 287.666 157.989 287.786C155.433 288.004 152.883 287.3 150.8 285.803C150.589 285.868 150.377 285.93 150.165 285.99M151.792 285.47C153.622 286.62 155.778 287.141 157.931 286.952C159.53 286.841 161.087 286.396 162.504 285.647C163.92 284.898 165.164 283.86 166.156 282.601C167.123 281.405 167.906 280.072 168.479 278.644C169.141 276.96 170.101 275.408 171.313 274.064C171.794 273.558 172.309 273.084 172.853 272.646C172.308 272.887 171.771 273.137 171.244 273.395C168.256 274.983 165.413 276.83 162.749 278.917C162.18 279.337 161.609 279.756 161.035 280.173C158.217 282.364 155.106 284.148 151.793 285.473M149.288 284.933C149.266 284.98 149.259 285.032 149.268 285.082C149.276 285.133 149.3 285.18 149.336 285.216L149.364 285.246L149.464 284.885C149.404 284.902 149.344 284.918 149.283 284.933M150.583 284.553C150.705 284.665 150.832 284.772 150.961 284.876C154.411 283.583 157.642 281.769 160.543 279.498C161.115 279.083 161.683 278.664 162.252 278.245C163.784 277.116 165.342 275.964 166.966 274.906C165.372 275.893 163.826 276.965 162.307 278.016C158.651 280.546 154.886 283.153 150.583 284.553ZM194.965 267.494L194.975 267.755L194.967 267.494H194.965Z" fill="white"/>
<path d="M225.96 263.05C216.587 263.256 207.537 259.486 200.106 253.968C196.516 251.107 192.728 248.504 188.77 246.179C184.883 243.86 180.481 242.543 175.959 242.346L176.442 241.046C178.827 242.991 179.967 245.777 181.258 248.158C184.887 256.476 194.74 256.364 202.417 254.958C202.504 254.944 202.593 254.965 202.665 255.015C202.737 255.066 202.787 255.143 202.804 255.229C202.82 255.315 202.803 255.405 202.755 255.479C202.707 255.553 202.633 255.605 202.547 255.625C195.917 257.51 187.341 258.237 182.247 252.535C179.511 249.425 178.56 244.769 175.51 242.174C175.394 242.076 175.31 241.945 175.271 241.798C175.232 241.651 175.24 241.496 175.293 241.354C175.346 241.211 175.441 241.089 175.567 241.003C175.692 240.917 175.841 240.872 175.993 240.874C185.65 241.274 193.406 247.638 200.593 253.327C207.77 258.857 216.775 262.66 225.939 262.364C226.364 262.332 226.421 263.041 225.962 263.043" fill="white"/>
<path d="M225.209 263.477C215.992 263.477 208.074 259.808 202.425 256.101C195.963 257.901 187.236 258.755 181.935 252.822C180.729 251.323 179.714 249.678 178.915 247.927C178.092 246.024 176.948 244.276 175.534 242.76H175.36L175.403 242.643C175.349 242.595 175.296 242.543 175.239 242.501C175.056 242.346 174.926 242.139 174.866 241.906C174.807 241.674 174.821 241.429 174.907 241.206C174.994 240.982 175.147 240.791 175.347 240.659C175.547 240.526 175.783 240.46 176.023 240.468C176.085 240.468 176.147 240.473 176.21 240.476L176.253 240.359L176.41 240.486C185.743 241.029 193.437 247.131 200.238 252.524L200.85 253.009C208.684 259.046 217.539 262.253 225.922 261.955C226.05 261.943 226.179 261.968 226.294 262.026C226.409 262.084 226.505 262.174 226.571 262.284C226.648 262.404 226.691 262.543 226.697 262.685C226.703 262.828 226.671 262.969 226.604 263.095C226.542 263.21 226.449 263.305 226.337 263.371C226.224 263.437 226.096 263.472 225.965 263.47C225.712 263.475 225.458 263.478 225.207 263.478M225.953 262.791L225.96 263.052V262.789H225.953M225.953 262.789H225.96V262.633H225.952L225.953 262.789ZM176.716 242.789C177.894 244.245 178.883 245.844 179.659 247.548C180.428 249.234 181.402 250.819 182.559 252.267C187.209 257.467 194.766 257.123 200.818 255.655C190.385 257.21 183.674 254.755 180.873 248.327C180.659 247.937 180.433 247.499 180.206 247.056C179.503 245.571 178.647 244.163 177.651 242.856C177.337 242.824 177.027 242.801 176.716 242.787M178.816 243.003C179.616 244.173 180.328 245.4 180.948 246.674C181.172 247.11 181.394 247.542 181.622 247.96C184.261 254.002 190.644 256.303 200.59 254.843C200.337 254.662 200.09 254.483 199.851 254.305L199.51 254.046C196.043 251.291 192.386 248.785 188.565 246.546C185.55 244.798 182.25 243.598 178.816 243.003ZM178.074 242.061C181.919 242.582 185.623 243.857 188.974 245.813C192.489 247.852 195.856 250.135 199.051 252.646C192.521 247.472 185.743 242.287 177.469 241.409C177.681 241.62 177.885 241.837 178.078 242.061M176.556 241.944C176.646 241.944 176.74 241.952 176.832 241.957C176.763 241.89 176.695 241.825 176.625 241.757L176.556 241.944ZM175.902 241.304C175.853 241.317 175.807 241.343 175.77 241.377C175.733 241.412 175.705 241.456 175.688 241.504C175.668 241.553 175.661 241.605 175.666 241.658C175.671 241.71 175.688 241.76 175.716 241.804L175.902 241.304Z" fill="white"/>
<path d="M240.958 258.943C223.766 263.767 217.451 284.379 200.793 290.336C195.331 292.484 189.424 293.256 183.593 292.582L183.824 291.211C189.342 291.711 190.524 284.841 193.316 281.328C196.809 276.882 203.003 277.213 208.055 276.515C211.45 276.14 214.855 275.844 218.255 275.552C218.342 275.546 218.428 275.573 218.496 275.628C218.564 275.683 218.607 275.762 218.618 275.849C218.629 275.936 218.606 276.023 218.554 276.094C218.502 276.164 218.425 276.211 218.339 276.226C214.969 276.79 211.598 277.348 208.217 277.826C203.426 278.781 197.831 278.286 194.555 282.314C191.727 286.182 189.749 293.55 183.532 292.573C183.365 292.527 183.222 292.42 183.129 292.274C183.036 292.128 183.001 291.953 183.029 291.783C183.058 291.612 183.149 291.458 183.284 291.351C183.42 291.243 183.59 291.19 183.763 291.2C189.38 291.905 195.084 291.248 200.393 289.284C217.093 283.63 223.632 263.084 240.821 258.277C240.909 258.259 241.001 258.276 241.077 258.326C241.152 258.375 241.205 258.452 241.223 258.541C241.242 258.629 241.224 258.721 241.175 258.797C241.126 258.872 241.048 258.925 240.96 258.943" fill="white"/>
<path d="M187.692 293.236C186.517 293.236 185.341 293.179 184.165 293.065C183.965 293.052 183.765 293.03 183.558 293.001H183.54L183.104 292.949L183.119 292.857C182.916 292.74 182.754 292.562 182.657 292.349C182.561 292.135 182.534 291.896 182.581 291.666C182.628 291.452 182.737 291.256 182.894 291.102C183.05 290.948 183.249 290.843 183.464 290.8L183.471 290.762L183.671 290.779C183.735 290.787 183.76 290.779 183.806 290.787L183.921 290.802C187.476 291.071 189.087 288.026 190.762 284.792C191.385 283.486 192.128 282.24 192.981 281.071C195.939 277.303 200.819 276.834 205.125 276.419C206.102 276.319 207.065 276.23 207.988 276.103C211.536 275.712 215.239 275.392 218.214 275.138C218.256 275.138 218.294 275.138 218.333 275.138C218.778 274.653 219.218 274.168 219.659 273.683C225.614 267.143 231.773 260.383 240.702 257.883C240.833 257.851 240.969 257.855 241.098 257.894C241.227 257.933 241.343 258.005 241.434 258.104C241.527 258.208 241.591 258.334 241.62 258.47C241.649 258.606 241.642 258.748 241.6 258.88C241.56 259.001 241.488 259.109 241.392 259.193C241.295 259.277 241.178 259.334 241.053 259.357C232.307 261.817 226.267 268.581 220.428 275.123C214.856 281.365 209.094 287.823 200.928 290.738C196.711 292.398 192.219 293.249 187.687 293.245M187.487 292.409H187.687C192.4 292.404 197.065 291.463 201.412 289.641C205.759 287.819 209.7 285.152 213.008 281.794C209.455 285.284 205.198 287.975 200.521 289.687C196.612 291.132 192.481 291.882 188.314 291.904C188.05 292.092 187.773 292.261 187.485 292.409M184.273 292.243C185.082 292.301 185.893 292.174 186.646 291.873C185.817 291.836 184.988 291.772 184.159 291.679L184.069 292.224C184.138 292.231 184.204 292.237 184.269 292.242M186.913 291.042C187.288 291.054 187.663 291.061 188.04 291.062C189.762 289.746 191.005 287.517 192.224 285.335C192.82 284.209 193.482 283.119 194.207 282.071C196.807 278.871 200.747 278.4 204.56 277.941C205.747 277.799 206.975 277.65 208.124 277.421C210.813 277.04 213.397 276.621 216.306 276.143C213.754 276.364 210.868 276.628 208.087 276.934C207.162 277.061 206.187 277.156 205.201 277.252C200.862 277.67 196.372 278.101 193.631 281.59C192.812 282.718 192.099 283.92 191.501 285.179C190.329 287.442 189.046 289.92 186.914 291.044M216.677 276.926C213.67 277.426 211.02 277.851 208.277 278.239C207.118 278.471 205.877 278.622 204.672 278.767C200.858 279.225 197.256 279.66 194.884 282.578C194.184 283.593 193.543 284.648 192.966 285.737C192.01 287.663 190.79 289.447 189.342 291.037C193.07 290.908 196.753 290.182 200.252 288.888C206.877 286.647 211.968 281.943 216.68 276.925M240.912 258.684L240.96 258.94L240.881 258.529L240.912 258.684Z" fill="white"/>
<path d="M66.635 230.883C59.2058 210.428 48.9268 191.123 36.102 173.54C34.844 171.811 33.508 169.995 31.602 169.261C29.696 168.507 27.559 169.452 26.047 170.841C22.883 173.657 21.629 178.134 21.768 182.328C21.907 186.604 23.29 190.744 24.674 194.851C24.6969 194.919 24.7062 194.991 24.7014 195.063C24.6966 195.134 24.6777 195.204 24.6459 195.268C24.614 195.333 24.5698 195.39 24.5158 195.437C24.4617 195.484 24.399 195.52 24.331 195.543C16.639 194.204 5.70699 193.424 2.77399 202.466C1.10699 211.478 11.645 215.78 18.374 218.912C26.1253 222.34 34.1729 225.054 42.417 227.021C50.681 228.985 59.066 230.398 67.517 231.253C67.5965 231.261 67.6697 231.3 67.7205 231.362C67.7712 231.424 67.7953 231.503 67.7875 231.583C67.7797 231.662 67.7405 231.736 67.6788 231.786C67.617 231.837 67.5375 231.861 67.458 231.853C63.216 231.477 58.958 231.162 54.732 230.553C42.0004 228.84 29.5708 225.355 17.804 220.2C12.092 217.529 5.46999 214.735 2.31699 208.79C-1.28301 202.116 4.65799 195.002 11.354 193.919C15.707 193.044 20.073 193.774 24.245 194.481L23.635 195.195C20.827 187.285 18.346 176.673 25.484 170.195C27.151 168.678 29.646 167.611 31.884 168.513C34.122 169.415 35.443 171.371 36.698 173.107C39.255 176.637 41.67 180.266 44.041 183.921C53.4774 198.596 61.2464 214.279 67.204 230.677C67.2175 230.715 67.2235 230.754 67.2217 230.794C67.2199 230.834 67.2103 230.873 67.1935 230.909C67.1766 230.945 67.1529 230.977 67.1235 231.004C67.0942 231.03 67.0598 231.051 67.0225 231.065C66.9851 231.078 66.9455 231.084 66.9058 231.083C66.8661 231.081 66.8271 231.071 66.7911 231.054C66.7552 231.037 66.7229 231.014 66.6961 230.984C66.6693 230.955 66.6485 230.921 66.635 230.883Z" fill="white"/>
<path d="M67.484 232.275C67.464 232.275 67.444 232.275 67.427 232.275L65.218 232.081C61.76 231.781 58.183 231.474 54.675 230.972C41.9048 229.251 29.4378 225.754 17.636 220.581L16.609 220.103C11.158 217.573 4.97999 214.703 1.94799 208.984C1.22547 207.67 0.837095 206.198 0.817041 204.699C0.796988 203.199 1.14587 201.717 1.83299 200.384C2.76989 198.584 4.11126 197.026 5.75176 195.832C7.39227 194.637 9.28727 193.84 11.288 193.501C15.0835 192.915 18.9535 193.017 22.713 193.801C20.198 186.242 18.233 176.214 25.205 169.886C26.871 168.376 29.538 167.118 32.043 168.128C34.272 169.028 35.648 170.934 36.861 172.615L37.038 172.862C39.791 176.662 42.301 180.471 44.392 183.695C53.8456 198.396 61.6291 214.106 67.598 230.533C67.5998 230.752 67.656 230.968 67.7616 231.16C67.8672 231.352 68.0189 231.514 68.203 231.633C68.1833 231.81 68.0992 231.974 67.9665 232.093C67.8339 232.212 67.6621 232.278 67.484 232.278M15.633 193.933C14.2232 193.926 12.8162 194.06 11.433 194.333C9.56081 194.647 7.78687 195.39 6.25057 196.505C4.71428 197.62 3.4575 199.076 2.57899 200.759C1.94564 201.971 1.62322 203.321 1.64067 204.689C1.65813 206.056 2.01491 207.398 2.67899 208.593C5.57899 214.066 11.622 216.872 16.955 219.349L17.975 219.824C29.7042 224.963 42.0935 228.438 54.784 230.15C56.702 230.424 58.645 230.64 60.577 230.829C54.4329 230.023 48.3365 228.888 42.314 227.429C34.0467 225.454 25.9761 222.732 18.202 219.295L17.088 218.782C10.188 215.596 0.729986 211.241 2.36299 202.389C5.48799 192.752 17.563 194.014 23.09 194.907C23.067 194.837 23.043 194.767 23.018 194.696C20.5811 194.239 18.1108 193.984 15.632 193.932M16.132 195.132C10.466 195.132 5.07499 196.714 3.16999 202.59C1.66799 210.752 10.788 214.953 17.445 218.021L18.555 218.533C26.2812 221.947 34.3019 224.652 42.518 226.613C50.2891 228.473 58.1722 229.83 66.118 230.675C58.7178 210.384 48.5015 191.233 35.769 173.786C34.597 172.174 33.269 170.348 31.456 169.651C29.656 168.939 27.632 169.957 26.334 171.151C23.546 173.636 22.034 177.703 22.19 182.317C22.324 186.384 23.6 190.339 24.89 194.17L25.044 194.197L24.944 194.319L25.081 194.719C25.162 194.962 25.1436 195.227 25.0299 195.456C24.9162 195.686 24.7163 195.861 24.474 195.943L24.374 195.975L24.269 195.957C24.062 195.922 23.851 195.885 23.639 195.852L23.492 196.023L23.418 195.814C21.0149 195.398 18.5826 195.174 16.144 195.142M23.656 193.96C23.756 193.978 23.856 193.995 23.956 194.012C22.5281 190.27 21.6523 186.34 21.356 182.345C21.195 177.484 22.806 173.178 25.777 170.534C26.1781 170.162 26.6134 169.829 27.077 169.539C26.61 169.82 26.1716 170.146 25.768 170.512C19.022 176.632 21.146 186.584 23.649 193.96" fill="white"/>
<path d="M46.931 189.651C46.807 185.977 46.501 182.037 48.351 178.678C49.789 176.262 52.951 174.427 55.751 175.646C56.539 176.07 57.3705 176.408 58.231 176.654C59.084 176.71 59.9251 176.43 60.574 175.873C65.34 172.98 69.927 178.151 71.368 182.351C75.136 190.978 74.652 200.757 73.575 209.829C72.717 217.105 71.682 224.874 67.175 230.949C67.1294 231.016 67.0593 231.061 66.9801 231.076C66.901 231.09 66.8193 231.073 66.753 231.027C66.6867 230.982 66.6412 230.911 66.6266 230.832C66.612 230.753 66.6294 230.672 66.675 230.605C70.493 224.263 71.316 216.891 72.167 209.663C73.038 202.447 73.659 195.053 72.098 187.907C70.971 182.815 67.677 173.287 60.904 176.432C60.1232 177.065 59.1275 177.371 58.126 177.285C57.2161 177.031 56.3381 176.674 55.509 176.221C50.733 174.475 47.409 179.888 47.486 184.141C47.3758 185.964 47.3918 187.793 47.534 189.614C47.5393 189.694 47.5128 189.772 47.4603 189.832C47.4077 189.892 47.3335 189.929 47.254 189.934C47.1744 189.94 47.096 189.913 47.036 189.86C46.976 189.808 46.9393 189.734 46.934 189.654" fill="white"/>
<path d="M66.922 231.493C66.7707 231.493 66.6232 231.445 66.501 231.356C66.3527 231.246 66.2519 231.083 66.2191 230.901C66.1862 230.719 66.2237 230.531 66.324 230.376C70.024 224.237 70.879 216.991 71.709 209.985L71.754 209.61C72.554 202.96 73.279 195.256 71.692 187.995C71.077 185.216 69.242 178.555 65.485 176.695C64.7939 176.369 64.036 176.208 63.2719 176.227C62.5078 176.247 61.7588 176.444 61.085 176.805C60.2281 177.488 59.1364 177.805 58.047 177.688C57.3715 177.541 56.721 177.296 56.116 176.961C55.86 176.832 55.609 176.707 55.355 176.603C54.6592 176.33 53.9057 176.238 53.1647 176.336C52.4237 176.433 51.7195 176.717 51.118 177.16C50.0951 178.007 49.2757 179.072 48.7205 180.278C48.1654 181.484 47.8887 182.8 47.911 184.127C47.7995 185.944 47.8145 187.767 47.956 189.582C47.9696 189.704 47.9499 189.826 47.899 189.937C47.848 190.048 47.7678 190.143 47.667 190.212C47.5549 190.288 47.4249 190.332 47.2901 190.342C47.1552 190.351 47.0203 190.325 46.899 190.265C46.7869 190.209 46.6923 190.124 46.6253 190.018C46.5583 189.912 46.5215 189.79 46.519 189.665L46.489 188.842C46.359 185.324 46.223 181.686 47.989 178.476C49.541 175.867 52.927 173.959 55.919 175.262C56.212 175.384 56.501 175.525 56.782 175.662C57.2574 175.927 57.7683 176.122 58.299 176.242C58.943 176.372 59.53 176.042 60.351 175.521C61.0926 175.039 61.9373 174.738 62.8167 174.643C63.6961 174.548 64.5855 174.662 65.413 174.974C68.465 176.081 70.801 179.409 71.764 182.216C75.57 190.928 75.085 200.662 73.991 209.876C73.203 216.547 72.223 224.846 67.509 231.199C67.4534 231.275 67.3832 231.34 67.3025 231.388C67.2218 231.437 67.1322 231.469 67.039 231.483C67.0013 231.489 66.9631 231.492 66.925 231.491M68.721 178.499C70.892 181.439 72.044 185.699 72.51 187.812C74.125 195.203 73.395 202.989 72.585 209.712L72.542 210.085C71.808 216.294 71.05 222.692 68.325 228.419C71.646 222.605 72.475 215.57 73.161 209.782C74.24 200.682 74.723 191.082 70.984 182.521C70.4668 181.061 69.7012 179.702 68.721 178.503" fill="white"/>
<path d="M16.274 218.622C11.936 219.114 6.516 222.149 7.66 227.222C7.77795 227.954 8.08613 228.642 8.55367 229.217C9.02121 229.793 9.6317 230.235 10.324 230.5C10.4021 230.526 10.4669 230.581 10.5044 230.654C10.5418 230.727 10.5489 230.812 10.524 230.89C8.337 232.868 8.476 236.29 9.992 238.663C11.433 241.093 14.278 242.278 17.037 242.7C22.726 243.4 28.599 242.335 34.237 241.374C45.437 238.933 57.377 237.339 67.309 231.309C67.597 231.09 67.98 231.565 67.665 231.796C60.556 237.142 51.591 239.11 43.076 240.985C34.499 242.46 14.768 247.973 9.354 239.045C7.824 236.465 7.595 232.701 10.016 230.563L10.123 231.095C6.752 229.895 6.115 225.321 7.892 222.572C9.715 219.788 13.039 218.545 16.175 218.024C16.2546 218.011 16.3361 218.03 16.4018 218.077C16.4674 218.124 16.5117 218.195 16.525 218.274C16.5383 218.354 16.5194 218.435 16.4725 218.501C16.4256 218.567 16.3546 218.611 16.275 218.624" fill="white"/>
<path d="M21.98 244.463C16.358 244.463 11.396 243.222 8.99496 239.263C7.54696 236.816 7.18596 233.375 9.01496 231.021C7.99319 230.36 7.23257 229.365 6.86296 228.205C6.54422 227.238 6.43984 226.213 6.5571 225.201C6.67435 224.19 7.01042 223.216 7.54196 222.347C9.15596 219.882 12.037 218.29 16.107 217.611C16.2307 217.591 16.3576 217.603 16.475 217.647C16.5923 217.691 16.6961 217.765 16.776 217.862C16.8567 217.965 16.9095 218.087 16.9291 218.216C16.9487 218.345 16.9346 218.477 16.888 218.599C16.8422 218.714 16.7667 218.815 16.6692 218.892C16.5717 218.968 16.4557 219.017 16.333 219.034H16.318C13.967 219.303 10.618 220.469 8.90696 222.873C8.46417 223.478 8.15955 224.173 8.01459 224.909C7.86962 225.645 7.88784 226.404 8.06796 227.132C8.16404 227.725 8.39497 228.288 8.74294 228.777C9.09091 229.267 9.54663 229.67 10.075 229.955L10.284 229.771L10.344 230.071C10.379 230.084 10.413 230.096 10.449 230.108C10.54 230.136 10.6245 230.182 10.6975 230.243C10.7705 230.304 10.8305 230.379 10.874 230.464C10.9639 230.634 10.9826 230.833 10.926 231.017L10.891 231.127L10.806 231.204C10.739 231.264 10.674 231.326 10.612 231.39L10.682 231.739L10.388 231.639C8.76296 233.565 9.10496 236.502 10.346 238.445C11.946 241.145 15.264 242.014 17.102 242.294C22.515 242.96 28.144 241.994 33.584 241.068L34.169 240.968C36.064 240.555 37.997 240.162 39.938 239.768C49.269 237.877 58.918 235.92 67.093 230.955C67.1864 230.89 67.2952 230.85 67.4086 230.84C67.5219 230.829 67.6361 230.848 67.74 230.895C67.8623 230.948 67.9688 231.032 68.0491 231.138C68.1294 231.244 68.1807 231.37 68.198 231.502C68.2117 231.623 68.1928 231.746 68.143 231.858C68.0932 231.97 68.0145 232.066 67.915 232.137C60.751 237.525 51.84 239.488 43.215 241.386C41.991 241.6 40.635 241.871 39.14 242.17C34.065 243.187 27.68 244.464 21.976 244.464M15.338 242.777C22.045 244.74 32.191 242.71 38.978 241.349C40.483 241.049 41.846 240.775 43.006 240.576C50.725 238.876 58.651 237.131 65.28 232.939C57.48 237.064 48.658 238.852 40.103 240.586C38.165 240.979 36.233 241.37 34.327 241.786L33.722 241.886C28.222 242.826 22.536 243.794 16.986 243.115C16.4304 243.031 15.8799 242.917 15.337 242.772" fill="white"/>
<path d="M58.786 177.472C56.386 181.397 58.545 186.072 60.554 189.735C62.7195 193.651 64.4536 197.791 65.726 202.081C68.226 210.653 68.893 219.972 66.636 228.668C66.6214 228.747 66.5761 228.817 66.5101 228.862C66.4441 228.907 66.3628 228.925 66.284 228.91C66.2052 228.896 66.1355 228.85 66.0901 228.784C66.0447 228.718 66.0274 228.637 66.042 228.558C67.1626 219.817 66.7002 210.946 64.677 202.369C63.586 198.092 62.0122 193.953 59.986 190.031C57.917 186.218 55.809 181.331 58.274 177.151C58.3165 177.083 58.3843 177.035 58.4625 177.017C58.5406 176.999 58.6226 177.013 58.6905 177.056C58.7584 177.098 58.8066 177.166 58.8245 177.244C58.8424 177.322 58.8286 177.404 58.786 177.472Z" fill="white"/>
<path d="M66.348 229.302C66.2987 229.303 66.2494 229.298 66.201 229.289C66.0226 229.258 65.8632 229.159 65.7562 229.013C65.6492 228.867 65.6029 228.685 65.627 228.506C66.694 218.752 66.247 210.235 64.269 202.469C63.1874 198.223 61.6253 194.115 59.613 190.223C57.488 186.303 55.372 181.245 57.913 176.937C57.9806 176.832 58.0733 176.745 58.1827 176.685C58.2922 176.624 58.415 176.592 58.54 176.591C58.6718 176.597 58.7998 176.637 58.9115 176.707C59.0231 176.777 59.1147 176.875 59.177 176.991C59.2325 177.101 59.258 177.224 59.251 177.346C59.2439 177.469 59.2046 177.588 59.137 177.691C56.951 181.266 58.702 185.491 60.916 189.53C63.0978 193.473 64.8444 197.641 66.125 201.961C68.847 211.305 69.165 220.576 67.04 228.769C66.9996 228.922 66.9094 229.057 66.7838 229.153C66.6581 229.249 66.5041 229.3 66.346 229.299M62.975 195.666C63.8006 197.825 64.5034 200.028 65.08 202.266C67.0089 210.318 67.5333 218.643 66.63 226.873C68.2366 218.667 67.7869 210.192 65.321 202.202C64.6679 199.981 63.8845 197.799 62.975 195.67" fill="white"/>
<path d="M10.815 230.92C15.531 229.79 20.241 231.126 24.75 231.984C38.25 234.201 52.658 236.069 65.875 231.593C65.9476 231.559 66.0308 231.555 66.1062 231.583C66.1816 231.61 66.243 231.666 66.277 231.739C66.3109 231.812 66.3146 231.895 66.2872 231.97C66.2598 232.046 66.2036 232.107 66.131 232.141C50.88 239.347 33.496 234.016 17.788 231.285C15.5226 230.898 13.2025 230.973 10.967 231.506C10.8894 231.526 10.807 231.515 10.7379 231.474C10.6688 231.434 10.6186 231.367 10.5985 231.29C10.5783 231.212 10.5898 231.13 10.6304 231.061C10.671 230.991 10.7374 230.941 10.815 230.921" fill="white"/>
<path d="M48.524 236.187C40.824 236.187 32.969 234.642 25.255 233.125C22.767 232.635 20.193 232.13 17.718 231.699C15.5125 231.32 13.253 231.392 11.076 231.91C10.9587 231.947 10.8335 231.951 10.714 231.922C10.5946 231.892 10.4856 231.831 10.399 231.743C10.3024 231.648 10.2329 231.529 10.1977 231.398C10.1626 231.268 10.163 231.13 10.199 230.999C10.2337 230.879 10.3006 230.77 10.3926 230.685C10.4847 230.6 10.5982 230.541 10.721 230.516C14.821 229.538 18.868 230.366 22.785 231.167C23.471 231.307 24.153 231.448 24.83 231.577C38.388 233.803 52.725 235.605 65.741 231.202C65.909 231.135 66.0966 231.137 66.2631 231.208C66.4297 231.278 66.5618 231.411 66.631 231.578C66.714 231.744 66.7282 231.935 66.6705 232.111C66.6128 232.287 66.4879 232.432 66.323 232.516C60.7397 235.058 54.6565 236.313 48.523 236.188M30.878 233.356C42.105 235.441 53.478 236.806 63.97 232.624C53.309 235.694 41.94 234.94 30.878 233.356Z" fill="white"/>
<path d="M24.249 195.157C26.649 195.695 28.578 197.313 30.276 198.888C35.576 203.497 40.013 209.095 44.801 214.152C51.189 220.807 58.316 227.115 67.01 230.49C67.0865 230.514 67.1504 230.568 67.1875 230.639C67.2246 230.71 67.232 230.793 67.208 230.869C67.184 230.946 67.1306 231.01 67.0595 231.047C66.9884 231.084 66.9055 231.091 66.829 231.067C57.612 228.532 50.207 221.886 43.816 215.074C38.982 209.915 35.176 204.002 29.863 199.337C28.186 197.737 26.378 196.181 24.117 195.748C23.729 195.684 23.851 195.047 24.249 195.157Z" fill="white"/>
<path d="M66.921 231.497C66.8532 231.497 66.7859 231.487 66.721 231.467C57.114 228.825 49.599 221.842 43.521 215.358C41.605 213.313 39.829 211.122 38.108 209.007C35.5381 205.654 32.6904 202.523 29.595 199.647C27.976 198.104 26.225 196.573 24.048 196.155C23.9252 196.136 23.8102 196.082 23.7155 196.002C23.6208 195.921 23.5501 195.816 23.511 195.698C23.4675 195.568 23.4598 195.429 23.4886 195.295C23.5175 195.161 23.5818 195.038 23.675 194.937C23.761 194.846 23.8701 194.781 23.9906 194.747C24.111 194.714 24.2384 194.713 24.359 194.746C26.899 195.32 28.897 197.025 30.57 198.577C34.1042 201.789 37.435 205.218 40.543 208.843C42.031 210.509 43.57 212.229 45.115 213.861C50.58 219.555 58.028 226.548 67.17 230.097C67.3257 230.158 67.4556 230.271 67.5377 230.416C67.6198 230.562 67.6491 230.731 67.6206 230.896C67.5922 231.061 67.5077 231.211 67.3815 231.32C67.2552 231.43 67.095 231.492 66.928 231.497M35.532 204.588C36.632 205.877 37.699 207.188 38.749 208.479C40.458 210.586 42.226 212.763 44.122 214.787C49.617 220.645 56.286 226.916 64.599 229.919C56.326 226.105 49.569 219.719 44.499 214.441C42.945 212.799 41.399 211.073 39.91 209.403C38.482 207.803 37.029 206.178 35.532 204.588Z" fill="white"/>
</g>
</svg>
