<svg xmlns="http://www.w3.org/2000/svg" width="2038.245" height="1761.218" viewBox="0 0 2038.245 1761.218">
  <g id="Grupo_2626" data-name="Grupo 2626" transform="translate(117.427 -6982.142)">
    <path id="Uni贸n_3" data-name="Uni贸n 3" d="M19.4,1581.831V383.607h6V45.356s325.31,227.892,930.717,38.72,977.018,0,977.018,0V383.607h6.264V1580.723s-359.734-188.064-956.663,1.108c-198.964,63.054-372.344,84.074-515.056,84.077C182.231,1665.913,19.4,1581.831,19.4,1581.831Z" transform="translate(-18.582 7012.669)" fill="#b9b9b9" opacity="0.6"/>
    <path id="Uni贸n_2" data-name="Uni贸n 2" d="M956.663,1620.266c-596.929-171.381-956.663-1-956.663-1V76.169s366.408-171.381,963.337,0,956.663,1,956.663,1V1620.266s-162.831,76.174-448.281,76.169C1329.007,1696.433,1155.627,1677.39,956.663,1620.266Z" transform="translate(0.818 6982.142)" fill="#262626"/>
    <path id="Trazado_3561" data-name="Trazado 3561" d="M-5.454,932.121s140,226.667,499.394,244.849c275.655,13.945,798.392-196.23,1206.995-184.083,123.727,3.678,237.2,27.88,329.975,85.114" transform="translate(-110.909 7564.507)" fill="none" stroke="#b9b9b9" stroke-width="2.5"/>
  </g>
</svg>
