<svg xmlns="http://www.w3.org/2000/svg" id="Capa_1" data-name="Capa 1" viewBox="0 0 1924 623"><defs><style>.cls-1{fill:#d3af76;}</style></defs><path class="cls-1" d="M321.1,428.65a1.69,1.69,0,0,0,0,.23c.16,5.11,3.2,21,6.05,34.26,2,9.12-12,14-14.1,8.62-2.52-6.63,6.9-10.95,11.47-10.69a106.09,106.09,0,0,0-5-20.09c-3.05.93-11.15,3.7-17.64,8.68.81,6.59,2.16,15.12,3.89,23.16,2,9.12-12,14-14.09,8.62-2.53-6.63,6.89-10.95,11.47-10.69a105.33,105.33,0,0,0-9-29.56s12.54-4.88,21.52-9.47C317.72,430.66,319.61,429.62,321.1,428.65Z"></path><path class="cls-1" d="M315.39,151.94c6.47,5.31,13.82,3.27,15.94,13.37,3.36-8-2.36-12.34-6.74-14.68-3.63-1.95-6.31-3.42-8.36-4.61-5.11-3-6.26-4.3-8.38-7.19l-.05-.07c0,.12.06.23.1.35a148.39,148.39,0,0,1,1.94,42.3c-6-2.5-19.92-1.33-18.79,8.5.93,8,21.14,8.25,21.58-4.56.29-8.41,1-17.07,1.74-24.64,5.19,9.58,13.2,2.07,14.89,13.54,2.78-8.53-1.53-11.61-4.85-13-5.3-2.27-7.92-3.5-9.58-4.71.07-.54.13-1.09.19-1.6C315.14,153.88,315.26,152.9,315.39,151.94Z"></path><path class="cls-1" d="M230.37,325.57c4.78,11.92-14.3,19.82-18.42,12.85-5.06-8.55,7.57-15.22,14.2-15.34a146.32,146.32,0,0,0-19.26-38.37,67.8,67.8,0,0,1,9.52-2.61C217.54,288.52,223.32,308,230.37,325.57Z"></path><path class="cls-1" d="M1577.08,441.62c6.79,5.63,15.27-.62,17.57,10.79,3.42-9.4-2.57-14-7.15-16.33-3.79-2-6.6-3.47-8.73-4.7-5.35-3.07-6.55-4.49-8.79-7.64l0-.07c0,.12.07.25.1.38a184.49,184.49,0,0,1,2.4,48.24c-6.24-2.44-20.74-.15-19.47,11,1,9.1,22.06,8,22.41-6.7C1575.59,467,1576.56,446.89,1577.08,441.62Z"></path><path class="cls-1" d="M1700.47,324.43l-.33-.12c0-.08,0-.15.07-.23.78-2.37,1.59-4.72,2.46-7,3.87-1,7.81-2.27,9.84-3.86,9.09-7.12,11.4-20.07,7.65-21.65-1.87-.79-8,.51-16.4,19.26l-.64.11c-15.77,2.4-24.48,7.28-23.61,21.48.39,6.35,5.82,12.58,12.23,14.27l-.3.78c-3.31,8.46-7.19,13.5-13.43,10.5a6.76,6.76,0,0,1-3.13-3.42c4.5,7,13.61-3.73,6.72-8.68-7.16-3.69-9,5.66-8.22,8,1.49,7.14,14.19,10.85,19-4.9.14-.37.27-.75.4-1.13l.3-.89a12.21,12.21,0,0,0,5.71-.38C1708.73,343.17,1710.1,328.36,1700.47,324.43Zm10.68-24.49c4.42-5.94,9.54-6.78,4.83,4.08-1.47,3.38-6.59,5.48-10.6,6.44A57,57,0,0,1,1711.15,299.94Zm-26.8,36.37c-2.67-9.77,2.43-15.19,10.55-17.35,1.63-.43,3.85-.93,6.2-1.51-.75,2.08-1.47,4.21-2.15,6.34l0,.13a9,9,0,0,0-9.37,14.48c-1.77-8.16,3.31-10.35,7.67-9-1.63,5.41-3.13,10.67-4.73,15.21,0,.13-.09.26-.14.39C1688.9,343.93,1685.68,340.57,1684.35,336.31Zm9.24,9,.11-.32c1.65-5,3.13-10.06,4.68-15.12a7,7,0,0,1,4.19,7.73C1700.82,343.83,1697.2,345.88,1693.59,345.33Z"></path><path class="cls-1" d="M1649.69,137.87c-11.41-1.24-26.38-4.42-26.38-4.42a117.73,117.73,0,0,1-3.06,15.05c-.17.61-.34,1.22-.52,1.83a121.24,121.24,0,0,1-6.23,16.75c-4.2-3.09-15.86-4.86-17.57,3-1.39,6.41,15,10.48,18.79.61,2.71-7.09,5.89-14.33,8.76-20.42a96.45,96.45,0,0,1,23.2,2.39,123.15,123.15,0,0,1-6.75,18.58c-4.21-3.09-15.87-4.86-17.58,3-1.39,6.41,15,10.48,18.79.61,5.5-14.34,12.49-31.33,15.51-36.28l.14-.22C1654.77,138.33,1652.32,138.15,1649.69,137.87Zm-25.26,10.41,1-2c9.27-.68,18.73,1.74,22.21,2.75-.14.6-.28,1.19-.44,1.78A87.59,87.59,0,0,0,1624.43,148.28Z"></path></svg>