<svg xmlns="http://www.w3.org/2000/svg" width="17.229" height="17.229" viewBox="0 0 17.229 17.229">
  <path id="Icon_fa-brands-square-facebook" data-name="Icon fa-brands-square-facebook" d="M15.383,2.25H1.846A1.846,1.846,0,0,0,0,4.1V17.633a1.846,1.846,0,0,0,1.846,1.846H7.124V13.622H4.7V10.865H7.124v-2.1a3.365,3.365,0,0,1,3.6-3.71,14.678,14.678,0,0,1,2.135.186V7.585h-1.2A1.379,1.379,0,0,0,10.1,9.074v1.79H12.75l-.423,2.757H10.1v5.857h5.278a1.846,1.846,0,0,0,1.846-1.846V4.1A1.846,1.846,0,0,0,15.383,2.25Z" transform="translate(0 -2.25)" fill="#fff"/>
</svg>
