<svg xmlns="http://www.w3.org/2000/svg" width="17.229" height="17.229" viewBox="0 0 17.229 17.229">
  <path id="Icon_akar-instagram-fill" data-name="Icon akar-instagram-fill" d="M6.563,1.552c.919-.042,1.212-.052,3.552-.052s2.633.01,3.551.052a6.34,6.34,0,0,1,2.093.4,4.41,4.41,0,0,1,2.519,2.519,6.336,6.336,0,0,1,.4,2.091c.042.92.052,1.213.052,3.552s-.01,2.633-.052,3.552a6.315,6.315,0,0,1-.4,2.091,4.4,4.4,0,0,1-2.519,2.519,6.336,6.336,0,0,1-2.091.4c-.919.042-1.212.052-3.552.052s-2.633-.01-3.552-.052a6.315,6.315,0,0,1-2.091-.4,4.4,4.4,0,0,1-2.52-2.519,6.358,6.358,0,0,1-.4-2.091c-.042-.92-.052-1.213-.052-3.552s.01-2.633.052-3.551a6.34,6.34,0,0,1,.4-2.093A4.414,4.414,0,0,1,4.471,1.952a6.358,6.358,0,0,1,2.091-.4ZM13.6,3.1c-.908-.042-1.181-.05-3.481-.05s-2.573.009-3.481.05a4.761,4.761,0,0,0-1.6.3A2.845,2.845,0,0,0,3.4,5.034a4.761,4.761,0,0,0-.3,1.6c-.042.908-.05,1.181-.05,3.481s.009,2.573.05,3.481a4.761,4.761,0,0,0,.3,1.6A2.845,2.845,0,0,0,5.034,16.83a4.761,4.761,0,0,0,1.6.3c.908.042,1.18.05,3.481.05s2.573-.009,3.481-.05a4.761,4.761,0,0,0,1.6-.3A2.845,2.845,0,0,0,16.83,15.2a4.761,4.761,0,0,0,.3-1.6c.042-.908.05-1.181.05-3.481s-.009-2.573-.05-3.481a4.761,4.761,0,0,0-.3-1.6A2.845,2.845,0,0,0,15.2,3.4a4.761,4.761,0,0,0-1.6-.3ZM9.014,12.77a2.874,2.874,0,1,0-1.773-2.655A2.873,2.873,0,0,0,9.014,12.77ZM6.984,6.984a4.428,4.428,0,1,1,0,6.262,4.428,4.428,0,0,1,0-6.262Zm8.541-.637a1.047,1.047,0,1,0-1.459-.021A1.047,1.047,0,0,0,15.524,6.346Z" transform="translate(-1.5 -1.5)" fill="#fff"/>
</svg>
