<svg id="Grupo_2632" data-name="Grupo 2632" xmlns="http://www.w3.org/2000/svg" xmlns:xlink="http://www.w3.org/1999/xlink" width="142.132" height="143.899" viewBox="0 0 142.132 143.899">
  <defs>
    <clipPath id="clip-path">
      <rect id="Rectángulo_112" data-name="Rectángulo 112" width="142.132" height="143.899" fill="none"/>
    </clipPath>
  </defs>
  <g id="Grupo_2631" data-name="Grupo 2631" clip-path="url(#clip-path)">
    <path id="Trazado_3693" data-name="Trazado 3693" d="M193.811,140.221c4.32,2.059,6.215,5.307,5.63,9.342-.563,3.875-3.526,6.454-8.113,7.062,4.233,2.152,6.137,5.558,5.343,9.56-.761,3.834-3.7,6.285-8.072,6.727,5.173,2.8,6.927,7.584,4.387,12.089a7.528,7.528,0,0,1-6.789,4.124c-16.04.055-32.081.025-48.121.038a4.016,4.016,0,0,1-2.527-.824c-2.849-2.151-5.692-4.313-8.576-6.417a2.7,2.7,0,0,1-1.192-2.435q.037-26.952-.014-53.9c0-1.6.549-2.054,2.062-1.994,2.433.1,4.874-.014,7.31.043a2.021,2.021,0,0,0,2.143-1.25c2.345-4.783,4.741-9.541,7.137-14.3a4.927,4.927,0,0,0,.428-2.309c-.007-4.761-.015-9.522,0-14.283.01-2.492,1.034-3.515,3.5-3.545a17.748,17.748,0,0,1,6.012.946,9.7,9.7,0,0,1,7.033,9.734c.034,7.539.011,15.077.014,22.616,0,2.37,0,2.372,2.448,2.372q14.879,0,29.757,0c4.845.006,8.453,3.294,8.6,7.789.162,4.952-3.1,8.481-8.4,8.812" transform="translate(-68.621 -47.985)" fill="#C18FD2"/>
    <path id="Trazado_3694" data-name="Trazado 3694" d="M.036,193.014c0-10.143.037-20.286-.036-30.427-.012-1.713.478-2.232,2.2-2.21,6.855.091,13.712.078,20.568.007,1.564-.016,2.025.488,2.022,2.034q-.064,30.768,0,61.536c0,1.549-.462,2.048-2.024,2.032q-10.368-.106-20.738,0C.465,226,0,225.5.007,223.952c.056-10.312.029-20.625.029-30.938" transform="translate(0 -87.505)" fill="#C18FD2"/>
    <path id="Trazado_3695" data-name="Trazado 3695" d="M65.912,195.092c0-10.825.031-21.65-.033-32.474-.01-1.659.386-2.282,2.165-2.246,5.439.111,10.881.032,16.322.044,2.652.006,3.548.913,3.549,3.6q.009,31.879,0,63.758c0,2.691-.9,3.606-3.54,3.614q-7.481.02-14.962,0c-2.557-.007-3.493-.934-3.5-3.483q-.016-16.407,0-32.815m13.52,22.594a2.521,2.521,0,1,0-2.538,2.5,2.7,2.7,0,0,0,2.538-2.5" transform="translate(-35.945 -87.501)" fill="#C18FD2"/>
    <path id="Trazado_3696" data-name="Trazado 3696" d="M172.111,26.244c.043,2.586-1.958,4.015-4.156,3.062a49.894,49.894,0,0,1-4.972-2.581,2.714,2.714,0,0,0-3.014.026c-1.464.858-2.989,1.614-4.5,2.4a3.045,3.045,0,0,1-3.513-.166,3.1,3.1,0,0,1-1.021-3.224,33.047,33.047,0,0,1,.692-3.839,3.908,3.908,0,0,0-1.448-4.629c-1.059-.842-1.953-1.888-2.929-2.834a3.1,3.1,0,0,1-1.015-3.373,3.143,3.143,0,0,1,2.878-2.042c1.678-.254,3.354-.539,5.042-.7a2.469,2.469,0,0,0,2.184-1.6c.766-1.642,1.559-3.274,2.415-4.871,1.309-2.443,3.983-2.511,5.366-.107.93,1.618,1.724,3.316,2.521,5.006a2.47,2.47,0,0,0,2.208,1.559c1.743.166,3.477.45,5.208.73a2.986,2.986,0,0,1,1.753,5.286c-1.126,1.117-2.191,2.309-3.4,3.321a3.364,3.364,0,0,0-1.122,3.776c.392,1.647.583,3.341.826,4.8" transform="translate(-79.701 0)" fill="#C18FD2"/>
    <path id="Trazado_3697" data-name="Trazado 3697" d="M61.175,89.111a3.058,3.058,0,0,1-2.829-2.232c-.6-1.768-1.184-3.542-1.723-5.329a2.242,2.242,0,0,0-1.708-1.676c-1.748-.469-3.47-1.031-5.208-1.539a2.992,2.992,0,0,1-.975-5.543c1.376-1,2.713-2.049,4.128-2.985a2.621,2.621,0,0,0,1.257-2.568c-.083-1.808-.1-3.624-.055-5.434.065-2.77,2.4-4.024,4.708-2.512,1.609,1.052,3.157,2.2,4.691,3.365a2.091,2.091,0,0,0,2.2.33c1.8-.677,3.629-1.279,5.435-1.94a2.928,2.928,0,0,1,3.866,3.72c-.552,1.784-1.084,3.576-1.713,5.333a2.342,2.342,0,0,0,.409,2.509c1.106,1.362,2.127,2.792,3.2,4.178a3.152,3.152,0,0,1,.581,3.475,3.1,3.1,0,0,1-3.095,1.683c-1.755.028-3.511.055-5.264,0a2.351,2.351,0,0,0-2.262,1.165c-.984,1.521-2.037,3-3.058,4.492a3.172,3.172,0,0,1-2.59,1.509" transform="translate(-25.768 -31.998)" fill="#C18FD2"/>
    <path id="Trazado_3698" data-name="Trazado 3698" d="M269.278,65.216c-1,2.763.721,4.624,3.3,6.1a14.97,14.97,0,0,1,2.315,1.719c2,1.738,1.521,4.323-.987,5.2-1.708.6-3.452,1.1-5.207,1.539a2.686,2.686,0,0,0-2.109,2.145c-.431,1.582-.981,3.131-1.486,4.692a3.189,3.189,0,0,1-2.552,2.447,2.727,2.727,0,0,1-3.074-1.647c-2.039-4.592-5.448-6.343-10.378-5.494a2.855,2.855,0,0,1-3.229-1.7,3.2,3.2,0,0,1,.741-3.6,1.13,1.13,0,0,1,.1-.134c3.677-3.188,4.037-6.907,1.877-11.109a2.975,2.975,0,0,1,.52-3.757c1.1-1.051,2.338-.9,3.639-.4,1.533.583,3.119,1.037,4.629,1.671a2.5,2.5,0,0,0,2.8-.445c1.422-1.119,2.9-2.183,4.413-3.168,2.246-1.458,4.556-.257,4.681,2.4.048,1.017.008,2.038.008,3.543" transform="translate(-133.996 -32.001)" fill="#C18FD2"/>
  </g>
</svg>
