<svg xmlns="http://www.w3.org/2000/svg" viewBox="0 0 126 126"><g transform="translate(-897 -4391)"><circle cx="63" cy="63" r="63" transform="translate(897 4391)" fill="#fff"/><path d="M81.752,16.728a1.914,1.914,0,0,1-.339,1.533L71.807,32.555a2.137,2.137,0,0,1-1.731.856,4.97,4.97,0,0,1-.872-.089l-7.7-1.889V65.3a1.713,1.713,0,0,1-1.782,1.782H22.294A1.713,1.713,0,0,1,20.511,65.3V31.433L13.6,33.34a1.629,1.629,0,0,1-1.943-.766L2.118,18.315a1.8,1.8,0,0,1-.25-1.5,1.738,1.738,0,0,1,.98-1.141l19.445-9.2h8.912a1.7,1.7,0,0,1,1.782,1.782c0,3.672,5.151,6.274,8.823,6.274s9-2.584,9-6.274A1.713,1.713,0,0,1,52.593,6.48h8.912L80.754,15.5a1.917,1.917,0,0,1,1,1.23Z" transform="translate(918.198 4417.221)" fill="none" stroke="#f66" stroke-width="5"/></g></svg>