<svg xmlns="http://www.w3.org/2000/svg" viewBox="0 0 126 126"><g transform="translate(-897 -4392)"><circle cx="63" cy="63" r="63" transform="translate(897 4392)" fill="#ff9493"/><path d="M6.444,57.125a10.263,10.263,0,0,0,7.187-3.267,10.236,10.236,0,0,0,2.962-7.317A10.568,10.568,0,0,0,26.7,57.125a10.568,10.568,0,0,0-10.1,10.584,10.059,10.059,0,0,0-2.962-7.317A10.263,10.263,0,0,0,6.444,57.125Zm10.149-31.36a20.018,20.018,0,0,0,13.981-6.4A19.938,19.938,0,0,0,36.323,5.076a19.938,19.938,0,0,0,5.749,14.286,20.215,20.215,0,0,0,14.025,6.4,20.188,20.188,0,0,0-9.974,3.092,20.931,20.931,0,0,0-7.187,7.535,20.481,20.481,0,0,0-2.613,10.149,20.038,20.038,0,0,0-5.749-14.33A19.887,19.887,0,0,0,16.593,25.765Zm14.461,46.91a15,15,0,0,0,10.541-4.791,15,15,0,0,0,4.312-10.758A15.562,15.562,0,0,0,60.715,72.675,15.562,15.562,0,0,0,45.906,88.224a15,15,0,0,0-4.312-10.758A15.258,15.258,0,0,0,31.053,72.675ZM60.715,52.029a14.9,14.9,0,0,0,10.5-4.791,14.989,14.989,0,0,0,4.268-10.8A15.558,15.558,0,0,0,90.333,51.986,15.558,15.558,0,0,0,75.48,67.535,15.405,15.405,0,0,0,60.715,52.029Z" transform="translate(912.056 4408.424)" fill="none" stroke="#fff" stroke-linecap="round" stroke-linejoin="round" stroke-width="4"/></g></svg>