<svg xmlns="http://www.w3.org/2000/svg" viewBox="0 0 126 126"><g transform="translate(-897 -3636)"><circle cx="63" cy="63" r="63" transform="translate(897 3636)" fill="#ff9493"/><g transform="translate(923.662 3662.662)"><path d="M59.341,18V51.338H6V18" transform="translate(3.668 18.338)" fill="none" stroke="#fff" stroke-linecap="round" stroke-linejoin="round" stroke-width="5"/><path d="M3,10.5H69.676V27.169H3Z" transform="translate(0 9.169)" fill="none" stroke="#fff" stroke-linecap="round" stroke-linejoin="round" stroke-width="5"/><path d="M18,60.507V10.5" transform="translate(18.338 9.169)" fill="none" stroke="#fff" stroke-linecap="round" stroke-linejoin="round" stroke-width="5"/><path d="M30.837,19.669h-15A8.335,8.335,0,0,1,15.835,3C27.5,3,30.837,19.669,30.837,19.669Z" transform="translate(5.501)" fill="none" stroke="#fff" stroke-linecap="round" stroke-linejoin="round" stroke-width="5"/><path d="M18,19.669H33A8.335,8.335,0,1,0,33,3C21.334,3,18,19.669,18,19.669Z" transform="translate(18.338)" fill="none" stroke="#fff" stroke-linecap="round" stroke-linejoin="round" stroke-width="5"/></g></g></svg>