<svg xmlns="http://www.w3.org/2000/svg" viewBox="0 0 126 126"><g transform="translate(-897 -4382)"><circle cx="63" cy="63" r="63" transform="translate(897 4382)" fill="#f66"/><path d="M32.96,18.292a16.9,16.9,0,1,0,16.9,16.9A16.869,16.869,0,0,0,32.96,18.292Zm0,27.881A10.985,10.985,0,1,1,43.945,35.188,11,11,0,0,1,32.96,46.173ZM54.488,17.6a3.941,3.941,0,1,1-3.941-3.941A3.932,3.932,0,0,1,54.488,17.6Zm11.191,4c-.25-5.279-1.456-9.955-5.323-13.808S51.827,2.734,46.548,2.469c-5.441-.309-21.749-.309-27.19,0-5.264.25-9.941,1.456-13.808,5.309S.491,16.307.226,21.586c-.309,5.441-.309,21.749,0,27.19.25,5.279,1.456,9.955,5.323,13.808s8.529,5.059,13.808,5.323c5.441.309,21.749.309,27.19,0,5.279-.25,9.955-1.456,13.808-5.323s5.059-8.529,5.323-13.808C65.988,43.335,65.988,27.042,65.679,21.6ZM58.65,54.614a11.121,11.121,0,0,1-6.264,6.264C48.048,62.6,37.754,62.2,32.96,62.2s-15.1.382-19.426-1.323A11.121,11.121,0,0,1,7.27,54.614C5.55,50.276,5.947,39.982,5.947,35.188s-.382-15.1,1.323-19.426A11.121,11.121,0,0,1,13.535,9.5C17.873,7.778,28.166,8.175,32.96,8.175s15.1-.382,19.426,1.323a11.121,11.121,0,0,1,6.264,6.264c1.721,4.338,1.323,14.632,1.323,19.426S60.37,50.291,58.65,54.614Z" transform="translate(926.667 4410.199)" fill="#fff"/></g></svg>