<svg xmlns="http://www.w3.org/2000/svg" viewBox="0 0 126 126"><defs><clipPath><rect width="67.697" height="68.13" fill="#fff"/></clipPath></defs><g transform="translate(-897 -4390)"><circle cx="63" cy="63" r="63" transform="translate(897 4390)" fill="#ff9493"/><g transform="translate(926 4419)"><g clip-path="url(#clip-path)"><path d="M51.805,0H15.892A15.836,15.836,0,0,0,0,15.779V52.351A15.817,15.817,0,0,0,13.584,67.962V33.1h.025a20.068,20.068,0,1,1,8.046,16.973V68.13H51.805A15.836,15.836,0,0,0,67.7,52.351V15.779A15.836,15.836,0,0,0,51.805,0m3.437,17.014a4.119,4.119,0,1,1,4.149-4.119,4.134,4.134,0,0,1-4.149,4.119" transform="translate(0 0)" fill="#fff"/><path d="M86.127,97.413A10.009,10.009,0,1,0,76.047,87.4a10.045,10.045,0,0,0,10.08,10.009" transform="translate(-52.41 -53.339)" fill="#fff"/><path d="M86.127,97.413A10.009,10.009,0,1,0,76.047,87.4a10.045,10.045,0,0,0,10.08,10.009" transform="translate(-52.41 -53.339)" fill="#fff"/></g></g></g></svg>