<svg width="232" height="436" viewBox="0 0 232 436" fill="none" xmlns="http://www.w3.org/2000/svg">
<mask id="mask0_1_647" style="mask-type:luminance" maskUnits="userSpaceOnUse" x="-24" y="0" width="256" height="436">
<path d="M231.183 0.600098H-23.626V435.4H231.183V0.600098Z" fill="white"/>
</mask>
<g mask="url(#mask0_1_647)">
<path d="M-15.036 199.334C14.964 227.157 45.915 255.434 65.564 291.951C80.042 318.862 88.877 349.185 109.094 372.611C115.603 380.407 123.448 386.983 132.261 392.031C132.412 392.111 132.525 392.247 132.576 392.409C132.628 392.572 132.613 392.748 132.536 392.9C132.458 393.052 132.324 393.167 132.162 393.221C132 393.274 131.824 393.262 131.671 393.187C122.235 388.814 114.017 382.082 107.056 374.408C86.1 351.14 77.529 320.336 63.503 293.037C44.663 256.451 14.168 227.737 -15.914 200.289C-15.98 200.232 -16.034 200.163 -16.0726 200.085C-16.1112 200.007 -16.1338 199.922 -16.1389 199.835C-16.144 199.748 -16.1316 199.661 -16.1024 199.579C-16.0731 199.497 -16.0277 199.422 -15.9688 199.358C-15.9099 199.294 -15.8386 199.242 -15.7594 199.206C-15.6801 199.17 -15.5944 199.15 -15.5074 199.148C-15.4203 199.146 -15.3338 199.161 -15.2528 199.193C-15.1718 199.225 -15.0981 199.273 -15.036 199.334Z" fill="white"/>
<path d="M-11.128 203.736C-6.77995 208.002 -1.09796 210.579 4.42404 213.186C21.15 220.969 39.003 225.522 56.631 230.748C56.7443 230.787 56.8395 230.865 56.8988 230.969C56.958 231.073 56.9771 231.196 56.9525 231.313C56.9279 231.43 56.8613 231.534 56.7652 231.605C56.6691 231.677 56.5503 231.71 56.431 231.7C38.016 229.294 20.6311 222.055 3.98505 214.118C-1.54295 211.476 -7.19195 208.718 -11.801 204.439C-12.256 204.016 -11.589 203.273 -11.127 203.739" fill="white"/>
<path d="M30.495 243.292C61.477 256.725 94.443 264.136 127.06 272.369C127.175 272.406 127.272 272.483 127.334 272.587C127.395 272.691 127.416 272.814 127.392 272.933C127.368 273.051 127.301 273.156 127.205 273.229C127.108 273.301 126.988 273.335 126.868 273.324C101.768 269.747 77.48 261.943 53.724 253.304C45.783 250.461 37.95 247.331 30.124 244.19C29.555 243.969 29.893 243.029 30.495 243.29" fill="white"/>
<path d="M48.822 266.556C76.799 292.596 109.549 312.688 143.522 329.895C143.632 329.953 143.715 330.051 143.755 330.168C143.795 330.285 143.789 330.413 143.738 330.526C143.687 330.639 143.595 330.728 143.481 330.776C143.366 330.823 143.238 330.825 143.122 330.781C116.338 320.281 92.405 303.656 70.015 285.83C62.515 279.9 55.294 273.638 48.164 267.275C47.709 266.875 48.338 266.104 48.818 266.556" fill="white"/>
<path d="M15.377 228.39C29.544 264.129 38.932 302.664 36.884 341.316C36.8775 341.441 36.823 341.559 36.7317 341.645C36.6405 341.731 36.5196 341.779 36.3942 341.778C36.2688 341.777 36.1486 341.728 36.0586 341.64C35.9686 341.553 35.9157 341.434 35.911 341.309C34.699 312.543 32.111 283.694 24.011 255.953C21.3326 246.719 18.1488 237.638 14.474 228.753C14.4499 228.694 14.4376 228.631 14.4379 228.567C14.4382 228.503 14.451 228.44 14.4757 228.381C14.5004 228.322 14.5365 228.269 14.5818 228.224C14.6272 228.179 14.6809 228.143 14.74 228.119C14.7991 228.095 14.8624 228.083 14.9262 228.083C14.9901 228.083 15.0532 228.096 15.1121 228.121C15.171 228.146 15.2244 228.182 15.2694 228.227C15.3143 228.272 15.3499 228.326 15.374 228.385" fill="white"/>
<path d="M51.7931 271.959C63.0241 306.538 77.3931 344.706 67.9031 381.265C67.8707 381.387 67.7927 381.491 67.6853 381.556C67.578 381.621 67.4495 381.642 67.3269 381.615C67.2042 381.588 67.0969 381.514 67.0272 381.41C66.9575 381.305 66.931 381.178 66.9531 381.054C71.4301 353.487 67.0011 325.442 59.4251 298.808C56.8144 289.895 53.9637 281.05 50.8731 272.275C50.8312 272.153 50.8394 272.019 50.8961 271.904C50.9527 271.788 51.0531 271.699 51.1751 271.657C51.2971 271.615 51.4307 271.623 51.5466 271.68C51.6625 271.737 51.7512 271.837 51.7931 271.959Z" fill="white"/>
<path d="M25.361 221.052C33.9842 215.778 44.1834 213.695 54.184 215.164C62.61 216.432 70.428 220.164 78.36 223.283C86.885 226.631 95.6614 229.3 104.607 231.265C91.341 235.354 77.652 238.909 63.781 238.365C49.91 237.821 35.668 232.648 26.878 221.903" fill="white"/>
<path d="M25.104 220.638C34.1758 215.147 44.9194 213.099 55.375 214.869C65.675 216.717 75.03 221.795 84.865 224.969C91.3926 227.179 98.0465 228.998 104.791 230.414C104.981 230.454 105.152 230.555 105.277 230.703C105.403 230.851 105.475 231.036 105.483 231.23C105.491 231.423 105.434 231.614 105.322 231.772C105.209 231.93 105.047 232.045 104.861 232.1C91.597 236.336 77.841 240.03 63.751 239.5C49.815 238.946 35.119 233.622 26.499 222.212C26.4243 222.112 26.3912 221.986 26.4067 221.862C26.4221 221.737 26.485 221.624 26.5821 221.544C26.6793 221.465 26.8032 221.426 26.9282 221.436C27.0531 221.446 27.1695 221.504 27.253 221.597C41.4 237.341 64.569 239.548 84.276 235.497C91.0503 234.164 97.7496 232.474 104.346 230.435L104.416 232.121C97.6384 230.568 90.9598 228.61 84.416 226.258C77.844 223.974 71.58 220.945 65.116 218.596C52.335 213.484 37.36 214.022 25.616 221.471C25.104 221.819 24.542 220.963 25.106 220.643" fill="white"/>
<path d="M78.7411 260.651C94.8701 254.308 112.947 254.184 129.928 257.651C146.909 261.118 162.986 268.007 178.652 275.424C166.637 275.432 154.784 277.924 142.911 279.77C131.038 281.616 118.821 282.81 107.08 280.253C95.3391 277.696 84.0171 270.858 78.6201 260.123" fill="white"/>
<path d="M78.564 260.2C112.064 247.327 148.248 260.1 179.02 274.65C179.192 274.736 179.33 274.876 179.413 275.049C179.496 275.222 179.519 275.418 179.479 275.606C179.438 275.793 179.336 275.962 179.188 276.085C179.041 276.208 178.857 276.278 178.665 276.285C169.729 276.355 160.851 277.817 151.986 279.355C134.357 282.397 115.286 285.776 98.123 278.521C89.723 274.901 82.098 268.753 78.187 260.345C78.1594 260.287 78.1435 260.225 78.1402 260.161C78.1369 260.097 78.1462 260.033 78.1677 259.973C78.1891 259.912 78.2223 259.857 78.2653 259.809C78.3082 259.762 78.3601 259.723 78.418 259.696C78.5312 259.644 78.6598 259.637 78.7781 259.676C78.8963 259.715 78.9953 259.798 79.055 259.907C83.319 267.743 90.755 273.375 98.911 276.624C115.711 283.383 134.252 280.074 151.642 277.276C160.535 275.865 169.542 274.508 178.652 274.567L178.284 276.201C148.034 261.287 112.123 248.118 78.92 261.105C78.361 261.352 77.952 260.419 78.564 260.205" fill="white"/>
<path d="M72.8741 287.41C96.4641 293.037 125.146 300.994 144.19 316.01C159.936 328.426 170.77 346.078 185.842 359.304C173.36 350.515 157.642 348.159 142.907 344.187C128.504 340.305 114.442 334.605 102.344 325.88C90.2461 317.155 77.4641 301.547 72.4241 287.505" fill="white"/>
<path d="M72.986 286.937C95.22 292.331 117.807 298.385 137.419 310.606C147.25 316.721 155.396 325.091 162.967 333.68C170.561 342.28 177.828 351.175 186.412 358.653C186.574 358.801 186.674 359.004 186.692 359.223C186.71 359.441 186.644 359.658 186.509 359.83C186.374 360.003 186.178 360.117 185.962 360.151C185.745 360.185 185.524 360.136 185.342 360.014C170.934 350.068 152.66 348.551 136.212 343.357C119.431 338.205 103.021 330.123 90.858 317.157C82.82 308.615 75.858 298.823 71.967 287.672C71.946 287.612 71.9371 287.548 71.9408 287.484C71.9445 287.42 71.9608 287.358 71.9886 287.3C72.0165 287.242 72.0554 287.191 72.1032 287.148C72.151 287.106 72.2066 287.073 72.267 287.052C72.3876 287.013 72.5184 287.022 72.6329 287.076C72.7474 287.13 72.8372 287.226 72.884 287.343C75.0317 292.71 77.8267 297.795 81.207 302.485C94.266 321.978 114.657 334.585 136.852 341.308C153.41 346.652 171.752 348.308 186.342 358.596L185.272 359.957C176.625 352.245 169.433 343.215 161.961 334.557C154.484 325.942 146.608 317.482 136.861 311.475C117.398 299.323 94.883 293.268 72.761 287.875C72.6415 287.84 72.5401 287.76 72.4777 287.652C72.4152 287.544 72.3966 287.416 72.4256 287.295C72.4545 287.174 72.5289 287.068 72.6334 287C72.7378 286.932 72.8644 286.907 72.987 286.929" fill="white"/>
<path d="M88.327 343.293C93.806 353.779 104.235 360.694 114.694 366.231C125.153 371.768 136.267 376.532 144.957 384.567C155.44 394.259 161.815 408.221 173.757 416.044C165.185 416.775 156.59 415.071 148.279 412.844C129.214 407.736 109.844 398.97 98.99 382.479C90.851 370.119 88.49 354.937 86.697 340.247" fill="white"/>
<path d="M88.761 343.067C98.018 360.397 117.961 366.338 133.872 375.835C142.137 380.69 149.316 387.193 154.961 394.94C160.792 402.381 166.361 410.246 174.208 415.353C174.348 415.449 174.456 415.586 174.516 415.745C174.576 415.904 174.586 416.078 174.544 416.243C174.502 416.408 174.411 416.556 174.282 416.667C174.154 416.778 173.994 416.847 173.825 416.865C162.872 417.816 152.089 415.074 141.695 411.995C121.081 405.955 100.105 393.373 92.546 372.159C88.661 361.888 87.22 351.029 86.215 340.308C86.1995 340.18 86.2355 340.051 86.315 339.95C86.3945 339.848 86.5111 339.783 86.639 339.767C86.767 339.752 86.8959 339.788 86.9973 339.867C87.0988 339.947 87.1645 340.063 87.18 340.191C88.79 350.821 90.473 361.529 94.48 371.391C102.123 391.927 122.247 403.828 142.314 410.034C152.505 413.184 163.07 416.022 173.69 415.221L173.307 416.733C161.116 408.508 155.071 394.898 144.683 385.076C141.217 381.887 137.417 379.082 133.349 376.708C117.413 367.181 97.279 360.92 87.896 343.517C87.8635 343.46 87.8428 343.397 87.8352 343.332C87.8275 343.267 87.8331 343.201 87.8516 343.138C87.87 343.075 87.901 343.017 87.9426 342.966C87.9842 342.916 88.0356 342.874 88.0937 342.844C88.1518 342.813 88.2154 342.795 88.2807 342.79C88.3461 342.785 88.4118 342.793 88.4739 342.814C88.536 342.835 88.5933 342.868 88.6423 342.911C88.6913 342.955 88.731 343.008 88.759 343.067" fill="white"/>
<path d="M69.266 344.051C76.743 356.89 82.605 377.512 81.08 392.292C79.555 407.072 74.372 421.277 67.695 434.549C61.9407 424.287 58.521 412.882 57.6796 401.147C56.8381 389.412 58.5957 377.636 62.827 366.658C65.727 359.295 69.816 351.944 69.266 344.051Z" fill="white"/>
<path d="M69.6871 343.806C77.2741 357.721 81.9871 373.506 81.7871 389.435C80.7971 405.383 75.4511 420.694 68.4561 434.935C68.3861 435.072 68.2806 435.187 68.1507 435.269C68.0208 435.351 67.8714 435.396 67.7179 435.4C67.5645 435.404 67.4128 435.367 67.2787 435.292C67.1447 435.217 67.0332 435.108 66.9561 434.975C61.0013 424.604 57.4596 413.024 56.594 401.096C55.7283 389.168 57.5611 377.198 61.9561 366.075C64.8941 358.926 68.9811 351.975 68.7851 344.087C68.7832 343.963 68.8291 343.842 68.9132 343.751C68.9973 343.659 69.1134 343.603 69.2375 343.594C69.3616 343.585 69.4843 343.624 69.5806 343.703C69.6768 343.782 69.7393 343.895 69.7551 344.018C70.6061 352.085 66.5881 359.575 63.8691 366.832C58.3566 381.383 57.1509 397.214 60.3961 412.432C61.9753 420.025 64.6866 427.337 68.4391 434.123L66.9391 434.163C74.0391 420.217 79.7571 405.116 80.7821 389.392C81.0381 373.742 76.4531 357.919 68.8541 344.292C68.5201 343.772 69.3861 343.228 69.6931 343.802" fill="white"/>
<path d="M30.461 285.733C41.343 302.612 45.9118 322.794 43.361 342.714C41.523 356.667 36.209 370.07 35.318 384.114C24.518 374.189 19.005 359.407 18.196 344.761C17.387 330.115 20.896 315.529 25.896 301.738C27.97 296.019 30.324 290.292 30.837 284.23" fill="white"/>
<path d="M30.869 285.467C45.239 307.631 47.713 334.136 40.678 359.286C38.718 367.54 36.663 375.786 36.178 384.171C36.1639 384.396 36.0613 384.607 35.8927 384.756C35.7242 384.906 35.5032 384.983 35.278 384.971C28.109 379.346 23.397 370.68 20.4 362.163C14.556 345.001 16.862 326.227 22.275 309.309C24.815 300.868 29.205 292.95 30.36 284.187C30.3748 284.062 30.4379 283.947 30.5358 283.867C30.6337 283.787 30.7588 283.748 30.8847 283.759C31.0106 283.77 31.1274 283.829 31.2105 283.924C31.2936 284.019 31.3365 284.143 31.33 284.269C30.77 293.256 26.539 301.374 24.238 309.914C19.238 326.559 16.895 344.732 22.4 361.503C24.9629 369.856 29.6086 377.419 35.9 383.481L34.465 384.058C35.714 366.989 43.236 351.132 43.508 334.02C43.7327 325.569 42.6922 317.132 40.421 308.988C38.1587 300.84 34.6622 293.087 30.053 285.997C29.697 285.497 30.533 284.908 30.869 285.467Z" fill="white"/>
<path d="M-14.94 143.215C6.30902 122.123 27.933 100.369 55.235 87.1351C75.477 77.3261 97.785 71.8671 115.556 57.7651C121.456 53.2341 126.498 47.6852 130.446 41.3801C130.506 41.2829 130.602 41.2128 130.712 41.1844C130.823 41.156 130.941 41.1715 131.04 41.2276C131.14 41.2838 131.214 41.3763 131.247 41.4858C131.28 41.5953 131.269 41.7133 131.217 41.8151C127.59 48.5182 122.662 54.4303 116.722 59.2051C99.097 73.7891 76.182 79.1881 55.922 88.5691C42.38 94.8831 29.932 103.408 18.435 113C6.95502 122.64 -3.75198 133.177 -14.311 143.839C-14.3518 143.881 -14.4005 143.915 -14.4545 143.938C-14.5084 143.961 -14.5663 143.973 -14.625 143.974C-14.6836 143.974 -14.7418 143.963 -14.796 143.941C-14.8503 143.918 -14.8996 143.886 -14.9411 143.844C-14.9826 143.803 -15.0154 143.753 -15.0376 143.699C-15.0598 143.645 -15.071 143.587 -15.0705 143.528C-15.0701 143.469 -15.0579 143.411 -15.0348 143.358C-15.0117 143.304 -14.9781 143.255 -14.936 143.214" fill="white"/>
<path d="M-11.6079 140.486C-8.35594 137.433 -6.29494 133.356 -4.21794 129.397C1.95606 117.39 5.94806 104.517 10.2131 91.7531C10.243 91.6773 10.2996 91.6151 10.3721 91.578C10.4447 91.541 10.5283 91.5316 10.6072 91.5517C10.6862 91.5718 10.7551 91.62 10.8011 91.6873C10.847 91.7545 10.8669 91.8362 10.8571 91.9171C8.44605 105.276 2.74005 117.808 -3.59595 129.723C-5.69595 133.685 -7.88194 137.733 -11.1489 140.964C-11.4489 141.264 -11.9359 140.788 -11.6079 140.486Z" fill="white"/>
<path d="M18.587 111.252C29.328 89.0001 35.86 65.1521 42.787 41.5281C42.8151 41.4505 42.8709 41.386 42.9436 41.3471C43.0164 41.3082 43.101 41.2976 43.1811 41.3174C43.2612 41.3371 43.3312 41.3858 43.3775 41.4541C43.4238 41.5224 43.4433 41.6054 43.432 41.6871C41.0184 53.8113 37.6274 65.7202 33.292 77.2971C29.068 88.9061 24.299 100.297 19.185 111.531C19.018 111.909 18.385 111.655 18.585 111.252" fill="white"/>
<path d="M36.15 98.5661C56.023 78.8891 71.807 55.6101 85.35 31.2451C85.532 30.9071 86.123 31.1601 85.944 31.5451C77.389 50.7741 64.563 67.7911 50.852 83.6231C46.288 88.9231 41.494 94.0181 36.621 99.0341C36.337 99.3341 35.828 98.8821 36.149 98.5671" fill="white"/>
<path d="M7.21406 121.864C33.7591 112.576 62.2371 106.991 90.4281 109.581C90.5098 109.593 90.5841 109.635 90.6367 109.699C90.6892 109.762 90.7163 109.843 90.7125 109.926C90.7088 110.008 90.6746 110.086 90.6164 110.145C90.5583 110.204 90.4805 110.239 90.3981 110.243C69.3231 110.181 48.1461 111.256 27.6171 116.343C20.7845 118.022 14.0491 120.074 7.44106 122.49C7.06006 122.642 6.78706 122.008 7.21406 121.866" fill="white"/>
<path d="M40.1801 96.5641C66.0031 89.3641 93.88 80.1581 120.58 88.1141C120.657 88.1435 120.721 88.2005 120.758 88.274C120.796 88.3475 120.805 88.4323 120.784 88.5121C120.762 88.5919 120.712 88.661 120.643 88.7061C120.574 88.7511 120.491 88.769 120.409 88.7561C100.394 84.5701 79.7351 87.0171 60.0331 91.7561C53.4331 93.3948 46.8791 95.2104 40.3711 97.2031C39.9811 97.3321 39.7471 96.6851 40.1821 96.5681" fill="white"/>
<path d="M2.14901 114.317C-1.44347 107.852 -2.65578 100.332 -1.277 93.0651C-0.0929976 86.9411 2.87501 81.3391 5.39501 75.6351C8.10336 69.5041 10.322 63.1683 12.03 56.6871C14.615 66.5111 16.798 76.6281 15.975 86.7541C15.152 96.8801 10.942 107.135 2.818 113.234" fill="white"/>
<path d="M1.85905 114.479C-3.23295 105.467 -3.28293 94.2571 0.887068 84.9041C4.95207 75.6151 9.09905 66.4211 11.4541 56.5361C11.4904 56.4115 11.5662 56.302 11.6701 56.2241C11.7739 56.1462 11.9002 56.1041 12.0301 56.1041C12.1599 56.1041 12.2862 56.1462 12.3901 56.2241C12.4939 56.302 12.5697 56.4115 12.6061 56.5361C13.988 61.4461 15.1043 66.427 15.9501 71.4571C18.6041 86.2761 16.1291 104.228 3.01506 113.499C2.94478 113.552 2.85631 113.575 2.7691 113.563C2.6819 113.551 2.60311 113.504 2.55006 113.434C2.49702 113.364 2.47406 113.275 2.48625 113.188C2.49844 113.101 2.54478 113.022 2.61506 112.969C10.4681 106.586 14.3761 96.5541 15.2041 86.6781C16.0721 76.6611 13.9531 66.6191 11.4521 56.8391H12.6021C11.263 61.7471 9.63175 66.5707 7.71705 71.2841C1.20205 86.1841 -6.35993 97.9631 2.43406 114.155C2.65606 114.513 2.05805 114.872 1.85505 114.479" fill="white"/>
<path d="M32.7281 76.4931C28.5831 64.5061 29.0421 51.2871 32.0941 38.9761C35.1461 26.6651 40.6741 15.1201 46.5761 3.89209C46.2161 12.6761 47.6761 21.4191 48.6631 30.1551C49.6501 38.8911 50.1511 47.8641 47.9261 56.3691C45.7011 64.8741 40.3541 72.9461 32.3411 76.5691" fill="white"/>
<path d="M32.414 76.6021C23.951 51.7371 34.504 25.6591 46.056 3.62109C46.1203 3.5071 46.2208 3.41784 46.3416 3.36743C46.4624 3.31701 46.5966 3.30833 46.7228 3.34277C46.8491 3.37721 46.9603 3.45278 47.0387 3.55754C47.1172 3.66229 47.1585 3.79023 47.156 3.92109C46.696 17.0311 50.281 29.9541 50.263 43.3071C50.328 53.2281 47.73 63.7841 40.674 71.1481C38.3494 73.5834 35.5615 75.5296 32.474 76.8721C32.3961 76.8992 32.3108 76.8962 32.235 76.8638C32.1591 76.8313 32.0981 76.7717 32.064 76.6966C32.0298 76.6215 32.0249 76.5363 32.0503 76.4578C32.0756 76.3793 32.1294 76.313 32.201 76.2721C44.271 70.2641 48.843 56.0231 48.728 43.3001C48.878 30.1341 45.363 17.1181 45.987 3.8751L47.087 4.17509C35.236 25.8571 24.622 51.6971 33.035 76.3941C33.185 76.7801 32.54 77.0331 32.408 76.6111" fill="white"/>
<path d="M52.113 81.6001C56.946 64.5231 63.638 43.7941 75.198 30.3281C84.755 19.1941 97.992 11.8101 108.123 1.19312C101.315 10.0511 99.113 21.4691 95.76 32.1241C92.484 42.5371 87.887 52.6461 81.14 61.2241C74.393 69.8021 62.59 78.6741 52.172 81.9301" fill="white"/>
<path d="M51.795 81.5101C58.947 56.3101 66.803 33.3431 88.711 17.1621C95.229 11.8741 101.96 6.83411 107.696 0.784111C107.804 0.670855 107.952 0.604946 108.109 0.600822C108.265 0.596699 108.416 0.654694 108.53 0.762108C108.635 0.863812 108.699 1.00027 108.71 1.1459C108.722 1.29152 108.68 1.43631 108.592 1.55311C103.482 8.28511 100.992 16.5611 98.6721 24.7101C94.2911 41.1051 87.565 57.9511 74.378 69.3201C67.896 74.9351 60.532 79.7331 52.269 82.2481C52.185 82.2728 52.0946 82.2635 52.0173 82.2221C51.9401 82.1808 51.8821 82.1108 51.8561 82.0271C51.8319 81.9437 51.8409 81.8542 51.8811 81.7773C51.9214 81.7003 51.9898 81.6419 52.072 81.6141C67.953 75.7611 81.0721 63.2681 88.4951 48.1291C92.242 40.5147 95.2091 32.5408 97.351 24.3291C99.744 16.1971 102.294 7.74711 107.651 0.834114L108.551 1.6021C96.8991 13.6891 81.225 21.5021 71.6411 35.5331C62.159 49.3981 57.047 65.6771 52.4321 81.6921C52.3321 82.0871 51.659 81.9381 51.795 81.5111" fill="white"/>
<path d="M93.4441 72.0001C101.28 68.3141 106.651 60.9001 111.019 53.4211C115.387 45.9421 119.208 37.9611 125.347 31.8521C132.755 24.4821 143.156 20.2471 149.24 11.7521C149.514 18.0411 148.004 24.2741 146.123 30.2841C141.809 44.0681 134.809 57.9631 122.423 65.3981C113.137 70.9731 101.965 72.2391 91.1691 73.0981" fill="white"/>
<path d="M93.302 71.7011C109.578 63.7011 112.971 43.6411 125.16 31.5101C132.473 24.1921 142.732 19.8851 148.78 11.4251C148.849 11.3325 148.945 11.2634 149.055 11.2269C149.164 11.1904 149.283 11.1884 149.393 11.221C149.504 11.2537 149.602 11.3195 149.675 11.4096C149.747 11.4997 149.79 11.6098 149.798 11.7251C150.168 19.8041 147.786 27.5861 145.226 35.0391C140.152 49.9041 130.408 64.8721 114.661 69.7391C107.044 72.2811 99.061 72.9811 91.194 73.4231C91.1062 73.43 91.0193 73.4017 90.9524 73.3445C90.8854 73.2873 90.8439 73.2059 90.837 73.1181C90.8301 73.0303 90.8584 72.9434 90.9156 72.8764C90.9728 72.8095 91.0542 72.768 91.142 72.7611C98.966 71.9401 106.848 71.0151 114.195 68.3961C129.432 63.4261 138.84 49.0901 143.963 34.5821C146.563 27.2141 148.935 19.5651 148.677 11.7691L149.694 12.0691C145.467 17.8401 139.394 21.6311 133.764 25.5841C127.944 29.3323 122.99 34.2778 119.231 40.0911C111.776 51.4671 106.661 65.9861 93.586 72.3021C93.216 72.4761 92.899 71.8911 93.303 71.7021" fill="white"/>
<path d="M93.417 85.9621C103.032 80.8851 118.288 77.2281 129.049 78.7931C139.81 80.3581 150.036 84.5861 159.537 89.8691C151.858 93.7636 143.415 95.9164 134.81 96.1743C126.204 96.4322 117.647 94.7888 109.749 91.3611C104.455 89.0171 99.204 85.8011 93.416 85.9611" fill="white"/>
<path d="M93.263 85.6701C103.663 80.5461 115.343 77.5831 126.98 78.2151C132.772 78.856 138.468 80.182 143.948 82.1651C149.422 84.1401 154.729 86.5477 159.821 89.3651C159.955 89.4392 160.055 89.5634 160.098 89.7106C160.141 89.8578 160.125 90.0161 160.052 90.1511C152.443 94.5041 143.49 96.5111 134.752 96.9021C126.006 97.2186 117.305 95.5209 109.319 91.9401C104.177 89.5921 99.21 86.3511 93.428 86.2981C93.3402 86.3005 93.2551 86.2679 93.1913 86.2075C93.1276 86.1471 93.0904 86.0639 93.088 85.9761C93.0856 85.8883 93.1182 85.8032 93.1786 85.7394C93.239 85.6756 93.3222 85.6385 93.41 85.6361C99.33 85.3021 104.671 88.4291 109.89 90.6581C120.37 95.1469 131.92 96.5244 143.162 94.6261C148.763 93.6773 154.193 91.9016 159.272 89.3571L159.255 90.3821C154.256 87.5133 149.036 85.0479 143.645 83.0091C138.266 80.9433 132.648 79.5657 126.924 78.9091C115.357 78.4207 103.863 80.9542 93.573 86.2601C93.212 86.4721 92.864 85.8691 93.264 85.6751" fill="white"/>
<path d="M49.5941 112.559C62.2665 105.115 77.1613 102.388 91.6491 104.859C101.796 106.628 111.433 110.923 121.677 112.001C114.09 119.601 103.115 123.175 92.3771 123.322C81.6391 123.469 71.0861 120.456 61.1551 116.381C57.0361 114.69 52.9211 112.794 48.5051 112.236" fill="white"/>
<path d="M49.4261 112.274C65.6651 102.44 85.8841 101.461 103.677 107.363C109.65 109.05 115.618 110.808 121.739 111.423C121.815 111.43 121.89 111.453 121.957 111.489C122.025 111.525 122.085 111.574 122.133 111.634C122.182 111.693 122.218 111.762 122.24 111.835C122.262 111.909 122.269 111.986 122.261 112.062C113.236 121.94 98.5671 125.062 85.6311 123.781C75.8311 122.835 66.4961 119.481 57.5881 115.515C54.6875 114.145 51.6226 113.155 48.4691 112.567C48.3817 112.556 48.3023 112.511 48.2484 112.441C48.1945 112.371 48.1704 112.283 48.1816 112.196C48.1927 112.108 48.2381 112.029 48.3078 111.975C48.3774 111.921 48.4657 111.897 48.5531 111.908C55.0931 112.632 60.9041 115.936 67.0731 117.9C79.1011 122.061 92.3321 124.373 104.779 120.852C110.968 119.207 116.64 116.022 121.266 111.593L121.619 112.586C109.186 111.163 97.8131 105.178 85.3051 104.471C72.8879 103.644 60.5081 106.561 49.7671 112.846C49.4191 113.072 49.0411 112.49 49.4291 112.276" fill="white"/>
<path d="M-22.788 181.14C23.369 162.421 76.8241 162.105 123.342 179.856C138.935 185.798 153.509 194.127 166.542 204.547C166.681 204.654 166.772 204.811 166.796 204.984C166.821 205.158 166.776 205.334 166.672 205.475C166.569 205.616 166.414 205.711 166.241 205.739C166.068 205.767 165.891 205.727 165.748 205.626C152.106 196.452 137.505 188.791 122.205 182.776C91.7231 171.094 57.9051 165.923 25.4051 169.968C9.02036 171.92 -7.02213 176.094 -22.28 182.376C-22.362 182.413 -22.4506 182.434 -22.5407 182.436C-22.6307 182.438 -22.7202 182.422 -22.8039 182.389C-22.8876 182.355 -22.9638 182.306 -23.0278 182.242C-23.0918 182.179 -23.1424 182.103 -23.1766 182.02C-23.2108 181.937 -23.2278 181.847 -23.2266 181.757C-23.2255 181.667 -23.2062 181.578 -23.1699 181.496C-23.1336 181.414 -23.0811 181.339 -23.0155 181.278C-22.9499 181.216 -22.8725 181.168 -22.788 181.137" fill="white"/>
<path d="M51.785 166.369C76.2847 166.34 100.584 170.78 123.491 179.469C139.129 185.417 153.743 193.77 166.805 204.225C166.918 204.314 167.011 204.424 167.08 204.55C167.149 204.675 167.191 204.814 167.205 204.956C167.221 205.098 167.208 205.242 167.167 205.38C167.127 205.517 167.059 205.645 166.969 205.756C166.798 205.966 166.554 206.105 166.287 206.146C166.019 206.186 165.745 206.126 165.519 205.977C151.899 196.826 137.325 189.182 122.054 183.177C90.098 170.931 56.698 166.505 25.462 170.394C9.11361 172.339 -6.89341 176.503 -22.117 182.772C-22.2493 182.828 -22.3914 182.858 -22.5352 182.859C-22.679 182.86 -22.8215 182.832 -22.9545 182.777C-23.0875 182.723 -23.2084 182.643 -23.3102 182.541C-23.4119 182.439 -23.4925 182.319 -23.5473 182.186C-23.602 182.053 -23.6299 181.91 -23.6292 181.767C-23.6285 181.623 -23.5993 181.481 -23.5433 181.348C-23.4873 181.216 -23.4056 181.096 -23.3029 180.995C-23.2001 180.895 -23.0785 180.815 -22.945 180.762C0.810143 171.21 26.1835 166.326 51.787 166.377M166.116 205.318C166.154 205.319 166.192 205.31 166.227 205.294C166.261 205.278 166.292 205.254 166.316 205.224C166.358 205.172 166.378 205.106 166.371 205.04C166.365 204.974 166.332 204.913 166.281 204.87C153.287 194.47 138.749 186.162 123.192 180.246C76.476 162.417 23.326 162.887 -22.632 181.525C-22.6626 181.537 -22.6906 181.556 -22.7141 181.579C-22.7376 181.602 -22.7563 181.63 -22.769 181.66C-22.7822 181.691 -22.789 181.724 -22.789 181.757C-22.789 181.79 -22.7822 181.823 -22.769 181.854C-22.7423 181.916 -22.6924 181.965 -22.63 181.991C-22.57 182.015 -22.5029 182.015 -22.443 181.991C-7.14831 175.694 8.93288 171.51 25.357 169.555C56.732 165.655 90.27 170.092 122.357 182.388C137.683 188.418 152.309 196.093 165.978 205.279C166.02 205.306 166.068 205.321 166.118 205.321" fill="white"/>
<path d="M118.999 181.028C128.42 181.513 137.808 182.364 147.199 182.974C156.57 183.604 166.069 183.384 175.421 185.213L174.721 185.755C174.833 180.636 169.977 176.772 165.166 176.133C160.156 175.34 154.974 176.593 149.96 177.817C139.948 180.381 129.36 184.339 118.905 181.698C118.862 181.687 118.821 181.668 118.785 181.642C118.75 181.615 118.719 181.582 118.696 181.544C118.673 181.506 118.658 181.463 118.652 181.419C118.645 181.375 118.647 181.33 118.658 181.287C118.68 181.204 118.733 181.132 118.806 181.085C118.879 181.039 118.966 181.021 119.051 181.036C129.513 182.859 139.533 178.758 149.579 176.302C154.679 175.131 159.979 173.867 165.4 174.772C170.756 175.555 176.142 179.978 175.885 185.812C175.882 185.896 175.86 185.979 175.821 186.054C175.782 186.129 175.728 186.194 175.661 186.246C175.594 186.297 175.517 186.334 175.435 186.353C175.353 186.371 175.267 186.372 175.185 186.354C170.587 185.436 165.932 184.833 161.252 184.548C147.566 183.887 132.552 182.364 118.959 181.707C118.871 181.701 118.788 181.66 118.73 181.593C118.671 181.527 118.64 181.44 118.645 181.352C118.649 181.264 118.687 181.18 118.752 181.12C118.817 181.059 118.902 181.026 118.991 181.028" fill="white"/>
<path d="M161.546 174.045C162.861 174.042 164.174 174.147 165.472 174.358C170.743 175.129 176.046 179.258 176.306 184.958L176.406 184.978L176.312 185.052C176.32 185.308 176.32 185.565 176.312 185.828C176.305 185.972 176.267 186.114 176.201 186.242C176.134 186.37 176.041 186.482 175.927 186.571C175.813 186.66 175.681 186.723 175.54 186.755C175.4 186.788 175.254 186.79 175.112 186.761C174.853 186.707 174.589 186.654 174.326 186.602L174.298 186.622V186.595C169.982 185.778 165.62 185.233 161.236 184.961C154.38 184.632 147.067 184.075 139.997 183.536C136.704 183.283 133.36 183.029 130.037 182.795C126.295 183.216 122.508 182.984 118.845 182.109C118.736 182.09 118.634 182.047 118.545 181.982C118.456 181.916 118.383 181.831 118.333 181.733C118.267 181.609 118.236 181.47 118.241 181.329C118.246 181.189 118.288 181.052 118.363 180.933C118.436 180.826 118.536 180.739 118.653 180.682C118.77 180.625 118.899 180.599 119.029 180.607C121.355 180.727 123.696 180.87 126.029 181.027C131.788 180.768 137.465 179.179 143.009 177.627C145.131 177.033 147.327 176.42 149.489 175.89L149.812 175.816C153.646 174.783 157.584 174.187 161.551 174.04M175.462 184.789C175.079 179.682 170.104 175.874 165.348 175.18C160.106 174.309 154.967 175.488 149.999 176.631L149.681 176.703C147.539 177.226 145.35 177.838 143.233 178.432C139.179 179.655 135.056 180.636 130.886 181.372C131.647 181.427 132.408 181.482 133.164 181.539C137.172 180.805 141.139 179.86 145.047 178.708C146.666 178.262 148.271 177.82 149.863 177.414C154.905 176.182 160.11 174.909 165.238 175.722C169.875 176.337 174.609 179.822 175.106 184.729C175.223 184.749 175.342 184.772 175.459 184.796M174.242 184.57C173.637 180.252 169.254 177.098 165.117 176.55C160.145 175.757 155.017 177.012 150.067 178.226C148.485 178.626 146.883 179.072 145.267 179.515C142.332 180.324 139.367 181.142 136.374 181.781C139.993 182.054 143.61 182.324 147.228 182.56C149.979 182.744 152.79 182.86 155.511 182.968C161.782 183.082 168.039 183.616 174.238 184.568M174.307 185.428C168.075 184.457 161.784 183.913 155.478 183.801C155.386 183.801 155.294 183.794 155.202 183.789C157.254 183.918 159.286 184.033 161.277 184.128C165.65 184.4 170.001 184.941 174.307 185.748C174.307 185.641 174.307 185.537 174.307 185.43M175.307 185.952C175.343 185.951 175.378 185.939 175.407 185.917C175.425 185.903 175.44 185.885 175.451 185.865C175.461 185.845 175.468 185.823 175.469 185.8C175.469 185.768 175.469 185.736 175.469 185.706L175.181 185.928L175.271 185.948H175.304" fill="white"/>
<path d="M92.344 171.036C98.4897 175.035 104.149 179.735 109.208 185.042C112.537 188.557 115.561 192.42 119.35 195.432C125.129 199.991 132.363 202.132 137.557 207.701L136.278 208.173C136.362 202.253 132.408 197.014 127.686 193.748C122.775 190.398 116.898 188.683 111.117 186.848C111.036 186.82 110.968 186.762 110.928 186.686C110.888 186.61 110.877 186.521 110.9 186.438C110.922 186.355 110.975 186.283 111.048 186.237C111.121 186.191 111.208 186.175 111.293 186.191C122.77 188.176 137.805 194.423 137.744 208.214C137.739 208.36 137.69 208.501 137.605 208.62C137.519 208.738 137.4 208.829 137.263 208.879C137.126 208.93 136.977 208.939 136.835 208.905C136.693 208.87 136.564 208.795 136.465 208.687C131.701 203.306 124.291 200.809 118.736 196.192C113.184 191.392 109.086 185.192 103.51 180.436C99.9236 177.17 96.0635 174.218 91.972 171.612C91.609 171.391 91.96 170.783 92.34 171.04" fill="white"/>
<path d="M92.1511 170.558C92.3011 170.559 92.4474 170.605 92.5711 170.69C98.7442 174.707 104.429 179.428 109.511 184.759C109.901 185.17 110.285 185.585 110.67 186.005C110.759 185.906 110.873 185.833 111 185.794C111.127 185.755 111.262 185.751 111.391 185.783C117.608 186.858 137.837 191.614 138.159 207.736L138.289 207.878L138.16 207.925C138.16 208.025 138.16 208.119 138.16 208.214C138.154 208.446 138.079 208.671 137.944 208.86C137.808 209.048 137.619 209.192 137.401 209.271C137.183 209.351 136.946 209.363 136.721 209.306C136.496 209.249 136.294 209.125 136.14 208.951C136.078 208.881 136.016 208.811 135.954 208.742L135.851 208.778V208.628C133.172 205.735 129.614 203.641 126.169 201.615C123.47 200.123 120.895 198.416 118.469 196.51C115.771 194.069 113.242 191.447 110.899 188.664C108.536 185.848 105.976 183.204 103.238 180.751C99.6666 177.5 95.8236 174.56 91.7511 171.963C91.6402 171.896 91.5496 171.801 91.4887 171.686C91.4277 171.572 91.3989 171.443 91.4051 171.314C91.411 171.173 91.454 171.036 91.5296 170.916C91.6052 170.797 91.7109 170.699 91.8361 170.633C91.935 170.583 92.0443 170.558 92.1551 170.558M92.1981 171.258L92.3421 171.039L92.1951 171.255M92.1951 171.255L92.1061 171.384L92.1131 171.389L92.1951 171.255ZM137.278 206.812C136.266 192.974 119.427 188.212 112.447 186.827L112.507 186.845C117.821 188.526 123.315 190.263 127.918 193.404C132.786 196.769 135.905 201.409 136.563 206.13C136.806 206.353 137.045 206.58 137.278 206.812ZM135.56 205.252C134.66 201.108 131.772 197.085 127.445 194.093C122.945 191.023 117.512 189.305 112.256 187.643L112.107 187.596L112.338 187.85C114.555 190.466 116.986 192.893 119.607 195.104C122.019 196.903 124.57 198.508 127.236 199.904C130.17 201.426 132.956 203.216 135.56 205.252ZM135.774 206.541C133.022 204.245 130.022 202.264 126.829 200.635C124.123 199.218 121.535 197.588 119.088 195.76C117.778 194.704 116.534 193.569 115.364 192.36C116.53 193.582 117.735 194.77 119.008 195.87C121.398 197.744 123.934 199.423 126.592 200.893C129.937 202.678 133.047 204.871 135.851 207.422C135.838 207.129 135.814 206.837 135.779 206.542M136.817 207.532C136.772 207.489 136.73 207.443 136.685 207.402C136.685 207.461 136.69 207.517 136.693 207.576L136.817 207.532ZM136.996 208.509C137.038 208.509 137.079 208.501 137.118 208.486C137.174 208.469 137.224 208.436 137.261 208.391C137.299 208.346 137.322 208.291 137.329 208.233L136.802 208.433C136.827 208.459 136.858 208.479 136.891 208.493C136.924 208.507 136.96 208.513 136.996 208.513" fill="white"/>
<path d="M73.467 170.175C83.4122 172.048 93.675 171.276 103.228 167.936C113.054 165.376 122.303 161.575 130.238 155.118L130.455 156.345C126.943 155.442 123.275 155.316 119.709 155.977C116.143 156.637 112.764 158.067 109.808 160.168C103.862 164.31 98.55 171.088 90.691 171.541C90.6049 171.541 90.5222 171.507 90.4596 171.448C90.397 171.389 90.3592 171.309 90.3537 171.223C90.3483 171.137 90.3756 171.052 90.4302 170.985C90.4849 170.919 90.5627 170.875 90.648 170.864C98.113 169.732 102.948 163.093 108.889 158.891C112.021 156.641 115.618 155.125 119.415 154.454C123.212 153.782 127.112 153.974 130.825 155.013C130.95 155.049 131.063 155.119 131.15 155.216C131.237 155.312 131.295 155.432 131.318 155.56C131.34 155.688 131.327 155.82 131.278 155.94C131.229 156.061 131.147 156.166 131.042 156.242C123.01 162.542 113.305 166.342 103.435 168.673C98.5818 170.172 93.5981 171.21 88.55 171.773C83.45 172.188 78.376 171.497 73.374 170.85C73.2846 170.838 73.2038 170.791 73.1492 170.719C73.0946 170.647 73.0708 170.556 73.083 170.467C73.0952 170.378 73.1424 170.297 73.2143 170.242C73.2861 170.188 73.3766 170.164 73.466 170.176" fill="white"/>
<path d="M123.989 153.645C126.148 153.641 128.299 153.913 130.389 154.456L130.529 154.342L130.557 154.499C130.686 154.534 130.815 154.569 130.943 154.608C131.146 154.663 131.329 154.775 131.469 154.931C131.61 155.088 131.702 155.281 131.734 155.489C131.776 155.697 131.754 155.913 131.673 156.109C131.591 156.305 131.453 156.472 131.276 156.589C131.176 156.669 131.076 156.75 130.97 156.828L130.985 156.915L130.885 156.89C123.763 162.363 114.556 166.47 103.531 169.077L103.37 169.122C100.17 169.998 96.9 170.895 93.57 171.512C92.6656 171.745 91.7412 171.893 90.809 171.952C90.0717 172.049 89.3304 172.127 88.585 172.188C83.6259 172.419 78.6562 172.127 73.758 171.318L73.322 171.263C73.1925 171.248 73.0696 171.198 72.966 171.119C72.8624 171.04 72.7819 170.934 72.733 170.813C72.68 170.685 72.6613 170.545 72.6789 170.407C72.6964 170.269 72.7495 170.138 72.833 170.027C72.9119 169.922 73.0186 169.842 73.1409 169.795C73.2633 169.748 73.3963 169.736 73.525 169.761H73.542C79.5042 170.917 85.6162 171.082 91.632 170.249C96.199 169.201 99.858 165.975 103.401 162.849C105.071 161.323 106.821 159.885 108.642 158.543C113.117 155.343 118.484 153.629 123.985 153.643M129.567 155.115C126.063 154.321 122.432 154.276 118.91 154.984C115.388 155.693 112.055 157.137 109.131 159.224C107.332 160.549 105.604 161.969 103.955 163.476C101.537 165.785 98.8564 167.802 95.968 169.486C96.329 169.409 96.694 169.329 97.057 169.244C99.8151 167.652 102.396 165.771 104.757 163.634C106.319 162.32 107.934 160.962 109.57 159.821C112.351 157.838 115.506 156.44 118.843 155.71C122.18 154.981 125.63 154.936 128.985 155.577L129.57 155.115M130.801 155.898C130.842 155.869 130.874 155.828 130.893 155.781C130.911 155.733 130.916 155.682 130.906 155.632C130.901 155.582 130.881 155.535 130.849 155.497C130.817 155.458 130.775 155.43 130.727 155.415H130.715L130.801 155.898ZM128.079 156.264C121.747 155.261 115.275 156.783 110.054 160.503C108.444 161.623 106.915 162.913 105.295 164.274C103.565 165.784 101.756 167.202 99.877 168.521C100.947 168.222 102.02 167.892 103.096 167.533C113.374 164.857 121.377 161.254 128.079 156.264ZM129.857 156.62C129.636 156.568 129.414 156.52 129.195 156.471C122.989 161.222 115.695 164.759 106.555 167.444C115.781 164.929 123.6 161.297 129.855 156.62" fill="white"/>
<path d="M41.6491 167.584C45.7952 168.705 49.7998 170.296 53.5851 172.326C61.0531 176.682 65.4761 184.626 72.5571 189.388C75.997 191.809 79.8068 193.657 83.8381 194.858L83.1561 196.058C80.6791 193.826 80.5061 190.366 79.6561 187.474C78.7561 184.016 75.9051 181.394 72.7631 179.802C67.9441 177.902 62.6791 177.335 57.6441 176.053C57.5562 176.032 57.4802 175.977 57.4328 175.9C57.3853 175.824 57.3703 175.731 57.3911 175.643C57.4123 175.561 57.4627 175.49 57.5328 175.442C57.603 175.395 57.688 175.374 57.7721 175.385C60.7441 175.763 63.7421 176.131 66.7181 176.669C69.7381 177.207 72.8901 177.793 75.4861 179.587C78.2392 181.276 80.2578 183.937 81.1421 187.043C81.9831 190.018 82.1301 193.16 84.1191 195.03C86.0621 199.03 72.6191 191.15 71.9131 190.281C64.8981 185.301 60.6741 177.259 53.2471 172.905C49.5284 170.859 45.566 169.291 41.454 168.239C41.039 168.13 41.2121 167.445 41.6461 167.587" fill="white"/>
<path d="M41.536 167.148C41.6171 167.148 41.6977 167.161 41.775 167.185C45.9509 168.314 49.9839 169.918 53.795 171.964C55.2844 172.846 56.6929 173.857 58.004 174.987L58.462 175.046C61.194 175.392 64.019 175.752 66.795 176.253C69.71 176.773 73.011 177.363 75.726 179.238C78.5677 180.98 80.6474 183.729 81.549 186.938C81.765 187.701 81.935 188.485 82.102 189.244C82.552 191.293 82.978 193.234 84.219 194.538L84.463 194.612L84.401 194.719L84.49 194.841C84.942 195.767 84.661 196.201 84.348 196.4C82.497 197.589 72.684 191.494 71.657 190.609C68.5144 188.198 65.6486 185.446 63.112 182.403C60.102 179.048 56.99 175.58 53.035 173.261C49.343 171.238 45.4125 169.684 41.335 168.636C41.21 168.603 41.0962 168.538 41.0055 168.445C40.9149 168.353 40.8508 168.239 40.82 168.113C40.7854 167.975 40.7881 167.831 40.8278 167.694C40.8675 167.558 40.9428 167.435 41.046 167.337C41.1779 167.215 41.3512 167.147 41.531 167.148M41.568 167.834L41.643 167.583L41.563 167.832H41.568M41.568 167.832H41.563L41.513 167.981H41.523L41.568 167.832ZM82.84 194.106C82.0658 192.64 81.539 191.055 81.281 189.417C81.115 188.666 80.948 187.902 80.736 187.151C79.887 184.14 77.9304 181.562 75.259 179.934C72.68 178.151 69.471 177.578 66.642 177.073C64.142 176.623 61.594 176.287 59.112 175.973C60.421 176.273 61.746 176.543 63.038 176.802C66.3985 177.382 69.702 178.253 72.911 179.407C75.111 180.521 78.919 183.012 80.053 187.362C80.253 188.046 80.419 188.773 80.586 189.511C80.858 190.993 81.3167 192.435 81.951 193.802C82.245 193.907 82.54 194.009 82.837 194.108M80.829 193.381C80.3746 192.184 80.021 190.951 79.772 189.695C79.608 188.976 79.448 188.265 79.247 187.585C78.476 184.628 76.047 181.931 72.568 180.169C69.4141 179.042 66.1687 178.19 62.868 177.622C62.019 177.451 61.152 177.276 60.288 177.092C61.596 178.368 62.84 179.701 64.067 181.015C66.6587 184.01 69.5809 186.702 72.778 189.04C75.2792 190.8 77.9805 192.257 80.825 193.381M81.358 194.481C78.1459 193.299 75.1021 191.701 72.304 189.73C69.4155 187.659 66.768 185.271 64.411 182.61C66.7126 185.328 69.3054 187.786 72.143 189.938L72.225 190.017C72.86 190.761 78.695 194.067 81.892 195.301C81.6971 195.039 81.5185 194.766 81.357 194.482M83.201 195.107C83.024 195.052 82.846 194.997 82.669 194.938C82.788 195.09 82.913 195.238 83.047 195.379C83.097 195.289 83.147 195.197 83.201 195.106M83.887 195.698C83.887 195.698 83.887 195.67 83.875 195.611C83.85 195.658 83.825 195.7 83.801 195.738C83.8316 195.73 83.8604 195.717 83.886 195.698" fill="white"/>
<path d="M37.026 167.648C45.237 167.355 53.563 166.013 60.944 162.379C64.626 160.566 67.857 157.999 71.215 155.565C74.556 153.139 78.153 150.781 82.33 149.709L82.011 150.831C77.361 146.259 69.364 147.51 65.519 152.547C63.305 155.024 62.83 158.616 60.397 161.04C57.966 163.593 54.832 165.048 51.797 166.361C51.7171 166.395 51.6272 166.397 51.5459 166.367C51.4645 166.336 51.3979 166.276 51.3595 166.198C51.3211 166.12 51.314 166.031 51.3396 165.948C51.3652 165.865 51.4215 165.795 51.497 165.752C54.368 164.127 57.305 162.52 59.378 160.127C61.565 157.65 62.052 154.097 64.286 151.537C68.602 145.858 77.828 144.517 82.957 149.888C83.02 149.95 83.07 150.024 83.1041 150.106C83.1382 150.187 83.1558 150.275 83.1558 150.363C83.1558 150.451 83.1382 150.539 83.1041 150.621C83.07 150.702 83.02 150.776 82.957 150.838C74.815 152.897 68.805 159.5 61.27 163.049C53.738 166.706 45.329 167.914 37.053 168.328C36.9649 168.329 36.8801 168.295 36.8163 168.234C36.7526 168.173 36.7149 168.09 36.7113 168.002C36.7077 167.914 36.7383 167.828 36.7969 167.762C36.8554 167.696 36.9372 167.656 37.025 167.649" fill="white"/>
<path d="M74.737 146.075C77.7249 146.026 80.6172 147.128 82.814 149.154L82.931 149.124L82.901 149.236C83.025 149.353 83.145 149.477 83.266 149.601C83.4679 149.807 83.5798 150.084 83.5774 150.372C83.575 150.66 83.4583 150.936 83.253 151.138L83.171 151.217L83.062 151.244C82.796 151.311 82.532 151.384 82.269 151.461L82.222 151.625L82.105 151.51C77.739 152.834 73.896 155.495 70.172 158.074C67.4167 160.095 64.4999 161.885 61.451 163.428C54.946 166.587 47.428 168.228 37.075 168.747C36.9453 168.754 36.8161 168.727 36.7003 168.668C36.5846 168.609 36.4865 168.52 36.416 168.411C36.3411 168.294 36.2981 168.158 36.2914 168.019C36.2848 167.88 36.3146 167.741 36.378 167.617C36.4397 167.502 36.5311 167.405 36.6428 167.338C36.7546 167.27 36.8824 167.233 37.013 167.232C41.8218 167.106 46.6052 166.489 51.289 165.393L51.633 165.199C54.333 163.676 57.121 162.099 59.066 159.858C60.0624 158.604 60.8601 157.204 61.431 155.707C62.0492 154.107 62.9063 152.61 63.973 151.266C65.1739 149.743 66.6865 148.494 68.4094 147.603C70.1324 146.712 72.0259 146.199 73.963 146.1C74.221 146.085 74.48 146.078 74.736 146.078M81.836 149.411C79.6423 147.609 76.8388 146.722 74.008 146.934C72.1872 147.027 70.4073 147.509 68.788 148.346C67.1687 149.184 65.7475 150.359 64.62 151.792C63.603 153.081 62.7852 154.515 62.194 156.046C61.5887 157.619 60.7456 159.09 59.694 160.407C58.1952 162.028 56.453 163.405 54.53 164.489C54.818 164.399 55.104 164.307 55.386 164.21C57.1296 163.319 58.7186 162.153 60.092 160.757C61.2334 159.478 62.1381 158.005 62.764 156.409C63.3666 154.916 64.1891 153.52 65.204 152.27C66.2673 150.923 67.6003 149.814 69.1174 149.012C70.6345 148.211 72.3024 147.735 74.014 147.616C76.5702 147.399 79.1199 148.102 81.203 149.599C81.414 149.534 81.626 149.472 81.838 149.412M80.211 149.932C78.381 148.782 76.2252 148.262 74.072 148.45C72.4734 148.562 70.9158 149.007 69.4994 149.756C68.083 150.506 66.8393 151.544 65.848 152.803C64.8806 153.999 64.0976 155.333 63.525 156.76C62.8634 158.445 61.9034 159.996 60.691 161.34C60.2098 161.846 59.6953 162.32 59.151 162.758C59.6964 162.517 60.2327 162.268 60.76 162.009C63.7485 160.422 66.5912 158.574 69.255 156.487C69.8237 156.067 70.395 155.648 70.969 155.231C73.7866 153.041 76.8976 151.258 80.211 149.932ZM82.716 150.471C82.7378 150.425 82.7448 150.373 82.7363 150.322C82.7277 150.272 82.7039 150.225 82.668 150.188L82.64 150.158L82.54 150.519C82.6 150.502 82.66 150.486 82.721 150.471M81.421 150.851C81.299 150.739 81.172 150.632 81.043 150.528C77.5933 151.821 74.3619 153.635 71.461 155.906C70.889 156.321 70.321 156.74 69.752 157.159C68.22 158.288 66.662 159.44 65.038 160.498C66.632 159.511 68.178 158.439 69.697 157.388C73.353 154.858 77.118 152.251 81.421 150.851ZM37.036 167.909L37.026 167.648L37.034 167.909H37.036Z" fill="white"/>
<path d="M6.04106 172.35C15.4141 172.144 24.4641 175.914 31.8951 181.432C35.4847 184.293 39.2729 186.896 43.2311 189.221C47.1181 191.54 51.5202 192.857 56.0421 193.054L55.5591 194.354C53.1741 192.409 52.0341 189.623 50.7431 187.242C47.1141 178.924 37.2611 179.036 29.5841 180.442C29.4971 180.456 29.4082 180.435 29.3361 180.385C29.264 180.334 29.2143 180.258 29.1975 180.171C29.1806 180.085 29.198 179.995 29.2458 179.921C29.2937 179.847 29.3683 179.795 29.4541 179.775C36.0841 177.89 44.6601 177.163 49.7541 182.865C52.4901 185.975 53.4411 190.631 56.4911 193.226C56.6075 193.324 56.6909 193.455 56.7298 193.602C56.7687 193.749 56.7611 193.904 56.7082 194.046C56.6553 194.189 56.5596 194.311 56.4342 194.397C56.3089 194.483 56.16 194.528 56.0081 194.526C46.3511 194.126 38.5951 187.762 31.4081 182.073C24.2311 176.543 15.2261 172.74 6.06206 173.036C5.63706 173.068 5.58006 172.359 6.03906 172.357" fill="white"/>
<path d="M6.79202 171.922C16.009 171.922 23.927 175.591 29.576 179.298C36.038 177.498 44.765 176.644 50.066 182.577C51.2725 184.077 52.287 185.721 53.086 187.472C53.9091 189.375 55.0527 191.123 56.467 192.639H56.641L56.598 192.756C56.652 192.804 56.705 192.856 56.762 192.898C56.9451 193.053 57.0754 193.261 57.1348 193.493C57.1943 193.725 57.1799 193.97 57.0936 194.194C57.0074 194.417 56.8536 194.608 56.6537 194.741C56.4537 194.873 56.2176 194.939 55.978 194.931C55.916 194.931 55.854 194.926 55.791 194.923L55.748 195.04L55.591 194.913C46.258 194.37 38.564 188.268 31.763 182.875L31.151 182.39C23.317 176.353 14.462 173.146 6.07902 173.444C5.95085 173.456 5.82195 173.431 5.70714 173.373C5.59233 173.315 5.49628 173.225 5.43002 173.115C5.35317 172.995 5.30963 172.857 5.30383 172.714C5.29803 172.572 5.33019 172.43 5.39702 172.304C5.45946 172.189 5.55193 172.094 5.6645 172.028C5.77707 171.962 5.9055 171.928 6.03602 171.929C6.28902 171.924 6.54302 171.921 6.79402 171.921M6.04802 172.608L6.04102 172.347V172.61H6.04802M6.04802 172.61H6.04102V172.766H6.04902L6.04802 172.61ZM55.285 192.61C54.1074 191.154 53.1185 189.555 52.342 187.851C51.573 186.165 50.599 184.58 49.442 183.132C44.792 177.932 37.235 178.276 31.183 179.744C41.616 178.189 48.327 180.644 51.128 187.072C51.342 187.462 51.568 187.9 51.795 188.343C52.4976 189.829 53.354 191.236 54.35 192.543C54.664 192.575 54.974 192.598 55.285 192.612M53.185 192.396C52.3853 191.226 51.6727 189.999 51.053 188.725C50.829 188.289 50.607 187.857 50.379 187.439C47.74 181.397 41.357 179.096 31.411 180.556C31.664 180.737 31.911 180.916 32.15 181.094L32.491 181.353C35.9579 184.108 39.6154 186.614 43.436 188.853C46.4506 190.601 49.7514 191.801 53.185 192.396ZM53.927 193.338C50.0821 192.817 46.3779 191.542 43.027 189.586C39.5121 187.547 36.1448 185.264 32.95 182.753C39.48 187.927 46.258 193.112 54.532 193.99C54.32 193.779 54.116 193.562 53.923 193.338M55.445 193.455C55.355 193.455 55.261 193.447 55.169 193.442C55.238 193.509 55.306 193.574 55.376 193.642L55.445 193.455ZM56.099 194.095C56.1483 194.082 56.1936 194.057 56.231 194.022C56.2683 193.987 56.2964 193.943 56.313 193.895C56.3326 193.846 56.3403 193.794 56.3354 193.742C56.3305 193.69 56.3132 193.639 56.285 193.595L56.099 194.095Z" fill="white"/>
<path d="M-8.95597 176.458C8.23603 171.634 14.551 151.022 31.209 145.065C36.6714 142.917 42.5783 142.146 48.409 142.819L48.178 144.19C42.66 143.69 41.478 150.56 38.686 154.073C35.193 158.519 28.999 158.188 23.947 158.886C20.552 159.261 17.147 159.557 13.747 159.849C13.6599 159.856 13.5736 159.829 13.506 159.773C13.4384 159.718 13.3947 159.639 13.3839 159.552C13.3731 159.465 13.396 159.378 13.448 159.308C13.5 159.238 13.577 159.19 13.663 159.175C17.033 158.611 20.404 158.053 23.785 157.575C28.576 156.62 34.171 157.115 37.447 153.087C40.275 149.219 42.253 141.851 48.47 142.828C48.6367 142.875 48.7802 142.981 48.873 143.127C48.9658 143.273 49.0012 143.448 48.9725 143.619C48.9438 143.789 48.853 143.943 48.7176 144.051C48.5821 144.158 48.4117 144.212 48.239 144.201C42.6223 143.496 36.9183 144.153 31.609 146.117C14.909 151.771 8.37004 172.317 -8.81896 177.124C-8.90728 177.143 -8.9993 177.125 -9.07479 177.076C-9.15027 177.026 -9.20303 176.949 -9.22146 176.861C-9.23989 176.772 -9.22249 176.68 -9.17307 176.605C-9.12366 176.529 -9.04628 176.477 -8.95796 176.458" fill="white"/>
<path d="M44.309 142.167C45.4844 142.167 46.66 142.224 47.836 142.338C48.036 142.351 48.236 142.373 48.443 142.402H48.461L48.897 142.454L48.882 142.546C49.0855 142.663 49.247 142.841 49.3436 143.055C49.4402 143.268 49.4669 143.507 49.42 143.737C49.3728 143.952 49.2642 144.148 49.1074 144.301C48.9506 144.455 48.7524 144.56 48.537 144.603L48.53 144.641L48.33 144.624C48.266 144.616 48.241 144.624 48.195 144.616L48.08 144.601C44.525 144.332 42.914 147.377 41.239 150.611C40.6163 151.918 39.8734 153.163 39.02 154.332C36.062 158.1 31.182 158.569 26.876 158.984C25.899 159.084 24.936 159.173 24.013 159.3C20.465 159.691 16.762 160.011 13.787 160.265C13.745 160.265 13.707 160.265 13.668 160.265C13.223 160.75 12.783 161.235 12.342 161.72C6.38704 168.26 0.228042 175.02 -8.70096 177.52C-8.83158 177.552 -8.9684 177.548 -9.09715 177.51C-9.22589 177.471 -9.34186 177.398 -9.43296 177.299C-9.52574 177.195 -9.58985 177.069 -9.61896 176.933C-9.64807 176.797 -9.64118 176.656 -9.59896 176.523C-9.55865 176.402 -9.48667 176.294 -9.39048 176.21C-9.29429 176.126 -9.17741 176.07 -9.05196 176.046C-0.305964 173.586 5.73404 166.822 11.573 160.28C17.145 154.038 22.907 147.58 31.073 144.665C35.29 143.005 39.7821 142.154 44.314 142.158M44.514 142.994H44.314C39.5995 143 34.933 143.941 30.5854 145.765C26.2378 147.589 22.2958 150.258 18.988 153.617C22.5407 150.127 26.7981 147.436 31.475 145.724C35.3824 144.279 39.5122 143.529 43.678 143.506C43.9417 143.318 44.2188 143.149 44.507 143.001M47.719 143.167C46.9102 143.109 46.0989 143.236 45.346 143.537C46.1754 143.574 47.0044 143.638 47.833 143.731L47.923 143.186C47.854 143.179 47.788 143.173 47.723 143.168M45.079 144.368C44.7044 144.356 44.3287 144.349 43.952 144.348C42.23 145.664 40.987 147.893 39.768 150.075C39.1719 151.201 38.5097 152.291 37.785 153.339C35.185 156.539 31.245 157.01 27.432 157.469C26.245 157.611 25.017 157.76 23.868 157.989C21.179 158.37 18.595 158.789 15.686 159.267C18.238 159.046 21.124 158.782 23.905 158.476C24.83 158.349 25.805 158.254 26.791 158.158C31.13 157.74 35.62 157.309 38.361 153.82C39.1799 152.692 39.8929 151.49 40.491 150.231C41.663 147.968 42.946 145.49 45.078 144.366M15.324 158.478C18.331 157.978 20.981 157.553 23.724 157.165C24.883 156.933 26.124 156.782 27.329 156.637C31.143 156.179 34.745 155.744 37.117 152.826C37.8173 151.811 38.4577 150.757 39.035 149.667C39.9914 147.741 41.2111 145.957 42.659 144.367C38.931 144.496 35.2476 145.222 31.749 146.516C25.124 148.757 20.033 153.461 15.321 158.479M-8.91096 176.72L-8.95896 176.464L-8.87996 176.875L-8.91096 176.72Z" fill="white"/>
<path d="M165.367 204.517C172.796 224.973 183.075 244.278 195.9 261.86C197.158 263.589 198.494 265.405 200.4 266.139C202.306 266.893 204.443 265.948 205.955 264.559C209.119 261.743 210.373 257.266 210.234 253.072C210.095 248.796 208.712 244.656 207.328 240.549C207.305 240.481 207.296 240.41 207.301 240.338C207.305 240.266 207.324 240.197 207.356 240.132C207.388 240.068 207.432 240.011 207.486 239.963C207.54 239.916 207.603 239.88 207.671 239.857C215.363 241.196 226.295 241.976 229.228 232.934C230.895 223.922 220.357 219.62 213.628 216.488C205.877 213.06 197.829 210.346 189.585 208.379C181.321 206.416 172.936 205.002 164.485 204.147C164.405 204.14 164.332 204.1 164.282 204.039C164.231 203.977 164.207 203.897 164.215 203.818C164.222 203.738 164.261 203.665 164.323 203.614C164.385 203.564 164.464 203.54 164.544 203.547C168.786 203.923 173.044 204.238 177.27 204.847C190.002 206.563 202.432 210.05 214.198 215.207C219.91 217.878 226.532 220.672 229.685 226.617C233.285 233.291 227.344 240.405 220.648 241.488C216.295 242.363 211.929 241.633 207.757 240.926L208.367 240.212C211.175 248.122 213.656 258.734 206.518 265.212C204.851 266.729 202.356 267.796 200.118 266.894C197.88 265.992 196.559 264.036 195.304 262.3C192.747 258.77 190.332 255.141 187.961 251.486C178.523 236.809 170.754 221.124 164.796 204.723C164.769 204.648 164.772 204.565 164.807 204.492C164.841 204.419 164.902 204.363 164.978 204.336C165.053 204.309 165.136 204.312 165.209 204.346C165.282 204.38 165.338 204.442 165.365 204.517" fill="white"/>
<path d="M164.518 203.124C164.538 203.124 164.558 203.124 164.575 203.124L166.784 203.315C170.242 203.615 173.819 203.922 177.327 204.424C190.097 206.146 202.564 209.645 214.365 214.818L215.392 215.296C220.843 217.826 227.021 220.696 230.052 226.415C230.775 227.729 231.163 229.201 231.183 230.701C231.203 232.2 230.854 233.682 230.167 235.015C229.23 236.815 227.889 238.373 226.248 239.568C224.608 240.762 222.713 241.559 220.712 241.898C216.917 242.484 213.047 242.382 209.287 241.598C211.802 249.157 213.767 259.185 206.795 265.513C205.129 267.023 202.462 268.281 199.957 267.271C197.728 266.371 196.352 264.465 195.139 262.784L194.962 262.537C192.209 258.737 189.699 254.928 187.608 251.704C178.155 237.004 170.372 221.294 164.404 204.867C164.367 204.766 164.352 204.658 164.362 204.551C164.189 204.512 164.037 204.41 163.934 204.266C163.831 204.122 163.785 203.945 163.804 203.769C163.824 203.592 163.907 203.43 164.039 203.311C164.17 203.192 164.341 203.125 164.518 203.124ZM216.369 241.468C217.779 241.475 219.186 241.341 220.569 241.068C222.441 240.754 224.215 240.011 225.751 238.896C227.288 237.781 228.545 236.325 229.423 234.642C230.056 233.43 230.379 232.08 230.361 230.712C230.344 229.345 229.987 228.003 229.323 226.808C226.423 221.335 220.38 218.529 215.047 216.052L214.027 215.577C202.298 210.438 189.909 206.963 177.218 205.251C175.3 204.977 173.357 204.761 171.425 204.572C177.569 205.378 183.666 206.513 189.688 207.972C197.954 209.947 206.023 212.67 213.795 216.106L214.909 216.619C221.817 219.803 231.275 224.159 229.641 233.01C226.516 242.647 214.441 241.385 208.914 240.492C208.937 240.562 208.961 240.632 208.986 240.703C211.423 241.16 213.893 241.415 216.372 241.467M215.872 240.267C221.538 240.267 226.929 238.685 228.834 232.809C230.341 224.652 221.22 220.451 214.563 217.383L213.453 216.871C205.727 213.457 197.706 210.752 189.49 208.791C181.719 206.931 173.836 205.574 165.89 204.729C173.289 225.019 183.504 244.168 196.235 261.614C197.407 263.226 198.735 265.052 200.548 265.749C202.348 266.461 204.372 265.443 205.67 264.249C208.458 261.764 209.97 257.697 209.814 253.083C209.68 249.016 208.404 245.061 207.114 241.23L206.96 241.203L207.06 241.081L206.923 240.681C206.842 240.438 206.86 240.173 206.974 239.944C207.088 239.715 207.288 239.54 207.53 239.457L207.63 239.425L207.735 239.443C207.942 239.478 208.153 239.515 208.365 239.548L208.512 239.377L208.586 239.586C210.989 240.002 213.421 240.227 215.86 240.258M208.348 241.44C208.248 241.422 208.148 241.405 208.048 241.388C209.476 245.13 210.352 249.061 210.648 253.055C210.809 257.916 209.198 262.222 206.227 264.866C205.826 265.238 205.391 265.571 204.927 265.861C205.394 265.58 205.832 265.254 206.236 264.888C212.982 258.768 210.858 248.816 208.355 241.44" fill="white"/>
<path d="M185.069 245.749C185.193 249.423 185.499 253.363 183.649 256.722C182.211 259.138 179.049 260.973 176.249 259.754C175.461 259.33 174.63 258.992 173.769 258.746C172.916 258.69 172.075 258.97 171.426 259.527C166.66 262.42 162.073 257.249 160.632 253.049C156.864 244.422 157.348 234.643 158.425 225.571C159.283 218.295 160.318 210.526 164.825 204.451C164.848 204.418 164.876 204.39 164.91 204.369C164.943 204.347 164.981 204.332 165.02 204.325C165.059 204.317 165.099 204.318 165.138 204.326C165.177 204.335 165.214 204.351 165.247 204.373C165.28 204.396 165.308 204.425 165.33 204.458C165.351 204.491 165.366 204.529 165.373 204.568C165.381 204.607 165.38 204.647 165.372 204.686C165.364 204.725 165.348 204.762 165.325 204.795C161.504 211.134 160.686 218.511 159.83 225.741C158.959 232.957 158.338 240.351 159.899 247.497C161.026 252.589 164.32 262.117 171.093 258.972C171.874 258.339 172.87 258.033 173.871 258.119C174.781 258.373 175.659 258.73 176.488 259.183C181.264 260.929 184.588 255.516 184.511 251.263C184.621 249.44 184.605 247.611 184.463 245.79C184.46 245.751 184.466 245.711 184.478 245.674C184.491 245.636 184.511 245.602 184.537 245.572C184.563 245.542 184.594 245.518 184.63 245.501C184.665 245.483 184.704 245.473 184.743 245.47C184.782 245.467 184.822 245.473 184.859 245.485C184.897 245.498 184.931 245.518 184.961 245.544C184.991 245.57 185.015 245.601 185.033 245.637C185.05 245.672 185.06 245.711 185.063 245.75" fill="white"/>
<path d="M165.079 203.907C165.23 203.907 165.378 203.955 165.5 204.044C165.648 204.155 165.749 204.317 165.782 204.499C165.815 204.681 165.777 204.869 165.677 205.024C161.977 211.163 161.122 218.409 160.292 225.415L160.247 225.79C159.447 232.44 158.722 240.144 160.309 247.405C160.924 250.184 162.759 256.845 166.516 258.705C167.207 259.032 167.965 259.192 168.729 259.173C169.493 259.154 170.242 258.956 170.916 258.595C171.775 257.909 172.87 257.59 173.963 257.709C174.639 257.857 175.289 258.102 175.894 258.436C176.15 258.565 176.401 258.69 176.655 258.794C177.351 259.067 178.104 259.159 178.845 259.062C179.586 258.964 180.291 258.681 180.892 258.237C181.915 257.391 182.734 256.325 183.29 255.119C183.845 253.913 184.121 252.598 184.099 251.27C184.211 249.453 184.196 247.63 184.054 245.815C184.04 245.694 184.06 245.571 184.111 245.46C184.162 245.349 184.242 245.254 184.343 245.185C184.455 245.11 184.585 245.065 184.72 245.056C184.855 245.046 184.99 245.073 185.111 245.132C185.223 245.188 185.318 245.273 185.385 245.379C185.452 245.485 185.489 245.607 185.491 245.732L185.521 246.555C185.651 250.073 185.787 253.711 184.021 256.921C182.469 259.53 179.083 261.438 176.091 260.135C175.798 260.013 175.509 259.872 175.228 259.735C174.753 259.47 174.242 259.275 173.711 259.155C173.067 259.025 172.48 259.355 171.659 259.876C170.917 260.358 170.073 260.659 169.193 260.754C168.314 260.849 167.425 260.736 166.597 260.423C163.545 259.316 161.209 255.988 160.246 253.181C156.44 244.469 156.925 234.735 158.019 225.521C158.807 218.85 159.787 210.551 164.501 204.198C164.557 204.122 164.627 204.058 164.708 204.009C164.788 203.96 164.878 203.928 164.971 203.914C165.009 203.908 165.047 203.905 165.085 203.906M163.283 256.898C161.112 253.958 159.96 249.698 159.494 247.585C157.879 240.194 158.609 232.408 159.419 225.685L159.462 225.312C160.196 219.103 160.954 212.705 163.679 206.978C160.358 212.792 159.529 219.827 158.843 225.615C157.764 234.715 157.281 244.315 161.02 252.876C161.537 254.336 162.303 255.695 163.283 256.894" fill="white"/>
<path d="M215.73 216.779C220.068 216.287 225.487 213.252 224.344 208.179C224.226 207.447 223.918 206.759 223.45 206.184C222.983 205.609 222.372 205.166 221.68 204.901C221.602 204.876 221.537 204.82 221.5 204.747C221.462 204.674 221.455 204.589 221.48 204.511C223.667 202.533 223.528 199.111 222.012 196.738C220.564 194.301 217.723 193.12 214.964 192.701C209.275 192.001 203.402 193.066 197.764 194.027C186.564 196.468 174.624 198.062 164.692 204.092C164.404 204.311 164.021 203.836 164.336 203.605C171.445 198.259 180.41 196.291 188.925 194.416C197.502 192.941 217.233 187.428 222.647 196.356C224.177 198.936 224.406 202.7 221.985 204.838L221.878 204.306C225.249 205.506 225.886 210.08 224.109 212.829C222.286 215.613 218.962 216.856 215.826 217.377C215.787 217.384 215.746 217.382 215.707 217.373C215.669 217.364 215.632 217.348 215.599 217.325C215.567 217.301 215.539 217.272 215.518 217.238C215.497 217.204 215.483 217.166 215.476 217.127C215.469 217.088 215.471 217.047 215.48 217.008C215.489 216.97 215.505 216.933 215.529 216.9C215.552 216.868 215.581 216.84 215.615 216.819C215.649 216.798 215.687 216.784 215.726 216.777" fill="white"/>
<path d="M210.021 190.937C215.643 190.937 220.605 192.178 223.006 196.137C224.454 198.584 224.815 202.025 222.986 204.379C224.008 205.04 224.768 206.036 225.138 207.195C225.457 208.162 225.561 209.187 225.444 210.199C225.327 211.21 224.991 212.184 224.459 213.053C222.845 215.518 219.964 217.11 215.894 217.789C215.77 217.809 215.643 217.797 215.526 217.753C215.409 217.709 215.305 217.635 215.225 217.538C215.144 217.435 215.092 217.314 215.072 217.184C215.052 217.055 215.066 216.923 215.113 216.801C215.159 216.686 215.234 216.585 215.332 216.509C215.429 216.432 215.545 216.383 215.668 216.366H215.683C218.034 216.097 221.383 214.931 223.094 212.527C223.537 211.922 223.841 211.227 223.986 210.491C224.131 209.755 224.113 208.996 223.933 208.268C223.837 207.675 223.606 207.112 223.258 206.623C222.91 206.134 222.454 205.731 221.926 205.445L221.717 205.629L221.657 205.329C221.622 205.316 221.588 205.304 221.552 205.292C221.461 205.264 221.377 205.218 221.304 205.157C221.23 205.096 221.171 205.021 221.127 204.936C221.037 204.766 221.018 204.567 221.075 204.383L221.11 204.273L221.195 204.196C221.262 204.136 221.327 204.074 221.389 204.01L221.319 203.661L221.613 203.761C223.238 201.835 222.896 198.898 221.655 196.955C220.055 194.255 216.737 193.386 214.899 193.106C209.486 192.44 203.857 193.406 198.417 194.332L197.832 194.432C195.937 194.845 194.004 195.238 192.063 195.632C182.732 197.523 173.083 199.48 164.908 204.445C164.815 204.51 164.706 204.55 164.592 204.56C164.479 204.571 164.365 204.552 164.261 204.505C164.139 204.452 164.032 204.368 163.952 204.262C163.872 204.156 163.82 204.03 163.803 203.898C163.789 203.777 163.808 203.654 163.858 203.542C163.908 203.43 163.987 203.334 164.086 203.263C171.25 197.875 180.161 195.912 188.786 194.014C190.01 193.8 191.366 193.529 192.861 193.23C197.936 192.213 204.321 190.936 210.025 190.936M216.667 192.623C209.96 190.66 199.814 192.69 193.027 194.051C191.522 194.351 190.159 194.625 188.999 194.824C181.28 196.524 173.354 198.269 166.725 202.461C174.525 198.336 183.347 196.548 191.902 194.814C193.84 194.421 195.772 194.03 197.678 193.614L198.283 193.514C203.783 192.574 209.469 191.606 215.019 192.285C215.575 192.369 216.125 192.483 216.668 192.628" fill="white"/>
<path d="M173.215 257.929C175.615 254.004 173.456 249.329 171.447 245.666C169.282 241.75 167.547 237.61 166.275 233.32C163.775 224.748 163.108 215.429 165.365 206.733C165.38 206.654 165.425 206.585 165.491 206.539C165.557 206.494 165.638 206.477 165.717 206.491C165.796 206.506 165.866 206.551 165.911 206.617C165.956 206.683 165.974 206.764 165.959 206.843C164.838 215.584 165.301 224.455 167.324 233.032C168.415 237.309 169.989 241.449 172.015 245.37C174.084 249.183 176.192 254.07 173.727 258.25C173.685 258.318 173.617 258.366 173.539 258.384C173.46 258.402 173.378 258.388 173.311 258.346C173.243 258.303 173.194 258.235 173.177 258.157C173.159 258.079 173.173 257.997 173.215 257.929Z" fill="white"/>
<path d="M165.653 206.096C165.702 206.095 165.752 206.1 165.8 206.109C165.978 206.14 166.138 206.239 166.245 206.385C166.352 206.531 166.398 206.713 166.374 206.892C165.307 216.646 165.754 225.163 167.732 232.929C168.814 237.175 170.376 241.283 172.388 245.175C174.513 249.095 176.629 254.153 174.088 258.461C174.02 258.566 173.928 258.653 173.818 258.713C173.709 258.774 173.586 258.806 173.461 258.807C173.329 258.801 173.201 258.762 173.09 258.691C172.978 258.621 172.886 258.523 172.824 258.407C172.769 258.297 172.743 258.175 172.75 258.052C172.757 257.929 172.796 257.81 172.864 257.707C175.05 254.132 173.299 249.907 171.085 245.868C168.903 241.926 167.157 237.757 165.876 233.437C163.154 224.093 162.836 214.822 164.961 206.629C165.001 206.476 165.092 206.341 165.217 206.245C165.343 206.149 165.497 206.098 165.655 206.099M169.026 239.732C168.2 237.574 167.498 235.37 166.921 233.132C164.992 225.08 164.468 216.756 165.371 208.525C163.764 216.731 164.214 225.207 166.68 233.196C167.333 235.418 168.117 237.599 169.026 239.728" fill="white"/>
<path d="M221.186 204.481C216.47 205.611 211.76 204.275 207.251 203.417C193.751 201.2 179.343 199.332 166.126 203.808C166.053 203.842 165.971 203.846 165.895 203.818C165.82 203.791 165.759 203.735 165.725 203.662C165.691 203.59 165.688 203.507 165.715 203.431C165.742 203.356 165.798 203.295 165.871 203.261C181.122 196.055 198.506 201.386 214.214 204.117C216.479 204.504 218.8 204.429 221.035 203.896C221.113 203.876 221.195 203.887 221.264 203.928C221.333 203.969 221.383 204.035 221.404 204.113C221.424 204.19 221.412 204.273 221.372 204.342C221.331 204.411 221.265 204.461 221.187 204.481" fill="white"/>
<path d="M183.477 199.216C191.177 199.216 199.032 200.761 206.746 202.278C209.234 202.768 211.808 203.273 214.283 203.704C216.489 204.083 218.748 204.011 220.925 203.493C221.042 203.456 221.168 203.452 221.287 203.481C221.406 203.511 221.515 203.573 221.602 203.66C221.699 203.755 221.768 203.874 221.803 204.005C221.838 204.136 221.838 204.274 221.802 204.404C221.767 204.525 221.7 204.633 221.608 204.718C221.516 204.804 221.403 204.862 221.28 204.887C217.18 205.865 213.133 205.037 209.216 204.236C208.53 204.096 207.848 203.955 207.171 203.826C193.613 201.6 179.276 199.798 166.26 204.201C166.092 204.268 165.905 204.266 165.738 204.196C165.571 204.125 165.439 203.992 165.37 203.825C165.287 203.66 165.273 203.468 165.331 203.293C165.388 203.117 165.513 202.971 165.678 202.887C171.261 200.345 177.345 199.09 183.478 199.215M201.125 202.043C189.898 199.958 178.525 198.593 168.033 202.775C178.694 199.705 190.063 200.459 201.125 202.043Z" fill="white"/>
<path d="M207.751 240.244C205.351 239.706 203.422 238.089 201.724 236.513C196.424 231.904 191.987 226.306 187.199 221.249C180.811 214.594 173.684 208.286 164.99 204.911C164.914 204.887 164.85 204.834 164.813 204.763C164.775 204.692 164.768 204.609 164.792 204.532C164.816 204.456 164.869 204.392 164.941 204.355C165.012 204.317 165.095 204.31 165.171 204.334C174.388 206.869 181.793 213.515 188.184 220.327C193.018 225.486 196.824 231.399 202.137 236.064C203.814 237.664 205.622 239.22 207.883 239.653C208.271 239.717 208.149 240.354 207.751 240.244Z" fill="white"/>
<path d="M165.083 203.902C165.151 203.903 165.218 203.913 165.283 203.932C174.89 206.574 182.405 213.557 188.483 220.041C190.399 222.086 192.175 224.277 193.896 226.392C196.466 229.746 199.314 232.877 202.409 235.752C204.028 237.295 205.779 238.826 207.956 239.244C208.079 239.264 208.194 239.317 208.289 239.397C208.383 239.478 208.454 239.583 208.493 239.701C208.537 239.829 208.545 239.967 208.518 240.1C208.491 240.232 208.429 240.355 208.338 240.456C208.252 240.547 208.143 240.613 208.022 240.646C207.902 240.68 207.775 240.68 207.654 240.647C205.114 240.073 203.116 238.368 201.443 236.816C197.908 233.606 194.576 230.18 191.467 226.556C189.979 224.89 188.44 223.17 186.895 221.538C181.43 215.842 173.982 208.849 164.838 205.3C164.682 205.239 164.552 205.127 164.47 204.981C164.388 204.835 164.359 204.666 164.387 204.501C164.416 204.337 164.5 204.187 164.627 204.077C164.753 203.968 164.913 203.905 165.08 203.9M196.465 230.81C195.365 229.521 194.298 228.21 193.248 226.919C191.539 224.812 189.771 222.635 187.875 220.611C182.38 214.753 175.711 208.482 167.398 205.479C175.671 209.293 182.428 215.679 187.498 220.957C189.052 222.599 190.598 224.325 192.087 225.995C193.515 227.595 194.968 229.219 196.465 230.809" fill="white"/>
</g>
</svg>
