<svg width="233" height="458" viewBox="0 0 233 458" fill="none" xmlns="http://www.w3.org/2000/svg">
<mask id="mask0_1_785" style="mask-type:luminance" maskUnits="userSpaceOnUse" x="0" y="0" width="268" height="458">
<path d="M267.936 0H0V457.2H267.936V0Z" fill="white"/>
</mask>
<g mask="url(#mask0_1_785)">
<path d="M258.904 248.228C227.355 218.972 194.813 189.243 174.153 150.84C158.929 122.54 149.639 90.657 128.38 66.024C121.535 57.8262 113.286 50.9118 104.019 45.604C103.867 45.5169 103.754 45.3743 103.703 45.206C103.653 45.0377 103.67 44.8566 103.75 44.7002C103.83 44.5439 103.967 44.4243 104.133 44.3663C104.298 44.3084 104.48 44.3165 104.64 44.389C114.563 48.989 123.203 56.066 130.523 64.136C152.559 88.602 161.571 120.993 176.323 149.699C196.131 188.171 228.197 218.362 259.829 247.224C259.902 247.283 259.962 247.356 260.005 247.438C260.049 247.521 260.075 247.612 260.082 247.705C260.089 247.798 260.076 247.892 260.045 247.98C260.015 248.068 259.966 248.149 259.903 248.218C259.839 248.287 259.762 248.342 259.677 248.379C259.591 248.417 259.499 248.437 259.406 248.437C259.312 248.438 259.22 248.419 259.134 248.383C259.048 248.346 258.97 248.292 258.906 248.224" fill="#212121"/>
<path d="M254.794 243.599C250.222 239.113 244.247 236.399 238.441 233.662C220.854 225.478 202.081 220.69 183.541 215.195C183.422 215.154 183.323 215.071 183.261 214.962C183.199 214.853 183.179 214.725 183.205 214.602C183.231 214.479 183.301 214.37 183.402 214.295C183.502 214.22 183.627 214.185 183.752 214.195C203.115 216.725 221.396 224.337 238.9 232.683C244.713 235.461 250.653 238.363 255.5 242.861C255.978 243.306 255.277 244.087 254.791 243.6" fill="#212121"/>
<path d="M211.027 202.001C178.449 187.876 143.784 180.083 109.487 171.426C109.37 171.385 109.272 171.303 109.21 171.195C109.149 171.087 109.129 170.961 109.153 170.839C109.177 170.718 109.245 170.609 109.343 170.533C109.441 170.457 109.563 170.419 109.687 170.426C136.077 174.187 161.619 182.394 186.599 191.477C194.95 194.466 203.186 197.758 211.415 201.06C212.015 201.292 211.658 202.28 211.025 202.004" fill="#212121"/>
<path d="M191.756 177.543C162.336 150.161 127.9 129.032 92.173 110.94C92.0573 110.879 91.969 110.777 91.9263 110.654C91.8836 110.53 91.8897 110.395 91.9434 110.276C91.9971 110.157 92.0942 110.063 92.215 110.013C92.3358 109.963 92.471 109.961 92.593 110.008C120.757 121.047 145.923 138.531 169.466 157.275C177.351 163.51 184.945 170.095 192.443 176.786C192.921 177.204 192.26 178.017 191.755 177.542" fill="#212121"/>
<path d="M226.924 217.678C212.024 180.098 202.155 139.578 204.309 98.934C204.32 98.8052 204.379 98.6851 204.474 98.5979C204.57 98.5107 204.695 98.4627 204.824 98.4636C204.953 98.4645 205.077 98.5141 205.172 98.6027C205.266 98.6912 205.323 98.812 205.332 98.941C206.607 129.189 209.324 159.524 217.841 188.694C220.657 198.404 224.005 207.952 227.869 217.294C227.894 217.356 227.907 217.423 227.907 217.49C227.907 217.557 227.893 217.623 227.867 217.685C227.841 217.747 227.804 217.803 227.756 217.85C227.708 217.898 227.652 217.935 227.59 217.961C227.527 217.986 227.461 217.999 227.394 217.999C227.327 217.998 227.26 217.985 227.198 217.959C227.137 217.933 227.08 217.895 227.033 217.847C226.986 217.8 226.948 217.743 226.923 217.681" fill="#212121"/>
<path d="M188.631 171.861C176.822 135.501 161.714 95.361 171.691 56.924C171.706 56.8583 171.733 56.7962 171.772 56.7411C171.81 56.686 171.859 56.6391 171.916 56.603C171.973 56.5668 172.036 56.5422 172.102 56.5306C172.168 56.5189 172.236 56.5204 172.302 56.535C172.368 56.5496 172.43 56.5769 172.485 56.6155C172.54 56.6541 172.587 56.7032 172.623 56.7599C172.659 56.8167 172.684 56.88 172.695 56.9462C172.707 57.0125 172.706 57.0803 172.691 57.146C167.984 86.133 172.64 115.623 180.607 143.629C183.352 153.001 186.349 162.301 189.599 171.529C189.621 171.592 189.63 171.66 189.626 171.727C189.622 171.794 189.604 171.859 189.575 171.92C189.545 171.98 189.504 172.034 189.454 172.078C189.404 172.123 189.345 172.157 189.282 172.179C189.218 172.2 189.151 172.209 189.084 172.205C189.017 172.201 188.951 172.184 188.891 172.154C188.831 172.125 188.777 172.084 188.732 172.033C188.688 171.983 188.653 171.924 188.631 171.861Z" fill="#212121"/>
<path d="M216.426 225.39C207.359 230.935 196.634 233.126 186.118 231.581C177.257 230.248 169.037 226.322 160.697 223.044C151.733 219.523 142.504 216.717 133.097 214.651C147.046 210.351 161.44 206.613 176.026 207.19C190.612 207.767 205.586 213.197 214.826 224.49" fill="#212121"/>
<path d="M216.694 225.821C207.155 231.595 195.858 233.748 184.864 231.887C174.038 229.944 164.196 224.604 153.855 221.268C146.992 218.946 139.997 217.036 132.906 215.548C132.707 215.506 132.528 215.399 132.396 215.244C132.265 215.089 132.189 214.894 132.18 214.691C132.172 214.488 132.231 214.287 132.349 214.122C132.467 213.956 132.637 213.834 132.832 213.776C146.78 209.322 161.244 205.438 176.06 205.993C190.714 206.575 206.167 212.174 215.232 224.171C215.313 224.277 215.349 224.41 215.333 224.542C215.318 224.674 215.252 224.794 215.149 224.878C215.046 224.962 214.914 225.003 214.782 224.992C214.649 224.981 214.526 224.918 214.439 224.818C199.563 208.263 175.201 205.942 154.478 210.206C147.356 211.608 140.313 213.385 133.378 215.529L133.304 213.757C140.431 215.391 147.453 217.449 154.334 219.922C161.244 222.322 167.834 225.508 174.634 227.979C188.073 233.354 203.82 232.788 216.167 224.956C216.705 224.59 217.296 225.491 216.703 225.826" fill="#212121"/>
<path d="M160.294 183.752C143.334 190.422 124.326 190.552 106.47 186.905C88.614 183.258 71.709 176.015 55.236 168.216C67.87 168.207 80.336 165.587 92.818 163.646C105.3 161.705 118.149 160.446 130.495 163.138C142.841 165.83 154.747 173.017 160.421 184.305" fill="#212121"/>
<path d="M160.481 184.226C125.25 197.762 87.2071 184.326 54.849 169.032C54.6684 168.942 54.5229 168.794 54.4356 168.612C54.3483 168.43 54.3241 168.224 54.3669 168.027C54.4097 167.83 54.517 167.652 54.6718 167.523C54.8267 167.393 55.0203 167.319 55.222 167.312C64.622 167.238 73.954 165.701 83.275 164.084C101.812 160.884 121.863 157.332 139.913 164.961C148.744 168.768 156.764 175.232 160.877 184.073C160.906 184.134 160.923 184.2 160.926 184.267C160.93 184.334 160.92 184.401 160.897 184.465C160.875 184.528 160.84 184.586 160.795 184.636C160.749 184.686 160.695 184.726 160.634 184.755C160.515 184.81 160.38 184.817 160.255 184.776C160.131 184.735 160.027 184.648 159.964 184.533C155.48 176.293 147.657 170.371 139.085 166.954C121.424 159.847 101.923 163.326 83.6381 166.268C74.2871 167.752 64.818 169.178 55.238 169.117L55.625 167.399C87.439 183.081 125.194 196.93 160.106 183.275C160.693 183.015 161.124 183.996 160.481 184.226Z" fill="#212121"/>
<path d="M166.463 155.61C141.663 149.696 111.499 141.33 91.4751 125.54C74.9181 112.484 63.525 93.922 47.675 80.015C60.8 89.257 77.3231 91.735 92.8221 95.915C107.967 99.996 122.753 105.992 135.475 115.166C148.197 124.34 161.636 140.752 166.936 155.516" fill="#212121"/>
<path d="M166.347 156.11C142.967 150.437 119.217 144.072 98.595 131.222C88.257 124.792 79.695 115.991 71.73 106.96C63.745 97.92 56.103 88.5601 47.077 80.7001C46.9083 80.5443 46.8045 80.3307 46.7862 80.1017C46.768 79.8728 46.8367 79.6455 46.9786 79.4649C47.1205 79.2844 47.3252 79.164 47.552 79.1277C47.7787 79.0914 48.0108 79.1419 48.202 79.2691C63.353 89.7281 82.568 91.323 99.864 96.785C117.509 102.203 134.764 110.701 147.555 124.334C156.008 133.316 163.328 143.613 167.42 155.334C167.442 155.398 167.452 155.465 167.448 155.532C167.444 155.599 167.427 155.665 167.398 155.725C167.368 155.786 167.327 155.84 167.277 155.885C167.227 155.93 167.169 155.964 167.105 155.986C166.978 156.027 166.84 156.019 166.72 155.962C166.599 155.905 166.505 155.804 166.456 155.68C164.198 150.036 161.259 144.689 157.705 139.758C143.974 119.264 122.531 106.01 99.192 98.9391C81.78 93.3191 62.492 91.5751 47.153 80.7611L48.274 79.3291C57.367 87.4391 64.929 96.929 72.786 106.029C80.648 115.088 88.93 123.984 99.176 130.3C119.642 143.078 143.317 149.445 166.576 155.111C166.709 155.142 166.823 155.225 166.895 155.341C166.966 155.457 166.989 155.597 166.958 155.73C166.926 155.862 166.843 155.977 166.727 156.048C166.611 156.12 166.472 156.142 166.339 156.111" fill="#212121"/>
<path d="M150.216 96.853C144.456 85.823 133.488 78.553 122.491 72.733C111.494 66.913 99.8061 61.901 90.6691 53.452C79.6431 43.26 72.9431 28.58 60.3831 20.354C69.3961 19.586 78.4351 21.377 87.1741 23.72C107.223 29.09 127.591 38.308 139.004 55.644C147.562 68.644 150.05 84.605 151.93 100.052" fill="#212121"/>
<path d="M149.762 97.089C140.026 78.867 119.062 72.619 102.324 62.633C93.6315 57.5281 86.0821 50.6898 80.145 42.543C74.014 34.719 68.157 26.45 59.907 21.08C59.7597 20.9791 59.6468 20.8354 59.5835 20.6684C59.5203 20.5013 59.5098 20.3189 59.5533 20.1457C59.5969 19.9725 59.6925 19.8168 59.8272 19.6996C59.962 19.5823 60.1294 19.5092 60.307 19.49C71.824 18.49 83.163 21.373 94.093 24.61C115.773 30.962 137.831 44.192 145.779 66.499C149.865 77.299 151.379 88.718 152.436 99.991C152.452 100.126 152.414 100.261 152.331 100.368C152.247 100.475 152.125 100.544 151.99 100.56C151.855 100.576 151.72 100.538 151.613 100.455C151.506 100.371 151.437 100.249 151.421 100.114C149.728 88.936 147.959 77.677 143.74 67.302C135.708 45.713 114.547 33.202 93.447 26.673C82.731 23.36 71.622 20.373 60.454 21.218L60.854 19.628C73.673 28.277 80.033 42.588 90.956 52.919C94.6005 56.2722 98.5959 59.2225 102.873 61.719C119.632 71.733 140.803 78.319 150.673 96.619C150.708 96.6788 150.73 96.7451 150.739 96.8138C150.747 96.8825 150.741 96.9522 150.722 97.0187C150.703 97.0852 150.67 97.147 150.627 97.2006C150.583 97.2542 150.528 97.2983 150.467 97.3303C150.406 97.3623 150.339 97.3815 150.27 97.3868C150.2 97.3921 150.131 97.3833 150.066 97.3611C150 97.3388 149.94 97.3035 149.888 97.2572C149.837 97.211 149.795 97.1548 149.766 97.092" fill="#212121"/>
<path d="M170.257 96.055C162.395 82.555 156.23 60.87 157.834 45.329C159.438 29.788 164.889 14.851 171.91 0.89502C177.961 11.6859 181.557 23.6788 182.442 36.0189C183.327 48.3589 181.479 60.7422 177.029 72.286C173.982 80.028 169.679 87.758 170.257 96.058" fill="#212121"/>
<path d="M169.816 96.312C161.838 81.681 156.882 65.087 157.091 48.333C158.132 31.563 163.75 15.463 171.109 0.492029C171.183 0.347994 171.294 0.226455 171.43 0.140195C171.567 0.0539345 171.725 0.00614184 171.887 0.00184376C172.048 -0.00245431 172.208 0.0369011 172.349 0.11577C172.491 0.19464 172.608 0.310107 172.689 0.450029C176.856 7.69462 179.911 15.5244 181.75 23.677C185.502 40.0906 184.177 57.2569 177.95 72.9C174.861 80.417 170.563 87.723 170.769 96.021C170.771 96.1521 170.723 96.279 170.635 96.3756C170.546 96.4722 170.424 96.5312 170.293 96.5405C170.162 96.5497 170.033 96.5085 169.932 96.4252C169.831 96.342 169.765 96.2231 169.749 96.093C168.849 87.611 173.079 79.735 175.939 72.103C181.736 56.801 183.004 40.1534 179.591 24.15C177.93 16.1658 175.078 8.47652 171.131 1.34003L172.712 1.29803C165.244 15.963 159.234 31.841 158.156 48.375C157.887 64.832 162.709 81.47 170.699 95.8C171.051 96.347 170.14 96.918 169.816 96.315" fill="#212121"/>
<path d="M211.061 157.377C199.618 139.627 194.814 118.405 197.497 97.457C199.429 82.785 205.018 68.692 205.955 53.921C217.312 64.357 223.108 79.901 223.955 95.301C224.802 110.701 221.113 126.039 215.855 140.541C213.675 146.555 211.199 152.577 210.655 158.951" fill="#212121"/>
<path d="M210.634 157.657C195.524 134.351 192.922 106.481 200.319 80.035C202.38 71.356 204.541 62.685 205.054 53.868C205.068 53.6299 205.176 53.4071 205.354 53.2484C205.532 53.0898 205.766 53.0084 206.004 53.022C213.542 58.937 218.497 68.049 221.648 77.005C227.794 95.051 225.369 114.793 219.677 132.582C217.006 141.458 212.39 149.782 211.177 158.998C211.162 159.131 211.096 159.252 210.993 159.337C210.89 159.421 210.758 159.463 210.625 159.451C210.492 159.44 210.369 159.378 210.282 159.277C210.194 159.176 210.149 159.045 210.157 158.912C210.746 149.462 215.195 140.925 217.614 131.945C222.877 114.445 225.335 95.334 219.546 77.699C216.85 68.9158 211.963 60.963 205.346 54.589L206.855 53.982C205.541 71.93 197.632 88.605 197.346 106.598C197.11 115.484 198.204 124.356 200.592 132.919C202.97 141.488 206.646 149.643 211.492 157.099C211.867 157.625 210.992 158.244 210.634 157.656" fill="#212121"/>
<path d="M258.803 307.238C236.459 329.417 213.721 352.291 185.012 366.207C163.727 376.522 140.27 382.261 121.583 397.09C115.379 401.854 110.077 407.689 105.926 414.319C105.862 414.42 105.762 414.493 105.646 414.523C105.53 414.552 105.407 414.536 105.303 414.477C105.199 414.418 105.121 414.321 105.086 414.207C105.051 414.093 105.061 413.969 105.115 413.862C108.929 406.814 114.111 400.597 120.357 395.576C138.89 380.241 162.986 374.563 184.294 364.699C198.533 358.059 211.623 349.099 223.712 339.009C235.783 328.872 247.042 317.792 258.145 306.581C258.188 306.538 258.24 306.504 258.296 306.48C258.352 306.457 258.413 306.445 258.474 306.445C258.535 306.445 258.596 306.457 258.652 306.48C258.709 306.504 258.76 306.538 258.803 306.581C258.846 306.624 258.881 306.676 258.904 306.732C258.927 306.788 258.939 306.849 258.939 306.91C258.939 306.971 258.927 307.032 258.904 307.088C258.881 307.145 258.846 307.195 258.803 307.238Z" fill="#212121"/>
<path d="M255.298 310.108C251.878 313.319 249.712 317.608 247.528 321.768C241.036 334.393 236.839 347.929 232.353 361.351C232.322 361.431 232.262 361.497 232.186 361.536C232.11 361.575 232.022 361.585 231.939 361.564C231.856 361.543 231.783 361.492 231.735 361.421C231.686 361.35 231.665 361.264 231.676 361.179C234.212 347.131 240.211 333.954 246.876 321.425C249.085 317.259 251.383 313.002 254.819 309.605C255.134 309.292 255.645 309.79 255.301 310.105" fill="#212121"/>
<path d="M223.549 340.848C212.255 364.248 205.387 389.323 198.098 414.164C198.07 414.247 198.011 414.316 197.934 414.358C197.857 414.4 197.767 414.412 197.682 414.391C197.597 414.37 197.523 414.318 197.474 414.245C197.425 414.172 197.406 414.084 197.419 413.997C199.786 401.215 203.691 388.769 208.082 376.552C212.524 364.345 217.539 352.364 222.916 340.552C223.092 340.152 223.755 340.422 223.549 340.846" fill="#212121"/>
<path d="M205.081 354.187C184.181 374.878 167.587 399.356 153.346 424.976C153.154 425.331 152.534 425.066 152.722 424.663C161.722 404.443 175.205 386.55 189.622 369.902C194.422 364.328 199.462 358.972 204.586 353.697C204.886 353.386 205.419 353.857 205.086 354.188" fill="#212121"/>
<path d="M235.505 329.689C207.592 339.455 177.647 345.328 148.005 342.604C147.912 342.6 147.825 342.559 147.762 342.49C147.7 342.422 147.667 342.331 147.671 342.238C147.675 342.145 147.716 342.058 147.785 341.995C147.853 341.933 147.944 341.9 148.037 341.904C170.198 341.969 192.466 340.838 214.052 335.493C221.236 333.727 228.319 331.569 235.267 329.029C235.667 328.869 235.955 329.535 235.506 329.685" fill="#212121"/>
<path d="M200.843 356.292C173.69 363.867 144.374 373.544 116.303 365.177C116.222 365.146 116.155 365.087 116.115 365.009C116.075 364.932 116.066 364.843 116.088 364.759C116.11 364.675 116.163 364.602 116.236 364.555C116.308 364.507 116.396 364.488 116.482 364.502C137.528 368.902 159.251 366.331 179.969 361.351C186.906 359.628 193.797 357.719 200.644 355.624C201.054 355.489 201.299 356.169 200.843 356.292Z" fill="#212121"/>
<path d="M240.834 337.625C244.611 344.424 245.885 352.331 244.434 359.972C243.189 366.411 240.068 372.302 237.418 378.3C234.57 384.747 232.237 391.409 230.441 398.224C227.723 387.893 225.428 377.255 226.293 366.608C227.158 355.961 231.586 345.177 240.128 338.764" fill="#212121"/>
<path d="M241.138 337.454C246.492 346.93 246.545 358.718 242.16 368.554C237.885 378.322 233.525 387.989 231.049 398.383C231.012 398.515 230.933 398.632 230.824 398.715C230.714 398.798 230.58 398.843 230.443 398.843C230.306 398.843 230.172 398.798 230.062 398.715C229.953 398.632 229.874 398.515 229.837 398.383C228.384 393.22 227.21 387.982 226.32 382.693C223.529 367.11 226.132 348.234 239.92 338.485C239.994 338.435 240.085 338.416 240.173 338.431C240.261 338.445 240.34 338.494 240.394 338.565C240.447 338.636 240.472 338.726 240.461 338.814C240.451 338.903 240.407 338.985 240.339 339.042C232.082 345.754 227.972 356.302 227.102 366.687C226.189 377.22 228.417 387.779 231.048 398.064H229.838C231.246 392.903 232.961 387.831 234.974 382.875C241.825 367.211 249.774 354.822 240.529 337.795C240.295 337.419 240.93 337.041 241.138 337.454Z" fill="#212121"/>
<path d="M208.679 377.398C213.038 389.998 212.554 403.898 209.345 416.847C206.136 429.796 200.323 441.932 194.118 453.738C194.496 444.501 192.961 435.308 191.924 426.123C190.887 416.938 190.359 407.502 192.699 398.558C195.039 389.614 200.661 381.127 209.087 377.322" fill="#212121"/>
<path d="M209.009 377.283C217.909 403.428 206.809 430.851 194.664 454.024C194.597 454.145 194.492 454.241 194.364 454.295C194.237 454.349 194.095 454.359 193.962 454.323C193.828 454.287 193.71 454.208 193.627 454.097C193.544 453.987 193.5 453.851 193.503 453.713C193.987 439.927 190.217 426.338 190.236 412.298C190.167 401.866 192.9 390.767 200.319 383.023C202.764 380.462 205.697 378.415 208.944 377.004C209.028 376.966 209.124 376.963 209.211 376.996C209.297 377.028 209.367 377.094 209.405 377.178C209.443 377.262 209.446 377.358 209.413 377.445C209.381 377.531 209.315 377.601 209.231 377.639C196.539 383.957 191.731 398.931 191.853 412.309C191.695 426.153 195.391 439.84 194.735 453.765L193.574 453.452C206.036 430.652 217.196 403.482 208.35 377.512C208.192 377.106 208.87 376.84 209.009 377.283Z" fill="#212121"/>
<path d="M188.295 372.027C183.213 389.984 176.176 411.781 164.02 425.941C153.971 437.648 140.051 445.413 129.399 456.577C136.557 447.263 138.873 435.257 142.399 424.052C145.844 413.103 150.678 402.473 157.773 393.452C164.868 384.431 177.279 375.103 188.234 371.68" fill="#212121"/>
<path d="M188.629 372.122C181.108 398.622 172.847 422.771 149.811 439.785C142.957 445.345 135.879 450.645 129.848 457.007C129.735 457.126 129.579 457.195 129.414 457.199C129.25 457.204 129.091 457.143 128.971 457.03C128.861 456.923 128.794 456.779 128.782 456.626C128.77 456.473 128.814 456.321 128.906 456.198C134.28 449.119 136.894 440.416 139.337 431.848C143.944 414.609 151.016 396.895 164.883 384.939C171.699 379.039 179.442 373.99 188.131 371.345C188.219 371.319 188.314 371.329 188.396 371.372C188.477 371.416 188.538 371.489 188.565 371.577C188.59 371.665 188.581 371.759 188.538 371.839C188.496 371.92 188.424 371.982 188.338 372.011C171.638 378.165 157.848 391.302 150.038 407.221C145.948 415.137 143.157 423.621 140.726 432.25C138.21 440.801 135.526 449.686 129.893 456.955L128.95 456.148C141.202 443.438 157.684 435.218 167.761 420.469C177.731 405.89 183.106 388.769 187.961 371.932C188.061 371.517 188.773 371.674 188.631 372.122" fill="#212121"/>
<path d="M144.835 382.119C136.595 385.995 130.947 393.793 126.354 401.655C121.761 409.517 117.748 417.909 111.289 424.335C103.499 432.084 92.562 436.535 86.165 445.471C85.877 438.858 87.465 432.304 89.443 425.984C93.98 411.49 101.343 396.884 114.363 389.061C124.127 383.199 135.875 381.867 147.227 380.961" fill="#212121"/>
<path d="M144.982 382.435C127.868 390.849 124.3 411.941 111.482 424.696C103.793 432.391 93.005 436.92 86.645 445.816C86.5707 445.911 86.4695 445.982 86.3544 446.019C86.2394 446.055 86.1159 446.056 86.0002 446.022C85.8845 445.987 85.782 445.919 85.7059 445.825C85.6299 445.731 85.5839 445.616 85.574 445.496C85.185 437.001 87.689 428.818 90.381 420.981C95.716 405.351 105.962 389.611 122.521 384.489C130.53 381.816 138.921 381.079 147.196 380.615C147.289 380.608 147.381 380.638 147.452 380.698C147.522 380.759 147.566 380.845 147.574 380.938C147.581 381.03 147.551 381.122 147.49 381.193C147.43 381.264 147.344 381.308 147.251 381.315C139.024 382.178 130.736 383.151 123.01 385.904C106.988 391.13 97.095 406.204 91.71 421.46C88.979 429.207 86.482 437.25 86.753 445.448L85.684 445.13C90.129 439.062 96.512 435.076 102.434 430.919C108.553 426.982 113.764 421.786 117.718 415.677C125.557 403.715 130.936 388.448 144.685 381.807C145.074 381.624 145.408 382.24 144.985 382.438" fill="#212121"/>
<path d="M144.863 367.44C134.752 372.778 118.71 376.624 107.395 374.978C96.0801 373.332 85.3271 368.893 75.3361 363.333C83.4106 359.237 92.2891 356.973 101.339 356.702C110.389 356.431 119.387 358.159 127.692 361.764C133.259 364.229 138.78 367.611 144.866 367.44" fill="#212121"/>
<path d="M145.027 367.748C134.093 373.136 121.809 376.248 109.573 375.587C103.481 374.913 97.4904 373.519 91.727 371.433C85.9714 369.358 80.3901 366.828 75.036 363.867C74.8949 363.789 74.7902 363.659 74.7447 363.504C74.6992 363.349 74.7166 363.183 74.793 363.041C82.793 358.464 92.208 356.354 101.393 355.941C110.589 355.608 119.739 357.393 128.136 361.158C133.543 363.627 138.765 367.035 144.846 367.091C144.892 367.09 144.938 367.098 144.981 367.114C145.024 367.13 145.063 367.155 145.096 367.187C145.13 367.218 145.157 367.256 145.175 367.298C145.194 367.34 145.204 367.386 145.206 367.432C145.207 367.477 145.199 367.523 145.183 367.566C145.166 367.609 145.141 367.648 145.11 367.682C145.078 367.715 145.04 367.742 144.998 367.761C144.956 367.78 144.911 367.79 144.865 367.791C138.64 368.143 133.024 364.855 127.536 362.511C116.516 357.791 104.37 356.342 92.549 358.338C86.6591 359.336 80.9501 361.203 75.609 363.879L75.627 362.801C80.8839 365.818 86.3729 368.41 92.042 370.554C97.6987 372.725 103.607 374.173 109.627 374.862C121.658 375.562 133.968 372.537 144.696 367.132C145.076 366.909 145.442 367.543 145.021 367.747" fill="#212121"/>
<path d="M190.943 339.473C177.617 347.299 161.955 350.166 146.721 347.567C136.051 345.707 125.921 341.191 115.146 340.057C123.124 332.07 134.664 328.307 145.951 328.157C157.238 328.007 168.339 331.171 178.782 335.457C183.113 337.235 187.44 339.229 192.082 339.816" fill="#212121"/>
<path d="M191.121 339.773C174.045 350.114 152.785 351.143 134.075 344.937C127.794 343.163 121.518 341.315 115.083 340.668C115.003 340.66 114.925 340.636 114.854 340.598C114.782 340.56 114.72 340.509 114.668 340.446C114.617 340.384 114.579 340.312 114.556 340.234C114.533 340.157 114.526 340.076 114.534 339.996C124.024 329.609 139.449 326.325 153.051 327.673C163.357 328.673 173.172 332.194 182.539 336.365C185.589 337.805 188.812 338.847 192.128 339.465C192.22 339.476 192.303 339.524 192.36 339.597C192.417 339.671 192.442 339.763 192.43 339.855C192.419 339.947 192.371 340.031 192.298 340.087C192.225 340.144 192.132 340.169 192.04 340.158C185.163 339.397 179.053 335.922 172.566 333.858C159.918 329.483 146.006 327.051 132.918 330.758C126.41 332.488 120.446 335.837 115.582 340.494L115.211 339.45C128.285 340.95 140.243 347.24 153.396 347.983C166.453 348.853 179.471 345.786 190.765 339.177C191.131 338.94 191.528 339.552 191.12 339.777" fill="#212121"/>
<path d="M267.055 267.356C218.52 287.039 162.311 287.372 113.396 268.706C96.9998 262.459 81.6747 253.7 67.97 242.743C67.8299 242.629 67.739 242.465 67.7163 242.285C67.6936 242.106 67.7408 241.924 67.8481 241.779C67.9553 241.633 68.1145 241.534 68.2926 241.503C68.4707 241.471 68.6542 241.509 68.805 241.609C83.1509 251.255 98.5039 259.311 114.593 265.634C146.645 277.918 182.203 283.356 216.375 279.102C233.605 277.051 250.476 272.662 266.521 266.056C266.606 266.021 266.698 266.003 266.79 266.003C266.882 266.003 266.974 266.022 267.059 266.057C267.144 266.093 267.222 266.145 267.287 266.21C267.352 266.276 267.403 266.353 267.439 266.439C267.474 266.524 267.492 266.615 267.491 266.708C267.491 266.8 267.473 266.891 267.437 266.976C267.402 267.062 267.35 267.139 267.284 267.204C267.219 267.269 267.14 267.321 267.055 267.356Z" fill="#212121"/>
<path d="M188.64 282.891C162.878 282.922 137.327 278.255 113.24 269.119C96.7961 262.865 81.4292 254.082 67.694 243.088C67.5764 242.995 67.4789 242.879 67.4072 242.747C67.3356 242.615 67.2913 242.47 67.277 242.32C67.2606 242.171 67.2741 242.019 67.3167 241.875C67.3592 241.731 67.4301 241.597 67.525 241.48C67.7053 241.259 67.9611 241.113 68.2429 241.07C68.5246 241.028 68.8123 241.091 69.05 241.248C83.3706 250.871 98.6937 258.912 114.75 265.227C148.35 278.104 183.473 282.758 216.318 278.668C233.509 276.623 250.34 272.244 266.348 265.652C266.487 265.595 266.636 265.566 266.786 265.566C266.936 265.566 267.084 265.596 267.223 265.654C267.361 265.712 267.487 265.796 267.593 265.903C267.699 266.009 267.783 266.135 267.84 266.274C267.897 266.413 267.926 266.562 267.926 266.712C267.926 266.862 267.896 267.01 267.838 267.149C267.78 267.287 267.696 267.413 267.589 267.519C267.483 267.625 267.357 267.709 267.218 267.766C242.239 277.81 215.559 282.946 188.636 282.892M68.414 241.935C68.3744 241.935 68.3354 241.944 68.2997 241.962C68.2641 241.979 68.2328 242.004 68.208 242.035C68.1637 242.089 68.1428 242.159 68.1497 242.229C68.1566 242.299 68.1909 242.363 68.245 242.408C81.9086 253.343 97.1952 262.079 113.553 268.3C162.675 287.048 218.564 286.554 266.89 266.955C266.922 266.942 266.952 266.923 266.976 266.899C267.001 266.874 267.021 266.845 267.034 266.813C267.047 266.781 267.054 266.747 267.054 266.713C267.054 266.679 267.047 266.645 267.034 266.613C267.006 266.548 266.954 266.496 266.888 266.469C266.824 266.443 266.752 266.443 266.688 266.469C250.606 273.09 233.696 277.49 216.426 279.546C183.435 283.646 148.169 278.982 114.426 266.052C98.3094 259.713 82.9283 251.643 68.553 241.985C68.5088 241.957 68.4575 241.941 68.405 241.941" fill="#212121"/>
<path d="M117.963 267.477C108.056 266.967 98.185 266.077 88.308 265.43C78.454 264.767 68.466 264.999 58.632 263.076L59.365 262.506C59.247 267.888 64.354 271.952 69.412 272.624C74.68 273.457 80.129 272.14 85.401 270.853C95.928 268.153 107.061 263.995 118.056 266.772C118.102 266.783 118.144 266.804 118.182 266.831C118.22 266.859 118.252 266.894 118.276 266.935C118.3 266.975 118.316 267.019 118.323 267.066C118.33 267.112 118.327 267.16 118.316 267.205C118.293 267.293 118.237 267.368 118.161 267.417C118.084 267.466 117.992 267.485 117.903 267.469C106.903 265.552 96.366 269.864 85.803 272.447C80.445 273.678 74.871 275.007 69.167 274.056C63.535 273.233 57.867 268.582 58.142 262.447C58.1458 262.359 58.1687 262.272 58.2092 262.194C58.2498 262.115 58.3069 262.047 58.3766 261.992C58.4463 261.938 58.527 261.9 58.6131 261.88C58.6992 261.86 58.7885 261.859 58.875 261.877C63.7099 262.842 68.6049 263.477 73.526 263.777C87.917 264.472 103.705 266.077 117.997 266.765C118.092 266.769 118.181 266.811 118.245 266.881C118.308 266.951 118.342 267.044 118.338 267.139C118.333 267.233 118.291 267.322 118.221 267.386C118.151 267.45 118.059 267.483 117.964 267.479" fill="#212121"/>
<path d="M73.225 274.821C71.842 274.824 70.4611 274.714 69.096 274.492C63.554 273.681 57.978 269.342 57.703 263.344L57.603 263.323L57.703 263.246C57.694 262.977 57.694 262.706 57.703 262.43C57.7098 262.278 57.7495 262.129 57.8196 261.994C57.8897 261.858 57.9884 261.74 58.1089 261.646C58.2293 261.553 58.3687 261.487 58.5172 261.453C58.6657 261.419 58.8199 261.418 58.969 261.449C59.242 261.505 59.519 261.562 59.795 261.616L59.825 261.595V261.623C64.363 262.482 68.9503 263.056 73.56 263.341C80.769 263.687 88.46 264.273 95.893 264.841C99.355 265.107 102.872 265.374 106.366 265.62C110.301 265.178 114.283 265.422 118.135 266.341C118.25 266.361 118.358 266.408 118.451 266.477C118.545 266.547 118.621 266.637 118.673 266.741C118.742 266.872 118.775 267.018 118.769 267.166C118.764 267.313 118.719 267.457 118.641 267.582C118.564 267.695 118.459 267.786 118.336 267.846C118.214 267.906 118.077 267.934 117.941 267.925C115.495 267.798 113.033 267.649 110.579 267.484C104.523 267.757 98.553 269.427 92.724 271.057C90.493 271.681 88.184 272.327 85.91 272.884L85.571 272.961C81.54 274.047 77.399 274.673 73.227 274.828M58.599 263.528C58.999 268.898 64.233 272.902 69.234 273.628C74.747 274.544 80.15 273.304 85.374 272.102L85.708 272.026C87.96 271.476 90.262 270.832 92.488 270.208C96.7498 268.925 101.084 267.895 105.467 267.124C104.667 267.066 103.867 267.008 103.072 266.948C98.8559 267.72 94.6835 268.714 90.572 269.925C88.872 270.394 87.182 270.859 85.508 271.286C80.208 272.586 74.733 273.92 69.341 273.066C64.465 272.419 59.487 268.754 58.965 263.595C58.842 263.574 58.717 263.549 58.594 263.525M59.874 263.762C60.511 268.302 65.119 271.618 69.474 272.195C74.702 273.028 80.089 271.71 85.299 270.433C86.962 270.007 88.647 269.543 90.342 269.077C93.428 268.226 96.549 267.366 99.693 266.694C95.888 266.407 92.084 266.123 88.279 265.875C85.386 265.682 82.431 265.564 79.57 265.446C72.9752 265.323 66.3961 264.757 59.877 263.752M59.805 262.852C66.3583 263.873 72.9737 264.445 79.605 264.563C79.705 264.563 79.798 264.57 79.895 264.575C77.737 264.44 75.601 264.318 73.507 264.218C68.9098 263.933 64.3344 263.366 59.807 262.518C59.807 262.631 59.807 262.74 59.807 262.852M58.752 262.303C58.7157 262.305 58.6808 262.318 58.652 262.34C58.6331 262.355 58.6175 262.373 58.6063 262.395C58.5951 262.416 58.5885 262.439 58.587 262.463C58.587 262.496 58.587 262.53 58.587 262.563L58.887 262.329L58.792 262.308H58.757" fill="#212121"/>
<path d="M145.996 277.984C139.532 273.78 133.58 268.837 128.259 263.256C124.759 259.556 121.579 255.498 117.594 252.331C111.517 247.538 103.91 245.285 98.449 239.431L99.794 238.931C99.706 245.156 103.863 250.665 108.829 254.099C113.993 257.621 120.172 259.425 126.251 261.359C126.336 261.39 126.405 261.451 126.447 261.531C126.489 261.61 126.499 261.703 126.475 261.789C126.452 261.876 126.397 261.951 126.321 261.999C126.246 262.048 126.155 262.066 126.066 262.05C113.998 259.963 98.189 253.393 98.252 238.892C98.2569 238.738 98.3075 238.589 98.3974 238.464C98.4872 238.339 98.6123 238.244 98.7566 238.19C98.9009 238.137 99.0579 238.127 99.2075 238.163C99.3572 238.199 99.4928 238.279 99.597 238.392C104.607 244.05 112.397 246.676 118.239 251.531C124.077 256.579 128.387 263.098 134.249 268.099C138.02 271.534 142.08 274.638 146.382 277.378C146.764 277.61 146.394 278.25 145.995 277.978" fill="#212121"/>
<path d="M146.192 278.487C146.034 278.486 145.881 278.437 145.751 278.348C139.26 274.124 133.282 269.159 127.938 263.554C127.528 263.121 127.124 262.685 126.719 262.244C126.626 262.348 126.506 262.425 126.373 262.467C126.239 262.508 126.097 262.512 125.961 262.478C119.423 261.347 98.152 256.346 97.814 239.394L97.677 239.245L97.812 239.196C97.812 239.096 97.812 238.996 97.812 238.896C97.8177 238.652 97.8968 238.415 98.0391 238.217C98.1814 238.018 98.3802 237.867 98.6096 237.784C98.8389 237.7 99.0882 237.687 99.3248 237.748C99.5615 237.808 99.7745 237.938 99.936 238.121C100.001 238.195 100.066 238.269 100.136 238.341L100.247 238.301V238.459C103.064 241.501 106.806 243.703 110.428 245.834C113.268 247.403 115.976 249.198 118.528 251.202C121.365 253.769 124.024 256.525 126.488 259.452C128.972 262.413 131.664 265.194 134.543 267.773C138.3 271.193 142.343 274.285 146.627 277.015C146.744 277.085 146.839 277.186 146.903 277.306C146.967 277.426 146.997 277.561 146.991 277.697C146.985 277.846 146.939 277.99 146.86 278.116C146.78 278.241 146.669 278.344 146.537 278.413C146.433 278.466 146.318 278.493 146.201 278.492M146.155 277.757L146.004 277.987L146.159 277.76M146.159 277.76L146.252 277.625L146.245 277.62L146.159 277.76ZM98.738 240.363C99.802 254.914 117.509 259.925 124.848 261.377L124.785 261.358C119.197 259.591 113.421 257.764 108.58 254.458C103.461 250.92 100.18 246.041 99.489 241.077C99.2343 240.843 98.984 240.604 98.738 240.36M100.544 242.001C101.494 246.358 104.527 250.589 109.077 253.735C113.807 256.963 119.522 258.769 125.048 260.517L125.205 260.566L124.962 260.299C122.631 257.548 120.074 254.996 117.318 252.671C114.782 250.779 112.099 249.092 109.296 247.624C106.211 246.024 103.282 244.141 100.544 242.001ZM100.318 240.645C103.212 243.06 106.367 245.143 109.724 246.856C112.569 248.346 115.291 250.06 117.864 251.982C119.242 253.092 120.549 254.286 121.78 255.557C120.554 254.272 119.287 253.023 117.948 251.866C115.435 249.896 112.768 248.129 109.974 246.584C106.459 244.708 103.19 242.402 100.243 239.721C100.257 240.029 100.282 240.336 100.319 240.646M99.228 239.607C99.275 239.653 99.319 239.7 99.367 239.744C99.367 239.682 99.362 239.623 99.358 239.561L99.228 239.607ZM99.04 238.58C98.9962 238.581 98.9528 238.589 98.912 238.605C98.8534 238.623 98.8014 238.658 98.762 238.705C98.7226 238.752 98.6976 238.809 98.69 238.87L99.244 238.664C99.2179 238.638 99.1867 238.616 99.1524 238.602C99.1181 238.588 99.0812 238.58 99.044 238.58" fill="#212121"/>
<path d="M165.841 278.892C155.384 276.922 144.592 277.734 134.547 281.246C124.215 283.938 114.489 287.935 106.147 294.724L105.918 293.433C109.611 294.382 113.468 294.515 117.217 293.82C120.967 293.126 124.52 291.622 127.629 289.413C133.882 285.057 139.466 277.931 147.729 277.454C147.819 277.456 147.905 277.491 147.969 277.553C148.034 277.615 148.074 277.699 148.079 277.789C148.085 277.878 148.057 277.967 148.001 278.037C147.944 278.107 147.864 278.153 147.775 278.166C139.926 279.356 134.842 286.337 128.595 290.756C125.302 293.122 121.519 294.717 117.526 295.422C113.533 296.128 109.433 295.927 105.528 294.834C105.397 294.796 105.278 294.723 105.187 294.621C105.095 294.519 105.034 294.394 105.01 294.26C104.986 294.125 105 293.986 105.052 293.859C105.103 293.732 105.188 293.623 105.299 293.542C113.745 286.922 123.95 282.925 134.328 280.47C139.431 278.895 144.671 277.804 149.979 277.212C155.34 276.776 160.679 277.502 165.936 278.183C166.03 278.196 166.115 278.246 166.172 278.322C166.229 278.398 166.254 278.494 166.241 278.588C166.227 278.682 166.177 278.766 166.101 278.824C166.025 278.881 165.93 278.905 165.836 278.892" fill="#212121"/>
<path d="M112.716 296.271C110.448 296.274 108.19 295.986 105.995 295.415L105.847 295.535L105.817 295.37C105.682 295.333 105.546 295.296 105.411 295.256C105.198 295.199 105.005 295.081 104.858 294.916C104.71 294.751 104.613 294.548 104.579 294.329C104.536 294.11 104.558 293.884 104.644 293.678C104.73 293.472 104.875 293.297 105.061 293.174C105.168 293.09 105.276 293.005 105.383 292.923L105.367 292.832L105.467 292.858C112.956 287.103 122.638 282.784 134.231 280.043L134.4 279.996C137.764 279.075 141.2 278.132 144.709 277.483C145.659 277.238 146.63 277.083 147.609 277.021C148.384 276.919 149.164 276.836 149.948 276.773C155.193 276.347 160.448 277.028 165.536 277.689L165.995 277.747C166.131 277.763 166.26 277.816 166.369 277.899C166.478 277.982 166.563 278.093 166.614 278.22C166.669 278.355 166.688 278.503 166.669 278.648C166.65 278.792 166.593 278.93 166.505 279.046C166.422 279.156 166.309 279.24 166.181 279.29C166.052 279.339 165.912 279.352 165.777 279.326H165.759C159.49 278.111 153.063 277.937 146.737 278.813C141.937 279.913 138.087 283.307 134.361 286.594C132.605 288.199 130.765 289.71 128.85 291.122C124.145 294.487 118.502 296.289 112.717 296.274M106.848 294.727C110.532 295.562 114.351 295.609 118.054 294.864C121.758 294.12 125.262 292.601 128.337 290.407C130.229 289.013 132.045 287.521 133.779 285.935C136.322 283.507 139.141 281.386 142.179 279.615C141.799 279.696 141.416 279.78 141.034 279.87C138.135 281.545 135.422 283.522 132.94 285.77C131.298 287.152 129.599 288.58 127.879 289.779C124.954 291.864 121.638 293.334 118.129 294.102C114.62 294.869 110.992 294.916 107.464 294.242L106.849 294.727M105.555 293.904C105.511 293.935 105.478 293.978 105.458 294.028C105.438 294.077 105.433 294.132 105.444 294.184C105.45 294.236 105.471 294.286 105.504 294.326C105.537 294.367 105.582 294.397 105.632 294.413H105.644L105.555 293.904ZM108.418 293.519C115.076 294.574 121.882 292.973 127.372 289.061C129.065 287.883 130.672 286.527 132.372 285.096C134.192 283.508 136.095 282.017 138.072 280.63C136.947 280.945 135.818 281.291 134.687 281.669C123.88 284.482 115.464 288.269 108.417 293.519M106.548 293.144C106.78 293.199 107.014 293.253 107.248 293.3C113.773 288.3 121.442 284.585 131.055 281.761C121.355 284.406 113.132 288.225 106.555 293.143" fill="#212121"/>
<path d="M199.298 281.613C194.938 280.434 190.727 278.761 186.747 276.626C178.894 272.045 174.247 263.693 166.798 258.685C163.181 256.139 159.175 254.197 154.936 252.933L155.653 251.676C158.253 254.023 158.44 257.662 159.332 260.702C160.282 264.338 163.276 267.095 166.58 268.77C171.648 270.77 177.18 271.364 182.48 272.712C182.572 272.734 182.652 272.792 182.702 272.873C182.752 272.953 182.768 273.051 182.746 273.143C182.724 273.229 182.671 273.304 182.597 273.354C182.524 273.404 182.434 273.425 182.346 273.414C179.221 273.014 176.069 272.63 172.939 272.064C169.763 271.498 166.449 270.882 163.72 268.996C160.825 267.22 158.703 264.422 157.773 261.155C156.889 258.027 156.734 254.723 154.643 252.755C152.6 248.549 166.737 256.834 167.477 257.749C174.853 262.985 179.295 271.442 187.104 276.02C191.014 278.171 195.18 279.82 199.504 280.926C199.94 281.04 199.759 281.761 199.304 281.612" fill="#212121"/>
<path d="M199.419 282.072C199.334 282.072 199.249 282.059 199.168 282.033C194.777 280.846 190.536 279.16 186.529 277.008C184.963 276.081 183.482 275.017 182.103 273.829L181.621 273.767C178.748 273.403 175.778 273.025 172.859 272.497C169.794 271.95 166.323 271.329 163.467 269.358C160.479 267.528 158.293 264.637 157.344 261.264C157.117 260.464 156.938 259.638 156.762 258.839C156.289 256.685 155.841 254.639 154.536 253.272L154.279 253.195L154.344 253.082L154.251 252.954C153.776 251.98 154.072 251.524 154.4 251.315C156.347 250.065 166.665 256.474 167.744 257.404C171.048 259.939 174.062 262.833 176.729 266.032C179.894 269.559 183.166 273.206 187.329 275.645C191.21 277.772 195.342 279.406 199.629 280.509C199.761 280.543 199.88 280.613 199.976 280.709C200.071 280.806 200.139 280.927 200.171 281.059C200.207 281.204 200.204 281.356 200.163 281.499C200.121 281.642 200.042 281.772 199.934 281.875C199.795 282.004 199.613 282.075 199.424 282.075M199.385 281.354L199.306 281.618L199.39 281.356H199.385M199.385 281.356H199.39L199.443 281.2H199.432L199.385 281.356ZM155.98 253.721C156.794 255.263 157.348 256.929 157.619 258.651C157.793 259.441 157.969 260.244 158.192 261.034C159.085 264.2 161.142 266.911 163.951 268.623C166.662 270.497 170.037 271.101 173.012 271.632C175.641 272.105 178.321 272.458 180.93 272.793C179.553 272.475 178.161 272.193 176.801 271.921C173.267 271.311 169.793 270.393 166.419 269.179C164.103 268.008 160.101 265.388 158.909 260.814C158.698 260.095 158.524 259.33 158.348 258.554C158.062 256.995 157.58 255.479 156.913 254.042C156.604 253.931 156.294 253.824 155.981 253.72M158.093 254.485C158.571 255.743 158.942 257.04 159.204 258.36C159.376 259.116 159.545 259.86 159.756 260.579C160.567 263.688 163.125 266.524 166.779 268.379C170.095 269.564 173.508 270.46 176.979 271.057C177.872 271.236 178.779 271.421 179.692 271.614C178.317 270.272 177.009 268.871 175.718 267.489C172.993 264.34 169.921 261.508 166.559 259.05C163.929 257.199 161.089 255.667 158.098 254.485M157.537 253.331C160.915 254.576 164.115 256.257 167.057 258.331C170.094 260.509 172.879 263.02 175.357 265.818C172.937 262.96 170.21 260.376 167.226 258.113L167.14 258.03C166.472 257.248 160.34 253.771 156.975 252.473C157.18 252.749 157.368 253.036 157.538 253.335M155.599 252.677C155.785 252.735 155.972 252.793 156.158 252.855C156.033 252.695 155.901 252.54 155.758 252.391C155.705 252.486 155.649 252.583 155.596 252.678M154.875 252.056C154.875 252.056 154.875 252.086 154.887 252.147C154.913 252.098 154.94 252.054 154.964 252.013C154.932 252.021 154.901 252.035 154.874 252.055" fill="#212121"/>
<path d="M204.159 281.546C195.525 281.854 186.77 283.266 179.009 287.087C175.137 288.993 171.74 291.692 168.209 294.252C164.696 296.803 160.909 299.283 156.521 300.41L156.857 299.23C161.747 304.037 170.157 302.722 174.198 297.43C176.526 294.83 177.025 291.049 179.584 288.499C182.141 285.814 185.436 284.284 188.622 282.899C188.706 282.865 188.8 282.863 188.884 282.895C188.969 282.927 189.038 282.99 189.079 283.071C189.119 283.153 189.127 283.246 189.101 283.333C189.075 283.419 189.017 283.493 188.939 283.539C185.92 285.248 182.832 286.939 180.652 289.454C178.352 292.054 177.84 295.795 175.491 298.487C170.953 304.458 161.252 305.869 155.859 300.221C155.793 300.156 155.74 300.078 155.704 299.992C155.668 299.906 155.649 299.814 155.649 299.721C155.649 299.628 155.668 299.536 155.704 299.45C155.74 299.364 155.793 299.286 155.859 299.221C164.421 297.056 170.74 290.113 178.659 286.381C186.579 282.535 195.422 281.266 204.124 280.83C204.219 280.826 204.311 280.86 204.381 280.924C204.451 280.988 204.492 281.077 204.496 281.172C204.5 281.267 204.466 281.359 204.402 281.429C204.338 281.499 204.249 281.54 204.154 281.544" fill="#212121"/>
<path d="M164.506 304.232C161.364 304.284 158.323 303.125 156.013 300.995L155.89 301.027L155.922 300.909C155.792 300.786 155.665 300.656 155.539 300.526C155.327 300.31 155.209 300.018 155.212 299.715C155.214 299.412 155.337 299.123 155.553 298.91L155.639 298.827L155.753 298.799C156.033 298.729 156.31 298.651 156.586 298.57L156.635 298.398L156.758 298.519C161.349 297.126 165.39 294.329 169.306 291.619C172.203 289.494 175.27 287.611 178.476 285.989C185.316 282.667 193.222 280.942 204.108 280.396C204.244 280.389 204.38 280.417 204.502 280.479C204.624 280.541 204.727 280.634 204.801 280.749C204.88 280.873 204.925 281.015 204.932 281.161C204.939 281.308 204.907 281.453 204.841 281.584C204.776 281.704 204.679 281.805 204.562 281.875C204.444 281.946 204.31 281.983 204.173 281.984C199.117 282.117 194.087 282.765 189.162 283.918L188.8 284.118C185.962 285.718 183.029 287.378 180.984 289.734C179.937 291.053 179.098 292.525 178.498 294.098C177.848 295.781 176.947 297.355 175.825 298.768C174.563 300.369 172.973 301.682 171.162 302.619C169.351 303.556 167.361 304.095 165.325 304.2C165.054 304.216 164.782 304.223 164.513 304.223M157.045 300.723C159.352 302.616 162.3 303.547 165.276 303.323C167.191 303.225 169.062 302.719 170.765 301.838C172.468 300.957 173.962 299.722 175.148 298.215C176.217 296.86 177.077 295.352 177.699 293.742C178.336 292.088 179.222 290.541 180.328 289.156C181.904 287.452 183.736 286.004 185.758 284.864C185.458 284.959 185.158 285.056 184.858 285.158C183.025 286.095 181.354 287.321 179.91 288.789C178.71 290.134 177.758 291.683 177.1 293.361C176.466 294.931 175.602 296.398 174.535 297.713C173.418 299.13 172.017 300.298 170.422 301.141C168.827 301.985 167.074 302.486 165.274 302.613C162.586 302.842 159.905 302.102 157.715 300.528C157.493 300.597 157.27 300.662 157.047 300.728M158.758 300.181C160.682 301.39 162.949 301.937 165.213 301.739C166.894 301.622 168.532 301.154 170.021 300.366C171.511 299.577 172.819 298.486 173.861 297.162C174.878 295.905 175.701 294.503 176.303 293.002C176.999 291.231 178.008 289.599 179.283 288.186C179.789 287.654 180.33 287.155 180.902 286.695C180.329 286.948 179.765 287.211 179.21 287.483C176.067 289.152 173.078 291.095 170.277 293.289C169.677 293.73 169.077 294.171 168.477 294.61C165.514 296.913 162.242 298.789 158.758 300.182M156.124 299.614C156.101 299.663 156.093 299.718 156.102 299.772C156.111 299.826 156.137 299.875 156.175 299.914L156.205 299.946L156.314 299.566C156.251 299.584 156.187 299.601 156.124 299.617M157.489 299.217C157.617 299.335 157.751 299.447 157.889 299.556C161.517 298.196 164.915 296.289 167.965 293.901C168.565 293.465 169.165 293.024 169.765 292.584C171.376 291.397 173.014 290.184 174.722 289.072C173.046 290.109 171.422 291.237 169.822 292.343C165.978 295.003 162.022 297.743 157.494 299.217M204.163 281.276L204.174 281.55L204.165 281.276H204.163Z" fill="#212121"/>
<path d="M236.741 276.602C226.885 276.818 217.369 272.855 209.555 267.052C205.78 264.043 201.797 261.306 197.635 258.861C193.548 256.423 188.919 255.038 184.164 254.831L184.672 253.466C187.179 255.511 188.379 258.44 189.736 260.944C193.552 269.69 203.912 269.572 211.985 268.099C212.074 268.09 212.163 268.114 212.236 268.167C212.308 268.22 212.357 268.298 212.374 268.386C212.391 268.474 212.375 268.565 212.328 268.642C212.282 268.718 212.208 268.774 212.122 268.799C205.15 270.781 196.133 271.546 190.777 265.549C187.9 262.278 186.9 257.383 183.692 254.654C183.57 254.551 183.483 254.413 183.442 254.259C183.401 254.105 183.409 253.942 183.465 253.792C183.521 253.643 183.621 253.514 183.753 253.424C183.884 253.333 184.041 253.286 184.2 253.288C194.355 253.708 202.51 260.401 210.064 266.383C217.611 272.198 227.08 276.197 236.716 275.883C237.163 275.85 237.222 276.595 236.741 276.597" fill="#212121"/>
<path d="M235.951 277.051C226.259 277.051 217.933 273.193 211.993 269.295C205.199 271.195 196.022 272.086 190.447 265.847C189.178 264.27 188.111 262.541 187.271 260.7C186.406 258.699 185.203 256.861 183.716 255.267H183.533L183.579 255.144C183.523 255.093 183.466 255.044 183.407 254.995C183.214 254.832 183.077 254.614 183.014 254.369C182.951 254.125 182.967 253.867 183.057 253.632C183.148 253.397 183.31 253.195 183.521 253.057C183.731 252.918 183.98 252.848 184.232 252.857C184.297 252.857 184.362 252.862 184.432 252.866L184.478 252.743L184.643 252.877C194.457 253.448 202.543 259.865 209.698 265.536L210.342 266.046C218.58 272.394 227.891 275.766 236.706 275.453C236.841 275.441 236.976 275.467 237.097 275.528C237.218 275.589 237.318 275.683 237.388 275.799C237.469 275.925 237.515 276.071 237.521 276.221C237.527 276.371 237.493 276.519 237.423 276.652C237.357 276.773 237.26 276.873 237.142 276.942C237.023 277.012 236.888 277.048 236.751 277.046C236.485 277.051 236.218 277.055 235.951 277.055M236.735 276.332L236.742 276.606V276.33H236.735M236.735 276.33H236.742V276.166H236.733L236.735 276.33ZM184.961 255.3C186.199 256.83 187.239 258.51 188.056 260.3C188.865 262.073 189.889 263.74 191.105 265.262C195.995 270.734 203.941 270.368 210.305 268.825C199.334 270.46 192.278 267.874 189.333 261.12C189.108 260.71 188.871 260.25 188.633 259.784C187.894 258.223 186.993 256.743 185.946 255.369C185.615 255.336 185.29 255.311 184.963 255.297M187.173 255.524C188.014 256.754 188.763 258.044 189.415 259.384C189.651 259.843 189.884 260.297 190.124 260.736C192.899 267.089 199.61 269.509 210.069 267.974C209.803 267.784 209.547 267.596 209.292 267.408L208.933 267.135C205.287 264.238 201.442 261.603 197.424 259.249C194.254 257.411 190.783 256.149 187.173 255.524ZM186.392 254.533C190.434 255.081 194.328 256.422 197.85 258.479C201.547 260.623 205.089 263.024 208.45 265.664C201.584 260.224 194.457 254.771 185.756 253.848C185.979 254.07 186.194 254.298 186.396 254.534M184.796 254.411C184.891 254.411 184.989 254.42 185.086 254.425C185.014 254.355 184.942 254.286 184.868 254.216L184.796 254.411ZM184.108 253.738C184.056 253.752 184.009 253.778 183.97 253.815C183.93 253.851 183.901 253.896 183.883 253.947C183.863 253.998 183.855 254.053 183.86 254.108C183.865 254.163 183.883 254.216 183.913 254.262L184.108 253.738Z" fill="#212121"/>
<path d="M252.512 272.283C234.434 277.356 227.794 299.03 210.277 305.293C204.532 307.553 198.319 308.364 192.187 307.655L192.43 306.213C198.23 306.735 199.476 299.513 202.411 295.821C206.084 291.145 212.597 291.494 217.911 290.76C221.481 290.366 225.059 290.055 228.641 289.747C228.735 289.736 228.83 289.762 228.905 289.82C228.979 289.878 229.028 289.964 229.04 290.058C229.051 290.152 229.025 290.247 228.967 290.321C228.909 290.396 228.823 290.445 228.729 290.456C225.186 291.049 221.641 291.636 218.085 292.139C213.047 293.139 207.164 292.623 203.719 296.859C200.746 300.926 198.665 308.674 192.128 307.647C191.944 307.607 191.783 307.498 191.677 307.342C191.572 307.186 191.53 306.995 191.561 306.809C191.593 306.624 191.694 306.457 191.845 306.344C191.996 306.232 192.184 306.181 192.371 306.203C198.277 306.945 204.275 306.253 209.858 304.188C227.423 298.243 234.294 276.641 252.369 271.588C252.46 271.574 252.552 271.595 252.628 271.648C252.703 271.7 252.756 271.779 252.775 271.869C252.793 271.959 252.777 272.052 252.729 272.13C252.68 272.208 252.604 272.265 252.515 272.288" fill="#212121"/>
<path d="M196.502 308.342C195.266 308.342 194.03 308.282 192.794 308.163C192.587 308.149 192.374 308.126 192.156 308.096H192.137L191.678 308.041L191.694 307.941C191.48 307.818 191.31 307.631 191.209 307.406C191.107 307.182 191.079 306.931 191.128 306.689C191.178 306.463 191.292 306.257 191.456 306.095C191.621 305.934 191.83 305.823 192.056 305.778L192.063 305.738L192.278 305.756C192.345 305.765 192.371 305.756 192.42 305.765L192.541 305.781C196.279 306.064 197.973 302.862 199.735 299.461C200.39 298.088 201.171 296.778 202.068 295.549C205.179 291.587 210.31 291.093 214.837 290.657C215.864 290.557 216.877 290.457 217.847 290.325C221.578 289.914 225.471 289.578 228.6 289.31C228.644 289.31 228.684 289.31 228.725 289.31C229.193 288.8 229.655 288.29 230.119 287.78C236.381 280.903 242.857 273.79 252.247 271.161C252.384 271.127 252.528 271.131 252.664 271.172C252.799 271.213 252.921 271.289 253.017 271.393C253.115 271.502 253.182 271.635 253.213 271.778C253.243 271.921 253.236 272.07 253.191 272.209C253.148 272.336 253.073 272.449 252.972 272.537C252.87 272.625 252.748 272.684 252.616 272.709C243.416 275.296 237.068 282.409 230.928 289.287C225.069 295.851 219.01 302.637 210.428 305.707C205.993 307.453 201.268 308.347 196.502 308.342ZM196.289 307.463H196.502C201.458 307.457 206.364 306.468 210.934 304.552C215.505 302.636 219.65 299.831 223.128 296.301C219.392 299.971 214.916 302.801 209.998 304.601C205.888 306.121 201.544 306.91 197.162 306.933C196.885 307.131 196.593 307.309 196.29 307.464M192.912 307.29C193.764 307.351 194.619 307.218 195.412 306.901C194.54 306.862 193.668 306.796 192.797 306.701L192.702 307.274C192.774 307.281 192.844 307.288 192.917 307.293M195.697 306.036C196.091 306.048 196.486 306.055 196.882 306.057C198.693 304.673 200 302.329 201.282 300.035C201.909 298.851 202.605 297.705 203.367 296.603C206.1 293.243 210.244 292.743 214.253 292.26C215.501 292.111 216.792 291.954 218 291.713C220.827 291.313 223.544 290.876 226.6 290.37C223.917 290.602 220.882 290.88 217.958 291.202C216.986 291.336 215.958 291.436 214.923 291.536C210.36 291.976 205.639 292.429 202.757 296.097C201.896 297.283 201.146 298.546 200.517 299.87C199.284 302.249 197.936 304.855 195.694 306.037M226.981 291.198C223.819 291.722 221.032 292.17 218.145 292.578C216.926 292.822 215.62 292.978 214.354 293.134C210.343 293.616 206.554 294.073 204.062 297.141C203.326 298.208 202.652 299.317 202.045 300.463C201.04 302.489 199.757 304.365 198.235 306.037C202.155 305.901 206.028 305.138 209.707 303.777C216.674 301.421 222.026 296.477 226.981 291.198ZM252.462 272.017L252.513 272.286L252.43 271.853L252.462 272.017Z" fill="#212121"/>
<path d="M69.208 242.774C61.3964 221.264 50.5877 200.963 37.102 182.474C35.78 180.656 34.375 178.746 32.372 177.974C30.372 177.181 28.12 178.174 26.531 179.636C23.204 182.597 21.885 187.304 22.031 191.714C22.177 196.214 23.631 200.564 25.087 204.883C25.1112 204.954 25.1211 205.03 25.1161 205.105C25.1111 205.181 25.0913 205.254 25.0579 205.322C25.0245 205.389 24.978 205.45 24.9212 205.499C24.8645 205.549 24.7985 205.587 24.727 205.611C16.638 204.203 5.14401 203.383 2.06001 212.891C0.307008 222.367 11.388 226.891 18.466 230.185C26.6168 233.789 35.0791 236.643 43.748 238.711C52.4361 240.775 61.2514 242.262 70.136 243.161C70.2199 243.169 70.2972 243.21 70.3507 243.276C70.4043 243.341 70.4297 243.425 70.4215 243.509C70.4133 243.592 70.3721 243.67 70.3069 243.723C70.2417 243.777 70.158 243.802 70.074 243.794C65.613 243.394 61.14 243.068 56.693 242.431C43.3053 240.627 30.2356 236.961 17.863 231.538C11.856 228.73 4.89301 225.792 1.57901 219.538C-2.20499 212.52 4.04101 205.038 11.079 203.901C15.656 202.981 20.247 203.748 24.634 204.492L23.992 205.243C21.04 196.926 18.43 185.767 25.937 178.957C27.69 177.362 30.314 176.24 32.665 177.188C35.016 178.136 36.407 180.193 37.727 182.018C40.416 185.73 42.955 189.546 45.448 193.39C55.3706 208.821 63.5402 225.31 69.805 242.553C69.8336 242.633 69.8295 242.72 69.7935 242.797C69.7575 242.873 69.6926 242.932 69.613 242.961C69.5334 242.99 69.4458 242.986 69.3692 242.95C69.2927 242.914 69.2337 242.849 69.205 242.769" fill="#212121"/>
<path d="M70.1 244.242C70.079 244.242 70.058 244.242 70.04 244.242L67.717 244.042C64.081 243.729 60.317 243.404 56.63 242.876C43.202 241.066 30.0928 237.388 17.683 231.949L16.603 231.449C10.871 228.789 4.37503 225.771 1.18703 219.757C0.42777 218.375 0.0196416 216.828 -0.00145746 215.252C-0.0225565 213.676 0.34402 212.118 1.06603 210.717C2.05081 208.824 3.46115 207.185 5.18621 205.929C6.91128 204.673 8.90408 203.835 11.008 203.479C15.066 202.665 19.223 203.17 23.021 203.79C20.376 195.842 18.31 185.297 25.641 178.643C27.392 177.055 30.197 175.733 32.831 176.795C35.175 177.743 36.622 179.746 37.897 181.513L38.083 181.773C40.977 185.766 43.617 189.773 45.816 193.164C55.7562 208.622 63.9402 225.141 70.216 242.415C70.2184 242.645 70.2779 242.871 70.389 243.072C70.5002 243.274 70.6596 243.444 70.853 243.569C70.8324 243.755 70.7439 243.927 70.6045 244.053C70.4651 244.178 70.2844 244.247 70.097 244.248M15.578 203.924C14.0971 203.916 12.6192 204.056 11.166 204.341C9.19726 204.671 7.33178 205.453 5.71619 206.625C4.1006 207.797 2.77892 209.329 1.85503 211.098C1.18962 212.373 0.851242 213.793 0.870267 215.231C0.889292 216.669 1.26513 218.079 1.96403 219.336C5.01503 225.091 11.364 228.042 16.975 230.646L18.048 231.146C30.3817 236.549 43.4095 240.204 56.754 242.004C58.771 242.292 60.814 242.519 62.845 242.718C56.3858 241.871 49.9766 240.678 43.645 239.145C34.9519 237.069 26.4656 234.206 18.291 230.592L17.12 230.052C9.85203 226.704 -0.0929722 222.123 1.62503 212.816C4.91103 202.682 17.607 204.01 23.425 204.949C23.4 204.875 23.376 204.801 23.349 204.727C20.7863 204.248 18.1886 203.98 15.582 203.927M16.111 205.193C10.154 205.193 4.48503 206.856 2.48203 213.035C0.898028 221.612 10.488 226.03 17.488 229.256L18.656 229.794C26.7809 233.386 35.2157 236.231 43.856 238.294C52.0266 240.25 60.3148 241.676 68.669 242.565C60.8875 221.228 50.1447 201.091 36.756 182.745C35.523 181.045 34.125 179.13 32.221 178.396C30.321 177.647 28.2 178.718 26.835 179.97C23.904 182.583 22.316 186.859 22.478 191.711C22.619 195.987 23.96 200.146 25.316 204.174L25.478 204.202L25.369 204.33L25.513 204.752C25.5982 205.007 25.5789 205.286 25.4594 205.527C25.3398 205.768 25.1298 205.952 24.875 206.039L24.769 206.072L24.658 206.053C24.44 206.016 24.218 205.977 23.995 205.942L23.84 206.121L23.763 205.901C21.236 205.464 18.6784 205.227 16.114 205.194M24.014 203.951C24.121 203.97 24.227 203.988 24.334 204.006C23.012 200.057 21.734 195.981 21.6 191.738C21.431 186.626 23.125 182.099 26.249 179.318C26.6718 178.927 27.1305 178.577 27.619 178.272C27.1278 178.567 26.6666 178.91 26.242 179.295C19.149 185.731 21.382 196.195 24.014 203.951Z" fill="#212121"/>
<path d="M48.49 199.423C48.36 195.56 48.038 191.417 49.983 187.884C51.495 185.343 54.824 183.414 57.76 184.696C58.5888 185.142 59.4632 185.497 60.368 185.756C61.2648 185.815 62.1489 185.52 62.831 184.935C67.8421 181.893 72.666 187.33 74.181 191.747C78.143 200.819 77.634 211.102 76.502 220.641C75.602 228.292 74.512 236.461 69.769 242.849C69.7193 242.914 69.6465 242.957 69.5659 242.969C69.4852 242.982 69.4028 242.963 69.3357 242.917C69.2686 242.87 69.222 242.799 69.2055 242.72C69.189 242.64 69.2039 242.556 69.247 242.487C73.265 235.821 74.125 228.065 75.025 220.461C75.941 212.874 76.593 205.098 74.953 197.584C73.768 192.23 70.304 182.21 63.182 185.518C62.3615 186.185 61.3145 186.507 60.261 186.418C59.3042 186.151 58.3809 185.776 57.509 185.3C52.487 183.464 48.99 189.156 49.072 193.628C48.9568 195.545 48.9741 197.467 49.124 199.381C49.1296 199.465 49.1015 199.548 49.0459 199.612C48.9903 199.675 48.9118 199.714 48.8275 199.72C48.7433 199.725 48.6604 199.697 48.5969 199.641C48.5334 199.586 48.4956 199.507 48.49 199.423Z" fill="#212121"/>
<path d="M69.509 243.419C69.3498 243.419 69.1947 243.369 69.066 243.275C68.9103 243.159 68.8046 242.988 68.77 242.797C68.7355 242.606 68.7748 242.408 68.88 242.245C72.771 235.79 73.67 228.171 74.542 220.803L74.589 220.409C75.431 213.416 76.189 205.315 74.524 197.68C73.877 194.758 71.948 187.754 67.997 185.8C67.2699 185.456 66.4723 185.287 65.6682 185.308C64.8641 185.328 64.076 185.536 63.367 185.916C62.4658 186.634 61.3177 186.968 60.172 186.844C59.4615 186.689 58.7774 186.431 58.141 186.079C57.872 185.944 57.608 185.812 57.341 185.703C56.6093 185.416 55.8168 185.319 55.0375 185.422C54.2582 185.524 53.5176 185.822 52.885 186.289C51.8094 187.179 50.9477 188.299 50.3639 189.567C49.78 190.835 49.4888 192.218 49.512 193.614C49.3947 195.525 49.4104 197.441 49.559 199.35C49.5738 199.477 49.5537 199.606 49.5009 199.723C49.448 199.84 49.3644 199.94 49.259 200.013C49.1412 200.092 49.0047 200.139 48.863 200.149C48.7214 200.159 48.5796 200.131 48.452 200.069C48.3338 200.01 48.2341 199.92 48.1635 199.808C48.093 199.697 48.0544 199.568 48.052 199.436L48.02 198.571C47.883 194.871 47.74 191.047 49.599 187.671C51.231 184.928 54.792 182.922 57.937 184.291C58.245 184.419 58.549 184.567 58.844 184.711C59.3439 184.989 59.881 185.195 60.439 185.321C61.116 185.458 61.733 185.108 62.597 184.563C63.3769 184.056 64.2652 183.74 65.1899 183.64C66.1146 183.54 67.0499 183.659 67.92 183.988C71.129 185.152 73.586 188.651 74.598 191.604C78.598 200.765 78.09 211.004 76.94 220.689C76.112 227.703 75.081 236.43 70.124 243.11C70.0658 243.19 69.9921 243.258 69.9072 243.31C69.8224 243.361 69.7282 243.395 69.63 243.41C69.5904 243.417 69.5492 243.42 69.509 243.419ZM71.399 187.698C73.679 190.789 74.892 195.271 75.379 197.489C77.079 205.261 76.309 213.448 75.458 220.513L75.412 220.905C74.64 227.434 73.844 234.162 70.977 240.184C74.469 234.07 75.341 226.673 76.062 220.584C77.196 211.015 77.704 200.922 73.773 191.919C73.2294 190.384 72.4246 188.955 71.394 187.694" fill="#212121"/>
<path d="M16.25 229.885C11.689 230.402 5.99 233.593 7.193 238.932C7.31706 239.701 7.641 240.425 8.13239 241.029C8.62378 241.634 9.26539 242.099 9.993 242.378C10.0756 242.404 10.1444 242.462 10.1843 242.539C10.2242 242.616 10.232 242.705 10.206 242.788C7.906 244.868 8.052 248.468 9.647 250.961C11.163 253.516 14.154 254.761 17.055 255.206C23.037 255.943 29.212 254.823 35.142 253.812C46.923 251.245 59.475 249.569 69.918 243.228C70.218 242.998 70.623 243.497 70.293 243.74C62.818 249.362 53.393 251.431 44.438 253.402C35.419 254.953 14.672 260.75 8.978 251.362C7.369 248.649 7.128 244.691 9.678 242.443L9.791 243.002C6.246 241.739 5.576 236.93 7.445 234.039C9.362 231.111 12.857 229.805 16.154 229.256C16.2366 229.244 16.3205 229.265 16.3876 229.315C16.4547 229.365 16.4997 229.438 16.5128 229.521C16.5259 229.603 16.5062 229.687 16.4577 229.755C16.4093 229.823 16.3362 229.87 16.254 229.884" fill="#212121"/>
<path d="M22.252 257.057C16.34 257.057 11.123 255.757 8.59803 251.59C7.07503 249.017 6.69803 245.399 8.61903 242.923C7.54459 242.228 6.74474 241.181 6.35603 239.962C6.02086 238.945 5.91112 237.867 6.03442 236.803C6.15772 235.74 6.5111 234.715 7.07003 233.802C8.77003 231.21 11.797 229.536 16.076 228.822C16.2056 228.801 16.3383 228.815 16.4611 228.861C16.5838 228.907 16.6924 228.985 16.776 229.086C16.8605 229.194 16.9158 229.322 16.9365 229.458C16.9571 229.594 16.9425 229.733 16.894 229.861C16.846 229.982 16.7666 230.088 16.664 230.169C16.5613 230.249 16.4392 230.301 16.31 230.318H16.294C13.822 230.601 10.294 231.827 8.50103 234.355C8.03519 234.992 7.71468 235.723 7.56211 236.496C7.40955 237.27 7.42863 238.068 7.61802 238.834C7.71907 239.457 7.96186 240.049 8.32768 240.564C8.69351 241.078 9.1726 241.502 9.72803 241.802L9.94803 241.609L10.011 241.92C10.048 241.934 10.083 241.946 10.122 241.959C10.2178 241.988 10.3068 242.037 10.3835 242.101C10.4603 242.166 10.5234 242.245 10.569 242.334C10.616 242.423 10.645 242.52 10.6545 242.62C10.6639 242.719 10.6536 242.82 10.624 242.916L10.587 243.032L10.497 243.113C10.427 243.176 10.358 243.241 10.297 243.313L10.371 243.68L10.062 243.571C8.35302 245.597 8.71303 248.684 10.018 250.728C11.701 253.564 15.189 254.48 17.118 254.776C22.81 255.476 28.729 254.465 34.449 253.487L35.064 253.387C37.056 252.953 39.089 252.539 41.13 252.124C50.942 250.135 61.088 248.078 69.684 242.857C69.7823 242.789 69.8966 242.747 70.0157 242.736C70.1349 242.725 70.2549 242.745 70.364 242.794C70.4927 242.85 70.6048 242.938 70.6892 243.049C70.7737 243.161 70.8277 243.293 70.846 243.432C70.8602 243.56 70.8399 243.689 70.7871 243.807C70.7344 243.924 70.6511 244.026 70.546 244.1C63.013 249.766 53.646 251.83 44.578 253.826C43.291 254.051 41.865 254.336 40.293 254.651C34.956 255.72 28.243 257.064 22.245 257.064M15.268 255.287C22.321 257.351 32.989 255.217 40.126 253.787C41.709 253.471 43.142 253.187 44.362 252.975C52.479 251.189 60.813 249.353 67.784 244.944C59.584 249.282 50.306 251.162 41.31 252.985C39.272 253.398 37.241 253.81 35.237 254.248L34.6 254.357C28.818 255.345 22.838 256.363 17 255.649C16.4158 255.561 15.8369 255.441 15.266 255.289" fill="#212121"/>
<path d="M60.953 186.614C58.428 190.741 60.7 195.661 62.812 199.508C65.09 203.626 66.9144 207.979 68.253 212.491C70.878 221.505 71.583 231.304 69.21 240.448C69.1877 240.524 69.1382 240.589 69.0708 240.63C69.0035 240.671 68.9233 240.686 68.8456 240.672C68.768 240.657 68.6984 240.615 68.6505 240.552C68.6025 240.489 68.5795 240.411 68.586 240.332C69.594 231.109 69.448 221.809 67.151 212.794C66.0039 208.297 64.3493 203.944 62.219 199.821C60.044 195.812 57.827 190.67 60.419 186.278C60.4656 186.211 60.5364 186.164 60.6166 186.148C60.6968 186.131 60.7803 186.146 60.8496 186.19C60.9189 186.233 60.9688 186.302 60.9888 186.381C61.0088 186.461 60.9974 186.545 60.957 186.616" fill="#212121"/>
<path d="M68.9061 241.115C68.854 241.116 68.8021 241.111 68.7511 241.101C68.5636 241.069 68.3962 240.965 68.2841 240.811C68.1721 240.658 68.1244 240.466 68.1511 240.278C69.2731 230.021 68.8031 221.066 66.7231 212.9C65.5844 208.435 63.9405 204.115 61.8231 200.023C59.5881 195.901 57.3641 190.582 60.0361 186.053C60.107 185.942 60.2044 185.851 60.3195 185.788C60.4345 185.724 60.5636 185.69 60.6951 185.689C60.8336 185.695 60.9681 185.737 61.0856 185.81C61.203 185.884 61.2993 185.987 61.3651 186.109C61.4239 186.225 61.4509 186.354 61.4436 186.484C61.4362 186.614 61.3946 186.739 61.3231 186.848C59.0231 190.607 60.8661 195.048 63.1941 199.297C65.4882 203.443 67.3246 207.826 68.6711 212.369C71.5341 222.195 71.8711 231.943 69.6331 240.558C69.5906 240.719 69.4958 240.861 69.3636 240.962C69.2314 241.063 69.0693 241.117 68.9031 241.115M65.3581 205.746C66.2262 208.014 66.9654 210.329 67.5721 212.681C69.6005 221.148 70.1519 229.901 69.2021 238.556C70.8911 229.928 70.418 221.016 67.8251 212.615C67.1382 210.279 66.3145 207.986 65.3581 205.747" fill="#212121"/>
<path d="M10.511 242.816C15.47 241.627 20.423 243.032 25.164 243.934C39.364 246.266 54.51 248.234 68.408 243.523C68.4829 243.497 68.5646 243.5 68.6375 243.531C68.7105 243.562 68.7693 243.618 68.8028 243.69C68.8363 243.762 68.8419 243.844 68.8187 243.919C68.7955 243.995 68.745 244.059 68.677 244.1C52.641 251.677 34.36 246.071 17.844 243.2C15.4622 242.793 13.0226 242.872 10.672 243.432C10.5918 243.449 10.5079 243.435 10.438 243.392C10.3681 243.349 10.3175 243.281 10.2968 243.201C10.2761 243.122 10.287 243.038 10.3271 242.966C10.3672 242.894 10.4335 242.841 10.512 242.817" fill="#212121"/>
<path d="M50.164 248.351C42.07 248.351 33.807 246.726 25.696 245.131C23.08 244.616 20.373 244.085 17.771 243.631C15.452 243.233 13.0761 243.308 10.787 243.853C10.6637 243.892 10.5318 243.897 10.4062 243.866C10.2805 243.835 10.1658 243.769 10.075 243.677C9.97382 243.577 9.90108 243.452 9.86435 243.314C9.82761 243.177 9.8282 243.032 9.86605 242.895C9.90245 242.768 9.97285 242.654 10.0696 242.564C10.1664 242.475 10.2859 242.414 10.415 242.387C14.725 241.358 18.982 242.229 23.1 243.071C23.821 243.219 24.538 243.371 25.251 243.502C39.508 245.842 54.583 247.738 68.27 243.108C68.4472 243.038 68.6447 243.041 68.8198 243.116C68.9948 243.191 69.1333 243.332 69.205 243.508C69.2928 243.682 69.308 243.883 69.2472 244.068C69.1865 244.253 69.0547 244.406 68.881 244.494C63.0104 247.167 56.6142 248.486 50.165 248.355M31.609 245.382C43.415 247.575 55.374 249.01 66.409 244.612C55.199 247.84 43.244 247.047 31.609 245.382Z" fill="#212121"/>
<path d="M24.6381 205.211C27.1671 205.777 29.1901 207.478 30.9751 209.134C36.5471 213.98 41.2141 219.867 46.2481 225.185C52.9651 232.185 60.4591 238.816 69.6011 242.364C69.6756 242.394 69.736 242.451 69.7704 242.523C69.8048 242.596 69.8106 242.679 69.7867 242.755C69.7627 242.832 69.7107 242.897 69.6411 242.937C69.5714 242.977 69.4893 242.989 69.4111 242.971C59.7191 240.305 51.9331 233.317 45.2111 226.154C40.1281 220.729 36.1251 214.512 30.5391 209.606C28.7751 207.925 26.8751 206.288 24.4971 205.833C24.0891 205.766 24.2171 205.096 24.6361 205.212" fill="#212121"/>
<path d="M69.506 243.424C69.4332 243.424 69.3608 243.413 69.291 243.392C59.191 240.614 51.291 233.271 44.891 226.453C42.876 224.302 41.008 221.999 39.199 219.775C36.4966 216.249 33.502 212.957 30.247 209.933C28.547 208.31 26.704 206.701 24.414 206.261C24.2851 206.24 24.1643 206.184 24.0649 206.1C23.9655 206.015 23.8911 205.905 23.85 205.781C23.804 205.645 23.7957 205.498 23.826 205.357C23.8563 205.217 23.924 205.087 24.022 204.981C24.1126 204.886 24.2273 204.817 24.3539 204.782C24.4805 204.747 24.6143 204.746 24.741 204.781C27.412 205.381 29.513 207.181 31.272 208.809C34.9884 212.186 38.4908 215.791 41.759 219.604C43.324 221.355 44.942 223.165 46.566 224.881C52.312 230.868 60.144 238.222 69.757 241.953C69.9198 242.018 70.0554 242.136 70.141 242.289C70.2267 242.442 70.2571 242.619 70.2271 242.792C70.1972 242.964 70.1088 243.121 69.9767 243.236C69.8446 243.351 69.677 243.417 69.502 243.423M36.503 215.128C37.664 216.484 38.782 217.861 39.886 219.22C41.686 221.436 43.542 223.725 45.536 225.853C51.314 232.013 58.327 238.607 67.067 241.765C58.367 237.754 51.267 231.041 45.931 225.489C44.297 223.762 42.674 221.948 41.106 220.189C39.606 218.508 38.076 216.799 36.506 215.127" fill="#212121"/>
</g>
</svg>
