<svg width="202" height="838" viewBox="0 0 202 838" fill="none" xmlns="http://www.w3.org/2000/svg">
<mask id="mask0_1_356" style="mask-type:luminance" maskUnits="userSpaceOnUse" x="0" y="0" width="239" height="839">
<path d="M238.626 838.01L238.626 0L0.268982 0L0.268982 838.01H238.626Z" fill="white"/>
</mask>
<g mask="url(#mask0_1_356)">
<path d="M172.436 299.872C151.521 279.509 129.563 258.984 102.536 247.204C82.3209 238.419 59.8139 233.661 42.2539 219.559C36.3304 214.925 31.4154 209.131 27.8099 202.531C27.735 202.383 27.7192 202.212 27.7657 202.053C27.8122 201.894 27.9175 201.758 28.0603 201.674C28.2031 201.589 28.3726 201.563 28.5345 201.599C28.6964 201.635 28.8385 201.731 28.9319 201.868C32.9966 207.873 38.0718 213.129 43.9319 217.4C61.6109 230.753 83.6439 235.8 103.5 245.067C130.513 257.667 152.049 278.667 173.341 298.931C173.405 298.99 173.457 299.061 173.494 299.14C173.53 299.219 173.55 299.305 173.553 299.392C173.556 299.479 173.541 299.566 173.51 299.647C173.479 299.729 173.432 299.803 173.371 299.866C173.311 299.929 173.238 299.979 173.158 300.013C173.078 300.048 172.992 300.066 172.905 300.066C172.818 300.067 172.731 300.05 172.651 300.017C172.57 299.983 172.497 299.934 172.436 299.872Z" fill="white"/>
<path d="M169.318 297.075C163.074 290.58 159.643 282.226 155.418 274.425C151.566 266.451 148.118 258.136 146.774 249.325C146.76 249.208 146.789 249.089 146.855 248.991C146.921 248.893 147.019 248.821 147.134 248.79C147.248 248.759 147.369 248.769 147.476 248.82C147.583 248.871 147.668 248.958 147.716 249.066C152.626 261.314 156.279 274.006 162.565 285.666C164.665 289.506 166.735 293.466 169.975 296.361C170.46 296.77 169.775 297.546 169.312 297.079" fill="white"/>
<path d="M138.984 268.741C131.251 252.31 123.784 235.671 118.291 218.341C116.425 212.566 114.955 206.671 113.891 200.697C113.869 200.576 113.894 200.45 113.96 200.346C114.026 200.242 114.129 200.167 114.248 200.136C114.367 200.104 114.494 200.118 114.603 200.176C114.712 200.233 114.796 200.33 114.837 200.446C116.918 206.146 118.694 211.898 120.477 217.658C122.26 223.418 124.098 229.158 126.026 234.875C129.875 246.323 134.498 257.497 139.862 268.319C140.151 268.871 139.253 269.345 138.982 268.746" fill="white"/>
<path d="M121.695 256.859C102.532 237.406 83.3449 216.759 72.0439 191.577C71.999 191.464 71.9975 191.338 72.0398 191.224C72.0821 191.11 72.1651 191.016 72.2729 190.959C72.3806 190.903 72.5055 190.889 72.6233 190.919C72.7411 190.949 72.8436 191.022 72.9109 191.123C83.3969 208 95.0209 226.53 108.211 241.323C112.756 246.43 117.42 251.442 122.377 256.155C122.835 256.576 122.153 257.329 121.694 256.855" fill="white"/>
<path d="M150.808 279.344C124.708 269.874 96.8029 268.723 69.3139 268.903C69.1927 268.898 69.0777 268.848 68.9908 268.764C68.9039 268.679 68.8513 268.565 68.8431 268.444C68.8349 268.323 68.8717 268.204 68.9464 268.108C69.0212 268.013 69.1285 267.948 69.2479 267.927C89.9189 265.04 110.991 267.92 131.158 272.701C137.905 274.273 144.54 276.272 151.122 278.417C151.24 278.463 151.335 278.552 151.388 278.666C151.442 278.781 151.449 278.911 151.408 279.031C151.367 279.151 151.282 279.25 151.17 279.308C151.058 279.366 150.929 279.379 150.808 279.344Z" fill="white"/>
<path d="M118.061 255.173C92.6899 247.766 65.7609 243.024 39.5229 248.395C39.4035 248.415 39.2809 248.39 39.1786 248.325C39.0763 248.26 39.0013 248.16 38.9681 248.044C38.9348 247.927 38.9456 247.803 38.9983 247.694C39.051 247.585 39.142 247.499 39.2539 247.453C58.5369 240.522 79.5759 244.72 98.9199 249.205C105.435 250.705 111.866 252.527 118.32 254.231C118.442 254.268 118.545 254.351 118.607 254.463C118.668 254.575 118.684 254.707 118.65 254.83C118.615 254.953 118.534 255.058 118.424 255.122C118.313 255.186 118.182 255.204 118.058 255.173" fill="white"/>
<path d="M155.895 271.081C159.296 264.675 160.343 257.28 158.856 250.181C157.581 244.199 154.565 238.764 151.988 233.218C149.218 227.258 146.925 221.088 145.128 214.766C142.777 224.446 140.828 234.406 141.828 244.316C142.828 254.226 147.145 264.203 155.228 270.03" fill="white"/>
<path d="M155.464 270.85C163.774 254.966 156.108 243.417 149.415 229.082C147.425 224.497 145.712 219.797 144.283 215.007L145.983 214.973C144.83 219.781 143.931 224.647 143.291 229.55C141.291 243.782 143.855 260.068 155.507 269.635C155.557 269.675 155.599 269.725 155.629 269.782C155.66 269.838 155.679 269.9 155.686 269.964C155.692 270.028 155.686 270.093 155.668 270.154C155.649 270.216 155.619 270.273 155.578 270.323C155.502 270.416 155.395 270.478 155.276 270.497C155.158 270.517 155.037 270.492 154.935 270.429C150.654 267.585 147.195 263.666 144.904 259.065C140.174 249.94 139.704 239.239 141.167 229.265C141.945 224.304 142.984 219.388 144.28 214.537C144.332 214.353 144.442 214.191 144.594 214.075C144.746 213.959 144.932 213.896 145.123 213.895C145.314 213.894 145.5 213.955 145.653 214.069C145.807 214.183 145.919 214.344 145.973 214.527C147.261 219.292 148.833 223.977 150.679 228.555C154.25 237.715 160.279 246.524 159.987 256.779C159.915 261.842 158.662 266.817 156.327 271.31C156.297 271.367 156.256 271.417 156.206 271.458C156.156 271.498 156.099 271.529 156.038 271.548C155.976 271.566 155.912 271.573 155.848 271.566C155.784 271.56 155.722 271.541 155.665 271.511C155.608 271.481 155.558 271.44 155.517 271.39C155.477 271.34 155.446 271.283 155.427 271.222C155.409 271.16 155.402 271.096 155.409 271.032C155.415 270.968 155.434 270.907 155.464 270.85Z" fill="white"/>
<path d="M125.206 234.572C129.046 222.743 128.347 209.79 125.124 197.78C121.901 185.77 116.264 174.551 110.274 163.654C110.791 172.261 109.524 180.854 108.718 189.442C107.912 198.03 107.591 206.83 109.933 215.127C112.275 223.424 117.668 231.236 125.591 234.635" fill="white"/>
<path d="M124.741 234.42C132.614 210.108 121.566 185.02 109.513 164.07L111.133 163.602C112.05 176.742 108.933 189.578 109.285 202.312C109.403 214.72 114.035 228.374 125.78 234.184C125.889 234.241 125.973 234.338 126.014 234.454C126.056 234.57 126.051 234.698 126.003 234.812C125.954 234.925 125.865 235.016 125.752 235.067C125.639 235.117 125.512 235.123 125.395 235.084C112.533 230.09 107.027 215.226 106.995 202.369C106.68 189.199 110.032 176.489 109.405 163.706C109.396 163.511 109.453 163.32 109.566 163.162C109.68 163.004 109.843 162.888 110.03 162.834C110.217 162.78 110.416 162.79 110.597 162.863C110.777 162.936 110.927 163.068 111.024 163.237C113.97 168.724 116.824 174.28 119.338 179.998C126.883 196.962 131.463 216.536 125.668 234.724C125.624 234.842 125.537 234.939 125.423 234.995C125.31 235.05 125.179 235.059 125.059 235.02C124.939 234.982 124.838 234.898 124.778 234.787C124.719 234.675 124.704 234.545 124.738 234.424" fill="white"/>
<path d="M106.296 239.942C101.241 223.286 94.2889 203.094 82.7039 190.106C73.1249 179.371 60.0039 172.381 49.8789 162.159C56.7169 170.719 59.0909 181.869 62.5789 192.253C65.9859 202.399 70.6789 212.226 77.4579 220.509C84.2369 228.792 95.9699 237.268 106.241 240.266" fill="white"/>
<path d="M105.829 240.084C101.087 224.464 95.7029 208.624 86.1539 195.242C81.4329 188.542 75.0279 183.305 68.5249 178.342C61.9949 173.385 55.1949 168.642 49.2609 162.776L50.5609 161.617C61.0959 175.171 61.8999 193.099 70.3449 207.628C77.9039 222.487 90.7647 233.967 106.383 239.798C106.507 239.834 106.612 239.919 106.675 240.033C106.737 240.146 106.752 240.28 106.715 240.405C106.679 240.529 106.595 240.634 106.481 240.696C106.367 240.759 106.233 240.773 106.109 240.737C97.8859 238.521 90.5359 233.946 84.0179 228.577C77.5377 223.043 72.204 216.293 68.3179 208.709C64.4905 201.188 61.4381 193.298 59.2079 185.159C56.8079 177.204 54.2749 169.159 49.1929 162.696C49.0605 162.52 48.9996 162.301 49.0222 162.082C49.0448 161.863 49.1494 161.66 49.3149 161.515C49.4805 161.37 49.6948 161.293 49.9149 161.299C50.1351 161.305 50.3447 161.394 50.5019 161.548C61.9569 173.217 77.3819 180.999 86.9879 194.638C96.5989 208.181 101.852 224.118 106.769 239.8C106.8 239.922 106.783 240.052 106.721 240.162C106.659 240.272 106.557 240.354 106.436 240.391C106.316 240.428 106.185 240.416 106.073 240.359C105.96 240.302 105.874 240.203 105.832 240.084" fill="white"/>
<path d="M65.5969 231.307C57.8449 227.841 52.4409 220.671 48.0189 213.422C43.5969 206.173 39.6999 198.422 33.5669 192.546C26.1669 185.459 15.8909 181.501 9.76693 173.287C9.61693 179.459 11.2139 185.54 13.1669 191.397C17.6549 204.829 24.7789 218.321 37.0589 225.379C46.2659 230.669 57.2439 231.701 67.8439 232.342" fill="white"/>
<path d="M65.3959 231.753C49.0959 224.131 45.3779 204.521 33.1009 192.878C25.5759 185.878 15.5899 182.195 9.10089 173.778L10.5949 173.304C10.5039 180.884 13.0029 188.304 15.7169 195.439C21.0539 209.459 30.3539 223.239 45.2919 227.831C52.4769 230.298 60.1979 231.072 67.8759 231.851C68.004 231.861 68.1232 231.92 68.2075 232.017C68.2918 232.114 68.3346 232.241 68.3266 232.369C68.3186 232.497 68.2604 232.617 68.1647 232.703C68.0689 232.788 67.9433 232.833 67.8149 232.827C60.0849 232.662 52.2249 232.139 44.6419 229.827C29.0209 225.351 18.9919 210.763 13.7839 196.176C12.411 192.516 11.2474 188.782 10.2989 184.99C9.32221 181.156 8.86313 177.208 8.9339 173.252C8.94206 173.08 9.00281 172.916 9.10789 172.78C9.21298 172.645 9.35729 172.545 9.52119 172.494C9.6851 172.443 9.86065 172.444 10.024 172.497C10.1873 172.549 10.3304 172.651 10.4339 172.788C16.4439 180.922 26.6119 185.024 33.8759 192.066C46.0329 203.725 49.6839 223.4 65.7969 230.857C66.3669 231.091 65.9889 232.033 65.3969 231.75" fill="white"/>
<path d="M65.8849 244.993C56.3629 240.193 41.3369 236.893 30.8169 238.631C20.2969 240.369 10.3499 244.699 1.1339 250.059C8.73477 253.734 17.0527 255.686 25.4947 255.778C33.9367 255.869 42.2951 254.098 49.9739 250.589C55.1209 248.189 60.2079 244.94 65.8849 244.989" fill="white"/>
<path d="M65.6639 245.429C55.509 240.422 44.22 238.16 32.9199 238.87C21.7339 240.294 11.2039 245.094 1.56392 250.801L1.51192 249.29C6.51988 251.653 11.8544 253.25 17.3369 254.028C28.3203 255.647 39.5376 254.105 49.6769 249.583C54.7769 247.35 60.0439 244.153 65.8869 244.501C66.0129 244.508 66.1315 244.563 66.218 244.654C66.3045 244.746 66.3522 244.868 66.3511 244.994C66.3501 245.12 66.3004 245.241 66.2125 245.332C66.1245 245.422 66.005 245.475 65.8789 245.48C60.2509 245.78 55.5309 249.012 50.5549 251.458C40.114 256.407 28.4059 258.032 17.0119 256.114C11.3583 255.177 5.87769 253.396 0.753922 250.829C0.651836 250.781 0.560372 250.712 0.484863 250.628C0.409355 250.544 0.351308 250.446 0.314087 250.34C0.276866 250.233 0.261213 250.12 0.268051 250.007C0.27489 249.895 0.304074 249.784 0.353912 249.683C10.2263 243.51 21.2855 239.48 32.8149 237.854C44.2599 237.021 55.7629 239.73 66.1019 244.554C66.2156 244.614 66.3013 244.716 66.3404 244.838C66.3796 244.961 66.3692 245.093 66.3113 245.208C66.2535 245.323 66.1529 245.41 66.0313 245.452C65.9096 245.493 65.7766 245.485 65.6609 245.429" fill="white"/>
<path d="M109.347 270.246C96.7826 263.187 82.1282 260.794 67.9709 263.489C58.0569 265.414 48.6879 269.804 38.6709 271.054C46.2509 278.354 57.0789 281.661 67.6049 281.602C78.1309 281.543 88.4239 278.393 98.0839 274.212C102.09 272.479 106.084 270.541 110.409 269.912" fill="white"/>
<path d="M109.105 270.671C98.5026 264.685 86.3315 262.062 74.2049 263.151C61.9539 264.113 50.9679 270.24 38.7759 271.907L39.2689 270.431C43.8635 274.629 49.4508 277.588 55.5049 279.031C67.6989 282.196 80.5219 279.731 92.1949 275.482C98.2309 273.495 103.895 270.135 110.337 269.425C110.401 269.418 110.465 269.425 110.527 269.443C110.588 269.462 110.646 269.492 110.695 269.533C110.745 269.574 110.786 269.624 110.817 269.681C110.847 269.738 110.866 269.8 110.872 269.864C110.881 269.984 110.847 270.105 110.774 270.202C110.702 270.299 110.596 270.366 110.478 270.392C107.427 271.083 104.472 272.143 101.678 273.549C87.3929 280.518 70.8019 285.442 54.9619 281.079C48.6235 279.428 42.8096 276.191 38.0679 271.673C37.9854 271.594 37.9192 271.5 37.8733 271.396C37.8274 271.291 37.8026 271.179 37.8004 271.065C37.7981 270.951 37.8185 270.838 37.8603 270.732C37.9021 270.626 37.9645 270.529 38.0439 270.448C44.172 269.332 50.2231 267.829 56.1609 265.948C73.5559 259.86 93.4089 260.548 109.588 269.821C109.693 269.888 109.769 269.994 109.799 270.116C109.829 270.237 109.811 270.366 109.749 270.475C109.687 270.584 109.586 270.665 109.466 270.701C109.346 270.738 109.217 270.726 109.105 270.671Z" fill="white"/>
<path d="M210.718 279.47C189.428 299.734 167.89 320.736 140.877 333.334C121.022 342.599 98.9859 347.65 81.3089 361.001C75.449 365.273 70.3739 370.528 66.3089 376.533C66.2175 376.675 66.0748 376.776 65.9106 376.815C65.7465 376.854 65.5736 376.827 65.4283 376.742C65.283 376.656 65.1765 376.517 65.1312 376.355C65.0858 376.192 65.1051 376.019 65.1849 375.87C68.7905 369.271 73.7056 363.477 79.6289 358.844C97.1909 344.744 119.696 339.982 139.911 331.197C166.939 319.417 188.894 298.897 209.811 278.529C209.872 278.467 209.945 278.418 210.026 278.385C210.106 278.351 210.193 278.334 210.28 278.335C210.367 278.336 210.453 278.354 210.533 278.388C210.613 278.422 210.686 278.472 210.746 278.535C210.807 278.598 210.854 278.672 210.885 278.754C210.916 278.835 210.931 278.922 210.928 279.009C210.925 279.096 210.905 279.182 210.869 279.261C210.832 279.34 210.78 279.411 210.716 279.47" fill="white"/>
<path d="M207.361 282.047C204.12 284.936 202.054 288.902 199.949 292.742C193.664 304.398 190.011 317.088 185.102 329.342C185.049 329.445 184.963 329.526 184.858 329.572C184.753 329.618 184.634 329.627 184.524 329.596C184.413 329.566 184.316 329.498 184.249 329.404C184.182 329.31 184.15 329.196 184.158 329.081C186.276 315.872 192.611 303.813 199.042 292.25C201.181 288.402 203.429 284.483 206.698 281.333C207.152 280.889 207.857 281.619 207.361 282.052" fill="white"/>
<path d="M177.249 310.091C166.115 331.639 160.019 355.121 152.223 377.963C152.178 378.075 152.094 378.166 151.986 378.22C151.879 378.274 151.755 378.287 151.639 378.256C151.522 378.225 151.421 378.153 151.355 378.053C151.288 377.952 151.26 377.831 151.277 377.712C154.503 359.77 161.59 342.812 168.803 326.173C171.189 320.607 173.803 315.143 176.368 309.663C176.625 309.094 177.551 309.507 177.248 310.09" fill="white"/>
<path d="M159.757 322.244C140 340.712 124.331 364.273 110.291 387.281C110.223 387.382 110.121 387.455 110.003 387.485C109.885 387.515 109.76 387.5 109.652 387.443C109.544 387.387 109.461 387.292 109.419 387.178C109.377 387.064 109.378 386.938 109.423 386.825C117.728 367.867 131.082 351.653 144.823 336.388C149.403 331.275 154.223 326.388 159.078 321.542C159.512 321.099 160.244 321.794 159.761 322.242" fill="white"/>
<path d="M188.499 299.985C162.26 308.412 134.224 314.133 106.624 310.476C106.504 310.455 106.397 310.39 106.322 310.294C106.247 310.198 106.21 310.078 106.218 309.957C106.227 309.836 106.28 309.722 106.367 309.637C106.454 309.552 106.569 309.503 106.691 309.498C127.332 309.436 148.08 309.298 168.302 304.692C175.032 303.193 181.67 301.312 188.186 299.057C188.767 298.84 189.13 299.791 188.501 299.984" fill="white"/>
<path d="M155.696 324.171C130.312 330.562 102.48 339.848 76.6279 330.947C76.5151 330.902 76.423 330.816 76.3696 330.707C76.3161 330.597 76.305 330.472 76.3384 330.355C76.3719 330.238 76.4475 330.138 76.5506 330.073C76.6537 330.009 76.7771 329.985 76.8969 330.006C96.4779 333.96 116.654 332.461 136.061 328.187C142.556 326.71 149.029 325.093 155.433 323.228C155.557 323.196 155.688 323.215 155.799 323.279C155.909 323.343 155.99 323.448 156.025 323.571C156.059 323.694 156.043 323.826 155.982 323.938C155.92 324.05 155.817 324.133 155.695 324.17" fill="white"/>
<path d="M193.272 307.323C196.673 313.729 197.72 321.124 196.233 328.223C194.958 334.205 191.942 339.64 189.365 345.186C186.596 351.146 184.302 357.316 182.505 363.638C180.154 353.958 178.205 343.998 179.205 334.088C180.205 324.178 184.522 314.201 192.605 308.374" fill="white"/>
<path d="M193.705 307.09C198.529 316.067 198.393 327.12 194.119 336.25C189.978 345.299 185.807 354.224 183.35 363.875C183.296 364.061 183.182 364.224 183.026 364.339C182.87 364.454 182.681 364.514 182.487 364.511C182.293 364.507 182.106 364.439 181.955 364.318C181.803 364.197 181.696 364.029 181.65 363.841C180.357 358.996 179.319 354.087 178.542 349.133C177.784 344.119 177.622 339.033 178.059 333.981C179.067 323.961 183.608 313.556 192.309 307.973C192.414 307.905 192.542 307.88 192.665 307.904C192.788 307.927 192.898 307.997 192.971 308.099C193.044 308.201 193.076 308.327 193.059 308.451C193.042 308.575 192.979 308.688 192.881 308.767C185.255 314.991 181.313 324.604 180.339 334.21C179.339 344.01 181.184 353.856 183.356 363.427L181.656 363.395C183.085 358.604 184.799 353.903 186.788 349.316C193.488 334.995 201.146 323.409 192.837 307.55C192.519 307.01 193.412 306.507 193.7 307.089" fill="white"/>
<path d="M162.583 343.831C166.423 355.66 165.724 368.613 162.501 380.623C159.278 392.633 153.644 403.852 147.648 414.748C148.165 406.141 146.898 397.548 146.093 388.96C145.288 380.372 144.964 371.572 147.306 363.275C149.648 354.978 155.037 347.163 162.965 343.763" fill="white"/>
<path d="M163.049 343.679C170.791 368.279 160.116 393.679 148.405 415.164C148.309 415.334 148.159 415.466 147.978 415.54C147.798 415.613 147.598 415.624 147.41 415.57C147.223 415.516 147.06 415.4 146.946 415.241C146.833 415.083 146.776 414.89 146.786 414.696C147.414 401.913 144.062 389.203 144.376 376.033C144.504 366.249 147.312 355.823 154.487 348.733C156.847 346.377 159.667 344.534 162.772 343.318C162.891 343.267 163.026 343.265 163.146 343.313C163.267 343.362 163.363 343.456 163.414 343.575C163.465 343.695 163.467 343.829 163.419 343.95C163.37 344.07 163.276 344.167 163.157 344.218C151.411 350.033 146.782 363.681 146.662 376.092C146.305 388.826 149.427 401.663 148.51 414.801L146.89 414.333C158.941 393.391 169.99 368.29 162.118 343.984C161.906 343.398 162.867 343.057 163.048 343.684" fill="white"/>
<path d="M143.674 338.461C138.616 355.112 131.667 375.309 120.082 388.295C110.503 399.032 97.382 406.021 87.257 416.242C94.095 407.684 96.4679 396.533 99.9569 386.148C103.364 376.002 108.057 366.177 114.836 357.892C121.615 349.607 133.348 341.133 143.624 338.135" fill="white"/>
<path d="M144.141 338.604C139.226 354.284 133.973 370.222 124.362 383.766C119.55 390.566 113.201 396.066 106.725 401.129C100.244 406.212 93.5719 411.041 87.8759 416.856C87.7185 417.013 87.507 417.104 87.2847 417.11C87.0625 417.117 86.8462 417.038 86.6801 416.89C86.5141 416.742 86.4108 416.536 86.3915 416.315C86.3721 416.093 86.4381 415.873 86.5759 415.698C91.6509 409.233 94.1859 401.198 96.5829 393.245C101.183 377.215 108.17 360.725 121.397 349.828C127.914 344.457 135.265 339.882 143.486 337.666C143.61 337.63 143.744 337.644 143.858 337.707C143.972 337.769 144.056 337.874 144.092 337.999C144.129 338.123 144.114 338.257 144.052 338.371C143.989 338.484 143.884 338.569 143.76 338.605C118.58 347.832 105.632 369.105 98.6299 393.881C96.0979 401.801 93.3819 410.068 87.9369 416.787L86.6369 415.628C92.5719 409.764 99.3709 405.019 105.901 400.062C112.406 395.098 118.808 389.862 123.532 383.162C133.08 369.781 138.463 353.94 143.206 338.32C143.364 337.728 144.347 337.983 144.141 338.604Z" fill="white"/>
<path d="M102.974 347.094C95.222 350.56 89.818 357.73 85.396 364.979C80.974 372.228 77.077 379.979 70.944 385.855C63.544 392.942 53.268 396.9 47.144 405.114C46.994 398.942 48.5909 392.861 50.5439 387.004C55.0319 373.572 62.156 360.079 74.436 353.022C83.643 347.732 94.6209 346.7 105.221 346.059" fill="white"/>
<path d="M103.173 347.542C87.0549 355.003 83.4109 374.671 71.2499 386.333C63.9879 393.376 53.8179 397.479 47.8079 405.611C47.7055 405.751 47.5619 405.855 47.3973 405.909C47.2326 405.962 47.0553 405.963 46.8902 405.91C46.7252 405.858 46.5808 405.755 46.4774 405.616C46.374 405.477 46.3168 405.309 46.3139 405.136C46.2433 401.184 46.7017 397.239 47.6769 393.408C50.6229 382.037 54.9769 370.898 62.5499 361.708C72.7199 348.608 89.6019 345.578 105.194 345.573C105.322 345.568 105.447 345.614 105.542 345.7C105.637 345.786 105.694 345.905 105.702 346.033C105.71 346.161 105.667 346.287 105.583 346.384C105.499 346.481 105.381 346.541 105.253 346.551C90.0789 347.768 74.1949 350.564 64.2929 363.172C59.3929 368.955 55.8979 375.852 53.0929 382.961C50.3789 390.1 47.8799 397.516 47.9709 405.096L46.4709 404.622C52.9629 396.207 62.9469 392.532 70.4709 385.522C82.7439 373.882 86.4709 354.266 102.766 346.647C102.884 346.594 103.019 346.59 103.14 346.636C103.261 346.683 103.359 346.775 103.412 346.894C103.465 347.012 103.469 347.147 103.423 347.268C103.377 347.389 103.284 347.487 103.166 347.54" fill="white"/>
<path d="M103.261 333.41C93.7389 338.21 78.7129 341.51 68.1929 339.77C57.6729 338.03 47.7259 333.702 38.5099 328.342C46.1108 324.667 54.4287 322.715 62.8707 322.623C71.3128 322.531 79.6711 324.303 87.3499 327.812C92.4969 330.212 97.5839 333.461 103.261 333.412" fill="white"/>
<path d="M103.481 333.848C93.1429 338.672 81.6389 341.379 70.1939 340.548C58.7739 339.136 47.9939 334.701 38.0789 329.084C37.9447 329.006 37.8341 328.893 37.7589 328.757C37.6838 328.621 37.647 328.467 37.6523 328.312C37.6576 328.157 37.705 328.006 37.7893 327.875C37.8735 327.745 37.9916 327.64 38.1309 327.571C43.2548 325.006 48.7349 323.225 54.3879 322.288C65.7819 320.368 77.4906 321.994 87.9309 326.944C92.9069 329.389 97.6309 332.625 103.256 332.922C103.38 332.929 103.497 332.983 103.583 333.073C103.669 333.163 103.718 333.283 103.719 333.407C103.72 333.532 103.673 333.652 103.589 333.744C103.504 333.835 103.388 333.891 103.264 333.9C97.4189 334.25 92.1519 331.053 87.0519 328.818C79.4677 325.428 71.2458 323.7 62.9386 323.751C54.6314 323.802 46.4312 325.63 38.8889 329.112L38.9409 327.599C43.7654 330.517 48.8148 333.046 54.0409 335.162C59.2494 337.309 64.7121 338.777 70.2949 339.532C81.595 340.242 92.884 337.98 103.039 332.973C103.588 332.673 104.07 333.573 103.48 333.846" fill="white"/>
<path d="M146.723 308.157C134.159 315.216 119.504 317.61 105.347 314.914C95.4329 312.989 86.0659 308.599 76.0469 307.349C83.6259 300.049 94.4529 296.742 104.98 296.801C115.507 296.86 125.799 300.01 135.459 304.191C139.465 305.924 143.459 307.863 147.784 308.491" fill="white"/>
<path d="M146.961 308.583C136.156 314.597 123.811 317.274 111.486 316.278C99.2549 315.448 87.9649 309.652 75.9339 308.206C75.773 308.185 75.6212 308.119 75.496 308.016C75.3708 307.912 75.2771 307.776 75.2257 307.622C75.1743 307.468 75.1672 307.302 75.2053 307.145C75.2433 306.987 75.325 306.843 75.4409 306.729C80.1826 302.211 85.9965 298.974 92.3349 297.323C108.179 292.962 124.766 297.883 139.051 304.853C141.845 306.258 144.8 307.318 147.851 308.01C147.979 308.029 148.095 308.098 148.173 308.202C148.25 308.306 148.283 308.436 148.264 308.565C148.246 308.693 148.177 308.809 148.073 308.886C147.969 308.964 147.838 308.997 147.71 308.978C141.266 308.27 135.604 304.908 129.568 302.921C117.897 298.672 105.068 296.207 92.8779 299.374C86.8236 300.816 81.236 303.776 76.6419 307.974L76.1509 306.498C82.3079 307.346 88.1509 309.31 93.9359 311.171C110.983 317.582 130.589 316.986 146.481 307.735C147.013 307.405 147.543 308.284 146.964 308.586" fill="white"/>
<path d="M173.34 538.719C152.05 558.983 130.512 579.985 103.499 592.583C83.6439 601.847 61.6099 606.899 43.9309 620.25C38.0715 624.522 32.9964 629.777 28.9309 635.782C28.8395 635.924 28.6968 636.025 28.5326 636.064C28.3685 636.103 28.1956 636.076 28.0503 635.991C27.905 635.905 27.7985 635.766 27.7532 635.604C27.7078 635.441 27.727 635.268 27.8069 635.119C31.4143 628.521 36.3303 622.728 42.2539 618.096C59.8159 603.996 82.3209 599.235 102.536 590.45C129.564 578.67 151.519 558.15 172.436 537.782C172.497 537.72 172.57 537.671 172.651 537.638C172.731 537.604 172.818 537.587 172.905 537.588C172.992 537.588 173.078 537.607 173.158 537.641C173.238 537.675 173.311 537.725 173.371 537.788C173.432 537.851 173.479 537.925 173.51 538.007C173.541 538.088 173.556 538.175 173.553 538.262C173.55 538.349 173.53 538.435 173.494 538.514C173.457 538.593 173.405 538.664 173.341 538.723" fill="white"/>
<path d="M169.983 541.295C166.742 544.184 164.676 548.148 162.571 551.99C156.286 563.646 152.633 576.336 147.724 588.59C147.671 588.693 147.585 588.774 147.48 588.82C147.375 588.866 147.256 588.875 147.146 588.844C147.035 588.814 146.938 588.746 146.871 588.652C146.804 588.558 146.772 588.444 146.78 588.329C148.898 575.119 155.233 563.061 161.664 551.498C163.803 547.65 166.051 543.731 169.32 540.581C169.774 540.137 170.479 540.867 169.983 541.299" fill="white"/>
<path d="M139.868 569.341C128.734 590.889 122.638 614.371 114.844 637.213C114.798 637.324 114.714 637.415 114.607 637.468C114.499 637.521 114.376 637.534 114.26 637.503C114.144 637.472 114.044 637.4 113.977 637.301C113.91 637.201 113.881 637.081 113.897 636.962C117.124 619.019 124.21 602.062 131.423 585.423C133.809 579.857 136.423 574.393 138.988 568.913C139.245 568.344 140.171 568.758 139.868 569.341Z" fill="white"/>
<path d="M122.379 581.494C102.623 599.962 86.9529 623.523 72.9129 646.531C72.8447 646.631 72.7422 646.702 72.6247 646.732C72.5073 646.761 72.3831 646.746 72.276 646.69C72.1689 646.633 72.0862 646.539 72.0438 646.426C72.0013 646.313 72.0021 646.188 72.0459 646.075C80.3459 627.117 93.7029 610.903 107.44 595.637C112.02 590.525 116.84 585.642 121.695 580.793C122.129 580.35 122.859 581.045 122.378 581.493" fill="white"/>
<path d="M151.123 559.233C124.884 567.66 96.8469 573.38 69.2479 569.724C69.1283 569.703 69.0207 569.638 68.9458 569.542C68.8709 569.447 68.834 569.327 68.8422 569.205C68.8504 569.084 68.9031 568.97 68.9901 568.885C69.0772 568.801 69.1925 568.751 69.3139 568.746C89.9549 568.684 110.703 568.546 130.925 563.94C137.655 562.441 144.293 560.56 150.809 558.305C151.39 558.088 151.753 559.039 151.124 559.232" fill="white"/>
<path d="M118.32 583.421C92.9779 589.808 65.0519 599.098 39.2519 590.197C39.139 590.152 39.047 590.066 38.9935 589.957C38.9401 589.847 38.929 589.722 38.9624 589.605C38.9958 589.488 39.0714 589.388 39.1746 589.323C39.2777 589.259 39.4011 589.235 39.5209 589.256C59.1019 593.21 79.2779 591.711 98.6849 587.437C105.18 585.96 111.653 584.343 118.057 582.478C118.181 582.446 118.312 582.465 118.423 582.529C118.533 582.593 118.614 582.698 118.648 582.821C118.683 582.944 118.667 583.076 118.606 583.188C118.544 583.3 118.441 583.383 118.319 583.42" fill="white"/>
<path d="M155.895 566.571C159.296 572.977 160.343 580.372 158.856 587.471C157.581 593.453 154.565 598.888 151.988 604.434C149.218 610.394 146.925 616.564 145.128 622.886C142.777 613.208 140.828 603.246 141.828 593.336C142.828 583.426 147.145 573.449 155.228 567.622" fill="white"/>
<path d="M156.328 566.34C161.152 575.317 161.016 586.37 156.742 595.5C152.601 604.549 148.43 613.474 145.973 623.125C145.919 623.311 145.805 623.474 145.649 623.589C145.493 623.704 145.304 623.764 145.11 623.761C144.916 623.757 144.729 623.689 144.578 623.568C144.426 623.447 144.319 623.279 144.273 623.091C142.98 618.246 141.942 613.337 141.165 608.383C140.407 603.369 140.245 598.283 140.682 593.231C141.69 583.211 146.231 572.806 154.932 567.223C155.037 567.155 155.165 567.13 155.288 567.154C155.411 567.177 155.521 567.247 155.594 567.349C155.667 567.451 155.699 567.577 155.682 567.701C155.665 567.825 155.602 567.938 155.504 568.017C147.878 574.241 143.936 583.854 142.962 593.46C141.962 603.26 143.807 613.106 145.979 622.677L144.279 622.645C145.708 617.854 147.422 613.153 149.411 608.566C156.111 594.245 163.771 582.659 155.46 566.8C155.142 566.26 156.035 565.757 156.323 566.339" fill="white"/>
<path d="M125.206 603.081C129.046 614.91 128.347 627.863 125.124 639.873C121.901 651.883 116.264 663.102 110.274 673.998C110.791 665.391 109.524 656.798 108.718 648.21C107.912 639.622 107.591 630.822 109.933 622.525C112.275 614.228 117.668 606.414 125.591 603.017" fill="white"/>
<path d="M125.67 602.93C133.412 627.53 122.737 652.93 111.026 674.415C110.93 674.584 110.78 674.717 110.599 674.791C110.419 674.864 110.219 674.875 110.031 674.821C109.844 674.767 109.681 674.651 109.567 674.492C109.454 674.334 109.397 674.141 109.407 673.947C110.035 661.164 106.683 648.447 106.997 635.284C107.125 625.5 109.933 615.074 117.108 607.984C119.467 605.628 122.288 603.784 125.393 602.569C125.512 602.518 125.647 602.516 125.768 602.564C125.888 602.613 125.984 602.707 126.035 602.826C126.086 602.946 126.088 603.08 126.04 603.201C125.991 603.321 125.897 603.418 125.778 603.469C114.032 609.282 109.403 622.932 109.283 635.343C108.926 648.075 112.048 660.912 111.131 674.052L109.511 673.584C121.562 652.642 132.611 627.541 124.739 603.234C124.705 603.112 124.72 602.982 124.779 602.871C124.839 602.76 124.94 602.676 125.06 602.637C125.18 602.599 125.311 602.608 125.424 602.663C125.538 602.718 125.625 602.815 125.669 602.934" fill="white"/>
<path d="M106.296 597.711C101.238 614.362 94.2889 634.559 82.7039 647.545C73.1249 658.282 60.0039 665.271 49.8789 675.492C56.7169 666.934 59.0909 655.783 62.5789 645.398C65.9859 635.252 70.6789 625.427 77.4579 617.142C84.2369 608.857 95.9699 600.383 106.241 597.385" fill="white"/>
<path d="M106.763 597.856C101.848 613.536 96.5929 629.474 86.9839 643.018C82.1719 649.818 75.8229 655.318 69.3469 660.381C62.8659 665.463 56.1939 670.293 50.4979 676.109C50.3405 676.266 50.129 676.357 49.9067 676.363C49.6844 676.37 49.4682 676.291 49.3021 676.143C49.1361 675.995 49.0328 675.789 49.0134 675.568C48.9941 675.346 49.0601 675.125 49.1979 674.951C54.2729 668.486 56.8079 660.451 59.2049 652.498C63.8049 636.468 70.7919 619.978 84.0189 609.08C90.5359 603.711 97.8869 599.136 106.108 596.92C106.232 596.884 106.366 596.898 106.48 596.961C106.594 597.023 106.678 597.128 106.714 597.252C106.751 597.377 106.736 597.511 106.674 597.625C106.611 597.738 106.506 597.823 106.382 597.859C81.2019 607.085 68.2539 628.359 61.2539 653.133C58.7199 661.055 56.0039 669.322 50.5589 676.04L49.2589 674.881C55.1949 669.019 61.9929 664.272 68.5229 659.315C75.0279 654.351 81.4299 649.115 86.1539 642.415C95.7029 629.033 101.086 613.195 105.829 597.573C105.987 596.981 106.971 597.237 106.765 597.857" fill="white"/>
<path d="M65.5969 606.345C57.8449 609.811 52.4409 616.981 48.0189 624.23C43.5969 631.479 39.6999 639.23 33.5669 645.106C26.1669 652.193 15.8909 656.151 9.76693 664.365C9.61693 658.193 11.2139 652.112 13.1669 646.255C17.6549 632.823 24.7789 619.331 37.0589 612.274C46.2659 606.982 57.2439 605.951 67.8439 605.31" fill="white"/>
<path d="M65.7969 606.792C49.6789 614.253 46.0349 633.921 33.8739 645.583C26.6119 652.625 16.4419 656.729 10.4319 664.861C10.3293 665 10.1858 665.104 10.0214 665.157C9.85701 665.21 9.68008 665.211 9.51535 665.159C9.35063 665.106 9.20639 665.004 9.10285 664.865C8.9993 664.727 8.94164 664.56 8.93795 664.387C8.86726 660.435 9.32565 656.491 10.3009 652.661C13.2469 641.29 17.6009 630.149 25.1739 620.961C35.3439 607.861 52.2259 604.831 67.8179 604.826C67.946 604.821 68.0709 604.866 68.1659 604.952C68.2609 605.038 68.3184 605.158 68.3261 605.286C68.3339 605.414 68.2912 605.54 68.2072 605.637C68.1232 605.734 68.0047 605.794 67.8769 605.804C52.7569 607.004 36.7619 609.849 26.9169 622.425C22.0169 628.208 18.5219 635.104 15.7169 642.214C13.0029 649.353 10.5039 656.769 10.5949 664.351L9.09494 663.875C15.5869 655.46 25.5729 651.784 33.0949 644.775C45.3679 633.135 49.0949 613.519 65.3899 605.9C65.5084 605.847 65.643 605.843 65.7642 605.889C65.8855 605.936 65.9834 606.028 66.0364 606.147C66.0895 606.265 66.0933 606.4 66.0471 606.521C66.0009 606.642 65.9084 606.74 65.7899 606.793" fill="white"/>
<path d="M65.8849 592.658C56.3629 597.458 41.3369 600.758 30.8169 599.018C20.2969 597.278 10.3499 592.95 1.1339 587.588C8.73492 583.914 17.0529 581.961 25.4949 581.87C33.937 581.779 42.2952 583.551 49.9739 587.06C55.1209 589.46 60.2079 592.709 65.8849 592.66" fill="white"/>
<path d="M66.1029 593.096C55.7649 597.918 44.2609 600.627 32.8169 599.796C21.3949 598.384 10.6169 593.949 0.700912 588.332C0.566925 588.254 0.45663 588.14 0.381714 588.005C0.306798 587.869 0.27006 587.715 0.275391 587.56C0.280721 587.405 0.327932 587.254 0.412003 587.124C0.496073 586.993 0.613866 586.888 0.752914 586.819C5.87733 584.253 11.3582 582.472 17.0119 581.536C28.4052 579.616 40.1132 581.242 50.5529 586.192C55.5289 588.639 60.2529 591.871 65.8779 592.169C66.004 592.173 66.1235 592.227 66.2115 592.317C66.2994 592.407 66.3491 592.528 66.3501 592.655C66.3512 592.781 66.3035 592.902 66.217 592.994C66.1305 593.086 66.0119 593.141 65.8859 593.148C60.0409 593.496 54.7739 590.301 49.6739 588.066C42.0896 584.676 33.8678 582.949 25.5607 582.999C17.2536 583.05 9.05342 584.877 1.51093 588.359L1.56291 586.848C6.38741 589.766 11.4367 592.295 16.6629 594.411C21.8714 596.558 27.3341 598.026 32.9169 598.781C44.217 599.491 55.5061 597.229 65.6609 592.222C66.2109 591.922 66.6919 592.822 66.1019 593.095" fill="white"/>
<path d="M109.347 567.407C96.7826 574.466 82.1282 576.859 67.9709 574.164C58.0569 572.237 48.6879 567.847 38.6709 566.599C46.2509 559.299 57.0789 555.99 67.6049 556.049C78.1309 556.108 88.4239 559.259 98.0839 563.439C102.09 565.172 106.084 567.109 110.409 567.739" fill="white"/>
<path d="M109.587 567.827C98.7819 573.84 86.4375 576.518 74.1119 575.522C61.8789 574.692 50.5909 568.896 38.5599 567.45C38.3989 567.429 38.2472 567.363 38.122 567.259C37.9967 567.156 37.9031 567.019 37.8517 566.865C37.8003 566.711 37.7932 566.546 37.8313 566.388C37.8693 566.23 37.951 566.086 38.0669 565.973C42.8086 561.454 48.6225 558.217 54.9609 556.567C70.8029 552.206 87.3919 557.127 101.677 564.097C104.471 565.502 107.426 566.562 110.477 567.254C110.601 567.277 110.711 567.347 110.785 567.45C110.858 567.553 110.889 567.68 110.871 567.805C110.853 567.93 110.787 568.043 110.687 568.121C110.587 568.198 110.462 568.234 110.336 568.221C103.892 567.513 98.2299 564.151 92.1939 562.164C80.5229 557.914 67.6939 555.45 55.5039 558.617C49.4496 560.059 43.862 563.018 39.2679 567.217L38.7769 565.741C44.9339 566.587 50.7769 568.553 56.5619 570.414C73.6089 576.825 93.2149 576.229 109.107 566.978C109.639 566.648 110.169 567.527 109.59 567.829" fill="white"/>
<path d="M207.359 559.441C186.994 539.615 165.615 519.63 139.3 508.161C119.618 499.606 97.6999 494.974 80.6069 481.242C74.8393 476.731 70.0538 471.089 66.5439 464.663C66.4708 464.518 66.4554 464.352 66.5009 464.197C66.5463 464.041 66.6492 463.909 66.7886 463.827C66.928 463.745 67.0934 463.719 67.2512 463.755C67.409 463.79 67.5473 463.885 67.6379 464.019C71.5949 469.865 76.5345 474.982 82.2379 479.142C99.4499 492.142 120.903 497.059 140.238 506.079C166.538 518.345 187.508 538.794 208.238 558.525C208.301 558.582 208.351 558.651 208.387 558.728C208.423 558.805 208.443 558.888 208.445 558.973C208.448 559.058 208.434 559.143 208.404 559.222C208.373 559.301 208.327 559.374 208.268 559.435C208.21 559.496 208.139 559.545 208.061 559.578C207.983 559.612 207.899 559.629 207.814 559.63C207.729 559.63 207.645 559.614 207.567 559.581C207.488 559.548 207.417 559.5 207.358 559.44" fill="white"/>
<path d="M204.324 556.718C198.245 550.395 194.903 542.261 190.796 534.666C187.045 526.902 183.689 518.806 182.378 510.228C182.364 510.113 182.392 509.997 182.456 509.901C182.52 509.805 182.617 509.736 182.728 509.705C182.839 509.674 182.958 509.684 183.062 509.734C183.167 509.783 183.25 509.868 183.297 509.974C188.077 521.9 191.636 534.258 197.756 545.605C199.804 549.344 201.814 553.205 204.971 556.019C205.444 556.419 204.779 557.172 204.325 556.719" fill="white"/>
<path d="M174.792 529.127C164.939 507.78 154.735 486.127 150.362 462.87C150.345 462.753 150.371 462.635 150.436 462.537C150.501 462.438 150.599 462.367 150.713 462.337C150.827 462.307 150.948 462.32 151.052 462.373C151.157 462.426 151.239 462.516 151.282 462.626C157.161 479.262 161.482 496.379 168.352 512.655C170.652 518.065 173.004 523.455 175.652 528.707C175.935 529.247 175.06 529.707 174.796 529.126" fill="white"/>
<path d="M157.956 517.559C139.298 498.618 120.617 478.512 109.615 453.997C109.572 453.887 109.571 453.765 109.612 453.655C109.653 453.544 109.733 453.453 109.838 453.398C109.942 453.343 110.063 453.328 110.178 453.357C110.292 453.386 110.392 453.456 110.458 453.554C120.668 469.987 131.985 488.029 144.829 502.434C149.254 507.406 153.796 512.287 158.621 516.876C159.067 517.285 158.402 518.019 157.956 517.559Z" fill="white"/>
<path d="M186.3 539.452C160.892 530.232 133.718 529.111 106.95 529.285C106.831 529.281 106.718 529.233 106.633 529.15C106.548 529.068 106.496 528.957 106.488 528.838C106.48 528.72 106.516 528.603 106.59 528.509C106.663 528.416 106.769 528.354 106.886 528.334C127.012 525.522 147.528 528.327 167.166 532.981C173.735 534.511 180.195 536.457 186.604 538.547C186.717 538.592 186.808 538.679 186.859 538.79C186.91 538.901 186.916 539.026 186.877 539.142C186.838 539.257 186.756 539.353 186.648 539.41C186.541 539.466 186.415 539.48 186.298 539.447" fill="white"/>
<path d="M154.415 515.919C129.715 508.707 103.494 504.09 77.9469 509.319C77.8307 509.338 77.7115 509.314 77.612 509.251C77.5124 509.188 77.4396 509.091 77.4072 508.977C77.3748 508.864 77.3853 508.743 77.4365 508.637C77.4877 508.531 77.5761 508.447 77.6849 508.402C96.4599 501.653 116.944 505.74 135.778 510.102C142.123 511.568 148.384 513.338 154.67 514.995C154.788 515.032 154.887 515.113 154.946 515.222C155.005 515.331 155.02 515.458 154.987 515.577C154.954 515.697 154.876 515.798 154.77 515.861C154.663 515.924 154.536 515.943 154.416 515.914" fill="white"/>
<path d="M191.253 531.406C194.564 525.168 195.584 517.967 194.135 511.056C192.893 505.232 189.959 499.941 187.448 494.541C184.751 488.737 182.517 482.73 180.768 476.574C178.48 486 176.582 495.697 177.553 505.347C178.524 514.997 182.729 524.709 190.595 530.384" fill="white"/>
<path d="M190.835 531.18C198.925 515.771 191.458 504.431 184.944 490.514C183.006 486.048 181.336 481.471 179.944 476.807L181.598 476.775C180.475 481.456 179.6 486.194 178.976 490.968C177.035 504.825 179.528 520.682 190.875 529.997C190.967 530.075 191.026 530.184 191.04 530.304C191.054 530.423 191.023 530.544 190.953 530.641C190.882 530.739 190.777 530.806 190.659 530.83C190.541 530.853 190.419 530.832 190.316 530.769C177.37 522.311 174.629 504.959 176.916 490.694C177.672 485.863 178.684 481.075 179.946 476.351C179.996 476.172 180.104 476.014 180.252 475.901C180.4 475.788 180.581 475.726 180.767 475.725C180.953 475.724 181.134 475.783 181.284 475.894C181.433 476.006 181.542 476.162 181.595 476.341C182.848 480.98 184.378 485.54 186.175 489.997C189.651 498.918 195.522 507.491 195.238 517.479C195.168 522.408 193.948 527.252 191.674 531.626C191.644 531.681 191.604 531.73 191.556 531.769C191.508 531.809 191.452 531.839 191.392 531.857C191.332 531.875 191.269 531.881 191.207 531.875C191.145 531.869 191.085 531.851 191.029 531.821C190.974 531.792 190.925 531.752 190.886 531.703C190.846 531.655 190.816 531.599 190.798 531.539C190.78 531.48 190.774 531.417 190.78 531.355C190.786 531.292 190.804 531.232 190.834 531.177" fill="white"/>
<path d="M161.374 495.859C165.113 484.341 164.433 471.73 161.293 460.036C158.153 448.342 152.668 437.42 146.833 426.811C147.333 435.189 146.101 443.562 145.319 451.919C144.537 460.276 144.219 468.848 146.502 476.928C148.785 485.008 154.032 492.613 161.747 495.921" fill="white"/>
<path d="M160.92 495.713C168.584 472.04 157.829 447.613 146.094 427.213L147.671 426.757C148.564 439.55 145.526 452.049 145.871 464.446C145.985 476.529 150.495 489.822 161.932 495.48C162.04 495.535 162.123 495.629 162.164 495.742C162.206 495.856 162.202 495.982 162.154 496.093C162.107 496.204 162.018 496.293 161.907 496.342C161.796 496.391 161.671 496.395 161.557 496.355C149.033 491.492 143.672 477.022 143.645 464.503C143.339 451.68 146.603 439.303 145.991 426.858C145.982 426.668 146.037 426.481 146.148 426.327C146.258 426.173 146.417 426.061 146.6 426.008C146.782 425.955 146.976 425.965 147.152 426.037C147.328 426.108 147.474 426.237 147.568 426.402C150.437 431.744 153.213 437.152 155.661 442.72C163.009 459.238 167.468 478.296 161.826 496.004C161.785 496.122 161.699 496.218 161.587 496.274C161.476 496.329 161.347 496.339 161.228 496.3C161.11 496.261 161.011 496.178 160.953 496.067C160.895 495.957 160.883 495.828 160.919 495.709" fill="white"/>
<path d="M142.962 501.086C138.037 484.874 131.271 465.21 119.991 452.562C110.664 442.108 97.8909 435.302 88.0309 425.352C94.6909 433.683 97.0009 444.542 100.395 454.652C103.713 464.531 108.285 474.095 114.882 482.163C121.479 490.231 132.908 498.485 142.916 501.404" fill="white"/>
<path d="M142.51 501.226C137.893 486.017 132.652 470.594 123.353 457.565C118.753 451.045 112.52 445.943 106.189 441.111C99.8299 436.284 93.2109 431.663 87.4309 425.954L88.6979 424.825C93.9979 431.367 96.6429 439.415 99.1099 447.125C105.903 471.225 118.573 491.997 143.05 500.944C143.167 500.983 143.265 501.066 143.323 501.175C143.38 501.285 143.393 501.412 143.358 501.531C143.323 501.65 143.244 501.75 143.136 501.811C143.029 501.872 142.902 501.89 142.782 501.859C134.782 499.702 127.62 495.246 121.275 490.018C108.396 479.406 101.595 463.353 97.1139 447.744C94.7799 440.002 92.3139 432.176 87.3719 425.883C87.2362 425.713 87.1707 425.498 87.1888 425.281C87.207 425.065 87.3074 424.864 87.4695 424.719C87.6316 424.574 87.843 424.497 88.0602 424.504C88.2773 424.51 88.4838 424.6 88.6369 424.754C94.1849 430.418 100.68 435.119 106.991 440.068C113.291 445 119.476 450.357 124.162 456.973C133.521 470.161 138.636 485.673 143.421 500.945C143.453 501.064 143.437 501.192 143.377 501.3C143.317 501.408 143.217 501.488 143.099 501.524C142.981 501.56 142.853 501.549 142.743 501.493C142.633 501.437 142.549 501.34 142.509 501.223" fill="white"/>
<path d="M103.334 492.68C95.7859 489.305 90.5239 482.323 86.2179 475.267C81.9119 468.211 78.1179 460.658 72.1479 454.941C64.9479 448.041 54.9359 444.187 48.9729 436.188C48.8279 442.198 50.3809 448.119 52.2859 453.82C56.6569 466.901 63.5929 480.037 75.5499 486.907C84.5149 492.059 95.2029 493.064 105.524 493.688" fill="white"/>
<path d="M103.14 493.115C90.5399 487.244 85.3499 473.515 78.0029 462.782C74.3112 457.33 69.4953 452.731 63.8789 449.294C58.4269 445.643 52.5279 442.146 48.3269 436.671L49.7819 436.208C49.6949 443.588 52.1259 450.808 54.7689 457.759C57.4979 464.683 60.9059 471.397 65.6689 477.028C75.2549 489.273 90.8259 492.045 105.551 493.212C105.673 493.226 105.784 493.286 105.863 493.379C105.942 493.473 105.982 493.594 105.974 493.716C105.966 493.838 105.912 493.952 105.822 494.036C105.733 494.119 105.614 494.165 105.492 494.163C90.3649 494.175 73.8149 491.175 63.9729 478.452C59.1696 472.472 55.4197 465.717 52.8839 458.478C50.3329 451.378 47.9439 443.954 48.1629 436.168C48.1695 436.001 48.2273 435.841 48.3284 435.708C48.4296 435.575 48.5691 435.477 48.7281 435.426C48.8871 435.376 49.0578 435.375 49.217 435.425C49.3762 435.475 49.5162 435.573 49.6179 435.705C53.4609 440.923 59.1519 444.482 64.5869 448.251C70.2337 451.888 75.0772 456.641 78.8199 462.218C86.0939 472.889 91.1009 486.582 103.52 492.244C104.077 492.473 103.705 493.39 103.131 493.114" fill="white"/>
<path d="M103.614 506.005C94.3429 501.336 79.7139 498.122 69.4699 499.813C59.2259 501.504 49.5409 505.721 40.5699 510.94C47.9706 514.518 56.0693 516.419 64.2889 516.508C72.5085 516.597 80.6465 514.872 88.1229 511.455C93.1339 509.121 98.0859 505.955 103.614 506.005Z" fill="white"/>
<path d="M103.401 506.431C93.5136 501.556 82.5223 499.354 71.5199 500.044C60.6279 501.43 50.3739 506.106 40.9899 511.664L40.9399 510.192C50.7554 514.761 61.6844 516.387 72.4049 514.875C80.6049 513.983 87.9049 510.45 95.3529 507.093C97.9651 505.987 100.784 505.454 103.62 505.53C103.741 505.539 103.854 505.593 103.936 505.682C104.018 505.771 104.063 505.888 104.062 506.01C104.061 506.131 104.014 506.247 103.931 506.335C103.847 506.423 103.733 506.475 103.612 506.482C98.1319 506.773 93.5359 509.921 88.6899 512.304C83.644 514.72 78.2511 516.331 72.7069 517.079C61.5783 518.59 50.2526 516.712 40.2069 511.691C40.0718 511.624 39.9573 511.521 39.8756 511.394C39.7939 511.267 39.7481 511.121 39.743 510.97C39.7379 510.819 39.7736 510.67 39.8465 510.537C39.9194 510.405 40.0266 510.295 40.1569 510.219C54.4909 502.025 71.4859 496.1 88.0409 500.297C93.5015 501.408 98.8058 503.182 103.836 505.58C103.943 505.64 104.023 505.739 104.058 505.857C104.094 505.974 104.083 506.101 104.028 506.21C103.973 506.32 103.877 506.404 103.762 506.445C103.646 506.486 103.519 506.481 103.407 506.431" fill="white"/>
<path d="M145.932 530.593C133.699 523.719 119.431 521.389 105.647 524.014C95.9939 525.887 86.8719 530.162 77.1149 531.379C84.4949 538.492 95.0369 541.707 105.285 541.65C115.533 541.593 125.556 538.525 134.961 534.455C138.861 532.767 142.755 530.881 146.961 530.267" fill="white"/>
<path d="M145.697 531.008C135.373 525.18 123.521 522.626 111.713 523.687C99.7849 524.624 89.0879 530.587 77.2129 532.213L77.6929 530.774C86.6279 539.118 99.6329 541.664 111.514 540.129C120.623 539.037 129.364 535.882 137.823 532.32C140.715 531.064 143.768 530.215 146.893 529.798C147.019 529.786 147.144 529.824 147.242 529.905C147.339 529.985 147.401 530.101 147.413 530.227C147.423 530.345 147.39 530.463 147.319 530.558C147.248 530.653 147.145 530.718 147.029 530.742C144.06 531.414 141.183 532.445 138.464 533.814C124.555 540.6 108.402 545.392 92.9779 541.145C86.8029 539.537 81.1395 536.382 76.5219 531.978C76.4112 531.866 76.3338 531.726 76.2984 531.573C76.2631 531.42 76.2713 531.26 76.3221 531.111C76.3728 530.963 76.4641 530.831 76.5856 530.731C76.7072 530.632 76.8541 530.568 77.0099 530.548C82.8099 529.875 88.4669 528.113 94.1479 526.412C111.085 520.482 130.414 521.155 146.166 530.183C146.272 530.247 146.349 530.35 146.38 530.47C146.411 530.589 146.395 530.717 146.334 530.825C146.273 530.932 146.172 531.012 146.053 531.047C145.934 531.082 145.806 531.069 145.697 531.011" fill="white"/>
<path d="M212.036 165.874C207.36 141.818 202.045 117.15 189.045 96.0858C177.747 77.8738 161.318 61.1738 158.838 38.9108C158.503 35.7816 158.523 32.6246 158.897 29.4998C158.913 29.3595 158.983 29.2309 159.092 29.141C159.201 29.051 159.341 29.0067 159.482 29.0171C159.623 29.0276 159.754 29.092 159.849 29.1971C159.943 29.3021 159.993 29.4396 159.989 29.5808C159.639 55.1548 178.489 74.2078 190.732 95.0718C203.332 116.694 208.132 141.487 213.109 165.656C213.123 165.726 213.123 165.799 213.109 165.869C213.095 165.94 213.068 166.007 213.028 166.067C212.988 166.127 212.936 166.178 212.877 166.218C212.817 166.258 212.75 166.286 212.679 166.3C212.609 166.314 212.536 166.314 212.466 166.301C212.395 166.287 212.328 166.259 212.268 166.219C212.208 166.179 212.157 166.128 212.117 166.068C212.077 166.008 212.049 165.941 212.035 165.871" fill="white"/>
<path d="M197.636 111.914C193.714 89.3227 190.394 65.8987 194.648 43.1217C194.672 43.0234 194.732 42.9373 194.815 42.8798C194.898 42.8223 195 42.7974 195.1 42.8097C195.201 42.822 195.293 42.8708 195.36 42.9467C195.427 43.0226 195.464 43.1204 195.464 43.2217C194.557 60.4017 193.798 77.6097 195.775 94.7457C196.463 100.446 197.275 106.134 198.442 111.757C198.457 111.861 198.431 111.967 198.37 112.053C198.308 112.139 198.217 112.198 198.113 112.218C198.01 112.238 197.902 112.217 197.814 112.161C197.725 112.104 197.661 112.016 197.636 111.914Z" fill="white"/>
<path d="M206.947 141.359C193.477 122.35 174.789 108.17 155.744 95.1421C155.664 95.0799 155.61 94.9909 155.592 94.8916C155.573 94.7924 155.592 94.6898 155.644 94.6032C155.695 94.5166 155.777 94.4519 155.873 94.4213C155.97 94.3907 156.074 94.3963 156.166 94.4371C171.782 102.364 184.988 114.392 196.577 127.369C200.477 131.683 204.097 136.24 207.61 140.869C207.928 141.281 207.268 141.808 206.949 141.357" fill="white"/>
<path d="M195.933 109.011C181.97 91.7701 165.681 75.5851 145.015 66.7361C144.923 66.6927 144.851 66.6172 144.811 66.5238C144.772 66.4305 144.768 66.3258 144.8 66.2298C144.833 66.1338 144.9 66.0532 144.988 66.0033C145.076 65.9533 145.18 65.9376 145.279 65.9591C161.879 70.4301 174.429 83.3511 185.59 95.7301C189.362 99.8881 192.928 104.221 196.564 108.486C196.907 108.88 196.276 109.445 195.933 109.011Z" fill="white"/>
<path d="M195.114 92.8737C199.598 78.9687 204.474 61.7137 202.701 47.2107C201.235 35.2187 195.536 24.1187 193.443 12.2207C194.064 21.3977 190.36 30.2207 187.794 39.0547C185.285 47.6827 183.821 56.7067 184.528 65.6657C185.235 74.6247 189.271 86.0877 194.928 93.0737" fill="#F7F7F7"/>
<path d="M194.723 92.7481C201.23 72.9821 206.429 52.4951 198.556 32.3081C196.424 25.7601 194.008 19.2341 192.722 12.3491L194.173 12.1721C194.92 26.5621 186.854 39.2991 185.785 53.3721C183.885 67.241 187.261 81.3176 195.243 92.8171C195.571 93.2041 194.937 93.7491 194.604 93.3341C180.211 75.3341 181.504 53.1341 188.912 32.5631C191.052 25.9251 193.119 19.1581 192.712 12.2721C192.697 12.084 192.755 11.8974 192.874 11.7512C192.994 11.6051 193.165 11.5107 193.352 11.4878C193.539 11.4649 193.728 11.5154 193.879 11.6286C194.03 11.7417 194.131 11.9089 194.162 12.0951C195.306 18.8341 197.596 25.3571 199.632 31.9671C201.673 38.5601 203.419 45.3941 203.486 52.3851C203.483 59.3314 202.675 66.2539 201.078 73.0141C199.557 79.7711 197.603 86.4141 195.505 93.0001C195.469 93.1006 195.395 93.1833 195.3 93.2305C195.204 93.2777 195.093 93.2858 194.992 93.2531C194.89 93.2203 194.805 93.1493 194.755 93.055C194.705 92.9608 194.693 92.8507 194.723 92.7481Z" fill="white"/>
<path d="M171.179 67.4349C167.492 61.3349 167.198 53.8009 167.619 46.6849C168.04 39.5689 169.064 32.3559 167.648 25.3699C165.937 16.9379 160.748 9.28887 160.453 0.692871C157.392 4.88087 155.583 9.83487 154.129 14.8089C150.792 26.2239 149.248 38.9379 154.338 49.6809C158.156 57.7389 165.231 63.7059 172.238 69.2209" fill="#F7F7F7"/>
<path d="M170.828 67.6469C164.793 57.2999 167.865 45.0149 167.939 33.7999C168.764 21.9249 160.554 12.3939 159.754 0.713915L161.015 1.09992C157.323 6.28592 155.498 12.5999 153.954 18.8199C151.732 28.1069 150.914 37.9999 154.254 47.0599C157.665 56.1829 165.205 62.6729 172.494 68.9019C172.577 68.9701 172.63 69.0682 172.642 69.1751C172.653 69.2819 172.623 69.3891 172.556 69.4736C172.49 69.5581 172.393 69.6132 172.286 69.6271C172.18 69.641 172.072 69.6126 171.986 69.5479C164.148 63.8669 156.057 57.1249 152.496 47.7279C147.096 33.9199 151.72 12.3279 159.896 0.280915C159.982 0.166106 160.102 0.0807534 160.239 0.0364649C160.376 -0.00782368 160.523 -0.00889919 160.661 0.0333846C160.798 0.0756684 160.919 0.159259 161.007 0.272791C161.096 0.386322 161.147 0.524284 161.154 0.667915C161.792 11.9839 169.725 22.0439 168.802 33.8059C168.708 44.9419 165.521 57.1059 171.536 67.2229C171.817 67.6569 171.104 68.1229 170.836 67.6469" fill="white"/>
<path d="M164.826 77.0099C160.556 69.1439 151.772 59.6739 143.686 55.8359C135.6 51.9979 126.665 50.2209 117.743 49.5059C121.226 55.6793 126.027 61.0083 131.806 65.113C137.584 69.2178 144.197 71.9971 151.173 73.2529C155.873 74.0639 160.934 74.2529 164.826 77.0099Z" fill="#F7F7F7"/>
<path d="M164.464 77.207C153.588 58.301 138.87 51.579 117.686 50.229L118.374 49.161C120.696 53.1888 123.61 56.8446 127.019 60.006C133.82 66.3805 142.295 70.6861 151.454 72.419C156.041 73.319 161.205 73.637 165.066 76.676C165.146 76.7422 165.198 76.8361 165.211 76.939C165.225 77.0418 165.199 77.146 165.139 77.2308C165.08 77.3155 164.99 77.3746 164.888 77.3961C164.787 77.4176 164.681 77.4001 164.592 77.347C160.562 74.857 155.76 74.829 151.154 74.129C141.586 72.544 132.735 68.0609 125.796 61.285C122.346 57.9325 119.419 54.0805 117.114 49.858C117.067 49.7757 117.037 49.6849 117.025 49.5909C117.014 49.4969 117.021 49.4016 117.046 49.3103C117.072 49.2191 117.115 49.1339 117.174 49.0595C117.232 48.9851 117.305 48.9231 117.388 48.877C127.152 49.3447 136.708 51.8598 145.437 56.259C153.658 61.324 160.454 68.3981 165.186 76.815C165.234 76.9103 165.243 77.0205 165.211 77.1223C165.179 77.224 165.108 77.3093 165.015 77.3602C164.921 77.4111 164.811 77.4236 164.708 77.395C164.605 77.3664 164.518 77.299 164.464 77.207Z" fill="white"/>
<path d="M182.709 115.235C177.424 104.351 168.463 95.6847 157.409 90.7661C149.65 87.3471 141.089 85.8901 133.578 81.9541C135.308 90.6201 141.195 98.0821 148.478 103.081C155.761 108.08 164.372 110.835 173.036 112.581C176.63 113.303 180.315 113.881 183.596 115.514" fill="#F7F7F7"/>
<path d="M182.339 115.412C177.893 106.206 170.754 98.568 161.868 93.5119C152.96 88.3119 142.452 87.2759 133.243 82.5899L134.288 81.8079C136.514 92.1079 144.475 100.308 153.645 105.064C160.633 108.769 168.373 110.83 176.116 112.464C178.782 112.996 181.362 113.894 183.782 115.134C183.829 115.16 183.871 115.195 183.904 115.238C183.938 115.28 183.962 115.329 183.977 115.381C183.992 115.433 183.996 115.487 183.99 115.54C183.983 115.594 183.966 115.646 183.94 115.693C183.89 115.782 183.808 115.849 183.711 115.882C183.614 115.915 183.509 115.91 183.415 115.87C180.981 114.888 178.437 114.204 175.838 113.836C167.888 112.549 159.932 110.594 152.746 106.759C143.158 101.759 134.954 92.9649 132.868 82.0879C132.848 81.9943 132.848 81.8977 132.866 81.8038C132.884 81.7099 132.921 81.6206 132.974 81.541C133.027 81.4615 133.095 81.3933 133.175 81.3404C133.255 81.2875 133.344 81.2509 133.438 81.2329C142.657 85.7329 153.278 87.5429 162.298 92.7589C171.276 97.9759 178.507 105.735 183.079 115.058C183.122 115.155 183.126 115.266 183.089 115.366C183.053 115.467 182.978 115.549 182.882 115.595C182.786 115.642 182.675 115.649 182.574 115.615C182.473 115.581 182.388 115.51 182.339 115.415" fill="white"/>
<path d="M195.369 271.24C193.121 223.605 172.406 176.756 138.384 143.266C126.989 132.019 113.818 122.728 99.4009 115.766C99.1947 115.671 98.9602 115.658 98.7445 115.728C98.5287 115.799 98.3477 115.949 98.2377 116.147C98.1277 116.346 98.0967 116.579 98.1511 116.799C98.2055 117.02 98.3412 117.211 98.5309 117.336C111.767 125.741 124.136 135.44 135.456 146.289C157.714 168.069 175.856 195.189 185.344 224.98C190.204 239.973 192.973 255.564 193.574 271.313C193.579 271.431 193.607 271.547 193.656 271.655C193.706 271.762 193.776 271.859 193.863 271.939C193.95 272.019 194.052 272.081 194.163 272.122C194.274 272.163 194.392 272.182 194.51 272.177C194.628 272.172 194.744 272.144 194.852 272.095C194.959 272.045 195.056 271.975 195.136 271.888C195.216 271.801 195.278 271.699 195.319 271.588C195.36 271.477 195.379 271.359 195.374 271.241" fill="white"/>
<path d="M195.369 271.24C193.121 223.605 172.406 176.756 138.384 143.266C126.989 132.019 113.818 122.728 99.4009 115.766C99.1947 115.671 98.9602 115.658 98.7445 115.728C98.5287 115.799 98.3477 115.949 98.2377 116.147C98.1277 116.346 98.0967 116.579 98.1511 116.799C98.2055 117.02 98.3412 117.211 98.5309 117.336C111.767 125.741 124.136 135.44 135.456 146.289C157.714 168.069 175.856 195.189 185.344 224.98C190.204 239.973 192.973 255.564 193.574 271.313C193.579 271.431 193.607 271.547 193.656 271.655C193.706 271.762 193.776 271.859 193.863 271.939C193.95 272.019 194.052 272.081 194.163 272.122C194.274 272.163 194.392 272.182 194.51 272.177C194.628 272.172 194.744 272.144 194.852 272.095C194.959 272.045 195.056 271.975 195.136 271.888C195.216 271.801 195.278 271.699 195.319 271.588C195.36 271.477 195.379 271.359 195.374 271.241L195.369 271.24Z" stroke="white" stroke-width="0.5" stroke-miterlimit="10"/>
<path d="M138.794 147.884C134.594 139.893 130.134 132.059 125.861 124.137C121.589 116.242 118.038 107.871 112.723 100.427L112.452 101.58C123.267 97.6872 127.579 111.45 128.813 119.801C130.595 129.522 131.403 140.406 138.025 148.367C138.101 148.453 138.207 148.507 138.321 148.518C138.436 148.529 138.55 148.497 138.642 148.428C138.733 148.359 138.795 148.258 138.816 148.145C138.836 148.032 138.813 147.915 138.752 147.818C129.025 134.918 135.082 106.599 119.696 99.9462C118.424 99.4201 117.055 99.1708 115.68 99.2149C114.304 99.2591 112.954 99.5956 111.719 100.202C111.629 100.25 111.549 100.314 111.484 100.393C111.419 100.471 111.37 100.562 111.34 100.659C111.31 100.757 111.3 100.859 111.309 100.96C111.319 101.062 111.349 101.16 111.397 101.25C114.056 104.899 116.467 108.722 118.614 112.694C124.678 124.307 132.014 136.747 137.984 148.305C138.039 148.412 138.135 148.493 138.25 148.53C138.365 148.567 138.49 148.556 138.597 148.501C138.704 148.446 138.785 148.35 138.822 148.235C138.859 148.12 138.848 147.995 138.793 147.888" fill="white"/>
<path d="M138.794 147.884C134.594 139.893 130.134 132.059 125.861 124.137C121.589 116.242 118.038 107.871 112.723 100.427L112.452 101.58C123.267 97.6872 127.579 111.45 128.813 119.801C130.595 129.522 131.403 140.406 138.025 148.367C138.101 148.453 138.207 148.507 138.321 148.518C138.436 148.529 138.55 148.497 138.642 148.428C138.733 148.359 138.795 148.258 138.816 148.145C138.836 148.032 138.813 147.915 138.752 147.818C129.025 134.918 135.082 106.599 119.696 99.9462C118.424 99.4201 117.055 99.1708 115.68 99.2149C114.304 99.2591 112.954 99.5956 111.719 100.202C111.629 100.25 111.549 100.314 111.484 100.393C111.419 100.471 111.37 100.562 111.34 100.659C111.31 100.757 111.3 100.859 111.309 100.96C111.319 101.062 111.349 101.16 111.397 101.25C114.056 104.899 116.467 108.722 118.614 112.694C124.678 124.307 132.014 136.747 137.984 148.305C138.012 148.358 138.049 148.406 138.095 148.444C138.141 148.483 138.194 148.512 138.251 148.53C138.309 148.548 138.369 148.555 138.428 148.549C138.488 148.544 138.546 148.527 138.599 148.5C138.653 148.472 138.7 148.434 138.738 148.388C138.777 148.342 138.806 148.289 138.824 148.232C138.842 148.175 138.849 148.115 138.844 148.055C138.838 147.995 138.822 147.937 138.794 147.884Z" stroke="white" stroke-width="0.5" stroke-miterlimit="10"/>
<path d="M158.062 167.025C152.121 163.278 145.769 160.224 139.132 157.925C135.275 156.634 129.64 155.086 126.097 153.212C119.822 149.958 115.151 144.528 108.172 142.176L108.312 143.998C113.336 141.629 119.348 142.982 123.999 145.718C128.818 148.604 132.671 152.972 136.661 157.197C136.742 157.275 136.849 157.32 136.962 157.324C137.074 157.329 137.185 157.291 137.271 157.219C137.358 157.147 137.415 157.045 137.431 156.934C137.448 156.823 137.423 156.709 137.361 156.615C131.207 147.209 119.508 136.558 107.447 142.232C107.269 142.318 107.121 142.456 107.023 142.627C106.924 142.798 106.88 142.995 106.895 143.192C106.91 143.389 106.984 143.577 107.107 143.732C107.23 143.886 107.397 144 107.586 144.058C114.094 145.995 119.299 151.443 125.516 154.388C131.932 157.274 138.955 158.344 145.316 161.293C149.583 163.097 153.683 165.272 157.569 167.793C158.049 168.118 158.584 167.342 158.06 167.026" fill="white"/>
<path d="M158.062 167.025C152.121 163.278 145.769 160.224 139.132 157.925C135.275 156.634 129.64 155.086 126.097 153.212C119.822 149.958 115.151 144.528 108.172 142.176L108.312 143.998C113.336 141.629 119.348 142.982 123.999 145.718C128.818 148.604 132.671 152.972 136.661 157.197C136.742 157.275 136.849 157.32 136.962 157.324C137.074 157.329 137.185 157.291 137.271 157.219C137.358 157.147 137.415 157.045 137.431 156.934C137.448 156.823 137.423 156.709 137.361 156.615C131.207 147.209 119.508 136.558 107.447 142.232C107.269 142.318 107.121 142.456 107.023 142.627C106.924 142.798 106.88 142.995 106.895 143.192C106.91 143.389 106.984 143.577 107.107 143.732C107.23 143.886 107.397 144 107.586 144.058C114.094 145.995 119.299 151.443 125.516 154.388C131.932 157.274 138.955 158.344 145.316 161.293C149.583 163.097 153.683 165.272 157.569 167.793C158.05 168.117 158.585 167.341 158.062 167.025Z" stroke="white" stroke-width="0.5" stroke-miterlimit="10"/>
<path d="M166.379 183.128C160.788 175.248 157.378 166.031 156.495 156.41C154.844 146.838 154.495 137.359 156.985 127.893L155.366 128.314C157.511 130.983 159.052 134.085 159.884 137.407C160.715 140.729 160.817 144.191 160.182 147.556C158.96 154.379 155.206 161.791 158.092 168.819C158.142 168.922 158.229 169.002 158.335 169.043C158.441 169.085 158.559 169.086 158.666 169.045C158.773 169.004 158.86 168.925 158.911 168.823C158.962 168.72 158.973 168.603 158.942 168.493C157.105 161.569 160.956 154.812 162.253 147.963C162.986 144.298 162.864 140.513 161.896 136.903C161.805 135.303 156.688 123.827 155.164 127.539C152.929 137.039 153.532 147.069 155.48 156.568C156.545 166.288 160.028 175.587 165.609 183.616C165.909 184.109 166.71 183.636 166.379 183.128Z" fill="white"/>
<path d="M166.379 183.128C160.788 175.248 157.378 166.031 156.495 156.41C154.844 146.838 154.495 137.359 156.985 127.893L155.366 128.314C157.511 130.983 159.052 134.085 159.884 137.407C160.715 140.729 160.817 144.191 160.182 147.556C158.96 154.379 155.206 161.791 158.092 168.819C158.142 168.922 158.229 169.002 158.335 169.043C158.441 169.085 158.559 169.086 158.666 169.045C158.773 169.004 158.86 168.925 158.911 168.823C158.962 168.72 158.973 168.603 158.942 168.493C157.105 161.569 160.956 154.812 162.253 147.963C162.986 144.298 162.864 140.513 161.896 136.903C161.805 135.303 156.688 123.827 155.164 127.539C152.929 137.039 153.532 147.069 155.48 156.568C156.545 166.288 160.028 175.587 165.609 183.616C165.913 184.109 166.714 183.636 166.379 183.128Z" stroke="white" stroke-width="0.5" stroke-miterlimit="10"/>
<path d="M99.7589 116.885C79.0259 118.588 58.1562 117.342 37.7729 113.185C33.4729 112.546 29.9119 110.574 31.5469 105.707C34.3129 97.4589 44.0219 95.7339 51.7369 95.1069C51.8627 95.0929 51.9828 95.0466 52.0855 94.9726C52.1883 94.8986 52.2702 94.7994 52.3235 94.6846C52.3767 94.5697 52.3995 94.4431 52.3896 94.3168C52.3797 94.1906 52.3374 94.0691 52.2669 93.9639C50.0259 90.5969 47.7739 87.1949 46.9179 83.3839C45.4639 77.9019 48.6279 70.9459 54.8669 71.3839C60.8589 71.8269 65.4939 76.2219 69.9429 80.0279C76.0016 85.3874 81.5654 91.2816 86.5669 97.6389C91.5797 104.019 96.1811 110.713 100.343 117.678C100.397 117.771 100.486 117.838 100.59 117.866C100.694 117.893 100.805 117.878 100.897 117.823C100.99 117.769 101.058 117.68 101.085 117.576C101.112 117.472 101.097 117.362 101.043 117.269C97.2133 110.044 92.8193 103.132 87.9019 96.5989C80.2259 87.0279 71.9489 77.4889 61.1259 71.3309C54.8569 67.9189 47.0259 69.7109 45.3579 77.3109C43.7309 83.6999 47.6139 89.8729 51.0469 94.7799L51.5749 93.6379C43.5319 94.3649 33.2359 96.4969 30.4459 105.376C29.7799 107.476 29.8619 110.143 31.5849 111.765C33.3079 113.387 35.5679 113.749 37.5769 114.149C41.6689 114.958 45.7929 115.596 49.9169 116.205C66.4455 118.555 83.1847 119.054 99.8239 117.692C99.931 117.683 100.03 117.632 100.1 117.55C100.169 117.468 100.204 117.362 100.195 117.255C100.186 117.148 100.135 117.049 100.053 116.979C99.9713 116.909 99.8651 116.875 99.7579 116.884" fill="white"/>
<path d="M99.7589 116.885C79.0259 118.588 58.1562 117.342 37.7729 113.185C33.4729 112.546 29.9119 110.574 31.5469 105.707C34.3129 97.4589 44.0219 95.7339 51.7369 95.1069C51.8627 95.0929 51.9828 95.0466 52.0855 94.9726C52.1883 94.8986 52.2702 94.7994 52.3235 94.6846C52.3767 94.5697 52.3995 94.4431 52.3896 94.3168C52.3797 94.1906 52.3374 94.0691 52.2669 93.9639C50.0259 90.5969 47.7739 87.1949 46.9179 83.3839C45.4639 77.9019 48.6279 70.9459 54.8669 71.3839C60.8589 71.8269 65.4939 76.2219 69.9429 80.0279C76.0016 85.3874 81.5654 91.2816 86.5669 97.6389C91.5797 104.019 96.1811 110.713 100.343 117.678C100.397 117.771 100.486 117.838 100.59 117.866C100.694 117.893 100.805 117.878 100.897 117.823C100.99 117.769 101.058 117.68 101.085 117.576C101.112 117.472 101.097 117.362 101.043 117.269C97.2133 110.044 92.8193 103.132 87.9019 96.5989C80.2259 87.0279 71.9489 77.4889 61.1259 71.3309C54.8569 67.9189 47.0259 69.7109 45.3579 77.3109C43.7309 83.6999 47.6139 89.8729 51.0469 94.7799L51.5749 93.6379C43.5319 94.3649 33.2359 96.4969 30.4459 105.376C29.7799 107.476 29.8619 110.143 31.5849 111.765C33.3079 113.387 35.5679 113.749 37.5769 114.149C41.6689 114.958 45.7929 115.596 49.9169 116.205C66.4455 118.555 83.1847 119.054 99.8239 117.692C99.9285 117.68 100.024 117.628 100.091 117.547C100.158 117.466 100.191 117.362 100.183 117.257C100.174 117.152 100.125 117.055 100.046 116.985C99.967 116.916 99.864 116.88 99.7589 116.885Z" stroke="white" stroke-width="0.5" stroke-miterlimit="10"/>
<path d="M56.0279 116.201C51.3439 118.001 44.6469 121.04 45.8969 127.201C46.1599 129.079 48.1569 130.127 49.1729 131.384C49.5438 132.08 49.627 132.894 49.4049 133.651C49.0419 141.521 59.4049 141.203 64.8299 140.095C75.4569 137.867 84.5739 131.951 93.2019 125.695C96.0235 123.439 98.3807 120.657 100.143 117.504C100.194 117.411 100.207 117.302 100.179 117.2C100.151 117.098 100.085 117.011 99.9933 116.957C99.902 116.904 99.7933 116.888 99.6905 116.913C99.5877 116.938 99.4988 117.003 99.4429 117.093C95.3559 122.839 89.3219 126.423 83.3839 130.048C76.0529 134.539 68.1899 138.969 59.4319 139.378C55.6319 139.81 49.9049 138.515 50.2699 133.751C50.5113 132.79 50.3716 131.774 49.8799 130.914C49.2915 130.216 48.6248 129.588 47.8929 129.043C44.5549 125.674 47.8759 120.669 51.5509 119.095C53.0879 118.276 54.6801 117.565 56.3159 116.968C56.4143 116.928 56.4932 116.851 56.5357 116.754C56.5781 116.657 56.5808 116.547 56.5432 116.448C56.5055 116.348 56.4305 116.268 56.3342 116.223C56.2379 116.179 56.128 116.173 56.0279 116.209" fill="white"/>
<path d="M56.0279 116.201C51.3439 118.001 44.6469 121.04 45.8969 127.201C46.1599 129.079 48.1569 130.127 49.1729 131.384C49.5438 132.08 49.627 132.894 49.4049 133.651C49.0419 141.521 59.4049 141.203 64.8299 140.095C75.4569 137.867 84.5739 131.951 93.2019 125.695C96.0235 123.439 98.3807 120.657 100.143 117.504C100.194 117.411 100.207 117.302 100.179 117.2C100.151 117.098 100.085 117.011 99.9933 116.957C99.902 116.904 99.7933 116.888 99.6905 116.913C99.5877 116.938 99.4988 117.003 99.4429 117.093C95.3559 122.839 89.3219 126.423 83.3839 130.048C76.0529 134.539 68.1899 138.969 59.4319 139.378C55.6319 139.81 49.9049 138.515 50.2699 133.751C50.5113 132.79 50.3716 131.774 49.8799 130.914C49.2915 130.216 48.6248 129.588 47.8929 129.043C44.5549 125.674 47.8759 120.669 51.5509 119.095C53.0879 118.276 54.6801 117.565 56.3159 116.968C56.4176 116.93 56.5 116.853 56.5449 116.754C56.5898 116.655 56.5936 116.542 56.5554 116.44C56.5172 116.339 56.4402 116.256 56.3413 116.211C56.2424 116.167 56.1296 116.163 56.0279 116.201Z" stroke="white" stroke-width="0.5" stroke-miterlimit="10"/>
<path d="M69.1419 78.0688C68.3599 75.3128 68.0719 72.0888 69.6799 69.5968C71.0969 67.3358 74.9159 66.1688 76.8979 68.2708C76.9344 68.3115 76.9785 68.3445 77.0278 68.3681C77.0771 68.3917 77.1306 68.4052 77.1852 68.408C77.2397 68.4108 77.2943 68.4028 77.3458 68.3844C77.3972 68.3659 77.4445 68.3375 77.4849 68.3008C78.3329 65.6558 81.2849 64.4008 83.9339 64.7908C86.5609 65.0798 88.6769 67.0508 90.1189 69.2648C95.4629 78.8948 96.8759 90.3468 99.2619 100.982C100.171 106.417 100.99 111.933 100.293 117.382C100.285 117.435 100.287 117.488 100.3 117.54C100.312 117.592 100.335 117.641 100.367 117.684C100.398 117.727 100.438 117.763 100.484 117.791C100.529 117.819 100.58 117.837 100.633 117.845C100.732 117.858 100.833 117.835 100.916 117.78C101 117.725 101.06 117.641 101.087 117.545C103.044 109.231 101.201 100.589 99.4209 92.4228C97.1879 84.1818 94.2079 65.0738 84.0419 63.7948C81.1289 63.5018 77.7119 64.8418 76.8019 67.8598L77.5089 67.6948C75.0539 65.1828 70.7549 66.4698 69.0289 69.1758C67.3209 71.9038 67.5599 75.3178 68.3589 78.2758C68.3877 78.3793 68.4564 78.4672 68.55 78.5201C68.6436 78.573 68.7544 78.5865 68.8579 78.5578C68.9615 78.529 69.0494 78.4603 69.1023 78.3667C69.1551 78.2731 69.1687 78.1623 69.1399 78.0588" fill="white"/>
<path d="M69.1419 78.0688C68.3599 75.3128 68.0719 72.0888 69.6799 69.5968C71.0969 67.3358 74.9159 66.1688 76.8979 68.2708C76.9344 68.3115 76.9785 68.3445 77.0278 68.3681C77.0771 68.3917 77.1306 68.4052 77.1852 68.408C77.2397 68.4108 77.2943 68.4028 77.3458 68.3844C77.3972 68.3659 77.4445 68.3375 77.4849 68.3008C78.3329 65.6558 81.2849 64.4008 83.9339 64.7908C86.5609 65.0798 88.6769 67.0508 90.1189 69.2648C95.4629 78.8948 96.8759 90.3468 99.2619 100.982C100.171 106.417 100.99 111.933 100.293 117.382C100.285 117.435 100.287 117.488 100.3 117.54C100.312 117.592 100.335 117.641 100.367 117.684C100.398 117.727 100.438 117.763 100.484 117.791C100.529 117.819 100.58 117.837 100.633 117.845C100.732 117.858 100.833 117.835 100.916 117.78C101 117.725 101.06 117.641 101.087 117.545C103.044 109.231 101.201 100.589 99.4209 92.4228C97.1879 84.1818 94.2079 65.0738 84.0419 63.7948C81.1289 63.5018 77.7119 64.8418 76.8019 67.8598L77.5089 67.6948C75.0539 65.1828 70.7549 66.4698 69.0289 69.1758C67.3209 71.9038 67.5599 75.3178 68.3589 78.2758C68.3877 78.3781 68.4556 78.465 68.5479 78.5178C68.6402 78.5705 68.7495 78.5848 68.8523 78.5577C68.9551 78.5305 69.0431 78.464 69.0972 78.3725C69.1514 78.2811 69.1675 78.172 69.1419 78.0688Z" stroke="white" stroke-width="0.5" stroke-miterlimit="10"/>
<path d="M50.3029 131.535C52.7179 127.914 57.6139 127.953 61.5649 128.24C65.8432 128.587 70.1463 128.472 74.3999 127.897C82.8719 126.697 91.3779 123.633 97.9109 117.978C97.9844 117.911 98.0309 117.819 98.0416 117.72C98.0523 117.621 98.0266 117.522 97.9691 117.44C97.9117 117.359 97.8266 117.301 97.7297 117.278C97.6328 117.255 97.5308 117.268 97.4429 117.315C86.5189 123.542 74.3519 128.05 61.6099 127.384C57.4369 127.11 52.3099 127.251 49.6249 131.089C49.57 131.179 49.5522 131.287 49.5752 131.389C49.5982 131.492 49.6603 131.582 49.7483 131.64C49.8363 131.698 49.9433 131.719 50.0468 131.7C50.1503 131.68 50.2421 131.621 50.3029 131.535Z" fill="white"/>
<path d="M50.3029 131.535C52.7179 127.914 57.6139 127.953 61.5649 128.24C65.8432 128.587 70.1463 128.472 74.3999 127.897C82.8719 126.697 91.3779 123.633 97.9109 117.978C97.9844 117.911 98.0309 117.819 98.0416 117.72C98.0523 117.621 98.0266 117.522 97.9691 117.44C97.9117 117.359 97.8266 117.301 97.7297 117.278C97.6328 117.255 97.5308 117.268 97.4429 117.315C86.5189 123.542 74.3519 128.05 61.6099 127.384C57.4369 127.11 52.3099 127.251 49.6249 131.089C49.57 131.179 49.5522 131.287 49.5752 131.389C49.5982 131.492 49.6603 131.582 49.7483 131.64C49.8363 131.698 49.9433 131.719 50.0468 131.7C50.1503 131.68 50.2421 131.621 50.3029 131.535Z" stroke="white" stroke-width="0.5" stroke-miterlimit="10"/>
<path d="M77.4309 68.4791C78.3579 73.0621 81.3889 76.6451 83.9259 80.2221C91.1869 91.1041 98.2619 102.884 99.9659 116.055C99.978 116.154 100.025 116.244 100.1 116.31C100.174 116.377 100.269 116.413 100.368 116.414C100.468 116.415 100.564 116.38 100.639 116.315C100.714 116.25 100.763 116.16 100.777 116.062C101.359 102.239 92.2769 90.4021 84.6269 79.7161C82.0489 76.1301 78.9499 72.6811 78.2269 68.3381C78.2177 68.2856 78.1982 68.2354 78.1695 68.1904C78.1408 68.1454 78.1036 68.1065 78.0599 68.0759C78.0162 68.0453 77.9669 68.0236 77.9149 68.0121C77.8628 68.0005 77.809 67.9993 77.7564 68.0086C77.7039 68.0179 77.6537 68.0374 77.6087 68.066C77.5637 68.0947 77.5248 68.1319 77.4942 68.1756C77.4636 68.2193 77.4419 68.2686 77.4304 68.3207C77.4188 68.3727 77.4177 68.4266 77.4269 68.4791" fill="white"/>
<path d="M77.4309 68.4789C78.3579 73.0619 81.3889 76.6449 83.9259 80.2219C91.1869 91.1039 98.2619 102.884 99.9659 116.055C99.978 116.153 100.025 116.244 100.1 116.31C100.174 116.376 100.269 116.413 100.368 116.414C100.468 116.415 100.564 116.38 100.639 116.315C100.714 116.25 100.763 116.16 100.777 116.062C101.359 102.239 92.2769 90.4019 84.6269 79.7159C82.0489 76.1299 78.9499 72.6809 78.2269 68.3379C78.2 68.2405 78.1377 68.1566 78.0523 68.1027C77.9668 68.0488 77.8643 68.0286 77.7648 68.0463C77.6653 68.0639 77.5759 68.118 77.5142 68.198C77.4524 68.278 77.4228 68.3782 77.4309 68.4789Z" stroke="white" stroke-width="0.5" stroke-miterlimit="10"/>
<path d="M51.7199 94.4681C53.2544 96.2058 55.2167 97.512 57.4119 98.2571C63.5219 101.028 70.1549 102.792 76.4389 104.937C84.7459 107.85 92.9889 111.513 99.4909 117.562C99.5679 117.638 99.6717 117.679 99.7795 117.678C99.8873 117.678 99.9903 117.634 100.066 117.557C100.134 117.486 100.175 117.393 100.18 117.294C100.185 117.195 100.155 117.098 100.095 117.02C94.3219 109.86 85.5119 106.049 77.0109 103.22C70.5769 101.076 63.9109 100.259 57.7279 97.5021C55.6669 96.6861 53.6139 95.7521 52.3649 93.9751C52.0649 93.5321 51.3649 94.0421 51.7189 94.4661" fill="white"/>
<path d="M51.7199 94.4678C53.2544 96.2055 55.2167 97.5117 57.4119 98.2568C63.5219 101.028 70.1549 102.792 76.4389 104.937C84.7459 107.85 92.9889 111.513 99.4909 117.562C99.5679 117.637 99.6717 117.679 99.7795 117.678C99.8873 117.677 99.9903 117.634 100.066 117.557C100.134 117.486 100.175 117.392 100.18 117.294C100.185 117.195 100.155 117.098 100.095 117.02C94.3219 109.86 85.5119 106.049 77.0109 103.22C70.5769 101.076 63.9109 100.259 57.7279 97.5018C55.6669 96.6858 53.6139 95.7518 52.3649 93.9748C52.0679 93.5338 51.3599 94.0438 51.7199 94.4678Z" stroke="white" stroke-width="0.5" stroke-miterlimit="10"/>
<path d="M219.579 674.311C213.749 698.288 208.079 722.9 194.727 744.062C181.762 764.477 162.242 782.862 161.695 808.429C161.701 808.575 161.648 808.717 161.549 808.824C161.449 808.931 161.312 808.994 161.166 809C161.02 809.005 160.878 808.953 160.771 808.854C160.664 808.754 160.601 808.617 160.595 808.471C160.331 805.335 160.422 802.179 160.868 799.063C164.136 776.899 181.137 760.795 193.068 742.991C206.805 722.399 212.991 697.937 218.513 674.059C218.529 673.989 218.56 673.923 218.602 673.865C218.644 673.806 218.697 673.757 218.758 673.719C218.819 673.682 218.887 673.656 218.958 673.645C219.029 673.633 219.102 673.636 219.171 673.652C219.241 673.669 219.307 673.699 219.366 673.741C219.424 673.783 219.473 673.836 219.511 673.897C219.549 673.959 219.574 674.027 219.586 674.098C219.597 674.168 219.595 674.241 219.579 674.311Z" fill="white"/>
<path d="M203.02 727.659C197.451 750.021 197.079 773.134 197.627 796.048C197.624 796.149 197.583 796.245 197.514 796.319C197.444 796.392 197.35 796.438 197.249 796.446C197.148 796.455 197.047 796.427 196.966 796.366C196.885 796.306 196.829 796.218 196.808 796.119C194.092 778.966 196.088 761.442 198.896 744.43C199.806 738.739 200.996 733.103 202.219 727.474C202.248 727.372 202.314 727.285 202.405 727.231C202.496 727.177 202.604 727.161 202.707 727.184C202.81 727.208 202.9 727.271 202.958 727.359C203.016 727.447 203.039 727.555 203.02 727.659Z" fill="white"/>
<path d="M213.206 698.888C198.517 716.769 181.306 733.52 160.158 743.479C160.064 743.519 159.958 743.523 159.861 743.49C159.764 743.457 159.683 743.389 159.633 743.299C159.583 743.21 159.569 743.105 159.592 743.005C159.615 742.905 159.674 742.818 159.758 742.759C174.323 733.359 188.858 723.789 201.08 711.385C205.152 707.27 208.986 702.927 212.564 698.376C212.875 697.959 213.563 698.465 213.206 698.888Z" fill="white"/>
<path d="M201.029 730.863C185.963 746.963 170.648 766.042 148.277 771.556C148.177 771.575 148.073 771.557 147.985 771.504C147.898 771.452 147.833 771.368 147.803 771.271C147.774 771.173 147.781 771.068 147.824 770.975C147.868 770.883 147.944 770.81 148.038 770.77C163.68 764.691 177.194 754.42 188.99 742.616C192.905 738.623 196.74 734.543 200.417 730.316C200.75 729.916 201.41 730.461 201.029 730.863Z" fill="white"/>
<path d="M199.029 746.415C203.02 760.468 207.286 777.885 205.002 792.315C203.114 804.246 197.028 815.14 194.516 826.955C195.46 817.808 192.069 808.855 189.816 799.939C187.616 791.226 186.469 782.157 187.491 773.229C188.513 764.301 192.951 752.987 198.845 746.204" fill="#F7F7F7"/>
<path d="M199.424 746.302C205.202 766.636 209.701 787.084 201.399 807.443C199.131 813.975 196.614 820.416 195.232 827.11C195.195 827.295 195.088 827.459 194.933 827.567C194.778 827.675 194.587 827.719 194.401 827.689C194.214 827.66 194.046 827.56 193.932 827.409C193.817 827.259 193.765 827.07 193.787 826.883C194.435 820.016 192.609 813.183 190.703 806.471C186.65 793.071 184.055 778.264 188.46 764.557C190.61 757.798 193.76 751.249 198.536 745.937C198.609 745.856 198.711 745.807 198.82 745.802C198.929 745.796 199.036 745.834 199.117 745.907C185.972 765.885 185.672 783.184 192.345 806.015C194.167 812.752 196.038 819.815 195.245 827.033L193.801 826.806C195.329 819.97 197.974 813.532 200.333 807.066C208.913 787.166 204.44 766.506 198.633 746.527C198.477 746.037 199.288 745.771 199.424 746.303" fill="white"/>
<path d="M174.212 770.994C170.312 776.962 169.751 784.478 169.921 791.606C170.091 798.734 170.862 805.977 169.199 812.906C167.192 821.27 161.732 828.733 161.139 837.314C158.23 833.023 156.594 828.004 155.317 822.981C152.386 811.457 151.289 798.696 156.756 788.136C160.856 780.218 168.136 774.503 175.33 769.236" fill="#F7F7F7"/>
<path d="M174.556 771.218C166.564 783.806 172.922 799.35 169.633 813.107C167.703 821.377 162.384 828.893 161.833 837.365C161.821 837.509 161.765 837.645 161.673 837.756C161.581 837.867 161.457 837.946 161.317 837.984C161.178 838.021 161.031 838.015 160.896 837.966C160.76 837.916 160.643 837.826 160.561 837.708C156.77 832.164 155.04 825.665 153.578 819.327C150.632 806.664 151.088 791.804 160.086 781.55C164.386 776.473 169.702 772.534 175.086 768.908C175.174 768.844 175.284 768.817 175.391 768.833C175.499 768.85 175.596 768.909 175.66 768.997C175.725 769.085 175.752 769.194 175.735 769.302C175.719 769.41 175.66 769.507 175.572 769.571C170.504 773.606 165.404 777.661 161.45 782.663C152.988 792.691 152.68 806.644 155.28 818.963C156.606 825.238 158.208 831.608 161.714 836.92L160.444 837.263C161.644 825.621 170.193 816.382 169.786 804.486C170.107 793.276 167.471 780.892 173.866 770.763C174.145 770.326 174.86 770.758 174.554 771.212" fill="white"/>
<path d="M168.2 761.2C163.655 768.911 154.544 778.065 146.328 781.617C138.112 785.169 129.12 786.628 120.178 787.027C123.876 780.981 128.863 775.825 134.782 771.926C140.701 768.028 147.408 765.483 154.423 764.473C159.146 763.828 164.214 763.813 168.2 761.2Z" fill="#F7F7F7"/>
<path d="M168.553 761.409C156.891 779.968 141.553 786.635 120.21 787.747C120.08 787.753 119.95 787.723 119.836 787.661C119.721 787.599 119.625 787.507 119.559 787.395C119.492 787.283 119.457 787.155 119.458 787.025C119.458 786.895 119.494 786.767 119.561 786.655C124.504 778.327 131.842 771.682 140.619 767.588C147.072 764.324 154.401 763.526 161.462 762.888C163.744 762.643 165.957 761.954 167.975 760.859C168.066 760.806 168.174 760.789 168.276 760.813C168.379 760.837 168.469 760.899 168.527 760.988C168.585 761.076 168.606 761.183 168.588 761.286C168.569 761.39 168.511 761.483 168.426 761.545C164.457 764.445 159.286 764.58 154.671 765.319C147.778 766.377 141.191 768.893 135.349 772.701C129.507 776.509 124.545 781.52 120.795 787.399L120.146 786.307C141.374 785.707 156.317 779.492 167.846 760.992C168.097 760.529 168.845 760.947 168.553 761.409Z" fill="white"/>
<path d="M187.418 723.63C181.753 734.32 172.492 742.665 161.272 747.192C153.397 750.335 144.789 751.492 137.145 755.159C139.179 746.559 145.326 739.309 152.783 734.57C160.24 729.831 168.941 727.38 177.661 725.947C181.279 725.347 184.98 724.904 188.319 723.388" fill="#F7F7F7"/>
<path d="M187.784 723.821C180.569 737.714 166.867 747.221 151.818 750.821C146.896 752.062 142.092 753.731 137.46 755.807C137.375 755.849 137.283 755.873 137.188 755.879C137.094 755.885 136.999 755.873 136.91 755.842C136.82 755.811 136.737 755.763 136.666 755.701C136.595 755.638 136.538 755.562 136.496 755.477C138.305 744.495 147.47 735.749 157.177 731.037C162.076 728.73 167.245 727.046 172.563 726.024C177.751 724.905 183.192 724.907 188.151 723.012C188.25 722.969 188.361 722.967 188.462 723.005C188.562 723.044 188.644 723.121 188.688 723.219C188.732 723.317 188.736 723.429 188.699 723.53C188.662 723.631 188.586 723.713 188.489 723.759C186.027 724.913 183.418 725.72 180.735 726.159C172.935 727.52 165.129 729.309 158.015 732.765C148.683 737.192 140.438 745.107 137.852 755.324L136.834 754.505C146.201 750.147 156.743 749.482 165.826 744.599C170.324 742.236 174.445 739.215 178.05 735.634C181.663 732.055 184.701 727.94 187.057 723.434C187.282 722.961 188.057 723.34 187.784 723.816" fill="white"/>
<path d="M198.973 567.613C196.725 615.248 176.01 662.097 141.988 695.587C130.593 706.834 117.422 716.125 103.005 723.087C102.799 723.182 102.564 723.195 102.348 723.124C102.133 723.054 101.952 722.904 101.842 722.706C101.732 722.507 101.701 722.274 101.755 722.054C101.809 721.833 101.945 721.642 102.135 721.517C115.371 713.112 127.74 703.414 139.06 692.565C161.318 670.785 179.46 643.665 188.948 613.874C193.808 598.881 196.577 583.29 197.178 567.541C197.183 567.423 197.211 567.307 197.26 567.199C197.31 567.092 197.38 566.995 197.467 566.915C197.554 566.835 197.656 566.773 197.767 566.732C197.878 566.691 197.996 566.672 198.114 566.677C198.232 566.682 198.348 566.71 198.456 566.759C198.563 566.809 198.66 566.879 198.74 566.966C198.82 567.053 198.882 567.155 198.923 567.266C198.964 567.377 198.983 567.495 198.978 567.613" fill="white"/>
<path d="M198.973 567.613C196.725 615.248 176.01 662.097 141.988 695.587C130.593 706.834 117.422 716.125 103.005 723.087C102.799 723.182 102.564 723.195 102.348 723.124C102.133 723.054 101.952 722.904 101.842 722.706C101.732 722.507 101.701 722.274 101.755 722.054C101.809 721.833 101.945 721.642 102.135 721.517C115.371 713.112 127.74 703.414 139.06 692.565C161.318 670.785 179.46 643.665 188.948 613.874C193.808 598.881 196.577 583.29 197.178 567.541C197.183 567.423 197.211 567.307 197.26 567.199C197.31 567.092 197.38 566.995 197.467 566.915C197.554 566.835 197.656 566.773 197.767 566.732C197.878 566.691 197.996 566.672 198.114 566.677C198.232 566.682 198.348 566.71 198.456 566.759C198.563 566.809 198.66 566.879 198.74 566.966C198.82 567.053 198.882 567.155 198.923 567.266C198.964 567.377 198.983 567.495 198.978 567.613H198.973Z" stroke="white" stroke-width="0.5" stroke-miterlimit="10"/>
<path d="M142.399 690.97C138.199 698.961 133.739 706.795 129.466 714.717C125.194 722.612 121.643 730.983 116.328 738.427L116.057 737.274C126.871 741.168 131.184 727.404 132.417 719.053C134.199 709.333 135.007 698.448 141.629 690.487C141.705 690.401 141.811 690.347 141.925 690.336C142.04 690.325 142.154 690.357 142.246 690.426C142.337 690.495 142.399 690.596 142.42 690.709C142.44 690.822 142.417 690.939 142.356 691.036C132.629 703.936 138.686 732.255 123.3 738.908C122.028 739.434 120.659 739.683 119.284 739.639C117.908 739.595 116.558 739.258 115.323 738.652C115.233 738.604 115.154 738.539 115.089 738.461C115.024 738.383 114.976 738.293 114.946 738.196C114.916 738.099 114.906 737.997 114.915 737.896C114.925 737.795 114.954 737.696 115.002 737.607C117.661 733.958 120.072 730.135 122.219 726.163C128.283 714.55 135.619 702.11 141.589 690.552C141.644 690.444 141.74 690.364 141.855 690.327C141.97 690.29 142.095 690.3 142.202 690.356C142.309 690.411 142.39 690.507 142.427 690.622C142.464 690.737 142.453 690.861 142.398 690.969" fill="white"/>
<path d="M142.399 690.97C138.199 698.961 133.739 706.795 129.466 714.717C125.194 722.612 121.643 730.983 116.328 738.427L116.057 737.274C126.871 741.168 131.184 727.404 132.417 719.053C134.199 709.333 135.007 698.448 141.629 690.487C141.705 690.401 141.811 690.347 141.925 690.336C142.04 690.325 142.154 690.357 142.246 690.426C142.337 690.495 142.399 690.597 142.42 690.71C142.44 690.822 142.417 690.939 142.356 691.036C132.629 703.936 138.686 732.255 123.3 738.908C122.028 739.434 120.659 739.683 119.284 739.639C117.908 739.595 116.558 739.258 115.323 738.652C115.233 738.604 115.154 738.54 115.089 738.461C115.024 738.383 114.976 738.293 114.946 738.196C114.916 738.099 114.906 737.997 114.915 737.896C114.925 737.795 114.954 737.697 115.002 737.607C117.661 733.958 120.072 730.135 122.219 726.163C128.283 714.55 135.619 702.11 141.589 690.552C141.644 690.445 141.74 690.364 141.855 690.327C141.97 690.29 142.095 690.3 142.203 690.356C142.31 690.411 142.391 690.507 142.428 690.622C142.465 690.737 142.454 690.863 142.399 690.97Z" stroke="white" stroke-width="0.5" stroke-miterlimit="10"/>
<path d="M161.668 671.829C155.726 675.575 149.375 678.629 142.738 680.929C138.881 682.218 133.246 683.766 129.703 685.64C123.429 688.893 118.758 694.326 111.778 696.678L111.918 694.856C116.942 697.225 122.954 695.872 127.605 693.136C132.424 690.25 136.277 685.882 140.267 681.657C140.348 681.579 140.455 681.533 140.568 681.529C140.68 681.525 140.791 681.563 140.877 681.635C140.964 681.707 141.021 681.808 141.037 681.92C141.054 682.031 141.029 682.145 140.967 682.239C134.81 691.645 123.111 702.294 111.05 696.622C110.873 696.535 110.727 696.397 110.63 696.226C110.532 696.056 110.488 695.86 110.503 695.663C110.518 695.467 110.592 695.28 110.714 695.126C110.836 694.972 111.002 694.859 111.19 694.8C117.698 692.863 122.903 687.415 129.12 684.47C135.536 681.584 142.559 680.514 148.92 677.565C153.187 675.761 157.287 673.586 161.173 671.065C161.653 670.74 162.188 671.516 161.664 671.832" fill="white"/>
<path d="M161.668 671.829C155.726 675.575 149.375 678.628 142.738 680.929C138.881 682.218 133.246 683.766 129.703 685.64C123.429 688.893 118.758 694.326 111.778 696.678L111.918 694.856C116.942 697.225 122.954 695.872 127.605 693.136C132.424 690.25 136.277 685.882 140.267 681.657C140.348 681.579 140.455 681.533 140.568 681.529C140.68 681.525 140.791 681.563 140.877 681.635C140.964 681.707 141.021 681.808 141.037 681.92C141.054 682.031 141.029 682.145 140.967 682.239C134.81 691.645 123.111 702.294 111.05 696.622C110.873 696.535 110.727 696.397 110.63 696.226C110.532 696.056 110.488 695.859 110.503 695.663C110.518 695.467 110.592 695.28 110.714 695.126C110.836 694.972 111.002 694.859 111.19 694.8C117.698 692.863 122.903 687.415 129.12 684.47C135.536 681.584 142.559 680.514 148.92 677.565C153.187 675.761 157.287 673.586 161.173 671.065C161.656 670.737 162.192 671.511 161.668 671.829Z" stroke="white" stroke-width="0.5" stroke-miterlimit="10"/>
<path d="M169.984 655.724C164.393 663.602 160.984 672.818 160.1 682.438C158.449 692.01 158.1 701.489 160.59 710.955L158.971 710.538C161.116 707.869 162.657 704.767 163.489 701.445C164.32 698.123 164.422 694.661 163.787 691.296C162.565 684.473 158.811 677.061 161.697 670.033C161.747 669.93 161.834 669.85 161.94 669.808C162.046 669.767 162.164 669.766 162.271 669.807C162.378 669.848 162.465 669.927 162.516 670.029C162.567 670.131 162.578 670.249 162.547 670.359C160.71 677.283 164.561 684.04 165.858 690.889C166.591 694.554 166.469 698.339 165.501 701.949C165.41 703.549 160.293 715.025 158.769 711.313C156.534 701.813 157.137 691.783 159.085 682.284C160.15 672.565 163.631 663.267 169.211 655.238C169.276 655.136 169.378 655.064 169.496 655.037C169.614 655.011 169.737 655.033 169.839 655.097C169.941 655.162 170.013 655.265 170.04 655.382C170.066 655.5 170.045 655.624 169.98 655.726" fill="white"/>
<path d="M169.984 655.724C164.393 663.602 160.984 672.818 160.1 682.438C158.449 692.01 158.1 701.489 160.59 710.955L158.971 710.538C161.116 707.869 162.657 704.767 163.489 701.445C164.32 698.123 164.422 694.661 163.787 691.296C162.565 684.473 158.811 677.061 161.697 670.033C161.747 669.93 161.834 669.85 161.94 669.809C162.046 669.767 162.164 669.766 162.271 669.807C162.378 669.848 162.465 669.927 162.516 670.03C162.567 670.132 162.578 670.249 162.547 670.359C160.71 677.283 164.561 684.04 165.858 690.889C166.591 694.554 166.469 698.339 165.501 701.949C165.41 703.549 160.293 715.025 158.769 711.313C156.534 701.813 157.137 691.783 159.085 682.284C160.15 672.565 163.631 663.267 169.211 655.238C169.275 655.135 169.378 655.063 169.496 655.036C169.614 655.009 169.738 655.03 169.84 655.094C169.943 655.159 170.016 655.261 170.043 655.379C170.069 655.498 170.048 655.621 169.984 655.724Z" stroke="white" stroke-width="0.5" stroke-miterlimit="10"/>
<path d="M103.365 721.964C82.6319 720.261 61.7622 721.507 41.3789 725.664C37.0789 726.303 33.5179 728.275 35.1529 733.142C37.9189 741.39 47.6279 743.115 55.3429 743.742C55.4687 743.756 55.5888 743.802 55.6916 743.876C55.7943 743.95 55.8762 744.049 55.9295 744.164C55.9828 744.279 56.0055 744.406 55.9956 744.532C55.9857 744.658 55.9434 744.78 55.8729 744.885C53.6319 748.252 51.3799 751.654 50.5239 755.465C49.0699 760.947 52.2339 767.903 58.4729 767.465C64.4649 767.022 69.0999 762.627 73.5489 758.821C79.6074 753.463 85.1712 747.57 90.1729 741.214C95.1857 734.834 99.787 728.141 103.949 721.176C104.003 721.083 104.092 721.015 104.196 720.988C104.3 720.961 104.411 720.976 104.503 721.03C104.596 721.085 104.664 721.173 104.691 721.277C104.718 721.381 104.703 721.492 104.649 721.585C100.819 728.809 96.4253 735.721 91.5079 742.254C83.8319 751.825 75.5549 761.364 64.7319 767.522C58.4629 770.934 50.6319 769.142 48.9639 761.542C47.3369 755.153 51.2199 748.98 54.6529 744.073L55.1829 745.216C47.1379 744.489 36.8419 742.357 34.0529 733.478C33.3869 731.378 33.4689 728.711 35.1919 727.089C36.9149 725.467 39.1749 725.105 41.1839 724.705C45.2759 723.896 49.3999 723.258 53.5239 722.649C70.0526 720.299 86.7918 719.801 103.431 721.164C103.538 721.173 103.637 721.223 103.707 721.305C103.776 721.387 103.811 721.494 103.802 721.601C103.793 721.708 103.742 721.807 103.66 721.877C103.578 721.946 103.472 721.981 103.365 721.972" fill="white"/>
<path d="M103.365 721.964C82.6319 720.261 61.7622 721.507 41.3789 725.664C37.0789 726.303 33.5179 728.275 35.1529 733.142C37.9189 741.39 47.6279 743.115 55.3429 743.742C55.4687 743.756 55.5888 743.802 55.6916 743.876C55.7943 743.95 55.8762 744.049 55.9295 744.164C55.9828 744.279 56.0055 744.406 55.9956 744.532C55.9857 744.658 55.9434 744.78 55.8729 744.885C53.6319 748.252 51.3799 751.654 50.5239 755.465C49.0699 760.947 52.2339 767.903 58.4729 767.465C64.4649 767.022 69.0999 762.627 73.5489 758.821C79.6074 753.463 85.1712 747.57 90.1729 741.214C95.1857 734.834 99.787 728.141 103.949 721.176C104.003 721.083 104.092 721.015 104.196 720.988C104.3 720.961 104.411 720.976 104.503 721.03C104.596 721.085 104.664 721.173 104.691 721.277C104.718 721.381 104.703 721.492 104.649 721.585C100.819 728.809 96.4253 735.721 91.5079 742.254C83.8319 751.825 75.5549 761.364 64.7319 767.522C58.4629 770.934 50.6319 769.142 48.9639 761.542C47.3369 755.153 51.2199 748.98 54.6529 744.073L55.1829 745.216C47.1379 744.489 36.8419 742.357 34.0529 733.478C33.3869 731.378 33.4689 728.711 35.1919 727.089C36.9149 725.467 39.1749 725.105 41.1839 724.705C45.2759 723.896 49.3999 723.258 53.5239 722.649C70.0526 720.299 86.7918 719.801 103.431 721.164C103.527 721.185 103.612 721.24 103.67 721.319C103.728 721.398 103.756 721.495 103.748 721.593C103.739 721.69 103.696 721.782 103.626 721.85C103.556 721.918 103.463 721.959 103.365 721.964Z" stroke="white" stroke-width="0.5" stroke-miterlimit="10"/>
<path d="M59.6339 722.653C54.9499 720.853 48.2529 717.814 49.5029 711.653C49.7649 709.775 51.7629 708.727 52.7789 707.47C53.1495 706.774 53.2327 705.961 53.0109 705.204C52.6479 697.334 63.0109 697.652 68.4359 698.76C79.0629 700.988 88.1799 706.904 96.8079 713.16C99.6295 715.416 101.987 718.198 103.749 721.351C103.8 721.444 103.813 721.553 103.785 721.655C103.757 721.757 103.691 721.844 103.599 721.898C103.508 721.952 103.399 721.967 103.296 721.942C103.194 721.917 103.105 721.852 103.049 721.762C98.9609 716.023 92.9269 712.444 86.9899 708.815C79.6589 704.324 71.7959 699.894 63.0379 699.485C59.2379 699.053 53.5109 700.348 53.8759 705.112C54.1173 706.073 53.9775 707.089 53.4859 707.949C52.8975 708.647 52.2308 709.275 51.4989 709.82C48.1609 713.189 51.4819 718.194 55.1569 719.768C56.6938 720.587 58.286 721.298 59.9219 721.895C60.0203 721.935 60.0991 722.012 60.1416 722.109C60.1841 722.206 60.1868 722.316 60.1491 722.416C60.1115 722.515 60.0365 722.595 59.9402 722.64C59.8439 722.685 59.7339 722.69 59.6339 722.654" fill="white"/>
<path d="M59.6339 722.653C54.9499 720.853 48.2529 717.814 49.5029 711.653C49.7649 709.775 51.7629 708.727 52.7789 707.47C53.1495 706.774 53.2327 705.961 53.0109 705.204C52.6479 697.334 63.0109 697.652 68.4359 698.76C79.0629 700.988 88.1799 706.904 96.8079 713.16C99.6295 715.416 101.987 718.198 103.749 721.351C103.8 721.444 103.813 721.553 103.785 721.655C103.757 721.757 103.691 721.844 103.599 721.898C103.508 721.952 103.399 721.967 103.296 721.942C103.194 721.917 103.105 721.852 103.049 721.762C98.9609 716.023 92.9269 712.444 86.9899 708.815C79.6589 704.324 71.7959 699.894 63.0379 699.485C59.2379 699.053 53.5109 700.348 53.8759 705.112C54.1173 706.073 53.9775 707.089 53.4859 707.949C52.8975 708.647 52.2308 709.275 51.4989 709.82C48.1609 713.189 51.4819 718.194 55.1569 719.768C56.6938 720.587 58.286 721.298 59.9219 721.895C60.017 721.937 60.0924 722.014 60.1325 722.11C60.1725 722.206 60.1743 722.314 60.1374 722.411C60.1005 722.508 60.0277 722.587 59.934 722.632C59.8403 722.678 59.7329 722.685 59.6339 722.653Z" stroke="white" stroke-width="0.5" stroke-miterlimit="10"/>
<path d="M72.7479 760.779C71.9659 763.535 71.6779 766.759 73.2859 769.251C74.7029 771.512 78.5219 772.678 80.5039 770.577C80.5404 770.536 80.5845 770.503 80.6339 770.479C80.6832 770.456 80.7366 770.442 80.7912 770.439C80.8458 770.437 80.9003 770.445 80.9518 770.463C81.0032 770.482 81.0505 770.51 81.0909 770.547C81.9389 773.192 84.8909 774.447 87.5399 774.057C90.1669 773.768 92.2829 771.797 93.7249 769.583C99.0689 759.953 100.482 748.501 102.868 737.866C103.777 732.431 104.596 726.915 103.899 721.466C103.891 721.413 103.893 721.359 103.906 721.307C103.918 721.255 103.941 721.207 103.973 721.163C104.004 721.12 104.044 721.084 104.09 721.057C104.135 721.029 104.186 721.011 104.239 721.003C104.338 720.989 104.439 721.012 104.522 721.068C104.606 721.123 104.666 721.206 104.693 721.303C106.65 729.617 104.807 738.259 103.027 746.425C100.794 754.666 97.8139 773.774 87.6479 775.053C84.7349 775.346 81.3179 774.006 80.4079 770.988L81.1149 771.153C78.6599 773.665 74.3609 772.378 72.6349 769.672C70.9269 766.944 71.1659 763.53 71.9649 760.572C71.9937 760.468 72.0625 760.38 72.156 760.327C72.2496 760.274 72.3604 760.261 72.4639 760.29C72.5675 760.318 72.6554 760.387 72.7083 760.481C72.7612 760.574 72.7747 760.685 72.7459 760.789" fill="white"/>
<path d="M72.7479 760.779C71.9659 763.535 71.6779 766.759 73.2859 769.251C74.7029 771.512 78.5219 772.678 80.5039 770.577C80.5404 770.536 80.5845 770.503 80.6339 770.479C80.6832 770.456 80.7366 770.442 80.7912 770.439C80.8458 770.437 80.9003 770.445 80.9518 770.463C81.0032 770.482 81.0505 770.51 81.0909 770.547C81.9389 773.192 84.8909 774.447 87.5399 774.057C90.1669 773.768 92.2829 771.797 93.7249 769.583C99.0689 759.953 100.482 748.501 102.868 737.866C103.777 732.431 104.596 726.915 103.899 721.466C103.891 721.413 103.893 721.359 103.906 721.307C103.918 721.255 103.941 721.207 103.973 721.163C104.004 721.12 104.044 721.084 104.09 721.057C104.135 721.029 104.186 721.011 104.239 721.003C104.338 720.989 104.439 721.012 104.522 721.068C104.606 721.123 104.666 721.206 104.693 721.303C106.65 729.617 104.807 738.259 103.027 746.425C100.794 754.666 97.8139 773.774 87.6479 775.053C84.7349 775.346 81.3179 774.006 80.4079 770.988L81.1149 771.153C78.6599 773.665 74.3609 772.378 72.6349 769.672C70.9269 766.944 71.1659 763.53 71.9649 760.572C71.9937 760.469 72.0616 760.382 72.1539 760.33C72.2462 760.277 72.3555 760.263 72.4583 760.29C72.5611 760.317 72.6491 760.383 72.7033 760.475C72.7574 760.566 72.7735 760.675 72.7479 760.779Z" stroke="white" stroke-width="0.5" stroke-miterlimit="10"/>
<path d="M53.9089 707.317C56.3239 710.938 61.2199 710.899 65.1709 710.612C69.4492 710.265 73.7523 710.38 78.0059 710.955C86.4779 712.155 94.9839 715.219 101.517 720.874C101.59 720.941 101.637 721.033 101.648 721.132C101.658 721.231 101.633 721.331 101.575 721.412C101.518 721.493 101.433 721.551 101.336 721.574C101.239 721.597 101.137 721.584 101.049 721.537C90.1249 715.31 77.9579 710.802 65.2159 711.468C61.0429 711.742 55.9159 711.601 53.2309 707.763C53.176 707.673 53.1582 707.566 53.1813 707.463C53.2043 707.36 53.2663 707.27 53.3543 707.212C53.4423 707.154 53.5493 707.133 53.6528 707.153C53.7563 707.172 53.8481 707.231 53.9089 707.317Z" fill="white"/>
<path d="M53.9089 707.317C56.3239 710.938 61.2199 710.899 65.1709 710.612C69.4492 710.265 73.7523 710.38 78.0059 710.955C86.4779 712.155 94.9839 715.219 101.517 720.874C101.59 720.941 101.637 721.033 101.648 721.132C101.658 721.231 101.633 721.331 101.575 721.412C101.518 721.493 101.433 721.551 101.336 721.574C101.239 721.597 101.137 721.584 101.049 721.537C90.1249 715.31 77.9579 710.802 65.2159 711.468C61.0429 711.742 55.9159 711.601 53.2309 707.763C53.176 707.673 53.1582 707.566 53.1813 707.463C53.2043 707.36 53.2663 707.27 53.3543 707.212C53.4423 707.154 53.5493 707.133 53.6528 707.153C53.7563 707.172 53.8481 707.231 53.9089 707.317Z" stroke="white" stroke-width="0.5" stroke-miterlimit="10"/>
<path d="M81.0349 770.375C81.9619 765.792 84.9929 762.209 87.5299 758.632C94.7909 747.75 101.866 735.97 103.57 722.799C103.582 722.701 103.629 722.61 103.704 722.544C103.778 722.478 103.873 722.441 103.972 722.44C104.072 722.439 104.168 722.474 104.243 722.539C104.318 722.604 104.367 722.694 104.381 722.792C104.963 736.615 95.8809 748.452 88.2309 759.138C85.6529 762.724 82.5539 766.173 81.8309 770.516C81.8122 770.622 81.7522 770.717 81.6639 770.778C81.5757 770.84 81.4665 770.864 81.3604 770.846C81.2543 770.827 81.16 770.767 81.0982 770.679C81.0364 770.59 81.0122 770.481 81.0309 770.375" fill="white"/>
<path d="M81.0349 770.375C81.9619 765.792 84.9929 762.209 87.5299 758.632C94.7909 747.75 101.866 735.97 103.57 722.799C103.582 722.701 103.629 722.61 103.704 722.544C103.778 722.478 103.873 722.441 103.972 722.44C104.072 722.439 104.168 722.474 104.243 722.539C104.318 722.604 104.367 722.694 104.381 722.792C104.963 736.615 95.8809 748.452 88.2309 759.138C85.6529 762.724 82.5539 766.173 81.8309 770.516C81.804 770.614 81.7417 770.697 81.6563 770.751C81.5708 770.805 81.4683 770.825 81.3688 770.808C81.2693 770.79 81.1799 770.736 81.1182 770.656C81.0564 770.576 81.0268 770.476 81.0349 770.375Z" stroke="white" stroke-width="0.5" stroke-miterlimit="10"/>
<path d="M55.3229 744.387C56.8574 742.649 58.8196 741.343 61.0149 740.598C67.1249 737.827 73.7579 736.063 80.0419 733.918C88.3489 731.005 96.5919 727.342 103.094 721.293C103.171 721.217 103.275 721.175 103.382 721.176C103.49 721.177 103.593 721.221 103.669 721.298C103.737 721.369 103.778 721.462 103.783 721.561C103.788 721.659 103.758 721.757 103.698 721.835C97.9249 728.995 89.1149 732.806 80.6139 735.635C74.1799 737.779 67.5139 738.596 61.3309 741.353C59.2699 742.169 57.2169 743.103 55.9679 744.88C55.6679 745.323 54.9679 744.813 55.3219 744.389" fill="white"/>
<path d="M55.3229 744.387C56.8574 742.649 58.8196 741.343 61.0149 740.598C67.1249 737.827 73.7579 736.063 80.0419 733.918C88.3489 731.005 96.5919 727.342 103.094 721.293C103.171 721.217 103.275 721.175 103.382 721.176C103.49 721.177 103.593 721.221 103.669 721.298C103.737 721.369 103.778 721.462 103.783 721.561C103.788 721.659 103.758 721.757 103.698 721.835C97.9249 728.995 89.1149 732.806 80.6139 735.635C74.1799 737.779 67.5139 738.596 61.3309 741.353C59.2699 742.169 57.2169 743.103 55.9679 744.88C55.6729 745.321 54.9659 744.811 55.3229 744.387Z" stroke="white" stroke-width="0.5" stroke-miterlimit="10"/>
</g>
</svg>
