<svg width="119" height="119" viewBox="0 0 119 119" fill="none" xmlns="http://www.w3.org/2000/svg">
<g clip-path="url(#clip0_5_996)">
<path d="M59.5 119C92.3609 119 119 92.3609 119 59.5C119 26.6391 92.3609 0 59.5 0C26.6391 0 0 26.6391 0 59.5C0 92.3609 26.6391 119 59.5 119Z" fill="url(#paint0_linear_5_996)"/>
<path d="M59.364 28C56.4265 27.9978 53.5174 28.5747 50.803 29.6978C48.0887 30.8209 45.6224 32.4682 43.5453 34.5453C41.4682 36.6224 39.8209 39.0887 38.6978 41.803C37.5747 44.5174 36.9978 47.4265 37 50.364C37 67.136 59.364 91.9 59.364 91.9C59.364 91.9 81.728 67.14 81.728 50.368C81.7308 47.4302 81.1542 44.5206 80.0314 41.8058C78.9085 39.091 77.2613 36.6243 75.1841 34.5467C73.107 32.4691 70.6405 30.8215 67.9259 29.6982C65.2113 28.5748 62.3019 27.9978 59.364 28ZM59.364 58.351C57.7843 58.351 56.2401 57.8826 54.9267 57.005C53.6132 56.1273 52.5895 54.8799 51.985 53.4205C51.3805 51.9611 51.2223 50.3551 51.5305 48.8058C51.8387 47.2565 52.5993 45.8333 53.7163 44.7163C54.8333 43.5993 56.2565 42.8387 57.8058 42.5305C59.3551 42.2223 60.9611 42.3805 62.4205 42.985C63.8799 43.5895 65.1273 44.6132 66.005 45.9267C66.8826 47.2401 67.351 48.7843 67.351 50.364C67.3502 52.482 66.5085 54.5131 65.0108 56.0108C63.5131 57.5085 61.482 58.3502 59.364 58.351Z" fill="white"/>
</g>
<defs>
<linearGradient id="paint0_linear_5_996" x1="26.299" y1="-23.324" x2="82.229" y2="166.481" gradientUnits="userSpaceOnUse">
<stop stop-color="#E9C35A"/>
<stop offset="0.22" stop-color="#CC9F2D"/>
<stop offset="0.582" stop-color="#F9CF6C"/>
<stop offset="1" stop-color="#B3800B"/>
</linearGradient>
<clipPath id="clip0_5_996">
<rect width="119" height="119" fill="white"/>
</clipPath>
</defs>
</svg>
