<svg width="119" height="119" viewBox="0 0 119 119" fill="none" xmlns="http://www.w3.org/2000/svg">
<g clip-path="url(#clip0_79_440)">
<path d="M59.5 119C92.3609 119 119 92.361 119 59.5C119 26.6391 92.3609 0 59.5 0C26.6391 0 0 26.6391 0 59.5C0 92.361 26.6391 119 59.5 119Z" fill="url(#paint0_linear_79_440)"/>
<path d="M72.907 62.7832C72.907 65.5032 72.1004 68.1622 70.5891 70.4238C69.0778 72.6854 66.9298 74.4481 64.4167 75.4888C61.9037 76.5296 59.1384 76.8016 56.4706 76.2706C53.8029 75.7397 51.3525 74.4295 49.4295 72.5059C47.5064 70.5822 46.1969 68.1315 45.6668 65.4636C45.1366 62.7957 45.4095 60.0306 46.451 57.5178C47.4924 55.005 49.2557 52.8575 51.5177 51.3469C53.7797 49.8363 56.4389 49.0305 59.159 49.0313C62.8056 49.0323 66.3024 50.4816 68.8805 53.0605C71.4587 55.6394 72.907 59.1366 72.907 62.7832Z" fill="white"/>
<path d="M48.311 27L41.694 34.232H30.232C28.3157 34.2376 26.4794 35.0013 25.1243 36.3564C23.7693 37.7114 23.0055 39.5477 23 41.464V84.854C23.0055 86.7704 23.7693 88.6067 25.1243 89.9617C26.4794 91.3168 28.3157 92.0805 30.232 92.086H88.086C90.0023 92.0805 91.8386 91.3168 93.1937 89.9617C94.5487 88.6067 95.3125 86.7704 95.318 84.854V41.464C95.3125 39.5477 94.5487 37.7114 93.1937 36.3564C91.8386 35.0013 90.0023 34.2376 88.086 34.232H76.624L70.007 27H48.311ZM59.159 81.239C55.5831 81.239 52.0875 80.1787 49.1143 78.192C46.141 76.2054 43.8237 73.3816 42.4553 70.078C41.0868 66.7743 40.7288 63.139 41.4264 59.6318C42.124 56.1246 43.846 52.9031 46.3745 50.3746C48.903 47.846 52.1246 46.1241 55.6318 45.4264C59.1389 44.7288 62.7742 45.0869 66.0779 46.4553C69.3816 47.8237 72.2053 50.1411 74.192 53.1143C76.1786 56.0876 77.239 59.5832 77.239 63.159C77.2374 67.9537 75.332 72.5515 71.9417 75.9418C68.5514 79.3321 63.9536 81.2375 59.159 81.239Z" fill="white"/>
</g>
<defs>
<linearGradient id="paint0_linear_79_440" x1="26.299" y1="-23.324" x2="82.229" y2="166.481" gradientUnits="userSpaceOnUse">
<stop stop-color="#EFECDD"/>
<stop offset="0.495" stop-color="#F6B3A6"/>
<stop offset="1" stop-color="#F6B3A6"/>
</linearGradient>
<clipPath id="clip0_79_440">
<rect width="119" height="119" fill="white"/>
</clipPath>
</defs>
</svg>
