<svg width="119" height="119" viewBox="0 0 119 119" fill="none" xmlns="http://www.w3.org/2000/svg">
<g clip-path="url(#clip0_79_444)">
<path d="M59.5 119C92.3609 119 119 92.3609 119 59.5C119 26.639 92.3609 0 59.5 0C26.6391 0 0 26.639 0 59.5C0 92.3609 26.6391 119 59.5 119Z" fill="url(#paint0_linear_79_444)"/>
<path d="M48.809 59.924C52.0649 59.924 55.2476 58.9585 57.9548 57.1496C60.662 55.3408 62.7719 52.7698 64.0179 49.7617C65.2639 46.7537 65.5899 43.4437 64.9547 40.2504C64.3195 37.0571 62.7516 34.1239 60.4494 31.8216C58.1471 29.5194 55.2139 27.9515 52.0206 27.3163C48.8273 26.6811 45.5173 27.0071 42.5093 28.2531C39.5012 29.4991 36.9302 31.609 35.1213 34.3162C33.3125 37.0234 32.347 40.2061 32.347 43.462C32.3469 45.6239 32.7726 47.7646 33.5998 49.7619C34.4271 51.7592 35.6397 53.574 37.1683 55.1027C38.697 56.6313 40.5118 57.8439 42.5091 58.6712C44.5064 59.4984 46.6471 59.9241 48.809 59.924ZM60.332 64.04H58.184C55.2443 65.3956 52.0457 66.0977 48.8085 66.0977C45.5713 66.0977 42.3727 65.3956 39.433 64.04H37.285C32.7011 64.0413 28.3054 65.8628 25.0641 69.1041C21.8228 72.3454 20.0013 76.7411 20 81.325V86.675C20.0005 88.312 20.6511 89.8818 21.8086 91.0394C22.9662 92.1969 24.536 92.8475 26.173 92.848H71.444C73.081 92.8475 74.6508 92.1969 75.8084 91.0394C76.9659 89.8818 77.6165 88.312 77.617 86.675V81.325C77.6157 76.7411 75.7942 72.3454 72.5529 69.1041C69.3116 65.8628 64.9159 64.0413 60.332 64.04ZM101.873 47.526L98.3 43.912C98.1592 43.7689 97.9915 43.655 97.8065 43.5768C97.6215 43.4987 97.423 43.4579 97.2222 43.4567C97.0214 43.4554 96.8224 43.4939 96.6365 43.5698C96.4506 43.6457 96.2815 43.7576 96.139 43.899L82.659 57.275L76.807 51.385C76.6662 51.2419 76.4985 51.128 76.3135 51.0498C76.1286 50.9717 75.93 50.9309 75.7292 50.9297C75.5284 50.9284 75.3294 50.9669 75.1435 51.0428C74.9576 51.1187 74.7885 51.2306 74.646 51.372L71.033 54.96C70.8899 55.1008 70.776 55.2685 70.6979 55.4535C70.6197 55.6384 70.5789 55.837 70.5777 56.0378C70.5765 56.2386 70.6149 56.4376 70.6908 56.6235C70.7667 56.8094 70.8786 56.9785 71.02 57.121L81.527 67.705C81.6678 67.8481 81.8355 67.962 82.0205 68.0401C82.2054 68.1183 82.404 68.1591 82.6048 68.1603C82.8056 68.1615 83.0046 68.1231 83.1905 68.0472C83.3764 67.9713 83.5455 67.8594 83.688 67.718L101.86 49.687C102.146 49.401 102.308 49.0137 102.31 48.6092C102.313 48.2046 102.156 47.8154 101.873 47.526Z" fill="white"/>
</g>
<defs>
<linearGradient id="paint0_linear_79_444" x1="26.299" y1="-23.324" x2="82.229" y2="166.481" gradientUnits="userSpaceOnUse">
<stop stop-color="#EFECDD"/>
<stop offset="0.485" stop-color="#F6B3A6"/>
<stop offset="1" stop-color="#F6B3A6"/>
</linearGradient>
<clipPath id="clip0_79_444">
<rect width="119" height="119" fill="white"/>
</clipPath>
</defs>
</svg>
