<svg width="119" height="119" viewBox="0 0 119 119" fill="none" xmlns="http://www.w3.org/2000/svg">
<g clip-path="url(#clip0_79_456)">
<mask id="mask0_79_456" style="mask-type:luminance" maskUnits="userSpaceOnUse" x="0" y="0" width="119" height="119">
<path d="M119 0H0V119H119V0Z" fill="white"/>
</mask>
<g mask="url(#mask0_79_456)">
<path d="M59.5 119C92.3609 119 119 92.3609 119 59.5C119 26.6391 92.3609 0 59.5 0C26.6391 0 0 26.6391 0 59.5C0 92.3609 26.6391 119 59.5 119Z" fill="url(#paint0_linear_79_456)"/>
<path d="M27.623 87.6234C27.6223 88.2307 27.7415 88.8322 27.9736 89.3934C28.2057 89.9546 28.5462 90.4645 28.9756 90.8939C29.405 91.3233 29.9149 91.6638 30.4761 91.8959C31.0373 92.128 31.6387 92.2471 32.246 92.2464H55.362V69.1315H27.623V87.6234ZM64.608 92.2464H87.723C88.3303 92.2471 88.9317 92.128 89.4929 91.8959C90.0541 91.6638 90.564 91.3233 90.9934 90.8939C91.4228 90.4645 91.7633 89.9546 91.9954 89.3934C92.2275 88.8322 92.3467 88.2307 92.346 87.6234V69.1315H64.608V92.2464ZM92.347 46.0154H86.264C87.2055 44.2335 87.7058 42.2517 87.723 40.2364C87.718 36.8663 86.377 33.6356 83.9939 31.2526C81.6108 28.8695 78.3802 27.5285 75.01 27.5234C69 27.5234 65.11 30.6004 60.129 37.3904C55.145 30.6004 51.259 27.5234 45.249 27.5234C41.8785 27.5282 38.6474 28.8692 36.2641 31.2526C33.8808 33.6359 32.5398 36.8669 32.535 40.2374C32.5451 42.2537 33.0458 44.2371 33.994 46.0164H27.623C27.0157 46.0158 26.4143 46.1349 25.8531 46.367C25.2919 46.5991 24.782 46.9396 24.3526 47.369C23.9232 47.7984 23.5827 48.3083 23.3506 48.8695C23.1185 49.4307 22.9993 50.0322 23 50.6394V62.1964C23.0016 62.8091 23.2457 63.3963 23.6789 63.8295C24.1122 64.2628 24.6993 64.5069 25.312 64.5084H94.658C95.2707 64.5069 95.8578 64.2628 96.2911 63.8295C96.7243 63.3963 96.9684 62.8091 96.97 62.1964V50.6394C96.9708 50.0321 96.8518 49.4305 96.6197 48.8692C96.3877 48.3079 96.0472 47.7979 95.6178 47.3684C95.1883 46.9389 94.6784 46.5983 94.1172 46.3661C93.5559 46.134 92.9544 46.0148 92.347 46.0154ZM45.235 46.0154C44.4761 46.0154 43.7246 45.866 43.0235 45.5755C42.3223 45.2851 41.6853 44.8594 41.1486 44.3228C40.612 43.7862 40.1863 43.1491 39.8959 42.448C39.6055 41.7468 39.456 40.9954 39.456 40.2364C39.456 39.4775 39.6055 38.7261 39.8959 38.0249C40.1863 37.3238 40.612 36.6867 41.1486 36.1501C41.6853 35.6134 42.3223 35.1878 43.0235 34.8973C43.7246 34.6069 44.4761 34.4574 45.235 34.4574C48.11 34.4574 50.235 34.9344 57.674 46.0154H45.235ZM75.011 46.0154H62.571C70 34.9634 72.063 34.4584 75.01 34.4584C76.5427 34.4584 78.0126 35.0673 79.0964 36.1511C80.1801 37.2349 80.789 38.7048 80.789 40.2374C80.789 41.7701 80.1801 43.24 79.0964 44.3238C78.0126 45.4076 76.5427 46.0164 75.01 46.0164L75.011 46.0154Z" fill="white"/>
</g>
</g>
<defs>
<linearGradient id="paint0_linear_79_456" x1="26.299" y1="-23.324" x2="82.229" y2="166.481" gradientUnits="userSpaceOnUse">
<stop stop-color="#EFECDD"/>
<stop offset="0.47" stop-color="#F6B3A6"/>
<stop offset="1" stop-color="#F6B3A6"/>
</linearGradient>
<clipPath id="clip0_79_456">
<rect width="119" height="119" fill="white"/>
</clipPath>
</defs>
</svg>
