<svg width="119" height="119" viewBox="0 0 119 119" fill="none" xmlns="http://www.w3.org/2000/svg">
<g clip-path="url(#clip0_79_463)">
<mask id="mask0_79_463" style="mask-type:luminance" maskUnits="userSpaceOnUse" x="0" y="0" width="119" height="119">
<path d="M119 0H0V119H119V0Z" fill="white"/>
</mask>
<g mask="url(#mask0_79_463)">
<path d="M59.5 119C92.3609 119 119 92.3609 119 59.5C119 26.6391 92.3609 0 59.5 0C26.6391 0 0 26.6391 0 59.5C0 92.3609 26.6391 119 59.5 119Z" fill="url(#paint0_linear_79_463)"/>
<path d="M59.005 44.0995C55.862 44.0999 52.7897 45.0322 50.1765 46.7787C47.5634 48.5251 45.5268 51.0072 44.3242 53.911C43.1217 56.8149 42.8072 60.0101 43.4205 63.0927C44.0339 66.1753 45.5475 69.0068 47.77 71.2292C49.9925 73.4516 52.8241 74.965 55.9067 75.5782C58.9894 76.1913 62.1846 75.8766 65.0884 74.6739C67.9921 73.4711 70.4741 71.4344 72.2204 68.8211C73.9666 66.2079 74.8988 63.1355 74.899 59.9925C74.9024 57.9043 74.4936 55.8361 73.6961 53.9062C72.8985 51.9764 71.7279 50.2229 70.2513 48.7464C68.7747 47.27 67.0212 46.0994 65.0913 45.302C63.1614 44.5046 61.0931 44.0959 59.005 44.0995ZM59.005 70.3245C56.9616 70.3241 54.9642 69.7178 53.2654 68.5823C51.5666 67.4467 50.2426 65.8329 49.4609 63.945C48.6792 62.057 48.4749 59.9797 48.8738 57.9756C49.2726 55.9715 50.2568 54.1307 51.7019 52.686C53.1469 51.2412 54.9879 50.2574 56.9921 49.8589C58.9962 49.4604 61.0735 49.6651 62.9613 50.4472C64.8491 51.2292 66.4627 52.5535 67.5979 54.2525C68.7331 55.9516 69.339 57.9491 69.339 59.9925C69.334 62.7315 68.2435 65.3569 66.3066 67.2935C64.3696 69.2301 61.744 70.32 59.005 70.3245ZM79.256 43.4495C79.256 44.1827 79.0386 44.8994 78.6312 45.509C78.2239 46.1186 77.645 46.5937 76.9676 46.8743C76.2902 47.1549 75.5449 47.2283 74.8258 47.0853C74.1067 46.9422 73.4462 46.5892 72.9277 46.0707C72.4093 45.5523 72.0563 44.8918 71.9132 44.1727C71.7702 43.4536 71.8436 42.7082 72.1242 42.0309C72.4047 41.3535 72.8799 40.7746 73.4895 40.3672C74.0991 39.9599 74.8158 39.7425 75.549 39.7425C76.0361 39.7416 76.5185 39.8368 76.9687 40.0228C77.4189 40.2088 77.8279 40.4818 78.1723 40.8262C78.5167 41.1706 78.7897 41.5796 78.9757 42.0298C79.1617 42.48 79.2569 42.9624 79.256 43.4495ZM89.782 47.2115C89.547 42.2455 88.413 37.8475 84.775 34.2235C81.137 30.5995 76.753 29.4615 71.787 29.2175C66.669 28.9275 51.33 28.9275 46.212 29.2175C41.26 29.4525 36.862 30.5865 33.224 34.2105C29.586 37.8345 28.467 42.2325 28.218 47.1985C27.928 52.3165 27.928 67.6555 28.218 72.7735C28.453 77.7385 29.587 82.1365 33.225 85.7615C36.863 89.3865 41.247 90.5195 46.213 90.7685C51.331 91.0585 66.67 91.0585 71.788 90.7685C76.754 90.5335 81.152 89.3995 84.776 85.7615C88.4 82.1235 89.534 77.7395 89.783 72.7735C90.073 67.6555 90.073 52.3305 89.783 47.2125L89.782 47.2115ZM83.17 78.2615C82.644 79.5949 81.8496 80.806 80.836 81.8195C79.8225 82.8331 78.6114 83.6275 77.278 84.1535C73.198 85.7745 63.516 85.4005 59.005 85.4005C54.494 85.4005 44.805 85.7615 40.735 84.1565C39.4013 83.6302 38.1901 82.8353 37.1765 81.8212C36.1629 80.8071 35.3686 79.5954 34.843 78.2615C33.225 74.1835 33.598 64.5015 33.598 59.9925C33.598 55.4835 33.238 45.7875 34.843 41.7215C35.3689 40.3879 36.1632 39.1766 37.1768 38.1629C38.1904 37.1492 39.4015 36.3546 40.735 35.8285C44.815 34.2105 54.498 34.5835 59.005 34.5835C63.512 34.5835 73.21 34.2235 77.276 35.8285C78.6094 36.3545 79.8205 37.1489 80.834 38.1625C81.8476 39.176 82.642 40.3871 83.168 41.7205C84.786 45.8005 84.413 55.4825 84.413 59.9915C84.413 64.5005 84.789 74.1975 83.17 78.2615Z" fill="white"/>
</g>
</g>
<defs>
<linearGradient id="paint0_linear_79_463" x1="26.299" y1="-23.324" x2="82.229" y2="166.481" gradientUnits="userSpaceOnUse">
<stop stop-color="#EFECDD"/>
<stop offset="0.485" stop-color="#F6B3A6"/>
<stop offset="1" stop-color="#F6B3A6"/>
</linearGradient>
<clipPath id="clip0_79_463">
<rect width="119" height="119" fill="white"/>
</clipPath>
</defs>
</svg>
