<svg width="119" height="120" viewBox="0 0 119 120" fill="none" xmlns="http://www.w3.org/2000/svg">
<g clip-path="url(#clip0_79_470)">
<path d="M59.5 119.362C92.3609 119.362 119 92.7223 119 59.8613C119 27.0004 92.3609 0.361328 59.5 0.361328C26.6391 0.361328 0 27.0004 0 59.8613C0 92.7223 26.6391 119.362 59.5 119.362Z" fill="url(#paint0_linear_79_470)"/>
<path d="M87 30.5504C86.9997 29.893 86.8446 29.245 86.5472 28.6588C86.2498 28.0726 85.8185 27.5647 85.2882 27.1762C84.758 26.7877 84.1437 26.5296 83.4951 26.4228C82.8465 26.316 82.1818 26.3635 81.555 26.5614L39.681 38.9244C38.8315 39.1913 38.0892 39.7223 37.5621 40.44C37.035 41.1577 36.7505 42.0249 36.75 42.9154V77.1254C35.3791 76.7918 33.9739 76.6196 32.563 76.6124C25.624 76.6124 20 80.3614 20 84.9874C20 89.6134 25.624 93.3614 32.563 93.3614C39.502 93.3614 45.126 89.6124 45.126 84.9864V54.4064L78.626 44.5894V68.7504C77.2551 68.4168 75.8499 68.2446 74.439 68.2374C67.501 68.2374 61.876 71.9864 61.876 76.6124C61.876 81.2384 67.5 84.9874 74.439 84.9874C81.378 84.9874 87 81.2374 87 76.6124V30.5504Z" fill="white"/>
</g>
<defs>
<linearGradient id="paint0_linear_79_470" x1="26.299" y1="-22.9627" x2="82.229" y2="166.843" gradientUnits="userSpaceOnUse">
<stop stop-color="#EFECDD"/>
<stop offset="0.505" stop-color="#F6B3A6"/>
<stop offset="1" stop-color="#F6B3A6"/>
</linearGradient>
<clipPath id="clip0_79_470">
<rect width="119" height="120" fill="white"/>
</clipPath>
</defs>
</svg>
