<svg xmlns="http://www.w3.org/2000/svg" width="495.708" height="1054.91" viewBox="0 0 495.708 1054.91">
  <g id="ADORNOS" transform="matrix(-0.993, -0.122, 0.122, -0.993, 369.806, 1063.404)">
    <path id="Trazado_6914" data-name="Trazado 6914" d="M84.271,876.946S349.844,711.1,381.854,579.364C416.089,438.473,313.384,229.112,0,0" transform="translate(0 144.841)" fill="none" stroke="#e7d8cb" stroke-miterlimit="10" stroke-width="4"/>
    <path id="Trazado_6915" data-name="Trazado 6915" d="M55.3,905.915s186.976-94.8,213.311-322.6S0,0,0,0" transform="translate(81.638 0)" fill="none" stroke="#e7d8cb" stroke-miterlimit="10" stroke-width="4"/>
    <path id="Trazado_6916" data-name="Trazado 6916" d="M9.146,0s-25.137,28.349,7.933,51.909C17.079,51.909,35.567,26.684,9.146,0Z" transform="translate(283.427 870.196)" fill="none" stroke="#e7d8cb" stroke-linejoin="round" stroke-width="4"/>
    <path id="Trazado_6917" data-name="Trazado 6917" d="M9.146,0s-25.137,28.348,7.933,51.908C17.079,51.908,35.567,26.683,9.146,0Z" transform="translate(141.718 283.01)" fill="none" stroke="#e7d8cb" stroke-linejoin="round" stroke-width="4"/>
    <path id="Trazado_6918" data-name="Trazado 6918" d="M27.914,10.555S10.276,22.083,0,1.975C0,1.975,15.379-6.148,27.914,10.555Z" transform="translate(201.288 286.459)" fill="none" stroke="#e7d8cb" stroke-linejoin="round" stroke-width="4"/>
    <path id="Trazado_6919" data-name="Trazado 6919" d="M26.234,4.175S11.3-8.023,0,9.282C0,9.282,13.209,18.163,26.234,4.175Z" transform="translate(303.797 801.101)" fill="none" stroke="#e7d8cb" stroke-linejoin="round" stroke-width="4"/>
  </g>
</svg>
