<svg xmlns="http://www.w3.org/2000/svg" width="436.884" height="1039.584" viewBox="0 0 436.884 1039.584">
  <g id="Grupo_68" data-name="Grupo 68" transform="translate(-2282.118 2059.033) rotate(-3)">
    <path id="Trazado_6914" data-name="Trazado 6914" d="M2471.131-1914.624s265.573,165.849,297.583,297.582c34.235,140.891-68.47,350.252-381.854,579.364" fill="none" stroke="#e7d8cb" stroke-miterlimit="10" stroke-width="4"/>
    <path id="Trazado_6915" data-name="Trazado 6915" d="M2523.8-1798.752s186.976,94.8,213.311,322.6S2468.5-892.837,2468.5-892.837" fill="none" stroke="#e7d8cb" stroke-miterlimit="10" stroke-width="4"/>
    <path id="Trazado_6916" data-name="Trazado 6916" d="M2679.434-1763.033s-25.137-28.349,7.933-51.909C2687.367-1814.942,2705.855-1789.717,2679.434-1763.033Z" fill="none" stroke="#e7d8cb" stroke-linejoin="round" stroke-width="4"/>
    <path id="Trazado_6917" data-name="Trazado 6917" d="M2537.725-1175.847s-25.137-28.348,7.933-51.908C2545.658-1227.755,2564.146-1202.53,2537.725-1175.847Z" fill="none" stroke="#e7d8cb" stroke-linejoin="round" stroke-width="4"/>
    <path id="Trazado_6918" data-name="Trazado 6918" d="M2616.062-1189.851s-17.638-11.528-27.914,8.58C2588.148-1181.271,2603.527-1173.148,2616.062-1189.851Z" fill="none" stroke="#e7d8cb" stroke-linejoin="round" stroke-width="4"/>
    <path id="Trazado_6919" data-name="Trazado 6919" d="M2716.891-1698.113s-14.936,12.2-26.234-5.107C2690.657-1703.22,2703.866-1712.1,2716.891-1698.113Z" fill="none" stroke="#e7d8cb" stroke-linejoin="round" stroke-width="4"/>
  </g>
</svg>
