<svg width="96" height="151" viewBox="0 0 96 151" fill="none" xmlns="http://www.w3.org/2000/svg">
<path d="M17.4435 1.56664C16.9865 1.4082 16.5296 1.19693 16.0726 1.03848C15.809 0.95047 15.6332 1.40819 15.8968 1.54903C16.1253 1.65466 16.3362 1.77789 16.5647 1.88353C16.4944 2.00676 16.4768 2.16521 16.5647 2.30605C28.411 20.6328 40.2924 39.1707 55.9878 53.6596C71.279 67.7787 90.5072 74.9263 107.011 86.8448C107.222 86.9857 107.38 87.1793 107.486 87.4082C108.294 89.0631 111.809 96.2283 113.409 99.7316C91.8781 85.8061 67.4474 76.7396 42.5421 73.694C30.4674 66.6872 14.6841 61.617 3.99785 73.9404C3.78693 73.9756 3.5936 73.9932 3.38268 74.0285C2.3457 74.0285 1.30871 74.0637 0.254146 74.1693C0.0256575 74.1869 -0.0446467 74.5742 0.201418 74.627C7.19669 76.3523 14.3501 79.7324 21.486 80.1374C28.8328 80.5599 36.039 77.7431 43.0167 75.4721C67.7989 78.817 91.5793 87.3026 114.2 101.58C115.219 103.904 116.274 106.193 117.223 108.587C117.574 109.485 118.769 108.728 118.4 107.83C117.732 106.157 111.352 92.0559 109.05 87.6371C108.505 86.5279 107.749 85.2252 107.556 84.8555C106.15 59.1699 99.9631 31.3894 81.2797 14.9288C62.9479 -1.23254 39.3609 0.0350194 17.4084 1.51382L17.4435 1.56664ZM26.1788 68.3773C28.8152 68.8878 38.6227 71.0356 39.9936 73.4123C28.5516 72.1975 17.0217 72.2504 5.64999 73.7116C11.5907 68.5885 18.6211 66.8985 26.1612 68.3597L26.1788 68.3773ZM37.6033 76.0002C27.0928 79.8205 17.1272 75.1904 6.89789 74.2045C17.9181 73.5707 28.7625 73.8348 39.4312 75.0672C39.0093 75.384 38.4645 75.7009 37.6033 76.0002ZM55.8823 51.0717C48.3774 44.0825 41.6633 36.0723 35.3887 27.7099C32.4183 23.7488 29.5358 19.6821 26.6885 15.5978C25.3176 13.626 23.56 11.6366 22.4351 9.45363C21.3454 8.29172 20.8006 6.84811 20.783 5.12283C20.5193 4.59468 20.4139 4.18977 20.2908 3.78487C55.6011 21.9531 85.1816 47.8324 105.517 84.0457C89.2944 72.3384 70.9099 65.0323 55.8999 51.054L55.8823 51.0717ZM81.7895 19.506C96.4303 36.4948 100.508 59.1875 105.57 81.1937C85.4628 45.8606 55.2848 16.0379 20.2205 2.62294C20.449 1.7603 21.4509 1.53142 23.437 2.16521C31.4516 -0.281875 44.6337 2.11238 52.6484 3.66162C63.5104 5.739 74.0033 10.4747 81.7719 19.506L81.7895 19.506ZM31.9789 146.578C31.5395 146.842 31.7856 147.494 32.1547 147.635C61.8582 158.162 93.7763 143.04 105.552 110.013C105.64 109.978 105.675 109.907 105.64 109.802C105.675 109.678 105.746 109.573 105.781 109.45C106.132 108.428 104.884 107.707 104.427 108.587C78.8191 84.4506 50.9611 135.082 31.9789 146.596L31.9789 146.578ZM80.5591 141.262C73.0366 146.367 64.5473 149.254 55.812 150.082C51.875 150.451 47.8852 150.275 43.9834 149.694C42.2785 149.483 40.5912 149.149 38.9215 148.708C36.9178 148.004 35.7402 147.335 35.4063 146.719C59.9248 141.79 83.2834 129.009 102.986 112.073C98.0473 124.079 90.8411 134.29 80.5591 141.262ZM104.129 109.221C103.988 109.59 103.83 109.96 103.689 110.33C82.4222 126.614 59.8194 137.565 35.3711 146.068C35.5117 145.68 35.9687 145.311 36.8123 144.941C38.4469 141.614 45.6179 137.723 48.4828 134.783C52.912 130.259 56.9896 125.294 61.3837 120.734C73.2826 108.393 88.8374 99.3971 104.129 109.203L104.129 109.221Z" fill="#E4C4A1"/>
</svg>
