<svg width="60" height="41" viewBox="0 0 60 41" fill="none" xmlns="http://www.w3.org/2000/svg">
<path d="M58.9649 13.6234C59.0669 13.4724 59.1881 13.3265 59.2902 13.1756C59.3478 13.0881 59.1988 12.9795 59.122 13.0618C59.0614 13.1347 58.9961 13.1995 58.9355 13.2725C58.8976 13.2348 58.8418 13.213 58.7821 13.2313C50.9756 15.7601 43.0889 18.2811 36.3005 22.5855C29.6857 26.7788 25.2179 33.0851 19.2838 37.9344C19.2121 37.9975 19.1264 38.0362 19.033 38.0523C18.3536 38.1856 15.4102 38.7677 13.9827 39.0089C21.1351 32.5244 26.8063 24.5104 30.3381 15.737C34.0579 12.0222 37.436 6.76815 34.0038 1.6758C34.0115 1.59556 34.024 1.52344 34.0318 1.4432C34.1328 1.06554 34.221 0.684457 34.2854 0.290111C34.3013 0.205184 34.1676 0.141847 34.1244 0.226315C32.8166 2.6058 30.8928 4.88167 30.0506 7.44099C29.1815 10.0754 29.5019 12.9742 29.6465 15.7366C26.0179 24.436 20.621 32.2698 13.2346 39.1168C12.2918 39.2617 11.3583 39.4228 10.3967 39.5352C10.0366 39.5757 10.1949 40.0847 10.5568 40.0378C11.2289 39.9575 16.9692 39.0078 18.7976 38.5997C19.2532 38.5094 19.7998 38.361 19.9528 38.3266C29.4134 40.3169 40.1002 40.7703 47.8955 35.5697C55.5478 30.468 57.3856 21.7545 58.9875 13.6157L58.9649 13.6234ZM33.8622 10.2957C33.42 11.2061 31.6849 14.5686 30.6887 14.8363C32.2443 10.7877 33.3484 6.58353 33.9259 2.29979C35.2067 4.9624 35.1353 7.68742 33.8703 10.2911L33.8622 10.2957ZM29.9822 13.7137C29.6194 9.51376 32.271 6.33552 33.6254 2.70623C32.7818 6.78135 31.6295 10.705 30.1428 14.4703C30.0688 14.2858 30.0069 14.0565 29.9822 13.7137ZM37.2502 22.7993C40.5184 20.747 44.0801 19.0822 47.7268 17.6118C49.4541 16.9159 51.2111 16.2623 52.9711 15.6233C53.8203 15.3161 54.7137 14.8698 55.6157 14.6729C56.1436 14.3892 56.7207 14.3314 57.3487 14.4931C57.5661 14.4485 57.7233 14.4496 57.8823 14.4442C47.8474 25.5337 35.5716 33.7852 20.4454 37.663C26.2755 32.8955 30.7186 26.912 37.2549 22.8074L37.2502 22.7993ZM46.1843 35.3094C38.5912 38.9863 29.9567 38.2605 21.4755 37.9601C36.26 34.0797 50.0254 25.9947 58.3109 14.5318C58.6018 14.6991 58.5873 15.0862 58.1637 15.7478C58.2712 18.905 56.1179 23.4724 54.7747 26.2403C52.9624 29.9937 50.2211 33.3537 46.186 35.303L46.1843 35.3094ZM4.91089 4.78948C4.85784 4.60373 4.59742 4.62988 4.51034 4.75058C-2.20494 14.5425 0.174882 27.6398 11.0161 35.146C11.0203 35.1815 11.0424 35.2011 11.0842 35.1986C11.1255 35.2234 11.157 35.2593 11.1983 35.2841C11.5347 35.5116 11.9183 35.1275 11.6433 34.8753C22.8994 27.9006 7.23454 12.8224 4.9045 4.78776L4.91089 4.78948ZM2.10797 22.9996C0.987617 19.7626 0.766633 16.3897 1.3173 13.1278C1.56666 11.658 2.01926 10.2221 2.61027 8.85773C2.85305 8.25742 3.13885 7.67552 3.46128 7.11031C3.9121 6.44921 4.26966 6.08552 4.52586 6.02393C3.92651 15.4334 6.2903 25.1854 10.5184 34.0108C6.64128 31.0425 3.63688 27.4233 2.10797 22.9996ZM11.4423 34.7047C11.3218 34.6175 11.2031 34.5239 11.0826 34.4367C7.2433 25.1051 5.47049 15.8067 4.76573 6.07459C4.89262 6.16353 4.9823 6.36597 5.03431 6.70923C6.08286 7.62868 6.79652 10.6193 7.58461 11.9491C8.79545 14.0029 10.2003 15.9716 11.4273 18.016C14.7478 23.5517 16.4979 30.093 11.4487 34.7064L11.4423 34.7047Z" fill="#E4C4A1"/>
</svg>
