<svg width="96" height="151" viewBox="0 0 96 151" fill="none" xmlns="http://www.w3.org/2000/svg">
<path d="M80.093 149.449C80.5536 149.596 81.0155 149.797 81.4761 149.944C81.7418 150.026 81.9065 149.564 81.6396 149.429C81.4087 149.329 81.1949 149.211 80.9639 149.111C81.0313 148.986 81.0451 148.827 80.9539 148.689C68.6736 130.651 56.3531 112.403 40.3164 98.2937C24.6926 84.5448 5.29933 77.8597 -11.4843 66.3397C-11.6985 66.204 -11.8613 66.0142 -11.9722 65.7879C-12.8199 64.1529 -16.5052 57.0739 -18.1877 53.6098C3.66912 67.0158 28.3092 75.4947 53.2801 77.9431C65.5186 84.6587 81.4184 89.3496 91.8075 76.7738C92.0175 76.7335 92.2103 76.7113 92.4203 76.671C93.457 76.6462 94.4929 76.5862 95.5446 76.4553C95.7726 76.4323 95.8337 76.0434 95.5864 75.9965C88.552 74.4392 81.3199 71.2313 74.1764 70.9974C66.8216 70.7509 59.6847 73.7394 52.7632 76.1769C27.9082 73.4263 3.93211 65.5126 -19.0226 51.7808C-20.0971 49.482 -21.206 47.2193 -22.212 44.8484C-22.5849 43.9592 -23.7616 44.7446 -23.3712 45.6334C-22.6636 47.2894 -15.9487 61.2341 -13.5415 65.5966C-12.9703 66.6923 -12.1837 67.9766 -11.9815 68.3416C-9.96283 93.9861 -3.1148 121.611 15.9561 137.619C34.6684 153.337 58.2184 151.505 80.1294 149.501L80.093 149.449ZM69.7656 82.8665C67.1178 82.4192 57.2619 80.5069 55.8346 78.1637C67.3023 79.1041 78.8277 78.7752 90.1612 77.0421C84.3445 82.3059 77.3564 84.1639 69.7836 82.8836L69.7656 82.8665ZM58.1625 75.5193C68.5788 71.4484 78.6521 75.8386 88.9019 76.5792C77.9 77.4767 67.0524 77.4724 56.3574 76.4958C56.7715 76.1689 57.3087 75.8391 58.1625 75.5193ZM40.4836 100.878C48.1532 107.686 55.0565 115.533 61.529 123.743C64.593 127.632 67.5717 131.628 70.5157 135.643C71.9333 137.581 73.7379 139.528 74.9145 141.684C76.0317 142.819 76.6108 144.249 76.6696 145.974C76.9458 146.495 77.0608 146.898 77.1935 147.299C41.4597 129.982 11.27 104.818 -9.92398 69.1023C6.57349 80.4178 25.1272 87.2815 40.4664 100.896L40.4836 100.878ZM15.3373 133.055C0.295131 116.422 -4.32295 93.8334 -9.90862 71.9548C11.0359 106.796 41.9171 135.888 77.2915 148.459C77.0837 149.327 76.0876 149.58 74.0869 148.994C66.133 151.632 52.8975 149.554 44.8482 148.197C33.9397 146.381 23.3368 141.898 15.3548 133.055L15.3373 133.055ZM62.1007 4.82667C62.5337 4.55215 62.2722 3.90685 61.8998 3.77489C31.9535 -6.03859 0.405468 9.844 -10.5789 43.1434C-10.6659 43.1807 -10.6993 43.2519 -10.6617 43.3567C-10.6939 43.4807 -10.7617 43.588 -10.7939 43.712C-11.1209 44.7412 -9.85614 45.4329 -9.4203 44.542C16.7567 68.0583 43.3984 16.7739 62.1003 4.80907L62.1007 4.82667ZM13.6613 11.3051C21.0599 6.021 29.4778 2.93135 38.1908 1.89498C42.1179 1.43111 46.1107 1.51158 50.0254 1.99894C51.7348 2.16932 53.4296 2.46331 55.1094 2.86333C57.1293 3.51934 58.3225 4.15994 58.671 4.76794C34.2771 10.283 11.2302 23.6199 -8.06267 41.0227C-3.41177 28.9013 3.54866 18.5209 13.6613 11.3051ZM-9.13671 43.9013C-9.00497 43.5283 -8.85566 43.1549 -8.72391 42.7819C12.1484 25.9928 34.4834 14.5045 58.7217 5.41829C58.5904 5.80886 58.1424 6.1894 57.3078 6.5792C55.7531 9.94471 48.677 14.006 45.8831 17.0138C41.5632 21.643 37.6052 26.7038 33.3212 31.3674C21.7202 43.9898 6.38453 53.3558 -9.13629 43.9189L-9.13671 43.9013Z" fill="#E4C4A1"/>
</svg>
